<svg xmlns="http://www.w3.org/2000/svg" viewBox="0 0 189.45 109.8"><defs><style>.cls-1{fill:#e4291d;}.cls-2{fill:#ffec00;}</style></defs><title>LA_CUEVA</title><g id="Capa_2" data-name="Capa 2"><g id="Capa_1-2" data-name="Capa 1"><path class="cls-1" d="M77.49,73.1c.3,5,2.41,20.15-3.53,24.06-4,2.62-4.22,2.72-6.91-1.25C57.59,82,43.73,73.77,29.13,66.52A217.55,217.55,0,0,0,2.42,55.36c-3.08-1-3-1.21-.9-3.53C13,39.38,26.22,29,40.41,19.71,50,13.46,59.71,7.63,70.54,3.81A99.68,99.68,0,0,1,84.88.09c1.82-.36,1.86.4,1.53,1.81-1.11,4.89-2.12,9.81-3.24,14.69-.41,1.77.21,2,1.81,1.74,20.5-2.91,40.9-2.07,61.26,1.54A206.68,206.68,0,0,1,187.77,32c2.17.88,2.2,1.05.36,2.53C178.9,42,169.6,49.28,160.6,57c-1.39,1.19-1.77,2.14-.93,4,6.3,13.77,11.82,27.87,17.61,41.85a2,2,0,0,1-1,2.91,51.46,51.46,0,0,0-5.07,3.33c-1.5,1.14-2.68,1-4.18-.11-7.93-5.65-16-11-24.49-15.9-15.49-8.91-31.78-15.77-49.31-19.5a93.76,93.76,0,0,0-13.56-1.8C78.6,71.64,77.68,71.7,77.49,73.1ZM172,39.44a59.6,59.6,0,0,0-7.79-2.86,192.79,192.79,0,0,0-45.19-9.4,175.19,175.19,0,0,0-47.9,1.88c-1.63.31-1.94-.19-1.69-1.75.77-4.73,1.76-9.42,2.75-14.11.52-2.46.39-2.5-2-1.89C58.77,14.24,48.42,19.59,38.58,26A192.45,192.45,0,0,0,8.67,50.41c-1.89,1.86-1.87,1.91.68,3C13.16,54.9,17,56.32,20.8,58,34.06,63.82,46.91,70.39,58.16,79.7c2.41,2,4.48,4.32,6.91,6.71,0-4.8-.13-9.27-.11-13.74,0-4.73.06-4.75,4.8-5.1,14.78-1.1,28.92,2.08,42.73,6.85A195.39,195.39,0,0,1,154.05,95c2.54,1.63,5.08,3.24,8.16,5.2-.66-1.79-1.06-3-1.53-4.15-4.14-10.13-9.06-19.91-14.09-29.62-1.09-2.11-1-3.56.74-5.29a215.14,215.14,0,0,1,21.49-19.1C169.87,41.29,171.17,40.79,172,39.44Z"/><path class="cls-2" d="M172,39.44a59.6,59.6,0,0,0-7.79-2.86,192.79,192.79,0,0,0-45.19-9.4,175.19,175.19,0,0,0-47.9,1.88c-1.63.31-1.94-.19-1.69-1.75.77-4.73,1.76-9.42,2.75-14.11.52-2.46.39-2.5-2-1.89C58.77,14.24,48.42,19.59,38.58,26A192.45,192.45,0,0,0,8.67,50.41c-1.89,1.86-1.87,1.91.68,3C13.16,54.9,17,56.32,20.8,58,34.06,63.82,46.91,70.39,58.16,79.7c2.41,2,4.48,4.32,6.91,6.71,0-4.8-.13-9.27-.11-13.74,0-4.73.06-4.75,4.8-5.1,14.78-1.1,28.92,2.08,42.73,6.85A195.39,195.39,0,0,1,154.05,95c2.54,1.63,5.08,3.24,8.16,5.2-.66-1.79-1.06-3-1.53-4.15-4.14-10.13-9.06-19.91-14.09-29.62-1.09-2.11-1-3.56.74-5.29a215.14,215.14,0,0,1,21.49-19.1C169.87,41.29,171.17,40.79,172,39.44Z"/></g></g></svg>