<?xml version="1.0" encoding="utf-8"?>
<!-- Generator: Adobe Illustrator 25.0.0, SVG Export Plug-In . SVG Version: 6.00 Build 0)  -->
<svg version="1.1" id="Capa_1" xmlns="http://www.w3.org/2000/svg" xmlns:xlink="http://www.w3.org/1999/xlink" x="0px" y="0px"
	 viewBox="0 0 2013.8 39.9" style="enable-background:new 0 0 2013.8 39.9;" xml:space="preserve">
<style type="text/css">
	.st0{fill:#F9F3C4;}
	.st1{fill:#ED3C2E;}
	.st2{fill:#00AC50;}
	.st3{fill:#F17D56;}
</style>
<polygon class="st0" points="36,4 32,4 32,8 28,8 28,12 24,12 24,8 20,8 20,4 16,4 12,4 12,8 16,8 16,12 20,12 20,16 24,16 24,19.9 
	28,19.9 28,16 32,16 32,12 36,12 36,8 40,8 40,4 "/>
<polygon class="st1" points="44,4 44,8 40,8 40,12 36,12 36,16 32,16 32,19.9 28,19.9 28,23.9 24,23.9 24,19.9 20,19.9 20,16 16,16 
	16,12 12,12 12,8 8,8 8,4 4,4 4,0 0,0 0,4 0,8 4,8 4,12 8,12 8,16 12,16 12,19.9 16,19.9 16,23.9 20,23.9 20,27.9 24,27.9 24,31.9 
	28,31.9 28,27.9 32,27.9 32,23.9 36,23.9 36,19.9 40,19.9 40,16 44,16 44,12 47.9,12 47.9,8 47.9,4 "/>
<polygon class="st2" points="44,12 44,16 40,16 40,19.9 36,19.9 36,23.9 32,23.9 32,27.9 28,27.9 28,31.9 24,31.9 24,27.9 20,27.9 
	20,23.9 16,23.9 16,19.9 12,19.9 12,16 8,16 8,12 4,12 4,8 0,8 0,12 0,16 4,16 4,19.9 8,19.9 8,23.9 12,23.9 12,27.9 16,27.9 
	16,31.9 20,31.9 20,35.9 24,35.9 24,39.9 28,39.9 28,35.9 32,35.9 32,31.9 36,31.9 36,27.9 40,27.9 40,23.9 44,23.9 44,19.9 
	47.9,19.9 47.9,16 47.9,12 "/>
<polygon class="st0" points="83.9,4 79.9,4 79.9,8 75.9,8 75.9,12 71.9,12 71.9,8 67.9,8 67.9,4 63.9,4 59.9,4 59.9,8 63.9,8 
	63.9,12 67.9,12 67.9,16 71.9,16 71.9,19.9 75.9,19.9 75.9,16 79.9,16 79.9,12 83.9,12 83.9,8 87.9,8 87.9,4 "/>
<polygon class="st1" points="91.9,4 91.9,8 87.9,8 87.9,12 83.9,12 83.9,16 79.9,16 79.9,19.9 75.9,19.9 75.9,23.9 71.9,23.9 
	71.9,19.9 67.9,19.9 67.9,16 63.9,16 63.9,12 59.9,12 59.9,8 55.9,8 55.9,4 51.9,4 51.9,0 47.9,0 47.9,4 47.9,8 51.9,8 51.9,12 
	55.9,12 55.9,16 59.9,16 59.9,19.9 63.9,19.9 63.9,23.9 67.9,23.9 67.9,27.9 71.9,27.9 71.9,31.9 75.9,31.9 75.9,27.9 79.9,27.9 
	79.9,23.9 83.9,23.9 83.9,19.9 87.9,19.9 87.9,16 91.9,16 91.9,12 95.9,12 95.9,8 95.9,4 "/>
<polygon class="st2" points="91.9,12 91.9,16 87.9,16 87.9,19.9 83.9,19.9 83.9,23.9 79.9,23.9 79.9,27.9 75.9,27.9 75.9,31.9 
	71.9,31.9 71.9,27.9 67.9,27.9 67.9,23.9 63.9,23.9 63.9,19.9 59.9,19.9 59.9,16 55.9,16 55.9,12 51.9,12 51.9,8 47.9,8 47.9,12 
	47.9,16 51.9,16 51.9,19.9 55.9,19.9 55.9,23.9 59.9,23.9 59.9,27.9 63.9,27.9 63.9,31.9 67.9,31.9 67.9,35.9 71.9,35.9 71.9,39.9 
	75.9,39.9 75.9,35.9 79.9,35.9 79.9,31.9 83.9,31.9 83.9,27.9 87.9,27.9 87.9,23.9 91.9,23.9 91.9,19.9 95.9,19.9 95.9,16 95.9,12 
	"/>
<polygon class="st0" points="131.9,4 127.9,4 127.9,8 123.9,8 123.9,12 119.9,12 119.9,8 115.9,8 115.9,4 111.9,4 107.9,4 107.9,8 
	111.9,8 111.9,12 115.9,12 115.9,16 119.9,16 119.9,19.9 123.9,19.9 123.9,16 127.9,16 127.9,12 131.9,12 131.9,8 135.8,8 135.8,4 
	"/>
<polygon class="st1" points="139.8,4 139.8,8 135.8,8 135.8,12 131.9,12 131.9,16 127.9,16 127.9,19.9 123.9,19.9 123.9,23.9 
	119.9,23.9 119.9,19.9 115.9,19.9 115.9,16 111.9,16 111.9,12 107.9,12 107.9,8 103.9,8 103.9,4 99.9,4 99.9,0 95.9,0 95.9,4 
	95.9,8 99.9,8 99.9,12 103.9,12 103.9,16 107.9,16 107.9,19.9 111.9,19.9 111.9,23.9 115.9,23.9 115.9,27.9 119.9,27.9 119.9,31.9 
	123.9,31.9 123.9,27.9 127.9,27.9 127.9,23.9 131.9,23.9 131.9,19.9 135.8,19.9 135.8,16 139.8,16 139.8,12 143.8,12 143.8,8 
	143.8,4 "/>
<polygon class="st2" points="139.8,12 139.8,16 135.8,16 135.8,19.9 131.9,19.9 131.9,23.9 127.9,23.9 127.9,27.9 123.9,27.9 
	123.9,31.9 119.9,31.9 119.9,27.9 115.9,27.9 115.9,23.9 111.9,23.9 111.9,19.9 107.9,19.9 107.9,16 103.9,16 103.9,12 99.9,12 
	99.9,8 95.9,8 95.9,12 95.9,16 99.9,16 99.9,19.9 103.9,19.9 103.9,23.9 107.9,23.9 107.9,27.9 111.9,27.9 111.9,31.9 115.9,31.9 
	115.9,35.9 119.9,35.9 119.9,39.9 123.9,39.9 123.9,35.9 127.9,35.9 127.9,31.9 131.9,31.9 131.9,27.9 135.8,27.9 135.8,23.9 
	139.8,23.9 139.8,19.9 143.8,19.9 143.8,16 143.8,12 "/>
<polygon class="st0" points="179.8,4 175.8,4 175.8,8 171.8,8 171.8,12 167.8,12 167.8,8 163.8,8 163.8,4 159.8,4 155.8,4 155.8,8 
	159.8,8 159.8,12 163.8,12 163.8,16 167.8,16 167.8,19.9 171.8,19.9 171.8,16 175.8,16 175.8,12 179.8,12 179.8,8 183.8,8 183.8,4 
	"/>
<polygon class="st1" points="187.8,4 187.8,8 183.8,8 183.8,12 179.8,12 179.8,16 175.8,16 175.8,19.9 171.8,19.9 171.8,23.9 
	167.8,23.9 167.8,19.9 163.8,19.9 163.8,16 159.8,16 159.8,12 155.8,12 155.8,8 151.8,8 151.8,4 147.8,4 147.8,0 143.8,0 143.8,4 
	143.8,8 147.8,8 147.8,12 151.8,12 151.8,16 155.8,16 155.8,19.9 159.8,19.9 159.8,23.9 163.8,23.9 163.8,27.9 167.8,27.9 
	167.8,31.9 171.8,31.9 171.8,27.9 175.8,27.9 175.8,23.9 179.8,23.9 179.8,19.9 183.8,19.9 183.8,16 187.8,16 187.8,12 191.8,12 
	191.8,8 191.8,4 "/>
<polygon class="st2" points="187.8,12 187.8,16 183.8,16 183.8,19.9 179.8,19.9 179.8,23.9 175.8,23.9 175.8,27.9 171.8,27.9 
	171.8,31.9 167.8,31.9 167.8,27.9 163.8,27.9 163.8,23.9 159.8,23.9 159.8,19.9 155.8,19.9 155.8,16 151.8,16 151.8,12 147.8,12 
	147.8,8 143.8,8 143.8,12 143.8,16 147.8,16 147.8,19.9 151.8,19.9 151.8,23.9 155.8,23.9 155.8,27.9 159.8,27.9 159.8,31.9 
	163.8,31.9 163.8,35.9 167.8,35.9 167.8,39.9 171.8,39.9 171.8,35.9 175.8,35.9 175.8,31.9 179.8,31.9 179.8,27.9 183.8,27.9 
	183.8,23.9 187.8,23.9 187.8,19.9 191.8,19.9 191.8,16 191.8,12 "/>
<polygon class="st0" points="227.7,4 223.8,4 223.8,8 219.8,8 219.8,12 215.8,12 215.8,8 211.8,8 211.8,4 207.8,4 203.8,4 203.8,8 
	207.8,8 207.8,12 211.8,12 211.8,16 215.8,16 215.8,19.9 219.8,19.9 219.8,16 223.8,16 223.8,12 227.7,12 227.7,8 231.7,8 231.7,4 
	"/>
<polygon class="st1" points="235.7,4 235.7,8 231.7,8 231.7,12 227.7,12 227.7,16 223.8,16 223.8,19.9 219.8,19.9 219.8,23.9 
	215.8,23.9 215.8,19.9 211.8,19.9 211.8,16 207.8,16 207.8,12 203.8,12 203.8,8 199.8,8 199.8,4 195.8,4 195.8,0 191.8,0 191.8,4 
	191.8,8 195.8,8 195.8,12 199.8,12 199.8,16 203.8,16 203.8,19.9 207.8,19.9 207.8,23.9 211.8,23.9 211.8,27.9 215.8,27.9 
	215.8,31.9 219.8,31.9 219.8,27.9 223.8,27.9 223.8,23.9 227.7,23.9 227.7,19.9 231.7,19.9 231.7,16 235.7,16 235.7,12 239.7,12 
	239.7,8 239.7,4 "/>
<polygon class="st2" points="235.7,12 235.7,16 231.7,16 231.7,19.9 227.7,19.9 227.7,23.9 223.8,23.9 223.8,27.9 219.8,27.9 
	219.8,31.9 215.8,31.9 215.8,27.9 211.8,27.9 211.8,23.9 207.8,23.9 207.8,19.9 203.8,19.9 203.8,16 199.8,16 199.8,12 195.8,12 
	195.8,8 191.8,8 191.8,12 191.8,16 195.8,16 195.8,19.9 199.8,19.9 199.8,23.9 203.8,23.9 203.8,27.9 207.8,27.9 207.8,31.9 
	211.8,31.9 211.8,35.9 215.8,35.9 215.8,39.9 219.8,39.9 219.8,35.9 223.8,35.9 223.8,31.9 227.7,31.9 227.7,27.9 231.7,27.9 
	231.7,23.9 235.7,23.9 235.7,19.9 239.7,19.9 239.7,16 239.7,12 "/>
<polygon class="st0" points="275.7,4 271.7,4 271.7,8 267.7,8 267.7,12 263.7,12 263.7,8 259.7,8 259.7,4 255.7,4 251.7,4 251.7,8 
	255.7,8 255.7,12 259.7,12 259.7,16 263.7,16 263.7,19.9 267.7,19.9 267.7,16 271.7,16 271.7,12 275.7,12 275.7,8 279.7,8 279.7,4 
	"/>
<polygon class="st1" points="283.7,4 283.7,8 279.7,8 279.7,12 275.7,12 275.7,16 271.7,16 271.7,19.9 267.7,19.9 267.7,23.9 
	263.7,23.9 263.7,19.9 259.7,19.9 259.7,16 255.7,16 255.7,12 251.7,12 251.7,8 247.7,8 247.7,4 243.7,4 243.7,0 239.7,0 239.7,4 
	239.7,8 243.7,8 243.7,12 247.7,12 247.7,16 251.7,16 251.7,19.9 255.7,19.9 255.7,23.9 259.7,23.9 259.7,27.9 263.7,27.9 
	263.7,31.9 267.7,31.9 267.7,27.9 271.7,27.9 271.7,23.9 275.7,23.9 275.7,19.9 279.7,19.9 279.7,16 283.7,16 283.7,12 287.7,12 
	287.7,8 287.7,4 "/>
<polygon class="st2" points="283.7,12 283.7,16 279.7,16 279.7,19.9 275.7,19.9 275.7,23.9 271.7,23.9 271.7,27.9 267.7,27.9 
	267.7,31.9 263.7,31.9 263.7,27.9 259.7,27.9 259.7,23.9 255.7,23.9 255.7,19.9 251.7,19.9 251.7,16 247.7,16 247.7,12 243.7,12 
	243.7,8 239.7,8 239.7,12 239.7,16 243.7,16 243.7,19.9 247.7,19.9 247.7,23.9 251.7,23.9 251.7,27.9 255.7,27.9 255.7,31.9 
	259.7,31.9 259.7,35.9 263.7,35.9 263.7,39.9 267.7,39.9 267.7,35.9 271.7,35.9 271.7,31.9 275.7,31.9 275.7,27.9 279.7,27.9 
	279.7,23.9 283.7,23.9 283.7,19.9 287.7,19.9 287.7,16 287.7,12 "/>
<polygon class="st0" points="323.6,4 319.6,4 319.6,8 315.7,8 315.7,12 311.7,12 311.7,8 307.7,8 307.7,4 303.7,4 299.7,4 299.7,8 
	303.7,8 303.7,12 307.7,12 307.7,16 311.7,16 311.7,19.9 315.7,19.9 315.7,16 319.6,16 319.6,12 323.6,12 323.6,8 327.6,8 327.6,4 
	"/>
<polygon class="st1" points="331.6,4 331.6,8 327.6,8 327.6,12 323.6,12 323.6,16 319.6,16 319.6,19.9 315.7,19.9 315.7,23.9 
	311.7,23.9 311.7,19.9 307.7,19.9 307.7,16 303.7,16 303.7,12 299.7,12 299.7,8 295.7,8 295.7,4 291.7,4 291.7,0 287.7,0 287.7,4 
	287.7,8 291.7,8 291.7,12 295.7,12 295.7,16 299.7,16 299.7,19.9 303.7,19.9 303.7,23.9 307.7,23.9 307.7,27.9 311.7,27.9 
	311.7,31.9 315.7,31.9 315.7,27.9 319.6,27.9 319.6,23.9 323.6,23.9 323.6,19.9 327.6,19.9 327.6,16 331.6,16 331.6,12 335.6,12 
	335.6,8 335.6,4 "/>
<polygon class="st2" points="331.6,12 331.6,16 327.6,16 327.6,19.9 323.6,19.9 323.6,23.9 319.6,23.9 319.6,27.9 315.7,27.9 
	315.7,31.9 311.7,31.9 311.7,27.9 307.7,27.9 307.7,23.9 303.7,23.9 303.7,19.9 299.7,19.9 299.7,16 295.7,16 295.7,12 291.7,12 
	291.7,8 287.7,8 287.7,12 287.7,16 291.7,16 291.7,19.9 295.7,19.9 295.7,23.9 299.7,23.9 299.7,27.9 303.7,27.9 303.7,31.9 
	307.7,31.9 307.7,35.9 311.7,35.9 311.7,39.9 315.7,39.9 315.7,35.9 319.6,35.9 319.6,31.9 323.6,31.9 323.6,27.9 327.6,27.9 
	327.6,23.9 331.6,23.9 331.6,19.9 335.6,19.9 335.6,16 335.6,12 "/>
<polygon class="st0" points="371.6,4 367.6,4 367.6,8 363.6,8 363.6,12 359.6,12 359.6,8 355.6,8 355.6,4 351.6,4 347.6,4 347.6,8 
	351.6,8 351.6,12 355.6,12 355.6,16 359.6,16 359.6,19.9 363.6,19.9 363.6,16 367.6,16 367.6,12 371.6,12 371.6,8 375.6,8 375.6,4 
	"/>
<polygon class="st1" points="379.6,4 379.6,8 375.6,8 375.6,12 371.6,12 371.6,16 367.6,16 367.6,19.9 363.6,19.9 363.6,23.9 
	359.6,23.9 359.6,19.9 355.6,19.9 355.6,16 351.6,16 351.6,12 347.6,12 347.6,8 343.6,8 343.6,4 339.6,4 339.6,0 335.6,0 335.6,4 
	335.6,8 339.6,8 339.6,12 343.6,12 343.6,16 347.6,16 347.6,19.9 351.6,19.9 351.6,23.9 355.6,23.9 355.6,27.9 359.6,27.9 
	359.6,31.9 363.6,31.9 363.6,27.9 367.6,27.9 367.6,23.9 371.6,23.9 371.6,19.9 375.6,19.9 375.6,16 379.6,16 379.6,12 383.6,12 
	383.6,8 383.6,4 "/>
<polygon class="st2" points="379.6,12 379.6,16 375.6,16 375.6,19.9 371.6,19.9 371.6,23.9 367.6,23.9 367.6,27.9 363.6,27.9 
	363.6,31.9 359.6,31.9 359.6,27.9 355.6,27.9 355.6,23.9 351.6,23.9 351.6,19.9 347.6,19.9 347.6,16 343.6,16 343.6,12 339.6,12 
	339.6,8 335.6,8 335.6,12 335.6,16 339.6,16 339.6,19.9 343.6,19.9 343.6,23.9 347.6,23.9 347.6,27.9 351.6,27.9 351.6,31.9 
	355.6,31.9 355.6,35.9 359.6,35.9 359.6,39.9 363.6,39.9 363.6,35.9 367.6,35.9 367.6,31.9 371.6,31.9 371.6,27.9 375.6,27.9 
	375.6,23.9 379.6,23.9 379.6,19.9 383.6,19.9 383.6,16 383.6,12 "/>
<polygon class="st0" points="419.5,4 415.5,4 415.5,8 411.5,8 411.5,12 407.5,12 407.5,8 403.6,8 403.6,4 399.6,4 395.6,4 395.6,8 
	399.6,8 399.6,12 403.6,12 403.6,16 407.5,16 407.5,19.9 411.5,19.9 411.5,16 415.5,16 415.5,12 419.5,12 419.5,8 423.5,8 423.5,4 
	"/>
<polygon class="st1" points="427.5,4 427.5,8 423.5,8 423.5,12 419.5,12 419.5,16 415.5,16 415.5,19.9 411.5,19.9 411.5,23.9 
	407.5,23.9 407.5,19.9 403.6,19.9 403.6,16 399.6,16 399.6,12 395.6,12 395.6,8 391.6,8 391.6,4 387.6,4 387.6,0 383.6,0 383.6,4 
	383.6,8 387.6,8 387.6,12 391.6,12 391.6,16 395.6,16 395.6,19.9 399.6,19.9 399.6,23.9 403.6,23.9 403.6,27.9 407.5,27.9 
	407.5,31.9 411.5,31.9 411.5,27.9 415.5,27.9 415.5,23.9 419.5,23.9 419.5,19.9 423.5,19.9 423.5,16 427.5,16 427.5,12 431.5,12 
	431.5,8 431.5,4 "/>
<polygon class="st2" points="427.5,12 427.5,16 423.5,16 423.5,19.9 419.5,19.9 419.5,23.9 415.5,23.9 415.5,27.9 411.5,27.9 
	411.5,31.9 407.5,31.9 407.5,27.9 403.6,27.9 403.6,23.9 399.6,23.9 399.6,19.9 395.6,19.9 395.6,16 391.6,16 391.6,12 387.6,12 
	387.6,8 383.6,8 383.6,12 383.6,16 387.6,16 387.6,19.9 391.6,19.9 391.6,23.9 395.6,23.9 395.6,27.9 399.6,27.9 399.6,31.9 
	403.6,31.9 403.6,35.9 407.5,35.9 407.5,39.9 411.5,39.9 411.5,35.9 415.5,35.9 415.5,31.9 419.5,31.9 419.5,27.9 423.5,27.9 
	423.5,23.9 427.5,23.9 427.5,19.9 431.5,19.9 431.5,16 431.5,12 "/>
<polygon class="st0" points="467.5,4 463.5,4 463.5,8 459.5,8 459.5,12 455.5,12 455.5,8 451.5,8 451.5,4 447.5,4 443.5,4 443.5,8 
	447.5,8 447.5,12 451.5,12 451.5,16 455.5,16 455.5,19.9 459.5,19.9 459.5,16 463.5,16 463.5,12 467.5,12 467.5,8 471.5,8 471.5,4 
	"/>
<polygon class="st1" points="475.5,4 475.5,8 471.5,8 471.5,12 467.5,12 467.5,16 463.5,16 463.5,19.9 459.5,19.9 459.5,23.9 
	455.5,23.9 455.5,19.9 451.5,19.9 451.5,16 447.5,16 447.5,12 443.5,12 443.5,8 439.5,8 439.5,4 435.5,4 435.5,0 431.5,0 431.5,4 
	431.5,8 435.5,8 435.5,12 439.5,12 439.5,16 443.5,16 443.5,19.9 447.5,19.9 447.5,23.9 451.5,23.9 451.5,27.9 455.5,27.9 
	455.5,31.9 459.5,31.9 459.5,27.9 463.5,27.9 463.5,23.9 467.5,23.9 467.5,19.9 471.5,19.9 471.5,16 475.5,16 475.5,12 479.5,12 
	479.5,8 479.5,4 "/>
<polygon class="st2" points="475.5,12 475.5,16 471.5,16 471.5,19.9 467.5,19.9 467.5,23.9 463.5,23.9 463.5,27.9 459.5,27.9 
	459.5,31.9 455.5,31.9 455.5,27.9 451.5,27.9 451.5,23.9 447.5,23.9 447.5,19.9 443.5,19.9 443.5,16 439.5,16 439.5,12 435.5,12 
	435.5,8 431.5,8 431.5,12 431.5,16 435.5,16 435.5,19.9 439.5,19.9 439.5,23.9 443.5,23.9 443.5,27.9 447.5,27.9 447.5,31.9 
	451.5,31.9 451.5,35.9 455.5,35.9 455.5,39.9 459.5,39.9 459.5,35.9 463.5,35.9 463.5,31.9 467.5,31.9 467.5,27.9 471.5,27.9 
	471.5,23.9 475.5,23.9 475.5,19.9 479.5,19.9 479.5,16 479.5,12 "/>
<polygon class="st0" points="515.4,4 511.4,4 511.4,8 507.4,8 507.4,12 503.4,12 503.4,8 499.4,8 499.4,4 495.5,4 491.5,4 491.5,8 
	495.5,8 495.5,12 499.4,12 499.4,16 503.4,16 503.4,19.9 507.4,19.9 507.4,16 511.4,16 511.4,12 515.4,12 515.4,8 519.4,8 519.4,4 
	"/>
<polygon class="st1" points="523.4,4 523.4,8 519.4,8 519.4,12 515.4,12 515.4,16 511.4,16 511.4,19.9 507.4,19.9 507.4,23.9 
	503.4,23.9 503.4,19.9 499.4,19.9 499.4,16 495.5,16 495.5,12 491.5,12 491.5,8 487.5,8 487.5,4 483.5,4 483.5,0 479.5,0 479.5,4 
	479.5,8 483.5,8 483.5,12 487.5,12 487.5,16 491.5,16 491.5,19.9 495.5,19.9 495.5,23.9 499.4,23.9 499.4,27.9 503.4,27.9 
	503.4,31.9 507.4,31.9 507.4,27.9 511.4,27.9 511.4,23.9 515.4,23.9 515.4,19.9 519.4,19.9 519.4,16 523.4,16 523.4,12 527.4,12 
	527.4,8 527.4,4 "/>
<polygon class="st2" points="523.4,12 523.4,16 519.4,16 519.4,19.9 515.4,19.9 515.4,23.9 511.4,23.9 511.4,27.9 507.4,27.9 
	507.4,31.9 503.4,31.9 503.4,27.9 499.4,27.9 499.4,23.9 495.5,23.9 495.5,19.9 491.5,19.9 491.5,16 487.5,16 487.5,12 483.5,12 
	483.5,8 479.5,8 479.5,12 479.5,16 483.5,16 483.5,19.9 487.5,19.9 487.5,23.9 491.5,23.9 491.5,27.9 495.5,27.9 495.5,31.9 
	499.4,31.9 499.4,35.9 503.4,35.9 503.4,39.9 507.4,39.9 507.4,35.9 511.4,35.9 511.4,31.9 515.4,31.9 515.4,27.9 519.4,27.9 
	519.4,23.9 523.4,23.9 523.4,19.9 527.4,19.9 527.4,16 527.4,12 "/>
<polygon class="st0" points="563.4,4 559.4,4 559.4,8 555.4,8 555.4,12 551.4,12 551.4,8 547.4,8 547.4,4 543.4,4 539.4,4 539.4,8 
	543.4,8 543.4,12 547.4,12 547.4,16 551.4,16 551.4,19.9 555.4,19.9 555.4,16 559.4,16 559.4,12 563.4,12 563.4,8 567.4,8 567.4,4 
	"/>
<polygon class="st1" points="571.4,4 571.4,8 567.4,8 567.4,12 563.4,12 563.4,16 559.4,16 559.4,19.9 555.4,19.9 555.4,23.9 
	551.4,23.9 551.4,19.9 547.4,19.9 547.4,16 543.4,16 543.4,12 539.4,12 539.4,8 535.4,8 535.4,4 531.4,4 531.4,0 527.4,0 527.4,4 
	527.4,8 531.4,8 531.4,12 535.4,12 535.4,16 539.4,16 539.4,19.9 543.4,19.9 543.4,23.9 547.4,23.9 547.4,27.9 551.4,27.9 
	551.4,31.9 555.4,31.9 555.4,27.9 559.4,27.9 559.4,23.9 563.4,23.9 563.4,19.9 567.4,19.9 567.4,16 571.4,16 571.4,12 575.4,12 
	575.4,8 575.4,4 "/>
<polygon class="st2" points="571.4,12 571.4,16 567.4,16 567.4,19.9 563.4,19.9 563.4,23.9 559.4,23.9 559.4,27.9 555.4,27.9 
	555.4,31.9 551.4,31.9 551.4,27.9 547.4,27.9 547.4,23.9 543.4,23.9 543.4,19.9 539.4,19.9 539.4,16 535.4,16 535.4,12 531.4,12 
	531.4,8 527.4,8 527.4,12 527.4,16 531.4,16 531.4,19.9 535.4,19.9 535.4,23.9 539.4,23.9 539.4,27.9 543.4,27.9 543.4,31.9 
	547.4,31.9 547.4,35.9 551.4,35.9 551.4,39.9 555.4,39.9 555.4,35.9 559.4,35.9 559.4,31.9 563.4,31.9 563.4,27.9 567.4,27.9 
	567.4,23.9 571.4,23.9 571.4,19.9 575.4,19.9 575.4,16 575.4,12 "/>
<polygon class="st0" points="611.3,4 607.3,4 607.3,8 603.3,8 603.3,12 599.3,12 599.3,8 595.3,8 595.3,4 591.3,4 587.3,4 587.3,8 
	591.3,8 591.3,12 595.3,12 595.3,16 599.3,16 599.3,19.9 603.3,19.9 603.3,16 607.3,16 607.3,12 611.3,12 611.3,8 615.3,8 615.3,4 
	"/>
<polygon class="st1" points="619.3,4 619.3,8 615.3,8 615.3,12 611.3,12 611.3,16 607.3,16 607.3,19.9 603.3,19.9 603.3,23.9 
	599.3,23.9 599.3,19.9 595.3,19.9 595.3,16 591.3,16 591.3,12 587.3,12 587.3,8 583.4,8 583.4,4 579.4,4 579.4,0 575.4,0 575.4,4 
	575.4,8 579.4,8 579.4,12 583.4,12 583.4,16 587.3,16 587.3,19.9 591.3,19.9 591.3,23.9 595.3,23.9 595.3,27.9 599.3,27.9 
	599.3,31.9 603.3,31.9 603.3,27.9 607.3,27.9 607.3,23.9 611.3,23.9 611.3,19.9 615.3,19.9 615.3,16 619.3,16 619.3,12 623.3,12 
	623.3,8 623.3,4 "/>
<polygon class="st2" points="619.3,12 619.3,16 615.3,16 615.3,19.9 611.3,19.9 611.3,23.9 607.3,23.9 607.3,27.9 603.3,27.9 
	603.3,31.9 599.3,31.9 599.3,27.9 595.3,27.9 595.3,23.9 591.3,23.9 591.3,19.9 587.3,19.9 587.3,16 583.4,16 583.4,12 579.4,12 
	579.4,8 575.4,8 575.4,12 575.4,16 579.4,16 579.4,19.9 583.4,19.9 583.4,23.9 587.3,23.9 587.3,27.9 591.3,27.9 591.3,31.9 
	595.3,31.9 595.3,35.9 599.3,35.9 599.3,39.9 603.3,39.9 603.3,35.9 607.3,35.9 607.3,31.9 611.3,31.9 611.3,27.9 615.3,27.9 
	615.3,23.9 619.3,23.9 619.3,19.9 623.3,19.9 623.3,16 623.3,12 "/>
<polygon class="st0" points="659.3,4 655.3,4 655.3,8 651.3,8 651.3,12 647.3,12 647.3,8 643.3,8 643.3,4 639.3,4 635.3,4 635.3,8 
	639.3,8 639.3,12 643.3,12 643.3,16 647.3,16 647.3,19.9 651.3,19.9 651.3,16 655.3,16 655.3,12 659.3,12 659.3,8 663.3,8 663.3,4 
	"/>
<polygon class="st1" points="667.3,4 667.3,8 663.3,8 663.3,12 659.3,12 659.3,16 655.3,16 655.3,19.9 651.3,19.9 651.3,23.9 
	647.3,23.9 647.3,19.9 643.3,19.9 643.3,16 639.3,16 639.3,12 635.3,12 635.3,8 631.3,8 631.3,4 627.3,4 627.3,0 623.3,0 623.3,4 
	623.3,8 627.3,8 627.3,12 631.3,12 631.3,16 635.3,16 635.3,19.9 639.3,19.9 639.3,23.9 643.3,23.9 643.3,27.9 647.3,27.9 
	647.3,31.9 651.3,31.9 651.3,27.9 655.3,27.9 655.3,23.9 659.3,23.9 659.3,19.9 663.3,19.9 663.3,16 667.3,16 667.3,12 671.3,12 
	671.3,8 671.3,4 "/>
<polygon class="st2" points="667.3,12 667.3,16 663.3,16 663.3,19.9 659.3,19.9 659.3,23.9 655.3,23.9 655.3,27.9 651.3,27.9 
	651.3,31.9 647.3,31.9 647.3,27.9 643.3,27.9 643.3,23.9 639.3,23.9 639.3,19.9 635.3,19.9 635.3,16 631.3,16 631.3,12 627.3,12 
	627.3,8 623.3,8 623.3,12 623.3,16 627.3,16 627.3,19.9 631.3,19.9 631.3,23.9 635.3,23.9 635.3,27.9 639.3,27.9 639.3,31.9 
	643.3,31.9 643.3,35.9 647.3,35.9 647.3,39.9 651.3,39.9 651.3,35.9 655.3,35.9 655.3,31.9 659.3,31.9 659.3,27.9 663.3,27.9 
	663.3,23.9 667.3,23.9 667.3,19.9 671.3,19.9 671.3,16 671.3,12 "/>
<polygon class="st0" points="707.2,4 703.2,4 703.2,8 699.2,8 699.2,12 695.2,12 695.2,8 691.2,8 691.2,4 687.2,4 683.2,4 683.2,8 
	687.2,8 687.2,12 691.2,12 691.2,16 695.2,16 695.2,19.9 699.2,19.9 699.2,16 703.2,16 703.2,12 707.2,12 707.2,8 711.2,8 711.2,4 
	"/>
<polygon class="st1" points="715.2,4 715.2,8 711.2,8 711.2,12 707.2,12 707.2,16 703.2,16 703.2,19.9 699.2,19.9 699.2,23.9 
	695.2,23.9 695.2,19.9 691.2,19.9 691.2,16 687.2,16 687.2,12 683.2,12 683.2,8 679.2,8 679.2,4 675.3,4 675.3,0 671.3,0 671.3,4 
	671.3,8 675.3,8 675.3,12 679.2,12 679.2,16 683.2,16 683.2,19.9 687.2,19.9 687.2,23.9 691.2,23.9 691.2,27.9 695.2,27.9 
	695.2,31.9 699.2,31.9 699.2,27.9 703.2,27.9 703.2,23.9 707.2,23.9 707.2,19.9 711.2,19.9 711.2,16 715.2,16 715.2,12 719.2,12 
	719.2,8 719.2,4 "/>
<polygon class="st2" points="715.2,12 715.2,16 711.2,16 711.2,19.9 707.2,19.9 707.2,23.9 703.2,23.9 703.2,27.9 699.2,27.9 
	699.2,31.9 695.2,31.9 695.2,27.9 691.2,27.9 691.2,23.9 687.2,23.9 687.2,19.9 683.2,19.9 683.2,16 679.2,16 679.2,12 675.3,12 
	675.3,8 671.3,8 671.3,12 671.3,16 675.3,16 675.3,19.9 679.2,19.9 679.2,23.9 683.2,23.9 683.2,27.9 687.2,27.9 687.2,31.9 
	691.2,31.9 691.2,35.9 695.2,35.9 695.2,39.9 699.2,39.9 699.2,35.9 703.2,35.9 703.2,31.9 707.2,31.9 707.2,27.9 711.2,27.9 
	711.2,23.9 715.2,23.9 715.2,19.9 719.2,19.9 719.2,16 719.2,12 "/>
<polygon class="st0" points="755.2,4 751.2,4 751.2,8 747.2,8 747.2,12 743.2,12 743.2,8 739.2,8 739.2,4 735.2,4 731.2,4 731.2,8 
	735.2,8 735.2,12 739.2,12 739.2,16 743.2,16 743.2,19.9 747.2,19.9 747.2,16 751.2,16 751.2,12 755.2,12 755.2,8 759.2,8 759.2,4 
	"/>
<polygon class="st1" points="763.2,4 763.2,8 759.2,8 759.2,12 755.2,12 755.2,16 751.2,16 751.2,19.9 747.2,19.9 747.2,23.9 
	743.2,23.9 743.2,19.9 739.2,19.9 739.2,16 735.2,16 735.2,12 731.2,12 731.2,8 727.2,8 727.2,4 723.2,4 723.2,0 719.2,0 719.2,4 
	719.2,8 723.2,8 723.2,12 727.2,12 727.2,16 731.2,16 731.2,19.9 735.2,19.9 735.2,23.9 739.2,23.9 739.2,27.9 743.2,27.9 
	743.2,31.9 747.2,31.9 747.2,27.9 751.2,27.9 751.2,23.9 755.2,23.9 755.2,19.9 759.2,19.9 759.2,16 763.2,16 763.2,12 767.1,12 
	767.1,8 767.1,4 "/>
<polygon class="st2" points="763.2,12 763.2,16 759.2,16 759.2,19.9 755.2,19.9 755.2,23.9 751.2,23.9 751.2,27.9 747.2,27.9 
	747.2,31.9 743.2,31.9 743.2,27.9 739.2,27.9 739.2,23.9 735.2,23.9 735.2,19.9 731.2,19.9 731.2,16 727.2,16 727.2,12 723.2,12 
	723.2,8 719.2,8 719.2,12 719.2,16 723.2,16 723.2,19.9 727.2,19.9 727.2,23.9 731.2,23.9 731.2,27.9 735.2,27.9 735.2,31.9 
	739.2,31.9 739.2,35.9 743.2,35.9 743.2,39.9 747.2,39.9 747.2,35.9 751.2,35.9 751.2,31.9 755.2,31.9 755.2,27.9 759.2,27.9 
	759.2,23.9 763.2,23.9 763.2,19.9 767.1,19.9 767.1,16 767.1,12 "/>
<polygon class="st0" points="803.1,4 799.1,4 799.1,8 795.1,8 795.1,12 791.1,12 791.1,8 787.1,8 787.1,4 783.1,4 779.1,4 779.1,8 
	783.1,8 783.1,12 787.1,12 787.1,16 791.1,16 791.1,19.9 795.1,19.9 795.1,16 799.1,16 799.1,12 803.1,12 803.1,8 807.1,8 807.1,4 
	"/>
<polygon class="st1" points="811.1,4 811.1,8 807.1,8 807.1,12 803.1,12 803.1,16 799.1,16 799.1,19.9 795.1,19.9 795.1,23.9 
	791.1,23.9 791.1,19.9 787.1,19.9 787.1,16 783.1,16 783.1,12 779.1,12 779.1,8 775.1,8 775.1,4 771.1,4 771.1,0 767.1,0 767.1,4 
	767.1,8 771.1,8 771.1,12 775.1,12 775.1,16 779.1,16 779.1,19.9 783.1,19.9 783.1,23.9 787.1,23.9 787.1,27.9 791.1,27.9 
	791.1,31.9 795.1,31.9 795.1,27.9 799.1,27.9 799.1,23.9 803.1,23.9 803.1,19.9 807.1,19.9 807.1,16 811.1,16 811.1,12 815.1,12 
	815.1,8 815.1,4 "/>
<polygon class="st2" points="811.1,12 811.1,16 807.1,16 807.1,19.9 803.1,19.9 803.1,23.9 799.1,23.9 799.1,27.9 795.1,27.9 
	795.1,31.9 791.1,31.9 791.1,27.9 787.1,27.9 787.1,23.9 783.1,23.9 783.1,19.9 779.1,19.9 779.1,16 775.1,16 775.1,12 771.1,12 
	771.1,8 767.1,8 767.1,12 767.1,16 771.1,16 771.1,19.9 775.1,19.9 775.1,23.9 779.1,23.9 779.1,27.9 783.1,27.9 783.1,31.9 
	787.1,31.9 787.1,35.9 791.1,35.9 791.1,39.9 795.1,39.9 795.1,35.9 799.1,35.9 799.1,31.9 803.1,31.9 803.1,27.9 807.1,27.9 
	807.1,23.9 811.1,23.9 811.1,19.9 815.1,19.9 815.1,16 815.1,12 "/>
<polygon class="st0" points="851.1,4 847.1,4 847.1,8 843.1,8 843.1,12 839.1,12 839.1,8 835.1,8 835.1,4 831.1,4 827.1,4 827.1,8 
	831.1,8 831.1,12 835.1,12 835.1,16 839.1,16 839.1,19.9 843.1,19.9 843.1,16 847.1,16 847.1,12 851.1,12 851.1,8 855.1,8 855.1,4 
	"/>
<polygon class="st1" points="859,4 859,8 855.1,8 855.1,12 851.1,12 851.1,16 847.1,16 847.1,19.9 843.1,19.9 843.1,23.9 
	839.1,23.9 839.1,19.9 835.1,19.9 835.1,16 831.1,16 831.1,12 827.1,12 827.1,8 823.1,8 823.1,4 819.1,4 819.1,0 815.1,0 815.1,4 
	815.1,8 819.1,8 819.1,12 823.1,12 823.1,16 827.1,16 827.1,19.9 831.1,19.9 831.1,23.9 835.1,23.9 835.1,27.9 839.1,27.9 
	839.1,31.9 843.1,31.9 843.1,27.9 847.1,27.9 847.1,23.9 851.1,23.9 851.1,19.9 855.1,19.9 855.1,16 859,16 859,12 863,12 863,8 
	863,4 "/>
<polygon class="st2" points="859,12 859,16 855.1,16 855.1,19.9 851.1,19.9 851.1,23.9 847.1,23.9 847.1,27.9 843.1,27.9 
	843.1,31.9 839.1,31.9 839.1,27.9 835.1,27.9 835.1,23.9 831.1,23.9 831.1,19.9 827.1,19.9 827.1,16 823.1,16 823.1,12 819.1,12 
	819.1,8 815.1,8 815.1,12 815.1,16 819.1,16 819.1,19.9 823.1,19.9 823.1,23.9 827.1,23.9 827.1,27.9 831.1,27.9 831.1,31.9 
	835.1,31.9 835.1,35.9 839.1,35.9 839.1,39.9 843.1,39.9 843.1,35.9 847.1,35.9 847.1,31.9 851.1,31.9 851.1,27.9 855.1,27.9 
	855.1,23.9 859,23.9 859,19.9 863,19.9 863,16 863,12 "/>
<polygon class="st0" points="899,4 895,4 895,8 891,8 891,12 887,12 887,8 883,8 883,4 879,4 875,4 875,8 879,8 879,12 883,12 
	883,16 887,16 887,19.9 891,19.9 891,16 895,16 895,12 899,12 899,8 903,8 903,4 "/>
<polygon class="st1" points="907,4 907,8 903,8 903,12 899,12 899,16 895,16 895,19.9 891,19.9 891,23.9 887,23.9 887,19.9 
	883,19.9 883,16 879,16 879,12 875,12 875,8 871,8 871,4 867,4 867,0 863,0 863,4 863,8 867,8 867,12 871,12 871,16 875,16 
	875,19.9 879,19.9 879,23.9 883,23.9 883,27.9 887,27.9 887,31.9 891,31.9 891,27.9 895,27.9 895,23.9 899,23.9 899,19.9 903,19.9 
	903,16 907,16 907,12 911,12 911,8 911,4 "/>
<polygon class="st2" points="907,12 907,16 903,16 903,19.9 899,19.9 899,23.9 895,23.9 895,27.9 891,27.9 891,31.9 887,31.9 
	887,27.9 883,27.9 883,23.9 879,23.9 879,19.9 875,19.9 875,16 871,16 871,12 867,12 867,8 863,8 863,12 863,16 867,16 867,19.9 
	871,19.9 871,23.9 875,23.9 875,27.9 879,27.9 879,31.9 883,31.9 883,35.9 887,35.9 887,39.9 891,39.9 891,35.9 895,35.9 895,31.9 
	899,31.9 899,27.9 903,27.9 903,23.9 907,23.9 907,19.9 911,19.9 911,16 911,12 "/>
<polygon class="st0" points="947,4 943,4 943,8 939,8 939,12 935,12 935,8 931,8 931,4 927,4 923,4 923,8 927,8 927,12 931,12 
	931,16 935,16 935,19.9 939,19.9 939,16 943,16 943,12 947,12 947,8 950.9,8 950.9,4 "/>
<polygon class="st1" points="954.9,4 954.9,8 950.9,8 950.9,12 947,12 947,16 943,16 943,19.9 939,19.9 939,23.9 935,23.9 935,19.9 
	931,19.9 931,16 927,16 927,12 923,12 923,8 919,8 919,4 915,4 915,0 911,0 911,4 911,8 915,8 915,12 919,12 919,16 923,16 
	923,19.9 927,19.9 927,23.9 931,23.9 931,27.9 935,27.9 935,31.9 939,31.9 939,27.9 943,27.9 943,23.9 947,23.9 947,19.9 
	950.9,19.9 950.9,16 954.9,16 954.9,12 958.9,12 958.9,8 958.9,4 "/>
<polygon class="st2" points="954.9,12 954.9,16 950.9,16 950.9,19.9 947,19.9 947,23.9 943,23.9 943,27.9 939,27.9 939,31.9 
	935,31.9 935,27.9 931,27.9 931,23.9 927,23.9 927,19.9 923,19.9 923,16 919,16 919,12 915,12 915,8 911,8 911,12 911,16 915,16 
	915,19.9 919,19.9 919,23.9 923,23.9 923,27.9 927,27.9 927,31.9 931,31.9 931,35.9 935,35.9 935,39.9 939,39.9 939,35.9 943,35.9 
	943,31.9 947,31.9 947,27.9 950.9,27.9 950.9,23.9 954.9,23.9 954.9,19.9 958.9,19.9 958.9,16 958.9,12 "/>
<polygon class="st0" points="994.9,4 990.9,4 990.9,8 986.9,8 986.9,12 982.9,12 982.9,8 978.9,8 978.9,4 974.9,4 970.9,4 970.9,8 
	974.9,8 974.9,12 978.9,12 978.9,16 982.9,16 982.9,19.9 986.9,19.9 986.9,16 990.9,16 990.9,12 994.9,12 994.9,8 998.9,8 998.9,4 
	"/>
<polygon class="st1" points="1002.9,4 1002.9,8 998.9,8 998.9,12 994.9,12 994.9,16 990.9,16 990.9,19.9 986.9,19.9 986.9,23.9 
	982.9,23.9 982.9,19.9 978.9,19.9 978.9,16 974.9,16 974.9,12 970.9,12 970.9,8 966.9,8 966.9,4 962.9,4 962.9,0 958.9,0 958.9,4 
	958.9,8 962.9,8 962.9,12 966.9,12 966.9,16 970.9,16 970.9,19.9 974.9,19.9 974.9,23.9 978.9,23.9 978.9,27.9 982.9,27.9 
	982.9,31.9 986.9,31.9 986.9,27.9 990.9,27.9 990.9,23.9 994.9,23.9 994.9,19.9 998.9,19.9 998.9,16 1002.9,16 1002.9,12 1006.9,12 
	1006.9,8 1006.9,4 "/>
<polygon class="st2" points="1002.9,12 1002.9,16 998.9,16 998.9,19.9 994.9,19.9 994.9,23.9 990.9,23.9 990.9,27.9 986.9,27.9 
	986.9,31.9 982.9,31.9 982.9,27.9 978.9,27.9 978.9,23.9 974.9,23.9 974.9,19.9 970.9,19.9 970.9,16 966.9,16 966.9,12 962.9,12 
	962.9,8 958.9,8 958.9,12 958.9,16 962.9,16 962.9,19.9 966.9,19.9 966.9,23.9 970.9,23.9 970.9,27.9 974.9,27.9 974.9,31.9 
	978.9,31.9 978.9,35.9 982.9,35.9 982.9,39.9 986.9,39.9 986.9,35.9 990.9,35.9 990.9,31.9 994.9,31.9 994.9,27.9 998.9,27.9 
	998.9,23.9 1002.9,23.9 1002.9,19.9 1006.9,19.9 1006.9,16 1006.9,12 "/>
<polygon class="st0" points="1042.8,4 1038.8,4 1038.8,8 1034.9,8 1034.9,12 1030.9,12 1030.9,8 1026.9,8 1026.9,4 1022.9,4 
	1018.9,4 1018.9,8 1022.9,8 1022.9,12 1026.9,12 1026.9,16 1030.9,16 1030.9,19.9 1034.9,19.9 1034.9,16 1038.8,16 1038.8,12 
	1042.8,12 1042.8,8 1046.8,8 1046.8,4 "/>
<polygon class="st1" points="1050.8,4 1050.8,8 1046.8,8 1046.8,12 1042.8,12 1042.8,16 1038.8,16 1038.8,19.9 1034.9,19.9 
	1034.9,23.9 1030.9,23.9 1030.9,19.9 1026.9,19.9 1026.9,16 1022.9,16 1022.9,12 1018.9,12 1018.9,8 1014.9,8 1014.9,4 1010.9,4 
	1010.9,0 1006.9,0 1006.9,4 1006.9,8 1010.9,8 1010.9,12 1014.9,12 1014.9,16 1018.9,16 1018.9,19.9 1022.9,19.9 1022.9,23.9 
	1026.9,23.9 1026.9,27.9 1030.9,27.9 1030.9,31.9 1034.9,31.9 1034.9,27.9 1038.8,27.9 1038.8,23.9 1042.8,23.9 1042.8,19.9 
	1046.8,19.9 1046.8,16 1050.8,16 1050.8,12 1054.8,12 1054.8,8 1054.8,4 "/>
<polygon class="st2" points="1050.8,12 1050.8,16 1046.8,16 1046.8,19.9 1042.8,19.9 1042.8,23.9 1038.8,23.9 1038.8,27.9 
	1034.9,27.9 1034.9,31.9 1030.9,31.9 1030.9,27.9 1026.9,27.9 1026.9,23.9 1022.9,23.9 1022.9,19.9 1018.9,19.9 1018.9,16 
	1014.9,16 1014.9,12 1010.9,12 1010.9,8 1006.9,8 1006.9,12 1006.9,16 1010.9,16 1010.9,19.9 1014.9,19.9 1014.9,23.9 1018.9,23.9 
	1018.9,27.9 1022.9,27.9 1022.9,31.9 1026.9,31.9 1026.9,35.9 1030.9,35.9 1030.9,39.9 1034.9,39.9 1034.9,35.9 1038.8,35.9 
	1038.8,31.9 1042.8,31.9 1042.8,27.9 1046.8,27.9 1046.8,23.9 1050.8,23.9 1050.8,19.9 1054.8,19.9 1054.8,16 1054.8,12 "/>
<polygon class="st0" points="1090.8,4 1086.8,4 1086.8,8 1082.8,8 1082.8,12 1078.8,12 1078.8,8 1074.8,8 1074.8,4 1070.8,4 
	1066.8,4 1066.8,8 1070.8,8 1070.8,12 1074.8,12 1074.8,16 1078.8,16 1078.8,19.9 1082.8,19.9 1082.8,16 1086.8,16 1086.8,12 
	1090.8,12 1090.8,8 1094.8,8 1094.8,4 "/>
<polygon class="st1" points="1098.8,4 1098.8,8 1094.8,8 1094.8,12 1090.8,12 1090.8,16 1086.8,16 1086.8,19.9 1082.8,19.9 
	1082.8,23.9 1078.8,23.9 1078.8,19.9 1074.8,19.9 1074.8,16 1070.8,16 1070.8,12 1066.8,12 1066.8,8 1062.8,8 1062.8,4 1058.8,4 
	1058.8,0 1054.8,0 1054.8,4 1054.8,8 1058.8,8 1058.8,12 1062.8,12 1062.8,16 1066.8,16 1066.8,19.9 1070.8,19.9 1070.8,23.9 
	1074.8,23.9 1074.8,27.9 1078.8,27.9 1078.8,31.9 1082.8,31.9 1082.8,27.9 1086.8,27.9 1086.8,23.9 1090.8,23.9 1090.8,19.9 
	1094.8,19.9 1094.8,16 1098.8,16 1098.8,12 1102.8,12 1102.8,8 1102.8,4 "/>
<polygon class="st2" points="1098.8,12 1098.8,16 1094.8,16 1094.8,19.9 1090.8,19.9 1090.8,23.9 1086.8,23.9 1086.8,27.9 
	1082.8,27.9 1082.8,31.9 1078.8,31.9 1078.8,27.9 1074.8,27.9 1074.8,23.9 1070.8,23.9 1070.8,19.9 1066.8,19.9 1066.8,16 
	1062.8,16 1062.8,12 1058.8,12 1058.8,8 1054.8,8 1054.8,12 1054.8,16 1058.8,16 1058.8,19.9 1062.8,19.9 1062.8,23.9 1066.8,23.9 
	1066.8,27.9 1070.8,27.9 1070.8,31.9 1074.8,31.9 1074.8,35.9 1078.8,35.9 1078.8,39.9 1082.8,39.9 1082.8,35.9 1086.8,35.9 
	1086.8,31.9 1090.8,31.9 1090.8,27.9 1094.8,27.9 1094.8,23.9 1098.8,23.9 1098.8,19.9 1102.8,19.9 1102.8,16 1102.8,12 "/>
<polygon class="st0" points="1138.7,4 1134.7,4 1134.7,8 1130.7,8 1130.7,12 1126.8,12 1126.8,8 1122.8,8 1122.8,4 1118.8,4 
	1114.8,4 1114.8,8 1118.8,8 1118.8,12 1122.8,12 1122.8,16 1126.8,16 1126.8,19.9 1130.7,19.9 1130.7,16 1134.7,16 1134.7,12 
	1138.7,12 1138.7,8 1142.7,8 1142.7,4 "/>
<polygon class="st1" points="1146.7,4 1146.7,8 1142.7,8 1142.7,12 1138.7,12 1138.7,16 1134.7,16 1134.7,19.9 1130.7,19.9 
	1130.7,23.9 1126.8,23.9 1126.8,19.9 1122.8,19.9 1122.8,16 1118.8,16 1118.8,12 1114.8,12 1114.8,8 1110.8,8 1110.8,4 1106.8,4 
	1106.8,0 1102.8,0 1102.8,4 1102.8,8 1106.8,8 1106.8,12 1110.8,12 1110.8,16 1114.8,16 1114.8,19.9 1118.8,19.9 1118.8,23.9 
	1122.8,23.9 1122.8,27.9 1126.8,27.9 1126.8,31.9 1130.7,31.9 1130.7,27.9 1134.7,27.9 1134.7,23.9 1138.7,23.9 1138.7,19.9 
	1142.7,19.9 1142.7,16 1146.7,16 1146.7,12 1150.7,12 1150.7,8 1150.7,4 "/>
<polygon class="st2" points="1146.7,12 1146.7,16 1142.7,16 1142.7,19.9 1138.7,19.9 1138.7,23.9 1134.7,23.9 1134.7,27.9 
	1130.7,27.9 1130.7,31.9 1126.8,31.9 1126.8,27.9 1122.8,27.9 1122.8,23.9 1118.8,23.9 1118.8,19.9 1114.8,19.9 1114.8,16 
	1110.8,16 1110.8,12 1106.8,12 1106.8,8 1102.8,8 1102.8,12 1102.8,16 1106.8,16 1106.8,19.9 1110.8,19.9 1110.8,23.9 1114.8,23.9 
	1114.8,27.9 1118.8,27.9 1118.8,31.9 1122.8,31.9 1122.8,35.9 1126.8,35.9 1126.8,39.9 1130.7,39.9 1130.7,35.9 1134.7,35.9 
	1134.7,31.9 1138.7,31.9 1138.7,27.9 1142.7,27.9 1142.7,23.9 1146.7,23.9 1146.7,19.9 1150.7,19.9 1150.7,16 1150.7,12 "/>
<polygon class="st0" points="1186.7,4 1182.7,4 1182.7,8 1178.7,8 1178.7,12 1174.7,12 1174.7,8 1170.7,8 1170.7,4 1166.7,4 
	1162.7,4 1162.7,8 1166.7,8 1166.7,12 1170.7,12 1170.7,16 1174.7,16 1174.7,19.9 1178.7,19.9 1178.7,16 1182.7,16 1182.7,12 
	1186.7,12 1186.7,8 1190.7,8 1190.7,4 "/>
<polygon class="st1" points="1194.7,4 1194.7,8 1190.7,8 1190.7,12 1186.7,12 1186.7,16 1182.7,16 1182.7,19.9 1178.7,19.9 
	1178.7,23.9 1174.7,23.9 1174.7,19.9 1170.7,19.9 1170.7,16 1166.7,16 1166.7,12 1162.7,12 1162.7,8 1158.7,8 1158.7,4 1154.7,4 
	1154.7,0 1150.7,0 1150.7,4 1150.7,8 1154.7,8 1154.7,12 1158.7,12 1158.7,16 1162.7,16 1162.7,19.9 1166.7,19.9 1166.7,23.9 
	1170.7,23.9 1170.7,27.9 1174.7,27.9 1174.7,31.9 1178.7,31.9 1178.7,27.9 1182.7,27.9 1182.7,23.9 1186.7,23.9 1186.7,19.9 
	1190.7,19.9 1190.7,16 1194.7,16 1194.7,12 1198.7,12 1198.7,8 1198.7,4 "/>
<polygon class="st2" points="1194.7,12 1194.7,16 1190.7,16 1190.7,19.9 1186.7,19.9 1186.7,23.9 1182.7,23.9 1182.7,27.9 
	1178.7,27.9 1178.7,31.9 1174.7,31.9 1174.7,27.9 1170.7,27.9 1170.7,23.9 1166.7,23.9 1166.7,19.9 1162.7,19.9 1162.7,16 
	1158.7,16 1158.7,12 1154.7,12 1154.7,8 1150.7,8 1150.7,12 1150.7,16 1154.7,16 1154.7,19.9 1158.7,19.9 1158.7,23.9 1162.7,23.9 
	1162.7,27.9 1166.7,27.9 1166.7,31.9 1170.7,31.9 1170.7,35.9 1174.7,35.9 1174.7,39.9 1178.7,39.9 1178.7,35.9 1182.7,35.9 
	1182.7,31.9 1186.7,31.9 1186.7,27.9 1190.7,27.9 1190.7,23.9 1194.7,23.9 1194.7,19.9 1198.7,19.9 1198.7,16 1198.7,12 "/>
<polygon class="st0" points="1234.6,4 1230.6,4 1230.6,8 1226.6,8 1226.6,12 1222.6,12 1222.6,8 1218.6,8 1218.6,4 1214.7,4 
	1210.7,4 1210.7,8 1214.7,8 1214.7,12 1218.6,12 1218.6,16 1222.6,16 1222.6,19.9 1226.6,19.9 1226.6,16 1230.6,16 1230.6,12 
	1234.6,12 1234.6,8 1238.6,8 1238.6,4 "/>
<polygon class="st1" points="1242.6,4 1242.6,8 1238.6,8 1238.6,12 1234.6,12 1234.6,16 1230.6,16 1230.6,19.9 1226.6,19.9 
	1226.6,23.9 1222.6,23.9 1222.6,19.9 1218.6,19.9 1218.6,16 1214.7,16 1214.7,12 1210.7,12 1210.7,8 1206.7,8 1206.7,4 1202.7,4 
	1202.7,0 1198.7,0 1198.7,4 1198.7,8 1202.7,8 1202.7,12 1206.7,12 1206.7,16 1210.7,16 1210.7,19.9 1214.7,19.9 1214.7,23.9 
	1218.6,23.9 1218.6,27.9 1222.6,27.9 1222.6,31.9 1226.6,31.9 1226.6,27.9 1230.6,27.9 1230.6,23.9 1234.6,23.9 1234.6,19.9 
	1238.6,19.9 1238.6,16 1242.6,16 1242.6,12 1246.6,12 1246.6,8 1246.6,4 "/>
<polygon class="st2" points="1242.6,12 1242.6,16 1238.6,16 1238.6,19.9 1234.6,19.9 1234.6,23.9 1230.6,23.9 1230.6,27.9 
	1226.6,27.9 1226.6,31.9 1222.6,31.9 1222.6,27.9 1218.6,27.9 1218.6,23.9 1214.7,23.9 1214.7,19.9 1210.7,19.9 1210.7,16 
	1206.7,16 1206.7,12 1202.7,12 1202.7,8 1198.7,8 1198.7,12 1198.7,16 1202.7,16 1202.7,19.9 1206.7,19.9 1206.7,23.9 1210.7,23.9 
	1210.7,27.9 1214.7,27.9 1214.7,31.9 1218.6,31.9 1218.6,35.9 1222.6,35.9 1222.6,39.9 1226.6,39.9 1226.6,35.9 1230.6,35.9 
	1230.6,31.9 1234.6,31.9 1234.6,27.9 1238.6,27.9 1238.6,23.9 1242.6,23.9 1242.6,19.9 1246.6,19.9 1246.6,16 1246.6,12 "/>
<polygon class="st0" points="1282.6,4 1278.6,4 1278.6,8 1274.6,8 1274.6,12 1270.6,12 1270.6,8 1266.6,8 1266.6,4 1262.6,4 
	1258.6,4 1258.6,8 1262.6,8 1262.6,12 1266.6,12 1266.6,16 1270.6,16 1270.6,19.9 1274.6,19.9 1274.6,16 1278.6,16 1278.6,12 
	1282.6,12 1282.6,8 1286.6,8 1286.6,4 "/>
<polygon class="st1" points="1290.6,4 1290.6,8 1286.6,8 1286.6,12 1282.6,12 1282.6,16 1278.6,16 1278.6,19.9 1274.6,19.9 
	1274.6,23.9 1270.6,23.9 1270.6,19.9 1266.6,19.9 1266.6,16 1262.6,16 1262.6,12 1258.6,12 1258.6,8 1254.6,8 1254.6,4 1250.6,4 
	1250.6,0 1246.6,0 1246.6,4 1246.6,8 1250.6,8 1250.6,12 1254.6,12 1254.6,16 1258.6,16 1258.6,19.9 1262.6,19.9 1262.6,23.9 
	1266.6,23.9 1266.6,27.9 1270.6,27.9 1270.6,31.9 1274.6,31.9 1274.6,27.9 1278.6,27.9 1278.6,23.9 1282.6,23.9 1282.6,19.9 
	1286.6,19.9 1286.6,16 1290.6,16 1290.6,12 1294.6,12 1294.6,8 1294.6,4 "/>
<polygon class="st2" points="1290.6,12 1290.6,16 1286.6,16 1286.6,19.9 1282.6,19.9 1282.6,23.9 1278.6,23.9 1278.6,27.9 
	1274.6,27.9 1274.6,31.9 1270.6,31.9 1270.6,27.9 1266.6,27.9 1266.6,23.9 1262.6,23.9 1262.6,19.9 1258.6,19.9 1258.6,16 
	1254.6,16 1254.6,12 1250.6,12 1250.6,8 1246.6,8 1246.6,12 1246.6,16 1250.6,16 1250.6,19.9 1254.6,19.9 1254.6,23.9 1258.6,23.9 
	1258.6,27.9 1262.6,27.9 1262.6,31.9 1266.6,31.9 1266.6,35.9 1270.6,35.9 1270.6,39.9 1274.6,39.9 1274.6,35.9 1278.6,35.9 
	1278.6,31.9 1282.6,31.9 1282.6,27.9 1286.6,27.9 1286.6,23.9 1290.6,23.9 1290.6,19.9 1294.6,19.9 1294.6,16 1294.6,12 "/>
<polygon class="st0" points="1330.5,4 1326.5,4 1326.5,8 1322.5,8 1322.5,12 1318.5,12 1318.5,8 1314.5,8 1314.5,4 1310.5,4 
	1306.6,4 1306.6,8 1310.5,8 1310.5,12 1314.5,12 1314.5,16 1318.5,16 1318.5,19.9 1322.5,19.9 1322.5,16 1326.5,16 1326.5,12 
	1330.5,12 1330.5,8 1334.5,8 1334.5,4 "/>
<polygon class="st1" points="1338.5,4 1338.5,8 1334.5,8 1334.5,12 1330.5,12 1330.5,16 1326.5,16 1326.5,19.9 1322.5,19.9 
	1322.5,23.9 1318.5,23.9 1318.5,19.9 1314.5,19.9 1314.5,16 1310.5,16 1310.5,12 1306.6,12 1306.6,8 1302.6,8 1302.6,4 1298.6,4 
	1298.6,0 1294.6,0 1294.6,4 1294.6,8 1298.6,8 1298.6,12 1302.6,12 1302.6,16 1306.6,16 1306.6,19.9 1310.5,19.9 1310.5,23.9 
	1314.5,23.9 1314.5,27.9 1318.5,27.9 1318.5,31.9 1322.5,31.9 1322.5,27.9 1326.5,27.9 1326.5,23.9 1330.5,23.9 1330.5,19.9 
	1334.5,19.9 1334.5,16 1338.5,16 1338.5,12 1342.5,12 1342.5,8 1342.5,4 "/>
<polygon class="st2" points="1338.5,12 1338.5,16 1334.5,16 1334.5,19.9 1330.5,19.9 1330.5,23.9 1326.5,23.9 1326.5,27.9 
	1322.5,27.9 1322.5,31.9 1318.5,31.9 1318.5,27.9 1314.5,27.9 1314.5,23.9 1310.5,23.9 1310.5,19.9 1306.6,19.9 1306.6,16 
	1302.6,16 1302.6,12 1298.6,12 1298.6,8 1294.6,8 1294.6,12 1294.6,16 1298.6,16 1298.6,19.9 1302.6,19.9 1302.6,23.9 1306.6,23.9 
	1306.6,27.9 1310.5,27.9 1310.5,31.9 1314.5,31.9 1314.5,35.9 1318.5,35.9 1318.5,39.9 1322.5,39.9 1322.5,35.9 1326.5,35.9 
	1326.5,31.9 1330.5,31.9 1330.5,27.9 1334.5,27.9 1334.5,23.9 1338.5,23.9 1338.5,19.9 1342.5,19.9 1342.5,16 1342.5,12 "/>
<polygon class="st0" points="1378.5,4 1374.5,4 1374.5,8 1370.5,8 1370.5,12 1366.5,12 1366.5,8 1362.5,8 1362.5,4 1358.5,4 
	1354.5,4 1354.5,8 1358.5,8 1358.5,12 1362.5,12 1362.5,16 1366.5,16 1366.5,19.9 1370.5,19.9 1370.5,16 1374.5,16 1374.5,12 
	1378.5,12 1378.5,8 1382.5,8 1382.5,4 "/>
<polygon class="st1" points="1386.5,4 1386.5,8 1382.5,8 1382.5,12 1378.5,12 1378.5,16 1374.5,16 1374.5,19.9 1370.5,19.9 
	1370.5,23.9 1366.5,23.9 1366.5,19.9 1362.5,19.9 1362.5,16 1358.5,16 1358.5,12 1354.5,12 1354.5,8 1350.5,8 1350.5,4 1346.5,4 
	1346.5,0 1342.5,0 1342.5,4 1342.5,8 1346.5,8 1346.5,12 1350.5,12 1350.5,16 1354.5,16 1354.5,19.9 1358.5,19.9 1358.5,23.9 
	1362.5,23.9 1362.5,27.9 1366.5,27.9 1366.5,31.9 1370.5,31.9 1370.5,27.9 1374.5,27.9 1374.5,23.9 1378.5,23.9 1378.5,19.9 
	1382.5,19.9 1382.5,16 1386.5,16 1386.5,12 1390.5,12 1390.5,8 1390.5,4 "/>
<polygon class="st2" points="1386.5,12 1386.5,16 1382.5,16 1382.5,19.9 1378.5,19.9 1378.5,23.9 1374.5,23.9 1374.5,27.9 
	1370.5,27.9 1370.5,31.9 1366.5,31.9 1366.5,27.9 1362.5,27.9 1362.5,23.9 1358.5,23.9 1358.5,19.9 1354.5,19.9 1354.5,16 
	1350.5,16 1350.5,12 1346.5,12 1346.5,8 1342.5,8 1342.5,12 1342.5,16 1346.5,16 1346.5,19.9 1350.5,19.9 1350.5,23.9 1354.5,23.9 
	1354.5,27.9 1358.5,27.9 1358.5,31.9 1362.5,31.9 1362.5,35.9 1366.5,35.9 1366.5,39.9 1370.5,39.9 1370.5,35.9 1374.5,35.9 
	1374.5,31.9 1378.5,31.9 1378.5,27.9 1382.5,27.9 1382.5,23.9 1386.5,23.9 1386.5,19.9 1390.5,19.9 1390.5,16 1390.5,12 "/>
<polygon class="st0" points="1426.4,4 1422.4,4 1422.4,8 1418.4,8 1418.4,12 1414.4,12 1414.4,8 1410.4,8 1410.4,4 1406.4,4 
	1402.4,4 1402.4,8 1406.4,8 1406.4,12 1410.4,12 1410.4,16 1414.4,16 1414.4,19.9 1418.4,19.9 1418.4,16 1422.4,16 1422.4,12 
	1426.4,12 1426.4,8 1430.4,8 1430.4,4 "/>
<polygon class="st1" points="1434.4,4 1434.4,8 1430.4,8 1430.4,12 1426.4,12 1426.4,16 1422.4,16 1422.4,19.9 1418.4,19.9 
	1418.4,23.9 1414.4,23.9 1414.4,19.9 1410.4,19.9 1410.4,16 1406.4,16 1406.4,12 1402.4,12 1402.4,8 1398.4,8 1398.4,4 1394.5,4 
	1394.5,0 1390.5,0 1390.5,4 1390.5,8 1394.5,8 1394.5,12 1398.4,12 1398.4,16 1402.4,16 1402.4,19.9 1406.4,19.9 1406.4,23.9 
	1410.4,23.9 1410.4,27.9 1414.4,27.9 1414.4,31.9 1418.4,31.9 1418.4,27.9 1422.4,27.9 1422.4,23.9 1426.4,23.9 1426.4,19.9 
	1430.4,19.9 1430.4,16 1434.4,16 1434.4,12 1438.4,12 1438.4,8 1438.4,4 "/>
<polygon class="st2" points="1434.4,12 1434.4,16 1430.4,16 1430.4,19.9 1426.4,19.9 1426.4,23.9 1422.4,23.9 1422.4,27.9 
	1418.4,27.9 1418.4,31.9 1414.4,31.9 1414.4,27.9 1410.4,27.9 1410.4,23.9 1406.4,23.9 1406.4,19.9 1402.4,19.9 1402.4,16 
	1398.4,16 1398.4,12 1394.5,12 1394.5,8 1390.5,8 1390.5,12 1390.5,16 1394.5,16 1394.5,19.9 1398.4,19.9 1398.4,23.9 1402.4,23.9 
	1402.4,27.9 1406.4,27.9 1406.4,31.9 1410.4,31.9 1410.4,35.9 1414.4,35.9 1414.4,39.9 1418.4,39.9 1418.4,35.9 1422.4,35.9 
	1422.4,31.9 1426.4,31.9 1426.4,27.9 1430.4,27.9 1430.4,23.9 1434.4,23.9 1434.4,19.9 1438.4,19.9 1438.4,16 1438.4,12 "/>
<polygon class="st0" points="1474.4,4 1470.4,4 1470.4,8 1466.4,8 1466.4,12 1462.4,12 1462.4,8 1458.4,8 1458.4,4 1454.4,4 
	1450.4,4 1450.4,8 1454.4,8 1454.4,12 1458.4,12 1458.4,16 1462.4,16 1462.4,19.9 1466.4,19.9 1466.4,16 1470.4,16 1470.4,12 
	1474.4,12 1474.4,8 1478.4,8 1478.4,4 "/>
<polygon class="st1" points="1482.4,4 1482.4,8 1478.4,8 1478.4,12 1474.4,12 1474.4,16 1470.4,16 1470.4,19.9 1466.4,19.9 
	1466.4,23.9 1462.4,23.9 1462.4,19.9 1458.4,19.9 1458.4,16 1454.4,16 1454.4,12 1450.4,12 1450.4,8 1446.4,8 1446.4,4 1442.4,4 
	1442.4,0 1438.4,0 1438.4,4 1438.4,8 1442.4,8 1442.4,12 1446.4,12 1446.4,16 1450.4,16 1450.4,19.9 1454.4,19.9 1454.4,23.9 
	1458.4,23.9 1458.4,27.9 1462.4,27.9 1462.4,31.9 1466.4,31.9 1466.4,27.9 1470.4,27.9 1470.4,23.9 1474.4,23.9 1474.4,19.9 
	1478.4,19.9 1478.4,16 1482.4,16 1482.4,12 1486.4,12 1486.4,8 1486.4,4 "/>
<polygon class="st2" points="1482.4,12 1482.4,16 1478.4,16 1478.4,19.9 1474.4,19.9 1474.4,23.9 1470.4,23.9 1470.4,27.9 
	1466.4,27.9 1466.4,31.9 1462.4,31.9 1462.4,27.9 1458.4,27.9 1458.4,23.9 1454.4,23.9 1454.4,19.9 1450.4,19.9 1450.4,16 
	1446.4,16 1446.4,12 1442.4,12 1442.4,8 1438.4,8 1438.4,12 1438.4,16 1442.4,16 1442.4,19.9 1446.4,19.9 1446.4,23.9 1450.4,23.9 
	1450.4,27.9 1454.4,27.9 1454.4,31.9 1458.4,31.9 1458.4,35.9 1462.4,35.9 1462.4,39.9 1466.4,39.9 1466.4,35.9 1470.4,35.9 
	1470.4,31.9 1474.4,31.9 1474.4,27.9 1478.4,27.9 1478.4,23.9 1482.4,23.9 1482.4,19.9 1486.4,19.9 1486.4,16 1486.4,12 "/>
<polygon class="st0" points="1522.3,4 1518.3,4 1518.3,8 1514.3,8 1514.3,12 1510.3,12 1510.3,8 1506.3,8 1506.3,4 1502.3,4 
	1498.3,4 1498.3,8 1502.3,8 1502.3,12 1506.3,12 1506.3,16 1510.3,16 1510.3,19.9 1514.3,19.9 1514.3,16 1518.3,16 1518.3,12 
	1522.3,12 1522.3,8 1526.3,8 1526.3,4 "/>
<polygon class="st1" points="1530.3,4 1530.3,8 1526.3,8 1526.3,12 1522.3,12 1522.3,16 1518.3,16 1518.3,19.9 1514.3,19.9 
	1514.3,23.9 1510.3,23.9 1510.3,19.9 1506.3,19.9 1506.3,16 1502.3,16 1502.3,12 1498.3,12 1498.3,8 1494.3,8 1494.3,4 1490.3,4 
	1490.3,0 1486.4,0 1486.4,4 1486.4,8 1490.3,8 1490.3,12 1494.3,12 1494.3,16 1498.3,16 1498.3,19.9 1502.3,19.9 1502.3,23.9 
	1506.3,23.9 1506.3,27.9 1510.3,27.9 1510.3,31.9 1514.3,31.9 1514.3,27.9 1518.3,27.9 1518.3,23.9 1522.3,23.9 1522.3,19.9 
	1526.3,19.9 1526.3,16 1530.3,16 1530.3,12 1534.3,12 1534.3,8 1534.3,4 "/>
<polygon class="st2" points="1530.3,12 1530.3,16 1526.3,16 1526.3,19.9 1522.3,19.9 1522.3,23.9 1518.3,23.9 1518.3,27.9 
	1514.3,27.9 1514.3,31.9 1510.3,31.9 1510.3,27.9 1506.3,27.9 1506.3,23.9 1502.3,23.9 1502.3,19.9 1498.3,19.9 1498.3,16 
	1494.3,16 1494.3,12 1490.3,12 1490.3,8 1486.4,8 1486.4,12 1486.4,16 1490.3,16 1490.3,19.9 1494.3,19.9 1494.3,23.9 1498.3,23.9 
	1498.3,27.9 1502.3,27.9 1502.3,31.9 1506.3,31.9 1506.3,35.9 1510.3,35.9 1510.3,39.9 1514.3,39.9 1514.3,35.9 1518.3,35.9 
	1518.3,31.9 1522.3,31.9 1522.3,27.9 1526.3,27.9 1526.3,23.9 1530.3,23.9 1530.3,19.9 1534.3,19.9 1534.3,16 1534.3,12 "/>
<polygon class="st0" points="1570.3,4 1566.3,4 1566.3,8 1562.3,8 1562.3,12 1558.3,12 1558.3,8 1554.3,8 1554.3,4 1550.3,4 
	1546.3,4 1546.3,8 1550.3,8 1550.3,12 1554.3,12 1554.3,16 1558.3,16 1558.3,19.9 1562.3,19.9 1562.3,16 1566.3,16 1566.3,12 
	1570.3,12 1570.3,8 1574.3,8 1574.3,4 "/>
<polygon class="st1" points="1578.2,4 1578.2,8 1574.3,8 1574.3,12 1570.3,12 1570.3,16 1566.3,16 1566.3,19.9 1562.3,19.9 
	1562.3,23.9 1558.3,23.9 1558.3,19.9 1554.3,19.9 1554.3,16 1550.3,16 1550.3,12 1546.3,12 1546.3,8 1542.3,8 1542.3,4 1538.3,4 
	1538.3,0 1534.3,0 1534.3,4 1534.3,8 1538.3,8 1538.3,12 1542.3,12 1542.3,16 1546.3,16 1546.3,19.9 1550.3,19.9 1550.3,23.9 
	1554.3,23.9 1554.3,27.9 1558.3,27.9 1558.3,31.9 1562.3,31.9 1562.3,27.9 1566.3,27.9 1566.3,23.9 1570.3,23.9 1570.3,19.9 
	1574.3,19.9 1574.3,16 1578.2,16 1578.2,12 1582.2,12 1582.2,8 1582.2,4 "/>
<polygon class="st2" points="1578.2,12 1578.2,16 1574.3,16 1574.3,19.9 1570.3,19.9 1570.3,23.9 1566.3,23.9 1566.3,27.9 
	1562.3,27.9 1562.3,31.9 1558.3,31.9 1558.3,27.9 1554.3,27.9 1554.3,23.9 1550.3,23.9 1550.3,19.9 1546.3,19.9 1546.3,16 
	1542.3,16 1542.3,12 1538.3,12 1538.3,8 1534.3,8 1534.3,12 1534.3,16 1538.3,16 1538.3,19.9 1542.3,19.9 1542.3,23.9 1546.3,23.9 
	1546.3,27.9 1550.3,27.9 1550.3,31.9 1554.3,31.9 1554.3,35.9 1558.3,35.9 1558.3,39.9 1562.3,39.9 1562.3,35.9 1566.3,35.9 
	1566.3,31.9 1570.3,31.9 1570.3,27.9 1574.3,27.9 1574.3,23.9 1578.2,23.9 1578.2,19.9 1582.2,19.9 1582.2,16 1582.2,12 "/>
<polygon class="st0" points="1618.2,4 1614.2,4 1614.2,8 1610.2,8 1610.2,12 1606.2,12 1606.2,8 1602.2,8 1602.2,4 1598.2,4 
	1594.2,4 1594.2,8 1598.2,8 1598.2,12 1602.2,12 1602.2,16 1606.2,16 1606.2,19.9 1610.2,19.9 1610.2,16 1614.2,16 1614.2,12 
	1618.2,12 1618.2,8 1622.2,8 1622.2,4 "/>
<polygon class="st1" points="1626.2,4 1626.2,8 1622.2,8 1622.2,12 1618.2,12 1618.2,16 1614.2,16 1614.2,19.9 1610.2,19.9 
	1610.2,23.9 1606.2,23.9 1606.2,19.9 1602.2,19.9 1602.2,16 1598.2,16 1598.2,12 1594.2,12 1594.2,8 1590.2,8 1590.2,4 1586.2,4 
	1586.2,0 1582.2,0 1582.2,4 1582.2,8 1586.2,8 1586.2,12 1590.2,12 1590.2,16 1594.2,16 1594.2,19.9 1598.2,19.9 1598.2,23.9 
	1602.2,23.9 1602.2,27.9 1606.2,27.9 1606.2,31.9 1610.2,31.9 1610.2,27.9 1614.2,27.9 1614.2,23.9 1618.2,23.9 1618.2,19.9 
	1622.2,19.9 1622.2,16 1626.2,16 1626.2,12 1630.2,12 1630.2,8 1630.2,4 "/>
<polygon class="st2" points="1626.2,12 1626.2,16 1622.2,16 1622.2,19.9 1618.2,19.9 1618.2,23.9 1614.2,23.9 1614.2,27.9 
	1610.2,27.9 1610.2,31.9 1606.2,31.9 1606.2,27.9 1602.2,27.9 1602.2,23.9 1598.2,23.9 1598.2,19.9 1594.2,19.9 1594.2,16 
	1590.2,16 1590.2,12 1586.2,12 1586.2,8 1582.2,8 1582.2,12 1582.2,16 1586.2,16 1586.2,19.9 1590.2,19.9 1590.2,23.9 1594.2,23.9 
	1594.2,27.9 1598.2,27.9 1598.2,31.9 1602.2,31.9 1602.2,35.9 1606.2,35.9 1606.2,39.9 1610.2,39.9 1610.2,35.9 1614.2,35.9 
	1614.2,31.9 1618.2,31.9 1618.2,27.9 1622.2,27.9 1622.2,23.9 1626.2,23.9 1626.2,19.9 1630.2,19.9 1630.2,16 1630.2,12 "/>
<polygon class="st0" points="1666.2,4 1662.2,4 1662.2,8 1658.2,8 1658.2,12 1654.2,12 1654.2,8 1650.2,8 1650.2,4 1646.2,4 
	1642.2,4 1642.2,8 1646.2,8 1646.2,12 1650.2,12 1650.2,16 1654.2,16 1654.2,19.9 1658.2,19.9 1658.2,16 1662.2,16 1662.2,12 
	1666.2,12 1666.2,8 1670.1,8 1670.1,4 "/>
<polygon class="st1" points="1674.1,4 1674.1,8 1670.1,8 1670.1,12 1666.2,12 1666.2,16 1662.2,16 1662.2,19.9 1658.2,19.9 
	1658.2,23.9 1654.2,23.9 1654.2,19.9 1650.2,19.9 1650.2,16 1646.2,16 1646.2,12 1642.2,12 1642.2,8 1638.2,8 1638.2,4 1634.2,4 
	1634.2,0 1630.2,0 1630.2,4 1630.2,8 1634.2,8 1634.2,12 1638.2,12 1638.2,16 1642.2,16 1642.2,19.9 1646.2,19.9 1646.2,23.9 
	1650.2,23.9 1650.2,27.9 1654.2,27.9 1654.2,31.9 1658.2,31.9 1658.2,27.9 1662.2,27.9 1662.2,23.9 1666.2,23.9 1666.2,19.9 
	1670.1,19.9 1670.1,16 1674.1,16 1674.1,12 1678.1,12 1678.1,8 1678.1,4 "/>
<polygon class="st2" points="1674.1,12 1674.1,16 1670.1,16 1670.1,19.9 1666.2,19.9 1666.2,23.9 1662.2,23.9 1662.2,27.9 
	1658.2,27.9 1658.2,31.9 1654.2,31.9 1654.2,27.9 1650.2,27.9 1650.2,23.9 1646.2,23.9 1646.2,19.9 1642.2,19.9 1642.2,16 
	1638.2,16 1638.2,12 1634.2,12 1634.2,8 1630.2,8 1630.2,12 1630.2,16 1634.2,16 1634.2,19.9 1638.2,19.9 1638.2,23.9 1642.2,23.9 
	1642.2,27.9 1646.2,27.9 1646.2,31.9 1650.2,31.9 1650.2,35.9 1654.2,35.9 1654.2,39.9 1658.2,39.9 1658.2,35.9 1662.2,35.9 
	1662.2,31.9 1666.2,31.9 1666.2,27.9 1670.1,27.9 1670.1,23.9 1674.1,23.9 1674.1,19.9 1678.1,19.9 1678.1,16 1678.1,12 "/>
<polygon class="st0" points="1714.1,4 1710.1,4 1710.1,8 1706.1,8 1706.1,12 1702.1,12 1702.1,8 1698.1,8 1698.1,4 1694.1,4 
	1690.1,4 1690.1,8 1694.1,8 1694.1,12 1698.1,12 1698.1,16 1702.1,16 1702.1,19.9 1706.1,19.9 1706.1,16 1710.1,16 1710.1,12 
	1714.1,12 1714.1,8 1718.1,8 1718.1,4 "/>
<polygon class="st1" points="1722.1,4 1722.1,8 1718.1,8 1718.1,12 1714.1,12 1714.1,16 1710.1,16 1710.1,19.9 1706.1,19.9 
	1706.1,23.9 1702.1,23.9 1702.1,19.9 1698.1,19.9 1698.1,16 1694.1,16 1694.1,12 1690.1,12 1690.1,8 1686.1,8 1686.1,4 1682.1,4 
	1682.1,0 1678.1,0 1678.1,4 1678.1,8 1682.1,8 1682.1,12 1686.1,12 1686.1,16 1690.1,16 1690.1,19.9 1694.1,19.9 1694.1,23.9 
	1698.1,23.9 1698.1,27.9 1702.1,27.9 1702.1,31.9 1706.1,31.9 1706.1,27.9 1710.1,27.9 1710.1,23.9 1714.1,23.9 1714.1,19.9 
	1718.1,19.9 1718.1,16 1722.1,16 1722.1,12 1726.1,12 1726.1,8 1726.1,4 "/>
<polygon class="st2" points="1722.1,12 1722.1,16 1718.1,16 1718.1,19.9 1714.1,19.9 1714.1,23.9 1710.1,23.9 1710.1,27.9 
	1706.1,27.9 1706.1,31.9 1702.1,31.9 1702.1,27.9 1698.1,27.9 1698.1,23.9 1694.1,23.9 1694.1,19.9 1690.1,19.9 1690.1,16 
	1686.1,16 1686.1,12 1682.1,12 1682.1,8 1678.1,8 1678.1,12 1678.1,16 1682.1,16 1682.1,19.9 1686.1,19.9 1686.1,23.9 1690.1,23.9 
	1690.1,27.9 1694.1,27.9 1694.1,31.9 1698.1,31.9 1698.1,35.9 1702.1,35.9 1702.1,39.9 1706.1,39.9 1706.1,35.9 1710.1,35.9 
	1710.1,31.9 1714.1,31.9 1714.1,27.9 1718.1,27.9 1718.1,23.9 1722.1,23.9 1722.1,19.9 1726.1,19.9 1726.1,16 1726.1,12 "/>
<polygon class="st0" points="1762,4 1758.1,4 1758.1,8 1754.1,8 1754.1,12 1750.1,12 1750.1,8 1746.1,8 1746.1,4 1742.1,4 1738.1,4 
	1738.1,8 1742.1,8 1742.1,12 1746.1,12 1746.1,16 1750.1,16 1750.1,19.9 1754.1,19.9 1754.1,16 1758.1,16 1758.1,12 1762,12 1762,8 
	1766,8 1766,4 "/>
<polygon class="st1" points="1770,4 1770,8 1766,8 1766,12 1762,12 1762,16 1758.1,16 1758.1,19.9 1754.1,19.9 1754.1,23.9 
	1750.1,23.9 1750.1,19.9 1746.1,19.9 1746.1,16 1742.1,16 1742.1,12 1738.1,12 1738.1,8 1734.1,8 1734.1,4 1730.1,4 1730.1,0 
	1726.1,0 1726.1,4 1726.1,8 1730.1,8 1730.1,12 1734.1,12 1734.1,16 1738.1,16 1738.1,19.9 1742.1,19.9 1742.1,23.9 1746.1,23.9 
	1746.1,27.9 1750.1,27.9 1750.1,31.9 1754.1,31.9 1754.1,27.9 1758.1,27.9 1758.1,23.9 1762,23.9 1762,19.9 1766,19.9 1766,16 
	1770,16 1770,12 1774,12 1774,8 1774,4 "/>
<polygon class="st2" points="1770,12 1770,16 1766,16 1766,19.9 1762,19.9 1762,23.9 1758.1,23.9 1758.1,27.9 1754.1,27.9 
	1754.1,31.9 1750.1,31.9 1750.1,27.9 1746.1,27.9 1746.1,23.9 1742.1,23.9 1742.1,19.9 1738.1,19.9 1738.1,16 1734.1,16 1734.1,12 
	1730.1,12 1730.1,8 1726.1,8 1726.1,12 1726.1,16 1730.1,16 1730.1,19.9 1734.1,19.9 1734.1,23.9 1738.1,23.9 1738.1,27.9 
	1742.1,27.9 1742.1,31.9 1746.1,31.9 1746.1,35.9 1750.1,35.9 1750.1,39.9 1754.1,39.9 1754.1,35.9 1758.1,35.9 1758.1,31.9 
	1762,31.9 1762,27.9 1766,27.9 1766,23.9 1770,23.9 1770,19.9 1774,19.9 1774,16 1774,12 "/>
<polygon class="st0" points="1810,4 1806,4 1806,8 1802,8 1802,12 1798,12 1798,8 1794,8 1794,4 1790,4 1786,4 1786,8 1790,8 
	1790,12 1794,12 1794,16 1798,16 1798,19.9 1802,19.9 1802,16 1806,16 1806,12 1810,12 1810,8 1814,8 1814,4 "/>
<polygon class="st1" points="1818,4 1818,8 1814,8 1814,12 1810,12 1810,16 1806,16 1806,19.9 1802,19.9 1802,23.9 1798,23.9 
	1798,19.9 1794,19.9 1794,16 1790,16 1790,12 1786,12 1786,8 1782,8 1782,4 1778,4 1778,0 1774,0 1774,4 1774,8 1778,8 1778,12 
	1782,12 1782,16 1786,16 1786,19.9 1790,19.9 1790,23.9 1794,23.9 1794,27.9 1798,27.9 1798,31.9 1802,31.9 1802,27.9 1806,27.9 
	1806,23.9 1810,23.9 1810,19.9 1814,19.9 1814,16 1818,16 1818,12 1822,12 1822,8 1822,4 "/>
<polygon class="st2" points="1818,12 1818,16 1814,16 1814,19.9 1810,19.9 1810,23.9 1806,23.9 1806,27.9 1802,27.9 1802,31.9 
	1798,31.9 1798,27.9 1794,27.9 1794,23.9 1790,23.9 1790,19.9 1786,19.9 1786,16 1782,16 1782,12 1778,12 1778,8 1774,8 1774,12 
	1774,16 1778,16 1778,19.9 1782,19.9 1782,23.9 1786,23.9 1786,27.9 1790,27.9 1790,31.9 1794,31.9 1794,35.9 1798,35.9 1798,39.9 
	1802,39.9 1802,35.9 1806,35.9 1806,31.9 1810,31.9 1810,27.9 1814,27.9 1814,23.9 1818,23.9 1818,19.9 1822,19.9 1822,16 1822,12 
	"/>
<polygon class="st0" points="1857.9,4 1853.9,4 1853.9,8 1849.9,8 1849.9,12 1846,12 1846,8 1842,8 1842,4 1838,4 1834,4 1834,8 
	1838,8 1838,12 1842,12 1842,16 1846,16 1846,19.9 1849.9,19.9 1849.9,16 1853.9,16 1853.9,12 1857.9,12 1857.9,8 1861.9,8 
	1861.9,4 "/>
<polygon class="st1" points="1865.9,4 1865.9,8 1861.9,8 1861.9,12 1857.9,12 1857.9,16 1853.9,16 1853.9,19.9 1849.9,19.9 
	1849.9,23.9 1846,23.9 1846,19.9 1842,19.9 1842,16 1838,16 1838,12 1834,12 1834,8 1830,8 1830,4 1826,4 1826,0 1822,0 1822,4 
	1822,8 1826,8 1826,12 1830,12 1830,16 1834,16 1834,19.9 1838,19.9 1838,23.9 1842,23.9 1842,27.9 1846,27.9 1846,31.9 
	1849.9,31.9 1849.9,27.9 1853.9,27.9 1853.9,23.9 1857.9,23.9 1857.9,19.9 1861.9,19.9 1861.9,16 1865.9,16 1865.9,12 1869.9,12 
	1869.9,8 1869.9,4 "/>
<polygon class="st2" points="1865.9,12 1865.9,16 1861.9,16 1861.9,19.9 1857.9,19.9 1857.9,23.9 1853.9,23.9 1853.9,27.9 
	1849.9,27.9 1849.9,31.9 1846,31.9 1846,27.9 1842,27.9 1842,23.9 1838,23.9 1838,19.9 1834,19.9 1834,16 1830,16 1830,12 1826,12 
	1826,8 1822,8 1822,12 1822,16 1826,16 1826,19.9 1830,19.9 1830,23.9 1834,23.9 1834,27.9 1838,27.9 1838,31.9 1842,31.9 
	1842,35.9 1846,35.9 1846,39.9 1849.9,39.9 1849.9,35.9 1853.9,35.9 1853.9,31.9 1857.9,31.9 1857.9,27.9 1861.9,27.9 1861.9,23.9 
	1865.9,23.9 1865.9,19.9 1869.9,19.9 1869.9,16 1869.9,12 "/>
<polygon class="st0" points="1905.9,4 1901.9,4 1901.9,8 1897.9,8 1897.9,12 1893.9,12 1893.9,8 1889.9,8 1889.9,4 1885.9,4 
	1881.9,4 1881.9,8 1885.9,8 1885.9,12 1889.9,12 1889.9,16 1893.9,16 1893.9,19.9 1897.9,19.9 1897.9,16 1901.9,16 1901.9,12 
	1905.9,12 1905.9,8 1909.9,8 1909.9,4 "/>
<polygon class="st1" points="1913.9,4 1913.9,8 1909.9,8 1909.9,12 1905.9,12 1905.9,16 1901.9,16 1901.9,19.9 1897.9,19.9 
	1897.9,23.9 1893.9,23.9 1893.9,19.9 1889.9,19.9 1889.9,16 1885.9,16 1885.9,12 1881.9,12 1881.9,8 1877.9,8 1877.9,4 1873.9,4 
	1873.9,0 1869.9,0 1869.9,4 1869.9,8 1873.9,8 1873.9,12 1877.9,12 1877.9,16 1881.9,16 1881.9,19.9 1885.9,19.9 1885.9,23.9 
	1889.9,23.9 1889.9,27.9 1893.9,27.9 1893.9,31.9 1897.9,31.9 1897.9,27.9 1901.9,27.9 1901.9,23.9 1905.9,23.9 1905.9,19.9 
	1909.9,19.9 1909.9,16 1913.9,16 1913.9,12 1917.9,12 1917.9,8 1917.9,4 "/>
<polygon class="st2" points="1913.9,12 1913.9,16 1909.9,16 1909.9,19.9 1905.9,19.9 1905.9,23.9 1901.9,23.9 1901.9,27.9 
	1897.9,27.9 1897.9,31.9 1893.9,31.9 1893.9,27.9 1889.9,27.9 1889.9,23.9 1885.9,23.9 1885.9,19.9 1881.9,19.9 1881.9,16 
	1877.9,16 1877.9,12 1873.9,12 1873.9,8 1869.9,8 1869.9,12 1869.9,16 1873.9,16 1873.9,19.9 1877.9,19.9 1877.9,23.9 1881.9,23.9 
	1881.9,27.9 1885.9,27.9 1885.9,31.9 1889.9,31.9 1889.9,35.9 1893.9,35.9 1893.9,39.9 1897.9,39.9 1897.9,35.9 1901.9,35.9 
	1901.9,31.9 1905.9,31.9 1905.9,27.9 1909.9,27.9 1909.9,23.9 1913.9,23.9 1913.9,19.9 1917.9,19.9 1917.9,16 1917.9,12 "/>
<polygon class="st0" points="1953.8,4 1949.8,4 1949.8,8 1945.8,8 1945.8,12 1941.8,12 1941.8,8 1937.9,8 1937.9,4 1933.9,4 
	1929.9,4 1929.9,8 1933.9,8 1933.9,12 1937.9,12 1937.9,16 1941.8,16 1941.8,19.9 1945.8,19.9 1945.8,16 1949.8,16 1949.8,12 
	1953.8,12 1953.8,8 1957.8,8 1957.8,4 "/>
<polygon class="st1" points="1961.8,4 1961.8,8 1957.8,8 1957.8,12 1953.8,12 1953.8,16 1949.8,16 1949.8,19.9 1945.8,19.9 
	1945.8,23.9 1941.8,23.9 1941.8,19.9 1937.9,19.9 1937.9,16 1933.9,16 1933.9,12 1929.9,12 1929.9,8 1925.9,8 1925.9,4 1921.9,4 
	1921.9,0 1917.9,0 1917.9,4 1917.9,8 1921.9,8 1921.9,12 1925.9,12 1925.9,16 1929.9,16 1929.9,19.9 1933.9,19.9 1933.9,23.9 
	1937.9,23.9 1937.9,27.9 1941.8,27.9 1941.8,31.9 1945.8,31.9 1945.8,27.9 1949.8,27.9 1949.8,23.9 1953.8,23.9 1953.8,19.9 
	1957.8,19.9 1957.8,16 1961.8,16 1961.8,12 1965.8,12 1965.8,8 1965.8,4 "/>
<polygon class="st2" points="1961.8,12 1961.8,16 1957.8,16 1957.8,19.9 1953.8,19.9 1953.8,23.9 1949.8,23.9 1949.8,27.9 
	1945.8,27.9 1945.8,31.9 1941.8,31.9 1941.8,27.9 1937.9,27.9 1937.9,23.9 1933.9,23.9 1933.9,19.9 1929.9,19.9 1929.9,16 
	1925.9,16 1925.9,12 1921.9,12 1921.9,8 1917.9,8 1917.9,12 1917.9,16 1921.9,16 1921.9,19.9 1925.9,19.9 1925.9,23.9 1929.9,23.9 
	1929.9,27.9 1933.9,27.9 1933.9,31.9 1937.9,31.9 1937.9,35.9 1941.8,35.9 1941.8,39.9 1945.8,39.9 1945.8,35.9 1949.8,35.9 
	1949.8,31.9 1953.8,31.9 1953.8,27.9 1957.8,27.9 1957.8,23.9 1961.8,23.9 1961.8,19.9 1965.8,19.9 1965.8,16 1965.8,12 "/>
<polygon class="st0" points="2001.8,4 1997.8,4 1997.8,8 1993.8,8 1993.8,12 1989.8,12 1989.8,8 1985.8,8 1985.8,4 1981.8,4 
	1977.8,4 1977.8,8 1981.8,8 1981.8,12 1985.8,12 1985.8,16 1989.8,16 1989.8,19.9 1993.8,19.9 1993.8,16 1997.8,16 1997.8,12 
	2001.8,12 2001.8,8 2005.8,8 2005.8,4 "/>
<g>
	<rect x="12" y="8" class="st3" width="4" height="4"/>
	<rect x="36" y="8" class="st3" width="4" height="4"/>
	<rect x="16" y="12" class="st3" width="4" height="4"/>
	<rect x="32" y="12" class="st3" width="4" height="4"/>
	<rect x="20" y="16" class="st3" width="4" height="4"/>
	<rect x="28" y="16" class="st3" width="4" height="4"/>
	<rect x="24" y="19.9" class="st3" width="4" height="4"/>
	<rect x="59.9" y="8" class="st3" width="4" height="4"/>
	<rect x="83.9" y="8" class="st3" width="4" height="4"/>
	<rect x="63.9" y="12" class="st3" width="4" height="4"/>
	<rect x="79.9" y="12" class="st3" width="4" height="4"/>
	<rect x="67.9" y="16" class="st3" width="4" height="4"/>
	<rect x="75.9" y="16" class="st3" width="4" height="4"/>
	<rect x="71.9" y="19.9" class="st3" width="4" height="4"/>
	<rect x="107.9" y="8" class="st3" width="4" height="4"/>
	<rect x="131.9" y="8" class="st3" width="4" height="4"/>
	<rect x="111.9" y="12" class="st3" width="4" height="4"/>
	<rect x="127.9" y="12" class="st3" width="4" height="4"/>
	<rect x="115.9" y="16" class="st3" width="4" height="4"/>
	<rect x="123.9" y="16" class="st3" width="4" height="4"/>
	<rect x="119.9" y="19.9" class="st3" width="4" height="4"/>
	<rect x="155.8" y="8" class="st3" width="4" height="4"/>
	<rect x="179.8" y="8" class="st3" width="4" height="4"/>
	<rect x="159.8" y="12" class="st3" width="4" height="4"/>
	<rect x="175.8" y="12" class="st3" width="4" height="4"/>
	<rect x="163.8" y="16" class="st3" width="4" height="4"/>
	<rect x="171.8" y="16" class="st3" width="4" height="4"/>
	<rect x="167.8" y="19.9" class="st3" width="4" height="4"/>
	<rect x="203.8" y="8" class="st3" width="4" height="4"/>
	<rect x="227.7" y="8" class="st3" width="4" height="4"/>
	<rect x="207.8" y="12" class="st3" width="4" height="4"/>
	<rect x="223.8" y="12" class="st3" width="4" height="4"/>
	<rect x="211.8" y="16" class="st3" width="4" height="4"/>
	<rect x="219.8" y="16" class="st3" width="4" height="4"/>
	<rect x="215.8" y="19.9" class="st3" width="4" height="4"/>
	<rect x="251.7" y="8" class="st3" width="4" height="4"/>
	<rect x="275.7" y="8" class="st3" width="4" height="4"/>
	<rect x="255.7" y="12" class="st3" width="4" height="4"/>
	<rect x="271.7" y="12" class="st3" width="4" height="4"/>
	<rect x="259.7" y="16" class="st3" width="4" height="4"/>
	<rect x="267.7" y="16" class="st3" width="4" height="4"/>
	<rect x="263.7" y="19.9" class="st3" width="4" height="4"/>
	<rect x="299.7" y="8" class="st3" width="4" height="4"/>
	<rect x="323.6" y="8" class="st3" width="4" height="4"/>
	<rect x="303.7" y="12" class="st3" width="4" height="4"/>
	<rect x="319.6" y="12" class="st3" width="4" height="4"/>
	<rect x="307.7" y="16" class="st3" width="4" height="4"/>
	<rect x="315.7" y="16" class="st3" width="4" height="4"/>
	<rect x="311.7" y="19.9" class="st3" width="4" height="4"/>
	<rect x="347.6" y="8" class="st3" width="4" height="4"/>
	<rect x="371.6" y="8" class="st3" width="4" height="4"/>
	<rect x="351.6" y="12" class="st3" width="4" height="4"/>
	<rect x="367.6" y="12" class="st3" width="4" height="4"/>
	<rect x="355.6" y="16" class="st3" width="4" height="4"/>
	<rect x="363.6" y="16" class="st3" width="4" height="4"/>
	<rect x="359.6" y="19.9" class="st3" width="4" height="4"/>
	<rect x="395.6" y="8" class="st3" width="4" height="4"/>
	<rect x="419.5" y="8" class="st3" width="4" height="4"/>
	<rect x="399.6" y="12" class="st3" width="4" height="4"/>
	<rect x="415.5" y="12" class="st3" width="4" height="4"/>
	<rect x="403.6" y="16" class="st3" width="4" height="4"/>
	<rect x="411.5" y="16" class="st3" width="4" height="4"/>
	<rect x="407.5" y="19.9" class="st3" width="4" height="4"/>
	<rect x="443.5" y="8" class="st3" width="4" height="4"/>
	<rect x="467.5" y="8" class="st3" width="4" height="4"/>
	<rect x="447.5" y="12" class="st3" width="4" height="4"/>
	<rect x="463.5" y="12" class="st3" width="4" height="4"/>
	<rect x="451.5" y="16" class="st3" width="4" height="4"/>
	<rect x="459.5" y="16" class="st3" width="4" height="4"/>
	<rect x="455.5" y="19.9" class="st3" width="4" height="4"/>
	<rect x="491.5" y="8" class="st3" width="4" height="4"/>
	<rect x="515.4" y="8" class="st3" width="4" height="4"/>
	<rect x="495.5" y="12" class="st3" width="4" height="4"/>
	<rect x="511.4" y="12" class="st3" width="4" height="4"/>
	<rect x="499.4" y="16" class="st3" width="4" height="4"/>
	<rect x="507.4" y="16" class="st3" width="4" height="4"/>
	<rect x="503.4" y="19.9" class="st3" width="4" height="4"/>
	<rect x="539.4" y="8" class="st3" width="4" height="4"/>
	<rect x="563.4" y="8" class="st3" width="4" height="4"/>
	<rect x="543.4" y="12" class="st3" width="4" height="4"/>
	<rect x="559.4" y="12" class="st3" width="4" height="4"/>
	<rect x="547.4" y="16" class="st3" width="4" height="4"/>
	<rect x="555.4" y="16" class="st3" width="4" height="4"/>
	<rect x="551.4" y="19.9" class="st3" width="4" height="4"/>
	<rect x="587.3" y="8" class="st3" width="4" height="4"/>
	<rect x="611.3" y="8" class="st3" width="4" height="4"/>
	<rect x="591.3" y="12" class="st3" width="4" height="4"/>
	<rect x="607.3" y="12" class="st3" width="4" height="4"/>
	<rect x="595.3" y="16" class="st3" width="4" height="4"/>
	<rect x="603.3" y="16" class="st3" width="4" height="4"/>
	<rect x="599.3" y="19.9" class="st3" width="4" height="4"/>
	<rect x="635.3" y="8" class="st3" width="4" height="4"/>
	<rect x="659.3" y="8" class="st3" width="4" height="4"/>
	<rect x="639.3" y="12" class="st3" width="4" height="4"/>
	<rect x="655.3" y="12" class="st3" width="4" height="4"/>
	<rect x="643.3" y="16" class="st3" width="4" height="4"/>
	<rect x="651.3" y="16" class="st3" width="4" height="4"/>
	<rect x="647.3" y="19.9" class="st3" width="4" height="4"/>
	<rect x="683.2" y="8" class="st3" width="4" height="4"/>
	<rect x="707.2" y="8" class="st3" width="4" height="4"/>
	<rect x="687.2" y="12" class="st3" width="4" height="4"/>
	<rect x="703.2" y="12" class="st3" width="4" height="4"/>
	<rect x="691.2" y="16" class="st3" width="4" height="4"/>
	<rect x="699.2" y="16" class="st3" width="4" height="4"/>
	<rect x="695.2" y="19.9" class="st3" width="4" height="4"/>
	<rect x="731.2" y="8" class="st3" width="4" height="4"/>
	<rect x="755.2" y="8" class="st3" width="4" height="4"/>
	<rect x="735.2" y="12" class="st3" width="4" height="4"/>
	<rect x="751.2" y="12" class="st3" width="4" height="4"/>
	<rect x="739.2" y="16" class="st3" width="4" height="4"/>
	<rect x="747.2" y="16" class="st3" width="4" height="4"/>
	<rect x="743.2" y="19.9" class="st3" width="4" height="4"/>
	<rect x="779.1" y="8" class="st3" width="4" height="4"/>
	<rect x="803.1" y="8" class="st3" width="4" height="4"/>
	<rect x="783.1" y="12" class="st3" width="4" height="4"/>
	<rect x="799.1" y="12" class="st3" width="4" height="4"/>
	<rect x="787.1" y="16" class="st3" width="4" height="4"/>
	<rect x="795.1" y="16" class="st3" width="4" height="4"/>
	<rect x="791.1" y="19.9" class="st3" width="4" height="4"/>
	<rect x="827.1" y="8" class="st3" width="4" height="4"/>
	<rect x="851.1" y="8" class="st3" width="4" height="4"/>
	<rect x="831.1" y="12" class="st3" width="4" height="4"/>
	<rect x="847.1" y="12" class="st3" width="4" height="4"/>
	<rect x="835.1" y="16" class="st3" width="4" height="4"/>
	<rect x="843.1" y="16" class="st3" width="4" height="4"/>
	<rect x="839.1" y="19.9" class="st3" width="4" height="4"/>
	<rect x="875" y="8" class="st3" width="4" height="4"/>
	<rect x="899" y="8" class="st3" width="4" height="4"/>
	<rect x="879" y="12" class="st3" width="4" height="4"/>
	<rect x="895" y="12" class="st3" width="4" height="4"/>
	<rect x="883" y="16" class="st3" width="4" height="4"/>
	<rect x="891" y="16" class="st3" width="4" height="4"/>
	<rect x="887" y="19.9" class="st3" width="4" height="4"/>
	<rect x="923" y="8" class="st3" width="4" height="4"/>
	<rect x="947" y="8" class="st3" width="4" height="4"/>
	<rect x="927" y="12" class="st3" width="4" height="4"/>
	<rect x="943" y="12" class="st3" width="4" height="4"/>
	<rect x="931" y="16" class="st3" width="4" height="4"/>
	<rect x="939" y="16" class="st3" width="4" height="4"/>
	<rect x="935" y="19.9" class="st3" width="4" height="4"/>
	<rect x="970.9" y="8" class="st3" width="4" height="4"/>
	<rect x="994.9" y="8" class="st3" width="4" height="4"/>
	<rect x="974.9" y="12" class="st3" width="4" height="4"/>
	<rect x="990.9" y="12" class="st3" width="4" height="4"/>
	<rect x="978.9" y="16" class="st3" width="4" height="4"/>
	<rect x="986.9" y="16" class="st3" width="4" height="4"/>
	<rect x="982.9" y="19.9" class="st3" width="4" height="4"/>
	<rect x="1018.9" y="8" class="st3" width="4" height="4"/>
	<rect x="1042.8" y="8" class="st3" width="4" height="4"/>
	<rect x="1022.9" y="12" class="st3" width="4" height="4"/>
	<rect x="1038.8" y="12" class="st3" width="4" height="4"/>
	<rect x="1026.9" y="16" class="st3" width="4" height="4"/>
	<rect x="1034.9" y="16" class="st3" width="4" height="4"/>
	<rect x="1030.9" y="19.9" class="st3" width="4" height="4"/>
	<rect x="1066.8" y="8" class="st3" width="4" height="4"/>
	<rect x="1090.8" y="8" class="st3" width="4" height="4"/>
	<rect x="1070.8" y="12" class="st3" width="4" height="4"/>
	<rect x="1086.8" y="12" class="st3" width="4" height="4"/>
	<rect x="1074.8" y="16" class="st3" width="4" height="4"/>
	<rect x="1082.8" y="16" class="st3" width="4" height="4"/>
	<rect x="1078.8" y="19.9" class="st3" width="4" height="4"/>
	<rect x="1114.8" y="8" class="st3" width="4" height="4"/>
	<rect x="1138.7" y="8" class="st3" width="4" height="4"/>
	<rect x="1118.8" y="12" class="st3" width="4" height="4"/>
	<rect x="1134.7" y="12" class="st3" width="4" height="4"/>
	<rect x="1122.8" y="16" class="st3" width="4" height="4"/>
	<rect x="1130.7" y="16" class="st3" width="4" height="4"/>
	<rect x="1126.8" y="19.9" class="st3" width="4" height="4"/>
	<rect x="1162.7" y="8" class="st3" width="4" height="4"/>
	<rect x="1186.7" y="8" class="st3" width="4" height="4"/>
	<rect x="1166.7" y="12" class="st3" width="4" height="4"/>
	<rect x="1182.7" y="12" class="st3" width="4" height="4"/>
	<rect x="1170.7" y="16" class="st3" width="4" height="4"/>
	<rect x="1178.7" y="16" class="st3" width="4" height="4"/>
	<rect x="1174.7" y="19.9" class="st3" width="4" height="4"/>
	<rect x="1210.7" y="8" class="st3" width="4" height="4"/>
	<rect x="1234.6" y="8" class="st3" width="4" height="4"/>
	<rect x="1214.7" y="12" class="st3" width="4" height="4"/>
	<rect x="1230.6" y="12" class="st3" width="4" height="4"/>
	<rect x="1218.6" y="16" class="st3" width="4" height="4"/>
	<rect x="1226.6" y="16" class="st3" width="4" height="4"/>
	<rect x="1222.6" y="19.9" class="st3" width="4" height="4"/>
	<rect x="1258.6" y="8" class="st3" width="4" height="4"/>
	<rect x="1282.6" y="8" class="st3" width="4" height="4"/>
	<rect x="1262.6" y="12" class="st3" width="4" height="4"/>
	<rect x="1278.6" y="12" class="st3" width="4" height="4"/>
	<rect x="1266.6" y="16" class="st3" width="4" height="4"/>
	<rect x="1274.6" y="16" class="st3" width="4" height="4"/>
	<rect x="1270.6" y="19.9" class="st3" width="4" height="4"/>
	<rect x="1306.6" y="8" class="st3" width="4" height="4"/>
	<rect x="1330.5" y="8" class="st3" width="4" height="4"/>
	<rect x="1310.5" y="12" class="st3" width="4" height="4"/>
	<rect x="1326.5" y="12" class="st3" width="4" height="4"/>
	<rect x="1314.5" y="16" class="st3" width="4" height="4"/>
	<rect x="1322.5" y="16" class="st3" width="4" height="4"/>
	<rect x="1318.5" y="19.9" class="st3" width="4" height="4"/>
	<rect x="1354.5" y="8" class="st3" width="4" height="4"/>
	<rect x="1378.5" y="8" class="st3" width="4" height="4"/>
	<rect x="1358.5" y="12" class="st3" width="4" height="4"/>
	<rect x="1374.5" y="12" class="st3" width="4" height="4"/>
	<rect x="1362.5" y="16" class="st3" width="4" height="4"/>
	<rect x="1370.5" y="16" class="st3" width="4" height="4"/>
	<rect x="1366.5" y="19.9" class="st3" width="4" height="4"/>
	<rect x="1402.4" y="8" class="st3" width="4" height="4"/>
	<rect x="1426.4" y="8" class="st3" width="4" height="4"/>
	<rect x="1406.4" y="12" class="st3" width="4" height="4"/>
	<rect x="1422.4" y="12" class="st3" width="4" height="4"/>
	<rect x="1410.4" y="16" class="st3" width="4" height="4"/>
	<rect x="1418.4" y="16" class="st3" width="4" height="4"/>
	<rect x="1414.4" y="19.9" class="st3" width="4" height="4"/>
	<rect x="1450.4" y="8" class="st3" width="4" height="4"/>
	<rect x="1474.4" y="8" class="st3" width="4" height="4"/>
	<rect x="1454.4" y="12" class="st3" width="4" height="4"/>
	<rect x="1470.4" y="12" class="st3" width="4" height="4"/>
	<rect x="1458.4" y="16" class="st3" width="4" height="4"/>
	<rect x="1466.4" y="16" class="st3" width="4" height="4"/>
	<rect x="1462.4" y="19.9" class="st3" width="4" height="4"/>
	<rect x="1498.3" y="8" class="st3" width="4" height="4"/>
	<rect x="1522.3" y="8" class="st3" width="4" height="4"/>
	<rect x="1502.3" y="12" class="st3" width="4" height="4"/>
	<rect x="1518.3" y="12" class="st3" width="4" height="4"/>
	<rect x="1506.3" y="16" class="st3" width="4" height="4"/>
	<rect x="1514.3" y="16" class="st3" width="4" height="4"/>
	<rect x="1510.3" y="19.9" class="st3" width="4" height="4"/>
	<rect x="1546.3" y="8" class="st3" width="4" height="4"/>
	<rect x="1570.3" y="8" class="st3" width="4" height="4"/>
	<rect x="1550.3" y="12" class="st3" width="4" height="4"/>
	<rect x="1566.3" y="12" class="st3" width="4" height="4"/>
	<rect x="1554.3" y="16" class="st3" width="4" height="4"/>
	<rect x="1562.3" y="16" class="st3" width="4" height="4"/>
	<rect x="1558.3" y="19.9" class="st3" width="4" height="4"/>
	<rect x="1594.2" y="8" class="st3" width="4" height="4"/>
	<rect x="1618.2" y="8" class="st3" width="4" height="4"/>
	<rect x="1598.2" y="12" class="st3" width="4" height="4"/>
	<rect x="1614.2" y="12" class="st3" width="4" height="4"/>
	<rect x="1602.2" y="16" class="st3" width="4" height="4"/>
	<rect x="1610.2" y="16" class="st3" width="4" height="4"/>
	<rect x="1606.2" y="19.9" class="st3" width="4" height="4"/>
	<rect x="1642.2" y="8" class="st3" width="4" height="4"/>
	<rect x="1666.2" y="8" class="st3" width="4" height="4"/>
	<rect x="1646.2" y="12" class="st3" width="4" height="4"/>
	<rect x="1662.2" y="12" class="st3" width="4" height="4"/>
	<rect x="1650.2" y="16" class="st3" width="4" height="4"/>
	<rect x="1658.2" y="16" class="st3" width="4" height="4"/>
	<rect x="1654.2" y="19.9" class="st3" width="4" height="4"/>
	<rect x="1690.1" y="8" class="st3" width="4" height="4"/>
	<rect x="1714.1" y="8" class="st3" width="4" height="4"/>
	<rect x="1694.1" y="12" class="st3" width="4" height="4"/>
	<rect x="1710.1" y="12" class="st3" width="4" height="4"/>
	<rect x="1698.1" y="16" class="st3" width="4" height="4"/>
	<rect x="1706.1" y="16" class="st3" width="4" height="4"/>
	<rect x="1702.1" y="19.9" class="st3" width="4" height="4"/>
	<rect x="1738.1" y="8" class="st3" width="4" height="4"/>
	<rect x="1762" y="8" class="st3" width="4" height="4"/>
	<rect x="1742.1" y="12" class="st3" width="4" height="4"/>
	<rect x="1758.1" y="12" class="st3" width="4" height="4"/>
	<rect x="1746.1" y="16" class="st3" width="4" height="4"/>
	<rect x="1754.1" y="16" class="st3" width="4" height="4"/>
	<rect x="1750.1" y="19.9" class="st3" width="4" height="4"/>
	<rect x="1786" y="8" class="st3" width="4" height="4"/>
	<rect x="1810" y="8" class="st3" width="4" height="4"/>
	<rect x="1790" y="12" class="st3" width="4" height="4"/>
	<rect x="1806" y="12" class="st3" width="4" height="4"/>
	<rect x="1794" y="16" class="st3" width="4" height="4"/>
	<rect x="1802" y="16" class="st3" width="4" height="4"/>
	<rect x="1798" y="19.9" class="st3" width="4" height="4"/>
	<rect x="1834" y="8" class="st3" width="4" height="4"/>
	<rect x="1857.9" y="8" class="st3" width="4" height="4"/>
	<rect x="1838" y="12" class="st3" width="4" height="4"/>
	<rect x="1853.9" y="12" class="st3" width="4" height="4"/>
	<rect x="1842" y="16" class="st3" width="4" height="4"/>
	<rect x="1849.9" y="16" class="st3" width="4" height="4"/>
	<rect x="1846" y="19.9" class="st3" width="4" height="4"/>
	<rect x="1881.9" y="8" class="st3" width="4" height="4"/>
	<rect x="1905.9" y="8" class="st3" width="4" height="4"/>
	<rect x="1885.9" y="12" class="st3" width="4" height="4"/>
	<rect x="1901.9" y="12" class="st3" width="4" height="4"/>
	<rect x="1889.9" y="16" class="st3" width="4" height="4"/>
	<rect x="1897.9" y="16" class="st3" width="4" height="4"/>
	<rect x="1893.9" y="19.9" class="st3" width="4" height="4"/>
	<rect x="1929.9" y="8" class="st3" width="4" height="4"/>
	<rect x="1953.8" y="8" class="st3" width="4" height="4"/>
	<rect x="1933.9" y="12" class="st3" width="4" height="4"/>
	<rect x="1949.8" y="12" class="st3" width="4" height="4"/>
	<rect x="1937.9" y="16" class="st3" width="4" height="4"/>
	<rect x="1945.8" y="16" class="st3" width="4" height="4"/>
	<rect x="1941.8" y="19.9" class="st3" width="4" height="4"/>
	<polygon class="st3" points="0,0 4,0 4,4 8,4 8,8 12,8 12,4 16,4 20,4 20,8 24,8 24,12 28,12 28,8 32,8 32,4 36,4 40,4 40,8 44,8 
		44,4 47.9,4 47.9,0 51.9,0 51.9,4 55.9,4 55.9,8 59.9,8 59.9,4 63.9,4 67.9,4 67.9,8 71.9,8 71.9,12 75.9,12 75.9,8 79.9,8 79.9,4 
		83.9,4 87.9,4 87.9,8 91.9,8 91.9,4 95.9,4 95.9,0 99.9,0 99.9,4 103.9,4 103.9,8 107.9,8 107.9,4 111.9,4 115.9,4 115.9,8 
		119.9,8 119.9,12 123.9,12 123.9,8 127.9,8 127.9,4 131.9,4 135.8,4 135.8,8 139.8,8 139.8,4 143.8,4 143.8,0 147.8,0 147.8,4 
		151.8,4 151.8,8 155.8,8 155.8,4 159.8,4 163.8,4 163.8,8 167.8,8 167.8,12 171.8,12 171.8,8 175.8,8 175.8,4 179.8,4 183.8,4 
		183.8,8 187.8,8 187.8,4 191.8,4 191.8,0 195.8,0 195.8,4 199.8,4 199.8,8 203.8,8 203.8,4 207.8,4 211.8,4 211.8,8 215.8,8 
		215.8,12 219.8,12 219.8,8 223.8,8 223.8,4 227.7,4 231.7,4 231.7,8 235.7,8 235.7,4 239.7,4 239.7,0 243.7,0 243.7,4 247.7,4 
		247.7,8 251.7,8 251.7,4 255.7,4 259.7,4 259.7,8 263.7,8 263.7,12 267.7,12 267.7,8 271.7,8 271.7,4 275.7,4 279.7,4 279.7,8 
		283.7,8 283.7,4 287.7,4 287.7,0 291.7,0 291.7,4 295.7,4 295.7,8 299.7,8 299.7,4 303.7,4 307.7,4 307.7,8 311.7,8 311.7,12 
		315.7,12 315.7,8 319.6,8 319.6,4 323.6,4 327.6,4 327.6,8 331.6,8 331.6,4 335.6,4 335.6,0 339.6,0 339.6,4 343.6,4 343.6,8 
		347.6,8 347.6,4 351.6,4 355.6,4 355.6,8 359.6,8 359.6,12 363.6,12 363.6,8 367.6,8 367.6,4 371.6,4 375.6,4 375.6,8 379.6,8 
		379.6,4 383.6,4 383.6,0 387.6,0 387.6,4 391.6,4 391.6,8 395.6,8 395.6,4 399.6,4 403.6,4 403.6,8 407.5,8 407.5,12 411.5,12 
		411.5,8 415.5,8 415.5,4 419.5,4 423.5,4 423.5,8 427.5,8 427.5,4 431.5,4 431.5,0 435.5,0 435.5,4 439.5,4 439.5,8 443.5,8 
		443.5,4 447.5,4 451.5,4 451.5,8 455.5,8 455.5,12 459.5,12 459.5,8 463.5,8 463.5,4 467.5,4 471.5,4 471.5,8 475.5,8 475.5,4 
		479.5,4 479.5,0 483.5,0 483.5,4 487.5,4 487.5,8 491.5,8 491.5,4 495.5,4 499.4,4 499.4,8 503.4,8 503.4,12 507.4,12 507.4,8 
		511.4,8 511.4,4 515.4,4 519.4,4 519.4,8 523.4,8 523.4,4 527.4,4 527.4,0 531.4,0 531.4,4 535.4,4 535.4,8 539.4,8 539.4,4 
		543.4,4 547.4,4 547.4,8 551.4,8 551.4,12 555.4,12 555.4,8 559.4,8 559.4,4 563.4,4 567.4,4 567.4,8 571.4,8 571.4,4 575.4,4 
		575.4,0 579.4,0 579.4,4 583.4,4 583.4,8 587.3,8 587.3,4 591.3,4 595.3,4 595.3,8 599.3,8 599.3,12 603.3,12 603.3,8 607.3,8 
		607.3,4 611.3,4 615.3,4 615.3,8 619.3,8 619.3,4 623.3,4 623.3,0 627.3,0 627.3,4 631.3,4 631.3,8 635.3,8 635.3,4 639.3,4 
		643.3,4 643.3,8 647.3,8 647.3,12 651.3,12 651.3,8 655.3,8 655.3,4 659.3,4 663.3,4 663.3,8 667.3,8 667.3,4 671.3,4 671.3,0 
		675.3,0 675.3,4 679.2,4 679.2,8 683.2,8 683.2,4 687.2,4 691.2,4 691.2,8 695.2,8 695.2,12 699.2,12 699.2,8 703.2,8 703.2,4 
		707.2,4 711.2,4 711.2,8 715.2,8 715.2,4 719.2,4 719.2,0 723.2,0 723.2,4 727.2,4 727.2,8 731.2,8 731.2,4 735.2,4 739.2,4 
		739.2,8 743.2,8 743.2,12 747.2,12 747.2,8 751.2,8 751.2,4 755.2,4 759.2,4 759.2,8 763.2,8 763.2,4 767.1,4 767.1,0 771.1,0 
		771.1,4 775.1,4 775.1,8 779.1,8 779.1,4 783.1,4 787.1,4 787.1,8 791.1,8 791.1,12 795.1,12 795.1,8 799.1,8 799.1,4 803.1,4 
		807.1,4 807.1,8 811.1,8 811.1,4 815.1,4 815.1,0 819.1,0 819.1,4 823.1,4 823.1,8 827.1,8 827.1,4 831.1,4 835.1,4 835.1,8 
		839.1,8 839.1,12 843.1,12 843.1,8 847.1,8 847.1,4 851.1,4 855.1,4 855.1,8 859,8 859,4 863,4 863,0 867,0 867,4 871,4 871,8 
		875,8 875,4 879,4 883,4 883,8 887,8 887,12 891,12 891,8 895,8 895,4 899,4 903,4 903,8 907,8 907,4 911,4 911,0 915,0 915,4 
		919,4 919,8 923,8 923,4 927,4 931,4 931,8 935,8 935,12 939,12 939,8 943,8 943,4 947,4 950.9,4 950.9,8 954.9,8 954.9,4 958.9,4 
		958.9,0 962.9,0 962.9,4 966.9,4 966.9,8 970.9,8 970.9,4 974.9,4 978.9,4 978.9,8 982.9,8 982.9,12 986.9,12 986.9,8 990.9,8 
		990.9,4 994.9,4 998.9,4 998.9,8 1002.9,8 1002.9,4 1006.9,4 1006.9,0 1010.9,0 1010.9,4 1014.9,4 1014.9,8 1018.9,8 1018.9,4 
		1022.9,4 1026.9,4 1026.9,8 1030.9,8 1030.9,12 1034.9,12 1034.9,8 1038.8,8 1038.8,4 1042.8,4 1046.8,4 1046.8,8 1050.8,8 
		1050.8,4 1054.8,4 1054.8,0 1058.8,0 1058.8,4 1062.8,4 1062.8,8 1066.8,8 1066.8,4 1070.8,4 1074.8,4 1074.8,8 1078.8,8 
		1078.8,12 1082.8,12 1082.8,8 1086.8,8 1086.8,4 1090.8,4 1094.8,4 1094.8,8 1098.8,8 1098.8,4 1102.8,4 1102.8,0 1106.8,0 
		1106.8,4 1110.8,4 1110.8,8 1114.8,8 1114.8,4 1118.8,4 1122.8,4 1122.8,8 1126.8,8 1126.8,12 1130.7,12 1130.7,8 1134.7,8 
		1134.7,4 1138.7,4 1142.7,4 1142.7,8 1146.7,8 1146.7,4 1150.7,4 1150.7,0 1154.7,0 1154.7,4 1158.7,4 1158.7,8 1162.7,8 1162.7,4 
		1166.7,4 1170.7,4 1170.7,8 1174.7,8 1174.7,12 1178.7,12 1178.7,8 1182.7,8 1182.7,4 1186.7,4 1190.7,4 1190.7,8 1194.7,8 
		1194.7,4 1198.7,4 1198.7,0 1202.7,0 1202.7,4 1206.7,4 1206.7,8 1210.7,8 1210.7,4 1214.7,4 1218.6,4 1218.6,8 1222.6,8 
		1222.6,12 1226.6,12 1226.6,8 1230.6,8 1230.6,4 1234.6,4 1238.6,4 1238.6,8 1242.6,8 1242.6,4 1246.6,4 1246.6,0 1250.6,0 
		1250.6,4 1254.6,4 1254.6,8 1258.6,8 1258.6,4 1262.6,4 1266.6,4 1266.6,8 1270.6,8 1270.6,12 1274.6,12 1274.6,8 1278.6,8 
		1278.6,4 1282.6,4 1286.6,4 1286.6,8 1290.6,8 1290.6,4 1294.6,4 1294.6,0 1298.6,0 1298.6,4 1302.6,4 1302.6,8 1306.6,8 1306.6,4 
		1310.5,4 1314.5,4 1314.5,8 1318.5,8 1318.5,12 1322.5,12 1322.5,8 1326.5,8 1326.5,4 1330.5,4 1334.5,4 1334.5,8 1338.5,8 
		1338.5,4 1342.5,4 1342.5,0 1346.5,0 1346.5,4 1350.5,4 1350.5,8 1354.5,8 1354.5,4 1358.5,4 1362.5,4 1362.5,8 1366.5,8 
		1366.5,12 1370.5,12 1370.5,8 1374.5,8 1374.5,4 1378.5,4 1382.5,4 1382.5,8 1386.5,8 1386.5,4 1390.5,4 1390.5,0 1394.5,0 
		1394.5,4 1398.4,4 1398.4,8 1402.4,8 1402.4,4 1406.4,4 1410.4,4 1410.4,8 1414.4,8 1414.4,12 1418.4,12 1418.4,8 1422.4,8 
		1422.4,4 1426.4,4 1430.4,4 1430.4,8 1434.4,8 1434.4,4 1438.4,4 1438.4,0 1442.4,0 1442.4,4 1446.4,4 1446.4,8 1450.4,8 1450.4,4 
		1454.4,4 1458.4,4 1458.4,8 1462.4,8 1462.4,12 1466.4,12 1466.4,8 1470.4,8 1470.4,4 1474.4,4 1478.4,4 1478.4,8 1482.4,8 
		1482.4,4 1486.4,4 1486.4,0 1490.3,0 1490.3,4 1494.3,4 1494.3,8 1498.3,8 1498.3,4 1502.3,4 1506.3,4 1506.3,8 1510.3,8 
		1510.3,12 1514.3,12 1514.3,8 1518.3,8 1518.3,4 1522.3,4 1526.3,4 1526.3,8 1530.3,8 1530.3,4 1534.3,4 1534.3,0 1538.3,0 
		1538.3,4 1542.3,4 1542.3,8 1546.3,8 1546.3,4 1550.3,4 1554.3,4 1554.3,8 1558.3,8 1558.3,12 1562.3,12 1562.3,8 1566.3,8 
		1566.3,4 1570.3,4 1574.3,4 1574.3,8 1578.2,8 1578.2,4 1582.2,4 1582.2,0 1586.2,0 1586.2,4 1590.2,4 1590.2,8 1594.2,8 1594.2,4 
		1598.2,4 1602.2,4 1602.2,8 1606.2,8 1606.2,12 1610.2,12 1610.2,8 1614.2,8 1614.2,4 1618.2,4 1622.2,4 1622.2,8 1626.2,8 
		1626.2,4 1630.2,4 1630.2,0 1634.2,0 1634.2,4 1638.2,4 1638.2,8 1642.2,8 1642.2,4 1646.2,4 1650.2,4 1650.2,8 1654.2,8 
		1654.2,12 1658.2,12 1658.2,8 1662.2,8 1662.2,4 1666.2,4 1670.1,4 1670.1,8 1674.1,8 1674.1,4 1678.1,4 1678.1,0 1682.1,0 
		1682.1,4 1686.1,4 1686.1,8 1690.1,8 1690.1,4 1694.1,4 1698.1,4 1698.1,8 1702.1,8 1702.1,12 1706.1,12 1706.1,8 1710.1,8 
		1710.1,4 1714.1,4 1718.1,4 1718.1,8 1722.1,8 1722.1,4 1726.1,4 1726.1,0 1730.1,0 1730.1,4 1734.1,4 1734.1,8 1738.1,8 1738.1,4 
		1742.1,4 1746.1,4 1746.1,8 1750.1,8 1750.1,12 1754.1,12 1754.1,8 1758.1,8 1758.1,4 1762,4 1766,4 1766,8 1770,8 1770,4 1774,4 
		1774,0 1778,0 1778,4 1782,4 1782,8 1786,8 1786,4 1790,4 1794,4 1794,8 1798,8 1798,12 1802,12 1802,8 1806,8 1806,4 1810,4 
		1814,4 1814,8 1818,8 1818,4 1822,4 1822,0 1826,0 1826,4 1830,4 1830,8 1834,8 1834,4 1838,4 1842,4 1842,8 1846,8 1846,12 
		1849.9,12 1849.9,8 1853.9,8 1853.9,4 1857.9,4 1861.9,4 1861.9,8 1865.9,8 1865.9,4 1869.9,4 1869.9,0 1873.9,0 1873.9,4 
		1877.9,4 1877.9,8 1881.9,8 1881.9,4 1885.9,4 1889.9,4 1889.9,8 1893.9,8 1893.9,12 1897.9,12 1897.9,8 1901.9,8 1901.9,4 
		1905.9,4 1909.9,4 1909.9,8 1913.9,8 1913.9,4 1917.9,4 1917.9,0 1921.9,0 1921.9,4 1925.9,4 1925.9,8 1929.9,8 1929.9,4 1933.9,4 
		1937.9,4 1937.9,8 1941.8,8 1941.8,12 1945.8,12 1945.8,8 1949.8,8 1949.8,4 1953.8,4 1957.8,4 1957.8,8 1961.8,8 1961.8,4 
		1965.8,4 1965.8,0 1969.8,0 1969.8,4 1973.8,4 1973.8,8 1977.8,8 1977.8,4 1981.8,4 1985.8,4 1985.8,8 1989.8,8 1989.8,12 
		1993.8,12 1993.8,8 1997.8,8 1997.8,4 2001.8,4 2005.8,4 2005.8,8 2009.8,8 2009.8,4 2013.8,4 2013.8,0 	"/>
	<rect x="1977.8" y="8" class="st3" width="4" height="4"/>
	<rect x="2001.8" y="8" class="st3" width="4" height="4"/>
	<rect x="1981.8" y="12" class="st3" width="4" height="4"/>
	<rect x="1997.8" y="12" class="st3" width="4" height="4"/>
	<rect x="1985.8" y="16" class="st3" width="4" height="4"/>
	<rect x="1993.8" y="16" class="st3" width="4" height="4"/>
	<rect x="1989.8" y="19.9" class="st3" width="4" height="4"/>
</g>
<polygon class="st1" points="2009.8,4 2009.8,8 2005.8,8 2005.8,12 2001.8,12 2001.8,16 1997.8,16 1997.8,19.9 1993.8,19.9 
	1993.8,23.9 1989.8,23.9 1989.8,19.9 1985.8,19.9 1985.8,16 1981.8,16 1981.8,12 1977.8,12 1977.8,8 1973.8,8 1973.8,4 1969.8,4 
	1969.8,0 1965.8,0 1965.8,4 1965.8,8 1969.8,8 1969.8,12 1973.8,12 1973.8,16 1977.8,16 1977.8,19.9 1981.8,19.9 1981.8,23.9 
	1985.8,23.9 1985.8,27.9 1989.8,27.9 1989.8,31.9 1993.8,31.9 1993.8,27.9 1997.8,27.9 1997.8,23.9 2001.8,23.9 2001.8,19.9 
	2005.8,19.9 2005.8,16 2009.8,16 2009.8,12 2013.8,12 2013.8,8 2013.8,4 "/>
<polygon class="st2" points="2009.8,12 2009.8,16 2005.8,16 2005.8,19.9 2001.8,19.9 2001.8,23.9 1997.8,23.9 1997.8,27.9 
	1993.8,27.9 1993.8,31.9 1989.8,31.9 1989.8,27.9 1985.8,27.9 1985.8,23.9 1981.8,23.9 1981.8,19.9 1977.8,19.9 1977.8,16 
	1973.8,16 1973.8,12 1969.8,12 1969.8,8 1965.8,8 1965.8,12 1965.8,16 1969.8,16 1969.8,19.9 1973.8,19.9 1973.8,23.9 1977.8,23.9 
	1977.8,27.9 1981.8,27.9 1981.8,31.9 1985.8,31.9 1985.8,35.9 1989.8,35.9 1989.8,39.9 1993.8,39.9 1993.8,35.9 1997.8,35.9 
	1997.8,31.9 2001.8,31.9 2001.8,27.9 2005.8,27.9 2005.8,23.9 2009.8,23.9 2009.8,19.9 2013.8,19.9 2013.8,16 2013.8,12 "/>
</svg>
