<?xml version="1.0" encoding="utf-8"?>
<!-- Generator: Adobe Illustrator 25.0.0, SVG Export Plug-In . SVG Version: 6.00 Build 0)  -->
<svg version="1.1" id="Capa_1" xmlns="http://www.w3.org/2000/svg" xmlns:xlink="http://www.w3.org/1999/xlink" x="0px" y="0px"
	 viewBox="0 0 479.5 127.8" style="enable-background:new 0 0 479.5 127.8;" xml:space="preserve">
<style type="text/css">
	.st0{fill:#F9F3C4;}
	.st1{fill:#ED3C2E;}
	.st2{fill:#00AC50;}
	.st3{fill:#F17D56;}
	.st4{fill:#3A2018;}
	.st5{opacity:0.35;fill:#FBAA39;enable-background:new    ;}
</style>
<polygon class="st0" points="36,4 32,4 32,8 28,8 28,12 24,12 24,8 20,8 20,4 16,4 12,4 12,8 16,8 16,12 20,12 20,16 24,16 24,19.9 
	28,19.9 28,16 32,16 32,12 36,12 36,8 40,8 40,4 "/>
<polygon class="st1" points="44,4 44,8 40,8 40,12 36,12 36,16 32,16 32,19.9 28,19.9 28,23.9 24,23.9 24,19.9 20,19.9 20,16 16,16 
	16,12 12,12 12,8 8,8 8,4 4,4 4,0 0,0 0,4 0,8 4,8 4,12 8,12 8,16 12,16 12,19.9 16,19.9 16,23.9 20,23.9 20,27.9 24,27.9 24,31.9 
	28,31.9 28,27.9 32,27.9 32,23.9 36,23.9 36,19.9 40,19.9 40,16 44,16 44,12 47.9,12 47.9,8 47.9,4 "/>
<polygon class="st2" points="44,12 44,16 40,16 40,19.9 36,19.9 36,23.9 32,23.9 32,27.9 28,27.9 28,31.9 24,31.9 24,27.9 20,27.9 
	20,23.9 16,23.9 16,19.9 12,19.9 12,16 8,16 8,12 4,12 4,8 0,8 0,12 0,16 4,16 4,19.9 8,19.9 8,23.9 12,23.9 12,27.9 16,27.9 
	16,31.9 20,31.9 20,35.9 24,35.9 24,39.9 28,39.9 28,35.9 32,35.9 32,31.9 36,31.9 36,27.9 40,27.9 40,23.9 44,23.9 44,19.9 
	47.9,19.9 47.9,16 47.9,12 "/>
<polygon class="st0" points="83.9,4 79.9,4 79.9,8 75.9,8 75.9,12 71.9,12 71.9,8 67.9,8 67.9,4 63.9,4 59.9,4 59.9,8 63.9,8 
	63.9,12 67.9,12 67.9,16 71.9,16 71.9,19.9 75.9,19.9 75.9,16 79.9,16 79.9,12 83.9,12 83.9,8 87.9,8 87.9,4 "/>
<polygon class="st1" points="91.9,4 91.9,8 87.9,8 87.9,12 83.9,12 83.9,16 79.9,16 79.9,19.9 75.9,19.9 75.9,23.9 71.9,23.9 
	71.9,19.9 67.9,19.9 67.9,16 63.9,16 63.9,12 59.9,12 59.9,8 55.9,8 55.9,4 51.9,4 51.9,0 47.9,0 47.9,4 47.9,8 51.9,8 51.9,12 
	55.9,12 55.9,16 59.9,16 59.9,19.9 63.9,19.9 63.9,23.9 67.9,23.9 67.9,27.9 71.9,27.9 71.9,31.9 75.9,31.9 75.9,27.9 79.9,27.9 
	79.9,23.9 83.9,23.9 83.9,19.9 87.9,19.9 87.9,16 91.9,16 91.9,12 95.9,12 95.9,8 95.9,4 "/>
<polygon class="st2" points="91.9,12 91.9,16 87.9,16 87.9,19.9 83.9,19.9 83.9,23.9 79.9,23.9 79.9,27.9 75.9,27.9 75.9,31.9 
	71.9,31.9 71.9,27.9 67.9,27.9 67.9,23.9 63.9,23.9 63.9,19.9 59.9,19.9 59.9,16 55.9,16 55.9,12 51.9,12 51.9,8 47.9,8 47.9,12 
	47.9,16 51.9,16 51.9,19.9 55.9,19.9 55.9,23.9 59.9,23.9 59.9,27.9 63.9,27.9 63.9,31.9 67.9,31.9 67.9,35.9 71.9,35.9 71.9,39.9 
	75.9,39.9 75.9,35.9 79.9,35.9 79.9,31.9 83.9,31.9 83.9,27.9 87.9,27.9 87.9,23.9 91.9,23.9 91.9,19.9 95.9,19.9 95.9,16 95.9,12 
	"/>
<polygon class="st0" points="131.9,4 127.9,4 127.9,8 123.9,8 123.9,12 119.9,12 119.9,8 115.9,8 115.9,4 111.9,4 107.9,4 107.9,8 
	111.9,8 111.9,12 115.9,12 115.9,16 119.9,16 119.9,19.9 123.9,19.9 123.9,16 127.9,16 127.9,12 131.9,12 131.9,8 135.8,8 135.8,4 
	"/>
<polygon class="st1" points="139.8,4 139.8,8 135.8,8 135.8,12 131.9,12 131.9,16 127.9,16 127.9,19.9 123.9,19.9 123.9,23.9 
	119.9,23.9 119.9,19.9 115.9,19.9 115.9,16 111.9,16 111.9,12 107.9,12 107.9,8 103.9,8 103.9,4 99.9,4 99.9,0 95.9,0 95.9,4 
	95.9,8 99.9,8 99.9,12 103.9,12 103.9,16 107.9,16 107.9,19.9 111.9,19.9 111.9,23.9 115.9,23.9 115.9,27.9 119.9,27.9 119.9,31.9 
	123.9,31.9 123.9,27.9 127.9,27.9 127.9,23.9 131.9,23.9 131.9,19.9 135.8,19.9 135.8,16 139.8,16 139.8,12 143.8,12 143.8,8 
	143.8,4 "/>
<polygon class="st2" points="139.8,12 139.8,16 135.8,16 135.8,19.9 131.9,19.9 131.9,23.9 127.9,23.9 127.9,27.9 123.9,27.9 
	123.9,31.9 119.9,31.9 119.9,27.9 115.9,27.9 115.9,23.9 111.9,23.9 111.9,19.9 107.9,19.9 107.9,16 103.9,16 103.9,12 99.9,12 
	99.9,8 95.9,8 95.9,12 95.9,16 99.9,16 99.9,19.9 103.9,19.9 103.9,23.9 107.9,23.9 107.9,27.9 111.9,27.9 111.9,31.9 115.9,31.9 
	115.9,35.9 119.9,35.9 119.9,39.9 123.9,39.9 123.9,35.9 127.9,35.9 127.9,31.9 131.9,31.9 131.9,27.9 135.8,27.9 135.8,23.9 
	139.8,23.9 139.8,19.9 143.8,19.9 143.8,16 143.8,12 "/>
<polygon class="st0" points="179.8,4 175.8,4 175.8,8 171.8,8 171.8,12 167.8,12 167.8,8 163.8,8 163.8,4 159.8,4 155.8,4 155.8,8 
	159.8,8 159.8,12 163.8,12 163.8,16 167.8,16 167.8,19.9 171.8,19.9 171.8,16 175.8,16 175.8,12 179.8,12 179.8,8 183.8,8 183.8,4 
	"/>
<polygon class="st1" points="187.8,4 187.8,8 183.8,8 183.8,12 179.8,12 179.8,16 175.8,16 175.8,19.9 171.8,19.9 171.8,23.9 
	167.8,23.9 167.8,19.9 163.8,19.9 163.8,16 159.8,16 159.8,12 155.8,12 155.8,8 151.8,8 151.8,4 147.8,4 147.8,0 143.8,0 143.8,4 
	143.8,8 147.8,8 147.8,12 151.8,12 151.8,16 155.8,16 155.8,19.9 159.8,19.9 159.8,23.9 163.8,23.9 163.8,27.9 167.8,27.9 
	167.8,31.9 171.8,31.9 171.8,27.9 175.8,27.9 175.8,23.9 179.8,23.9 179.8,19.9 183.8,19.9 183.8,16 187.8,16 187.8,12 191.8,12 
	191.8,8 191.8,4 "/>
<polygon class="st2" points="187.8,12 187.8,16 183.8,16 183.8,19.9 179.8,19.9 179.8,23.9 175.8,23.9 175.8,27.9 171.8,27.9 
	171.8,31.9 167.8,31.9 167.8,27.9 163.8,27.9 163.8,23.9 159.8,23.9 159.8,19.9 155.8,19.9 155.8,16 151.8,16 151.8,12 147.8,12 
	147.8,8 143.8,8 143.8,12 143.8,16 147.8,16 147.8,19.9 151.8,19.9 151.8,23.9 155.8,23.9 155.8,27.9 159.8,27.9 159.8,31.9 
	163.8,31.9 163.8,35.9 167.8,35.9 167.8,39.9 171.8,39.9 171.8,35.9 175.8,35.9 175.8,31.9 179.8,31.9 179.8,27.9 183.8,27.9 
	183.8,23.9 187.8,23.9 187.8,19.9 191.8,19.9 191.8,16 191.8,12 "/>
<polygon class="st0" points="227.7,4 223.8,4 223.8,8 219.8,8 219.8,12 215.8,12 215.8,8 211.8,8 211.8,4 207.8,4 203.8,4 203.8,8 
	207.8,8 207.8,12 211.8,12 211.8,16 215.8,16 215.8,19.9 219.8,19.9 219.8,16 223.8,16 223.8,12 227.7,12 227.7,8 231.7,8 231.7,4 
	"/>
<polygon class="st1" points="235.7,4 235.7,8 231.7,8 231.7,12 227.7,12 227.7,16 223.8,16 223.8,19.9 219.8,19.9 219.8,23.9 
	215.8,23.9 215.8,19.9 211.8,19.9 211.8,16 207.8,16 207.8,12 203.8,12 203.8,8 199.8,8 199.8,4 195.8,4 195.8,0 191.8,0 191.8,4 
	191.8,8 195.8,8 195.8,12 199.8,12 199.8,16 203.8,16 203.8,19.9 207.8,19.9 207.8,23.9 211.8,23.9 211.8,27.9 215.8,27.9 
	215.8,31.9 219.8,31.9 219.8,27.9 223.8,27.9 223.8,23.9 227.7,23.9 227.7,19.9 231.7,19.9 231.7,16 235.7,16 235.7,12 239.7,12 
	239.7,8 239.7,4 "/>
<polygon class="st2" points="235.7,12 235.7,16 231.7,16 231.7,19.9 227.7,19.9 227.7,23.9 223.8,23.9 223.8,27.9 219.8,27.9 
	219.8,31.9 215.8,31.9 215.8,27.9 211.8,27.9 211.8,23.9 207.8,23.9 207.8,19.9 203.8,19.9 203.8,16 199.8,16 199.8,12 195.8,12 
	195.8,8 191.8,8 191.8,12 191.8,16 195.8,16 195.8,19.9 199.8,19.9 199.8,23.9 203.8,23.9 203.8,27.9 207.8,27.9 207.8,31.9 
	211.8,31.9 211.8,35.9 215.8,35.9 215.8,39.9 219.8,39.9 219.8,35.9 223.8,35.9 223.8,31.9 227.7,31.9 227.7,27.9 231.7,27.9 
	231.7,23.9 235.7,23.9 235.7,19.9 239.7,19.9 239.7,16 239.7,12 "/>
<polygon class="st0" points="275.7,4 271.7,4 271.7,8 267.7,8 267.7,12 263.7,12 263.7,8 259.7,8 259.7,4 255.7,4 251.7,4 251.7,8 
	255.7,8 255.7,12 259.7,12 259.7,16 263.7,16 263.7,19.9 267.7,19.9 267.7,16 271.7,16 271.7,12 275.7,12 275.7,8 279.7,8 279.7,4 
	"/>
<polygon class="st1" points="283.7,4 283.7,8 279.7,8 279.7,12 275.7,12 275.7,16 271.7,16 271.7,19.9 267.7,19.9 267.7,23.9 
	263.7,23.9 263.7,19.9 259.7,19.9 259.7,16 255.7,16 255.7,12 251.7,12 251.7,8 247.7,8 247.7,4 243.7,4 243.7,0 239.7,0 239.7,4 
	239.7,8 243.7,8 243.7,12 247.7,12 247.7,16 251.7,16 251.7,19.9 255.7,19.9 255.7,23.9 259.7,23.9 259.7,27.9 263.7,27.9 
	263.7,31.9 267.7,31.9 267.7,27.9 271.7,27.9 271.7,23.9 275.7,23.9 275.7,19.9 279.7,19.9 279.7,16 283.7,16 283.7,12 287.7,12 
	287.7,8 287.7,4 "/>
<polygon class="st2" points="283.7,12 283.7,16 279.7,16 279.7,19.9 275.7,19.9 275.7,23.9 271.7,23.9 271.7,27.9 267.7,27.9 
	267.7,31.9 263.7,31.9 263.7,27.9 259.7,27.9 259.7,23.9 255.7,23.9 255.7,19.9 251.7,19.9 251.7,16 247.7,16 247.7,12 243.7,12 
	243.7,8 239.7,8 239.7,12 239.7,16 243.7,16 243.7,19.9 247.7,19.9 247.7,23.9 251.7,23.9 251.7,27.9 255.7,27.9 255.7,31.9 
	259.7,31.9 259.7,35.9 263.7,35.9 263.7,39.9 267.7,39.9 267.7,35.9 271.7,35.9 271.7,31.9 275.7,31.9 275.7,27.9 279.7,27.9 
	279.7,23.9 283.7,23.9 283.7,19.9 287.7,19.9 287.7,16 287.7,12 "/>
<polygon class="st0" points="323.6,4 319.6,4 319.6,8 315.7,8 315.7,12 311.7,12 311.7,8 307.7,8 307.7,4 303.7,4 299.7,4 299.7,8 
	303.7,8 303.7,12 307.7,12 307.7,16 311.7,16 311.7,19.9 315.7,19.9 315.7,16 319.6,16 319.6,12 323.6,12 323.6,8 327.6,8 327.6,4 
	"/>
<polygon class="st1" points="331.6,4 331.6,8 327.6,8 327.6,12 323.6,12 323.6,16 319.6,16 319.6,19.9 315.7,19.9 315.7,23.9 
	311.7,23.9 311.7,19.9 307.7,19.9 307.7,16 303.7,16 303.7,12 299.7,12 299.7,8 295.7,8 295.7,4 291.7,4 291.7,0 287.7,0 287.7,4 
	287.7,8 291.7,8 291.7,12 295.7,12 295.7,16 299.7,16 299.7,19.9 303.7,19.9 303.7,23.9 307.7,23.9 307.7,27.9 311.7,27.9 
	311.7,31.9 315.7,31.9 315.7,27.9 319.6,27.9 319.6,23.9 323.6,23.9 323.6,19.9 327.6,19.9 327.6,16 331.6,16 331.6,12 335.6,12 
	335.6,8 335.6,4 "/>
<polygon class="st2" points="331.6,12 331.6,16 327.6,16 327.6,19.9 323.6,19.9 323.6,23.9 319.6,23.9 319.6,27.9 315.7,27.9 
	315.7,31.9 311.7,31.9 311.7,27.9 307.7,27.9 307.7,23.9 303.7,23.9 303.7,19.9 299.7,19.9 299.7,16 295.7,16 295.7,12 291.7,12 
	291.7,8 287.7,8 287.7,12 287.7,16 291.7,16 291.7,19.9 295.7,19.9 295.7,23.9 299.7,23.9 299.7,27.9 303.7,27.9 303.7,31.9 
	307.7,31.9 307.7,35.9 311.7,35.9 311.7,39.9 315.7,39.9 315.7,35.9 319.6,35.9 319.6,31.9 323.6,31.9 323.6,27.9 327.6,27.9 
	327.6,23.9 331.6,23.9 331.6,19.9 335.6,19.9 335.6,16 335.6,12 "/>
<polygon class="st0" points="371.6,4 367.6,4 367.6,8 363.6,8 363.6,12 359.6,12 359.6,8 355.6,8 355.6,4 351.6,4 347.6,4 347.6,8 
	351.6,8 351.6,12 355.6,12 355.6,16 359.6,16 359.6,19.9 363.6,19.9 363.6,16 367.6,16 367.6,12 371.6,12 371.6,8 375.6,8 375.6,4 
	"/>
<polygon class="st1" points="379.6,4 379.6,8 375.6,8 375.6,12 371.6,12 371.6,16 367.6,16 367.6,19.9 363.6,19.9 363.6,23.9 
	359.6,23.9 359.6,19.9 355.6,19.9 355.6,16 351.6,16 351.6,12 347.6,12 347.6,8 343.6,8 343.6,4 339.6,4 339.6,0 335.6,0 335.6,4 
	335.6,8 339.6,8 339.6,12 343.6,12 343.6,16 347.6,16 347.6,19.9 351.6,19.9 351.6,23.9 355.6,23.9 355.6,27.9 359.6,27.9 
	359.6,31.9 363.6,31.9 363.6,27.9 367.6,27.9 367.6,23.9 371.6,23.9 371.6,19.9 375.6,19.9 375.6,16 379.6,16 379.6,12 383.6,12 
	383.6,8 383.6,4 "/>
<polygon class="st2" points="379.6,12 379.6,16 375.6,16 375.6,19.9 371.6,19.9 371.6,23.9 367.6,23.9 367.6,27.9 363.6,27.9 
	363.6,31.9 359.6,31.9 359.6,27.9 355.6,27.9 355.6,23.9 351.6,23.9 351.6,19.9 347.6,19.9 347.6,16 343.6,16 343.6,12 339.6,12 
	339.6,8 335.6,8 335.6,12 335.6,16 339.6,16 339.6,19.9 343.6,19.9 343.6,23.9 347.6,23.9 347.6,27.9 351.6,27.9 351.6,31.9 
	355.6,31.9 355.6,35.9 359.6,35.9 359.6,39.9 363.6,39.9 363.6,35.9 367.6,35.9 367.6,31.9 371.6,31.9 371.6,27.9 375.6,27.9 
	375.6,23.9 379.6,23.9 379.6,19.9 383.6,19.9 383.6,16 383.6,12 "/>
<polygon class="st0" points="419.5,4 415.5,4 415.5,8 411.5,8 411.5,12 407.5,12 407.5,8 403.6,8 403.6,4 399.6,4 395.6,4 395.6,8 
	399.6,8 399.6,12 403.6,12 403.6,16 407.5,16 407.5,19.9 411.5,19.9 411.5,16 415.5,16 415.5,12 419.5,12 419.5,8 423.5,8 423.5,4 
	"/>
<polygon class="st1" points="427.5,4 427.5,8 423.5,8 423.5,12 419.5,12 419.5,16 415.5,16 415.5,19.9 411.5,19.9 411.5,23.9 
	407.5,23.9 407.5,19.9 403.6,19.9 403.6,16 399.6,16 399.6,12 395.6,12 395.6,8 391.6,8 391.6,4 387.6,4 387.6,0 383.6,0 383.6,4 
	383.6,8 387.6,8 387.6,12 391.6,12 391.6,16 395.6,16 395.6,19.9 399.6,19.9 399.6,23.9 403.6,23.9 403.6,27.9 407.5,27.9 
	407.5,31.9 411.5,31.9 411.5,27.9 415.5,27.9 415.5,23.9 419.5,23.9 419.5,19.9 423.5,19.9 423.5,16 427.5,16 427.5,12 431.5,12 
	431.5,8 431.5,4 "/>
<polygon class="st2" points="427.5,12 427.5,16 423.5,16 423.5,19.9 419.5,19.9 419.5,23.9 415.5,23.9 415.5,27.9 411.5,27.9 
	411.5,31.9 407.5,31.9 407.5,27.9 403.6,27.9 403.6,23.9 399.6,23.9 399.6,19.9 395.6,19.9 395.6,16 391.6,16 391.6,12 387.6,12 
	387.6,8 383.6,8 383.6,12 383.6,16 387.6,16 387.6,19.9 391.6,19.9 391.6,23.9 395.6,23.9 395.6,27.9 399.6,27.9 399.6,31.9 
	403.6,31.9 403.6,35.9 407.5,35.9 407.5,39.9 411.5,39.9 411.5,35.9 415.5,35.9 415.5,31.9 419.5,31.9 419.5,27.9 423.5,27.9 
	423.5,23.9 427.5,23.9 427.5,19.9 431.5,19.9 431.5,16 431.5,12 "/>
<polygon class="st0" points="467.5,4 463.5,4 463.5,8 459.5,8 459.5,12 455.5,12 455.5,8 451.5,8 451.5,4 447.5,4 443.5,4 443.5,8 
	447.5,8 447.5,12 451.5,12 451.5,16 455.5,16 455.5,19.9 459.5,19.9 459.5,16 463.5,16 463.5,12 467.5,12 467.5,8 471.5,8 471.5,4 
	"/>
<g>
	<rect x="12" y="8" class="st3" width="4" height="4"/>
	<rect x="36" y="8" class="st3" width="4" height="4"/>
	<rect x="16" y="12" class="st3" width="4" height="4"/>
	<rect x="32" y="12" class="st3" width="4" height="4"/>
	<rect x="20" y="16" class="st3" width="4" height="4"/>
	<rect x="28" y="16" class="st3" width="4" height="4"/>
	<rect x="24" y="19.9" class="st3" width="4" height="4"/>
	<rect x="59.9" y="8" class="st3" width="4" height="4"/>
	<rect x="83.9" y="8" class="st3" width="4" height="4"/>
	<rect x="63.9" y="12" class="st3" width="4" height="4"/>
	<rect x="79.9" y="12" class="st3" width="4" height="4"/>
	<rect x="67.9" y="16" class="st3" width="4" height="4"/>
	<rect x="75.9" y="16" class="st3" width="4" height="4"/>
	<rect x="71.9" y="19.9" class="st3" width="4" height="4"/>
	<rect x="107.9" y="8" class="st3" width="4" height="4"/>
	<rect x="131.9" y="8" class="st3" width="4" height="4"/>
	<rect x="111.9" y="12" class="st3" width="4" height="4"/>
	<rect x="127.9" y="12" class="st3" width="4" height="4"/>
	<rect x="115.9" y="16" class="st3" width="4" height="4"/>
	<rect x="123.9" y="16" class="st3" width="4" height="4"/>
	<rect x="119.9" y="19.9" class="st3" width="4" height="4"/>
	<rect x="155.8" y="8" class="st3" width="4" height="4"/>
	<rect x="179.8" y="8" class="st3" width="4" height="4"/>
	<rect x="159.8" y="12" class="st3" width="4" height="4"/>
	<rect x="175.8" y="12" class="st3" width="4" height="4"/>
	<rect x="163.8" y="16" class="st3" width="4" height="4"/>
	<rect x="171.8" y="16" class="st3" width="4" height="4"/>
	<rect x="167.8" y="19.9" class="st3" width="4" height="4"/>
	<rect x="203.8" y="8" class="st3" width="4" height="4"/>
	<rect x="227.7" y="8" class="st3" width="4" height="4"/>
	<rect x="207.8" y="12" class="st3" width="4" height="4"/>
	<rect x="223.8" y="12" class="st3" width="4" height="4"/>
	<rect x="211.8" y="16" class="st3" width="4" height="4"/>
	<rect x="219.8" y="16" class="st3" width="4" height="4"/>
	<rect x="215.8" y="19.9" class="st3" width="4" height="4"/>
	<rect x="251.7" y="8" class="st3" width="4" height="4"/>
	<rect x="275.7" y="8" class="st3" width="4" height="4"/>
	<rect x="255.7" y="12" class="st3" width="4" height="4"/>
	<rect x="271.7" y="12" class="st3" width="4" height="4"/>
	<rect x="259.7" y="16" class="st3" width="4" height="4"/>
	<rect x="267.7" y="16" class="st3" width="4" height="4"/>
	<rect x="263.7" y="19.9" class="st3" width="4" height="4"/>
	<rect x="299.7" y="8" class="st3" width="4" height="4"/>
	<rect x="323.6" y="8" class="st3" width="4" height="4"/>
	<rect x="303.7" y="12" class="st3" width="4" height="4"/>
	<rect x="319.6" y="12" class="st3" width="4" height="4"/>
	<rect x="307.7" y="16" class="st3" width="4" height="4"/>
	<rect x="315.7" y="16" class="st3" width="4" height="4"/>
	<rect x="311.7" y="19.9" class="st3" width="4" height="4"/>
	<rect x="347.6" y="8" class="st3" width="4" height="4"/>
	<rect x="371.6" y="8" class="st3" width="4" height="4"/>
	<rect x="351.6" y="12" class="st3" width="4" height="4"/>
	<rect x="367.6" y="12" class="st3" width="4" height="4"/>
	<rect x="355.6" y="16" class="st3" width="4" height="4"/>
	<rect x="363.6" y="16" class="st3" width="4" height="4"/>
	<rect x="359.6" y="19.9" class="st3" width="4" height="4"/>
	<rect x="395.6" y="8" class="st3" width="4" height="4"/>
	<rect x="419.5" y="8" class="st3" width="4" height="4"/>
	<rect x="399.6" y="12" class="st3" width="4" height="4"/>
	<rect x="415.5" y="12" class="st3" width="4" height="4"/>
	<rect x="403.6" y="16" class="st3" width="4" height="4"/>
	<rect x="411.5" y="16" class="st3" width="4" height="4"/>
	<rect x="407.5" y="19.9" class="st3" width="4" height="4"/>
	<polygon class="st3" points="0,0 4,0 4,4 8,4 8,8 12,8 12,4 16,4 20,4 20,8 24,8 24,12 28,12 28,8 32,8 32,4 36,4 40,4 40,8 44,8 
		44,4 47.9,4 47.9,0 51.9,0 51.9,4 55.9,4 55.9,8 59.9,8 59.9,4 63.9,4 67.9,4 67.9,8 71.9,8 71.9,12 75.9,12 75.9,8 79.9,8 79.9,4 
		83.9,4 87.9,4 87.9,8 91.9,8 91.9,4 95.9,4 95.9,0 99.9,0 99.9,4 103.9,4 103.9,8 107.9,8 107.9,4 111.9,4 115.9,4 115.9,8 
		119.9,8 119.9,12 123.9,12 123.9,8 127.9,8 127.9,4 131.9,4 135.8,4 135.8,8 139.8,8 139.8,4 143.8,4 143.8,0 147.8,0 147.8,4 
		151.8,4 151.8,8 155.8,8 155.8,4 159.8,4 163.8,4 163.8,8 167.8,8 167.8,12 171.8,12 171.8,8 175.8,8 175.8,4 179.8,4 183.8,4 
		183.8,8 187.8,8 187.8,4 191.8,4 191.8,0 195.8,0 195.8,4 199.8,4 199.8,8 203.8,8 203.8,4 207.8,4 211.8,4 211.8,8 215.8,8 
		215.8,12 219.8,12 219.8,8 223.8,8 223.8,4 227.7,4 231.7,4 231.7,8 235.7,8 235.7,4 239.7,4 239.7,0 243.7,0 243.7,4 247.7,4 
		247.7,8 251.7,8 251.7,4 255.7,4 259.7,4 259.7,8 263.7,8 263.7,12 267.7,12 267.7,8 271.7,8 271.7,4 275.7,4 279.7,4 279.7,8 
		283.7,8 283.7,4 287.7,4 287.7,0 291.7,0 291.7,4 295.7,4 295.7,8 299.7,8 299.7,4 303.7,4 307.7,4 307.7,8 311.7,8 311.7,12 
		315.7,12 315.7,8 319.6,8 319.6,4 323.6,4 327.6,4 327.6,8 331.6,8 331.6,4 335.6,4 335.6,0 339.6,0 339.6,4 343.6,4 343.6,8 
		347.6,8 347.6,4 351.6,4 355.6,4 355.6,8 359.6,8 359.6,12 363.6,12 363.6,8 367.6,8 367.6,4 371.6,4 375.6,4 375.6,8 379.6,8 
		379.6,4 383.6,4 383.6,0 387.6,0 387.6,4 391.6,4 391.6,8 395.6,8 395.6,4 399.6,4 403.6,4 403.6,8 407.5,8 407.5,12 411.5,12 
		411.5,8 415.5,8 415.5,4 419.5,4 423.5,4 423.5,8 427.5,8 427.5,4 431.5,4 431.5,0 435.5,0 435.5,4 439.5,4 439.5,8 443.5,8 
		443.5,4 447.5,4 451.5,4 451.5,8 455.5,8 455.5,12 459.5,12 459.5,8 463.5,8 463.5,4 467.5,4 471.5,4 471.5,8 475.5,8 475.5,4 
		479.5,4 479.5,0 	"/>
	<rect x="443.5" y="8" class="st3" width="4" height="4"/>
	<rect x="467.5" y="8" class="st3" width="4" height="4"/>
	<rect x="447.5" y="12" class="st3" width="4" height="4"/>
	<rect x="463.5" y="12" class="st3" width="4" height="4"/>
	<rect x="451.5" y="16" class="st3" width="4" height="4"/>
	<rect x="459.5" y="16" class="st3" width="4" height="4"/>
	<rect x="455.5" y="19.9" class="st3" width="4" height="4"/>
</g>
<polygon class="st1" points="475.5,4 475.5,8 471.5,8 471.5,12 467.5,12 467.5,16 463.5,16 463.5,19.9 459.5,19.9 459.5,23.9 
	455.5,23.9 455.5,19.9 451.5,19.9 451.5,16 447.5,16 447.5,12 443.5,12 443.5,8 439.5,8 439.5,4 435.5,4 435.5,0 431.5,0 431.5,4 
	431.5,8 435.5,8 435.5,12 439.5,12 439.5,16 443.5,16 443.5,19.9 447.5,19.9 447.5,23.9 451.5,23.9 451.5,27.9 455.5,27.9 
	455.5,31.9 459.5,31.9 459.5,27.9 463.5,27.9 463.5,23.9 467.5,23.9 467.5,19.9 471.5,19.9 471.5,16 475.5,16 475.5,12 479.5,12 
	479.5,8 479.5,4 "/>
<polygon class="st2" points="475.5,12 475.5,16 471.5,16 471.5,19.9 467.5,19.9 467.5,23.9 463.5,23.9 463.5,27.9 459.5,27.9 
	459.5,31.9 455.5,31.9 455.5,27.9 451.5,27.9 451.5,23.9 447.5,23.9 447.5,19.9 443.5,19.9 443.5,16 439.5,16 439.5,12 435.5,12 
	435.5,8 431.5,8 431.5,12 431.5,16 435.5,16 435.5,19.9 439.5,19.9 439.5,23.9 443.5,23.9 443.5,27.9 447.5,27.9 447.5,31.9 
	451.5,31.9 451.5,35.9 455.5,35.9 455.5,39.9 459.5,39.9 459.5,35.9 463.5,35.9 463.5,31.9 467.5,31.9 467.5,27.9 471.5,27.9 
	471.5,23.9 475.5,23.9 475.5,19.9 479.5,19.9 479.5,16 479.5,12 "/>
<polygon class="st4" points="475.5,19.9 475.5,23.9 471.5,23.9 471.5,27.9 467.5,27.9 467.5,31.9 463.5,31.9 463.5,35.9 459.5,35.9 
	459.5,39.9 455.5,39.9 455.5,35.9 451.5,35.9 451.5,31.9 447.5,31.9 447.5,27.9 443.5,27.9 443.5,23.9 439.5,23.9 439.5,19.9 
	435.5,19.9 435.5,16 431.5,16 431.5,19.9 427.5,19.9 427.5,23.9 423.5,23.9 423.5,27.9 419.5,27.9 419.5,31.9 415.5,31.9 
	415.5,35.9 411.5,35.9 411.5,39.9 407.5,39.9 407.5,35.9 403.6,35.9 403.6,31.9 399.6,31.9 399.6,27.9 395.6,27.9 395.6,23.9 
	391.6,23.9 391.6,19.9 387.6,19.9 387.6,16 383.6,16 383.6,19.9 379.6,19.9 379.6,23.9 375.6,23.9 375.6,27.9 371.6,27.9 
	371.6,31.9 367.6,31.9 367.6,35.9 363.6,35.9 363.6,39.9 359.6,39.9 359.6,35.9 355.6,35.9 355.6,31.9 351.6,31.9 351.6,27.9 
	347.6,27.9 347.6,23.9 343.6,23.9 343.6,19.9 339.6,19.9 339.6,16 335.6,16 335.6,19.9 331.6,19.9 331.6,23.9 327.6,23.9 
	327.6,27.9 323.6,27.9 323.6,31.9 319.6,31.9 319.6,35.9 315.7,35.9 315.7,39.9 311.7,39.9 311.7,35.9 307.7,35.9 307.7,31.9 
	303.7,31.9 303.7,27.9 299.7,27.9 299.7,23.9 295.7,23.9 295.7,19.9 291.7,19.9 291.7,16 287.7,16 287.7,19.9 283.7,19.9 
	283.7,23.9 279.7,23.9 279.7,27.9 275.7,27.9 275.7,31.9 271.7,31.9 271.7,35.9 267.7,35.9 267.7,39.9 263.7,39.9 263.7,35.9 
	259.7,35.9 259.7,31.9 255.7,31.9 255.7,27.9 251.7,27.9 251.7,23.9 247.7,23.9 247.7,19.9 243.7,19.9 243.7,16 239.7,16 
	239.7,19.9 235.7,19.9 235.7,23.9 231.7,23.9 231.7,27.9 227.7,27.9 227.7,31.9 223.8,31.9 223.8,35.9 219.8,35.9 219.8,39.9 
	215.8,39.9 215.8,35.9 211.8,35.9 211.8,31.9 207.8,31.9 207.8,27.9 203.8,27.9 203.8,23.9 199.8,23.9 199.8,19.9 195.8,19.9 
	195.8,16 191.8,16 191.8,19.9 187.8,19.9 187.8,23.9 183.8,23.9 183.8,27.9 179.8,27.9 179.8,31.9 175.8,31.9 175.8,35.9 
	171.8,35.9 171.8,39.9 167.8,39.9 167.8,35.9 163.8,35.9 163.8,31.9 159.8,31.9 159.8,27.9 155.8,27.9 155.8,23.9 151.8,23.9 
	151.8,19.9 147.8,19.9 147.8,16 143.8,16 143.8,19.9 139.8,19.9 139.8,23.9 135.8,23.9 135.8,27.9 131.9,27.9 131.9,31.9 
	127.9,31.9 127.9,35.9 123.9,35.9 123.9,39.9 119.9,39.9 119.9,35.9 115.9,35.9 115.9,31.9 111.9,31.9 111.9,27.9 107.9,27.9 
	107.9,23.9 103.9,23.9 103.9,19.9 99.9,19.9 99.9,16 95.9,16 95.9,19.9 91.9,19.9 91.9,23.9 87.9,23.9 87.9,27.9 83.9,27.9 
	83.9,31.9 79.9,31.9 79.9,35.9 75.9,35.9 75.9,39.9 71.9,39.9 71.9,35.9 67.9,35.9 67.9,31.9 63.9,31.9 63.9,27.9 59.9,27.9 
	59.9,23.9 55.9,23.9 55.9,19.9 51.9,19.9 51.9,16 47.9,16 47.9,19.9 44,19.9 44,23.9 40,23.9 40,27.9 36,27.9 36,31.9 32,31.9 
	32,35.9 28,35.9 28,39.9 24,39.9 24,35.9 20,35.9 20,31.9 16,31.9 16,27.9 12,27.9 12,23.9 8,23.9 8,19.9 4,19.9 4,16 0,16 0,103.9 
	4,103.9 4,107.8 8,107.8 8,111.8 12,111.8 12,115.8 16,115.8 16,119.8 20,119.8 20,123.8 24,123.8 24,127.8 28,127.8 28,123.8 
	32,123.8 32,119.8 36,119.8 36,115.8 40,115.8 40,111.8 44,111.8 44,107.8 47.9,107.8 47.9,103.9 51.9,103.9 51.9,107.8 55.9,107.8 
	55.9,111.8 59.9,111.8 59.9,115.8 63.9,115.8 63.9,119.8 67.9,119.8 67.9,123.8 71.9,123.8 71.9,127.8 75.9,127.8 75.9,123.8 
	79.9,123.8 79.9,119.8 83.9,119.8 83.9,115.8 87.9,115.8 87.9,111.8 91.9,111.8 91.9,107.8 95.9,107.8 95.9,103.9 99.9,103.9 
	99.9,107.8 103.9,107.8 103.9,111.8 107.9,111.8 107.9,115.8 111.9,115.8 111.9,119.8 115.9,119.8 115.9,123.8 119.9,123.8 
	119.9,127.8 123.9,127.8 123.9,123.8 127.9,123.8 127.9,119.8 131.9,119.8 131.9,115.8 135.8,115.8 135.8,111.8 139.8,111.8 
	139.8,107.8 143.8,107.8 143.8,103.9 147.8,103.9 147.8,107.8 151.8,107.8 151.8,111.8 155.8,111.8 155.8,115.8 159.8,115.8 
	159.8,119.8 163.8,119.8 163.8,123.8 167.8,123.8 167.8,127.8 171.8,127.8 171.8,123.8 175.8,123.8 175.8,119.8 179.8,119.8 
	179.8,115.8 183.8,115.8 183.8,111.8 187.8,111.8 187.8,107.8 191.8,107.8 191.8,103.9 195.8,103.9 195.8,107.8 199.8,107.8 
	199.8,111.8 203.8,111.8 203.8,115.8 207.8,115.8 207.8,119.8 211.8,119.8 211.8,123.8 215.8,123.8 215.8,127.8 219.8,127.8 
	219.8,123.8 223.8,123.8 223.8,119.8 227.7,119.8 227.7,115.8 231.7,115.8 231.7,111.8 235.7,111.8 235.7,107.8 239.7,107.8 
	239.7,103.9 243.7,103.9 243.7,107.8 247.7,107.8 247.7,111.8 251.7,111.8 251.7,115.8 255.7,115.8 255.7,119.8 259.7,119.8 
	259.7,123.8 263.7,123.8 263.7,127.8 267.7,127.8 267.7,123.8 271.7,123.8 271.7,119.8 275.7,119.8 275.7,115.8 279.7,115.8 
	279.7,111.8 283.7,111.8 283.7,107.8 287.7,107.8 287.7,103.9 291.7,103.9 291.7,107.8 295.7,107.8 295.7,111.8 299.7,111.8 
	299.7,115.8 303.7,115.8 303.7,119.8 307.7,119.8 307.7,123.8 311.7,123.8 311.7,127.8 315.7,127.8 315.7,123.8 319.6,123.8 
	319.6,119.8 323.6,119.8 323.6,115.8 327.6,115.8 327.6,111.8 331.6,111.8 331.6,107.8 335.6,107.8 335.6,103.9 339.6,103.9 
	339.6,107.8 343.6,107.8 343.6,111.8 347.6,111.8 347.6,115.8 351.6,115.8 351.6,119.8 355.6,119.8 355.6,123.8 359.6,123.8 
	359.6,127.8 363.6,127.8 363.6,123.8 367.6,123.8 367.6,119.8 371.6,119.8 371.6,115.8 375.6,115.8 375.6,111.8 379.6,111.8 
	379.6,107.8 383.6,107.8 383.6,103.9 387.6,103.9 387.6,107.8 391.6,107.8 391.6,111.8 395.6,111.8 395.6,115.8 399.6,115.8 
	399.6,119.8 403.6,119.8 403.6,123.8 407.5,123.8 407.5,127.8 411.5,127.8 411.5,123.8 415.5,123.8 415.5,119.8 419.5,119.8 
	419.5,115.8 423.5,115.8 423.5,111.8 427.5,111.8 427.5,107.8 431.5,107.8 431.5,103.9 435.5,103.9 435.5,107.8 439.5,107.8 
	439.5,111.8 443.5,111.8 443.5,115.8 447.5,115.8 447.5,119.8 451.5,119.8 451.5,123.8 455.5,123.8 455.5,127.8 459.5,127.8 
	459.5,123.8 463.5,123.8 463.5,119.8 467.5,119.8 467.5,115.8 471.5,115.8 471.5,111.8 475.5,111.8 475.5,107.8 479.5,107.8 
	479.5,19.9 "/>
<path class="st5" d="M480,71.5c-0.1,0-0.2,0-0.2,0c-0.6,0.4-1.2,0.3-1.9,0.2c-0.3-0.1-0.4,0-0.5,0.2c-2.8,4.5-5.5,9.1-8.3,13.6
	c-0.9,1.4-1.7,2.8-2.6,4.2c-0.1,0.2-0.3,0.5-0.5,0.7c-0.4,0.4-0.7,0.4-1-0.1c-0.1-0.2-0.2-0.5-0.3-0.7c-1.7-4.4-3.3-8.7-5-13.1
	c-0.9-2.3-1.7-4.6-2.6-6.9c-0.1-0.3-0.3-0.5-0.6-0.5c-0.1,0-0.1,0-0.2,0c-0.8-0.3-1.3,0.1-1.7,0.7c-3.5,5.1-7,10.1-10.6,15.1
	c-0.3,0.4-0.6,0.9-0.9,1.4c-0.7,0.9-1.2,0.8-1.6-0.2c-0.4-1.2-0.8-2.4-1.2-3.5c-1.8-5.6-3.7-11.2-5.5-16.8c-0.1-0.3-0.2-0.4-0.5-0.4
	s-0.6-0.1-0.9-0.1c-0.2,0-0.3,0.1-0.4,0.2c-1.9,2.4-3.7,4.7-5.6,7.1c-2.4,3.1-4.9,6.3-7.3,9.4c-0.2,0.2-0.4,0.4-0.6,0.6
	c-0.5,0.5-0.9,0.5-1.2-0.2c-0.2-0.4-0.4-0.9-0.5-1.4c-1.6-5.7-3.1-11.4-4.7-17.1c-0.3-0.9-0.5-1.9-0.7-2.8c-0.1-0.2-0.2-0.3-0.4-0.4
	c-0.3-0.1-0.7-0.1-1-0.2s-0.5,0-0.7,0.2c-2,2.3-4,4.7-6,7c-2.1,2.5-4.3,4.9-6.4,7.4c-0.3,0.4-0.6,0.7-0.9,1.1
	c-0.2,0.2-0.4,0.4-0.7,0.6c-0.3,0.2-0.7,0.2-0.9-0.2c-0.2-0.3-0.3-0.5-0.3-0.8c-1.3-5.5-2.6-11-3.8-16.5c-0.2-1-0.4-2-0.6-3.1
	c0-0.2-0.2-0.4-0.4-0.4c-0.6-0.1-1.2-0.2-1.8-0.4c-0.3-0.1-0.5,0-0.7,0.2c-2.3,2.6-4.7,5.3-7,7.9c-1.7,1.9-3.5,3.8-5.2,5.8
	c-0.4,0.5-0.8,0.9-1.2,1.4c-0.2,0.2-0.4,0.4-0.6,0.5c-0.4,0.3-0.7,0.2-0.9-0.3c-0.1-0.3-0.2-0.7-0.3-1.1c-0.7-3.9-1.3-7.8-2-11.7
	c-0.4-2.5-0.8-5.1-1.2-7.6c0-0.3-0.1-0.4-0.4-0.5c-0.5-0.2-1.1-0.4-1.6-0.6c-0.1,0-0.2-0.1-0.3-0.1c-0.7-0.3-1.2-0.1-1.7,0.4
	c-1.2,1.3-2.5,2.6-3.8,3.8c-2.9,2.8-5.7,5.6-8.6,8.3c-0.3,0.3-0.6,0.6-0.9,1c-0.2,0.2-0.3,0.3-0.5,0.4c-0.5,0.3-0.9,0.2-1.1-0.3
	c-0.1-0.4-0.2-0.7-0.3-1.1c-0.8-6.2-1.6-12.4-2.3-18.7c0-0.2-0.1-0.4-0.4-0.5c-0.9-0.3-1.8-0.7-2.7-1.1c-0.1,0-0.3,0-0.5,0.1
	c-1.6,1.4-3.2,2.8-4.7,4.3c-2.7,2.5-5.4,5-8.1,7.5c-0.5,0.4-1,0.9-1.5,1.3c-0.8,0.7-1.3,0.5-1.4-0.6c-0.2-1.9-0.4-3.7-0.6-5.6
	c-0.5-4.8-0.9-9.5-1.4-14.3c0-0.3-0.1-0.5-0.4-0.6c-0.1,0-0.1-0.1-0.2-0.1c-0.7-0.2-1.5-0.4-2-1.1c0-0.1,0.1-0.3,0.1-0.4
	c0.3,0,0.6,0,0.9,0.1c1,0.3,1.9,0.7,2.8,1.1c4.2,1.9,8.4,3.6,12.7,5.3c3.3,1.3,6.7,2.6,10,3.8c2.7,1,5.3,2,8,2.9
	c4.7,1.5,9.4,3,14.2,4.4c6.4,1.8,12.8,3.6,19.3,5.3c5.3,1.3,10.6,2.4,15.9,3.6c5.8,1.3,11.6,2.7,17.5,3.8c5,0.9,9.9,1.9,14.9,2.8
	c4.1,0.8,8.3,1.5,12.4,2.1c4.3,0.7,8.5,1.3,12.8,1.8s8.7,1,13.1,1.5c0.5,0.1,1,0,1.2,0.5h0.1C480,71.1,480,71.3,480,71.5z
	 M415.4,67.4c0,0.2,0.1,0.2,0.1,0.3c0.5,1.7,1,3.4,1.4,5.1c0.1,0.3,0.2,0.5,0.6,0.6c2,0.5,4,1,6,1.5c0.1,0,0.4,0,0.4-0.1
	c1.1-1.4,2.2-2.8,3.3-4.2c0-0.1,0-0.1,0.1-0.2C423.4,69.4,419.4,68.7,415.4,67.4z M371.6,56.2c0,0.1,0,0.2,0,0.3
	c0.2,1.3,0.5,2.6,0.7,4c0,0.1,0.2,0.3,0.3,0.4c2.2,0.8,4.6,1.3,6.9,1.8c0.1,0,0.3-0.1,0.4-0.2c0.8-0.8,1.6-1.7,2.4-2.5
	c0.1-0.1,0.2-0.3,0.4-0.5C378.8,58.7,375.2,57.4,371.6,56.2z M472.4,77.5c-3.9-0.1-7.6-0.4-11.4-1.3c0.1,0.3,0.1,0.4,0.2,0.6
	c0.3,0.8,0.6,1.5,0.8,2.3c0.2,0.7,0.6,1,1.3,1.2c2.1,0.4,4.2,0.8,6.3,1.2c0.2,0,0.4,0,0.5-0.2c0.5-0.8,1-1.5,1.4-2.2
	C471.9,78.5,472.1,78,472.4,77.5z M328.4,40.5c0,0.2,0,0.3,0,0.4c0.1,1,0.3,2.1,0.3,3.1c0,0.6,0.2,0.9,0.8,1.1c2,0.7,4,1.5,6,2.2
	c0.3,0.1,0.4,0,0.6-0.1c0.3-0.3,0.7-0.6,1-0.8c0.5-0.5,1.1-0.9,1.6-1.4c0.3-0.3,0.2-0.4-0.1-0.5c-3.3-1-6.4-2.3-9.5-3.7
	C328.9,40.7,328.7,40.6,328.4,40.5z M441.3,81.3h0.1c0-0.1,0.1-0.2,0.1-0.4c0.3-1.8,0.6-3.7,1-5.5c0.5-2.7,0.9-5.5,1.4-8.2
	c0-0.3,0-0.4-0.3-0.4c-0.6-0.1-1.3-0.2-1.9-0.3c-0.3-0.1-0.4,0-0.5,0.4c-0.5,3.2-0.9,6.3-1.4,9.5c0,0.2,0,0.3,0.1,0.5
	c0.2,0.8,0.5,1.5,0.8,2.3C440.8,79.8,441,80.6,441.3,81.3z M444.4,82h0.1c0.1-0.1,0.1-0.2,0.2-0.3c0.6-0.8,1.1-1.6,1.7-2.4
	c0.5-0.6,0.8-1.3,0.9-2.1c0.1-0.7,0.2-1.4,0.3-2.1c0.5-2.3,0.9-4.7,1.4-7c0.1-0.3,0-0.4-0.3-0.5c-0.5-0.1-0.9-0.2-1.4-0.2
	c-0.9-0.1-0.8-0.3-0.9,0.7c-0.6,3.9-1.2,7.8-1.8,11.7C444.6,80.6,444.5,81.3,444.4,82z M458.3,69.3c0,0.8,0.3,1.3,1.1,1.4
	c0.4,0.1,0.9,0.1,1.3,0.1c2.4,0.3,4.7,0.7,7.1,1c2.5,0.3,5,0.5,7.5,0.7c0.1,0,0.3,0,0.4-0.1c0.2-0.3,0.4-0.6,0.6-1
	C470.3,70.7,464.3,70,458.3,69.3z M413.6,61c0,0.9,0.2,1.2,1,1.4c0.1,0,0.3,0.1,0.4,0.1c2,0.4,4,0.9,6,1.3c3.1,0.7,6.3,1.3,9.4,1.9
	c0.6,0.1,1-0.1,1.3-0.6c0.1-0.2,0.1-0.3-0.2-0.4c-2.5-0.5-4.9-1-7.4-1.5c-3.3-0.7-6.6-1.4-9.8-2.1C414.1,61.1,413.8,61,413.6,61z
	 M398.7,72.2c0.1-0.1,0.2-0.1,0.2-0.2c0.6-0.6,1-1.2,1.2-2c0.6-1.7,1.1-3.4,1.6-5c0.6-1.9,1.2-3.9,1.8-5.8c0.1-0.3,0.1-0.4-0.3-0.5
	s-0.8-0.2-1.2-0.3c-0.3-0.1-0.4,0-0.5,0.3c-1,4.4-1.9,8.8-2.9,13.1C398.8,71.9,398.8,72,398.7,72.2z M395.6,71.5
	c0-0.1,0.1-0.2,0.1-0.3c0.5-2.1,1-4.2,1.5-6.3c0.5-2.3,1.1-4.5,1.6-6.8c0.1-0.3,0-0.4-0.3-0.5c-0.3,0-0.5-0.1-0.7-0.2
	c-0.4-0.1-0.5,0-0.6,0.4c-0.4,2.3-0.8,4.5-1.2,6.8c-0.3,1.6-0.5,3.1-0.8,4.7C395.2,70.1,395.2,70.8,395.6,71.5z M353.9,58.8
	c0.7-0.3,1.3-0.7,1.5-1.5c0.1-0.4,0.2-0.7,0.3-1.1c1-3,2.1-6,3.1-9c0.2-0.7,0.2-0.7-0.5-0.9c-0.2,0-0.3,0-0.4,0.2
	c-0.2,0.6-0.4,1.3-0.6,1.9c-0.9,2.6-1.7,5.2-2.6,7.9C354.5,57.1,354.2,58,353.9,58.8z M327.6,34.2c0,0.4,0,0.7,0.4,0.9
	c1.1,0.5,2.2,1.1,3.3,1.6c3.7,1.7,7.5,3.1,11.3,4.5c0.3,0.1,0.6-0.1,0.7-0.5C338,38.9,332.7,36.7,327.6,34.2z M370.3,50.2
	c0.1,0.4,0,0.7,0.4,0.8c1.2,0.4,2.3,0.8,3.5,1.1c2.8,0.7,5.7,1.4,8.5,2.1c1,0.2,2,0.5,3,0.7c0.3,0.1,0.7,0.2,1.1,0
	C381.4,53.3,375.9,51.8,370.3,50.2z M351,57.8h0.1c0-0.1,0.1-0.2,0.1-0.3c0.4-1.2,0.8-2.5,1.3-3.7c0.9-2.7,1.9-5.4,2.8-8.1
	c0.2-0.5-0.2-0.4-0.5-0.5c-0.2-0.1-0.4-0.1-0.5,0.2c-0.2,1-0.5,2-0.8,3c-0.8,2.7-1.5,5.4-2.3,8C351.2,56.9,351.1,57.3,351,57.8z
	 M371.3,54.9c-0.1,0.4,0.1,0.5,0.4,0.6c3.4,1.4,7,2.3,10.5,3.1c0.3,0.1,0.7,0,1,0c0.2,0,0.4-0.2,0.5-0.3v-0.1
	C379.5,57.4,375.4,56.3,371.3,54.9z M460.5,74.9c0.1,0.4,0.2,0.5,0.5,0.5c1.7,0.3,3.4,0.7,5.2,0.9c2,0.2,3.9,0.3,5.9,0.4
	c0.2,0,0.5,0,0.7-0.1c0.1,0,0.2-0.2,0.3-0.2v-0.1C468.8,76.3,464.7,75.6,460.5,74.9z M373.2,65.3c0.2,1.3,0.4,2.5,0.6,3.7h0.1
	c0.9-1,1.8-1.9,2.7-2.9C375.4,65.9,374.3,65.6,373.2,65.3z M328.2,39.1c-0.1,0.3,0.1,0.5,0.4,0.7c1.1,0.5,2.2,1,3.3,1.5
	c2.3,1,4.6,1.9,7.1,2.5c0.1,0,0.3,0,0.4,0.1C335.6,42.3,331.9,40.7,328.2,39.1z M465.7,88.3h0.1c0.6-1,1.2-1.9,1.8-2.9
	c-1.1-0.1-2.1-0.3-3.2-0.4C464.8,86.1,465.2,87.2,465.7,88.3z M348.9,43c0.2,1.6,0.5,3.2,0.7,4.8h0.1c0.4-1.3,0.8-2.6,1.2-3.9
	c0-0.1-0.1-0.2-0.1-0.2C350.2,43.5,349.6,43.2,348.9,43z M396,73.4h0.1c0-0.1,0.1-0.1,0.1-0.2c0.3-1.2,0.6-2.5,0.9-3.7
	c0.9-3.6,1.8-7.2,2.7-10.7c0-0.2,0.1-0.4,0.1-0.5s-0.1-0.3-0.1-0.4h-0.1c0,0.1-0.1,0.3-0.1,0.4c-0.7,2.7-1.3,5.5-1.9,8.2
	c-0.5,1.9-0.9,3.8-1.4,5.7C396.1,72.6,396.1,73,396,73.4z M361.8,51.4C361.8,51.4,361.9,51.4,361.8,51.4c1.1-0.9,2.1-1.8,3.1-2.8
	c0,0,0-0.1-0.1-0.1c-0.5-0.2-1.1-0.3-1.6-0.5c-0.2-0.1-0.3,0-0.4,0.2c-0.2,0.7-0.5,1.3-0.7,2C362,50.6,361.9,51,361.8,51.4z
	 M428.1,69.6L428.1,69.6l-12.9-3.2c0.1,0.1,0.1,0.2,0.2,0.2c0.2,0.1,0.5,0.2,0.7,0.3c3.7,1.3,7.5,1.8,11.3,2.7
	C427.6,69.7,427.9,69.6,428.1,69.6z M356.2,45.6c0,0-0.1,0-0.1-0.1c0,0.1-0.1,0.2-0.1,0.3c-0.5,1.3-0.9,2.6-1.4,3.9
	c-0.8,2.4-1.6,4.8-2.4,7.2c-0.3,0.8-0.5,1.7-0.8,2.5c0,0.2,0,0.3,0,0.5l0,0C353,55.2,354.6,50.4,356.2,45.6z M329.8,53.1
	c0.8-0.7,1.4-1.3,2.1-2c-0.9-0.3-1.6-0.5-2.5-0.8C329.5,51.2,329.6,52.1,329.8,53.1z M394,57h-0.1c-0.2,0.7-0.3,1.3-0.5,2
	c0,0.1,0.1,0.2,0.2,0.2c0.3,0.1,0.5,0.1,0.8,0.1c0.4,0,0.9,0.1,1.4,0.1C395.3,58.5,394.6,57.8,394,57z M445.9,67.3
	c-0.1,0-0.1,0-0.2,0c-0.7,4.7-1.4,9.5-2.1,14.2c0.1-0.3,0.2-0.6,0.3-0.9c0.7-4.1,1.4-8.2,2-12.3C445.9,68,445.9,67.6,445.9,67.3z
	 M419.2,80.7h0.1c0.5-0.6,0.9-1.2,1.5-1.9c-0.8-0.2-1.5-0.3-2.3-0.5C418.7,79.1,419,79.9,419.2,80.7z M441.9,82.8h0.1
	c0.1-0.2,0.1-0.5,0.2-0.7c0.5-3.1,1-6.1,1.5-9.2c0.3-1.8,0.6-3.6,0.9-5.4c0-0.1,0-0.3,0-0.4c-0.1,0-0.1,0-0.2,0
	C443.6,72.3,442.8,77.5,441.9,82.8z M406.9,60L406.9,60c-0.8,0.3-1.6,0.4-2.3,0.9c0.6,0.5,1.2,0.9,1.8,1.4
	C406.6,61.5,406.7,60.7,406.9,60z M403.5,63.4c0.8-0.2,1.5-0.4,2.2-0.6c0,0,0-0.1,0.1-0.1c-0.6-0.5-1.1-0.9-1.8-1.4
	C403.8,62.1,403.7,62.7,403.5,63.4z M393.1,60.7c-0.2,0.8,0.2,1.5,0.3,2.2c0.6-0.2,1.1-0.3,1.7-0.5C394.5,61.7,394,61.1,393.1,60.7z
	 M359.2,49.4c-0.2,0.8-0.5,1.5-0.7,2.3c0.8-0.3,1.5-0.5,2.2-0.7C360.2,50.4,359.7,50,359.2,49.4z M361.8,48.1l-0.1-0.1
	c-0.7,0.3-1.4,0.5-2.1,0.8c0.5,0.5,1,0.9,1.5,1.4C361.3,49.5,361.6,48.8,361.8,48.1z M403.6,64.2c0.3,0.3,0.6,0.6,0.9,0.8
	c0.1,0.1,0.2,0.2,0.4,0c0.3-0.3,0.6-0.6,0.8-0.9c0.1-0.2,0.2-0.4,0.4-0.6C405.2,63.7,404.4,63.8,403.6,64.2z M352.8,46.8
	c-0.4-0.7-0.7-1.3-1.1-1.9h-0.1c-0.2,0.7-0.3,1.4-0.5,2.2C351.7,47,352.2,46.9,352.8,46.8z M398.2,70.4h0.1c0.2-0.7,0.3-1.5,0.5-2.2
	c0.7-3.2,1.5-6.4,2.2-9.6c0-0.1,0-0.2,0-0.4h-0.1C400.1,62.3,399.1,66.3,398.2,70.4z M454.1,68.6c-0.4-0.1-0.8-0.1-1.1-0.2
	c-0.1,0-0.2,0.1-0.2,0.2c-0.1,0.7-0.3,1.5-0.4,2.2c0,0,0.1,0,0.1,0.1C453,70.2,453.5,69.4,454.1,68.6z M436.8,68.1h0.1
	c0.1-0.7,0.2-1.4,0.3-2.1c0-0.1-0.1-0.2-0.1-0.2c-0.4-0.1-0.7-0.1-1.2-0.2C436.2,66.4,436.5,67.3,436.8,68.1z M407.6,61.9
	C407.6,62,407.7,62,407.6,61.9c0.7-0.6,1.2-1.2,1.9-1.9c-0.2,0-0.3-0.1-0.4-0.1c-1-0.2-1-0.2-1.2,0.7
	C407.8,61.1,407.7,61.5,407.6,61.9z M438.3,67.6c0.5,0.4,0.9,0.8,1.4,1.2c0.1-0.7,0.2-1.3,0.3-2C439.5,67,438.9,67.3,438.3,67.6z
	 M392.3,58.5c0.1,0,0.1,0,0.2,0c0.1-0.6,0.3-1.2,0.4-1.8c0-0.1,0-0.3,0-0.3c-0.4-0.1-0.8-0.2-1.2-0.3
	C391.9,56.9,392.1,57.7,392.3,58.5z M393.7,60C393.7,60.1,393.7,60.1,393.7,60c0.5,0.6,1.1,1.1,1.7,1.6c0.1-0.5,0.2-1,0.3-1.5
	C395,60.1,394.4,60.1,393.7,60z M437.9,70.4c0.5,0.4,0.9,0.8,1.3,1.2c0.1-0.6,0.3-1.1,0.4-1.6C439,70,438.4,70,437.9,70.4z
	 M332.6,50.4c0-0.1,0-0.1,0-0.2c-1.1-0.4-2.1-0.8-3.2-1.2l-0.1,0.1c0.1,0.1,0.1,0.3,0.2,0.4c0.8,0.3,1.6,0.6,2.4,0.9
	C332.1,50.4,332.3,50.4,332.6,50.4z M357.2,46.6h-0.1c-0.5,0.9-2.1,6.6-2,6.9C355.8,51.2,356.5,48.9,357.2,46.6z M450,68.5
	c-0.1,0.7-0.2,1.2-0.3,1.8l0.1,0.1c0.5-0.2,0.9-0.4,1.4-0.7C450.8,69.3,450.4,69,450,68.5z M450.9,72.8c-0.5-0.4-0.9-0.7-1.4-1.1
	c-0.1,0.6-0.2,1.1-0.3,1.8C449.8,73.2,450.3,73,450.9,72.8z M396,58.4h0.1c0.1-0.4,0.2-0.7,0.2-1.1c0-0.1-0.1-0.2-0.1-0.2
	c-0.5-0.1-1-0.2-1.5-0.4C395.1,57.4,395.6,57.9,396,58.4z M352.7,47.6l-0.1-0.1c-0.5,0.1-1,0.2-1.5,0.3c0.4,0.5,0.7,0.8,1.2,1.3
	C352.4,48.6,352.5,48.1,352.7,47.6z M359.8,53.5c0.2-0.6,0.4-1.1,0.6-1.5l-0.1-0.1c-0.5,0.2-1,0.4-1.6,0.6
	C359.1,52.8,359.4,53.1,359.8,53.5z M467.7,73.1c0.3,0.6,0.5,1,0.7,1.5c0.4-0.5,0.7-0.8,1.1-1.3C468.9,73.2,468.3,73.2,467.7,73.1z
	 M422.9,65.5c-0.6-0.1-1.2-0.3-1.8-0.4c0.2,0.5,0.4,1,0.7,1.5C422.1,66.2,422.5,65.9,422.9,65.5z M463.9,83.8c0.3,0.6,3.4,1.1,4,0.6
	C466.6,84.3,465.3,84.1,463.9,83.8z M351.3,52.1c0.2-0.5,0.3-0.9,0.4-1.3c0-0.1-0.1-0.3-0.1-0.3c-0.4-0.1-0.9-0.1-1.3-0.1
	c0,0,0,0.1-0.1,0.1C350.5,51,350.9,51.5,351.3,52.1z M469,75c0.6,0.1,1.1,0.1,1.8,0.2c-0.3-0.6-0.5-1-0.7-1.5
	C469.7,74.1,469.4,74.5,469,75z M418.2,77.1c0,0.1,0,0.1-0.1,0.2c0.1,0.1,0.2,0.2,0.4,0.2c0.8,0.2,1.6,0.4,2.4,0.7
	c0.3,0.1,0.5,0,0.6-0.3C420.4,77.6,419.3,77.4,418.2,77.1z M461.4,72.2c0,0,0-0.1-0.1-0.1c-0.5-0.1-1-0.2-1.5-0.3v0.1
	c0.2,0.4,0.4,0.8,0.7,1.3C460.8,72.8,461.1,72.5,461.4,72.2z M406.4,59.4c-0.6-0.1-1.1-0.3-1.6-0.4c-0.1,0-0.2,0-0.2,0.1
	c-0.1,0.3-0.2,0.7-0.3,1.1C405.1,59.9,405.7,59.7,406.4,59.4z M467,73.3c-0.4,0.4-0.6,0.8-1,1.2c0.6,0.1,1.1,0.2,1.7,0.3
	C467.5,74.3,467.3,73.9,467,73.3z M470.6,73.5c0.3,0.5,0.5,1,0.8,1.5c0.3-0.5,0.7-0.8,0.8-1.3C471.7,73.6,471.2,73.5,470.6,73.5z
	 M377.2,65.3c-1.4-0.3-2.8-0.6-4.2-1C373.3,64.8,376.8,65.6,377.2,65.3z M371.8,52.5l-0.1,0.1c0.2,0.4,0.2,1,0.6,1.5
	c0.3-0.4,0.6-0.7,0.9-1.1C372.7,52.8,372.3,52.6,371.8,52.5z M473.5,75.4C473.5,75.4,473.6,75.3,473.5,75.4
	c-0.1-0.5-0.4-0.9-0.6-1.3c-0.3,0.4-0.6,0.8-1,1.2C472.5,75.3,473,75.4,473.5,75.4z M437.8,69.6c0.5-0.1,1-0.2,1.5-0.3
	c-0.5-0.4-0.9-0.7-1.4-1.1C437.9,68.7,437.8,69.1,437.8,69.6z M353.1,45.9h0.1c0.1-0.3,0.2-0.6,0.3-0.9c0-0.1,0-0.2,0-0.3
	c-0.4-0.2-0.8-0.3-1.1-0.4c0,0,0,0.1-0.1,0.1C352.5,44.9,352.8,45.4,353.1,45.9z M381.9,55.3c0.2,0.5,0.4,0.9,0.6,1.3
	c0.4-0.3,0.7-0.6,1.1-0.9C383,55.5,382.5,55.4,381.9,55.3z M426.7,67.5c0.4-0.3,0.7-0.6,1.1-0.9c-0.6-0.1-1.1-0.2-1.7-0.4
	C426.4,66.7,426.5,67.1,426.7,67.5z M416.4,63.9c0.2,0.5,0.4,0.9,0.6,1.4c0.3-0.4,0.6-0.7,1-1C417.4,64.1,416.9,64,416.4,63.9z
	 M361.4,47.5L361.4,47.5c-0.4-0.2-0.9-0.4-1.4-0.5c-0.1,0.4-0.2,0.8-0.4,1.2C360.3,47.9,360.8,47.7,361.4,47.5z M379.3,54.7
	c0.2,0.5,0.3,0.9,0.5,1.3c0.4-0.3,0.7-0.6,1.1-0.9C380.4,54.9,379.9,54.8,379.3,54.7z M465,72.7c0.2,0.5,0.3,0.9,0.5,1.4
	c0.4-0.4,0.6-0.7,1-1.1C466,72.8,465.5,72.8,465,72.7z M393.6,63.6c0.5,0.3,0.8,0.6,1.3,0.9c0.1-0.5,0.1-0.9,0.2-1.4
	C394.6,63.3,394.1,63.4,393.6,63.6z M449.9,71.1c0.4,0.3,0.7,0.5,1.1,0.9c0.1-0.5,0.2-1,0.2-1.4c0,0-0.1,0-0.1-0.1
	C450.8,70.7,450.4,70.9,449.9,71.1z M374.3,53.4c0.2,0.5,0.3,0.9,0.5,1.3c0.4-0.3,0.6-0.6,1-1C375.3,53.6,374.8,53.5,374.3,53.4z
	 M463.3,74.1c0.6,0.1,1,0.2,1.6,0.3c-0.2-0.5-0.3-0.9-0.5-1.3C464.1,73.4,463.7,73.7,463.3,74.1z M463.9,72.6c0,0,0-0.1-0.1-0.1
	c-0.5,0-0.9-0.3-1.5-0.2c0.2,0.4,0.3,0.8,0.5,1.2C463.3,73.2,463.6,72.9,463.9,72.6z M423.7,65.7c0.2,0.5,0.4,0.9,0.6,1.3
	c0.3-0.4,0.6-0.7,0.9-1C424.7,66,424.3,65.9,423.7,65.7z M462.4,73.9c-0.2-0.5-0.4-0.9-0.5-1.3c-0.3,0.4-0.6,0.7-1,1.1
	C461.4,73.8,461.9,73.9,462.4,73.9z M416.2,65.5l0.1-0.1c-0.2-0.4-0.3-0.8-0.5-1.3c-0.3,0.4-0.6,0.7-0.9,1
	C415.4,65.2,415.8,65.4,416.2,65.5z M420.2,64.9c-0.5-0.1-0.9-0.2-1.4-0.3c0.2,0.5,0.3,0.9,0.5,1.4
	C419.7,65.5,419.9,65.2,420.2,64.9z M350.7,48.5c-0.1,0.5-0.3,0.8-0.4,1.2c0.5,0,0.9,0.1,1.3,0.1c0,0,0-0.1,0.1-0.1
	C351.4,49.4,351.1,49,350.7,48.5z M359.2,53.8c-0.4-0.3-0.7-0.6-1.1-1c-0.1,0.5-0.2,0.8-0.3,1.2C358.2,54,358.7,53.9,359.2,53.8z
	 M377.2,55.3c0.4-0.3,0.6-0.6,1-0.9c-0.5-0.1-0.9-0.3-1.4-0.4C376.9,54.5,377,54.8,377.2,55.3z M331,46.9c-0.5-0.2-0.8-0.4-1.2-0.6
	c0,0,0,0.1-0.1,0.1c0.1,0.4,0.2,0.8,0.3,1.2C330.4,47.4,330.6,47.2,331,46.9z M428.3,67.1c-0.4,0.3-0.7,0.6-1,0.8V68
	c0.4,0.1,0.9,0.1,1.4,0.2C428.6,67.8,428.5,67.5,428.3,67.1z M438.1,66.8c0,0,0.1,0,0.1,0.1c0.5-0.2,0.9-0.4,1.4-0.7v-0.1
	c-0.4-0.1-0.8-0.1-1.3-0.2C438.2,66.3,438.1,66.6,438.1,66.8z M474.1,74.9c0.3-0.4,0.5-0.7,0.7-1.1c-0.5,0-0.9,0-1.4-0.1
	C473.7,74.2,473.9,74.5,474.1,74.9z M404,65.7C404,65.7,404,65.6,404,65.7c-0.2-0.4-0.5-0.6-0.9-1c-0.1,0.4-0.2,0.8-0.3,1.1
	C403.2,65.8,403.6,65.7,404,65.7z M339.4,41.5c-0.4-0.2-0.8-0.3-1.2-0.5l-0.1,0.1c0.1,0.3,0.2,0.8,0.4,0.8
	C338.7,42,339.1,41.7,339.4,41.5C339.4,41.6,339.4,41.6,339.4,41.5z M328.3,36.5c0,0-0.1,0-0.1,0.1c0.1,0.3,0.2,0.7,0.4,1
	c0.3-0.1,0.5-0.2,0.8-0.4c0,0,0-0.1,0.1-0.1C329.1,36.9,328.7,36.7,328.3,36.5z M336.9,40.5c-0.5-0.2-0.9-0.3-1.2-0.5l-0.1,0.1
	c0.1,0.3,0.1,0.6,0.3,0.8c0.1,0.1,0.5-0.2,0.8-0.3C336.7,40.7,336.8,40.6,336.9,40.5z M430.2,67c-0.5-0.1-0.8-0.1-1.3-0.2
	c0.2,0.4,0.3,0.8,0.5,1.2C429.7,67.6,429.9,67.3,430.2,67z M332,48.5c0.4-0.3,0.6-0.5,1-0.8c-0.4-0.2-0.7-0.3-1.2-0.5
	C331.8,47.7,331.9,48.1,332,48.5z M417.4,65.7c0.5,0.1,0.8,0.2,1.3,0.3c-0.2-0.4-0.3-0.8-0.4-1.2C417.9,65.2,417.7,65.4,417.4,65.7z
	 M394.4,66.6h0.1c0-0.3,0.1-0.6,0.1-0.9c0.1-0.5-0.1-0.7-0.7-0.8C394.1,65.5,394.2,66,394.4,66.6z M332.5,49
	c0.5,0.1,0.8,0.2,1.2,0.3c-0.1-0.4-0.1-0.7-0.2-1.1C333.1,48.5,332.8,48.7,332.5,49z M330.2,38.8C330.3,38.8,330.3,38.7,330.2,38.8
	c0-0.3-0.1-0.6-0.2-0.8c0-0.1-0.2-0.2-0.2-0.1c-0.3,0.1-0.5,0.2-0.8,0.4v0.1C329.5,38.5,329.9,38.6,330.2,38.8z M422.4,66.9
	c0.4,0.1,0.8,0.2,1.3,0.3c-0.2-0.4-0.4-0.7-0.5-1.1C422.9,66.4,422.7,66.6,422.4,66.9z M378.9,55.8l0.1-0.1
	c-0.1-0.3-0.2-0.6-0.4-0.9c-0.3,0.3-0.6,0.5-0.9,0.8C378.3,55.7,378.6,55.8,378.9,55.8z M332.8,39.8c-0.1-0.4-0.1-0.7-0.2-1.1
	c-0.4,0.2-0.7,0.4-1,0.5v0.1C332,39.5,332.4,39.7,332.8,39.8z M373.6,63.3c0.3-0.3,0.5-0.5,0.8-0.8c-0.4-0.1-0.8-0.3-1.3-0.4
	C373.3,62.5,373.5,62.9,373.6,63.3z M414.2,63.3c0.1,0.4,0.2,0.8,0.3,1.2c0.3-0.3,0.5-0.6,0.8-0.9C414.9,63.5,414.6,63.4,414.2,63.3
	z M450.7,68.1C450.6,68.1,450.6,68.2,450.7,68.1c0.3,0.4,0.6,0.7,1,1.1c0.1-0.3,0.1-0.5,0.2-0.7c0-0.1-0.1-0.2-0.1-0.2
	C451.3,68.2,451,68.1,450.7,68.1z M333.5,39.1C333.4,39.1,333.4,39.1,333.5,39.1c0,0.4,0,0.7,0.1,1.1c0.3-0.2,0.6-0.4,0.9-0.7
	C334.1,39.4,333.8,39.2,333.5,39.1z M465.4,81.8c-0.4-0.1-0.8-0.2-1.2-0.3c0,0,0,0.1-0.1,0.1c0.2,0.3,0.3,0.6,0.5,1
	C465,82.3,465.2,82.1,465.4,81.8z M418.1,75.6c0.3-0.2,0.6-0.4,1-0.6c-0.5-0.2-0.8-0.3-1.3-0.4C417.9,75,418,75.3,418.1,75.6z
	 M384.2,56c-0.3,0.3-0.5,0.5-0.8,0.7c0.4,0.1,0.8,0.2,1.3,0.3C384.4,56.6,384.3,56.3,384.2,56z M421,66.6c-0.2-0.4-0.3-0.7-0.4-1.1
	c-0.2,0.3-0.5,0.5-0.7,0.8C420.2,66.4,420.6,66.5,421,66.6z M374.1,54.6c-0.2-0.4-0.3-0.8-0.4-1.2c-0.2,0.3-0.4,0.5-0.7,0.8
	C373.4,54.4,373.7,54.5,374.1,54.6z M330.8,37.9c0,0,0,0.1-0.1,0.1c0.1,0.3,0.2,0.6,0.3,0.9c0.3-0.2,0.5-0.4,0.8-0.6
	C331.5,38.1,331.2,38,330.8,37.9z M426.1,67.7c-0.2-0.4-0.3-0.7-0.5-1c-0.3,0.3-0.5,0.5-0.7,0.7C425.4,67.5,425.7,67.6,426.1,67.7z
	 M466.4,82c0.2,0.3,0.3,0.6,0.5,0.9c0.2-0.2,0.4-0.4,0.6-0.6C467.1,82.2,466.8,82.1,466.4,82z M421.7,75.9c-0.3,0.2-0.5,0.4-0.7,0.6
	v0.1c0.3,0,0.7,0.1,1.1,0.1C422,76.4,421.9,76.1,421.7,75.9z M377.5,64.1c-0.2-0.3-0.3-0.6-0.4-0.8c-0.3,0.2-0.5,0.4-0.8,0.5v0.1
	C376.7,64,377.1,64.1,377.5,64.1z M418.7,76c0,0.1,0,0.1,0,0.2c0.3,0.1,0.7,0.1,1,0.2c0-0.1,0.1-0.1,0.1-0.2
	c-0.2-0.2-0.3-0.4-0.5-0.4C419.2,75.7,418.9,75.9,418.7,76z M370.7,52.2c0.1,0.4,0.1,0.9,0.2,1.3c0,0.1,0.2,0.2,0.3,0.3l0.1-0.1
	C371.2,53.2,371.2,52.6,370.7,52.2z M376.2,54.3c-0.3,0.2-0.5,0.4-0.7,0.6c0.4,0.1,0.7,0.2,1,0.2C376.4,54.9,376.3,54.7,376.2,54.3z
	 M331.2,47.6c-0.3,0.3-0.5,0.4-0.7,0.7c0.3,0.1,0.6,0.2,0.9,0.3C331.3,48.2,331.2,47.9,331.2,47.6z M463.5,81.7
	c-0.3,0.3-0.3,0.6-0.1,0.8c0.1,0.2,0.4,0.2,0.6,0.3c0,0,0-0.1,0.1-0.1C463.9,82.4,463.7,82.1,463.5,81.7z M421.1,75.6
	c-0.4-0.1-0.6-0.1-1-0.2c0.1,0.3,0.2,0.5,0.3,0.8C420.6,75.9,420.8,75.8,421.1,75.6z M381.5,56.4C381.6,56.4,381.6,56.3,381.5,56.4
	c0-0.3-0.1-0.5-0.2-0.7c-0.2,0.1-0.4,0.3-0.7,0.5C381,56.3,381.3,56.3,381.5,56.4z M468.1,82.6c-0.2,0.2-0.4,0.4-0.6,0.7
	c0.4,0,0.7,0.1,1,0.1C468.3,83,468.2,82.9,468.1,82.6z M341,43c0.3-0.2,0.4-0.4,0.7-0.6c-0.3-0.1-0.6-0.2-0.9-0.3
	C340.9,42.4,341,42.6,341,43z M340.3,42.7c-0.1-0.3-0.1-0.5-0.2-0.8c-0.2,0.2-0.4,0.3-0.7,0.5C339.8,42.6,340,42.6,340.3,42.7z
	 M377.9,63.5c0.1,0.3,0.2,0.5,0.3,0.8c0.2-0.2,0.4-0.4,0.6-0.6C378.5,63.6,378.3,63.5,377.9,63.5z M438.9,72.3
	c-0.3-0.3-0.5-0.5-0.8-0.8c0,0.1-0.1,0.1-0.1,0.1c0.1,0.2,0.1,0.3,0.2,0.5C438.3,72.5,438.4,72.6,438.9,72.3z M350.3,52
	C350.3,52,350.2,52,350.3,52c0,0.2,0,0.4,0,0.6c0.1,0.4,0.1,0.4,0.5,0.2C350.6,52.6,350.4,52.3,350.3,52z M384.9,55.9
	c0.1,0.3,0.2,0.5,0.3,0.8c0.2-0.2,0.3-0.4,0.5-0.6C385.4,56.1,385.2,56,384.9,55.9z M449.4,74.1c0.4,0.5,0.6,0.4,0.9-0.4
	C450,73.9,449.7,74,449.4,74.1z M465.3,83c0.3,0,0.6,0.1,0.9,0.1c-0.1-0.3-0.2-0.5-0.4-0.7C465.6,82.6,465.5,82.8,465.3,83z
	 M337.5,41.7c0-0.1,0.1-0.1,0.1-0.2c-0.1-0.1-0.2-0.3-0.4-0.4c-0.1,0-0.3,0.1-0.4,0.2v0.1C337.1,41.5,337.3,41.6,337.5,41.7z
	 M448.8,75.8c0.5-0.5,0.7-0.7,0.1-0.9C448.9,75.1,448.9,75.4,448.8,75.8z M403.6,66.6c0,0,0-0.1-0.1-0.1c-0.2,0.1-0.5,0.1-0.8,0.2
	c0.1,0.2,0.2,0.3,0.3,0.5C403.3,66.9,403.4,66.7,403.6,66.6z M374.8,63c-0.2,0.2-0.3,0.3-0.5,0.5c0.3,0.1,0.5,0.1,0.7,0.2
	C375,63.4,374.9,63.3,374.8,63z M334.1,48.3c0.1,0.2,0.1,0.4,0.2,0.6c0.2-0.2,0.3-0.3,0.5-0.5C334.6,48.4,334.4,48.3,334.1,48.3z
	 M376.3,63.1c-0.3-0.1-0.5-0.1-0.8-0.2c0.1,0.2,0.2,0.4,0.3,0.6C376,63.3,376.1,63.2,376.3,63.1z M335,40.7c0-0.2-0.1-0.4-0.1-0.6
	c-0.2,0.1-0.3,0.2-0.5,0.4C334.6,40.6,334.8,40.6,335,40.7z M438.8,73.8c0.1-0.2,0.1-0.4,0.2-0.7C438.5,73.2,438.5,73.4,438.8,73.8z
	 M350.5,54.3h0.1c0-0.1,0.1-0.3,0.1-0.4s-0.1-0.1-0.1-0.2c-0.1,0.1-0.1,0.2-0.1,0.2C350.5,54,350.5,54.2,350.5,54.3z M357.8,55.3
	c0.2-0.2,0.3-0.3,0.5-0.5C357.6,54.9,357.6,54.9,357.8,55.3z"/>
<path class="st5" d="M54.2,56.6c0.2,1,0.5,1.9,0.8,2.7c0.2,0.7,0.1,1.2-0.4,1.8c-2.2,2.1-4.4,4.3-6.6,6.4c-0.4,0.4-0.8,0.6-1.2,1
	c-0.2,0.2-0.2,0.3-0.1,0.6c1.4,2.9,2,6,2.1,9.1c0,0.3,0.1,0.5,0.3,0.6c1.2,0.8,1.7,2,1.6,3.5c-0.1,0.8-0.5,1.5-1.2,1.8
	c-0.3,0.2-0.6,0.3-1,0.3c-0.6,0.1-0.9,0.5-1,1.1c-0.2,0.9-0.1,1.8,0.2,2.6c0.3,1.1,0.6,2.2,1.1,3.2c0.7,2.1,0.6,4.1-0.5,6.1
	c-0.9,1.5-1.8,3.1-2.9,4.5c-1,1.3-2.4,1.9-4.1,1.5c-0.1,0-0.3,0.1-0.4,0.2c-1.2,1.5-2.7,1.9-4.5,1.3c-1.9-0.6-3.6-1.3-5.4-2.1
	c-2.2-1.1-3.3-3-4-5.3c-0.2-0.5-0.3-1.1-0.5-1.5c-0.3-1.4-1.4-2.3-2.3-3.2c-0.1-0.1-0.3-0.1-0.5-0.1c-0.5,0-1,0.1-1.5,0.1
	c-1.9,0-3-1.2-2.7-3.1c0.1-0.4,0.2-0.8,0.3-1.2c0-0.2,0-0.4-0.1-0.5c-1.9-2.6-3.2-5.5-4-8.6c-0.1-0.4-0.2-0.6-0.6-0.5
	C12,79.1,9,79,6,78.2c-0.8-0.2-1.5-0.5-2.3-0.7c-0.6-0.2-0.8-0.6-1-1.1c-0.6-1.9-1.1-4-1.6-5.9c-0.2-0.7,0-1.3,0.5-1.8
	c0.7-0.8,1.5-1.5,2.3-2.3c3.2-2.9,6.7-5.4,10.7-7.3c0.7-0.3,1-0.7,1-1.5c0.1-2.5,0.2-5,0.2-7.6c0.1-2.3,1.5-4,3.3-5.3
	c1.7-1.1,3.5-0.8,5.2-0.1c1.4,0.5,2.5,1.4,3.6,2.3c1.9,1.7,3.8,3.4,5.7,5.1c0.2,0.2,0.5,0.3,0.8,0.2c4.8-1.1,9.5-1.4,14.3-0.6
	c1.2,0.2,2.4,0.6,3.6,0.9c0.5,0.2,0.8,0.5,1,1C53.6,54.6,53.9,55.5,54.2,56.6C54.1,56.7,54.2,56.6,54.2,56.6z M38.8,91.1
	c0.2-0.2,0.2-0.3,0.4-0.4c0.5-0.2,1.1-0.2,1.7-0.6c0.3-0.2,0.9-0.1,1.3,0c0.5,0,1-0.5,0.8-1s-0.4-0.9-0.7-1.3
	c-0.2-0.5-0.6-0.9-0.9-1.4c-0.6-1.3,0.4-2.8,1.8-2.7c0.2,0,0.5,0.2,0.5,0.4c0,0.3-0.3,0.3-0.6,0.2c-0.5-0.1-0.8,0.2-1,0.5
	c-0.2,0.4-0.2,0.8,0.1,1.2c1.1-1.4,2.6-1.9,4.2-2.3C46,81.9,46,80.3,47,78.8c-0.4-0.2-0.7-0.3-1.1-0.5c-0.1,1.1-0.6,1.6-1.5,1.8
	c0.1,1.4-0.9,2.3-2.1,1.9c-0.2,1.1-1.2,1.6-2.3,1c-0.8,0.9-1.4,0.8-2.3-0.1c-0.9,0.8-1.9,0.1-2.1-1c-1.2-0.1-1.7-0.7-1.4-2
	c-0.9-0.6-1.1-1.5-0.5-2.3c0.2-0.2,0.2-0.5,0.1-0.7c-0.2-0.9,0.2-1.5,1.1-1.7c0.1,0,0.2-0.1,0.3-0.2c-2.3,0.6-4.4,1.3-6.6,1.9
	c0.3,0.2,0.6,0.4,0.8,0.6c0.2,0.2,0.2,0.6,0.4,0.8c0.8-0.2,1.4,0.2,1.5,1.1c0.1,0.6,0.2,1.2,0.6,1.8c0.5,0.6,0.2,1.3-0.5,2
	c0.8,1.1,0.1,2.2-1.3,2.3c-0.3,1.1-0.7,1.4-1.9,1.4c-0.5,0.9-1.3,1.1-2,0.6c-0.7,0.6-1.3,0.6-1.8,0.2c-0.2-0.2-0.3-0.2-0.6-0.1
	c-0.5,0.2-1,0.1-1.1-0.4c-0.2-0.6-0.7-0.6-1.1-0.7c0,0.6-0.2,0.9-0.3,1.2c1.9,0.7,2.8,2.1,3.5,4c0.6-0.9,1.9-0.9,2.2-2.1l0,0
	c0.5-0.7,1.5-1.1,2.4-0.8c0.8,0.3,1.4,1.1,1.3,2c0,0.3-0.1,0.6-0.2,0.9c-0.1,0.6,0,1.3,0.3,1.9c0.2,0.4,0.6,0.4,1,0.2
	c0.2-0.2,0.5-0.2,0.7-0.3c0.1-0.1,0.2-0.1,0.3-0.2c0.6-0.3,1.1-0.6,1.8-1c0.1-0.1,0.3,0,0.4,0c0.1,0,0.2,0,0.2-0.1
	c0.5-0.6,1.1-0.6,1.7-0.3C37.5,90.8,37.9,90.6,38.8,91.1z M37,56.6c-1.4-1.4-2.7-2.7-4-4c-0.2-0.2-0.4-0.2-0.6,0
	c-1.2,1.1-2.7,2-4.1,2.7c-3.6,1.9-7.4,2.8-11.5,3.2c-0.3,0-0.5,0.2-0.5,0.5c-0.1,1.1-0.2,2.1-0.2,3.2c0,0.7-0.1,1.5-0.1,2.2
	C19.1,64.8,34.4,59.2,37,56.6z M15.7,68.1c0.3,0,0.6,0,0.8-0.1c3.8-0.4,7.4-1.2,11.2-2.2c1.5-0.4,2.9-1.1,4.4-1.5
	c0.2-0.1,0.6-0.5,0.8-0.1s-0.2,0.6-0.6,0.6c-1.1,0.5-2.2,1-3.2,1.3c-4,1.4-8.2,2-12.4,2.6c-0.3,0-0.6,0.1-0.9,0.2
	c0,0.2,0,0.4-0.1,0.6c0,0.1,0,0.2,0.1,0.3c9.2-0.7,17.8-3.3,25.5-8.6c-1.4-1.4-2.6-2.7-3.9-4c-1.5,1.2-2.9,2.2-4.6,2.9
	c-2.5,1.1-5.1,2.1-7.6,3c-2.8,0.8-5.7,1.6-8.8,1.9c-0.5,0-0.5,0.2-0.3,0.7c0.2,0,0.2,0,0.4,0c2.1-0.4,4.1-0.7,6.1-1.3
	c2.3-0.7,4.7-1.6,7-2.4c0.2-0.1,0.6-0.2,0.8-0.2c0,0.1,0.1,0.2,0.1,0.2c-0.2,0.2-0.5,0.4-0.7,0.5c-0.6,0.2-1.1,0.5-1.8,0.7
	c-2.7,1.1-5.7,2.1-8.7,2.7c-1.1,0.2-2.3,0.4-3.4,0.6C15.8,67.1,15.8,67.6,15.7,68.1z M35,98.3c-0.3,0.4-0.6,0.5-1.1,0.3
	c-0.1,0-0.2-0.1-0.2,0c-0.6,0.2-0.9-0.1-1.2-0.3c-0.2-0.1-0.3-0.2-0.5-0.3c-1-0.1-1.7-0.6-2.2-1.3c-0.6-0.9-1.1-1.9-1.6-2.8
	c-0.5-0.7-1.1-1.4-1.6-2.1c-0.1-0.1-0.4-0.2-0.5-0.2c-0.4,0.2-0.8,0.6-1.3,0.9c0.2,0.2,0.2,0.2,0.3,0.3c1.1,1,1.9,2.2,2.2,3.6
	c0.1,0.3,0.2,0.6,0.2,0.9c0.7,2.5,2.2,4.4,4.7,5.3c1,0.4,2,0.8,3,1.2c1,0.5,1.8,0.5,2.5-0.5c0.2-0.4,0.3-0.6,0.1-1
	c-0.6,0.4-1.1,0.5-1.7,0.2c-0.7-0.4-1.1-1.1-1.1-1.9c0-0.7,0.6-1.3,1.3-1.2c0.7,0,1.2,0.7,0.9,1.3c-0.1,0.2-0.4,0.5-0.6,0.4
	c-0.3,0-0.3-0.3-0.2-0.6c0-0.1,0-0.2-0.1-0.2s-0.2,0-0.2,0.1c-0.1,0.2-0.2,0.3-0.2,0.5c0,0.5,0.4,1.1,0.8,1.2
	c0.6,0.2,0.8-0.2,1.1-0.6c0.1-0.2,0.2-0.2,0.2-0.4c0.2-0.6,0.4-1.3,0.6-1.9c0.1-0.4,0.2-0.7,0-1.1c-0.1-0.1,0.1-0.4,0.2-0.6
	c0.1-0.1,0.4-0.2,0.6-0.1c0.2,0.1,0.3,0.3,0.2,0.5c-0.1,0.3,0.1,0.5,0.3,0.6c0.7,0.6,1.4,1.1,2,1.6c0.1,0.1,0.2,0.1,0.3,0.1
	c0.6-0.2,1.3-1.1,1.3-1.5c0-0.2-0.2-0.6-0.4-0.8c-0.2-0.1-0.6,0-0.8,0.1s-0.3,0.2-0.1,0.5c0.1,0.2,0.1,0.4,0.1,0.6
	c-0.2,0-0.5,0.1-0.6,0c-0.5-0.2-0.6-1-0.2-1.5c0.4-0.6,1.2-0.8,1.9-0.6c0.6,0.2,1.1,0.9,1.1,1.6c-0.1,0.8-0.5,1.3-1.1,1.8
	c-0.2,0.2-0.4,0.3-0.7,0.5c0.2,0.2,0.4,0.4,0.6,0.5c0.6,0.1,1.1,0.1,1.7,0c0.1,0,0.1-0.1,0.2-0.2c0.7-1.1,1.5-2.3,2.1-3.4
	c0.6-1,1-2,1.1-3.1c-0.3-0.1-0.6-0.2-0.7-0.3c-0.1-0.1-0.1-0.5-0.1-0.5c0.2-0.2,0.6-0.2,1-0.3c-0.2-0.6-0.4-1.5-0.6-2.2
	c-0.4-1.3-0.9-2.6-1.1-3.9c-0.2-0.8,0-1.7,0-2.6c-1.4-0.1-1.8,0.3-1.7,1.7c0,0.1,0,0.2,0.1,0.3c0.2,1.2,0.5,2.3,0.7,3.6
	c0.2,0.9,0.2,1.9-0.5,2.6c-0.3,0.4-0.6,0.8-0.8,1.3c-0.2,0.3-0.6,0.5-0.9,0.7c-0.5,0.4-0.9,0.9-1.5,1.1s-1.1,0.4-1.7,0.4
	c-0.1,0-0.2,0-0.3,0c-0.4,0.5-0.9,0.6-1.5,0.2c-0.4,0.8-0.7,1-1.5,0.8c-0.2,0.3-0.5,0.5-0.9,0.4c-0.1,0-0.2,0-0.2,0.1
	C35.8,98.6,35.4,98.5,35,98.3z M35.3,53.8c0.3,0.3,0.5,0.6,0.7,0.8c1.8,1.9,3.6,3.9,5.4,5.7c0.2,0.2,0.4,0.3,0.7,0.1
	c0.4-0.3,1-0.6,1.4-1c1.9-1.8,3.8-3.6,5.7-5.4c0.1-0.1,0.2-0.2,0.2-0.2c0.3-0.5,0.2-0.7-0.2-0.8c-0.7-0.2-1.5-0.2-2.2-0.2
	c-3.7-0.1-7.5,0.2-11.2,0.9C35.7,53.8,35.5,53.8,35.3,53.8z M3.5,69.1c2.1,0.6,9.5,0.9,11.6,0.5c0.1-2.9,0.2-5.8,0.3-8.8
	C11.1,63.1,7,65.7,3.5,69.1z M41,81c0.2-0.1,0.3-0.1,0.4-0.2c1.1-0.4,1.9-1.2,2.1-2.4c0.2-1.3-0.2-2.3-1.3-3
	c-0.9-0.6-1.9-0.9-3.1-0.9C38,74.6,37,75.1,36.4,76c-0.7,1-0.8,2.1-0.2,3.2C37.2,80.8,39.2,81.5,41,81z M22.9,83.6L22.9,83.6
	c0.2,0.6,0.6,1.2,1.1,1.7c0.9,1.1,1.9,1.2,3.2,0.6c0.3-0.2,0.6-0.3,0.9-0.6c2.2-1.7,2.3-3.6,0.5-5.7c-0.5-0.6-1.1-0.8-1.9-0.7
	c-1.8,0.2-2.9,1.3-3.6,2.8C22.6,82.3,22.6,82.9,22.9,83.6z M1.5,69.7c0.5,0.1,0.7,0.2,1.1,0.2c4.9,0.9,9.9,1.1,14.9,0.6
	c2.7-0.3,5.3-0.8,7.8-1.3c4.8-1,9.2-2.7,13.4-5.1c4.2-2.5,8-5.5,11.3-9.1c0.6-0.6,1.1-1.2,1.9-1.9c-0.7-0.2-1.3-0.3-1.9-0.6
	c0.6,0.8,0.6,1.1,0.1,1.9c-0.2,0.2-0.3,0.4-0.5,0.6c-0.6,0.6-1.2,1.1-1.8,1.8c-4.1,4.2-9.1,7.4-14.5,9.6c-5.3,2.3-10.7,3.6-16.5,4
	c-4.4,0.3-8.6,0.2-13-0.4c-0.4-0.1-0.7-0.3-1.1-0.5c0.2-0.3,0.3-0.7,0.6-1c2.3-2.3,4.8-4.2,7.6-5.9c1.3-0.8,2.6-1.5,3.9-2.2
	c0.3-0.2,0.6-0.3,0.6-0.9C10.3,62.2,5.6,65.5,1.5,69.7z M28,48.1c-0.6-0.5-1.1-0.9-1.6-1.3c-0.2-0.2-0.4-0.2-0.6,0
	c-0.5,0.4-1,0.7-1.5,1.1c-2.3,1.3-4.7,2.2-7.3,2.5c-0.2,0-0.4,0.2-0.4,0.2c-0.1,0.6-0.1,1.1-0.1,1.7C20.7,51.7,24.6,50.8,28,48.1z
	 M16.4,56.8c1.6-0.3,3.2-0.5,4.8-0.9c3.4-0.7,6.5-2.1,9.4-4c0.4-0.2,0.7-0.6,1.1-0.8c-0.3-0.3-0.6-0.5-0.8-0.7
	c-0.2-0.3-0.5-0.2-0.8,0c-3.8,2.8-8.1,4.4-12.8,4.9c-1,0.1-1,0.1-0.9,1.1C16.3,56.5,16.3,56.6,16.4,56.8z M42.7,71.4
	c0.4,0.5,0.7,1,1.2,1.3c1.1,0.7,1.6,1.8,1.6,3.1c0,0.1,0,0.2,0,0.3c0.2,1.5,0.7,2.1,2.3,2.4c0-0.1,0.1-0.1,0.1-0.2
	c-0.2-1.8-0.5-3.6-0.8-5.4c0-0.2-0.2-0.3-0.4-0.4c-0.9-0.5-1.8-0.9-2.7-1.4C43.5,70.8,43.5,70.7,42.7,71.4z M20.1,78.7
	c-1.1,0.1-0.8-0.1-1.2,0.8c-0.4,1-0.9,1.9-1.3,2.9c-0.1,0.2-0.1,0.3,0,0.5c0.4,0.9,0.8,1.8,1.3,2.6c0.4,0.7,1,1.5,1.5,2.2
	c0.6-0.7,0.8-1.5,0.5-2.2c-0.2-0.6-0.5-1.1-0.8-1.6c-0.3-0.6-0.6-1.4-0.6-2.1C19.6,80.7,19.9,79.8,20.1,78.7z M38.8,71.8
	c0.1,0,0.1-0.1,0.2-0.1c0-1.5-0.1-3.2-0.1-4.8c-1.4,0.6-2.7,1.3-4,2C36.2,69.9,37.5,70.8,38.8,71.8z M39.7,66.5
	c1.4,0.9,2.7,1.7,4.1,2.6c-0.2-1.7-0.3-3.3-0.4-4.9C42.1,64.9,40.9,65.7,39.7,66.5z M30,70.9c1.1,1.1,2.1,2.3,3.2,3.5
	c0.2-1.8,0.5-3.4,0.7-5.1C32.6,69.8,31.3,70.4,30,70.9z M24.9,72.4c1,1.1,1.9,2.3,3,3.5c0.4-1.6,0.8-3.1,1.2-4.7
	C27.6,71.7,26.3,72,24.9,72.4z M47.6,61c-1.2,0.9-2.3,1.8-3.6,2.6c1.3,0.8,2.5,1.5,3.8,2.3C47.7,64.3,47.7,62.7,47.6,61z M23.7,72.7
	c-1.5,0.2-2.7,0.5-4.2,0.7c0.8,1.3,1.6,2.4,2.5,3.7C22.7,75.6,23.2,74.2,23.7,72.7z M51.7,62.3c0.1-0.1,0.1-0.1,0.2-0.2
	c-0.1-1.5-0.2-2.9-0.3-4.5c-1.1,1-2.1,1.9-3.1,2.7C49.5,61,50.7,61.7,51.7,62.3z M31.5,97.1c-1-0.5-0.8-1.4-0.9-2.2
	c0-0.2-0.1-0.4-0.2-0.5c-0.6-0.8-0.8-1.7-0.8-2.7c0-0.2-0.1-0.3-0.2-0.3c-0.5-0.2-1-0.4-1.5-0.6c-0.4-0.1-0.8-0.1-1.1,0.3
	c1,0.6,1.5,1.5,1.9,2.5c0.5,0.9,0.9,1.8,1.4,2.7C30.5,96.7,30.9,97,31.5,97.1z M16.9,77.4c0.1,0,0.1,0,0.2,0
	c0.5-1.3,1.1-2.6,1.5-3.9c-1.3,0.1-2.4,0.2-3.6,0.2C15.7,75.1,16.2,76.2,16.9,77.4z M12.2,77.5c0.6-1.3,1.2-2.5,1.8-3.7
	c-1.2,0-2.4-0.1-3.6-0.1C10.9,75,11.5,76.2,12.2,77.5z M9.4,73.7c-1.2-0.2-2.3-0.2-3.6-0.4c0.6,1.3,1.1,2.6,1.8,4
	C8.2,76,8.8,74.8,9.4,73.7z M44.3,85.8c-0.1,0-0.1-0.1-0.2-0.1c-0.4,0.3-0.8,0.7-1.2,1.1c-0.2,0.2-0.2,0.4-0.1,0.7
	c0.5,0.6,0.8,1.2,0.9,2c0,0.2,0.2,0.3,0.2,0.5c0.5,0.6,0.7,1.4,0.8,2.1c0,0.2-0.1,0.4-0.1,0.6c0.6-0.6,0.6-1.2,0.4-1.9
	C44.8,89.1,44.3,87.4,44.3,85.8z M16.2,57.6c0,0.1,0,0.1,0,0.2c0.2,0,0.2,0.1,0.4,0.1c0.8-0.1,1.5-0.2,2.3-0.2
	c2.6-0.4,5.1-1.2,7.5-2.2c1.9-0.8,3.7-1.9,5.3-3.2c0.2-0.1,0.2-0.2,0.3-0.4c0-0.1-0.1-0.1-0.1-0.2C27.4,55.2,22.1,57,16.2,57.6z
	 M37.9,104.3c1,0,1.8-0.4,2.3-1.1c0.1-0.1,0.1-0.2,0.1-0.4s-0.1-0.4,0-0.5s0.4-0.2,0.6-0.2s0.2,0.2,0.3,0.4c0.1,0.1,0.1,0.2,0.2,0.2
	c0.6,0.2,2-0.2,2.5-0.7c-1.1-0.2-2.2-0.5-3.3-0.6c-0.1,0-0.3,0.1-0.4,0.2c-0.5,0.6-0.9,1.1-1.4,1.6C38.6,103.7,38.2,104,37.9,104.3z
	 M4.9,73.1c-0.9-0.2-1.8-0.3-2.6-0.5c0.3,1.2,0.6,2.3,1,3.6h0.1C4,75.2,4.4,74.1,4.9,73.1z M20.6,83.3c0.2-0.3,0.2-0.6,0.4-0.7
	c-0.7-1-0.5-1.8,0.6-2.3c0.1-0.1,0.2-0.2,0.2-0.3c0-1,0.3-1.3,1.2-1.4c0.1,0,0.2-0.1,0.3-0.1c0-0.1,0-0.1,0-0.2
	c-1,0.2-1.9,0.2-2.8,0.4c0,0.4,0.1,0.7,0.1,1.1c-0.1,0.6-0.2,1.3-0.3,2C20.2,82.2,20.3,82.8,20.6,83.3z M48.3,79.4
	c0-0.1-0.1-0.1-0.1-0.2c-0.2,0.1-0.6,0.1-0.6,0.2c-0.8,1.3-0.9,2.7-0.4,4.1c0.1,0.1,0.3,0.2,0.4,0.2c0.1-0.2,0.2-0.3,0.1-0.4
	c-0.2-1-0.2-2,0.2-3C48,80.2,48.2,79.9,48.3,79.4z M37.3,94.1C37.3,94.1,37.4,94.1,37.3,94.1c-0.2-0.6-0.3-1-0.6-1.4
	c-0.1-0.2-0.3-0.2-0.6-0.3c-0.1,0.2-0.3,0.4-0.3,0.6c0,0.6,0.1,1.1,0.2,1.7c0.2,0.7,0.2,0.7,1,0.5c0.4-0.2,0.6-0.3,0.3-0.7
	C37.4,94.2,37.4,94.2,37.3,94.1z M38.1,91.6c-0.1,0-0.2,0.1-0.2,0.1c0,0.2-0.2,0.5-0.1,0.7c0.1,0.5,0.2,1.1,0.3,1.5
	c0.2,0.8,0.3,0.9,1.1,0.4c0.2-0.2,0.4-0.3,0.2-0.6s-0.3-0.7-0.6-1.1C38.7,92.2,38.5,91.9,38.1,91.6z M22.3,92.1
	c-0.1-0.6-0.3-1.2-0.7-1.7c-0.2-0.2-0.6-0.5-0.9-0.6c-0.2-0.2-0.5,0-0.5,0.3C20.1,91.2,21.2,92.2,22.3,92.1z M18.3,78.8
	c-0.6,0-1.1,0-1.5,0.1c-0.1,0-0.3,0.2-0.3,0.3c0.2,0.7,0.4,1.5,0.6,2.3c0.1,0,0.2,0,0.2,0C17.6,80.7,17.9,79.8,18.3,78.8z
	 M49.4,80.4c-0.7,0.9-1,2.3-0.4,3C50.1,83,50.3,81.4,49.4,80.4z M44.4,70.2c0.7,0.6,1.5,1.1,2.3,1.3l0.1-0.1
	c-0.3-0.7-0.6-1.5-1.1-2.2C45.3,69.7,44.9,69.9,44.4,70.2z M53.2,55.9c-0.3,0.3-0.6,0.6-0.9,0.9c-0.1,0.1-0.1,0.2,0,0.3
	c0.6,0.6,1.1,1.2,1.7,1.9c0,0,0.1,0,0.1-0.1C53.8,58,53.5,57,53.2,55.9z M34.7,53c0,0.1,0,0.2,0,0.2c0.2,0,0.4,0.1,0.6,0.1
	c1.8-0.3,3.6-0.6,5.3-0.9c0.7-0.1,1.5-0.2,2.3-0.2C40,52.1,37.3,52.5,34.7,53z M39.7,91.2c-0.1,0-0.2,0.1-0.2,0.1c0,0.3,0,0.6,0.2,1
	c0.2,0.5,0.4,0.9,0.6,1.3c0.1,0.2,0.2,0.4,0.5,0.2s0.6-0.2,0.4-0.6c-0.2-0.5-0.4-1-0.7-1.4C40.2,91.7,39.9,91.5,39.7,91.2z
	 M34.6,95.1L34.6,95.1c0,0.1,0.1,0.2,0.1,0.2c0,0.3,0.1,0.5,0.5,0.4c0.5-0.1,0.3-0.3,0.2-0.6c-0.1-0.2-0.2-0.5-0.2-0.7
	c-0.1-0.3-0.1-0.7-0.2-1.1c0-0.2-0.2-0.2-0.3-0.4c-0.1,0.2-0.2,0.2-0.3,0.4c-0.1,0.2-0.1,0.4-0.1,0.6C34.4,94.3,34.5,94.7,34.6,95.1
	z M20.8,88.5c1.6,0.6,2.5,1.9,2.9,3.5c0.2-0.2,0.2-0.3,0.2-0.4c-0.2-0.4-0.2-0.9-0.5-1.3c-0.5-0.9-1.1-1.7-2.1-2
	C21.1,88.2,20.8,88.2,20.8,88.5z M41.3,72.2c0.4,0.5,0.7,0.9,1.1,1.3c0.4,0,0.8,0,1.2,0c-0.3-0.3-0.6-0.6-0.9-1.1
	C42.1,71.6,42.1,71.6,41.3,72.2C41.3,72.3,41.3,72.3,41.3,72.2z M27.6,89.8c0.7,0.2,1.5,0.4,2.3,0.6c0-0.6-0.2-0.9-0.8-1.1
	C28.4,89.1,28,89.3,27.6,89.8z M40.9,90.9c0.2,0.9,0.6,1.6,1.1,2.4c0.2-0.2,0.4-0.3,0.3-0.4C41.9,92.2,41.7,91.4,40.9,90.9z
	 M44,79.5c0.5,0.2,0.8,0.2,1.1-0.2c0.2-0.5,0.2-0.9-0.2-1.1c-0.2-0.1-0.4-0.2-0.5,0.2C44.3,78.8,44.2,79.2,44,79.5z M38.6,95.4
	c0.2,0.3,0.4,0.6,0.6,0.9c0.2,0.2,0.3,0.2,0.5,0c0.2-0.4,0.2-0.9,0.1-1.3C39.3,95,39,95.2,38.6,95.4z M36.6,95.9
	c0.5,0.5,0.8,0.8,1.2,1.1c0.1,0,0.2-0.1,0.2-0.1c-0.1-0.5-0.1-0.9-0.2-1.4C37.4,95.7,37.1,95.8,36.6,95.9z M18,72.8
	c1-0.2,1.3-1.1,1.9-1.8C19,71.3,18.7,72.2,18,72.8z M21.2,70.8c-1,0.2-1.4,1.1-1.9,1.8C20.3,72.3,20.8,71.5,21.2,70.8z M20.4,45.2
	c-0.1,0-0.2-0.1-0.2-0.1c-0.6,1.4-1.4,2.8-2,4.2c0.1,0,0.1,0.1,0.2,0.1C19,47.9,19.6,46.6,20.4,45.2z M32.6,93.9c-0.1,0-0.2,0-0.2,0
	c-0.2,0.7,0,1.4,0.2,2.1c0,0.1,0.2,0.1,0.5,0.2C32.8,95.4,32.7,94.6,32.6,93.9z M42.3,74.4c0.3,0.2,0.5,0.4,0.7,0.6
	c0.1,0,0.1,0.1,0.2,0.1c0.2,0,0.3,0,0.4-0.1c0.2-0.3,0.2-0.6-0.2-0.8C43,74.1,42.7,74.2,42.3,74.4z M21,45c-0.1,0-0.1,0-0.2-0.1
	c-0.7,1.5-1.4,2.8-2.1,4.3c0.1,0,0.2,0.1,0.2,0.1C19.7,47.9,20.4,46.6,21,45z M22.3,84.7C22,85,21.8,85.3,22,85.6
	c0.1,0.2,0.3,0.4,0.5,0.4s0.4-0.2,0.7-0.2C22.9,85.3,22.6,85,22.3,84.7z M22.4,80.9c-0.6-0.1-0.9,0.2-1.1,0.6
	c-0.1,0.4,0.2,0.6,0.5,0.6c0.1,0,0.2-0.2,0.3-0.4C22.2,81.5,22.3,81.1,22.4,80.9z M25.4,52.3c0.5-0.2,1.4-1.8,1.3-2.4
	C26.2,50.2,26.1,50.4,25.4,52.3z M33.5,93.6c-0.1,0-0.2,0-0.2,0.1c0.1,0.7,0.2,1.5,0.3,2.3c0,0.1,0.2,0.2,0.3,0.2
	c0.1-0.1,0.2-0.2,0.1-0.3c-0.1-0.5-0.2-1-0.2-1.5C33.7,94,33.6,93.8,33.5,93.6z M18.2,52.9c-0.6,0-1.4,1-1.5,1.9
	C17.5,54.4,17.6,53.6,18.2,52.9z M18.7,71.2c-1,0.2-1.3,1.1-1.8,1.8C17.8,72.7,18.1,71.8,18.7,71.2z M24.2,52.7
	c0.1,0.1,0.2,0.1,0.2,0.2c0.7-0.6,0.7-1.5,1.1-2.3C24.7,51.1,24.6,52.1,24.2,52.7z M39.6,82.1c-0.3,0.2-0.9-0.3-1.1,0.3
	c-0.1,0.3,0.2,0.7,0.6,0.7C39.4,83.2,39.6,82.9,39.6,82.1z M20.4,72.5c0.6,0,1.9-1.3,2.1-1.9C21.6,70.9,21.2,71.9,20.4,72.5z
	 M26.6,51.8c0.7-0.7,0.9-1.8,1.3-2.7C27.1,49.9,26.9,50.8,26.6,51.8z M23.6,51.4c-0.6,0.2-1.4,1.5-1.4,2.3
	C22.9,53,23.1,52.2,23.6,51.4z M20.2,52.5c-0.7,0.4-1,1.3-1.4,1.9C19.6,54.1,19.9,53.2,20.2,52.5z M29.3,69
	c-0.8,0.3-1.1,1.1-1.5,1.8C28.7,70.6,28.8,69.7,29.3,69z M37.7,82c-0.3-0.2-0.6-0.2-1-0.4c-0.3,0.5-0.2,1,0.1,1.1
	C37.5,83,37.5,82.4,37.7,82z M28.5,48.7c-0.3,0.9-0.6,1.7-1.1,2.6C28.2,50.9,28.9,49,28.5,48.7z M41.6,81.9C41.3,82,41,82,40.7,82.1
	c-0.1,0-0.2,0.2-0.2,0.2c0.2,0.2,0.2,0.5,0.5,0.6c0.1,0.1,0.5-0.2,0.6-0.3C41.6,82.4,41.6,82.1,41.6,81.9z M17.7,54.6
	c0.8-0.4,1.1-1.2,1.4-1.9C18.3,53.1,18.1,53.9,17.7,54.6z M42.4,81.5c0.3,0.2,0.6,0.5,0.9,0.2c0.4-0.3,0.5-0.6,0.2-1.1
	C43.1,80.8,42.8,81.1,42.4,81.5z M40.4,74c0.4,0,0.7,0.4,1.1,0c0.2-0.2,0-0.7-0.3-0.8C40.9,73,40.6,73.3,40.4,74z M22.3,51.9
	c-0.4,0.1-1.1,1.1-1.2,1.9C21.4,53.8,22.1,52.7,22.3,51.9z M12.4,73.1c0.7-0.1,1.6-1,1.8-1.6C13.3,71.7,12.9,72.4,12.4,73.1z
	 M20,54.2c0.8-0.4,1-1.3,1.3-1.9C20.5,52.7,20.3,53.4,20,54.2z M20.4,48.8c0.1,0,0.1,0.1,0.2,0.1c0.6-1.3,1.1-2.6,1.7-3.8
	c0-0.1-0.1-0.2-0.2-0.2C21.6,46.2,21,47.5,20.4,48.8z M51.8,56.3c0.5-0.8,0.3-1.7,0.5-2.6C51.8,54.5,51.9,55.4,51.8,56.3z
	 M14.7,73.1c0.9-0.2,1.1-1.1,1.8-1.6C15.9,71.4,15.4,71.9,14.7,73.1z M43.9,92.1c0.2-0.4-0.1-1.4-0.6-1.8
	C43.1,90.8,43.2,91.2,43.9,92.1z M35.4,80.2c-0.4,0.3-0.5,0.9-0.1,1.1c0.2,0.1,0.4,0,0.6,0c0-0.2,0-0.3-0.1-0.5
	C35.8,80.7,35.5,80.4,35.4,80.2z M50.7,57.2c0.4-0.3,0.8-2.1,0.6-2.7C51,55.5,51,56.3,50.7,57.2z M24.3,71.8
	c0.7-0.4,1.1-1.1,1.5-1.9C25.4,70,24.5,71.1,24.3,71.8z M50,58c0.5-0.7,0.4-1.6,0.6-2.5C50,56.3,50.1,57.1,50,58z M21.2,48.5
	c0.1,0,0.2,0.1,0.2,0.1c0.5-1.1,1-2.3,1.5-3.3c-0.1,0-0.2-0.1-0.2-0.1C22.2,46.2,21.7,47.4,21.2,48.5z M29.1,70.4
	c0.9-0.2,1-1.1,1.3-1.8C29.8,69.1,29.5,69.8,29.1,70.4z M44.4,77c0.5-0.3,0.6-0.7,0.3-1.1s-0.5-0.3-0.8-0.1
	C44,76.3,44.2,76.6,44.4,77z M23.6,70.5c-0.1-0.1-0.1-0.1-0.2-0.2c-0.6,0.6-1.1,1.2-1.6,1.9c0.1,0,0.1,0.1,0.2,0.1
	C22.8,71.9,23,71,23.6,70.5z M23.6,79.4c-0.5-0.3-0.7-0.3-1,0s-0.2,0.6,0.2,0.8C23.1,80,23.3,79.8,23.6,79.4z M9,71.5
	c-0.8,0-1.1,0.7-1.5,1.2C8.2,72.7,8.5,72,9,71.5z M42.1,90.9c0.3,0.6,0.6,1.2,0.9,1.9c0.1-0.2,0.2-0.4,0.2-0.5
	C43,91.9,42.7,91.2,42.1,90.9z M28,69.4c-0.9,0.2-1.1,1.1-1.4,1.8C27.3,70.7,27.6,70,28,69.4z M15.7,72.9c0.1,0.1,0.2,0.2,0.2,0.2
	c0.5-0.6,1.1-1.1,1.5-1.7c-0.1-0.1-0.1-0.1-0.2-0.2C16.6,71.6,16.3,72.3,15.7,72.9z M31,83.7c-0.2,0.4-0.5,0.7-0.7,1.1
	c0.4,0.2,0.6,0.1,0.9-0.2C31.4,84.3,31.3,84,31,83.7z M32.6,69c0.7-0.3,0.9-1.1,1.1-1.6C33,67.7,32.9,68.4,32.6,69z M15.3,71.5
	c-0.5-0.1-1.5,1-1.8,1.6C14.5,72.8,14.7,72,15.3,71.5z M24.6,70.2c-0.7,0.4-1.1,1.1-1.5,1.8C23.8,71.6,24.2,70.9,24.6,70.2z
	 M41.8,95.6c0.1,0,0.2,0,0.2,0c0.1-0.4,0.2-0.7,0.2-1.1c0-0.2-0.2-0.3-0.2-0.6c-0.1,0.2-0.2,0.3-0.2,0.5c-0.1,0.2-0.1,0.4-0.1,0.6
	C41.8,95.3,41.8,95.4,41.8,95.6z M10.4,72.9c0.4,0.1,1.4-0.8,1.5-1.5C11.2,71.8,10.9,72.4,10.4,72.9z M48.2,59.5
	c0.1,0,0.2,0.1,0.2,0.1c0.4-0.6,0.2-1.5,0.5-2.2c-0.1,0-0.2,0-0.2-0.1C48.5,58,48.3,58.8,48.2,59.5z M35,78.2
	c-0.5,0.2-0.6,0.5-0.5,0.8s0.2,0.6,0.6,0.4C35.1,79,35.1,78.6,35,78.2z M23.3,53.1c0.6-0.6,0.8-1.3,1.1-2.1
	C23.8,51.7,23.6,52.4,23.3,53.1z M45.4,61.8c0.6-0.5,0.6-1.3,0.8-1.9C45.6,60.3,45.6,61,45.4,61.8z M9.4,72.9c0.4,0,1.4-0.9,1.5-1.4
	C10.2,71.8,9.9,72.4,9.4,72.9z M23.5,86.1c-0.1,0.4-0.1,0.6-0.1,0.9c0,0.1,0.2,0.2,0.3,0.2c0.2-0.2,0.4-0.3,0.6-0.5
	C24.1,86.4,23.8,86.3,23.5,86.1z M44.1,61.4c-0.6,0.4-0.6,1.1-0.9,1.8C43.9,62.8,43.9,62,44.1,61.4z M19.3,45.9
	c-0.1,0-0.1-0.1-0.2-0.1c-0.5,1.1-1.1,2.2-1.5,3.3c0.1,0,0.1,0,0.2,0.1C18.3,48.1,18.7,47,19.3,45.9z M49.1,58.8
	c0.1,0,0.2,0,0.2,0.1c0.2-0.7,0.2-1.5,0.4-2.2c-0.1,0-0.1,0-0.2,0C49.1,57.2,49.2,58,49.1,58.8z M26.9,69.7
	c-0.5,0.2-1.3,1.2-1.4,1.8C26.2,71,26.4,70.4,26.9,69.7z M19.7,48.9c0.1,0,0.1,0.1,0.2,0.1c0.5-1.1,1-2.2,1.5-3.2c0,0-0.1,0-0.1-0.1
	C20.8,46.7,20.2,47.9,19.7,48.9z M25.3,78.5c-0.3-0.4-0.9-0.4-1.1,0c-0.1,0.1-0.1,0.2,0,0.3c0,0.1,0.2,0.1,0.3,0.1
	C24.7,78.7,25,78.6,25.3,78.5z M11.5,73c0.7-0.2,1.1-0.9,1.5-1.4C12.3,71.8,12,72.5,11.5,73z M30.7,80.3c0.2-0.4,0.2-0.7-0.1-1.1
	c-0.1-0.1-0.4-0.1-0.6-0.1c0,0.1,0,0.1,0,0.2C30.2,79.7,30.5,80,30.7,80.3z M41.1,94.6c-0.1,0-0.1-0.1-0.2-0.1
	c-0.1,0.1-0.3,0.2-0.3,0.2c0,0.4-0.2,0.9,0,1.3c0.1,0,0.2,0,0.2,0C41,95.5,41,95,41.1,94.6z M31.5,68.3c-0.1,0-0.2-0.1-0.2-0.1
	c-0.3,0.6-0.6,1.1-1,1.6c0.1,0,0.1,0.1,0.2,0.1C31,69.5,31.3,68.9,31.5,68.3z M31.3,81.2c-0.1,0-0.2,0.1-0.2,0.1
	c0,0.5,0.1,0.9,0.1,1.4c0.1,0,0.1,0,0.2,0.1c0.1-0.2,0.3-0.5,0.2-0.7C31.7,81.8,31.4,81.6,31.3,81.2z M42.3,63.9
	c0.6-0.4,0.6-1.1,0.7-1.7C42.4,62.6,42.4,63.3,42.3,63.9z M35.4,97.6c0.1-0.1,0.2-0.2,0.2-0.2c-0.3-0.3-0.6-0.6-0.9-1
	c0,0-0.2,0-0.2,0.1c-0.1,0.1-0.1,0.2,0,0.2C34.7,97.1,35.1,97.4,35.4,97.6z M36.4,97.3c0.1,0,0.1-0.1,0.2-0.1c0-0.4-0.3-0.7-0.6-1
	c-0.1-0.1-0.3,0.1-0.6,0.1C35.9,96.7,36.2,97,36.4,97.3z M42,63c-0.1,0-0.1-0.1-0.2-0.1c-0.6,0.4-0.6,1.1-0.7,1.6
	c0.1,0,0.2,0.1,0.2,0.1C41.5,64.1,41.8,63.6,42,63z M31.5,69.5c0.6-0.4,0.8-1.1,1.1-1.7C32,68.2,31.7,68.9,31.5,69.5z M34.1,98
	c0.2-0.3-0.4-1.1-0.6-1.2c-0.1,0-0.2,0-0.2,0.1s-0.1,0.2,0,0.2C33.5,97.3,33.8,97.6,34.1,98z M18.2,46.8c-0.1,0-0.1-0.1-0.2-0.1
	c-0.5,1-0.9,1.9-1.4,2.8c0.1,0,0.1,0.1,0.2,0.1C17.3,48.7,17.8,47.7,18.2,46.8z M37,65.9c-0.6,0.3-1,1-1.1,1.7l0.1,0.1
	C36.4,67.1,36.7,66.5,37,65.9z M7.8,71.5c-0.1-0.1-0.1-0.1-0.2-0.2C7,71.5,6.8,72,6.4,72.4c0.1,0.1,0.1,0.1,0.2,0.2
	C7,72.3,7.4,71.9,7.8,71.5z M46.4,60.9c0.1,0,0.1,0,0.2,0.1c0.4-0.6,0.3-1.3,0.6-1.9c-0.1,0-0.2,0-0.2-0.1
	C46.8,59.6,46.6,60.2,46.4,60.9z M34.8,77.3c0.1,0,0.2,0,0.2,0c0.2-0.4,0.2-0.8,0.4-1.2c-0.1,0-0.1-0.1-0.2-0.1
	c-0.2,0.2-0.4,0.3-0.5,0.6C34.7,76.8,34.8,77,34.8,77.3z M28.3,78.2c0,0.1,0,0.2,0.1,0.2c0.3,0.1,0.6,0.2,0.9,0.2
	c0.1-0.1,0.1-0.1,0.2-0.2c-0.2-0.2-0.2-0.5-0.5-0.6C28.8,77.9,28.5,78.2,28.3,78.2z M36.9,66.9c0.1,0,0.1,0.1,0.2,0.1
	c0.6-0.4,0.6-1.1,0.9-1.6c-0.1,0-0.1-0.1-0.2-0.1C37.5,65.9,37.2,66.4,36.9,66.9z M4.4,71c0-0.1-0.1-0.1-0.1-0.2
	C3.6,71,3.4,71.6,3,72c0.1,0.1,0.1,0.1,0.2,0.2C3.5,71.8,4,71.4,4.4,71z M3.6,70.7c-0.6,0.1-1.1,0.6-1.2,1.2
	C2.7,71.6,3.1,71.2,3.6,70.7z M26,87c0-0.1-0.1-0.2-0.1-0.2c-0.2,0-0.4-0.1-0.6-0.1s-0.2,0.2-0.4,0.2c0.2,0.1,0.2,0.3,0.3,0.3
	C25.5,87.3,25.8,87.2,26,87z M9.9,71.7c-0.1-0.1-0.1-0.1-0.2-0.2c-0.4,0.4-0.8,0.8-1.2,1.2l0.1,0.1C9.2,72.7,9.4,72.1,9.9,71.7z
	 M34.9,68c0.1,0,0.1,0.1,0.2,0.1c0.2-0.5,0.6-1.1,0.8-1.5l-0.1-0.1C35.2,66.8,35.1,67.4,34.9,68z M28.7,86.2c0,0.1,0,0.2,0,0.2
	c0.2,0,0.5,0,0.6-0.2c0.2-0.1,0.2-0.4,0.4-0.6c-0.2,0-0.2,0-0.2,0C29.2,85.8,28.9,85.9,28.7,86.2z M6.1,71.3c-0.6,0-1.4,0.7-1.3,1.1
	C5.2,72.1,5.7,71.7,6.1,71.3z M39.1,65.8c0.1,0,0.2,0.1,0.2,0.1c0.2-0.6,0.5-1.1,0.7-1.6c-0.1,0-0.2-0.1-0.2-0.1
	C39.6,64.7,39.3,65.3,39.1,65.8z M38.1,66.4c0.1,0,0.2,0.1,0.2,0.1c0.2-0.5,0.5-1.1,0.7-1.5c-0.1,0-0.2-0.1-0.2-0.1
	C38.5,65.3,38.3,65.9,38.1,66.4z M47.9,58.2c-0.1,0-0.2,0-0.2-0.1c-0.2,0.6-0.2,1.2-0.4,1.9c0.1,0,0.2,0,0.2,0.1
	C47.7,59.5,47.8,58.8,47.9,58.2z M44.4,62.3c0.1,0,0.2,0.1,0.2,0.1c0.2-0.6,0.4-1.1,0.6-1.6c-0.1,0-0.2-0.1-0.2-0.1
	C44.8,61.2,44.5,61.8,44.4,62.3z M33.8,68.5c0.1,0.1,0.2,0.1,0.2,0.2c0.2-0.6,0.6-1.1,0.8-1.6c-0.1,0-0.2-0.1-0.2-0.1
	C34.4,67.4,34.1,67.9,33.8,68.5z M40.1,65.2c0.1,0,0.2,0.1,0.2,0.1c0.2-0.6,0.5-1.1,0.6-1.6c-0.1,0-0.2-0.1-0.2-0.1
	C40.6,64.1,40.3,64.7,40.1,65.2z M28.6,50.6c0.6-0.5,0.9-1.2,0.6-1.5C29,49.6,28.8,50,28.6,50.6z M6.9,71.5
	c-0.1-0.1-0.1-0.1-0.2-0.2c-0.4,0.4-0.8,0.7-1.2,1.1c0,0.1,0.1,0.1,0.1,0.2C6.2,72.3,6.5,71.8,6.9,71.5z M5.2,71.2
	C5.1,71.1,5.1,71.1,5,71c-0.4,0.4-0.8,0.7-1.1,1.1C4,72.2,4,72.2,4.1,72.3C4.4,71.9,4.8,71.5,5.2,71.2z M27.9,86.7L27.9,86.7
	c-0.3,0-0.6,0.1-0.9,0.2c0,0.1,0,0.1-0.1,0.2c0.2,0.1,0.4,0.3,0.5,0.2C27.6,87.1,27.7,86.9,27.9,86.7z M43.2,93.5
	c-0.1,0-0.2,0-0.2,0c-0.2,0.4,0.1,0.9,0,1.3c0.1,0,0.2,0,0.2,0C43.2,94.4,43.2,94,43.2,93.5z M31.4,94.6c-0.1,0-0.1,0-0.2,0
	c-0.1,0.7,0,1.1,0.4,1.4C31.6,95.5,31.5,95,31.4,94.6z M38.2,74c0.5-0.1,0.8-0.1,1.3-0.2C39.1,73.5,38.8,73.6,38.2,74z M27.4,78.2
	c-0.4-0.6-0.7-0.6-1,0C26.7,78.2,27,78.2,27.4,78.2z M21.9,83c-0.1,0-0.1,0-0.2,0c-0.1,0.2-0.2,0.4-0.2,0.6s0.2,0.2,0.3,0.4
	c0.1,0,0.1-0.1,0.2-0.1C22,83.6,21.9,83.2,21.9,83z M22.9,46.5L22.9,46.5c-0.4,0.6-0.6,1.1-0.9,1.7c0.1,0,0.1,0.1,0.2,0.1
	C22.5,47.7,22.7,47,22.9,46.5z M44.2,73.9c0.2,0.5,0.2,0.8,0.3,1.1C44.8,74.5,44.7,74.2,44.2,73.9z M17,53.1
	c-0.5-0.1-0.6,0.1-0.5,0.8C16.6,53.6,16.8,53.4,17,53.1z M2.7,70.6c-0.1-0.1-0.2-0.1-0.2-0.2c-0.2,0.2-0.4,0.5-0.6,0.7
	C2,71.2,2,71.2,2.1,71.3C2.2,71.1,2.4,70.9,2.7,70.6z M35.8,72.2c-0.1,0-0.1,0-0.2,0c-0.1,0.5-0.2,1.1-0.2,1.5c0.1,0,0.1,0,0.2,0
	C35.6,73.2,35.7,72.7,35.8,72.2z M24,45.5c-0.1,0-0.1,0-0.2-0.1c-0.2,0.5-0.3,0.9-0.5,1.4h0.1C23.6,46.4,23.7,45.9,24,45.5z
	 M46.2,66.3c-0.1,0-0.1,0-0.2,0c0,0.5,0,1,0,1.5h0.1C46.2,67.2,46.2,66.8,46.2,66.3z"/>
<path class="st5" d="M76.7,64.7c0.6-1,1.3-1.4,2.3-1.2c0.1,0,0.3,0,0.4-0.1c1.1-0.6,2.1-1.2,3.2-1.7c0.5-0.2,1.2-0.2,1.8-0.2
	c0.3,0,0.6-0.2,0.8-0.2c0.9,0,1.7-0.3,2.3-1c0.1-0.2,0.5-0.2,0.7-0.2c1,0.1,1.9,0.2,2.9,0.3c0.4,0,0.8-0.1,1.2-0.1
	c0.3,0,0.6,0,0.8-0.1c0.8,0,1.7,0.1,2.5,0c1-0.1,1.8,0.1,2.5,0.7c0.2,0.2,0.6,0.3,0.9,0.3c0.9-0.1,1.7,0.1,2.4,0.7
	c0.6,0.5,1.4,0.9,2.1,1.3c0.1,0.1,0.3,0,0.5,0c2.1-0.4,4,0.5,5,2.4c0.1,0.2,0.4,0.4,0.6,0.4c1-0.1,1.9,0.3,2.6,0.9
	c1.2,1,2.4,2.1,3.7,3.1c0.8,0.7,1.4,1.5,1.3,2.6c0,0.2,0.1,0.4,0.2,0.6c2.1,2.1,3,4.9,4,7.6c1.1,3,2.1,6,2.4,9.3
	c0.2,2.8,0.2,5.6-1.2,8.1c-1.2,2.2-2.8,4-5.5,4.3c-1.8,0.3-3.5,0-5.2-0.7c-4.6-1.8-9.1-3.6-13.6-5.6c-6.1-2.7-12.2-5.6-18.2-8.5
	c-4.2-2-8.3-4.3-12.5-6.4c-1.9-1-2.4-2.1-1.9-4.2c0.3-1.5,1.2-2.6,2.2-3.8c0.4-0.5,0.6-0.9,0.3-1.6c-0.4-0.8-0.2-1.6,0.5-2.3
	c0.5-0.4,0.9-0.9,1.3-1.4c0.8-0.8,1.7-0.9,2.7-0.3c0.2,0.1,0.5,0.1,0.7,0.1c0-0.3,0.1-0.6,0-0.7c-0.3-0.5-0.6-1-1-1.4
	c-0.4-0.5-0.4-0.9,0.1-1.2c0.7-0.4,1.5-0.8,2.2-1C75.8,63.2,76.3,63.8,76.7,64.7z M104.4,66c-0.1,1.5-0.6,2.8-1.3,4.1
	c0.4,0.5,0.8,1.1,1.2,1.7C105.7,70.3,105.7,67.8,104.4,66c-1.2-1.6-3.2-2.1-5-1.2c0.7,2.2,0.7,2.2,1.7,2.9c0.7-0.7,1.6-0.5,2.5-0.1
	c0.1-0.4,0.1-0.7,0.3-0.9C104,66.5,104.2,66.3,104.4,66z M110.4,96.8c-0.5-0.8-0.9-1.4-1.2-2c-0.1-0.1-0.1-0.3-0.1-0.4
	c0-0.3,0.1-0.6,0-0.9c-0.2-1.2-0.5-2.4-0.8-3.6c-1-4.1-1.9-8.2-3.5-12.1c-2.1-5.3-5.9-8.8-11.1-10.9c-3.2-1.3-6.6-1.8-10-2
	c-3.2-0.2-6.1,0.7-8.5,2.8c-2.3,2-4.6,4.3-6.7,6.5c-0.8,0.8-1.3,1.9-1.7,2.9c-0.8,2-0.2,3,1.7,3.8c2.4,1.1,4.9,2.2,7.2,3.4
	c7.7,4.2,15.5,7.9,23.5,11.3c0.7,0.3,1.4,0.3,2.1,0.8c0.8,0.6,1.8,0.8,2.8,1.2c0.2,0.1,0.5,0.2,0.6,0.1c0.8-0.7,0.8-0.1,0.8,0.6
	c1,0.1,1.8,1.2,2.9,0.6c0.4,1,0.5,1,1.5,0.7c0.1,0.8,2.1,1.6,3,1.1c-0.4-0.3-0.8-0.6-1.1-0.8c-0.1-0.1-0.2-0.3-0.3-0.5
	c-0.3-0.5-0.5-1.1-0.9-1.6c0-0.1-0.6,0.3-0.9,0.3c-0.2,0-0.5-0.1-0.6-0.3c-0.1-0.1-0.1-0.4-0.2-0.6c0.2,0,0.4-0.1,0.6-0.1
	C109.6,96.9,109.9,96.9,110.4,96.8z M120.6,80.7c-0.1,0-0.1,0-0.2,0c0.7,3.3,1.3,6.7,2,10c0.6,2.8,0.2,5.4-1.7,7.6
	c-2.3,2.7-6.5,2.3-8.2-0.8c-0.3-0.6-0.6-1.3-0.8-1.9c-1.1-3.7-2.1-7.4-3.2-11.2c-1.2-4-2.4-8-4.6-11.6c-2.6-4.3-6-7.5-11.2-8.2
	c-1.5-0.2-3-0.3-4.5-0.4c0.1,0.2,0.1,0.3,0.1,0.3c0.6,0.2,1.3,0.3,1.9,0.5c8,1.9,13.5,6.6,16,14.5c1.3,4,2.3,8.2,3.4,12.2
	c0.6,2.4,1.2,4.8,2.6,6.9c2.8,4.2,7.6,4,9.8-0.5c0.7-1.4,1-3,1.2-4.5C123.6,88.9,122,84.8,120.6,80.7z M112.3,94.8
	c0.2,0.6,0.5,1.3,0.8,2c0.9,2.6,5.1,3.3,6.9,0.9c1.6-2.1,2-4.3,1.5-6.8c-0.2-0.9-0.7-1.2-1.9-1.1c-0.8,0.1-0.8,0.7-0.8,1.2
	c-0.1,1-0.8,1.6-1.7,1.6c-0.4,0-0.7,0-1.1-0.1c-0.9-0.2-1.5,0.1-2.1,0.8C113.5,93.8,113,94.2,112.3,94.8z M113.2,70.1
	c-0.5-0.6-0.9-1.1-1.4-1.7c-0.5-0.5-1.1-0.9-1.9-0.7c-0.2,0-0.5,0.2-0.5,0.4c-0.2,1-0.4,2.1-0.6,3.2c1.1-0.3,1.6,0.2,2.1,1.2
	c0.3,0.6,1.2,1,2,1.2c0.7,0.2,1.5,0,2.2,0c0.1-2.4-0.2-2.8-1.6-3.2c-0.3,0.4-0.1,1.2-1.1,1.3C112.7,71.2,112.9,70.7,113.2,70.1z
	 M113.1,74.5c0,0.7,0,1.3,0,1.9c1.1,0.3,1.3,0.6,1.4,1.8c0,0.2,0.2,0.5,0.3,0.6c1.2,1,1.2,2.2,0.1,3.3c-0.1,0.1-0.3,0.2-0.5,0.2
	c0.8,0.4,1.3,0.2,1.8-0.2c1.8-1.4,1.8-4.2,0-5.9c-0.3-0.3-0.6-0.6-0.8-0.9C114.9,74.4,114.4,74.1,113.1,74.5z M113.7,78.2
	c0-1-0.3-1.2-1.1-0.8c-0.7,0.3-1.3,0.8-1.9,1.2c-0.8,0.5-0.8,1.2-0.6,2c0.2,0.5,0.5,0.7,0.9,0.5c0.8-0.5,1.5-0.2,2.2,0.3
	s1.2,0.4,1.5-0.1c0.4-0.6,0.3-1.3-0.3-1.7C113.9,79.2,113.6,78.8,113.7,78.2z M104,64.5c2.7,2.7,2.9,4.7,1,8c-0.1,0.1-0.1,0.4,0,0.5
	c0.2,0.4,0.5,0.8,0.8,1.4c0.5-1.6,1-3.1,1.4-4.5c0.3-1.2,0.3-2.3-0.2-3.4C106.5,65,105.4,64.3,104,64.5z M118.9,81.5
	c-0.5,0.7-0.8,0.4-0.9-0.1c-0.7,0.7-1.4,1.4-2,2c0.6,0.6,1.3,1.2,2,1.8c-0.1,0.1-0.3,0.1-0.4,0.2c0.2-0.5,0.4-1.2,0.8-1.4
	c0.5-0.2,1.1-0.1,1.8-0.1C120.5,82.8,119.4,82.4,118.9,81.5z M89.8,61.5c0.1,0,0.3,0,0.4-0.1c0.1,0.7,0.2,1.3,0.3,2
	c0.3,0,0.7,0.1,1,0.1c0.7,0.2,0.8-0.1,0.9-0.7c0-0.9-0.6-1.6-1.6-1.7c-0.7-0.1-1.4-0.2-2.1-0.3c-0.5-0.1-1,0-1.1,0.3
	c0.5,0.6,1.1,1.1,1.3,1.7c0.2,0.7,0.5,0.7,1.1,0.5C89.8,62.7,89.8,62.1,89.8,61.5z M110.5,88.1c0.1,0.1,0.2,0.1,0.3,0.2
	c0.1-0.4,0.3-0.7,0.4-1.1c0.1,0.1,0.2,0.2,0.4,0.3c-0.3,0.5-0.5,1-0.8,1.5c0,0,0.1,0,0.1,0.1c0.2-0.3,0.4-0.6,0.8-1
	c0.1,0.4,0.1,0.5,0.2,0.7c0.2-0.1,0.4-0.1,0.7-0.2c-0.2,0.4-0.4,0.7-0.5,1c0.1,0,0.1,0.1,0.2,0.1c0.8-1,1.5-2.1,2.2-3.1
	c0.1-0.1-0.1-0.5-0.2-0.9c-0.8,1.1-0.9,2.2-2.1,2.7c0.5-0.9,1-1.8,1.5-2.8c-0.6-0.4-0.7,0-0.8,0.4c-0.2,0.5-0.3,1.2-1.1,1.3
	c0.3-0.6,0.5-1.2,0.8-1.8c-0.1-0.1-0.2-0.1-0.3-0.2c-0.2,0.2-0.3,0.4-0.5,0.6c-0.2,0.4-0.3,0.8-0.5,1.3c-0.5-0.8-1-1.3-0.4-2
	c-0.4,0.3-0.3,1.1-1.2,0.5C110,86.5,110.3,87.3,110.5,88.1z M97.5,63.9c0-1,0.9-2-0.3-2.7c-0.7-0.4-2-0.4-2.5,0.1
	c0,0.7,0.2,1.1,0.8,1.4c0.3,0.1,0.5,0.5,0.8,0.6C96.7,63.5,97.1,63.7,97.5,63.9z M107.2,77.9c0.1,0,0.2,0.1,0.3,0.1
	c0.6-0.7,1.1-1.4,1.8-2.1c0.5-0.6,0.5-1.1,0-1.6c-0.2-0.2-0.5-0.4-0.7-0.4c-0.3,0.1-0.6,0.4-0.7,0.6c-0.3,0.6-0.4,1.3-0.6,2
	C107.2,77,107.2,77.4,107.2,77.9z M118.1,86.3c-0.2,0.3-0.4,0.6-0.5,0.8c-0.2,0.3-0.4,0.5-0.6,0.8c-0.8,0.9-0.8,1.1,0.2,2.2
	c0.3-0.3,0.5-0.7,0.8-1c0.2-0.3,0.5-0.6,0.7-0.9C119.4,87.4,119.3,87,118.1,86.3z M110.7,74.8c-0.1,0.9-0.2,1.5-0.2,2.2
	c-0.1,0-0.1,0-0.2,0c-0.1-0.2-0.2-0.4-0.3-0.6c-0.1,0-0.2,0-0.2,0c-0.2,0.7-0.4,1.5-0.7,2.4c-0.2-0.3-0.3-0.5-0.3-0.7
	c-0.9,0.8-0.9,0.8-0.6,1.4c0.9-0.7,1.9-1.3,2.8-2C111.9,76.6,111.8,76.1,110.7,74.8z M105.8,63.9c1.3,0.7,2,1.7,2.1,3
	c0.1,1.1,0.1,2.3-0.1,3.4c-0.2,1.3-0.8,2.5-1.1,3.7c-0.2,0.5-0.2,1-0.3,1.6c0.1,0,0.1,0,0.2,0c0.5-1.8,1.2-3.5,1.6-5.3
	c0.3-1.1,0.3-2.4,0.3-3.5C108.4,65.3,107.2,64.2,105.8,63.9z M111.1,81.9c0.7,0.9,1.3,1.7,1.9,2.5c0.1,0.1,0.6,0.1,0.8,0
	c0.3-0.2,0.4-0.5,0.6-0.8C113.3,83,112.9,81,111.1,81.9z M111.9,84.4c0-0.1,0.1-0.1,0.1-0.2c-0.8-0.9-1.6-1.7-2.4-2.5
	c-0.2-0.2-0.6-0.1-1-0.1c0.3,0.8,0.3,1.5,0.7,2c0.2,0.2,0.8,0.1,1.2,0.3C111,84,111.4,84.2,111.9,84.4z M114.2,89.4
	c0.4-0.4,0.6-0.8,0.9-1.1c-0.4,0.2-0.8,0.7-1.1,0.7c-1-0.2-1.1,0.6-1.4,1.1c0.2-0.2,0.5-0.4,0.6-0.5c0.4,0.3,0.8,0.6,1.2,0.8
	c-0.2,0.3-0.4,0.6-0.7,1c0.4-0.2,0.7-0.4,0.9-0.5c0,0.1,0.1,0.1,0.1,0.2c-0.2,0.2-0.3,0.5-0.5,0.8c0.3-0.1,0.4-0.1,0.6-0.2
	c0.2,0,0.4-0.1,0.6-0.1c0.7-0.1,0.9-0.3,0.7-1c-0.3,0.2-0.5,0.3-0.9,0.6C115.2,90.4,115.4,89.5,114.2,89.4z M112.3,75.6
	c0.1-1.2-0.1-1.4-1.1-1.9c-0.4-0.2-0.7-0.5-0.9-0.9c-0.3-0.5-0.6-1-1.2-0.8c-0.4,0.1-0.6,0.6-0.8,0.8c0.8,0.5,1.5,0.9,2.1,1.3
	C111.7,73.6,111.5,75.2,112.3,75.6z M102.6,63.7c-0.4-1.1-3.1-2.2-4.1-1.6c1,0.2,1.4,0.7,1.4,1.6C100.9,63.7,101.8,63.7,102.6,63.7z
	 M75.3,66.3c-0.2-0.4-0.4-0.7-0.6-1.1c-0.6-1-1-1-1.7,0c0.4,0.6,0.8,1.2,1.3,1.8C74.7,66.8,75,66.6,75.3,66.3z M85.1,63.4
	c-0.2-0.4-0.3-0.6-0.5-0.8c-0.4-0.5-1-0.7-1.6-0.4c-0.1,0.2,0,0.8,0,1.1c0,0.1,0,0.2,0.1,0.3C83.7,63.6,84.3,63.5,85.1,63.4z
	 M70.2,69.2c0.3,0.3,0.5,0.6,0.7,1c0.5-0.5,1-1,1.5-1.5C71.6,68,71.1,68.1,70.2,69.2z M69.1,71.9c0.5-0.5,0.9-0.9,1.4-1.4
	c-0.2-0.3-0.4-0.6-0.6-1C68.7,70.3,68.5,70.9,69.1,71.9z M92.4,60.9c0.3,0.6,0.6,1.1,0.8,1.6c0.3-0.1,0.7-0.3,1-0.4
	C94.2,61.1,93.7,60.8,92.4,60.9z M115.4,85.7c0.8-1.1,0.7-1.3-0.4-1.7C114.3,84.9,114.3,84.9,115.4,85.7z M102.5,69.5
	c0.6-0.6,0.8-1,0.3-1.3c-0.2-0.2-0.7,0-1.1,0C102,68.6,102.2,69,102.5,69.5z M116.1,87.2c0.9-0.7,1.1-1.2,0.4-2
	C116.4,85.9,115.5,86.3,116.1,87.2z M86.8,63.4c-0.2-0.4-0.5-0.8-0.6-1.1c-0.2-0.6-0.5-0.5-0.9-0.2C85.8,62.5,85.7,63.8,86.8,63.4z
	 M118.1,90.3c-0.4,0.5-1.3,0.6-1.3,1.5C117.8,91.9,118.1,91.5,118.1,90.3z M74.9,64.2c0.4,0.6,0.8,1.1,1.2,1.7
	C76.3,65,75.7,64.1,74.9,64.2z M116.1,73.4c0.6-0.9,0.4-2-0.4-2.4C115.9,71.8,116,72.5,116.1,73.4z M80,63.7c0,0.1,0.1,0.2,0.1,0.3
	c0.5-0.1,1-0.1,1.7-0.2c-0.4-0.3-0.6-0.7-0.7-0.6C80.7,63.3,80.3,63.6,80,63.7z M111.6,67.3c-0.7-0.7-1.7-0.9-2.1-0.3
	C110.2,67,110.9,67.1,111.6,67.3z M79.2,64.4c-1-0.4-1.5-0.1-1.6,0.7C78.2,64.8,78.7,64.6,79.2,64.4z M109.1,81
	c0.1-0.1,0.1-0.1,0.2-0.2c-0.1-0.3-0.1-0.6-0.2-1c-0.1,0-0.2-0.1-0.3-0.1c-0.2,0.3-0.4,0.6-0.6,0.9C108.6,80.8,108.8,80.9,109.1,81z
	 M119,85.6c0.1,0.1,0.2,0.1,0.4,0.2c0.1-0.2,0.3-0.5,0.2-0.7c0-0.2-0.3-0.5-0.4-0.5c-0.2,0-0.4,0.3-0.6,0.4
	C118.7,85.2,118.9,85.4,119,85.6z M119.1,89.1c0,0.1,0.1,0.1,0.1,0.2c0.3-0.1,0.7-0.1,0.9-0.3c0.1-0.1-0.1-0.5-0.2-1
	C119.5,88.4,119.3,88.7,119.1,89.1z M87.7,62.3c-0.1,0-0.1,0.1-0.2,0.1c0,0.3-0.1,0.6-0.1,1.2c0.4-0.2,0.7-0.4,0.7-0.4
	C88,62.8,87.8,62.5,87.7,62.3z M119.4,86.3c0,0.1,0,0.2,0,0.3c0.3-0.1,0.6,0,0.8-0.2c0.2-0.2,0.2-0.5,0.3-0.8h-0.1
	C120.1,85.8,119.8,86.1,119.4,86.3z"/>
</svg>
