<?xml version="1.0" encoding="utf-8"?>
<!-- Generator: Adobe Illustrator 25.0.0, SVG Export Plug-In . SVG Version: 6.00 Build 0)  -->
<svg version="1.1" id="Capa_1" xmlns="http://www.w3.org/2000/svg" xmlns:xlink="http://www.w3.org/1999/xlink" x="0px" y="0px"
	 viewBox="0 0 479.5 39.9" style="enable-background:new 0 0 479.5 39.9;" xml:space="preserve">
<style type="text/css">
	.st0{fill:#F9F3C4;}
	.st1{fill:#ED3C2E;}
	.st2{fill:#00AC50;}
	.st3{fill:#F17D56;}
</style>
<polygon class="st0" points="36,4 32,4 32,8 28,8 28,12 24,12 24,8 20,8 20,4 16,4 12,4 12,8 16,8 16,12 20,12 20,16 24,16 24,19.9 
	28,19.9 28,16 32,16 32,12 36,12 36,8 40,8 40,4 "/>
<polygon class="st1" points="44,4 44,8 40,8 40,12 36,12 36,16 32,16 32,19.9 28,19.9 28,23.9 24,23.9 24,19.9 20,19.9 20,16 16,16 
	16,12 12,12 12,8 8,8 8,4 4,4 4,0 0,0 0,4 0,8 4,8 4,12 8,12 8,16 12,16 12,19.9 16,19.9 16,23.9 20,23.9 20,27.9 24,27.9 24,31.9 
	28,31.9 28,27.9 32,27.9 32,23.9 36,23.9 36,19.9 40,19.9 40,16 44,16 44,12 47.9,12 47.9,8 47.9,4 "/>
<polygon class="st2" points="44,12 44,16 40,16 40,19.9 36,19.9 36,23.9 32,23.9 32,27.9 28,27.9 28,31.9 24,31.9 24,27.9 20,27.9 
	20,23.9 16,23.9 16,19.9 12,19.9 12,16 8,16 8,12 4,12 4,8 0,8 0,12 0,16 4,16 4,19.9 8,19.9 8,23.9 12,23.9 12,27.9 16,27.9 
	16,31.9 20,31.9 20,35.9 24,35.9 24,39.9 28,39.9 28,35.9 32,35.9 32,31.9 36,31.9 36,27.9 40,27.9 40,23.9 44,23.9 44,19.9 
	47.9,19.9 47.9,16 47.9,12 "/>
<polygon class="st0" points="83.9,4 79.9,4 79.9,8 75.9,8 75.9,12 71.9,12 71.9,8 67.9,8 67.9,4 63.9,4 59.9,4 59.9,8 63.9,8 
	63.9,12 67.9,12 67.9,16 71.9,16 71.9,19.9 75.9,19.9 75.9,16 79.9,16 79.9,12 83.9,12 83.9,8 87.9,8 87.9,4 "/>
<polygon class="st1" points="91.9,4 91.9,8 87.9,8 87.9,12 83.9,12 83.9,16 79.9,16 79.9,19.9 75.9,19.9 75.9,23.9 71.9,23.9 
	71.9,19.9 67.9,19.9 67.9,16 63.9,16 63.9,12 59.9,12 59.9,8 55.9,8 55.9,4 51.9,4 51.9,0 47.9,0 47.9,4 47.9,8 51.9,8 51.9,12 
	55.9,12 55.9,16 59.9,16 59.9,19.9 63.9,19.9 63.9,23.9 67.9,23.9 67.9,27.9 71.9,27.9 71.9,31.9 75.9,31.9 75.9,27.9 79.9,27.9 
	79.9,23.9 83.9,23.9 83.9,19.9 87.9,19.9 87.9,16 91.9,16 91.9,12 95.9,12 95.9,8 95.9,4 "/>
<polygon class="st2" points="91.9,12 91.9,16 87.9,16 87.9,19.9 83.9,19.9 83.9,23.9 79.9,23.9 79.9,27.9 75.9,27.9 75.9,31.9 
	71.9,31.9 71.9,27.9 67.9,27.9 67.9,23.9 63.9,23.9 63.9,19.9 59.9,19.9 59.9,16 55.9,16 55.9,12 51.9,12 51.9,8 47.9,8 47.9,12 
	47.9,16 51.9,16 51.9,19.9 55.9,19.9 55.9,23.9 59.9,23.9 59.9,27.9 63.9,27.9 63.9,31.9 67.9,31.9 67.9,35.9 71.9,35.9 71.9,39.9 
	75.9,39.9 75.9,35.9 79.9,35.9 79.9,31.9 83.9,31.9 83.9,27.9 87.9,27.9 87.9,23.9 91.9,23.9 91.9,19.9 95.9,19.9 95.9,16 95.9,12 
	"/>
<polygon class="st0" points="131.9,4 127.9,4 127.9,8 123.9,8 123.9,12 119.9,12 119.9,8 115.9,8 115.9,4 111.9,4 107.9,4 107.9,8 
	111.9,8 111.9,12 115.9,12 115.9,16 119.9,16 119.9,19.9 123.9,19.9 123.9,16 127.9,16 127.9,12 131.9,12 131.9,8 135.8,8 135.8,4 
	"/>
<polygon class="st1" points="139.8,4 139.8,8 135.8,8 135.8,12 131.9,12 131.9,16 127.9,16 127.9,19.9 123.9,19.9 123.9,23.9 
	119.9,23.9 119.9,19.9 115.9,19.9 115.9,16 111.9,16 111.9,12 107.9,12 107.9,8 103.9,8 103.9,4 99.9,4 99.9,0 95.9,0 95.9,4 
	95.9,8 99.9,8 99.9,12 103.9,12 103.9,16 107.9,16 107.9,19.9 111.9,19.9 111.9,23.9 115.9,23.9 115.9,27.9 119.9,27.9 119.9,31.9 
	123.9,31.9 123.9,27.9 127.9,27.9 127.9,23.9 131.9,23.9 131.9,19.9 135.8,19.9 135.8,16 139.8,16 139.8,12 143.8,12 143.8,8 
	143.8,4 "/>
<polygon class="st2" points="139.8,12 139.8,16 135.8,16 135.8,19.9 131.9,19.9 131.9,23.9 127.9,23.9 127.9,27.9 123.9,27.9 
	123.9,31.9 119.9,31.9 119.9,27.9 115.9,27.9 115.9,23.9 111.9,23.9 111.9,19.9 107.9,19.9 107.9,16 103.9,16 103.9,12 99.9,12 
	99.9,8 95.9,8 95.9,12 95.9,16 99.9,16 99.9,19.9 103.9,19.9 103.9,23.9 107.9,23.9 107.9,27.9 111.9,27.9 111.9,31.9 115.9,31.9 
	115.9,35.9 119.9,35.9 119.9,39.9 123.9,39.9 123.9,35.9 127.9,35.9 127.9,31.9 131.9,31.9 131.9,27.9 135.8,27.9 135.8,23.9 
	139.8,23.9 139.8,19.9 143.8,19.9 143.8,16 143.8,12 "/>
<polygon class="st0" points="179.8,4 175.8,4 175.8,8 171.8,8 171.8,12 167.8,12 167.8,8 163.8,8 163.8,4 159.8,4 155.8,4 155.8,8 
	159.8,8 159.8,12 163.8,12 163.8,16 167.8,16 167.8,19.9 171.8,19.9 171.8,16 175.8,16 175.8,12 179.8,12 179.8,8 183.8,8 183.8,4 
	"/>
<polygon class="st1" points="187.8,4 187.8,8 183.8,8 183.8,12 179.8,12 179.8,16 175.8,16 175.8,19.9 171.8,19.9 171.8,23.9 
	167.8,23.9 167.8,19.9 163.8,19.9 163.8,16 159.8,16 159.8,12 155.8,12 155.8,8 151.8,8 151.8,4 147.8,4 147.8,0 143.8,0 143.8,4 
	143.8,8 147.8,8 147.8,12 151.8,12 151.8,16 155.8,16 155.8,19.9 159.8,19.9 159.8,23.9 163.8,23.9 163.8,27.9 167.8,27.9 
	167.8,31.9 171.8,31.9 171.8,27.9 175.8,27.9 175.8,23.9 179.8,23.9 179.8,19.9 183.8,19.9 183.8,16 187.8,16 187.8,12 191.8,12 
	191.8,8 191.8,4 "/>
<polygon class="st2" points="187.8,12 187.8,16 183.8,16 183.8,19.9 179.8,19.9 179.8,23.9 175.8,23.9 175.8,27.9 171.8,27.9 
	171.8,31.9 167.8,31.9 167.8,27.9 163.8,27.9 163.8,23.9 159.8,23.9 159.8,19.9 155.8,19.9 155.8,16 151.8,16 151.8,12 147.8,12 
	147.8,8 143.8,8 143.8,12 143.8,16 147.8,16 147.8,19.9 151.8,19.9 151.8,23.9 155.8,23.9 155.8,27.9 159.8,27.9 159.8,31.9 
	163.8,31.9 163.8,35.9 167.8,35.9 167.8,39.9 171.8,39.9 171.8,35.9 175.8,35.9 175.8,31.9 179.8,31.9 179.8,27.9 183.8,27.9 
	183.8,23.9 187.8,23.9 187.8,19.9 191.8,19.9 191.8,16 191.8,12 "/>
<polygon class="st0" points="227.7,4 223.8,4 223.8,8 219.8,8 219.8,12 215.8,12 215.8,8 211.8,8 211.8,4 207.8,4 203.8,4 203.8,8 
	207.8,8 207.8,12 211.8,12 211.8,16 215.8,16 215.8,19.9 219.8,19.9 219.8,16 223.8,16 223.8,12 227.7,12 227.7,8 231.7,8 231.7,4 
	"/>
<polygon class="st1" points="235.7,4 235.7,8 231.7,8 231.7,12 227.7,12 227.7,16 223.8,16 223.8,19.9 219.8,19.9 219.8,23.9 
	215.8,23.9 215.8,19.9 211.8,19.9 211.8,16 207.8,16 207.8,12 203.8,12 203.8,8 199.8,8 199.8,4 195.8,4 195.8,0 191.8,0 191.8,4 
	191.8,8 195.8,8 195.8,12 199.8,12 199.8,16 203.8,16 203.8,19.9 207.8,19.9 207.8,23.9 211.8,23.9 211.8,27.9 215.8,27.9 
	215.8,31.9 219.8,31.9 219.8,27.9 223.8,27.9 223.8,23.9 227.7,23.9 227.7,19.9 231.7,19.9 231.7,16 235.7,16 235.7,12 239.7,12 
	239.7,8 239.7,4 "/>
<polygon class="st2" points="235.7,12 235.7,16 231.7,16 231.7,19.9 227.7,19.9 227.7,23.9 223.8,23.9 223.8,27.9 219.8,27.9 
	219.8,31.9 215.8,31.9 215.8,27.9 211.8,27.9 211.8,23.9 207.8,23.9 207.8,19.9 203.8,19.9 203.8,16 199.8,16 199.8,12 195.8,12 
	195.8,8 191.8,8 191.8,12 191.8,16 195.8,16 195.8,19.9 199.8,19.9 199.8,23.9 203.8,23.9 203.8,27.9 207.8,27.9 207.8,31.9 
	211.8,31.9 211.8,35.9 215.8,35.9 215.8,39.9 219.8,39.9 219.8,35.9 223.8,35.9 223.8,31.9 227.7,31.9 227.7,27.9 231.7,27.9 
	231.7,23.9 235.7,23.9 235.7,19.9 239.7,19.9 239.7,16 239.7,12 "/>
<polygon class="st0" points="275.7,4 271.7,4 271.7,8 267.7,8 267.7,12 263.7,12 263.7,8 259.7,8 259.7,4 255.7,4 251.7,4 251.7,8 
	255.7,8 255.7,12 259.7,12 259.7,16 263.7,16 263.7,19.9 267.7,19.9 267.7,16 271.7,16 271.7,12 275.7,12 275.7,8 279.7,8 279.7,4 
	"/>
<polygon class="st1" points="283.7,4 283.7,8 279.7,8 279.7,12 275.7,12 275.7,16 271.7,16 271.7,19.9 267.7,19.9 267.7,23.9 
	263.7,23.9 263.7,19.9 259.7,19.9 259.7,16 255.7,16 255.7,12 251.7,12 251.7,8 247.7,8 247.7,4 243.7,4 243.7,0 239.7,0 239.7,4 
	239.7,8 243.7,8 243.7,12 247.7,12 247.7,16 251.7,16 251.7,19.9 255.7,19.9 255.7,23.9 259.7,23.9 259.7,27.9 263.7,27.9 
	263.7,31.9 267.7,31.9 267.7,27.9 271.7,27.9 271.7,23.9 275.7,23.9 275.7,19.9 279.7,19.9 279.7,16 283.7,16 283.7,12 287.7,12 
	287.7,8 287.7,4 "/>
<polygon class="st2" points="283.7,12 283.7,16 279.7,16 279.7,19.9 275.7,19.9 275.7,23.9 271.7,23.9 271.7,27.9 267.7,27.9 
	267.7,31.9 263.7,31.9 263.7,27.9 259.7,27.9 259.7,23.9 255.7,23.9 255.7,19.9 251.7,19.9 251.7,16 247.7,16 247.7,12 243.7,12 
	243.7,8 239.7,8 239.7,12 239.7,16 243.7,16 243.7,19.9 247.7,19.9 247.7,23.9 251.7,23.9 251.7,27.9 255.7,27.9 255.7,31.9 
	259.7,31.9 259.7,35.9 263.7,35.9 263.7,39.9 267.7,39.9 267.7,35.9 271.7,35.9 271.7,31.9 275.7,31.9 275.7,27.9 279.7,27.9 
	279.7,23.9 283.7,23.9 283.7,19.9 287.7,19.9 287.7,16 287.7,12 "/>
<polygon class="st0" points="323.6,4 319.6,4 319.6,8 315.7,8 315.7,12 311.7,12 311.7,8 307.7,8 307.7,4 303.7,4 299.7,4 299.7,8 
	303.7,8 303.7,12 307.7,12 307.7,16 311.7,16 311.7,19.9 315.7,19.9 315.7,16 319.6,16 319.6,12 323.6,12 323.6,8 327.6,8 327.6,4 
	"/>
<polygon class="st1" points="331.6,4 331.6,8 327.6,8 327.6,12 323.6,12 323.6,16 319.6,16 319.6,19.9 315.7,19.9 315.7,23.9 
	311.7,23.9 311.7,19.9 307.7,19.9 307.7,16 303.7,16 303.7,12 299.7,12 299.7,8 295.7,8 295.7,4 291.7,4 291.7,0 287.7,0 287.7,4 
	287.7,8 291.7,8 291.7,12 295.7,12 295.7,16 299.7,16 299.7,19.9 303.7,19.9 303.7,23.9 307.7,23.9 307.7,27.9 311.7,27.9 
	311.7,31.9 315.7,31.9 315.7,27.9 319.6,27.9 319.6,23.9 323.6,23.9 323.6,19.9 327.6,19.9 327.6,16 331.6,16 331.6,12 335.6,12 
	335.6,8 335.6,4 "/>
<polygon class="st2" points="331.6,12 331.6,16 327.6,16 327.6,19.9 323.6,19.9 323.6,23.9 319.6,23.9 319.6,27.9 315.7,27.9 
	315.7,31.9 311.7,31.9 311.7,27.9 307.7,27.9 307.7,23.9 303.7,23.9 303.7,19.9 299.7,19.9 299.7,16 295.7,16 295.7,12 291.7,12 
	291.7,8 287.7,8 287.7,12 287.7,16 291.7,16 291.7,19.9 295.7,19.9 295.7,23.9 299.7,23.9 299.7,27.9 303.7,27.9 303.7,31.9 
	307.7,31.9 307.7,35.9 311.7,35.9 311.7,39.9 315.7,39.9 315.7,35.9 319.6,35.9 319.6,31.9 323.6,31.9 323.6,27.9 327.6,27.9 
	327.6,23.9 331.6,23.9 331.6,19.9 335.6,19.9 335.6,16 335.6,12 "/>
<polygon class="st0" points="371.6,4 367.6,4 367.6,8 363.6,8 363.6,12 359.6,12 359.6,8 355.6,8 355.6,4 351.6,4 347.6,4 347.6,8 
	351.6,8 351.6,12 355.6,12 355.6,16 359.6,16 359.6,19.9 363.6,19.9 363.6,16 367.6,16 367.6,12 371.6,12 371.6,8 375.6,8 375.6,4 
	"/>
<polygon class="st1" points="379.6,4 379.6,8 375.6,8 375.6,12 371.6,12 371.6,16 367.6,16 367.6,19.9 363.6,19.9 363.6,23.9 
	359.6,23.9 359.6,19.9 355.6,19.9 355.6,16 351.6,16 351.6,12 347.6,12 347.6,8 343.6,8 343.6,4 339.6,4 339.6,0 335.6,0 335.6,4 
	335.6,8 339.6,8 339.6,12 343.6,12 343.6,16 347.6,16 347.6,19.9 351.6,19.9 351.6,23.9 355.6,23.9 355.6,27.9 359.6,27.9 
	359.6,31.9 363.6,31.9 363.6,27.9 367.6,27.9 367.6,23.9 371.6,23.9 371.6,19.9 375.6,19.9 375.6,16 379.6,16 379.6,12 383.6,12 
	383.6,8 383.6,4 "/>
<polygon class="st2" points="379.6,12 379.6,16 375.6,16 375.6,19.9 371.6,19.9 371.6,23.9 367.6,23.9 367.6,27.9 363.6,27.9 
	363.6,31.9 359.6,31.9 359.6,27.9 355.6,27.9 355.6,23.9 351.6,23.9 351.6,19.9 347.6,19.9 347.6,16 343.6,16 343.6,12 339.6,12 
	339.6,8 335.6,8 335.6,12 335.6,16 339.6,16 339.6,19.9 343.6,19.9 343.6,23.9 347.6,23.9 347.6,27.9 351.6,27.9 351.6,31.9 
	355.6,31.9 355.6,35.9 359.6,35.9 359.6,39.9 363.6,39.9 363.6,35.9 367.6,35.9 367.6,31.9 371.6,31.9 371.6,27.9 375.6,27.9 
	375.6,23.9 379.6,23.9 379.6,19.9 383.6,19.9 383.6,16 383.6,12 "/>
<polygon class="st0" points="419.5,4 415.5,4 415.5,8 411.5,8 411.5,12 407.5,12 407.5,8 403.6,8 403.6,4 399.6,4 395.6,4 395.6,8 
	399.6,8 399.6,12 403.6,12 403.6,16 407.5,16 407.5,19.9 411.5,19.9 411.5,16 415.5,16 415.5,12 419.5,12 419.5,8 423.5,8 423.5,4 
	"/>
<polygon class="st1" points="427.5,4 427.5,8 423.5,8 423.5,12 419.5,12 419.5,16 415.5,16 415.5,19.9 411.5,19.9 411.5,23.9 
	407.5,23.9 407.5,19.9 403.6,19.9 403.6,16 399.6,16 399.6,12 395.6,12 395.6,8 391.6,8 391.6,4 387.6,4 387.6,0 383.6,0 383.6,4 
	383.6,8 387.6,8 387.6,12 391.6,12 391.6,16 395.6,16 395.6,19.9 399.6,19.9 399.6,23.9 403.6,23.9 403.6,27.9 407.5,27.9 
	407.5,31.9 411.5,31.9 411.5,27.9 415.5,27.9 415.5,23.9 419.5,23.9 419.5,19.9 423.5,19.9 423.5,16 427.5,16 427.5,12 431.5,12 
	431.5,8 431.5,4 "/>
<polygon class="st2" points="427.5,12 427.5,16 423.5,16 423.5,19.9 419.5,19.9 419.5,23.9 415.5,23.9 415.5,27.9 411.5,27.9 
	411.5,31.9 407.5,31.9 407.5,27.9 403.6,27.9 403.6,23.9 399.6,23.9 399.6,19.9 395.6,19.9 395.6,16 391.6,16 391.6,12 387.6,12 
	387.6,8 383.6,8 383.6,12 383.6,16 387.6,16 387.6,19.9 391.6,19.9 391.6,23.9 395.6,23.9 395.6,27.9 399.6,27.9 399.6,31.9 
	403.6,31.9 403.6,35.9 407.5,35.9 407.5,39.9 411.5,39.9 411.5,35.9 415.5,35.9 415.5,31.9 419.5,31.9 419.5,27.9 423.5,27.9 
	423.5,23.9 427.5,23.9 427.5,19.9 431.5,19.9 431.5,16 431.5,12 "/>
<polygon class="st0" points="467.5,4 463.5,4 463.5,8 459.5,8 459.5,12 455.5,12 455.5,8 451.5,8 451.5,4 447.5,4 443.5,4 443.5,8 
	447.5,8 447.5,12 451.5,12 451.5,16 455.5,16 455.5,19.9 459.5,19.9 459.5,16 463.5,16 463.5,12 467.5,12 467.5,8 471.5,8 471.5,4 
	"/>
<g>
	<rect x="12" y="8" class="st3" width="4" height="4"/>
	<rect x="36" y="8" class="st3" width="4" height="4"/>
	<rect x="16" y="12" class="st3" width="4" height="4"/>
	<rect x="32" y="12" class="st3" width="4" height="4"/>
	<rect x="20" y="16" class="st3" width="4" height="4"/>
	<rect x="28" y="16" class="st3" width="4" height="4"/>
	<rect x="24" y="19.9" class="st3" width="4" height="4"/>
	<rect x="59.9" y="8" class="st3" width="4" height="4"/>
	<rect x="83.9" y="8" class="st3" width="4" height="4"/>
	<rect x="63.9" y="12" class="st3" width="4" height="4"/>
	<rect x="79.9" y="12" class="st3" width="4" height="4"/>
	<rect x="67.9" y="16" class="st3" width="4" height="4"/>
	<rect x="75.9" y="16" class="st3" width="4" height="4"/>
	<rect x="71.9" y="19.9" class="st3" width="4" height="4"/>
	<rect x="107.9" y="8" class="st3" width="4" height="4"/>
	<rect x="131.9" y="8" class="st3" width="4" height="4"/>
	<rect x="111.9" y="12" class="st3" width="4" height="4"/>
	<rect x="127.9" y="12" class="st3" width="4" height="4"/>
	<rect x="115.9" y="16" class="st3" width="4" height="4"/>
	<rect x="123.9" y="16" class="st3" width="4" height="4"/>
	<rect x="119.9" y="19.9" class="st3" width="4" height="4"/>
	<rect x="155.8" y="8" class="st3" width="4" height="4"/>
	<rect x="179.8" y="8" class="st3" width="4" height="4"/>
	<rect x="159.8" y="12" class="st3" width="4" height="4"/>
	<rect x="175.8" y="12" class="st3" width="4" height="4"/>
	<rect x="163.8" y="16" class="st3" width="4" height="4"/>
	<rect x="171.8" y="16" class="st3" width="4" height="4"/>
	<rect x="167.8" y="19.9" class="st3" width="4" height="4"/>
	<rect x="203.8" y="8" class="st3" width="4" height="4"/>
	<rect x="227.7" y="8" class="st3" width="4" height="4"/>
	<rect x="207.8" y="12" class="st3" width="4" height="4"/>
	<rect x="223.8" y="12" class="st3" width="4" height="4"/>
	<rect x="211.8" y="16" class="st3" width="4" height="4"/>
	<rect x="219.8" y="16" class="st3" width="4" height="4"/>
	<rect x="215.8" y="19.9" class="st3" width="4" height="4"/>
	<rect x="251.7" y="8" class="st3" width="4" height="4"/>
	<rect x="275.7" y="8" class="st3" width="4" height="4"/>
	<rect x="255.7" y="12" class="st3" width="4" height="4"/>
	<rect x="271.7" y="12" class="st3" width="4" height="4"/>
	<rect x="259.7" y="16" class="st3" width="4" height="4"/>
	<rect x="267.7" y="16" class="st3" width="4" height="4"/>
	<rect x="263.7" y="19.9" class="st3" width="4" height="4"/>
	<rect x="299.7" y="8" class="st3" width="4" height="4"/>
	<rect x="323.6" y="8" class="st3" width="4" height="4"/>
	<rect x="303.7" y="12" class="st3" width="4" height="4"/>
	<rect x="319.6" y="12" class="st3" width="4" height="4"/>
	<rect x="307.7" y="16" class="st3" width="4" height="4"/>
	<rect x="315.7" y="16" class="st3" width="4" height="4"/>
	<rect x="311.7" y="19.9" class="st3" width="4" height="4"/>
	<rect x="347.6" y="8" class="st3" width="4" height="4"/>
	<rect x="371.6" y="8" class="st3" width="4" height="4"/>
	<rect x="351.6" y="12" class="st3" width="4" height="4"/>
	<rect x="367.6" y="12" class="st3" width="4" height="4"/>
	<rect x="355.6" y="16" class="st3" width="4" height="4"/>
	<rect x="363.6" y="16" class="st3" width="4" height="4"/>
	<rect x="359.6" y="19.9" class="st3" width="4" height="4"/>
	<rect x="395.6" y="8" class="st3" width="4" height="4"/>
	<rect x="419.5" y="8" class="st3" width="4" height="4"/>
	<rect x="399.6" y="12" class="st3" width="4" height="4"/>
	<rect x="415.5" y="12" class="st3" width="4" height="4"/>
	<rect x="403.6" y="16" class="st3" width="4" height="4"/>
	<rect x="411.5" y="16" class="st3" width="4" height="4"/>
	<rect x="407.5" y="19.9" class="st3" width="4" height="4"/>
	<polygon class="st3" points="0,0 4,0 4,4 8,4 8,8 12,8 12,4 16,4 20,4 20,8 24,8 24,12 28,12 28,8 32,8 32,4 36,4 40,4 40,8 44,8 
		44,4 47.9,4 47.9,0 51.9,0 51.9,4 55.9,4 55.9,8 59.9,8 59.9,4 63.9,4 67.9,4 67.9,8 71.9,8 71.9,12 75.9,12 75.9,8 79.9,8 79.9,4 
		83.9,4 87.9,4 87.9,8 91.9,8 91.9,4 95.9,4 95.9,0 99.9,0 99.9,4 103.9,4 103.9,8 107.9,8 107.9,4 111.9,4 115.9,4 115.9,8 
		119.9,8 119.9,12 123.9,12 123.9,8 127.9,8 127.9,4 131.9,4 135.8,4 135.8,8 139.8,8 139.8,4 143.8,4 143.8,0 147.8,0 147.8,4 
		151.8,4 151.8,8 155.8,8 155.8,4 159.8,4 163.8,4 163.8,8 167.8,8 167.8,12 171.8,12 171.8,8 175.8,8 175.8,4 179.8,4 183.8,4 
		183.8,8 187.8,8 187.8,4 191.8,4 191.8,0 195.8,0 195.8,4 199.8,4 199.8,8 203.8,8 203.8,4 207.8,4 211.8,4 211.8,8 215.8,8 
		215.8,12 219.8,12 219.8,8 223.8,8 223.8,4 227.7,4 231.7,4 231.7,8 235.7,8 235.7,4 239.7,4 239.7,0 243.7,0 243.7,4 247.7,4 
		247.7,8 251.7,8 251.7,4 255.7,4 259.7,4 259.7,8 263.7,8 263.7,12 267.7,12 267.7,8 271.7,8 271.7,4 275.7,4 279.7,4 279.7,8 
		283.7,8 283.7,4 287.7,4 287.7,0 291.7,0 291.7,4 295.7,4 295.7,8 299.7,8 299.7,4 303.7,4 307.7,4 307.7,8 311.7,8 311.7,12 
		315.7,12 315.7,8 319.6,8 319.6,4 323.6,4 327.6,4 327.6,8 331.6,8 331.6,4 335.6,4 335.6,0 339.6,0 339.6,4 343.6,4 343.6,8 
		347.6,8 347.6,4 351.6,4 355.6,4 355.6,8 359.6,8 359.6,12 363.6,12 363.6,8 367.6,8 367.6,4 371.6,4 375.6,4 375.6,8 379.6,8 
		379.6,4 383.6,4 383.6,0 387.6,0 387.6,4 391.6,4 391.6,8 395.6,8 395.6,4 399.6,4 403.6,4 403.6,8 407.5,8 407.5,12 411.5,12 
		411.5,8 415.5,8 415.5,4 419.5,4 423.5,4 423.5,8 427.5,8 427.5,4 431.5,4 431.5,0 435.5,0 435.5,4 439.5,4 439.5,8 443.5,8 
		443.5,4 447.5,4 451.5,4 451.5,8 455.5,8 455.5,12 459.5,12 459.5,8 463.5,8 463.5,4 467.5,4 471.5,4 471.5,8 475.5,8 475.5,4 
		479.5,4 479.5,0 	"/>
	<rect x="443.5" y="8" class="st3" width="4" height="4"/>
	<rect x="467.5" y="8" class="st3" width="4" height="4"/>
	<rect x="447.5" y="12" class="st3" width="4" height="4"/>
	<rect x="463.5" y="12" class="st3" width="4" height="4"/>
	<rect x="451.5" y="16" class="st3" width="4" height="4"/>
	<rect x="459.5" y="16" class="st3" width="4" height="4"/>
	<rect x="455.5" y="19.9" class="st3" width="4" height="4"/>
</g>
<polygon class="st1" points="475.5,4 475.5,8 471.5,8 471.5,12 467.5,12 467.5,16 463.5,16 463.5,19.9 459.5,19.9 459.5,23.9 
	455.5,23.9 455.5,19.9 451.5,19.9 451.5,16 447.5,16 447.5,12 443.5,12 443.5,8 439.5,8 439.5,4 435.5,4 435.5,0 431.5,0 431.5,4 
	431.5,8 435.5,8 435.5,12 439.5,12 439.5,16 443.5,16 443.5,19.9 447.5,19.9 447.5,23.9 451.5,23.9 451.5,27.9 455.5,27.9 
	455.5,31.9 459.5,31.9 459.5,27.9 463.5,27.9 463.5,23.9 467.5,23.9 467.5,19.9 471.5,19.9 471.5,16 475.5,16 475.5,12 479.5,12 
	479.5,8 479.5,4 "/>
<polygon class="st2" points="475.5,12 475.5,16 471.5,16 471.5,19.9 467.5,19.9 467.5,23.9 463.5,23.9 463.5,27.9 459.5,27.9 
	459.5,31.9 455.5,31.9 455.5,27.9 451.5,27.9 451.5,23.9 447.5,23.9 447.5,19.9 443.5,19.9 443.5,16 439.5,16 439.5,12 435.5,12 
	435.5,8 431.5,8 431.5,12 431.5,16 435.5,16 435.5,19.9 439.5,19.9 439.5,23.9 443.5,23.9 443.5,27.9 447.5,27.9 447.5,31.9 
	451.5,31.9 451.5,35.9 455.5,35.9 455.5,39.9 459.5,39.9 459.5,35.9 463.5,35.9 463.5,31.9 467.5,31.9 467.5,27.9 471.5,27.9 
	471.5,23.9 475.5,23.9 475.5,19.9 479.5,19.9 479.5,16 479.5,12 "/>
</svg>
