<?xml version="1.0" encoding="utf-8"?>
<!-- Generator: Adobe Illustrator 25.0.0, SVG Export Plug-In . SVG Version: 6.00 Build 0)  -->
<svg version="1.1" id="Capa_1" xmlns="http://www.w3.org/2000/svg" xmlns:xlink="http://www.w3.org/1999/xlink" x="0px" y="0px"
	 viewBox="0 0 192 99.2" style="enable-background:new 0 0 192 99.2;" xml:space="preserve">
<style type="text/css">
	.st0{fill:url(#SVGID_1_);}
	.st1{opacity:0.25;}
</style>
<radialGradient id="SVGID_1_" cx="95.8" cy="52.4" r="76.2817" gradientTransform="matrix(1 0 0 -1 0 102)" gradientUnits="userSpaceOnUse">
	<stop  offset="0" style="stop-color:#FF8E5E"/>
	<stop  offset="0.4962" style="stop-color:#FF462F"/>
	<stop  offset="1" style="stop-color:#FF0001"/>
</radialGradient>
<path class="st0" d="M191.2,0l-8.9,13.7l9.3,10.9l-9.1,11l9.1,10.9l-9.3,10.9l9.3,10.9l-9.3,10.9l9.3,10.9l-8.5,9.1H9.3L0,88.5
	l9.2-10.9L0,66.6l9.3-10.9L0,44.8l9.3-10.9L0,23l9.2-11L0.5,0H191.2z"/>
<path class="st1" d="M121.3,74.5c0.5-2.8,1-5.6,1.5-8.4c0.4-2.4,0.2-4.8-0.7-7.1c-1.5-3.7-1.6-7.5-0.6-11.3c1-3.8,2.1-7.6,3.2-11.4
	c0.2-0.8,0-1.1-0.7-1.4c-0.9-0.4-1.9-0.7-2.8-1.2c-0.5-0.3-1-0.8-1.2-1.3c-0.8-2.1,0.8-5.1,2.9-5.7c2.8-0.8,5.6-1.6,8.4-2.4
	c0.7-0.2,1-0.5,1.1-1.2c0.7-4.2,1.5-8.4,2.3-12.6c0.3-1.6,0.3-1.6,2-1.9c1.6-0.2,2.7,0.6,3,2.2c0.2,1.3,0.2,2.5,0.3,3.8
	c0.3,2.9,0.5,5.9,0.9,8.8c0.1,0.9,0.2,1.8,0.6,2.5c1.6,3.3,2.1,6.8,1.5,10.4c-0.3,2.1-0.9,4.1-1.3,6.1c-0.3,1.5,0.1,2,1.6,2.4
	c3.5,1.1,7.1,1.5,10.8,1.5c3.1,0,6.1-0.3,9.1,0.5c1.6,0.4,2.9,0.1,4.2-0.9c0.6-0.5,1.2-1,1.9-1.5c0.7-0.5,1.7-0.2,2.2,0.6
	c0.5,0.8-0.1,1.2-0.6,1.5c-0.8,0.5-1.7,0.9-2.8,1.5c1.1,0.3,2.1,0.6,3.1,0.8c2.5,0.5,5,0.8,7.6,1.2c1.3,0.2,1.6,0.6,1.3,1.8
	c-0.2,1-0.5,1.9-0.7,2.9c-0.1,0.5-0.5,0.8-1,0.5c-2.3-1.1-4.6-2.2-6.9-3.3c-0.2-0.1-0.4-0.2-0.7-0.4c0.1,0.2,0.1,0.3,0.2,0.4
	c2.3,2.9,4.6,5.6,8.1,7.1c1.2,0.5,1.3,1.3,0.3,2.2c-0.5,0.5-1.1,0.8-1.6,1.3c-0.2,0.3-0.4,0.7-0.4,1.1c0.1,1.4,0.3,2.8,0.3,4.2
	c0,0.7-0.2,1.4-0.4,2.1c-0.1,0.5-0.5,0.7-1,0.4c-1.4-0.8-2.7-1.6-2.2-3.5c0-0.2,0-0.4,0-0.6c-0.2-2.1-0.8-4.1-2.1-5.8
	c0.1,0.7,0.3,1.5,0.4,2.2c0.8,4.3,0.3,8.6-0.4,12.8c0,0.3-0.1,0.6-0.2,0.8c-0.3,0.8-1.1,1.1-2,0.9c-1-0.2-1.3-0.6-1.3-1.6
	c0-1.1,0-2.3,0.1-3.3c-0.7-0.3-1.3-0.5-1.9-0.7c0,0.2-0.1,0.5-0.1,0.8c-0.1,1.4-0.2,2.9-0.4,4.3c0,0.4-0.2,0.9-0.5,1
	c-0.3,0.1-0.8-0.1-1.1-0.3c-0.7-0.5-1.1-1.1-1-2c0-0.4,0-0.9,0-1.1c-2-1.4-1.1-3.6-2-5.5c-0.4,2.9-0.8,5.5-1.2,8.1
	c-0.2,1-0.4,2-0.7,2.9c-0.3,0.8-0.7,1.6-1.7,1.8c-2.8,0.5-5.3,0-7.7-1.6c-0.6-0.4-0.7-0.8-0.7-1.5c0.4-3.6,0.8-7.2,1.1-10.7
	c0.2-2,0.2-2-1.7-2.8c-4.4-1.9-9.1-2-13.8-1.8c-0.1,0.4-0.2,0.8-0.3,1.2c-0.7,3.6-1.4,7.2-2.1,10.8c-0.2,1.3-0.9,1.9-2,2.2
	c-3.3,0.7-6.3,0-8.9-2C121.5,75.1,121.4,74.8,121.3,74.5z M160.3,63.1c0.6,0.1,0.9-0.6,1-2.5c-0.3,0-0.5,0-0.8-0.1
	c-2.3-0.4-4.6-0.7-6.9-1.2c-3.9-0.7-7.9-1.7-11.8-2.3c-3.9-0.6-7.9-1-11.7-1.4c-0.1,0.6-0.1,1.2-0.2,1.9c0.4-0.5,0.8-1.1,1.3-1.2
	c0.4-0.1,0.9,0.3,1.6,0.6c0.4-0.3,1.2-0.9,2-0.2c0.2,0.2-0.1,0.9-0.2,1.5c0.3-0.2,0.5-0.5,0.7-0.6c0.5-0.2,1-0.3,1.4-0.3
	c0.1,0,0.2,0.7,0.3,1.2c0.1-0.1,0.3-0.2,0.3-0.4c0.3-0.7,0.7-1.2,1.6-0.9c0.9,0.4,0.3,1,0.2,1.5c0.6-0.2,1.1-0.5,1.6-0.5
	c1,0,0.4,0.8,0.4,1.3c0.1,0,0.2,0.1,0.2,0.1c0.2-0.3,0.3-0.7,0.6-1c0.3-0.3,0.5-0.7,0.9-0.8c0.3-0.1,0.8,0.1,1.1,0.4
	c0.1,0.1,0,0.6-0.1,0.9c-0.1,0.3-0.3,0.5-0.5,1c0.8-0.5,1.3-1.2,1.9-1.2c1,0,1,0.8,0.8,1.6c0.1,0,0.2,0.1,0.3,0.1
	c0.3-0.4,0.5-0.8,0.8-1.1c0.3-0.3,0.8-0.7,1.2-0.8c0.9-0.1,1.3,0.6,1,1.5c-0.1,0.2-0.2,0.5-0.2,0.8c0.7-0.7,1.3-1.5,2.3-0.7
	c0.2,0.1,0,0.7,0.1,1.3c0.3-0.3,0.6-0.6,0.9-0.9c0.5-0.6,1.2-0.7,1.6-0.1c0.2,0.3,0.1,0.8,0.1,1.3c0.3-0.4,0.5-0.8,0.7-1.2
	c0.3-0.6,0.7-0.8,1.4-0.6c0.8,0.2,1,0.7,0.5,1.4c-0.2,0.2-0.4,0.5-0.5,0.8c0.8-0.5,1.4-1.7,2.6-0.4c0.3-1.1,1-1.5,2.1-1.4
	C160.9,61.1,160.9,61.1,160.3,63.1z M130.1,30.2c-0.2,1.5-1,2.2-2.2,2.2c-1.4,0-2.3-0.9-2.4-2.3c0-0.2-0.2-0.3-0.3-0.5
	c-0.1,0.1-0.4,0.3-0.4,0.4c-0.1,1-0.2,1.9-0.3,2.8c5.8,1,11.5,1.9,17.2,2.9c0-1.3,0.1-2.5,0-3.8c0-0.3-0.5-0.6-0.8-0.7
	c-2.4-0.4-4.9-0.8-7.4-1.2c-1.1-0.2-2.2-0.2-3.3-0.3C130.2,30,130.1,30.1,130.1,30.2z M126.4,45.7c0.1,0,0.1,0.7,0.2,1.2
	c0.5-0.9,0.9-2.1,2.3-1.2c0.4,0.3,0.4,0.3-0.2,1.9c1.1-0.4,2-1.9,3.1-0.2c0.4-0.7,0.9-1.4,1.8-0.9c0.3,0.2,0.5,0.6,0.8,0.9
	c0.2,0,0.7,0,1.1,0.1c0.2,0.1,0.2,0.5,0.3,0.7c0.3-0.1,0.7-0.4,1.1-0.4c0.3,0,0.6,0.4,1,0.7c0.3-0.5,0.8-1.2,1.7-0.6
	c0.3,0.2,0.3,0.7,0.5,1.1c0.6-0.6,1.3-1.3,2.4-0.2c-0.7-1.1-1.2-2.1-2.8-2.4c-4.7-0.8-9.4-1.8-14.1-2.8c-0.3-0.1-0.6-0.2-0.9-0.2
	c-0.1,0-0.3,0.1-0.4,0.2c-0.1,0.1,0,0.4,0,0.4c1,0.3,0.8,1.1,0.6,1.7C125.3,45.7,125.9,45.6,126.4,45.7z M139.9,27.9
	c0.3-0.2,0.5-0.5,0.8-0.7c-0.4-1.9-0.6-2.1-2.3-2.4c-1.4-0.2-2.8-0.3-4.2-0.2c-0.6,0-1.2,0.4-1.9,0.6c-0.6,0.2-1.3,0.4-1.9,0.6
	c-0.3,0.1-0.6,0.4-0.7,0.7c0.4-0.1,0.7-0.4,1.1-0.4c0.3,0,0.5,0.4,0.8,0.7c0.2-0.5,0.2-1.7,1.4-1.3c1.1,0.4,0.4,1.2,0.3,1.8
	c0.5-0.2,1-0.6,1.4-0.6c0.3,0,0.7,0.5,1.1,0.9c0.3-0.4,0.2-1.8,1.6-1.2c1.1,0.4,0.1,1.2,0.3,1.9C138.6,27.1,138.7,27.1,139.9,27.9z
	 M137.8,38.5c0.8-0.2,1.7-0.4,2.6-0.6c0-0.1,0-0.2,0-0.3c-4.7-0.8-9.4-1.6-14.2-2.5c-0.1,0.3-0.2,0.6-0.2,0.8
	c0.1,0.5,0.3,0.8,0.9,0.4c0.2-0.2,0.6-0.3,0.9-0.3c0.8,0,1,0.4,0.6,1.4c0.7-0.4,1.4-1,1.9,0.1c0.8-1.1,1-1.1,2.2-0.3
	c0.6,0.3,1.3,0.4,1.9,0.6c0.4,0.1,0.7,0.2,1.2,0.4C136.4,37.3,136.9,37.4,137.8,38.5z M159.1,53.4c-1.2,1.2-2.4,2.3-3.8,3.6
	c2.1,0.4,3.9,0.8,5.8,1.1c0.1-0.1,0.1-0.2,0.2-0.2C160.6,56.4,159.9,55,159.1,53.4z M155.5,50.4c0.6-0.2,1.1-0.4,1.6-0.5
	c0.2,0,0.3,0.5,0.5,0.8c1-0.4,1.4-0.1,1.5,0.7c0.4-0.3,0.9-0.6,1.4-0.8c0.2-0.1,0.5,0.5,0.8,0.8c0.4-0.6,0.6-1.9,2-1.1
	c0.1-0.1,0.1-0.2,0.2-0.2c-0.2-0.2-0.4-0.6-0.6-0.6c-2.3-0.3-4.6-0.6-6.9-0.8c-0.4,0-0.9,0-1.4,0.2c-0.5,0.2-0.9,0.6-0.5,1.1
	C154.7,50.3,155.2,50.4,155.5,50.4z M158.6,52.7c-2.1-0.3-4-0.6-6.1-1c0.8,1.6,1.5,3,2.3,4.6C156.1,55.1,157.3,54,158.6,52.7z
	 M148.1,55.6c2,0.4,3.8,0.7,5.9,1.1c-0.8-1.6-1.6-3.1-2.4-4.7C150.4,53.2,149.3,54.4,148.1,55.6z M124.3,66.3
	c0.6,0.2,1.2,0.2,1.4,0.5c0.2,0.3-0.1,0.9,0,1.4c0.2-0.5,0.4-0.9,0.6-1.4c0.3-0.7,0.8-0.9,1.5-0.7c0.9,0.3,1,0.7,0.5,1.5
	c-0.2,0.3-0.4,0.6-0.6,0.9c0.1,0.1,0.1,0.1,0.2,0.2c0.2-0.2,0.4-0.5,0.6-0.6c0.3-0.3,0.7-0.7,1-0.7c0.3,0,0.7,0.5,1,0.7
	c0.7-1.3,0.7-1.3,2.1-1.4c0-0.1,0-0.2,0.1-0.3c-1.4-0.2-2.7-0.4-4.1-0.7c-1.4-0.3-2.7-0.6-4.2-1C124.5,65.2,124.4,65.8,124.3,66.3z
	 M150.9,51.5c-2-0.2-3.7-0.4-5.7-0.5c0.8,1.5,1.4,2.8,2.1,4.2C148.5,54,149.6,52.8,150.9,51.5z M127.4,52.1c1.2-1.1,2.3-2.1,3.5-3.3
	c-2-0.4-3.7-0.8-5.7-1.2C126,49.1,126.6,50.5,127.4,52.1z M134.2,53.6c1.1-1.3,2-2.5,3.1-3.8c-1.8-0.3-3.4-0.6-5.2-0.9
	C132.8,50.6,133.5,52,134.2,53.6z M131.4,49.4c-1.2,1.1-2.3,2.2-3.5,3.4c1.9,0.4,3.5,0.7,5.4,1C132.6,52.3,132,50.9,131.4,49.4z
	 M138.7,13.5c-0.1-1-0.2-1.9-0.3-2.8c-0.1-0.9-0.8-0.8-1.4-0.9c-0.6,0-1,0.2-1.1,0.9c-0.1,0.7-0.3,1.4-0.3,2.1
	c0,0.4,0.1,0.8,0.2,1.4C136.9,13.8,137.8,13.7,138.7,13.5z M140.7,54.4c1.1-1.2,2-2.3,3.1-3.6c-1.8-0.3-3.4-0.5-5.2-0.7
	C139.3,51.6,140,52.9,140.7,54.4z M137.9,50.4c-1,1.3-2,2.4-3,3.6c1.7,0.2,3.2,0.5,5,0.7C139.2,53.2,138.6,51.9,137.9,50.4z
	 M141.4,54.9c1.8,0.2,3.3,0.3,5.1,0.5c-0.7-1.5-1.3-2.7-2-4.2C143.4,52.5,142.4,53.7,141.4,54.9z M124.5,48c-1.1,0.8-2.1,1.4-2,2.9
	c0,0.2,0.2,0.6,0.3,0.7c1.2,0.3,2.4,0.6,3.9,1C125.9,50.9,125.2,49.5,124.5,48z M154.4,68.4c1.1-1.1,2-2,3.1-3.1
	c-1.8-0.3-3.5-0.6-5.4-0.9C153,65.8,153.7,67.1,154.4,68.4z M152.6,70.5c0.1,0.4-0.2,1-0.3,1.3c0.5-0.2,1.1-0.4,1.7-0.5
	c0.1,0,0.3,0.6,0.5,0.9c0.5-0.5,0.5-1.9,1.8-1.1c0.3,0.2,0.3,0.8,0.4,1.2c0.3-0.7,0.6-1.4,1-2.2c-2.1-0.2-4.2-0.4-6.3-0.7
	c0,0.1,0,0.1,0,0.2C151.8,69.9,152.5,70.1,152.6,70.5z M159.8,69.3c-0.6-1.2-1.1-2.3-1.6-3.4c-1,1.1-2,2.1-3.1,3.2
	C156.7,69.1,158.1,69.2,159.8,69.3z M128.7,64.1c1-1.1,1.8-2.2,2.8-3.3c-1.5-0.2-2.8-0.3-4.4-0.4C127.7,61.7,128.2,62.8,128.7,64.1z
	 M131.9,61.6c-0.9,1.1-1.8,2.1-2.8,3.3c1.3,0.2,2.5,0.4,3.9,0.6C132.6,64.1,132.3,62.9,131.9,61.6z M162.9,54
	c0.1-0.2,0.1-0.4,0.1-0.7c-1-0.1-2-0.2-3.2-0.3c0.7,1.5,1.4,2.8,2,4.2c0.1,0,0.1,0,0.2,0C162.3,56.1,162.6,55,162.9,54z M174.4,63.3
	c0.3,1.5,0.4,3,0.6,4.5c0.1,0.4,0.3,0.8,0.5,1.2c1.2-2.6,0.1-6.5-2.5-9C173.6,61.2,174.2,62.2,174.4,63.3z M126.3,60.7
	c-0.6,0.9-1.1,1.6-1.6,2.3c-0.3,0.4-0.1,0.8,0.4,0.9c0.9,0.2,1.8,0.5,2.7,0.8c0.1-0.1,0.1-0.1,0.2-0.2
	C127.5,63.2,126.9,62.1,126.3,60.7z M124.7,54.9c1.1,0.7-0.5,1.4-0.2,2.4c0.3-0.3,0.5-0.4,0.7-0.6c0.4-0.5,0.8-1.1,1.4-0.8
	c0.4,0.2,0.5,0.8,0.8,1.3c0.3-0.5,0.8-1.1,1.2-1.8c-2-0.5-4-1-6.2-1.5c0,0.3,0,0.6,0,0.6C123.3,54.6,124.1,54.5,124.7,54.9z
	 M138.4,41c-0.7,0.9-1.4,1.7-2.2,2.7c1.3,0.2,2.4,0.4,3.8,0.6C139.4,43.1,138.9,42.1,138.4,41z M135.2,43.5c-0.4-1.1-0.8-2-1.2-3.2
	c-0.8,0.9-1.4,1.7-2.2,2.6C133,43.1,134,43.2,135.2,43.5z M130,39.2c0.4,1.1,0.8,2,1.2,3.1c0.8-0.9,1.4-1.6,2.2-2.6
	C132.2,39.5,131.2,39.3,130,39.2z M130.4,42.5c-0.4-1.1-0.8-2-1.2-3.1c-0.8,0.8-1.4,1.5-2.2,2.3C128.2,42,129.2,42.2,130.4,42.5z
	 M137.9,40.3c-1.1-0.2-2.1-0.3-3.2-0.4c0.4,1,0.7,1.9,1.2,3C136.6,41.9,137.2,41.1,137.9,40.3z M156.9,80.5c0.1,0,0.4-0.4,0.3-0.6
	c-0.2-0.7-0.5-1.3-0.8-2.1c-0.7,1-1.3,1.8-1.9,2.7c0,0.1,0.1,0.2,0.1,0.3C155.4,80.6,156.1,80.6,156.9,80.5z M173.3,57.4
	c-0.1,0-0.1,0.1-0.2,0.1c1.1,1.2,2.1,2.4,3.3,3.5c0.2,0.2,0.9-0.3,1.5-0.4C176.2,59.4,174.8,58.4,173.3,57.4z M155.8,77.2
	c-1.1-0.1-2.1-0.1-3.1-0.2c0.4,1,0.8,1.9,1.2,2.9C154.5,78.9,155.1,78.1,155.8,77.2z M129.5,73.5c-1.1-0.2-2-0.4-3-0.6
	c0.4,1,0.7,1.9,1.1,2.9C128.3,75,128.8,74.3,129.5,73.5z M152,77.5c-0.1,0-0.2-0.1-0.3-0.1c-0.3,0.6-1.1,1.6-0.9,1.8
	c0.6,0.6,1.4,0.9,2.1,1.3c0.1-0.1,0.2-0.2,0.2-0.3C152.7,79.3,152.3,78.4,152,77.5z M163.1,72.1c0.1,0,0.2,0,0.3,0
	c0.1-1.7,1.4-3.5-0.7-5.2C162.8,68.7,163,70.4,163.1,72.1z M126.5,41c0.7-0.7,1.3-1.3,2.1-2.1c-1-0.2-1.9-0.4-2.9-0.7
	C125.9,39.2,126.2,40,126.5,41z M126.8,76.4c-0.4-1.1-0.7-2-1.1-3.1c-0.6,0.8-1.1,1.4-1.6,2.1C125,75.8,125.8,76,126.8,76.4z
	 M168,60.7c0,3.3,0,6.7,0,10c0.1,0,0.2,0,0.3,0C168.5,67.4,168.6,64.1,168,60.7z M152,65.8c-0.1,0-0.2,0-0.2,0
	c-0.1,0.9-0.2,1.7-0.3,2.7c0.7,0.1,1.4,0.3,2.3,0.4C153.1,67.7,152.5,66.7,152,65.8z M132.8,60.9c0.2,0.9,0.4,1.7,0.5,2.3
	c0.8-0.6,1.5-1.2,2.4-1.8C134.7,61.2,133.8,61,132.8,60.9z M166.5,62.6c-0.5,2.6-1.1,5.3-1.6,7.9c0.1,0,0.2,0,0.3,0
	C165.4,67.9,167.1,65.4,166.5,62.6z M129.2,76.5c0.5-0.1,1.3-0.3,1.3-0.5c0-0.6-0.3-1.1-0.5-1.9c-0.7,0.9-1.3,1.6-2,2.4
	C128.6,76.5,128.9,76.5,129.2,76.5z M138.7,17.8c0-0.1,0-0.3,0-0.4c-1.2-0.1-2.4-0.2-3.8-0.4c0.3,0.5,0.4,0.8,0.6,1.1
	C136.5,18,137.6,17.9,138.7,17.8z M127.7,70.6c-0.2,0.6-0.4,1.1-0.5,1.6c2-1.1,2-1.1,2.5-0.1c0.3-0.4,0.5-0.7,0.8-1.2
	C129.4,70.8,128.5,70.7,127.7,70.6z M154.5,76.3c0.8-0.7,1.3-1.9,2.4-0.7c0.3-0.3,0.5-0.5,0.9-0.9c-1-0.1-1.9-0.1-2.7-0.2
	C154.8,75.1,154.7,75.6,154.5,76.3z M167.4,52.3c-0.1,0.1-0.2,0.1-0.3,0.2c1.1,1.4,2.2,2.9,3.3,4.3c0.1-0.1,0.2-0.1,0.2-0.2
	C169.6,55.2,168.5,53.8,167.4,52.3z M123.5,72.2c0.2,0.7,0.3,1.3,0.4,2.1c0.4-0.6,0.8-1,1.3-1.6C124.5,72.5,124.1,72.4,123.5,72.2z
	 M124,59.7c0.2,0.7,0.3,1.3,0.4,2.1c0.5-0.7,0.8-1.1,1.2-1.8C125.1,60,124.6,59.8,124,59.7z M158.9,65.5c0.4,0.7,0.6,1.3,0.9,1.9
	c0.1,0,0.2,0,0.2,0c0.1-0.5,0.2-1.1,0.3-1.7C159.9,65.6,159.5,65.6,158.9,65.5z M140.6,40.5c-0.5-0.1-0.9-0.1-1.5-0.2
	c0.3,0.8,0.6,1.4,0.9,2c0.1,0,0.1,0,0.2,0C140.3,41.8,140.4,41.2,140.6,40.5z M151.1,74.2c0,0.1-0.1,0.2-0.1,0.3
	c0.6,0.4,2,0.1,1.4,1.5c0.3-0.5,0.6-1,0.9-1.6C152.5,74.3,151.8,74.2,151.1,74.2z M170.6,70.2c-0.5,0.6-0.9,1.2-1.4,1.8
	c0.1,0.1,0.2,0.2,0.3,0.3C170.3,71.8,171,71.4,170.6,70.2z M169.6,74.8c0.5-0.7,0.8-1.3,1.2-2c-0.1-0.1-0.2-0.1-0.3-0.2
	C169.9,73.1,169,73.4,169.6,74.8z M158.4,77.2c-0.5,0-0.8,0-1.3,0c0.3,0.7,0.5,1.3,0.7,1.9c0.1,0,0.2,0,0.2,0
	C158.1,78.5,158.3,77.9,158.4,77.2z M147.9,49.7c0.1-0.1,0.3-0.2,0.4-0.3c-0.6-0.8-1.2-1.7-1.7-2.5c-0.1,0.1-0.2,0.2-0.3,0.2
	C146.8,48.1,147.3,48.9,147.9,49.7z M149.4,49.7c0.1-0.1,0.2-0.2,0.4-0.3c-0.5-0.8-1.1-1.6-1.6-2.4c-0.1,0.1-0.2,0.2-0.3,0.2
	C148.4,48.2,148.9,49,149.4,49.7z M123.6,33.2c0.2-1.5,0.4-3.1,0.6-4.6C123.5,30.1,123.1,31.6,123.6,33.2z M169.7,65.9
	c1.3-0.6,1.3-0.6,1-1.7c-0.1,0-0.2-0.1-0.3-0.1C170.2,64.6,170,65.2,169.7,65.9z M125.2,71.1c0.2-0.2,0.4-0.4,0.7-0.7
	c-0.7-0.2-1.4-0.4-2.1-0.6c-0.1,0.1-0.1,0.1-0.2,0.2C124.2,70.3,124.7,70.7,125.2,71.1z M122.2,32.6c0.1,0,0.2,0,0.3,0.1
	c0.2-1.2,0.4-2.3,0.6-3.5c-0.1,0-0.1,0-0.2-0.1C122.6,30.3,122.4,31.4,122.2,32.6z M124.2,55.5c-0.3-0.1-0.6-0.2-0.6-0.2
	c-0.2,0.5-0.4,1-0.6,1.6c0.1,0.1,0.3,0.1,0.4,0.2C123.6,56.5,123.9,56.1,124.2,55.5z M177.8,51.7c-0.1-0.1-0.1-0.2-0.2-0.3
	c-0.7,0.4-1.3,0.7-2,1.1c0.1,0.1,0.1,0.2,0.2,0.3C176.7,52.9,177.1,51.9,177.8,51.7z M138.4,22.8c-1.3-0.8-1.8-0.7-1.9,0
	C137.1,22.8,137.7,22.8,138.4,22.8z M170.4,62.1c0-0.1-0.3-0.1-0.4-0.1c-0.1,0.5-0.1,0.9-0.2,1.6C170.8,63.1,170.6,62.6,170.4,62.1z
	 M170.9,68.2c-0.6,0.4-1.3,0.6-1,1.6C170.5,69.4,171.2,69.2,170.9,68.2z M144.4,48.6c0.1-0.1,0.2-0.1,0.3-0.2
	c-0.4-0.7-0.9-1.4-1.3-2c-0.1,0.1-0.2,0.1-0.3,0.2C143.6,47.2,144,47.9,144.4,48.6z M169.7,67.6c1.2-0.2,1.2-0.3,0.9-1.3
	C170.4,66.7,170,67.1,169.7,67.6z M122.1,28.9c-0.1,0-0.2-0.1-0.3-0.1c-0.2,0.8-0.4,1.6-0.6,2.5c0.1,0,0.2,0.1,0.3,0.1
	C121.7,30.6,121.9,29.7,122.1,28.9z M150.7,49.5c0.1-0.1,0.2-0.1,0.3-0.2c-0.4-0.6-0.9-1.3-1.3-1.9c-0.1,0.1-0.2,0.1-0.3,0.2
	C149.9,48.2,150.3,48.8,150.7,49.5z"/>
</svg>
