<?xml version="1.0" encoding="utf-8"?>
<!-- Generator: Adobe Illustrator 25.0.0, SVG Export Plug-In . SVG Version: 6.00 Build 0)  -->
<svg version="1.1" id="Capa_1" xmlns="http://www.w3.org/2000/svg" xmlns:xlink="http://www.w3.org/1999/xlink" x="0px" y="0px"
	 viewBox="0 0 192 99.2" style="enable-background:new 0 0 192 99.2;" xml:space="preserve">
<style type="text/css">
	.st0{fill:url(#SVGID_1_);}
	.st1{opacity:0.25;}
</style>
<g>
	
		<radialGradient id="SVGID_1_" cx="96" cy="747.6554" r="76.4253" gradientTransform="matrix(1 0 0 1 0 -698)" gradientUnits="userSpaceOnUse">
		<stop  offset="0" style="stop-color:#0088B9"/>
		<stop  offset="0.4004" style="stop-color:#0079AF"/>
		<stop  offset="0.921" style="stop-color:#005F9E"/>
	</radialGradient>
	<path class="st0" d="M0,93.7V0h192c0,0,0,15.6,0,85.7c0,0.2,0,0.5,0,0.7c0,0.3-0.1,0.6-0.4,0.9c-3.9,4.4-8.8,6.8-14.4,8.1
		c-6.1,1.4-12.3,1.3-18.4-0.5c-3.1-1-6-2.4-8.5-4.5s-4.4-4.7-5.2-7.9c-0.1-0.3-0.1-0.6-0.2-1.1c-0.1,0.2-0.2,0.3-0.2,0.4
		c-0.6,3.4-2.4,6.1-4.9,8.5c-2.9,2.7-6.3,4.6-10.1,5.7c-7.1,2.2-14.3,2.3-21.5,0.1c-3.6-1.1-6.9-2.9-9.5-5.6c-2.1-2.1-3.5-4.6-4-7.7
		c0-0.1-0.1-0.1-0.1-0.3c-0.1,0.1-0.1,0.1-0.1,0.2c-0.7,3.5-2.5,6.2-5,8.6c-3.1,2.8-6.7,4.7-10.7,5.9c-4.2,1.2-8.4,1.6-12.7,1.3
		c-3.9-0.3-7.7-1.1-11.2-2.7c-2.8-1.3-5.4-3.1-7.4-5.5c-1.5-1.9-2.6-4-3-6.4c0-0.2-0.1-0.3-0.1-0.6c-0.1,0.3-0.2,0.4-0.2,0.6
		c-0.7,3.2-2.5,5.8-4.9,8c-3.1,2.9-6.7,4.7-10.7,5.9c-3.5,1-7.1,1.6-10.8,1.5c-4.4-0.1-8.7-0.9-12.8-2.7c-0.9-0.4-1.7-0.8-2.5-1.3
		C1.6,94.7,0,93.7,0,93.7z"/>
</g>
<g class="st1">
	<path d="M147.7,65.9c-2.9-0.5-5.3-1.9-6.6-3.6c-0.2-0.2-0.2-0.5,0-0.8c0.2-0.2,0.4-0.3,0.7-0.2c4,1.2,7.3,2,10.5,0.2
		c9.7-5.2,14-12,13.1-21c-0.1-1-0.1-2.4,0.7-3.4c0.5-0.6,1.2-0.9,2-0.9c0.9-0.1,1.6,0.1,2.1,0.6c0.9,0.8,1.1,2.2,1.2,3.3
		c0,0.3,0,0.5,0,0.8c0-0.6,0-1.2,0.1-1.8c0-0.8,0-1.6,0.1-2.4c0-0.3,0.2-0.5,0.5-0.6c0.3-0.1,0.5,0,0.7,0.2
		c2.3,2.9,2.7,6.4,1.3,10.8c-1.9,5.6-5.2,10.5-9.9,14.3c-4.7,3.9-9.6,5.4-15.1,4.7C148.6,66.1,148.1,66,147.7,65.9z M172.8,39.1
		c0,1.8-0.1,3.7-0.5,5.5c-0.4,1.8-1.3,3.5-2,5.2c-0.3,0.7-0.7,1.4-1,2.2c-0.1,0.2-0.3,0.4-0.5,0.4c-0.2,0-0.4-0.1-0.6-0.2l-0.2-0.3
		c-0.1-0.2-0.2-0.4-0.1-0.6l0.6-2.4c0.6-2.4,1.2-4.8,1.7-7.2c0.1-0.5,0.1-1,0.1-1.5c-0.1-0.8-0.2-1.9-0.8-2.4
		c-0.3-0.2-0.7-0.3-1.2-0.3c-0.5,0-0.9,0.2-1.1,0.5c-0.4,0.4-0.5,1.2-0.4,2.4c1,9.6-3.5,16.8-13.8,22.3c-2.9,1.6-6,1.3-8.8,0.6
		c1,0.6,2.3,1.1,3.7,1.3c5.6,1.1,10.6-0.3,15.4-4.2c4.5-3.7,7.7-8.3,9.5-13.8c1-3,1-5.6,0-7.8C172.8,39,172.8,39.1,172.8,39.1z
		 M171.4,42c-0.4,1.6-0.7,3.1-1.1,4.7c0.3-0.8,0.6-1.6,0.8-2.4c0.2-0.9,0.3-1.8,0.4-2.7C171.4,41.8,171.4,41.9,171.4,42z"/>
</g>
<g class="st1">
	<path d="M150.2,73.4c-8.7-1.8-14.4-4.5-18.2-12.9c-0.6-1.4-0.9-2.8-1.2-4.3c-0.1-0.6-0.3-1.3-0.4-1.9c-0.1-0.3,0.1-0.6,0.3-0.7
		c0.3-0.1,0.6-0.1,0.8,0.2c0.9,1.1,1.7,2.2,2.4,3.3c1.6,2.3,3.2,4.4,5.1,6.1c9.2,7.8,21.2,7.1,29.1-1.8c3.3-3.7,6-10,8.4-19.7
		c0-0.1,0.1-0.2,0.1-0.3c0.3-0.4,0.7-0.4,0.9-0.3c0.4,0.2,0.5,0.6,0.5,0.9c-1.7,14.1-5.8,23.6-12.3,28.4c-3.9,2.9-8.8,4.1-14.3,3.3
		C151.1,73.5,150.6,73.4,150.2,73.4z M169.1,62c-8.4,9.5-21.1,10.3-30.9,2c-2.1-1.7-3.6-3.9-5.3-6.3c-0.2-0.3-0.4-0.6-0.6-0.9
		c0.2,1.1,0.5,2.1,0.9,3.1c3.2,7,7.5,10.1,17.3,12.2c5.8,1,10.7,0,14.7-2.9c4.9-3.6,8.3-10.1,10.4-19.4
		C173.6,55.4,171.5,59.3,169.1,62z"/>
</g>
<path class="st1" d="M165.2,32.5c1.5-2.9,4.7-3.7,6.2-4.1c1.1-0.3,2.4-7.2,1.6-12.9c-0.3-2.6-1-3.7-1.5-3.7c-0.3,0-0.6-0.2-0.7-0.6
	c-0.2-0.5,0-1.6,0.7-2.2c0.4-0.3,1.1-0.6,2.2,0.2c2,1.5,3.2,6.5,2.6,10.8c-0.6,4.1-1.2,7.7,1.3,10.9c0.7,1,1.5,3.5,1.3,6.3
	c0,0.9-0.6,1.3-1.1,1.4c-0.2,0-0.3,0-0.5,0c-0.6-0.1-1.1-0.5-1.5-1.1c-1.5-3.2-4.6-4.2-8.2-2.5c-0.8,0.4-1.7,0.2-2.2-0.4
	C165,34,164.8,33.2,165.2,32.5z"/>
</svg>
