<?xml version="1.0" encoding="utf-8"?>
<!-- Generator: Adobe Illustrator 25.0.0, SVG Export Plug-In . SVG Version: 6.00 Build 0)  -->
<svg version="1.1" id="Capa_1" xmlns="http://www.w3.org/2000/svg" xmlns:xlink="http://www.w3.org/1999/xlink" x="0px" y="0px"
	 viewBox="0 0 192 99.2" style="enable-background:new 0 0 192 99.2;" xml:space="preserve">
<style type="text/css">
	.st0{clip-path:url(#SVGID_3_);}
	.st1{clip-path:url(#SVGID_4_);}
	.st2{clip-path:url(#SVGID_6_);}
	.st3{fill:#2C1813;}
	.st4{opacity:0.25;clip-path:url(#SVGID_4_);fill:#C69E58;}
</style>
<g>
	<defs>
		<path id="SVGID_1_" d="M153.7,99.2l-19.6-15.4l-19,15.4L95.7,83.8l-19,15.4L57.3,83.8L38.7,99.2L18.9,83.8L0,98.9
			c0,0,0-4.1,0-98.9c64,0,128,0,192,0c0,94.7,0,98.9,0,98.9l-19.5-15.1L153.7,99.2z"/>
	</defs>
	<defs>
		<path id="SVGID_2_" d="M153.7,99.2l-19.6-15.4l-19,15.4L95.7,83.8l-19,15.4L57.3,83.8L38.7,99.2L18.9,83.8L0,98.9
			c0,0,0-4.1,0-98.9c64,0,128,0,192,0c0,94.7,0,98.9,0,98.9l-19.5-15.1L153.7,99.2z"/>
	</defs>
	<clipPath id="SVGID_3_">
		<use xlink:href="#SVGID_1_"  style="overflow:visible;"/>
	</clipPath>
	<clipPath id="SVGID_4_" class="st0">
		<use xlink:href="#SVGID_2_"  style="overflow:visible;"/>
	</clipPath>
	<g class="st1">
		<defs>
			<path id="SVGID_5_" d="M153.7,99.2l-19.6-15.4l-19,15.4L95.7,83.8l-19,15.4L57.3,83.8L38.7,99.2L18.9,83.8L0,98.9
				c0,0,0-4.1,0-98.9c64,0,128,0,192,0c0,94.7,0,98.9,0,98.9l-19.5-15.1L153.7,99.2z"/>
		</defs>
		<clipPath id="SVGID_6_">
			<use xlink:href="#SVGID_5_"  style="overflow:visible;"/>
		</clipPath>
		<g class="st2">
			<path class="st3" d="M153.7,99.2l-19.6-15.4l-19,15.4L95.7,83.8l-19,15.4L57.3,83.8L38.7,99.2L18.9,83.8L0,98.9c0,0,0-4.1,0-98.9
				c64,0,128,0,192,0c0,94.7,0,98.9,0,98.9l-19.5-15.1L153.7,99.2z"/>
		</g>
	</g>
	<path class="st4" d="M45.5,23.4c0.3,1.2,0.6,2.3,1,3.4c0.3,0.9,0.1,1.5-0.5,2.2c-2.7,2.6-5.5,5.3-8.2,7.9c-0.5,0.5-1,0.8-1.5,1.2
		c-0.3,0.2-0.3,0.4-0.1,0.7c1.7,3.6,2.5,7.4,2.6,11.3c0,0.4,0.1,0.6,0.4,0.8c1.5,1,2.1,2.5,2,4.3c-0.1,1-0.6,1.8-1.5,2.2
		c-0.4,0.2-0.8,0.4-1.2,0.4c-0.8,0.1-1.1,0.6-1.2,1.3c-0.3,1.1-0.1,2.2,0.2,3.2c0.4,1.3,0.8,2.7,1.3,4c0.9,2.6,0.7,5.1-0.6,7.5
		c-1.1,1.9-2.2,3.8-3.6,5.6c-1.2,1.6-3,2.4-5.1,1.9c-0.1,0-0.4,0.1-0.5,0.2c-1.5,1.8-3.4,2.3-5.6,1.6c-2.3-0.7-4.5-1.6-6.7-2.6
		c-2.7-1.3-4.1-3.7-5-6.5c-0.2-0.6-0.4-1.3-0.6-1.9c-0.4-1.7-1.7-2.8-2.9-3.9c-0.1-0.1-0.4-0.1-0.6-0.1c-0.6,0-1.2,0.1-1.8,0.1
		c-2.3,0-3.7-1.5-3.4-3.8c0.1-0.5,0.3-1,0.4-1.5c0-0.2,0-0.5-0.1-0.6c-2.4-3.2-4-6.8-4.9-10.7c-0.1-0.5-0.3-0.7-0.8-0.6
		c-3.8,0.2-7.6,0.1-11.3-0.9c-1-0.3-1.9-0.6-2.9-0.9c-0.7-0.2-1-0.7-1.2-1.3c-0.7-2.4-1.3-4.9-2-7.3c-0.2-0.9,0-1.6,0.6-2.2
		c0.9-1,1.9-1.9,2.9-2.8c4-3.6,8.3-6.7,13.2-9c0.9-0.4,1.2-0.9,1.2-1.8c0.1-3.1,0.2-6.2,0.3-9.4c0.1-2.9,1.8-5,4.1-6.6
		c2.1-1.4,4.3-1,6.4-0.1c1.7,0.6,3.1,1.7,4.4,2.9c2.4,2.1,4.7,4.2,7.1,6.3c0.3,0.3,0.6,0.4,1,0.3c5.9-1.3,11.8-1.7,17.7-0.8
		c1.5,0.2,3,0.7,4.5,1.1c0.6,0.2,1,0.6,1.2,1.2c0.4,1.3,0.7,2.5,1.1,3.8C45.4,23.5,45.5,23.4,45.5,23.4z M26.4,66.1
		c0.2-0.2,0.3-0.4,0.5-0.5c0.6-0.3,1.4-0.3,2.1-0.7c0.4-0.2,1.1-0.1,1.6,0c0.6,0,1.2-0.6,1-1.2c-0.2-0.6-0.5-1.1-0.9-1.6
		c-0.3-0.6-0.8-1.1-1.1-1.7c-0.7-1.6,0.5-3.5,2.2-3.3c0.2,0,0.6,0.3,0.6,0.5c0,0.4-0.4,0.4-0.7,0.3c-0.6-0.1-1,0.2-1.2,0.6
		c-0.3,0.5-0.3,1,0.1,1.5c1.3-1.7,3.2-2.3,5.2-2.8c-0.5-2.2-0.5-4.2,0.8-6.1c-0.5-0.2-0.9-0.4-1.3-0.6c-0.1,1.3-0.7,2-1.9,2.2
		c0.1,1.7-1.1,2.8-2.6,2.4c-0.3,1.3-1.5,2-2.8,1.2c-1,1.1-1.7,1-2.8-0.1c-1.1,1-2.4,0.1-2.6-1.2c-1.5-0.1-2.1-0.9-1.7-2.5
		c-1.1-0.8-1.4-1.9-0.6-2.9c0.3-0.3,0.3-0.6,0.1-0.9c-0.3-1.1,0.3-1.9,1.4-2.1c0.1,0,0.2-0.1,0.4-0.3c-2.8,0.8-5.5,1.6-8.2,2.3
		c0.4,0.3,0.8,0.5,1,0.7c0.2,0.3,0.3,0.7,0.5,1c1-0.2,1.7,0.3,1.8,1.3c0.1,0.8,0.3,1.5,0.8,2.2c0.6,0.7,0.3,1.6-0.6,2.5
		c1,1.3,0.1,2.7-1.6,2.8c-0.4,1.4-0.9,1.7-2.4,1.7c-0.6,1.1-1.6,1.4-2.5,0.7c-0.9,0.7-1.6,0.8-2.2,0.3c-0.3-0.2-0.4-0.3-0.8-0.1
		c-0.6,0.2-1.2,0.1-1.4-0.5c-0.3-0.7-0.9-0.8-1.4-0.9C5.2,61,5,61.4,4.8,61.8c2.3,0.9,3.5,2.6,4.3,4.9c0.8-1.1,2.4-1.1,2.7-2.6
		c0,0,0,0,0,0c0.6-0.9,1.9-1.4,3-1c1,0.4,1.7,1.3,1.6,2.5c0,0.4-0.1,0.7-0.2,1.1c-0.1,0.8,0,1.6,0.4,2.4c0.3,0.5,0.7,0.5,1.2,0.2
		c0.3-0.2,0.6-0.3,0.9-0.4c0.1-0.1,0.3-0.1,0.4-0.2c0.7-0.4,1.4-0.8,2.2-1.2c0.1-0.1,0.4,0,0.5,0c0.1,0,0.3,0,0.3-0.1
		c0.6-0.8,1.3-0.7,2.1-0.4C24.8,65.7,25.3,65.5,26.4,66.1z M24.2,23.4c-1.7-1.7-3.4-3.4-5-5c-0.3-0.3-0.5-0.3-0.8,0
		c-1.5,1.4-3.3,2.5-5.1,3.4c-4.5,2.3-9.2,3.5-14.2,4c-0.4,0-0.6,0.2-0.6,0.6c-0.1,1.3-0.2,2.6-0.2,3.9c0,0.9-0.1,1.8-0.1,2.7
		C2,33.6,21,26.7,24.2,23.4z M-2.1,37.7c0.4,0,0.7,0,1-0.1c4.7-0.5,9.2-1.5,13.8-2.7c1.9-0.5,3.6-1.3,5.4-1.9c0.3-0.1,0.7-0.6,1-0.1
		c0.3,0.5-0.3,0.7-0.7,0.8c-1.3,0.6-2.7,1.2-4,1.6C9.4,37,4.2,37.8-1,38.5c-0.4,0-0.8,0.1-1.1,0.2c0,0.3,0,0.5-0.1,0.7
		c0,0.1,0,0.2,0.1,0.4c11.4-0.9,22-4.1,31.5-10.7c-1.7-1.7-3.2-3.3-4.8-4.9c-1.8,1.5-3.6,2.7-5.7,3.6c-3.1,1.3-6.3,2.6-9.4,3.7
		C6,32.5,2.4,33.5-1.4,33.9c-0.6,0-0.6,0.3-0.4,0.9c0.2,0,0.3,0,0.5,0c2.6-0.5,5.1-0.9,7.6-1.6c2.9-0.9,5.8-2,8.7-3
		c0.3-0.1,0.7-0.2,1-0.2c0,0.1,0.1,0.2,0.1,0.3c-0.3,0.2-0.6,0.5-0.9,0.6c-0.7,0.3-1.4,0.6-2.2,0.9C9.6,33.1,6,34.4,2.2,35.1
		c-1.4,0.3-2.8,0.5-4.2,0.7C-2,36.4-2,37-2.1,37.7z M21.7,75c-0.4,0.5-0.8,0.6-1.3,0.4c-0.1,0-0.3-0.1-0.3,0
		c-0.7,0.3-1.1-0.1-1.5-0.4c-0.2-0.1-0.4-0.3-0.6-0.4c-1.2-0.1-2.1-0.7-2.7-1.6c-0.7-1.1-1.3-2.4-2-3.5c-0.6-0.9-1.3-1.7-2-2.6
		c-0.1-0.1-0.5-0.2-0.6-0.2c-0.5,0.3-1,0.7-1.6,1.1c0.2,0.2,0.3,0.3,0.4,0.4c1.4,1.2,2.3,2.7,2.7,4.5c0.1,0.4,0.2,0.7,0.3,1.1
		c0.9,3.1,2.7,5.4,5.8,6.6c1.2,0.5,2.5,1,3.7,1.5c1.2,0.6,2.2,0.6,3.1-0.6c0.3-0.5,0.4-0.8,0.1-1.2c-0.7,0.5-1.4,0.6-2.1,0.2
		c-0.9-0.5-1.3-1.3-1.3-2.3c0-0.9,0.7-1.6,1.6-1.5c0.9,0,1.5,0.9,1.1,1.6c-0.1,0.3-0.5,0.6-0.7,0.5c-0.4,0-0.4-0.4-0.2-0.8
		c0-0.1,0-0.3-0.1-0.3c-0.1,0-0.3,0-0.3,0.1c-0.1,0.2-0.3,0.4-0.3,0.6c0,0.6,0.5,1.3,1,1.5c0.7,0.2,1-0.3,1.4-0.7
		c0.1-0.2,0.2-0.3,0.3-0.5c0.2-0.8,0.5-1.6,0.7-2.3c0.1-0.5,0.3-0.9,0-1.4c-0.1-0.1,0.1-0.5,0.3-0.7c0.1-0.1,0.5-0.2,0.7-0.1
		c0.2,0.1,0.4,0.4,0.3,0.6c-0.1,0.4,0.1,0.6,0.4,0.8c0.9,0.7,1.7,1.3,2.5,2c0.1,0.1,0.3,0.1,0.4,0.1c0.7-0.2,1.6-1.3,1.6-1.9
		c0-0.3-0.2-0.8-0.5-1c-0.2-0.1-0.7,0-1,0.1c-0.3,0.1-0.4,0.3-0.1,0.6c0.1,0.2,0.1,0.5,0.1,0.7c-0.3,0-0.6,0.1-0.8,0
		c-0.6-0.3-0.7-1.2-0.2-1.8c0.5-0.7,1.5-1,2.3-0.7c0.8,0.3,1.3,1.1,1.3,2c-0.1,1-0.6,1.6-1.3,2.2c-0.3,0.2-0.5,0.4-0.9,0.6
		c0.3,0.2,0.5,0.5,0.7,0.6c0.7,0.1,1.4,0.1,2.1,0c0.1,0,0.1-0.1,0.2-0.2c0.9-1.4,1.8-2.8,2.6-4.2c0.7-1.2,1.2-2.5,1.4-3.8
		c-0.4-0.1-0.7-0.2-0.9-0.4c-0.1-0.1-0.1-0.6-0.1-0.6c0.3-0.2,0.7-0.3,1.2-0.4c-0.2-0.8-0.5-1.8-0.7-2.7c-0.5-1.6-1.1-3.2-1.4-4.8
		c-0.2-1,0-2.1,0-3.2c-1.7-0.1-2.2,0.4-2.1,2.1c0,0.1,0,0.3,0.1,0.4c0.3,1.5,0.6,2.9,0.9,4.4c0.2,1.1,0.2,2.3-0.6,3.2
		c-0.4,0.5-0.8,1-1,1.6c-0.2,0.4-0.7,0.6-1.1,0.9c-0.6,0.5-1.1,1.1-1.8,1.3c-0.7,0.2-1.4,0.5-2.1,0.5c-0.1,0-0.3,0-0.4,0
		c-0.5,0.6-1.1,0.7-1.8,0.2c-0.5,1-0.9,1.2-1.9,1c-0.3,0.4-0.6,0.6-1.1,0.5c-0.1,0-0.3,0-0.3,0.1C22.7,75.4,22.2,75.3,21.7,75z
		 M22.1,20c0.4,0.4,0.6,0.7,0.9,1c2.2,2.4,4.5,4.8,6.7,7.1c0.3,0.3,0.5,0.4,0.9,0.1c0.5-0.4,1.2-0.8,1.7-1.2c2.4-2.2,4.7-4.4,7-6.7
		c0.1-0.1,0.2-0.2,0.2-0.3c0.4-0.6,0.3-0.9-0.3-1c-0.9-0.2-1.8-0.3-2.7-0.3c-4.6-0.1-9.3,0.3-13.8,1.1C22.6,19.9,22.4,20,22.1,20z
		 M-17.3,38.9C-14.7,39.6-5.6,40-3,39.5c0.1-3.6,0.3-7.2,0.4-10.9C-7.9,31.5-12.9,34.7-17.3,38.9z M29.2,53.6
		c0.2-0.1,0.4-0.1,0.5-0.2c1.4-0.5,2.4-1.5,2.6-3c0.2-1.6-0.3-2.8-1.6-3.7c-1.1-0.8-2.4-1.1-3.8-1.1c-1.4,0.1-2.6,0.7-3.4,1.9
		c-0.9,1.2-1,2.6-0.2,3.9C24.5,53.4,26.9,54.2,29.2,53.6z M6.7,56.8c0,0-0.1,0.1-0.1,0.1C7,57.5,7.4,58.3,8,58.9
		c1.1,1.3,2.4,1.5,4,0.7c0.4-0.2,0.8-0.4,1.1-0.7c2.7-2.1,2.9-4.5,0.6-7.1c-0.6-0.7-1.4-1-2.4-0.9c-2.2,0.3-3.6,1.6-4.5,3.5
		C6.4,55.2,6.4,56,6.7,56.8z M-19.7,39.6c0.6,0.1,0.9,0.3,1.3,0.3c6.1,1.1,12.2,1.4,18.4,0.7c3.3-0.4,6.5-1,9.7-1.6
		c5.9-1.2,11.4-3.3,16.6-6.3c5.2-3.1,9.9-6.8,14-11.3c0.7-0.8,1.4-1.5,2.3-2.4c-0.9-0.2-1.6-0.4-2.4-0.7c0.8,1,0.8,1.3,0.1,2.3
		c-0.2,0.2-0.4,0.5-0.6,0.7c-0.7,0.7-1.5,1.4-2.2,2.2c-5.1,5.2-11.3,9.1-18,11.9C13,38.2,6.2,39.8-0.9,40.3
		c-5.4,0.4-10.7,0.3-16.1-0.5c-0.5-0.1-0.9-0.4-1.3-0.6c0.3-0.4,0.4-0.9,0.8-1.2c2.8-2.8,6-5.2,9.4-7.3c1.6-1,3.2-1.8,4.8-2.7
		c0.4-0.2,0.8-0.4,0.8-1.1C-8.9,30.3-14.6,34.4-19.7,39.6z M13.1,12.9c-0.7-0.6-1.3-1.1-2-1.6c-0.3-0.2-0.5-0.2-0.7,0
		c-0.6,0.5-1.2,0.9-1.9,1.3c-2.8,1.6-5.8,2.7-9,3.1c-0.2,0-0.5,0.2-0.5,0.3c-0.1,0.7-0.1,1.3-0.1,2.1C4,17.4,8.8,16.2,13.1,12.9z
		 M-1.3,23.7c2-0.4,4-0.6,5.9-1.1c4.2-0.9,8.1-2.6,11.6-4.9c0.5-0.3,0.9-0.7,1.3-1c-0.4-0.4-0.7-0.6-1-0.9c-0.3-0.4-0.6-0.3-1,0
		c-4.7,3.5-10,5.4-15.8,6.1c-1.2,0.1-1.2,0.1-1.1,1.3C-1.4,23.3-1.4,23.4-1.3,23.7z M31.3,41.7c0.5,0.6,0.9,1.2,1.5,1.6
		c1.4,0.9,2,2.2,2,3.8c0,0.1,0,0.3,0,0.4c0.2,1.9,0.9,2.6,2.9,3c0-0.1,0.1-0.1,0.1-0.2c-0.3-2.2-0.6-4.4-1-6.7
		c0-0.2-0.3-0.4-0.5-0.5c-1.1-0.6-2.2-1.1-3.3-1.7C32.2,41,32.3,40.9,31.3,41.7z M3.3,50.8c-1.4,0.1-1-0.1-1.5,1
		c-0.5,1.2-1.1,2.4-1.6,3.6c-0.1,0.2-0.1,0.4,0,0.6c0.5,1.1,1,2.2,1.6,3.2c0.5,0.9,1.2,1.8,1.8,2.7c0.7-0.9,1-1.8,0.6-2.7
		c-0.3-0.7-0.6-1.3-1-2c-0.4-0.8-0.8-1.7-0.7-2.6C2.7,53.3,3,52.1,3.3,50.8z M26.4,42.2c0.1,0,0.1-0.1,0.2-0.1
		c0-1.9-0.1-3.9-0.1-5.9c-1.7,0.8-3.3,1.6-5,2.5C23.2,39.9,24.8,41,26.4,42.2z M27.5,35.7c1.7,1.1,3.3,2.1,5.1,3.2
		c-0.2-2.1-0.4-4.1-0.5-6.1C30.5,33.7,29,34.7,27.5,35.7z M15.5,41.1c1.3,1.4,2.6,2.8,4,4.3c0.3-2.2,0.6-4.2,0.9-6.3
		C18.8,39.8,17.2,40.5,15.5,41.1z M9.2,43c1.2,1.4,2.4,2.8,3.7,4.3c0.5-2,1-3.8,1.5-5.8C12.6,42.1,10.9,42.5,9.2,43z M37.3,28.9
		c-1.5,1.1-2.9,2.2-4.4,3.2c1.6,1,3.1,1.9,4.7,2.8C37.5,32.9,37.4,31,37.3,28.9z M7.8,43.3c-1.8,0.3-3.4,0.6-5.2,0.9
		c1,1.6,2,3,3.1,4.6C6.5,46.9,7.1,45.2,7.8,43.3z M42.4,30.5c0.1-0.1,0.1-0.1,0.2-0.2c-0.1-1.8-0.3-3.6-0.4-5.6
		c-1.4,1.2-2.6,2.3-3.8,3.3C39.7,28.9,41.1,29.7,42.4,30.5z M17.4,73.5c-1.2-0.6-1-1.7-1.1-2.7c0-0.2-0.1-0.5-0.2-0.6
		c-0.8-1-1-2.1-1-3.4c0-0.2-0.1-0.4-0.2-0.4c-0.6-0.3-1.2-0.5-1.8-0.7c-0.5-0.1-1-0.1-1.4,0.4c1.2,0.8,1.8,1.9,2.4,3.1
		c0.6,1.1,1.1,2.2,1.7,3.3C16.2,73,16.7,73.4,17.4,73.5z M-0.7,49.2c0.1,0,0.1,0,0.2,0c0.6-1.6,1.3-3.2,1.9-4.8
		c-1.6,0.1-3,0.2-4.5,0.3C-2.2,46.3-1.5,47.7-0.7,49.2z M-6.5,49.3c0.8-1.6,1.5-3.1,2.2-4.6c-1.5,0-3-0.1-4.5-0.1
		C-8.1,46.2-7.4,47.7-6.5,49.3z M-10,44.6c-1.5-0.2-2.9-0.3-4.4-0.5c0.7,1.6,1.4,3.2,2.2,4.9C-11.4,47.4-10.7,46-10,44.6z
		 M33.2,59.5c-0.1,0-0.1-0.1-0.2-0.1c-0.5,0.4-1,0.9-1.5,1.3c-0.3,0.3-0.3,0.5-0.1,0.9c0.6,0.7,1,1.5,1.1,2.5c0,0.2,0.2,0.4,0.3,0.6
		c0.6,0.8,0.9,1.7,1,2.6c0,0.3-0.1,0.5-0.1,0.8c0.7-0.7,0.7-1.5,0.5-2.3C33.8,63.7,33.2,61.6,33.2,59.5z M-1.5,24.6
		c0,0.1,0,0.1,0,0.2c0.2,0,0.3,0.1,0.5,0.1c1-0.1,1.9-0.2,2.9-0.3c3.2-0.5,6.3-1.5,9.3-2.7c2.4-1,4.6-2.3,6.6-3.9
		c0.2-0.1,0.3-0.3,0.4-0.5c0-0.1-0.1-0.1-0.1-0.2C12.3,21.7,5.7,23.9-1.5,24.6z M25.3,82.5c1.2,0,2.2-0.5,2.9-1.3
		c0.1-0.1,0.1-0.3,0.1-0.5c0-0.2-0.1-0.5,0-0.6c0.1-0.1,0.5-0.2,0.7-0.2c0.2,0,0.3,0.3,0.4,0.5c0.1,0.1,0.1,0.3,0.2,0.3
		c0.8,0.3,2.5-0.2,3.1-0.9c-1.3-0.3-2.7-0.6-4.1-0.8c-0.1,0-0.4,0.1-0.5,0.3c-0.6,0.7-1.1,1.4-1.7,2C26.2,81.7,25.7,82.1,25.3,82.5z
		 M-15.5,43.9c-1.1-0.2-2.2-0.4-3.2-0.6c0.4,1.5,0.8,2.9,1.2,4.4c0,0,0.1,0,0.1,0C-16.7,46.4-16.1,45.1-15.5,43.9z M3.9,56.5
		c0.2-0.4,0.3-0.7,0.5-0.9c-0.9-1.2-0.6-2.2,0.8-2.9c0.1-0.1,0.2-0.3,0.2-0.4c0-1.2,0.4-1.6,1.5-1.7c0.1,0,0.3-0.1,0.4-0.1
		c0-0.1,0-0.1,0-0.2c-1.2,0.2-2.4,0.3-3.5,0.5c0,0.5,0.1,0.9,0.1,1.3c-0.1,0.8-0.3,1.6-0.4,2.5C3.4,55.1,3.5,55.8,3.9,56.5z
		 M38.2,51.7c0-0.1-0.1-0.1-0.1-0.2c-0.3,0.1-0.7,0.1-0.8,0.3c-1,1.6-1.1,3.4-0.5,5.1c0.1,0.1,0.4,0.2,0.5,0.3
		c0.1-0.2,0.2-0.4,0.1-0.5c-0.3-1.2-0.2-2.5,0.2-3.7C37.8,52.6,38,52.2,38.2,51.7z M24.6,69.8c0,0,0.1,0,0.1-0.1
		c-0.3-0.6-0.5-1.1-0.9-1.6c-0.1-0.2-0.4-0.3-0.7-0.4c-0.1,0.2-0.4,0.5-0.4,0.7c0,0.7,0.1,1.4,0.3,2.1c0.2,0.9,0.3,0.9,1.2,0.6
		c0.5-0.2,0.7-0.4,0.4-0.9C24.7,70,24.7,69.9,24.6,69.8z M25.6,66.7c-0.1,0-0.2,0.1-0.3,0.1c0,0.3-0.2,0.6-0.1,0.9
		c0.1,0.6,0.2,1.3,0.4,1.9c0.3,1,0.4,1.1,1.4,0.5c0.3-0.2,0.5-0.4,0.2-0.8c-0.3-0.4-0.4-0.9-0.7-1.4C26.3,67.5,26,67.1,25.6,66.7z
		 M6,67.4c-0.1-0.8-0.4-1.5-0.9-2.1C4.8,65,4.4,64.7,4,64.5c-0.3-0.2-0.6,0-0.6,0.4C3.3,66.3,4.6,67.5,6,67.4z M1,50.9
		c-0.8,0-1.3,0-1.9,0.1c-0.1,0-0.4,0.3-0.4,0.4c0.2,0.9,0.5,1.9,0.8,2.8c0.1,0,0.2,0,0.2,0C0.2,53.2,0.6,52.1,1,50.9z M39.5,52.9
		c-0.9,1.1-1.2,2.8-0.5,3.7C40.4,56.1,40.7,54.1,39.5,52.9z M33.4,40.3c0.9,0.8,1.8,1.4,2.8,1.6c0,0,0.1-0.1,0.1-0.1
		c-0.4-0.9-0.8-1.8-1.3-2.7C34.5,39.6,34,39.9,33.4,40.3z M44.3,22.5c-0.4,0.4-0.8,0.8-1.1,1.1c-0.1,0.1-0.1,0.3,0,0.4
		c0.7,0.8,1.4,1.5,2.1,2.3c0,0,0.1,0,0.1-0.1C45,25.1,44.6,23.9,44.3,22.5z M21.3,19c0,0.1,0,0.2,0,0.2c0.2,0,0.5,0.1,0.7,0.1
		c2.2-0.4,4.4-0.7,6.5-1.1c0.9-0.1,1.9-0.2,2.8-0.3C27.9,17.8,24.6,18.3,21.3,19z M27.6,66.3c-0.1,0-0.2,0.1-0.3,0.1
		c0,0.4,0,0.8,0.2,1.2c0.2,0.6,0.5,1.1,0.7,1.6c0.1,0.3,0.3,0.5,0.6,0.3c0.3-0.2,0.7-0.3,0.5-0.8c-0.3-0.6-0.5-1.2-0.9-1.7
		C28.2,66.8,27.8,66.6,27.6,66.3z M21.2,71.1C21.2,71.1,21.2,71.1,21.2,71.1c0,0.1,0.1,0.2,0.1,0.2c0,0.4,0.1,0.6,0.6,0.5
		c0.6-0.1,0.4-0.4,0.3-0.8c-0.1-0.3-0.2-0.6-0.2-0.9c-0.1-0.4-0.1-0.9-0.2-1.3c0-0.2-0.3-0.3-0.4-0.5c-0.1,0.2-0.3,0.3-0.4,0.5
		c-0.1,0.2-0.1,0.5-0.1,0.8C21,70.1,21.1,70.6,21.2,71.1z M4.2,62.9c2,0.7,3.1,2.3,3.6,4.3c0.2-0.2,0.3-0.4,0.2-0.5
		c-0.2-0.5-0.3-1.1-0.6-1.6c-0.6-1.1-1.4-2.1-2.6-2.5C4.5,62.5,4.2,62.5,4.2,62.9z M29.5,42.7c0.5,0.6,0.9,1.1,1.3,1.6
		c0.5,0,1,0,1.5,0c-0.4-0.4-0.8-0.8-1.1-1.3C30.5,42,30.5,42,29.5,42.7C29.5,42.8,29.5,42.8,29.5,42.7z M12.6,64.5
		c0.9,0.3,1.9,0.5,2.8,0.8c0-0.7-0.3-1.1-1-1.3C13.6,63.7,13,63.9,12.6,64.5z M29,65.9c0.2,1.1,0.8,2,1.3,3c0.2-0.2,0.5-0.4,0.4-0.5
		C30.3,67.5,30,66.5,29,65.9z M32.9,51.8c0.6,0.3,1,0.2,1.3-0.3c0.3-0.6,0.2-1.1-0.3-1.3c-0.3-0.1-0.5-0.2-0.6,0.3
		C33.2,50.9,33.1,51.4,32.9,51.8z M26.2,71.4c0.3,0.4,0.5,0.8,0.7,1.1c0.2,0.2,0.4,0.3,0.6,0c0.3-0.5,0.3-1.1,0.1-1.6
		C27.1,71,26.7,71.2,26.2,71.4z M23.7,72.1c0.6,0.6,1,1,1.5,1.4c0.1,0,0.2-0.1,0.3-0.1c-0.1-0.6-0.1-1.1-0.2-1.7
		C24.7,71.8,24.3,71.9,23.7,72.1z M0.7,43.5c1.2-0.3,1.6-1.4,2.3-2.2C1.9,41.6,1.5,42.7,0.7,43.5z M4.7,41c-1.2,0.3-1.7,1.4-2.4,2.2
		C3.5,42.9,4.1,41.9,4.7,41z M3.6,9.3c-0.1,0-0.2-0.1-0.3-0.1c-0.8,1.7-1.7,3.5-2.5,5.2c0.1,0,0.1,0.1,0.2,0.1
		C1.9,12.7,2.7,11,3.6,9.3z M18.7,69.6c-0.1,0-0.2,0-0.3,0c-0.2,0.9,0,1.7,0.2,2.6c0,0.1,0.3,0.1,0.6,0.2
		C19,71.4,18.9,70.5,18.7,69.6z M30.7,45.5c0.4,0.3,0.6,0.5,0.9,0.7c0.1,0,0.1,0.1,0.2,0.1c0.2,0,0.4,0,0.5-0.1
		c0.3-0.4,0.2-0.8-0.3-1C31.6,45.1,31.2,45.2,30.7,45.5z M4.4,9.1c-0.1,0-0.1,0-0.2-0.1c-0.9,1.8-1.7,3.5-2.6,5.3
		c0.1,0,0.2,0.1,0.2,0.1C2.8,12.7,3.7,11,4.4,9.1z M6,58.2c-0.4,0.4-0.6,0.7-0.4,1.1c0.1,0.2,0.4,0.5,0.6,0.5c0.3,0,0.5-0.2,0.9-0.3
		C6.7,59,6.4,58.6,6,58.2z M6.1,53.5c-0.7-0.1-1.1,0.2-1.3,0.7C4.7,54.7,5,54.9,5.4,55c0.1,0,0.3-0.3,0.4-0.5
		C5.9,54.2,6,53.8,6.1,53.5z M9.8,18.1c0.6-0.2,1.7-2.2,1.6-3C10.8,15.5,10.7,15.7,9.8,18.1z M19.9,69.2c-0.1,0-0.2,0-0.3,0.1
		c0.1,0.9,0.2,1.8,0.4,2.8c0,0.1,0.2,0.2,0.4,0.2c0.1-0.1,0.2-0.3,0.1-0.4c-0.1-0.6-0.2-1.2-0.3-1.8C20.1,69.7,20,69.5,19.9,69.2z
		 M0.9,18.9c-0.7,0-1.7,1.2-1.9,2.3C0.1,20.7,0.2,19.7,0.9,18.9z M1.5,41.5c-1.2,0.2-1.6,1.3-2.2,2.2C0.4,43.3,0.8,42.2,1.5,41.5z
		 M8.4,18.6c0.1,0.1,0.2,0.1,0.3,0.2c0.9-0.7,0.9-1.9,1.4-2.8C9,16.6,8.9,17.8,8.4,18.6z M27.4,55c-0.4,0.3-1.1-0.4-1.3,0.4
		c-0.1,0.4,0.3,0.9,0.7,0.9C27.2,56.4,27.4,56,27.4,55z M3.7,43.1c0.7,0,2.3-1.6,2.6-2.4C5.1,41.1,4.7,42.3,3.7,43.1z M11.3,17.5
		c0.9-0.9,1.1-2.2,1.6-3.3C12,15.1,11.7,16.3,11.3,17.5z M7.6,17c-0.7,0.2-1.7,1.8-1.7,2.8C6.7,19,7,18,7.6,17z M3.4,18.3
		c-0.9,0.5-1.2,1.6-1.7,2.4C2.7,20.3,3,19.2,3.4,18.3z M14.7,38.8c-1,0.4-1.4,1.4-1.9,2.2C13.9,40.7,14.1,39.6,14.7,38.8z
		 M25.1,54.9c-0.4-0.2-0.8-0.3-1.2-0.5c-0.4,0.6-0.3,1.2,0.1,1.4C24.8,56.1,24.8,55.3,25.1,54.9z M13.7,13.6
		c-0.4,1.1-0.8,2.1-1.3,3.2C13.3,16.4,14.2,14,13.7,13.6z M29.9,54.7c-0.4,0.1-0.8,0.1-1.1,0.2c-0.1,0-0.2,0.2-0.2,0.2
		c0.2,0.3,0.3,0.6,0.6,0.8c0.1,0.1,0.6-0.2,0.7-0.4C29.9,55.3,29.9,55,29.9,54.7z M0.3,20.9c1-0.5,1.3-1.5,1.7-2.3
		C1.1,19.1,0.8,20.1,0.3,20.9z M30.9,54.2c0.4,0.3,0.7,0.6,1.1,0.2c0.5-0.4,0.6-0.8,0.2-1.3C31.8,53.4,31.4,53.8,30.9,54.2z
		 M28.4,44.9c0.5,0,0.9,0.5,1.3,0c0.2-0.3,0-0.9-0.4-1C29,43.7,28.6,44.1,28.4,44.9z M6,17.6C5.5,17.7,4.6,19,4.5,20
		C4.9,20,5.8,18.6,6,17.6z M-6.3,43.8c0.9-0.1,2-1.2,2.2-2C-5.1,42.1-5.6,43-6.3,43.8z M3.1,20.4c1-0.5,1.2-1.6,1.6-2.4
		C3.8,18.6,3.5,19.5,3.1,20.4z M3.7,13.8c0.1,0,0.1,0.1,0.2,0.1c0.7-1.6,1.4-3.2,2.1-4.7C6,9.1,5.9,9,5.8,9
		C5.1,10.6,4.4,12.2,3.7,13.8z M42.5,23c0.6-1,0.4-2.1,0.6-3.2C42.5,20.8,42.6,21.9,42.5,23z M-3.4,43.8c1.1-0.3,1.4-1.3,2.2-2
		C-1.9,41.7-2.5,42.3-3.4,43.8z M32.8,67.4c0.3-0.5-0.1-1.7-0.7-2.2C31.7,65.7,31.9,66.3,32.8,67.4z M22.2,52.6
		c-0.5,0.4-0.6,1.1-0.1,1.4c0.2,0.1,0.5,0,0.8,0c0-0.2,0-0.4-0.1-0.6C22.7,53.2,22.4,52.9,22.2,52.6z M41.2,24.2
		c0.5-0.4,1-2.6,0.7-3.4C41.5,22,41.5,23.1,41.2,24.2z M8.5,42.2c0.9-0.5,1.3-1.4,1.9-2.3C9.8,40,8.7,41.4,8.5,42.2z M40.3,25.2
		c0.6-0.9,0.5-2,0.7-3.1C40.3,23,40.4,24.1,40.3,25.2z M4.7,13.4c0.1,0,0.2,0.1,0.2,0.1c0.6-1.4,1.2-2.8,1.8-4.1
		c-0.1,0-0.2-0.1-0.2-0.1C5.9,10.6,5.3,12,4.7,13.4z M14.4,40.5c1.1-0.3,1.2-1.3,1.6-2.2C15.3,38.9,14.9,39.7,14.4,40.5z M33.3,48.7
		c0.6-0.4,0.7-0.9,0.4-1.3c-0.3-0.4-0.6-0.4-1-0.1C32.9,47.8,33.1,48.2,33.3,48.7z M7.6,40.6c-0.1-0.1-0.1-0.1-0.2-0.2
		c-0.7,0.8-1.3,1.5-2,2.3c0.1,0,0.1,0.1,0.2,0.1C6.6,42.4,6.9,41.3,7.6,40.6z M7.6,51.7c-0.6-0.4-0.9-0.4-1.2,0
		c-0.3,0.4-0.2,0.7,0.3,1C7,52.4,7.3,52.1,7.6,51.7z M-10.5,41.9c-1,0-1.3,0.9-1.8,1.5C-11.4,43.3-11.1,42.5-10.5,41.9z M30.5,65.9
		c0.4,0.7,0.7,1.5,1.1,2.4c0.1-0.3,0.3-0.5,0.3-0.6C31.6,67.1,31.3,66.3,30.5,65.9z M13.1,39.3c-1.1,0.3-1.3,1.3-1.7,2.2
		C12.2,40.9,12.6,40,13.1,39.3z M-2.1,43.6c0.1,0.1,0.2,0.2,0.2,0.2c0.6-0.7,1.3-1.4,1.9-2.1c-0.1-0.1-0.1-0.1-0.2-0.2
		C-1,42-1.4,42.9-2.1,43.6z M16.8,57c-0.3,0.5-0.6,0.9-0.9,1.3c0.5,0.3,0.8,0.1,1.1-0.2C17.3,57.7,17.2,57.3,16.8,57z M18.8,38.8
		c0.9-0.4,1.1-1.3,1.4-2C19.3,37.2,19.1,38,18.8,38.8z M-2.6,41.8c-0.6-0.1-1.8,1.2-2.2,2C-3.7,43.5-3.4,42.5-2.6,41.8z M8.9,40.3
		c-0.9,0.5-1.4,1.3-1.8,2.2C7.9,42,8.3,41.1,8.9,40.3z M30.2,71.7c0.1,0,0.2,0,0.3,0c0.1-0.5,0.2-0.9,0.2-1.4c0-0.2-0.2-0.4-0.3-0.7
		c-0.1,0.2-0.2,0.4-0.3,0.6c-0.1,0.3-0.1,0.5-0.1,0.8C30.1,71.3,30.2,71.5,30.2,71.7z M-8.7,43.6c0.5,0.1,1.7-1,1.9-1.8
		C-7.7,42.2-8.1,43-8.7,43.6z M38,27c0.1,0,0.2,0.1,0.3,0.1c0.5-0.8,0.3-1.8,0.6-2.7c-0.1,0-0.2,0-0.3-0.1
		C38.4,25.2,38.2,26.1,38,27z M21.7,50.1c-0.6,0.2-0.7,0.6-0.6,1c0.1,0.4,0.3,0.7,0.8,0.5C21.8,51.1,21.8,50.6,21.7,50.1z M7.3,19.1
		c0.7-0.7,1-1.6,1.3-2.6C7.9,17.3,7.6,18.2,7.3,19.1z M34.6,29.8c0.8-0.6,0.8-1.6,1-2.4C34.8,28,34.8,28.9,34.6,29.8z M-9.9,43.6
		c0.5,0,1.7-1.1,1.8-1.7C-9,42.2-9.4,43-9.9,43.6z M7.5,59.9c-0.1,0.5-0.1,0.8-0.1,1.1c0,0.1,0.3,0.3,0.4,0.2
		c0.3-0.2,0.5-0.4,0.7-0.6C8.2,60.3,7.9,60.2,7.5,59.9z M33,29.4c-0.8,0.5-0.8,1.4-1.1,2.2C32.8,31.1,32.7,30.1,33,29.4z M2.3,10.2
		c-0.1,0-0.1-0.1-0.2-0.1c-0.6,1.4-1.3,2.7-1.9,4.1c0.1,0,0.1,0,0.2,0.1C1,12.9,1.6,11.5,2.3,10.2z M39.2,26.1c0.1,0,0.2,0,0.3,0.1
		c0.2-0.9,0.3-1.8,0.5-2.7c-0.1,0-0.1,0-0.2,0C39.2,24.2,39.3,25.1,39.2,26.1z M11.7,39.6c-0.6,0.2-1.6,1.5-1.7,2.2
		C10.8,41.3,11.1,40.5,11.7,39.6z M2.8,13.9C2.9,13.9,2.9,14,3,14c0.6-1.3,1.2-2.7,1.8-4c0,0-0.1,0-0.1-0.1
		C4.1,11.2,3.4,12.6,2.8,13.9z M9.7,50.5c-0.4-0.5-1.1-0.5-1.4,0c-0.1,0.1-0.1,0.3,0,0.4C8.3,51,8.6,51,8.7,51
		C9,50.8,9.3,50.7,9.7,50.5z M-7.3,43.7c0.9-0.3,1.3-1.1,1.8-1.7C-6.4,42.2-6.7,43.1-7.3,43.7z M16.4,52.8c0.3-0.5,0.3-0.9-0.1-1.3
		c-0.1-0.1-0.5-0.1-0.7-0.1c0,0.1,0,0.1,0,0.2C15.8,52,16.1,52.4,16.4,52.8z M29.3,70.4c-0.1,0-0.1-0.1-0.2-0.1
		c-0.1,0.1-0.4,0.2-0.4,0.2c0,0.5-0.3,1.1,0,1.6c0.1,0,0.2,0,0.2,0C29.1,71.6,29.2,71,29.3,70.4z M17.4,37.9c-0.1,0-0.2-0.1-0.2-0.1
		c-0.4,0.7-0.8,1.3-1.2,2c0.1,0,0.1,0.1,0.2,0.1C16.8,39.4,17.1,38.6,17.4,37.9z M17.1,53.9c-0.1,0-0.2,0.1-0.2,0.1
		c0,0.6,0.1,1.1,0.1,1.7c0.1,0,0.1,0,0.2,0.1c0.1-0.3,0.4-0.6,0.3-0.9C17.6,54.6,17.3,54.3,17.1,53.9z M30.7,32.5
		c0.8-0.5,0.7-1.3,0.9-2.1C30.9,30.9,30.9,31.7,30.7,32.5z M22.2,74.2c0.1-0.1,0.2-0.2,0.3-0.2c-0.4-0.4-0.7-0.8-1.1-1.2
		c0,0-0.2,0-0.3,0.1c-0.1,0.1-0.1,0.2,0,0.3C21.4,73.5,21.8,73.9,22.2,74.2z M23.5,73.8c0.1,0,0.1-0.1,0.2-0.1
		c0-0.5-0.4-0.9-0.8-1.2c-0.1-0.1-0.4,0.1-0.7,0.1C22.8,73.1,23.2,73.4,23.5,73.8z M30.4,31.4c-0.1,0-0.1-0.1-0.2-0.1
		c-0.7,0.5-0.7,1.3-0.9,2c0.1,0,0.2,0.1,0.2,0.1C29.8,32.7,30.1,32.1,30.4,31.4z M17.4,39.4c0.8-0.5,1-1.3,1.3-2.1
		C18,37.8,17.7,38.6,17.4,39.4z M20.6,74.6c0.2-0.4-0.5-1.4-0.8-1.5c-0.1,0-0.2,0-0.3,0.1c0,0.1-0.1,0.2,0,0.3
		C19.9,73.8,20.3,74.2,20.6,74.6z M0.9,11.3c-0.1,0-0.1-0.1-0.2-0.1c-0.6,1.2-1.1,2.3-1.7,3.5c0.1,0,0.1,0.1,0.2,0.1
		C-0.2,13.6,0.4,12.4,0.9,11.3z M24.2,34.9c-0.8,0.4-1.2,1.2-1.3,2.1c0,0,0.1,0.1,0.1,0.1C23.4,36.4,23.8,35.7,24.2,34.9z
		 M-11.9,41.9c-0.1-0.1-0.1-0.1-0.2-0.2c-0.7,0.3-1,0.9-1.5,1.4c0.1,0.1,0.1,0.1,0.2,0.2C-12.9,42.9-12.4,42.4-11.9,41.9z
		 M35.8,28.7c0.1,0,0.1,0,0.2,0.1c0.5-0.7,0.4-1.6,0.7-2.4c-0.1,0-0.2,0-0.2-0.1C36.3,27.1,36.1,27.9,35.8,28.7z M21.5,49
		c0.1,0,0.2,0,0.2,0c0.2-0.5,0.3-1,0.5-1.5c-0.1,0-0.1-0.1-0.2-0.1c-0.2,0.2-0.5,0.4-0.6,0.7C21.4,48.4,21.5,48.7,21.5,49z
		 M13.4,50.2c0,0.1,0,0.2,0.1,0.3c0.4,0.1,0.7,0.2,1.1,0.3c0.1-0.1,0.1-0.1,0.2-0.2c-0.2-0.3-0.3-0.6-0.6-0.7
		C14,49.8,13.7,50.1,13.4,50.2z M24.1,36.2c0.1,0,0.1,0.1,0.2,0.1c0.7-0.5,0.8-1.3,1.1-2c-0.1,0-0.1-0.1-0.2-0.1
		C24.8,34.9,24.5,35.6,24.1,36.2z M-16.2,41.3c0-0.1-0.1-0.1-0.1-0.2c-0.8,0.2-1.1,0.9-1.6,1.4c0.1,0.1,0.1,0.1,0.2,0.2
		C-17.2,42.2-16.7,41.7-16.2,41.3z M-17.1,40.9c-0.8,0.1-1.4,0.7-1.5,1.5C-18.2,42-17.7,41.5-17.1,40.9z M10.6,61.1
		c0-0.1-0.1-0.2-0.1-0.2c-0.3,0-0.5-0.1-0.8-0.1c-0.2,0-0.3,0.2-0.5,0.3c0.2,0.1,0.3,0.4,0.4,0.4C10,61.4,10.3,61.3,10.6,61.1z
		 M-9.4,42.1c-0.1-0.1-0.1-0.1-0.2-0.2c-0.5,0.5-1,1-1.5,1.5c0,0,0.1,0.1,0.1,0.1C-10.2,43.3-9.9,42.6-9.4,42.1z M21.6,37.5
		c0.1,0,0.1,0.1,0.2,0.1c0.3-0.6,0.7-1.3,1-1.9c0,0-0.1-0.1-0.1-0.1C22,36.1,21.9,36.8,21.6,37.5z M13.9,60c0,0.1,0,0.2,0,0.2
		c0.3,0,0.6,0,0.8-0.2c0.2-0.1,0.3-0.5,0.5-0.8c-0.2,0-0.3,0-0.3,0C14.6,59.5,14.2,59.7,13.9,60z M-14,41.6c-0.7,0-1.7,0.9-1.6,1.4
		C-15.1,42.6-14.5,42.1-14,41.6z M26.8,34.8c0.1,0,0.2,0.1,0.3,0.1c0.3-0.7,0.6-1.3,0.9-2c-0.1,0-0.2-0.1-0.3-0.1
		C27.4,33.5,27.1,34.2,26.8,34.8z M25.5,35.5c0.1,0,0.2,0.1,0.3,0.1c0.3-0.6,0.6-1.3,0.9-1.9c-0.1,0-0.2-0.1-0.3-0.1
		C26.1,34.2,25.8,34.9,25.5,35.5z M37.7,25.4c-0.1,0-0.2,0-0.2-0.1c-0.2,0.8-0.3,1.5-0.5,2.3c0.1,0,0.2,0,0.3,0.1
		C37.4,27,37.6,26.2,37.7,25.4z M33.3,30.5c0.1,0,0.2,0.1,0.3,0.1c0.2-0.7,0.5-1.4,0.7-2c-0.1,0-0.2-0.1-0.3-0.1
		C33.8,29.1,33.5,29.8,33.3,30.5z M20.2,38.1c0.1,0.1,0.2,0.1,0.3,0.2c0.3-0.7,0.7-1.3,1-2c-0.1,0-0.2-0.1-0.2-0.1
		C21,36.8,20.6,37.4,20.2,38.1z M28,34.1c0.1,0,0.2,0.1,0.3,0.1c0.3-0.7,0.6-1.3,0.8-2c-0.1,0-0.2-0.1-0.2-0.1
		C28.6,32.7,28.3,33.4,28,34.1z M13.8,16c0.8-0.6,1.1-1.5,0.7-1.8C14.3,14.8,14.1,15.3,13.8,16z M-13,41.8c-0.1-0.1-0.1-0.1-0.2-0.2
		c-0.5,0.5-1,0.9-1.5,1.4c0,0.1,0.1,0.1,0.1,0.2C-13.9,42.9-13.6,42.2-13,41.8z M-15.2,41.5c-0.1-0.1-0.1-0.1-0.2-0.2
		c-0.5,0.5-1,0.9-1.4,1.4c0.1,0.1,0.1,0.1,0.2,0.2C-16.1,42.4-15.7,41.9-15.2,41.5z M12.9,60.7c0,0-0.1-0.1-0.1-0.1
		c-0.3,0.1-0.7,0.2-1,0.3c0,0.1,0,0.1-0.1,0.2c0.2,0.1,0.5,0.4,0.6,0.3C12.6,61.2,12.7,60.9,12.9,60.7z M31.9,69.1
		c-0.1,0-0.2,0-0.3,0c-0.3,0.5,0.1,1.1,0,1.6c0.1,0,0.2,0,0.2,0C31.9,70.2,31.9,69.7,31.9,69.1z M17.3,70.4c-0.1,0-0.1,0-0.2,0
		c-0.1,0.9,0,1.4,0.5,1.7C17.5,71.6,17.4,71,17.3,70.4z M25.7,45c0.6-0.1,1-0.1,1.6-0.2C26.8,44.3,26.4,44.4,25.7,45z M12.3,50.1
		c-0.5-0.7-0.9-0.7-1.2,0C11.5,50.1,11.8,50.1,12.3,50.1z M5.5,56.1c-0.1,0-0.1,0-0.2,0c-0.1,0.2-0.2,0.5-0.2,0.7
		c0,0.2,0.3,0.3,0.4,0.5c0.1,0,0.1-0.1,0.2-0.1C5.6,56.8,5.5,56.4,5.5,56.1z M6.8,10.9c0,0-0.1,0-0.1,0C6.3,11.6,6,12.3,5.7,13
		c0.1,0,0.1,0.1,0.2,0.1C6.2,12.4,6.5,11.6,6.8,10.9z M33.1,44.8c0.2,0.6,0.3,1,0.4,1.4C33.9,45.6,33.7,45.2,33.1,44.8z M-0.5,19.1
		c-0.6-0.1-0.8,0.1-0.6,1C-1,19.7-0.8,19.5-0.5,19.1z M-18.3,40.8c-0.1-0.1-0.2-0.1-0.2-0.2c-0.3,0.3-0.5,0.6-0.8,0.9
		c0.1,0.1,0.1,0.1,0.2,0.2C-18.9,41.4-18.6,41.1-18.3,40.8z M22.7,42.7c-0.1,0-0.1,0-0.2,0c-0.1,0.6-0.2,1.3-0.3,1.9
		c0.1,0,0.1,0,0.2,0C22.5,44,22.6,43.4,22.7,42.7z M8.1,9.7c-0.1,0-0.1,0-0.2-0.1c-0.2,0.6-0.4,1.1-0.6,1.7c0,0,0.1,0,0.1,0
		C7.6,10.8,7.8,10.2,8.1,9.7z M35.6,35.4c-0.1,0-0.1,0-0.2,0c0,0.6,0,1.2,0,1.8c0,0,0.1,0,0.1,0C35.6,36.6,35.6,36,35.6,35.4z"/>
</g>
</svg>
