<?xml version="1.0" encoding="utf-8"?>
<!-- Generator: Adobe Illustrator 25.0.0, SVG Export Plug-In . SVG Version: 6.00 Build 0)  -->
<svg version="1.1" id="Capa_1" xmlns="http://www.w3.org/2000/svg" xmlns:xlink="http://www.w3.org/1999/xlink" x="0px" y="0px"
	 viewBox="0 0 192 99.2" style="enable-background:new 0 0 192 99.2;" xml:space="preserve">
<style type="text/css">
	.st0{fill:url(#SVGID_1_);}
	.st1{opacity:0.25;enable-background:new    ;}
</style>
<radialGradient id="SVGID_1_" cx="95.8" cy="52.4" r="76.2817" gradientTransform="matrix(1 0 0 -1 0 102)" gradientUnits="userSpaceOnUse">
	<stop  offset="0" style="stop-color:#D983B7"/>
	<stop  offset="1" style="stop-color:#B7489A"/>
</radialGradient>
<path class="st0" d="M191.2,0l-8.9,13.7l9.3,10.9l-9.1,11l9.1,10.9l-9.3,10.9l9.3,10.9l-9.3,10.9l9.3,10.9l-8.5,9.1H9.3L0,88.5
	l9.2-10.9L0,66.6l9.3-10.9L0,44.8l9.3-10.9L0,23l9.2-11L0.5,0H191.2z"/>
<path class="st1" d="M42.8,37.3L42.8,37.3c1.2,1.2,1.3,2.6,0.7,4.2c0.3,0.2,0.6,0.4,0.9,0.5c0.9,0.5,1.6,0.9,2.5,1.2
	c1.9,0.9,2.6,2.4,2.7,4.5c0.2,3.8,0.3,7.6,0.7,11.4c0.2,2.3,0.8,4.6,1.4,6.8c1.1,3.9,3.9,6.5,7.1,8.6c4,2.6,8.3,4.4,13.2,4.5
	c1,0,2.1,0.3,3,0.6c1.1,0.3,1.9,1,2.3,2.1c0.2,0.4,0.3,0.6,0.9,0.5c0.3-0.1,0.8-0.1,1.1,0c0.9,0.2,1.2,1.1,0.5,1.6
	c-0.7,0.6-1.5,1.1-2.3,1.5c-1.6,0.8-3.3,1.3-4.8,2.1c-0.6,0.3-1.1,0.9-1.6,1.2c-0.9,0.6-1.9,1.5-2.9,1.9c-3.7,1.3-7.3,2.7-11,3.8
	c-4,1.2-8.2,1.6-12.5,1.4c-4.4-0.2-8.8-0.9-12.9-2.7c-0.9-0.4-1.7-0.9-2.6-1.4c-0.5-0.3-0.9-0.4-1.3,0c-0.9,0.9-1.9,0.9-3.2,0.5
	c-1.6-0.5-3.3-0.8-5.1-1.1c-0.7-0.2-1.4-0.3-1.6-1.1c-0.7-2.1-1.4-4.2-2.1-6.3c-0.6-1.9-0.5-3.7-0.1-5.6c0.2-1.2,0.5-2.3,0.8-3.4
	c0.9-3.7,0.3-7.4-0.8-11c-1.2-3.9-2.3-7.9-3.5-11.7c-0.5-1.6-0.2-2.9,1.3-3.8c1.2-0.8,2.6-1.6,3.8-2.3c0.4-0.2,0.5-0.4,0.4-0.8
	c-0.3-1-0.6-2-0.9-3c-0.4-1.3-0.2-1.6,1.2-1.8c0.9-0.1,1.6-0.1,2.5-0.2c0.7,0,1,0.3,1.1,0.9c0.2,1.2,0.4,2.3,0.5,3.6
	c1.3-0.4,2.6-0.8,3.7-1.2c0.2-0.1,0.3-0.5,0.2-0.7c-0.1-0.9-0.2-1.6-0.4-2.5c-0.1-0.6,0.1-1,0.7-1.1c0.8-0.2,1.6-0.3,2.5-0.4
	c0.6-0.1,0.9,0.3,1,0.9c0.2,1.2,0.4,2.3,0.6,3.5c1.2,0,1.2-0.1,1.1-1.2c-0.1-0.6-0.2-1.2-0.4-1.8c-0.2-1.2,0.4-1.9,1.6-1.9
	c0.5,0,1.1,0.1,1.6,0.2c0.7,0,1.2,0.5,1.3,1.1c0.2,0.9,0.3,1.7,0.5,2.6c0.1,0.2,0.2,0.5,0.2,0.7c0.2-0.1,0.5-0.1,0.7-0.2
	c0.4-0.2,0.9-0.5,1.2-0.9c0.2-0.2,0.2-0.5,0.2-0.7c0-0.5-0.2-1.1-0.2-1.6c-0.1-1.1,0.2-1.5,1.2-1.9c0.3-0.1,0.6-0.3,1-0.5
	C41.4,37.3,42.1,37.3,42.8,37.3z M17,62.6c0.4,0.1,0.8,0.2,1.2,0.3c-0.2,0.2-0.5,0.5-0.9,0.9c0.5,0.2,1.1,0.2,1.6,0.4
	c0,0.1,0,0.2,0,0.3c-0.3,0.2-0.6,0.2-0.9,0.4c-0.2,0.2-0.2,0.4-0.2,0.5c0.6,0.1,1,0.1,1.4,0.2c-0.3,0.3-0.7,0.6-1.2,1.1
	c0.1,0.4,0.2,0.9,0.2,1.5c0,1.1,0.4,1.9,1.2,2.5c0.5,0.3,0.9,0.9,1.2,1.3c0.8,1,1.6,2,2.4,3c1.6,1.8,3.3,1.9,5.1,0.4
	c1.6-1.3,3-2.8,4.6-4.1c1.7-1.6,3.5-3,5.2-4.5c0.2-0.2,0.4-0.6,0.3-0.9c-0.2-1.8-0.6-3.6-0.8-5.3c-0.2-3.6-0.4-7.1-0.5-10.7
	c0-0.2-0.3-0.6-0.5-0.7c-3.4-0.7-6.8-1.3-10.3-1.9C25.2,47,24,47,22.8,46.9c0.2,1.8,0.7,3.2,1.7,4.6c1.2,1.8,0.9,3.6-0.9,4.4
	c-1.3,0.6-2.6,0.5-3.8-0.4c-1.2-0.9-1.5-2.1-1.1-3.5c0.4-1.6,0.1-3.1-0.5-4.6c-1.8,0.5-3.8,1.8-4.2,2.7c3.6-1.9,3.6-1.9,4.1-1.5
	c-1.4,1-3.3,1.4-4.4,2.9c0.2,0,0.4-0.2,0.6-0.2c0.5-0.2,0.9-0.2,1.4-0.4c0.1,0.8-0.6,0.7-1,1c-0.3,0.2-0.6,0.5-0.9,0.7
	c0.1,0.1,0.1,0.1,0.2,0.2c0.5-0.1,0.9-0.2,1.4-0.3c0,0.1,0.1,0.2,0.1,0.3c-0.5,0.4-0.9,0.8-1.5,1.2c0.1,0.1,0.2,0.2,0.2,0.2
	c0.2-0.1,0.3-0.2,0.5-0.2c0.2,0,0.5,0,0.8,0c-0.2,0.2-0.2,0.5-0.4,0.6c-0.2,0.2-0.4,0.4-0.6,0.6c0.6,0,1,0.1,1.4,0.1
	c0,0.1,0,0.2,0,0.3c-0.3,0.2-0.6,0.5-1,0.7c0.4,0.2,0.7,0.2,1,0.3c-0.2,0.3-0.3,0.5-0.5,0.9c0.3,0.1,0.6,0.2,1,0.3
	c-0.3,0.4-0.5,0.5-0.7,0.9c0.5,0.2,0.8,0.3,1.4,0.5c-0.5,0.3-0.8,0.5-1.1,0.7c0.3,0.2,0.5,0.2,0.5,0.3c0.2,0.1,0.5,0.2,0.7,0.2
	c-0.2,0.2-0.3,0.4-0.4,0.5c-0.1,0.2-0.1,0.5-0.1,0.5c0.5,0.2,0.8,0.3,1.1,0.4C17.5,62.1,17.3,62.3,17,62.6z M40.4,67.8
	c1.6-0.2,2.5-1,3.4-1.8c1.2-1,2.4-2,3.7-2.9c1.2-0.7,1.6-1.5,1.4-3c-0.4-3.7-0.5-7.5-0.7-11.2c0-0.3-0.1-0.6-0.1-1.1
	c-2.3,0.4-4.4-0.1-6.5-0.6c-0.4-0.1-0.7-0.4-1.1-0.5c0.1-0.2,0.1-0.2,0.2-0.4c0.4,0.1,0.9,0.1,1.2,0.2c1.9,0.2,3.7,0.5,5.7,0.8
	c0.2,0,0.3-0.1,0.5-0.2c0-0.1,0-0.2,0-0.3c-4.4,0.5-8.2-1.5-12.2-2.5c-0.1,1.6,0.2,2.7,1.6,3.3c0.6,0.2,0.7,0.9,0.8,1.5
	c0.2,4,0.5,7.9,0.9,11.9C39.4,63.3,40,65.5,40.4,67.8z M44.6,78.8c-1.1-1.6-2.5-3.3-3.4-5.1c-1-1.9-1.6-3.9-2.4-5.9
	c-3.9,2.6-6.3,6.8-10.3,9.5c2.1,0.5,3.4,1.9,4.7,3.3c1.2,1.2,2.4,2.3,3.7,3.3c1.5,1.1,3.3,1.4,5.1,1c0.8-0.2,1.7-0.5,2.3-1.1
	c1.3-1.2,0.6-3.3-1.1-3.8c-0.6-0.2-1.2,0-1.6,0.7c0.4,0.3,0.8,0.5,1.1,0.9c0.4,0.4,0.5,0.9,0.1,1.2c-0.2,0.2-0.8,0.2-1.1,0
	c-0.3-0.1-0.5-0.5-0.7-0.7c-1.2-1.2-0.9-2.9,0.9-3.5C42.8,78,43.8,78.3,44.6,78.8z M51.6,91.6c0.3,0,0.9,0.2,1.2-0.1
	c0.3-0.2,0.5-0.9,0.5-1.3c-0.4-0.9-0.8-1.9-1.5-2.6c-1.3-1.4-3.1-2.2-5-2.6c-0.8-0.2-1.6-0.1-2.3,0.5c-1.3,1.1-2.9,1.3-4.5,1.1
	c-1.8-0.2-3.4-1.1-4.9-2.1c-0.2-0.2-0.4-0.2-0.7-0.5c0,2.9-1.5,4.4-4.3,5.1c6.4,3.5,12.9,4.4,19.6,3.4c0-0.7-0.2-1.4,0.1-1.9
	c0.2-0.4,0.7-0.8,1.2-0.9c0.2-0.1,0.9,0.3,0.9,0.6C52,90.5,51.8,91,51.6,91.6z M18.6,72c-0.5,2.3-0.9,4.4-1.4,6.4
	c-0.4,1.8-0.4,3.6,0.1,5.4c0.2,0.5,0.3,0.7,0.9,0.9c1.4,0.3,2.7,0.7,4.1,1.1c0.6,0.2,1.2,0.3,1.9,0.5c0.1-0.2,0.2-0.2,0.1-0.2
	c-0.4-2.6-0.3-5.2,0-7.8c0-0.2-0.1-0.5-0.3-0.6c-1.5-0.7-2.4-1.9-3.3-3.2C20,73.5,19.3,72.7,18.6,72z M49.3,63.3
	c-2.3,1.9-4.3,3.6-6.5,5.4c0.4,0.2,0.5,0.2,0.7,0.2c2.9,0.9,5.1,2.5,6.3,5.3c0.2,0.3,0.3,0.6,0.5,0.9c1.1,1.6,2.6,2.9,4.7,2.9
	c0.5,0,1.2,0,1.2-0.8c0-0.7-0.5-1-1.3-0.9c-0.1,0.2-0.1,0.3-0.1,0.3c-0.2,0.3-0.5,0.5-0.9,0.8c-0.3-0.3-0.7-0.5-0.8-0.9
	c-0.1-0.4,0.1-0.9,0.4-1.2c0.7-0.9,1.6-0.9,2.7-0.5C52.6,71.9,50.2,68.2,49.3,63.3z M25.5,84.4c1-0.2,2-0.4,3-0.4
	c0.8,0,1.2,0.7,1,1.2c-0.2,0.8-0.8,0.5-1.3,0.3c-0.3-0.1-0.8,0.2-1.2,0.2c0.1,0.4,0.2,0.9,0.4,1.2c0.2,0.2,0.6,0.4,1,0.5
	c1.1,0.2,2.2,0,3.2-0.5c1.1-0.6,1.6-1.5,1.5-2.7c-0.2-3.3-3.6-6.1-6.9-5.8c-0.2,0-0.6,0.2-0.6,0.4C25.2,80.7,25.2,82.7,25.5,84.4z
	 M46.3,83.6c0.6,0.2,1.1,0.2,1.6,0.3c2.6,0.5,4.6,1.9,6.1,4c0.7,1.1,2,1.6,3.2,1.1c0.3-0.1,0.6-0.5,0.7-0.8c0.1-0.2-0.2-0.6-0.3-0.8
	c-0.4,0.4-0.7,0.7-1,1c-0.3-0.4-0.8-0.7-0.9-1.1c-0.2-1.1,0.9-1.9,1.9-1.6c0.5,0.2,0.9,0.5,1.2,0.7c0.3-0.6,0.5-1.2,0.8-1.7
	c-2.6-0.6-5.1-1.2-7.5-1.9c-2.5-0.7-4.7-1.9-6.8-3.6C46.5,80.7,46.7,82.1,46.3,83.6z M47.9,79.1c0.2,0.2,0.5,0.3,0.8,0.5
	c2.7,1.7,5.8,2.5,8.9,3.1c0.2,0,0.5-0.1,0.5-0.2c0.6-0.7,1.1-0.7,1.6,0.2c0.2,0.2,0.5,0.4,0.9,0.7c-0.2-2.3-2.7-4.4-4.8-4
	c-1.7,0.2-3.1-0.3-4.4-1.4c-0.5-0.4-0.9-0.8-1.2-1.1C49.4,77.6,48.7,78.3,47.9,79.1z M44.6,76.2c0.4-0.9,1-1.5,1.9-1.3
	c0.3,0.1,0.6,0.5,0.8,0.8c0.1,0.2-0.2,0.5-0.4,0.7c-0.2,0.2-0.4,0.4-0.5,0.5c0.3,0.2,0.5,0.4,0.9,0.5c0.9,0.1,1.6-0.9,1.4-2.1
	c-0.2-1.2-0.6-2.1-1.4-3C46,71.2,44.6,70.5,43,70c-0.6-0.2-1.2-0.3-1.9-0.5C41.9,72.1,42.8,74.3,44.6,76.2z M67.9,86.7
	c-0.6-0.4-1-0.9-1.6-1c-0.8-0.2-1.7-0.5-2.6-0.5c-0.9,0-2.1-0.8-2.8,0.1c-0.6,0.7-0.9,1.8-1.2,2.7c-0.2,0.7-0.2,1.5-0.4,2.3
	C62.4,89.5,65.3,88.8,67.9,86.7z M76.1,83c-0.4-1.3-1.2-1.9-2.4-2.1s-2.3-0.2-3.5-0.3c-0.2,0-0.5,0.2-0.6,0.5
	c-0.5,1.1-1,2.2-1.4,3.3c-0.2,0.7,0.3,1.2,1,1c0.6-0.2,1.2-0.3,1.7-0.5C72.6,84.2,74.3,83.6,76.1,83z M56.8,75.2
	c0.9,0.9,1.4,1.9,0.8,3.1c0.5,0.2,0.9,0.5,1.3,0.7c0.5,0.2,0.9,0.5,1.2,0.9c0.6,0.6,1.2,1.2,1.8,1.9c0.5,0.5,1,0.9,1.7,0.8
	c-0.2-1.2,0.2-1.9,1.4-2.1c0.5-0.1,1-0.1,1.3,0.2c0.5,0.3,0.7,0.9,1.1,1.5c0.2-0.5,0.5-1.1,0.8-1.6c-2-0.7-4-1.3-5.9-2.2
	C60.5,77.5,58.8,76.3,56.8,75.2z M38.6,43.5c2.8,1.2,5.5,2.3,8.6,2.2C45.1,43,40.8,41.9,38.6,43.5z M18.4,87
	c0.4,1.7,0.9,3.1,2.8,3.2c0.4,0,0.7,0.2,1.1,0.3c0.9,0.2,1.8,0.4,2.8,0.6c0.1-0.9-0.2-1.6-1-1.8c-0.8-0.3-1.6-0.8-2.3-1.1
	C20.6,87.7,19.5,87.4,18.4,87z M22.2,54.8c0.9,0,1.7-0.6,1.6-1.5c0-0.9-0.9-2.1-1.3-2.1c-1.8,0.1-2.6,0.5-2.6,1.5
	C19.8,53.8,21,54.9,22.2,54.8z M25.8,45.5c2.8,0.5,5.5,1.1,8.4,1.6C32.7,45.1,27.9,44.2,25.8,45.5z M19.6,47.1
	c0.2,1.1,0.5,2.1,0.7,3.2c0.5-0.1,1.1-0.2,1.8-0.2c-0.2-0.8-0.5-1.4-0.7-2.1C21,46.7,21,46.7,19.6,47.1z M55.4,93.3
	c-4.7,1-9.4,1.2-14.1,0.9C46,94.9,50.7,94.4,55.4,93.3z M54.7,91.6c2.1-0.1,3.2-0.6,3-1.3c-0.9,0-1.9,0-2.9,0
	C54.9,90.8,54.8,91.2,54.7,91.6z M62.7,91.2c2.4-0.6,4.7-1.6,6.8-3c0.2-0.2,0.3-0.5,0.5-0.7c-0.1-0.1-0.2-0.2-0.2-0.2
	C67.7,89.2,65.1,90.1,62.7,91.2z M73.3,85.4c-0.9,0.2-1.6,0.5-2.5,0.8c0,0.1,0.1,0.2,0.1,0.3C71.9,86.6,72.6,85.8,73.3,85.4z
	 M20.5,42.8c-0.1-0.1-0.2-0.1-0.3-0.2c-0.3,0.8-0.7,1.5-1,2.3c0.1,0.1,0.2,0.1,0.3,0.2C19.8,44.3,20.1,43.5,20.5,42.8z M19.7,41.8
	c-0.1-0.1-0.2-0.1-0.2-0.2c-0.4,0.6-0.8,1.2-0.9,1.9c0.1,0,0.2,0.1,0.2,0.1C19.1,43.1,19.4,42.4,19.7,41.8z M66.6,84.2
	c0.2-0.5,0.3-0.8,0.5-1.4c-0.6,0.5-1,0.8-1.6,1.1C66,84,66.3,84.1,66.6,84.2z"/>
</svg>
