<?xml version="1.0" encoding="utf-8"?>
<!-- Generator: Adobe Illustrator 25.0.0, SVG Export Plug-In . SVG Version: 6.00 Build 0)  -->
<svg version="1.1" id="Capa_1" xmlns="http://www.w3.org/2000/svg" xmlns:xlink="http://www.w3.org/1999/xlink" x="0px" y="0px"
	 viewBox="0 0 192 99.2" style="enable-background:new 0 0 192 99.2;" xml:space="preserve">
<style type="text/css">
	.st0{fill:url(#SVGID_1_);}
	.st1{opacity:0.25;}
</style>
<g>
	
		<radialGradient id="SVGID_1_" cx="96" cy="747.6" r="117.0313" gradientTransform="matrix(1 0 0 1 0 -698)" gradientUnits="userSpaceOnUse">
		<stop  offset="0" style="stop-color:#7F55A3"/>
		<stop  offset="0.1193" style="stop-color:#784F9C"/>
		<stop  offset="0.6177" style="stop-color:#5F3B84"/>
		<stop  offset="0.921" style="stop-color:#56347B"/>
	</radialGradient>
	<path class="st0" d="M153.7,99.2l-19.6-15.4l-19,15.4L95.7,83.8l-19,15.4L57.3,83.8L38.7,99.2L18.9,83.8L0,98.9c0,0,0-4.1,0-98.9
		c64,0,128,0,192,0c0,94.7,0,98.9,0,98.9l-19.5-15.1L153.7,99.2z"/>
</g>
<g class="st1">
	<path d="M160.5,42c0.8-0.8,1.6-1.7,2.3-2.4c-0.3-9.1-0.6-18.3-0.8-27.6c-0.1-2,0.7-2.5,2.4-1.4c3.2,1.9,6.3,4,9.2,6.2
		c2.2,1.7,4.2,3.7,6.2,5.6c2.4,2.2,2.4,3,0.2,5.2c-3.5,3.5-7.2,6.8-10.5,10c0.7,1.2,1.2,1.9,1.6,2.6c-0.9,0.1-1.8,0.3-2.7,0.4
		c-1.1,0.1-2.2,0.2-3.3,0.3c0,0.3,0,0.7,0.1,1c0.8,0,1.6-0.1,2.4,0c3.8,0.3,7.6,0.4,11.3,1c3.5,0.6,4.5,1.8,4.8,5.3
		c1.3,17.7-7.8,32-28.5,32c-8.2,0-14.7-3.9-19.3-10.5c-2.4-3.5-3.9-7.5-5.8-11.4c-0.9-1.8-0.3-3.5,1.1-4.6c2.1-1.7,4.4-3.1,6.6-4.6
		c0.7-0.5,1.4-0.8,2.1-1.2c-1.1-2-2.2-3.7-3.2-5.5c-0.9-1.6-2.1-2.2-3.9-2.3c-5.5-0.3-11-0.9-16.5-1.4c-0.7-0.1-1.3-0.3-2.3-0.5
		c0.8-1.2,1.3-2.3,2.1-3.1c4.4-4.3,8.8-8.7,15-10.6c0.9-0.3,1.5-1.5,2.6-2.7c1.9,2.7,4,5.3,5.7,8.1c1.1,1.8,1.8,3.8,2.5,5.8
		c0.6,1.6,1.5,1.9,3,1.3c2.8-1,5.7-2.2,8.6-2.9c5.3-1.3,6.2-0.5,6.3,4.9C159.8,40,160.3,41,160.5,42c-0.4,1.3-0.9,2.6-1.4,4.1
		c1.4-1.1,2.7-1.8,3.7-2.8c0.6-0.6,1-1.5,1.4-2.3c-0.9,0.1-1.8,0.2-2.6,0.4C161.3,41.5,160.9,41.8,160.5,42z M179.2,52.7
		c-3.2,1.6-6.5,3.1-10,4.8c2.6,2.1,5,4.2,7.8,6.5C177.8,60,178.5,56.3,179.2,52.7c1,0.6,2.1,1.2,3.5,2c0-1.8,0-3.3,0-5
		C181.4,50.8,180.3,51.7,179.2,52.7z M160.7,48.9c-0.3,1-0.6,2-0.8,2.9c0.9,0.5,1.6,0.8,2.2,1.1c-4.5-1.7-7.8,2.7-12,2.3
		c0.5-0.3,1.1-0.5,1.7-0.8c-2.1-1.4-4-2.8-6.1-4c-0.5-0.3-1.4-0.4-1.9-0.2c-3.3,1.6-6.7,3.3-9.9,5.1c-1,0.6-1.7,1.7-2.9,3
		c2,0.7,3.5,1.5,5,1.8c7.6,1.4,15.2,0.4,22.7-1.1c7-1.5,13.9-3.5,20-7.4c1.5-1,2.7-2.3,4.1-3.6c-4-3.1-16-3.9-22.1-1.8
		C160.6,47.2,160.6,48.1,160.7,48.9L160.7,48.9z M180.9,25.6c-2.7-4.1-13.7-13.9-18-14.2c0.6,9.2,0.1,18.5,1.2,27.7
		c3.3-0.4,5.3-1.9,7-4c1.4-1.7,3-3.1,4.6-4.6C177.4,28.8,179.2,27.2,180.9,25.6z M136.3,39.9c0.9,1.5,1.9,3.6,3.2,5.5
		c0.5,0.7,1.5,1.3,2.4,1.5c1.8,0.4,3.4,0.4,4.6,2.6c1,1.8,3.7,2.9,5.9,3.9c0.8,0.4,2.2-0.6,3.3-1c0.4-0.1,0.7-0.2,1.1-0.3
		c1.8-0.3,2.7-0.9,1.5-2.9c-0.4-0.6-0.2-1.5-0.1-2.3c0.1-2.9,0.3-5.8,0.4-8.7c0-3.6-0.7-4.2-4.2-3.3
		C148.4,36.4,142.4,38.2,136.3,39.9z M115.3,37.1c9,2.2,17.6,2.8,26.2,0c-2-4.8-3.7-10-7.7-13.4c-0.7,0.6-1.3,1.2-2,1.6
		c-2.6,1.3-5.5,2.2-7.8,3.9C120.9,31.5,118.2,34.4,115.3,37.1z M161,69.3c2.5-4,4.7-7.6,7.1-11.4c-6,1.3-11.8,2.5-17.9,3.8
		C153.9,64.3,157.3,66.7,161,69.3z M148.9,61.8c-3.6,0-6.9,0-10.6,0c2.1,3.1,4,5.9,6.1,8.9C145.9,67.5,147.4,64.7,148.9,61.8z
		 M131.7,60c1,2.1,1.8,3.9,2.8,5.9c1.1-1.7,1.9-2.9,2.8-4.3C135.4,61.1,133.8,60.7,131.7,60z M165,43.4c4.9,0.3,10.4,0.7,15.1,1
		C177.4,42.8,167.6,42.1,165,43.4z"/>
	<path d="M133.5,43.3c-1.4,1.4-2.8,3-4.4,4.3c-0.6,0.5-1.7,0.5-2.6,0.8c0-0.8-0.3-1.9,0.1-2.5C128.4,43.3,131.1,43,133.5,43.3z
		 M131,44c-3.4,1.1-4.3,2.2-3.4,4.4C128.7,46.9,129.7,45.6,131,44z"/>
	<path d="M165,54.6c2-0.7,4.1-1.4,6.1-2.2c0.8-0.3,1.7-0.5,2.4-1c0.8-0.6,1.5-1.4,2.2-2.1c-0.9-0.5-1.7-1.3-2.7-1.5
		c-1.3-0.4-2.8-0.4-4.1-0.6c-0.5-0.1-1-0.1-1.6-0.2c0-0.2,0-0.5,0.1-0.7c2.5,0.3,4.9,0.4,7.3,0.9c0.8,0.2,1.9,1.3,2,2.2
		c0.1,0.7-0.8,2-1.6,2.3c-3.3,1.3-6.6,2.4-10,3.5C165.1,55.1,165.1,54.8,165,54.6z"/>
	<path d="M135.6,57.7c4.8,0.1,9.7-1.2,13.8,1.2c-0.9,0.4-2.1,1.1-3.3,1.3c-0.6,0.1-1.4-0.7-1.8-1.5c-2.9-0.2-5.8-0.4-8.7-0.6
		C135.6,58,135.6,57.5,135.6,57.7z"/>
	<path d="M160.6,49c1.4-1,2.4-2.7,4.8-1.5c-0.5,0.5-0.8,1.1-1.3,1.4c-0.9,0.4-2,0.7-3,0.9C161,49.8,160.8,49.2,160.6,49
		C160.7,48.9,160.6,49,160.6,49z"/>
	<path d="M166.1,32.8c0-5.4,0-10.8,0-16.1c0.2,0,0.4,0,0.6,0c0,5.4,0,10.8,0,16.2C166.5,32.8,166.3,32.8,166.1,32.8z"/>
	<path d="M176.5,28.5c-2.6,2.2-5.2,4.5-7.8,6.7c-0.2-0.2-0.3-0.4-0.5-0.5c2.6-2.2,5.1-4.5,7.7-6.7C176.1,28.1,176.3,28.3,176.5,28.5
		z"/>
	<path d="M150.3,50c-3.2-3.1-8.6-3.4-10.3-8.1c1.8,1.2,3.6,2.5,5.4,3.7c1.8,1.2,3.7,2.5,5.5,3.7C150.7,49.6,150.5,49.8,150.3,50z"/>
	<path d="M120.8,35.7c6.3,0.4,12.6,0.7,19,1.1c0,0.3,0,0.5,0,0.8c-6.3-0.4-12.6-0.7-19-1.1C120.8,36.2,120.8,36,120.8,35.7z"/>
	<circle cx="134.1" cy="26.7" r="0.5"/>
	<circle cx="130" cy="28.5" r="0.5"/>
	<circle cx="128.4" cy="30.5" r="0.5"/>
	<circle cx="122.6" cy="32.5" r="0.5"/>
	<circle cx="126.5" cy="33.4" r="0.5"/>
	<circle cx="118.8" cy="36.1" r="0.5"/>
	<circle cx="140" cy="40.7" r="0.5"/>
	<circle cx="144.9" cy="42.5" r="0.5"/>
	<circle cx="147.1" cy="45" r="0.5"/>
	<circle cx="150.1" cy="46.2" r="0.5"/>
	<circle cx="151.8" cy="47.7" r="0.5"/>
	<circle cx="152.4" cy="50.5" r="0.5"/>
	<circle cx="156.8" cy="50.9" r="0.5"/>
	<circle cx="156.8" cy="46.7" r="0.5"/>
	<circle cx="154.9" cy="44.6" r="0.5"/>
	<circle cx="153.2" cy="42.7" r="0.5"/>
	<circle cx="153.2" cy="39.5" r="0.5"/>
	<circle cx="148.4" cy="40.9" r="0.5"/>
	<circle cx="165" cy="14.3" r="0.5"/>
	<circle cx="169" cy="17" r="0.5"/>
	<circle cx="170.8" cy="19.1" r="0.5"/>
	<circle cx="169" cy="24.8" r="0.5"/>
	<circle cx="174.6" cy="24.8" r="0.5"/>
	<circle cx="177.5" cy="25.6" r="0.5"/>
	<circle cx="176.4" cy="23.1" r="0.5"/>
	<circle cx="164.8" cy="33.2" r="0.5"/>
	<circle cx="166.2" cy="37" r="0.5"/>
	<circle cx="145.1" cy="39.5" r="0.5"/>
	<circle cx="156.2" cy="40.9" r="0.5"/>
	<circle cx="153.7" cy="38.1" r="0.5"/>
	<circle cx="156.8" cy="36.5" r="0.5"/>
	<circle cx="133" cy="33.4" r="0.5"/>
	<circle cx="136" cy="34.3" r="0.5"/>
</g>
</svg>
