<?xml version="1.0" encoding="utf-8"?>
<!-- Generator: Adobe Illustrator 25.0.0, SVG Export Plug-In . SVG Version: 6.00 Build 0)  -->
<svg version="1.1" id="Capa_1" xmlns="http://www.w3.org/2000/svg" xmlns:xlink="http://www.w3.org/1999/xlink" x="0px" y="0px"
	 viewBox="0 0 192 99.2" style="enable-background:new 0 0 192 99.2;" xml:space="preserve">
<style type="text/css">
	.st0{fill:url(#SVGID_1_);}
	.st1{opacity:0.25;}
</style>
<g>
	
		<radialGradient id="SVGID_1_" cx="96" cy="1429.6" r="117.0313" gradientTransform="matrix(1 0 0 1 0 -1380)" gradientUnits="userSpaceOnUse">
		<stop  offset="0" style="stop-color:#39A84A"/>
		<stop  offset="0.921" style="stop-color:#2E7842"/>
	</radialGradient>
	<path class="st0" d="M153.7,99.2l-19.6-15.4l-19,15.4L95.7,83.8l-19,15.4L57.3,83.8L38.7,99.2L18.9,83.8L0,98.9c0,0,0-4.1,0-98.9
		c64,0,128,0,192,0c0,94.7,0,98.9,0,98.9l-19.5-15.1L153.7,99.2z"/>
</g>
<path class="st1" d="M14.9,84.3c-0.2-0.1-0.5-0.1-0.7-0.2c-0.5-0.1-1-0.2-1.5-0.3c-0.2,0-0.3,0-0.5,0.1c-0.1,0-0.2,0-0.3,0
	c0-0.1-0.1-0.2,0-0.3c0-0.2,0.1-0.4,0.2-0.6c0,0-0.1,0-0.1,0c-0.1,0-0.1,0.1-0.2,0.1c-0.1,0-0.2,0-0.3-0.1c0,0-0.1-0.2,0-0.3
	c0.1-0.1,0.2-0.3,0.3-0.3c0.4-0.2,0.2-0.5,0.3-0.8c0-0.2-0.2-0.2-0.4-0.3c-0.1-0.1-0.3-0.2-0.3-0.3c0-0.2,0.2-0.2,0.4-0.2
	c0.3,0.1,0.3-0.1,0.3-0.3c0-0.3,0-0.6-0.4-0.6c-0.1,0-0.3-0.2-0.3-0.3c0-0.2,0.2-0.2,0.4-0.2c0.2,0,0.4,0.1,0.4-0.2
	c0-0.2,0.1-0.5-0.3-0.5c-0.1,0-0.2,0-0.2-0.1c-0.1-0.1-0.2-0.2-0.1-0.3c0-0.1,0.2-0.2,0.3-0.2c0.1,0,0.2,0,0.3,0
	c0-0.3,0.1-0.5,0.1-0.8c0,0,0,0-0.1,0c0,0.1-0.1,0.1-0.1,0.2c-0.1,0.1-0.2,0.1-0.3,0.2c-0.1-0.1-0.2-0.2-0.2-0.3
	c0-0.2,0.1-0.4,0.2-0.6c0,0-0.1-0.1-0.1-0.1c0,0.1,0,0.1-0.1,0.2C11.3,77,11.2,77,11.1,77c-0.1-0.1-0.2-0.2-0.2-0.3
	c0-0.1,0.1-0.3,0.1-0.4c0-0.1,0-0.2,0-0.3c0,0-0.1,0-0.1,0c-0.1,0.1-0.1,0.2-0.2,0.3c-0.1,0.1-0.2,0-0.4,0c0-0.1,0-0.3,0-0.4
	c0,0,0.1-0.1,0.1-0.1c0.3-0.3,0.3-0.4-0.1-0.8c-0.1,0.1-0.1,0.3-0.3,0.4c-0.1,0.1-0.3,0.1-0.4,0c-0.2-0.1-0.1-0.3,0-0.4
	c0.1-0.1,0.2-0.2,0.3-0.3c0.1-0.1,0.1-0.3-0.1-0.4c-0.1,0.1-0.2,0.3-0.3,0.4c-0.1,0.1-0.3,0.3-0.5,0.1c-0.2-0.2,0-0.3,0.1-0.5
	c0-0.1,0.1-0.1,0.1-0.1c0.3-0.4,0.3-0.4,0-0.8c-0.1,0.1-0.2,0.2-0.2,0.2c-0.1,0-0.2,0.1-0.3,0c-0.1,0-0.1-0.2-0.1-0.3
	c0-0.1,0.1-0.2,0.1-0.2C9,72.7,9,72.6,8.7,72.2c-0.1,0-0.1,0.1-0.2,0.1c-0.1,0-0.2,0-0.3,0c0-0.1,0-0.3,0-0.4c0-0.1,0.1-0.1,0.2-0.2
	c0.2-0.1,0.2-0.3,0-0.4c-0.2,0.1-0.3,0.1-0.5,0.2c-0.1,0-0.2,0-0.3-0.1c0-0.1,0-0.2,0-0.3c0.1-0.1,0.3-0.2,0.5-0.3
	c-0.1-0.2,0-0.6-0.5-0.5c-0.3,0-0.6-0.5-0.5-0.8c0.1-0.4-0.1-0.7-0.6-0.6c-0.2,0-0.3,0-0.3-0.2c0-0.1-0.1-0.3-0.1-0.4
	C6,68.1,5.9,68,5.7,68.1c-0.1,0-0.3,0-0.3,0c0-0.1-0.1-0.3,0-0.4c0-0.1,0.2-0.2,0-0.3c-0.1-0.1-0.2-0.1-0.3-0.1
	c-0.1,0-0.2,0-0.3-0.1c0-0.1,0-0.2,0-0.3c0-0.1,0.1-0.2,0.2-0.2c-0.1-0.2-0.2-0.4-0.3-0.6c0-0.1-0.2-0.1-0.2-0.1
	c-0.1,0-0.2-0.1-0.3-0.2c0-0.1,0-0.2,0.1-0.3c0.2-0.1,0.2-0.2,0.1-0.4c0-0.1-0.1-0.2-0.1-0.3c0-0.2-0.1-0.3-0.3-0.3
	c-0.1,0-0.2,0-0.2,0c-0.1-0.1-0.1-0.2-0.1-0.2c0-0.1,0.1-0.2,0.2-0.2c0.1,0,0.2,0,0.2,0c0.1,0,0.2-0.1,0.3-0.1c0-0.1,0-0.2-0.1-0.3
	c-0.1-0.1-0.3-0.3-0.1-0.4c0.2-0.2,0.3-0.1,0.5,0.1c0.1,0.1,0.2,0.1,0.2,0.1c0-0.1,0-0.2,0-0.3c0-0.2-0.1-0.3,0-0.5
	c0-0.1,0.1-0.2,0.2-0.2c0.1,0,0.3,0.1,0.3,0.2c0.1,0.1,0.1,0.3,0.1,0.5c0,0.1,0.1,0.3,0.2,0.4c0,0,0.1,0,0.1,0c0-0.1,0-0.3,0-0.4
	c0-0.1,0.1-0.2,0.2-0.3c0.1,0.1,0.3,0.2,0.3,0.3c0,0.2,0,0.4,0,0.6c0,0,0,0.1,0,0.2c0.1-0.1,0.1-0.2,0.2-0.3
	c0.1-0.1,0.2-0.1,0.3-0.2c0-0.3-0.1-0.5-0.4-0.7c0,0,0,0-0.1,0c-0.2-0.1-0.4-0.2-0.3-0.5c0.1-0.3,0.4-0.1,0.5,0
	c0.2-0.5,0-0.9-0.4-1.1c-0.1,0-0.2-0.1-0.2-0.2C6,60.7,5.9,60.5,6,60.4c0.1-0.1,0.2-0.1,0.3-0.1c0.1,0,0.2,0.1,0.3,0.1
	c0.1-0.5,0.1-0.6-0.4-0.8c-0.1,0-0.1,0-0.2-0.1C6,59.5,5.9,59.3,6,59.2c0-0.1,0.2-0.1,0.3-0.1c0.1,0,0.2,0,0.3,0.1
	c0.1-0.4,0.1-0.5-0.2-0.7c-0.2-0.1-0.4-0.1-0.3-0.3C6,58.1,6.3,58,6.4,58c0,0,0.1,0,0.1,0c0-0.4,0-0.8,0-1.2c-0.2,0-0.3,0-0.4,0
	c-0.1,0-0.3-0.1-0.3-0.2c0-0.1,0.1-0.2,0.1-0.3c0,0,0,0,0,0c0.5,0,0.5-0.4,0.5-0.7c0-0.2,0-0.5,0-0.7c0-0.2-0.1-0.4-0.3-0.4
	c-0.1,0-0.2,0-0.2-0.1c-0.1-0.1-0.2-0.2-0.1-0.3c0-0.1,0.2-0.1,0.3-0.2c0.1,0,0.2,0,0.3,0.1c0.2-0.5,0.2-0.7-0.2-1.1
	c-0.1-0.1-0.2-0.2-0.2-0.2c-0.1-0.2-0.1-0.4,0.2-0.4c0.3-0.1,0.4-0.2,0.2-0.7c-0.1,0.1-0.2,0.1-0.2,0.2c-0.1,0-0.3,0.1-0.3,0
	c-0.1-0.1-0.1-0.2-0.1-0.3c0.1-0.1,0.2-0.3,0.3-0.4c0.3-0.2,0.3-0.4,0.1-0.7c-0.1,0.1-0.2,0.2-0.3,0.3c-0.1,0.1-0.2,0.1-0.4,0.1
	c0-0.1-0.1-0.3-0.1-0.4c0.1-0.2,0.3-0.4,0.5-0.5c0.2-0.1,0.2-0.3,0.2-0.5c0-0.1-0.2-0.2-0.3-0.3c-0.2-0.1-0.3-0.3-0.1-0.5
	c0.4-0.4,0.2-0.8,0.2-1.2c0-0.1-0.2-0.1-0.3-0.2c-0.1-0.1-0.2-0.2-0.2-0.2c0-0.1,0.1-0.2,0.2-0.2c0.2,0,0.2-0.1,0.2-0.3
	C5.8,46.3,6,46,5.6,46c-0.2,0-0.1-0.3,0.1-0.4c0.2-0.1,0.2-0.2,0.2-0.4c0-0.1,0-0.3,0-0.4c0-0.3,0-0.5-0.3-0.6
	c-0.2-0.1-0.2-0.3,0-0.4c0.3-0.2,0.3-0.8,0-1c-0.2-0.1-0.2-0.3,0-0.5c0.2-0.1,0.2-0.7,0-0.9c-0.1-0.1-0.2-0.2-0.3-0.3
	c0.1-0.1,0.2-0.2,0.4-0.4c0-0.3,0-0.6,0-1c0-0.1-0.1-0.1-0.1-0.2c-0.1-0.1-0.2-0.1-0.2-0.2c0-0.1,0.1-0.3,0.1-0.3
	c0.2-0.1,0.2-0.2,0.2-0.4c0-0.4,0-0.8-0.1-1.2c0-0.1,0-0.2,0-0.2c0-0.2,0.2-0.5,0.1-0.7c-0.1-0.7,0.2-1.3,0.5-1.9
	c0.2-0.4,0.2-0.6,0-1c-0.1-0.1-0.2-0.4,0-0.5c0.3-0.1,0.4,0.1,0.5,0.3c0,0.1,0.1,0.2,0.1,0.3c0.2-0.1,0.4-0.2,0.3-0.4
	c0-0.1,0-0.3,0.1-0.3c0.1,0,0.3,0,0.3,0.1c0.2,0.3,0.4,0.2,0.6,0.1c0-0.1-0.1-0.2-0.1-0.3c0-0.1,0.1-0.3,0.1-0.3
	c0.1,0,0.3,0,0.4,0.1c0.1,0.1,0.1,0.2,0.1,0.3c0.1,0.1,0.2,0.1,0.3,0.2c0,0,0.1-0.1,0.2-0.2c0.1-0.1,0.2-0.2,0.3-0.2
	c0.1,0.1,0.2,0.2,0.2,0.3c0,0.1,0,0.3,0,0.4c0.1,0,0.1,0,0.1,0c0.5-0.3,0.5-0.3,0.6,0.3c0,0.1,0.1,0.3,0.1,0.4
	c0.1-0.1,0.1-0.1,0.2-0.1c0.1,0,0.3,0,0.4,0c0.1,0,0.1,0.3,0,0.3c-0.4,0.5,0,0.9-0.1,1.4c0.2-0.1,0.3-0.2,0.4-0.2
	c0.1,0,0.2,0,0.3,0.1c0,0.1,0,0.2,0,0.3c-0.1,0.1-0.2,0.2-0.3,0.3c-0.2,0.1-0.3,0.3-0.2,0.5c0,0.1,0,0.3,0.1,0.4c0,0,0,0,0.1,0
	c0.1,0,0.3-0.1,0.4,0.1c0.1,0.2-0.1,0.3-0.3,0.4c-0.1,0-0.2,0.2-0.2,0.3c0,0.2,0,0.5,0,0.7c0.1,0,0.2,0,0.2,0c0.1,0,0.3,0.1,0.4,0.1
	c-0.1,0.1-0.2,0.3-0.3,0.4c-0.1,0.1-0.3,0.1-0.3,0.1c0,0.2,0,0.4,0,0.7c0,0,0.1,0.1,0.2,0.1c0.1,0.1,0.2,0.1,0.3,0.2
	c-0.1,0.1-0.2,0.2-0.3,0.3c-0.1,0.1-0.3,0-0.3,0.3c0,0.3-0.3,0.6,0.2,0.8c0.1,0,0.1,0.2,0.1,0.3c0,0.1-0.1,0.1-0.2,0.2
	c-0.1,0.1-0.2,0.1-0.2,0.2c0,0.2,0,0.4-0.1,0.5c0,0.2,0,0.3,0.2,0.3c0.1,0,0.2,0.2,0.2,0.3c0,0.2-0.1,0.2-0.3,0.2c0,0-0.1,0-0.2,0
	c0,0.3-0.1,0.5-0.1,0.8c0.2,0,0.3-0.1,0.5-0.1c0.1,0,0.2,0.1,0.3,0.2c0,0.1,0,0.2-0.1,0.3c-0.1,0.1-0.3,0.2-0.4,0.2
	c-0.2,0-0.3,0.1-0.2,0.3c0,0.3,0,0.6,0,1c0.2,0,0.3-0.1,0.4-0.1c0.1,0,0.2,0.1,0.3,0.2c-0.1,0.1-0.1,0.2-0.2,0.3c0,0,0,0,0,0
	c-0.5,0.2-0.5,0.2-0.5,0.8c0,0.2,0,0.5,0.1,0.8c0.1-0.1,0.2-0.2,0.3-0.2c0.1,0,0.3,0,0.4,0c0,0.1,0,0.3-0.1,0.4
	c0,0.1-0.1,0.1-0.1,0.1c-0.5,0.4-0.5,0.6-0.3,1.2c0.1-0.1,0.2-0.1,0.2-0.2c0.1,0,0.2,0,0.3,0c0,0.1,0.1,0.3,0,0.4
	c-0.1,0.1-0.2,0.3-0.4,0.4c-0.2,0.2-0.2,0.6,0,0.7c0.3,0.2,0.3,0.4,0.2,0.6c-0.1,0.2-0.1,0.5-0.1,0.8c0.3-0.3,0.7-0.3,1.1-0.3
	c-0.1-0.1-0.1-0.2-0.2-0.2c-0.2-0.1-0.4-0.2-0.2-0.5c0.1-0.1,0.3-0.1,0.5-0.2c0.1-0.3,0.1-0.6-0.3-0.8c-0.1-0.1-0.1-0.2-0.1-0.2
	c0-0.1,0.1-0.2,0.2-0.2c0.3,0,0.3-0.2,0.3-0.4c0-0.1,0-0.2,0-0.3c0-0.1-0.1-0.2-0.2-0.2c-0.2,0-0.4-0.1-0.3-0.3
	c0-0.3,0.2-0.2,0.4-0.2c0,0,0.1,0,0.1,0c0-0.3,0-0.5,0-0.8c0,0-0.1-0.1-0.2-0.1c-0.1-0.1-0.2-0.2-0.2-0.3c0-0.1,0.1-0.2,0.2-0.2
	c0.3,0,0.3-0.2,0.3-0.4c0-0.1,0-0.2,0-0.4c0-0.2,0-0.3-0.2-0.4c-0.1,0-0.2-0.2-0.2-0.3c0.1-0.1,0.2-0.1,0.3-0.2
	c0.1-0.1,0.2-0.1,0.2-0.2c0-0.1,0-0.3-0.1-0.4c-0.2-0.3-0.4-0.6-0.5-0.9c-0.2-0.3-0.1-0.4,0.3-0.4c0,0,0-0.1,0-0.1
	c0.1-0.1,0.2-0.2,0.4-0.3c0.1,0,0.1-0.1,0.1-0.2c0-0.3,0-0.5,0-0.8c0-0.1-0.1-0.2-0.2-0.2c-0.2-0.1-0.4-0.1-0.6-0.1
	c-0.1,0-0.2-0.2-0.2-0.2c0-0.1,0.1-0.2,0.2-0.2c0.2,0,0.4,0,0.6,0c0.1,0,0.2-0.1,0.2-0.1c0-0.1-0.1-0.2-0.1-0.2c0,0-0.1,0-0.1-0.1
	c-0.2-0.1-0.3-0.2-0.2-0.4c0-0.1,0.2-0.1,0.3-0.1c0,0,0.1,0,0.1,0c0.2-0.3,0.1-0.5,0-0.7c-0.1-0.2-0.3-0.4-0.4-0.6
	c-0.1-0.1,0-0.3,0-0.5c0.1,0,0.3,0.1,0.4,0.1c0,0,0.1,0,0.1,0c0.2-0.3,0.1-0.7-0.2-0.8c-0.1,0-0.2-0.1-0.2-0.1
	c-0.1-0.1-0.1-0.2-0.1-0.3c0-0.1,0.2-0.1,0.3-0.1c0.1,0,0.1,0,0.3,0c0-0.2,0-0.5,0-0.7c0-0.1-0.1-0.1-0.2-0.2
	c-0.2-0.1-0.4-0.1-0.3-0.4c0.1-0.2,0.3-0.2,0.4-0.1c0,0,0,0,0.1,0c0-0.2,0-0.5,0-0.7c0-0.1-0.1-0.1-0.2-0.2
	c-0.1-0.1-0.2-0.2-0.3-0.3c0.1-0.1,0.2-0.1,0.4-0.2c0,0,0.1,0,0.1,0c0-0.2,0-0.4,0-0.7c0-0.1-0.2-0.1-0.2-0.2
	c-0.1-0.1-0.2-0.2-0.3-0.3c0.1-0.1,0.3-0.2,0.4-0.2c0.2,0,0.3-0.1,0.3-0.2c0-0.3-0.1-0.5-0.2-0.8c-0.1-0.3-0.3-0.6-0.5-0.9
	c0-0.1,0-0.2,0-0.3c0.1,0,0.3,0,0.4,0.1c0.1,0.1,0.2,0.2,0.3,0.3c0.1-0.3,0.1-0.4-0.2-0.5c-0.1,0-0.2-0.1-0.3-0.1
	C13.1,31.1,13,31,13,30.9c0.1-0.1,0.2-0.2,0.4-0.2c0.1,0,0.2,0,0.3,0.1c0.2-0.4,0.1-0.7,0.1-1.1c0,0-0.1-0.1-0.2-0.1
	c-0.1,0-0.3,0-0.4-0.1c-0.1,0-0.1-0.2-0.1-0.3c0-0.1,0.1-0.2,0.2-0.2c0,0,0.1,0,0.2,0c0.4,0,0.4,0,0.4-0.4c0-0.2-0.1-0.3-0.2-0.3
	c0,0,0,0-0.1,0c-0.2-0.1-0.5-0.1-0.4-0.3c0-0.3,0.3-0.2,0.5-0.2c0.2,0,0.3-0.1,0.3-0.3c-0.1-0.3-0.2-0.5-0.3-0.7
	c-0.1-0.2-0.3-0.4-0.4-0.6c0-0.1,0-0.2,0-0.3c0.1,0,0.3,0,0.4,0c0.2,0.1,0.3,0.3,0.4,0.4c0.2-0.4,0.1-0.6-0.2-0.9
	c-0.1-0.1-0.1-0.2-0.2-0.4c0.1,0,0.2-0.1,0.3-0.1c0,0,0.1,0,0.1,0c0-0.2,0.1-0.5,0.1-0.7c0-0.1-0.1-0.2-0.2-0.2
	c-0.2-0.1-0.5-0.1-0.5-0.3c0-0.3,0.3-0.2,0.5-0.2c0.1,0,0.2-0.1,0.2-0.1c0-0.2,0-0.4-0.1-0.5c0-0.1-0.2-0.1-0.3-0.2
	c-0.1-0.1-0.1-0.2-0.2-0.4c0.1,0,0.2-0.1,0.4-0.1c0.1,0,0.2,0,0.3,0c0-0.1,0-0.3,0-0.4c-0.1-0.2-0.2-0.3-0.3-0.5
	c-0.1-0.2-0.2-0.4,0.1-0.5c0.1,0,0.3,0.1,0.4,0.2c0,0,0.1,0.1,0.1,0.2c0,0,0.1,0,0.1,0c0-0.2,0-0.3,0-0.5c0-0.2-0.1-0.3-0.1-0.5
	c0-0.1,0.1-0.3,0.2-0.4c0.2-0.1,0.3,0.1,0.3,0.2c0,0.1,0.1,0.1,0.1,0.2c0,0,0.1,0,0.1,0c0-0.1,0-0.2,0-0.3c0-0.1-0.1-0.2-0.1-0.4
	c0-0.1,0.1-0.2,0.1-0.4c0.1,0.1,0.3,0.1,0.4,0.2c0.1,0.1,0.1,0.2,0.2,0.3c0.2-0.2,0.4-0.3,0.5-0.5c0-0.1,0-0.2,0-0.3
	c0-0.2-0.1-0.3-0.2-0.5c-0.1-0.2-0.1-0.4,0.2-0.5c0.1,0,0.3,0.2,0.4,0.3c0.1,0.1,0.1,0.3,0.1,0.4c0.4-0.1,0.5-0.2,0.5-0.6
	c0-0.2-0.1-0.5,0.2-0.5c0.3,0,0.3,0.3,0.3,0.5c0,0,0,0.1,0,0.1c0.5,0.1,0.5,0,0.5-0.4c0-0.2,0.1-0.4,0.3-0.4c0.1,0,0.2,0.2,0.2,0.4
	c0,0.2,0,0.5,0.3,0.5c0.2,0,0.3,0,0.3-0.2c0-0.1,0.1-0.3,0.1-0.3c0.1-0.1,0.2-0.2,0.3-0.2c0.1,0.1,0.2,0.2,0.2,0.3
	c0,0.1-0.1,0.3-0.1,0.4c-0.1,0.2-0.1,0.3,0.1,0.4c0.1,0,0.2,0.1,0.2,0.2c0.1,0.1,0.2,0.1,0.4,0c0.2-0.1,0.8,0,0.9,0.1
	c0,0.1,0,0.2,0,0.3c0,0.1-0.1,0.2-0.2,0.3c-0.2,0.2-0.2,0.4,0.1,0.5c0.1-0.1,0.1-0.2,0.2-0.2c0.1-0.1,0.3-0.1,0.3-0.1
	c0.1,0.1,0.1,0.2,0.1,0.4c0,0.1-0.2,0.2-0.2,0.4c0,0.1-0.1,0.2,0,0.3c0,0,0.2,0.1,0.3,0c0.3-0.1,0.6-0.2,0.9-0.3
	c0.1,0,0.1-0.1,0.1-0.2c0-0.3,0-0.5-0.2-0.8c-0.1-0.1-0.2-0.2-0.2-0.3c0-0.1,0.2-0.1,0.4-0.3c0-0.2,0.1-0.5,0.1-0.8
	c0-0.1-0.1-0.2-0.1-0.3c-0.1-0.1-0.3-0.3-0.2-0.3c0.1-0.1,0.2-0.2,0.4-0.3c0-0.1,0.1-0.3-0.2-0.5c-0.1-0.1-0.2-0.2-0.3-0.4
	c0.1-0.1,0.3-0.2,0.5-0.3c0-0.1,0-0.3,0-0.5c0-0.1-0.1-0.1-0.2-0.2c-0.1-0.1-0.2-0.2-0.2-0.3c0-0.1,0.1-0.2,0.2-0.2
	c0.1-0.1,0.2-0.1,0.2-0.2c0-0.1-0.1-0.3-0.1-0.4c0,0-0.1,0-0.1-0.1c-0.2-0.1-0.4-0.1-0.3-0.3c0-0.1,0.3-0.2,0.5-0.3
	c0-0.1,0-0.4,0-0.6c0-0.1-0.3-0.1-0.4-0.2c-0.1-0.1-0.2-0.2-0.2-0.3c0-0.2,0.1-0.3,0.3-0.3c0.1,0,0.2,0,0.3,0.1
	c0.1-0.3,0-0.5-0.3-0.5c0,0-0.1,0-0.1-0.1c-0.1-0.1-0.1-0.2-0.2-0.3c0.1-0.1,0.2-0.2,0.4-0.2c0.2,0,0.3,0.1,0.4-0.2
	c0-0.1,0-0.2-0.1-0.3c0,0-0.1-0.1-0.1-0.1c-0.1-0.1-0.1-0.3-0.2-0.4c0.1,0,0.3-0.1,0.4-0.1c0.3,0.2,0.4,0.1,0.5-0.2
	c0-0.1,0-0.2,0-0.4c0,0,0,0,0,0c-0.1-0.2-0.3-0.4-0.1-0.6c0.2-0.2,0.4,0.1,0.5,0.3c0.1,0.1,0.2,0.1,0.3,0c0.1-0.1,0.2-0.2,0.4-0.3
	c-0.1-0.1-0.2-0.3-0.2-0.4c0-0.1,0-0.2,0-0.4c0.1,0,0.3,0,0.3,0.1c0.1,0.1,0.1,0.2,0.2,0.3c0.1,0.1,0.2,0.2,0.2,0.2
	c0.1,0,0.2-0.1,0.2-0.2c0.1-0.1,0-0.3,0.1-0.4c0.1-0.1,0.2-0.2,0.3-0.3c0.1,0.1,0.1,0.2,0.2,0.4c0,0.1,0,0.2,0,0.3
	c0,0.1,0,0.2,0.1,0.2c0.1,0,0.2-0.1,0.3-0.1c0.1-0.1,0-0.2,0.1-0.3c0.1-0.1,0.2-0.2,0.3-0.2c0.1,0,0.1,0.2,0.2,0.2c0,0,0,0.1,0,0.2
	c0,0.1-0.1,0.3-0.1,0.4c0.1,0.2,0.3,0.3,0.5,0.4c0.1-0.1,0.1-0.2,0.2-0.3c0.1-0.1,0.2-0.1,0.2-0.1c0.1,0,0.2,0.2,0.2,0.3
	c0,0.1,0,0.2-0.1,0.3c-0.3,0.3-0.1,0.6,0.1,0.9c0.1,0,0.1-0.1,0.2-0.1c0.1,0,0.3-0.1,0.3,0c0,0.1,0.1,0.3,0,0.4
	c-0.4,0.3-0.2,0.7-0.1,1.1c0.1,0,0.2,0,0.2,0c0.1,0,0.2,0.1,0.2,0.2c0,0.1,0,0.2-0.1,0.3c-0.3,0.3-0.3,0.5-0.1,1c0,0,0.1,0,0.1,0
	c0.1,0,0.3,0,0.3,0.1c0,0.1,0,0.3-0.1,0.3c-0.6,0.4-0.3,1-0.3,1.5c0.2-0.1,0.2-0.1,0.3-0.1c0.1,0,0.3,0,0.3,0c0.1,0.1,0.1,0.2,0,0.3
	c-0.1,0.1-0.2,0.2-0.3,0.3c-0.3,0.1-0.3,0.3-0.3,0.5c0.2,0.1,0.4,0,0.4,0.3c0,0.1-0.1,0.2-0.1,0.3c-0.5,0.2-0.3,0.6-0.3,1
	c0.1,0,0.1,0,0.2,0c0.2,0,0.3,0,0.4,0.2c0,0.2-0.1,0.3-0.3,0.3c-0.2,0-0.3,0-0.3,0.3c0,0.3,0.1,0.4,0.3,0.4c0.2,0,0.3,0.1,0.3,0.3
	c0,0.1-0.1,0.2-0.2,0.2c-0.5,0.1-0.5,0.1-0.4,0.6c0.1,0,0.2,0,0.3,0c0.1,0,0.2,0.1,0.3,0.2c-0.1,0.1-0.1,0.2-0.2,0.3
	c0,0-0.1,0-0.1,0c-0.4,0.1-0.4,0.1-0.3,0.6c0,0,0.1,0,0.1-0.1c0.1-0.1,0.2-0.2,0.3-0.1c0.1,0.1,0.1,0.3,0,0.4c0,0.1-0.2,0.3-0.3,0.3
	c-0.4,0.1-0.4,0.4-0.4,0.6c0.2,0.1,0.4,0.2,0.5,0.3c0.1,0.3-0.1,0.5-0.3,0.6c-0.4,0.3-0.4,0.3-0.4,0.8c0,0,0,0,0,0
	c0.2,0,0.4-0.1,0.4,0.2c0,0.1-0.2,0.3-0.3,0.4c-0.3,0.2-0.3,0.2-0.3,0.4c0.1,0,0.2,0,0.3,0c0.1,0,0.3,0.1,0.3,0.1
	c0,0.1,0,0.3-0.1,0.3c-0.1,0.1-0.2,0.1-0.3,0.1c-0.3,0-0.4,0.2-0.4,0.4c0,0.1,0.1,0.2,0.1,0.2c0,0,0.1,0,0.1,0
	c0.2,0.1,0.4,0.1,0.4,0.4c-0.1,0.3-0.3,0.2-0.5,0.1c-0.2-0.1-0.4,0-0.4,0.2c0,0.2-0.2,0.5,0.2,0.6c0.1,0.1,0.1,0.4-0.1,0.4
	c-0.4,0-0.4,0.3-0.5,0.6c0,0.1,0,0.2-0.1,0.3c0.2,0,0.3,0,0.4,0c0.1,0,0.2,0.1,0.3,0.2c0.1,0.1,0,0.3-0.2,0.3c-0.1,0-0.2,0-0.4,0.1
	c-0.2,0-0.5,0.3-0.4,0.5c0,0.1,0.1,0.2,0.2,0.2c0.2,0,0.3,0.2,0.3,0.3c0,0.1-0.2,0.2-0.3,0.2c-0.4-0.1-0.5,0.2-0.6,0.5
	c0,0.1-0.1,0.3-0.1,0.4c0.2,0.1,0.3,0.1,0.4,0.2c0.1,0.1,0.1,0.2,0.2,0.4c-0.1,0-0.2,0.1-0.4,0.1c0,0-0.1,0-0.1,0
	c-0.3-0.1-0.6,0.1-0.5,0.4c0,0.1,0.1,0.1,0.2,0.1c0.2,0,0.3,0.1,0.3,0.3c0,0.2-0.2,0.2-0.3,0.2c0,0-0.1,0-0.1,0
	c-0.3-0.1-0.5,0.1-0.5,0.4c0,0.1,0.1,0.2,0.1,0.2c0.1,0.1,0.3,0.2,0.2,0.4c-0.2,0.2-0.3,0.1-0.5,0c0,0-0.1,0-0.1,0
	c-0.2,0.2-0.2,0.4,0,0.6c0,0,0,0,0,0c0.1,0.2,0.3,0.3,0.1,0.5c-0.2,0.2-0.3-0.1-0.5-0.2c0,0,0,0-0.1,0c-0.2,0.1-0.1,0.3,0,0.4
	c0.1,0.1,0.2,0.3,0.3,0.4c0,0.1,0,0.3-0.1,0.4c-0.1,0-0.3-0.1-0.4-0.1c-0.1-0.1-0.2-0.2-0.3-0.4c-0.1,0.2-0.3,0.4-0.4,0.6
	c0,0,0,0.1,0,0.2c0,0.1,0.1,0.1,0.1,0.2c0.1,0.2,0.3,0.4,0,0.5c-0.2,0.2-0.3-0.1-0.4-0.2c0,0-0.1-0.1-0.2-0.1
	c-0.1,0.2-0.3,0.3-0.4,0.5c0,0.1,0,0.2,0,0.2c0,0.1,0.1,0.1,0.1,0.2c0.1,0.2,0.3,0.3,0.1,0.5c-0.2,0.2-0.3,0-0.5-0.1
	c-0.1,0-0.1-0.1-0.2-0.1c-0.2,0.1-0.3,0.3-0.1,0.5c0,0,0,0.1,0,0.1c0.1,0.2,0.2,0.4,0,0.5c-0.2,0.1-0.3-0.1-0.4-0.2c0,0,0-0.1,0-0.1
	c-0.4,0.2-0.4,0.4-0.3,0.7c0.1,0.2,0.1,0.4-0.2,0.5c-0.1,0-0.1,0.3-0.2,0.5c0.2,0,0.2-0.1,0.3-0.1c0.1,0,0.2,0,0.2,0.1
	c0,0.1,0.1,0.2,0,0.2c0,0.1-0.1,0.2-0.2,0.2c-0.5,0.2-0.4,0.6-0.4,1c0.2,0,0.3-0.1,0.4-0.1c0.1,0,0.3,0.1,0.4,0.1
	c-0.1,0.1-0.1,0.3-0.2,0.3c-0.2,0.1-0.5,0.1-0.5,0.3c-0.1,0.3-0.1,0.6-0.1,1c0.2-0.1,0.3-0.1,0.4-0.1c0.1,0,0.3,0,0.3,0.1
	c0,0.1,0,0.3-0.1,0.3c-0.1,0.1-0.3,0.1-0.4,0.2c-0.1,0-0.2,0.1-0.2,0.2c0,0.3,0,0.6,0,0.9c0.2,0,0.3-0.1,0.5-0.1
	c0.1,0,0.3,0.1,0.3,0.1c0,0.1-0.1,0.2-0.2,0.3c-0.1,0.1-0.2,0.1-0.3,0.1c-0.3,0-0.5,0.3-0.3,0.6c0,0.1,0.1,0.1,0.2,0.1
	c0.1,0,0.3,0,0.4,0.1c0.1,0,0.2,0.1,0.2,0.2c0,0.1-0.1,0.2-0.2,0.2c-0.1,0-0.2,0-0.4,0c-0.2,0-0.3,0.1-0.2,0.4
	c0.1,0,0.1-0.1,0.2-0.1c0.1,0,0.2,0,0.3,0c0,0.2,0.1,0.4,0,0.4c-0.1,0.1-0.3,0.2-0.6,0.3c0,0.2,0,0.5,0,0.8c0,0.1,0.1,0.1,0.2,0.2
	c0.1,0.1,0.2,0.1,0.2,0.2c0,0.1-0.1,0.2-0.2,0.3c-0.2,0.1-0.3,0.2-0.3,0.4c0,0.2,0,0.4,0,0.6c0,0.2,0,0.4,0.2,0.5
	c0.2,0.1,0.2,0.3,0,0.4c-0.1,0.1-0.3,0.1-0.3,0.2c0,0.2,0,0.4,0,0.6c0.1,0,0.2-0.1,0.3,0c0.1,0,0.3,0.1,0.3,0.1
	c0,0.1-0.1,0.2-0.1,0.3c0,0,0,0-0.1,0c-0.2,0.1-0.4,0.1-0.4,0.2c-0.1,0.3,0,0.6,0,1c0.1,0,0.2-0.1,0.2-0.1c0.1,0,0.3,0,0.3,0
	c0,0.1,0.1,0.3,0,0.4c-0.1,0.1-0.2,0.2-0.4,0.2c-0.2,0-0.2,0.1-0.2,0.3c0,0.2,0,0.4,0,0.7c0.1-0.1,0.2-0.1,0.2-0.1
	c0.1,0,0.3,0,0.3,0c0.1,0.1,0.1,0.3,0,0.4c-0.1,0.1-0.3,0.2-0.5,0.3c-0.1,0-0.2,0.1-0.2,0.1c0,0.4,0,0.8,0,1.3
	c0.1-0.1,0.2-0.1,0.4-0.2c0.1,0,0.3,0,0.4,0c0,0.1,0,0.3-0.1,0.4c-0.1,0.1-0.3,0.2-0.5,0.2c-0.2,0-0.3,0.1-0.3,0.3
	c0,0.2-0.1,0.4,0.2,0.5c0.1,0,0.2,0.2,0.3,0.3c-0.1,0.1-0.2,0.1-0.4,0.2c-0.1,0-0.1,0.1-0.2,0.1c0,0.1,0,0.2,0.1,0.3
	c0.1,0.1,0.2,0.1,0.3,0.1c0.1,0.1,0.2,0.3,0.2,0.4c-0.1,0-0.3,0.1-0.4,0.1c0,0-0.1,0-0.1,0c-0.2,0.5-0.2,0.8,0.3,1
	c0.1,0,0.1,0.2,0.1,0.2c0,0.1-0.2,0.2-0.2,0.2c-0.3,0-0.3,0.1-0.3,0.3c0,0.1,0,0.2,0,0.3c0,0.2,0.1,0.3,0.3,0.4
	c0.1,0,0.2,0.1,0.3,0.2c0.1,0.1,0.1,0.2,0.1,0.4c-0.1,0-0.2,0.1-0.4,0.1c-0.3-0.1-0.4,0-0.4,0.3c0,0.1,0.1,0.2,0.2,0.2
	c0,0,0.1,0,0.2,0c0.2,0,0.3,0.1,0.3,0.3c0,0.2-0.1,0.3-0.3,0.3c-0.3,0-0.4,0.1-0.4,0.4c0,0.1,0,0.2,0,0.3c0,0.2,0.1,0.3,0.3,0.3
	c0,0,0.1,0,0.1,0c0.2,0,0.4,0,0.4,0.2c0,0.2-0.2,0.3-0.4,0.3c-0.5,0.1-0.5,0.1-0.4,0.7c0.2-0.1,0.4-0.2,0.5-0.3
	c0.2-0.2,0.4-0.3,0.7-0.2c0.1-0.2,0.2-0.4-0.1-0.6c-0.1-0.1-0.1-0.3-0.2-0.5c0.2,0,0.3-0.1,0.6-0.2c0.2-0.3,0.1-0.4-0.2-0.6
	c-0.1-0.1-0.2-0.3-0.2-0.4c0.1-0.2,0.3-0.1,0.5,0c0,0,0.1,0,0.2,0.1c0.1-0.3,0.1-0.5,0.2-0.8c0,0,0-0.1-0.1-0.2c0,0-0.1-0.1-0.2-0.1
	c-0.2-0.1-0.4-0.3-0.3-0.5c0.1-0.2,0.4-0.1,0.5,0c0,0,0.1,0,0.1,0c0.1-0.3,0.2-0.5-0.2-0.7c-0.1,0-0.1-0.2-0.2-0.4
	c0.1,0,0.2-0.1,0.4-0.1c0,0,0.1,0,0.1,0c0.2-0.4,0.2-0.7-0.2-0.9c-0.1,0-0.2-0.1-0.2-0.1c0-0.1-0.1-0.2-0.1-0.3
	c0-0.1,0.2-0.1,0.3-0.1c0.1,0,0.2,0.1,0.4,0.2c0-0.3,0.1-0.5,0.1-0.7c0,0-0.1,0-0.1,0c-0.2,0-0.4,0-0.4-0.2c0-0.3,0.2-0.3,0.4-0.4
	c0.1,0,0.2-0.2,0.2-0.3c0-0.2,0-0.4,0-0.5c0-0.1-0.1-0.2-0.1-0.2c-0.2,0-0.3-0.1-0.3-0.3c0-0.1,0.2-0.2,0.3-0.2c0,0,0.1,0,0.1,0
	c0.1-0.3,0.2-0.6-0.2-0.8c0,0,0,0,0,0c-0.1-0.2-0.1-0.3-0.2-0.5c0.2-0.1,0.3-0.1,0.5-0.2c0.1-0.1,0-0.2-0.1-0.4
	c-0.3-0.3-0.3-0.4,0.1-0.5c0.2-0.1,0.2-0.5,0-0.7c0,0,0,0-0.1,0c-0.2-0.1-0.5-0.1-0.4-0.4c0-0.1,0.3-0.2,0.5-0.3c0-0.4,0-0.8,0-1.2
	c0-0.1-0.1-0.2-0.2-0.3c-0.1-0.1-0.2-0.1-0.3-0.2c-0.1-0.1-0.1-0.2,0-0.3c0-0.1,0.2-0.1,0.3-0.1c0.1,0,0.2,0,0.3,0c0,0,0-0.1,0-0.1
	c-0.1,0-0.2,0-0.3-0.1c-0.1-0.1-0.3-0.2-0.3-0.3c0-0.2,0.2-0.2,0.3-0.2c0.2,0,0.3-0.1,0.3-0.3c0-0.1,0-0.2,0-0.4
	c0-0.2-0.1-0.4-0.3-0.5c-0.1-0.1-0.3-0.1-0.3-0.3c-0.1-0.1,0-0.2-0.1-0.4c0.1,0,0.2,0,0.3,0c0.1,0,0.2,0.1,0.3,0.1
	c0.1-0.6,0.1-0.7-0.4-1c-0.1-0.1-0.2-0.2-0.3-0.3c-0.1-0.1-0.1-0.2,0-0.3c0-0.1,0.2-0.1,0.3-0.1c0.2,0,0.3,0.1,0.5,0.2
	c0.1-0.4,0.1-0.5-0.2-0.7c-0.1-0.1-0.3-0.2-0.4-0.3c-0.1-0.1-0.1-0.2-0.1-0.3c0.1-0.1,0.2-0.2,0.3-0.1c0.2,0,0.3,0.1,0.4,0.2
	c0.2-0.3,0.2-0.6-0.1-0.8c-0.1-0.1-0.1-0.2-0.1-0.3c0-0.1,0.2-0.1,0.3-0.1c0.1,0,0.1,0,0.2,0c0.1-0.2,0.2-0.5,0.3-0.8
	c-0.1-0.1-0.2-0.2-0.3-0.3c-0.1-0.1,0-0.3-0.1-0.4c0.1,0,0.3,0,0.4,0c0,0,0.1,0.1,0.1,0.1c0.1,0,0.1,0,0.2,0c0-0.1,0-0.2,0-0.2
	c-0.1-0.1-0.2-0.3-0.2-0.4c0-0.1,0.1-0.3,0.1-0.4c0.1,0.1,0.3,0.1,0.4,0.2c0.1,0.1,0.1,0.2,0.1,0.3c0.4-0.1,0.5-0.2,0.4-0.5
	c0-0.2,0-0.4,0.2-0.4c0.2-0.1,0.3,0.2,0.4,0.3c0,0.1,0,0.1,0.1,0.2c0,0,0.1,0,0.1,0c0-0.1,0.1-0.2,0.1-0.4c0-0.1,0-0.3,0-0.4
	c0-0.1,0.2-0.2,0.2-0.3c0.1,0.1,0.2,0.2,0.2,0.3c0,0.1,0,0.2,0,0.3c0,0.1,0.1,0.3,0.2,0.4c0.2,0.1,0.3-0.1,0.3-0.3
	c0.1-0.2,0.1-0.3,0.2-0.5c0.1-0.1,0.2-0.2,0.3-0.2c0.1,0.1,0.2,0.2,0.2,0.3c0,0.2,0,0.4-0.1,0.5c-0.1,0.2-0.1,0.3,0.1,0.5
	c0.1,0.1,0.1,0.1,0.2,0.2c0.1,0.1,0.1,0.1,0.2,0.2c0.1-0.1,0.1-0.2,0.2-0.3c0.1-0.1,0.2-0.2,0.3-0.1c0.1,0.1,0.2,0.2,0.2,0.3
	c0,0.1,0,0.3-0.1,0.3c-0.2,0.2-0.1,0.4,0,0.6c0.1,0.2,0.2,0.3,0.3,0.4c0.2,0,0.4-0.1,0.5,0c0.2,0.2,0.1,0.4-0.1,0.5
	c-0.2,0.2-0.2,0.3-0.1,0.5c0.1,0.1,0.1,0.3,0.2,0.5c0.1-0.1,0.2-0.1,0.2-0.2c0.1,0,0.3-0.1,0.3,0c0.1,0.1,0.1,0.2,0,0.3
	c-0.1,0.1-0.2,0.2-0.3,0.3c-0.1,0.1-0.1,0.2-0.1,0.3c0.1,0.5,0.2,0.9,0.3,1.5c0.1-0.1,0.2-0.2,0.2-0.2c0.1,0,0.3-0.1,0.4-0.1
	c0.2,0.1,0.1,0.3,0,0.4c0,0.1-0.1,0.1-0.1,0.2c-0.4,0.2-0.5,0.6-0.4,1c0,0.2,0.1,0.4,0.1,0.7c0.2-0.1,0.3-0.1,0.4-0.2
	c0.2-0.1,0.3-0.1,0.5,0.1c0.1,0.2,0,0.3-0.2,0.4c0,0-0.1,0-0.1,0C30,52,29.9,52,30.1,52.9c0.2-0.1,0.3-0.1,0.5-0.2
	c0.1,0,0.2,0,0.3,0.1c0,0.1,0,0.2,0,0.3c-0.2,0.1-0.3,0.2-0.5,0.3c-0.2,0-0.3,0.1-0.2,0.3c0,0.2,0,0.3,0,0.5c0,0.2,0,0.3,0.3,0.3
	c0.1,0,0.1,0,0.2,0c0.1,0,0.3,0.1,0.3,0.1c0,0.1-0.1,0.2-0.2,0.3c-0.1,0.1-0.2,0.1-0.3,0.1C30,54.9,30,55.1,30,55.4
	c0,0.2,0,0.4,0,0.7c0.2,0,0.3,0,0.5,0c0.1,0,0.2,0.2,0.3,0.3c-0.1,0.1-0.2,0.2-0.3,0.2c-0.5,0.1-0.5,0.1-0.6,0.6c0,0.1,0,0.2,0,0.3
	c0.2,0,0.3,0,0.5,0.1c0.2,0,0.4,0.2,0.3,0.4c0,0.2-0.2,0.2-0.4,0.1c-0.4-0.1-0.4-0.1-0.5,0.3c0,0.1,0,0.1,0,0.2
	c-0.1,0.5-0.1,0.5,0.4,0.6c0.1,0,0.2,0.1,0.3,0.2c-0.1,0.1-0.1,0.2-0.2,0.3c-0.1,0-0.2,0.1-0.2,0c-0.4-0.1-0.5,0.2-0.5,0.5
	c0,0.1,0,0.1,0,0.2c0,0.5,0,0.5,0.5,0.5c0.1,0,0.2,0.1,0.4,0.1c-0.1,0.1-0.1,0.3-0.3,0.4c-0.1,0.1-0.3,0.1-0.4,0
	c-0.2,0-0.3,0.1-0.3,0.3c0,0.1,0,0.2,0,0.3c-0.1,0.4-0.1,0.4,0.4,0.6c0.2,0.1,0.3,0.2,0.3,0.4c0,0.2-0.2,0.2-0.4,0.1
	c-0.1,0-0.2,0-0.3,0c-0.1,0-0.2,0.1-0.2,0.2c0,0,0.1,0.1,0.2,0.2c0.1,0.1,0.2,0.2,0.3,0.3c-0.1,0.1-0.2,0.2-0.3,0.2
	c-0.2,0-0.3,0.1-0.3,0.3c-0.1,0.3-0.2,0.7-0.2,1c0.1,0,0.1,0,0.2,0c0.1,0.1,0.2,0.1,0.3,0.2c-0.1,0.1-0.1,0.2-0.3,0.3
	c-0.1,0.1-0.4,0.1-0.4,0.2c-0.1,0.3-0.2,0.6-0.2,0.9c0,0,0.2,0.1,0.3,0.2c0.1,0.1,0.3,0.1,0.3,0.2c0,0.2-0.1,0.3-0.3,0.3
	c-0.2,0-0.4,0-0.5,0.1c-0.1,0.2-0.2,0.5-0.3,0.7c0,0,0.2,0.1,0.2,0.2c0.1,0.1,0.2,0.2,0.2,0.2c0,0.1-0.1,0.2-0.2,0.2
	c-0.1,0.1-0.4,0-0.4,0.1c-0.1,0.2-0.2,0.5-0.3,0.8c0.1,0,0.1,0.1,0.1,0.1c0.2,0,0.4,0,0.4,0.2c0,0.3-0.2,0.3-0.4,0.3
	c-0.1,0-0.3,0-0.4,0c-0.1,0.2-0.2,0.4-0.3,0.6c0,0,0.1,0.1,0.1,0.2c0.1,0.1,0.2,0.1,0.3,0.2c0.1,0.1,0.1,0.2,0,0.3
	c0,0.1-0.2,0.1-0.3,0.1c-0.2,0-0.4-0.2-0.5-0.1c-0.1,0.1-0.2,0.3-0.3,0.5c0,0,0,0.1,0,0.1c0.1,0.1,0.2,0.1,0.2,0.2
	c0.1,0.1,0.1,0.2,0.1,0.3c-0.1,0-0.3,0.1-0.3,0.1c-0.3-0.2-0.4,0-0.5,0.2c-0.1,0.2-0.2,0.4-0.4,0.6c0,0,0,0.1,0,0
	c0.2,0.2,0.3,0.3,0.4,0.5c0.1,0.1,0.1,0.4,0,0.5c-0.1,0.2-0.3,0-0.4-0.1c-0.3-0.4-0.4-0.3-0.7,0c-0.2,0.3-0.4,0.5-0.2,0.9
	c0.1,0.1,0.2,0.4,0,0.5c-0.2,0.1-0.4-0.1-0.5-0.3c0,0,0,0-0.1-0.1C23.4,76,23,76.1,23,76.6c0,0.2-0.1,0.3-0.4,0.3
	c-0.1,0-0.2,0-0.3,0.1c-0.1,0.1-0.2,0.2-0.3,0.3c-0.1,0.1-0.2,0.3-0.1,0.4c0.1,0.2,0.2,0.4,0,0.5c-0.3,0.1-0.4-0.1-0.5-0.3
	c-0.2,0.1-0.3,0.2-0.5,0.4c-0.1,0.1,0,0.2,0,0.3c0,0.2,0,0.3-0.2,0.3c-0.3,0-0.8,0.5-0.8,0.7c0,0,0,0.1,0.1,0.1
	c0.1-0.1,0.3-0.1,0.4-0.2c0.2-0.1,0.4-0.1,0.4,0.1c0,0.1-0.1,0.2-0.2,0.3c0,0.1-0.1,0.1-0.2,0.1c-0.5,0.2-0.6,0.3-0.4,0.9
	c0.1,0,0.2-0.1,0.2-0.1c0.1,0,0.3,0.1,0.3,0.1c0,0.1,0,0.3-0.1,0.3c-0.1,0.1-0.3,0.2-0.5,0.2c0,0,0,0.1-0.1,0.1
	c0.1,0.1,0.3,0.2,0.4,0.3c0.1,0.1,0.3,0.2,0.4,0.4c0.1,0.1,0,0.2,0,0.3c-0.1,0-0.3,0-0.4,0c-0.1,0-0.2-0.1-0.4-0.2
	c-0.1,0.4-0.1,0.8,0.1,1.2c0.1,0.2,0.2,0.4-0.1,0.5c0,0-0.1,0-0.1,0c-0.1-0.2-0.3-0.3-0.5-0.3c-0.4,0-0.7,0.1-1.1,0.1
	c-0.2,0-0.3,0.1-0.5,0.1C16.8,84.3,15.9,84.3,14.9,84.3z M18.7,40.7c0.4-0.2,0.7-0.4,1-0.6c1.3-0.9,2.2-2.2,3-3.5
	c1.7-2.7,2.7-5.6,3.5-8.7c0.7-2.5,1.1-5.1,1.3-7.7c0.2-2.3,0.4-4.7,0.1-7c-0.1-0.8-0.2-1.6-0.6-2.3c-0.4-0.7-1-0.9-1.7-0.6
	c-1,0.4-1.5,1.3-1.3,2.3c0.2,2,0.3,3.9,0.2,5.9c-0.1,3.4-0.4,6.7-1.1,10c-0.4,1.8-0.9,3.6-1.9,5.3c-0.8,1.3-1.7,2.5-2.7,3.7
	c-0.1,0.1-0.2,0.2-0.3,0.2c-0.3,0.2-0.7,0-0.7-0.4c0-0.3,0.1-0.5,0.2-0.8c0,0,0,0,0,0c-0.1-0.1-0.3-0.3-0.1-0.5c0.2-0.2,0.3,0,0.4,0
	c0.1,0,0.2,0.1,0.2,0.1c0.2-0.1,0.3-0.3,0.4-0.5c0-0.1-0.1-0.2-0.1-0.3c0-0.1,0-0.3,0-0.4c0.1,0,0.3,0,0.4,0
	c0.2,0.1,0.4,0.1,0.4-0.1c0.1-0.2,0.1-0.5,0.1-0.7c0-0.3,0-0.4,0.3-0.3c0,0,0.1,0,0.1,0c0-0.2,0-0.5,0-0.7c0.2,0,0.3,0,0.5,0.1
	c0.1-0.2,0.2-0.4,0.3-0.7c0.2-0.3,0.2-0.5-0.1-0.8c-0.3-0.4-0.2-0.6,0.3-0.6c0,0,0-0.1,0-0.1c0-1,0-2,0.1-3c0.1-1.9,0.3-3.7,0.1-5.6
	c-0.1-1-0.5-1.9-1.4-2.5c-0.9-0.6-1.8-0.6-2.7,0.1c-0.8,0.6-1.5,1.3-1.7,2.4c0,0.1-0.1,0.2-0.1,0.4c-0.1,0.2-0.2,0.4-0.2,0.7
	c0,0.3-0.1,0.6-0.1,0.9c0,1.1,0.1,2.2,0,3.4c-0.2,6.7-0.5,13.5-0.7,20.2c-0.1,3.6-0.3,7.2-0.4,10.8c-0.2,4.9-0.3,9.8-0.5,14.7
	c-0.1,3.2-0.2,6.3-0.3,9.5c0,0.3,0.1,0.4,0.4,0.5c1.8,0.3,3.6,0.2,5.4,0c0.2,0,0.2-0.1,0.3-0.3c0.2-1.2,0-2.3,0.1-3.5
	c0-0.1,0-0.2-0.1-0.2c0,0-0.2,0-0.2,0.1c-0.1,0.1-0.1,0.2-0.2,0.4c-0.1,0.1-0.1,0.3-0.1,0.4c-0.1,0.1-0.2,0.1-0.4,0.2
	c0-0.1-0.1-0.2-0.1-0.3c0-0.1,0.1-0.2,0.1-0.3c0.1-0.1,0.1-0.3,0.2-0.4c0-0.1,0-0.2-0.1-0.3c-0.1-0.1-0.2,0-0.3,0
	c-0.1,0-0.1,0.1-0.2,0.1c-0.1,0-0.2,0-0.3,0c0,0,0-0.1,0-0.2c0-0.1,0.1-0.2,0.1-0.4c0.1-0.2,0.1-0.5-0.1-0.7c0,0-0.1,0-0.1,0
	c-0.2,0.1-0.4,0.2-0.5,0c0-0.1,0.1-0.3,0.2-0.4c0-0.1,0.2-0.2,0.2-0.3c0.1-0.5,0.3-0.7,0.8-0.6c0.3,0.1,0.5,0.1,0.7-0.1
	c0.1-0.1,0.2,0,0.4,0c0,0.1,0,0.3-0.1,0.4c-0.1,0.1-0.2,0.2-0.3,0.2c-0.1,0.1-0.3,0.2-0.5,0.2c0.2,0.3,0.3,0.6,0.4,0.9
	c0.2,0.3,0.4,0.4,0.7,0.2c0.1-0.1,0.2-0.1,0.4-0.2c1.2-0.6,2.1-1.6,3-2.6c1.4-1.5,2.5-3.2,3.2-5.2c0-0.1,0.1-0.2,0-0.3
	c-0.2-0.3-0.2-0.4,0.2-0.5c0.1-0.1,0.3-0.2,0.4-0.4c1-2.8,1.6-5.6,2-8.6c0.3-2.5,0.5-5.1,0.6-7.6c0-0.1,0-0.1,0-0.2
	c-0.1,0.1-0.1,0.1-0.1,0.1c-0.1,0-0.2,0.1-0.3,0.1c0-0.1-0.1-0.2-0.1-0.3c0-0.3,0.1-0.5,0.4-0.7c0.2-0.1,0.2-0.2,0.2-0.4
	c-0.2-1.2-0.3-2.3-0.6-3.5c-0.2-1-0.4-1.9-1-2.7c-0.2-0.3-0.5-0.6-0.8-0.7c-0.7-0.2-1.3,0-1.6,0.6c-0.2,0.4-0.4,0.8-0.5,1.2
	c-0.3,1.2-0.3,2.5-0.2,3.7c0,0,0,0.1,0,0c0.1,0,0.3,0,0.4,0.1c0.1,0.3,0.2,0.6,0.3,0.9c0,0.1-0.1,0.3-0.2,0.3
	c-0.1,0-0.2-0.1-0.3-0.1c-0.1-0.1-0.1-0.2-0.2-0.4c0,0.1,0,0.2,0,0.2c0.1,2.4,0.1,4.8,0,7.2c-0.2,2.8-0.6,5.5-1.3,8.2
	c-0.7,2.6-1.8,5.1-3.7,7.1c-0.2,0.2-0.4,0.4-0.6,0.5c-0.3,0.2-0.7,0-0.7-0.4c0-0.2,0-0.5,0-0.7c0-0.3,0.1-0.5,0.5-0.3
	c-0.1-0.1-0.1-0.2-0.1-0.2c-0.1-0.1-0.2-0.3,0-0.4c0.2-0.1,0.3-0.1,0.4,0.1c0.1,0.1,0.2,0.1,0.4,0c0.3-0.3,0-0.4-0.1-0.6
	c-0.1-0.1-0.1-0.3-0.2-0.4c0.1,0,0.3-0.1,0.4-0.1c0,0,0.1,0,0.1,0c0-0.4,0.1-0.9,0.1-1.3c0-0.2,0-0.3-0.2-0.5
	c-0.2-0.1-0.2-0.3,0.1-0.4c0.1-0.1,0.2-0.2,0.2-0.3c0-0.5,0-1.1,0.1-1.6c0-0.2,0-0.3-0.2-0.4c-0.1,0-0.2-0.2-0.2-0.2
	c0-0.1,0.1-0.2,0.2-0.2c0.2-0.1,0.2-0.2,0.2-0.4c0.1-2.4,0.2-4.9,0.3-7.3c0.3-5.7,0.5-11.5,0.8-17.2c0-0.1,0-0.2,0-0.2
	c-0.3,0-0.3,0.2-0.3,0.4c0,0.2,0.1,0.4,0.1,0.5c0,0.2,0.1,0.4-0.2,0.4c-0.2,0-0.3-0.1-0.3-0.3c0-0.1-0.1-0.3-0.1-0.4
	c0,0-0.1,0-0.1,0c0,0.1-0.1,0.2-0.1,0.3c0,0.1,0.1,0.2,0.1,0.4c0,0.1-0.1,0.3-0.2,0.4c-0.2,0.1-0.3,0-0.3-0.2c0-0.1-0.1-0.2-0.1-0.4
	c0,0-0.1,0-0.1,0c0,0.1-0.1,0.2-0.1,0.3c-0.1,0.1-0.1,0.3-0.2,0.4c-0.1,0.1-0.2,0.1-0.3,0.1c0-0.1-0.1-0.2-0.1-0.3
	c0.1-0.3,0.1-0.5-0.1-0.9c-0.2-0.5-0.2-1.1-0.3-1.7c0-0.2,0-0.4,0-0.6c0-0.2,0.2-0.4,0.4-0.4c0.2,0,0.3,0.2,0.4,0.4
	c0,0.3,0,0.6,0,0.9C18.6,40.3,18.7,40.5,18.7,40.7z M12,68.8C12,68.8,12,68.8,12,68.8c-0.6-1.2-0.9-2.3-1-3.5
	c-0.1-1.7-0.2-3.5-0.2-5.2c0-2,0-3.9-0.3-5.9c-0.2-1.2-0.5-2.3-1.1-3.3c-0.1-0.1-0.2-0.3-0.3-0.3c-0.6-0.1-0.9,0.1-1.2,0.7
	c-0.1,0.2-0.1,0.4-0.2,0.6c-0.1,0.8-0.2,1.6-0.2,2.3c0,1.9,0,3.8,0.1,5.7c0.1,1.6,0.2,3.3,0.4,4.9c0,0.5,0.2,1,0.3,1.5
	c0.1,0.3-0.1,0.6-0.4,0.7c-0.3,0.1-0.5,0-0.6-0.3c-0.1-0.1-0.1-0.2-0.2-0.3c-0.3-0.5-0.6-0.9-0.9-1.4c-0.2-0.3-0.5-0.5-0.8-0.7
	c-0.2,1.2,1,3.3,2.1,3.7c0.5-0.4,0.6-0.4,0.8,0.3c0.4,1,0.8,2,1.2,3c0.6,1.4,1.4,2.8,2.4,4.1c0.1,0.1,0.1,0.2,0.3,0.3
	c0-0.4,0-0.7,0.1-1.1c0.1-0.4,0-0.8-0.5-1c0,0-0.1,0-0.1-0.1c0-0.1-0.1-0.2-0.1-0.3c0.1-0.1,0.2-0.1,0.3-0.1c0.1,0,0.2,0,0.3,0.1
	c0.1-0.4,0.1-0.8-0.3-1c0,0-0.1-0.1-0.1-0.1c0-0.1-0.1-0.3-0.1-0.4c0.1,0,0.3,0,0.4,0c0,0,0.1,0,0.2,0c0.1-0.4,0.2-0.8-0.3-1
	c-0.1,0-0.1-0.2-0.1-0.4c0.1,0,0.2-0.1,0.4-0.1c0,0,0.1,0,0.1,0c0.2-0.6,0.2-0.6-0.3-0.8c-0.2-0.1-0.4-0.2-0.4-0.4
	C11.6,69,11.8,68.9,12,68.8z M9.4,34.4c-0.3,0.2-0.3,0.2-0.5-0.2c0-0.1-0.2-0.1-0.3-0.1c-0.5,0.1-0.9,0.3-1.2,0.7
	C7,35.3,6.8,35.8,7,36.3c0.1,0.2,0.1,0.4-0.1,0.5c-0.1,0-0.1,0.2-0.1,0.3c0,0.3,0,0.6,0,0.9c0,0.5-0.1,1-0.1,1.6
	c0,1.8,0.1,3.7,0.2,5.5c0.1,1.4,0.1,2.7,0.2,4.1c0,0.5,0.1,1,0.2,1.5c0.2-0.2,0.4-0.4,0.6-0.6c0.3-0.2,0.4-0.4,0.3-0.7
	c0-0.1,0.1-0.3,0.2-0.3c0.2-0.1,0.2,0.2,0.3,0.3c0,0.1,0.1,0.2,0.1,0.4c0,0,0.1,0,0.1,0C9,49.5,9,49.4,9,49.3c0-0.2,0.1-0.4,0.3-0.3
	c0.1,0,0.2,0.2,0.2,0.3c0,0.6,0,0.6,0.6,0.4c0,0,0,0,0,0c0,0,0-0.1,0-0.1c-0.3-1.5-0.3-3-0.2-4.5c0.1-2,0.2-4.1,0.3-6.1
	c0.1-1.3-0.1-2.6-0.3-3.9c0-0.1-0.1-0.3-0.2-0.4C9.7,34.6,9.6,34.6,9.4,34.4z M12.7,60.4c0-0.4,0.1-0.7,0-1c0-0.1-0.1-0.2-0.1-0.3
	c-0.1-0.1-0.2-0.3-0.2-0.4c0-0.1,0.2-0.2,0.3-0.2c-0.1-0.3-0.3-0.5-0.4-0.8c0,0,0,0-0.1-0.1c-0.1,0-0.2,0.1-0.3,0.1
	c-0.2,0.1-0.2,1.1,0,1.2c0.3,0.2,0.3,0.3,0,0.5c-0.1,0.1-0.1,0.3-0.1,0.4c0,0.1,0.1,0.2,0.1,0.2c0.3,0.2,0.3,0.3,0.1,0.5
	c-0.4,0.2-0.2,0.5-0.2,0.8c0.4-0.1,0.5,0,0.5,0.3c0,0.1-0.2,0.2-0.3,0.3c-0.3,0.2-0.3,0.4-0.1,0.6c0.2,0.2,0.4,0.3,0.6,0.4
	c0,0,0.1,0,0.1,0c0-0.5,0-1.1,0-1.6c0-0.2,0-0.3-0.2-0.4c-0.1-0.1-0.3-0.3-0.2-0.4C12.2,60.4,12.4,60.3,12.7,60.4z M22.9,22.7
	c-0.1-0.1-0.3-0.2-0.3-0.3c0-0.1,0.1-0.3,0.2-0.3c0.3-0.1,0.2-0.3,0.2-0.5c0-0.2-0.1-0.3-0.3-0.2c-0.2,0.1-0.3,0.2-0.4,0.3
	c0,0,0.1,0,0.1,0c0,0.2-0.1,0.3-0.2,0.5c-0.2,0.5-0.1,0.8,0.3,0.9C22.9,23.1,23,23,22.9,22.7z M12.5,52.8c-0.1,0.2-0.3,0.4-0.4,0.6
	c0,0,0,0.1,0,0.1c0.4-0.4,0.4,0.2,0.7,0.3C13,53.2,13,53.1,12.5,52.8z M22.5,23.5C22.5,23.5,22.5,23.5,22.5,23.5
	c-0.1,0-0.2,0-0.2,0.1c-0.1,0.1-0.2,0.2-0.3,0.2c0.1,0.1,0.1,0.2,0.2,0.2c0.1,0,0.2,0.1,0.3,0.1c0.3,0.1,0.5-0.1,0.4-0.4
	C22.8,23.6,22.6,23.6,22.5,23.5z M12.1,65.1c0.2-0.1,0.4-0.2,0.4-0.3c0.1-0.2,0-0.4,0-0.6C11.9,64.4,11.8,64.6,12.1,65.1z
	 M22.1,25.6c0.4,0.4,0.4,0.4,0.1,0.6c-0.1,0.1-0.1,0.1-0.2,0.2c0.1,0,0.1,0.1,0.2,0.1c0.1,0,0.3-0.1,0.3-0.1
	c0.1-0.2,0.1-0.5,0.2-0.8C22.5,25.6,22.3,25.6,22.1,25.6z M22.7,24.7c-0.1,0-0.2,0-0.4,0c-0.4-0.1-0.4,0.1-0.3,0.4
	c0.1,0,0.3-0.1,0.4-0.1C22.7,25.1,22.8,24.9,22.7,24.7z M21,68.6c0.2-0.5-0.3-0.5-0.4-0.8c-0.1,0.2-0.2,0.3-0.3,0.5
	c0.1,0.1,0.3,0.1,0.3,0.1C20.8,68.5,20.9,68.5,21,68.6z M20.4,68.9c0,0.3-0.1,0.5,0.2,0.6C20.9,69.2,20.9,69.1,20.4,68.9z
	 M12.3,66.2c0.1-0.2,0.3-0.4,0.1-0.7C12.1,65.6,12.1,65.8,12.3,66.2z M21.2,67.2c-0.1,0.2-0.3,0.4,0.1,0.6
	C21.4,67.5,21.7,67.3,21.2,67.2z M11.8,56.5c0,0.2,0,0.4,0.1,0.7C12.1,57.1,12.1,56.8,11.8,56.5z M22.3,27.7
	c-0.4,0.2-0.4,0.3-0.1,0.5C22.2,28,22.2,27.8,22.3,27.7z"/>
</svg>
