<?xml version="1.0" encoding="utf-8"?>
<!-- Generator: Adobe Illustrator 25.0.0, SVG Export Plug-In . SVG Version: 6.00 Build 0)  -->
<svg version="1.1" id="Capa_1" xmlns="http://www.w3.org/2000/svg" xmlns:xlink="http://www.w3.org/1999/xlink" x="0px" y="0px"
	 viewBox="0 0 192 99.2" style="enable-background:new 0 0 192 99.2;" xml:space="preserve">
<style type="text/css">
	.st0{fill:url(#SVGID_1_);}
	.st1{opacity:0.25;enable-background:new    ;}
</style>
<g>
	
		<radialGradient id="SVGID_1_" cx="96" cy="52.3446" r="76.4253" gradientTransform="matrix(1 0 0 -1 0 102)" gradientUnits="userSpaceOnUse">
		<stop  offset="0" style="stop-color:#ABDDE1"/>
		<stop  offset="0.1048" style="stop-color:#A3DBE0"/>
		<stop  offset="0.2659" style="stop-color:#8ED6DE"/>
		<stop  offset="0.4632" style="stop-color:#6BCEDB"/>
		<stop  offset="0.6891" style="stop-color:#3AC3D6"/>
		<stop  offset="0.921" style="stop-color:#00B6D1"/>
	</radialGradient>
	<path class="st0" d="M0,93.7L0.6,0H192c0,0,0,15.6,0,85.7c0,0.2,0,0.5,0,0.7c0,0.3-0.1,0.6-0.4,0.9c-3.9,4.4-8.8,6.8-14.4,8.1
		c-6.1,1.4-12.3,1.3-18.4-0.5c-3.1-1-6-2.4-8.5-4.5s-4.4-4.7-5.2-7.9c-0.1-0.3-0.1-0.6-0.2-1.1c-0.1,0.2-0.2,0.3-0.2,0.4
		c-0.6,3.4-2.4,6.1-4.9,8.5c-2.9,2.7-6.3,4.6-10.1,5.7c-7.1,2.2-14.3,2.3-21.5,0.1c-3.6-1.1-6.9-2.9-9.5-5.6c-2.1-2.1-3.5-4.6-4-7.7
		c0-0.1-0.1-0.1-0.1-0.3c-0.1,0.1-0.1,0.1-0.1,0.2c-0.7,3.5-2.5,6.2-5,8.6c-3.1,2.8-6.7,4.7-10.7,5.9c-4.2,1.2-8.4,1.6-12.7,1.3
		c-3.9-0.3-7.7-1.1-11.2-2.7c-2.8-1.3-5.4-3.1-7.4-5.5c-1.5-1.9-2.6-4-3-6.4c0-0.2-0.1-0.3-0.1-0.6c-0.1,0.3-0.2,0.4-0.2,0.6
		c-0.7,3.2-2.5,5.8-4.9,8c-3.1,2.9-6.7,4.7-10.7,5.9c-3.5,1-7.1,1.6-10.8,1.5c-4.4-0.1-8.7-0.9-12.8-2.7c-0.9-0.4-1.7-0.8-2.5-1.3
		C1.6,94.7,0,93.7,0,93.7z"/>
</g>
<path class="st1" d="M16.2,0.5C16.3,0.5,16.3,0.5,16.2,0.5c0.5-0.5,0.9-0.3,1.4-0.2c4.3,0.6,8.6,1.2,12.9,1.7
	c4.2,0.5,8.5,0.9,12.8,1.3c4.1,0.4,8.3,0.7,12.5,1c5,0.3,10,0.5,15,0.8c5.9,0.4,11.8,0.4,17.8,0.5c5.4,0.1,10.8,0.3,16.2,0.3
	c6.6-0.1,13.2-0.2,19.8-0.5c4.9-0.2,9.8-0.5,14.7-0.9c2.8-0.2,5.6-0.5,8.4-0.8c3.5-0.4,7.1-0.8,10.6-1.3c4.5-0.6,9-1.2,13.5-2
	c1-0.2,2-0.3,3-0.4c0.3,0,0.6,0,0.9,0.1c0,0.1,0,0.3,0,0.5c-0.6,0.5-1.4,0.5-2.2,0.6c0,0-0.1,0-0.2,0c-0.3,0-0.4,0.2-0.5,0.5
	c-1.6,4.5-3.2,9-4.7,13.5c-0.6,1.8-1.2,3.5-1.9,5.3c-0.4,1-0.9,1-1.5,0.2c-0.4-0.5-0.7-1.1-1.1-1.6c-2-3-4.1-6.1-6.1-9.1
	c-1.1-1.8-2.3-3.5-3.5-5.2c-0.1-0.1-0.3-0.2-0.4-0.2c-1,0.1-1.9,0.3-2.9,0.4c-0.3,0-0.4,0.1-0.4,0.4c-2.2,5.8-4.4,11.6-6.7,17.5
	c-0.1,0.3-0.3,0.7-0.5,1c-0.3,0.5-0.7,0.5-1.1,0.1c-0.2-0.2-0.3-0.4-0.4-0.5c-0.2-0.4-0.4-0.8-0.7-1.2c-2.1-3.4-4.2-6.7-6.3-10.1
	c-0.9-1.5-1.9-3-2.8-4.6c-0.4-0.6-0.8-0.9-1.6-0.8c-0.1,0-0.2,0-0.3,0c-0.6,0.1-1.1,0.2-1.7,0.2c-0.3,0-0.4,0.1-0.5,0.4
	c-1,2.3-2,4.7-3,7c-1.5,3.6-3.1,7.2-4.7,10.8c-0.1,0.3-0.4,0.7-0.6,1c-0.3,0.4-0.6,0.4-0.9,0c-0.2-0.2-0.3-0.4-0.5-0.7
	c-0.3-0.5-0.5-1.1-0.8-1.6c-1.2-2.2-2.4-4.5-3.7-6.8c-1.7-3.1-3.3-6.2-4.9-9.2c-0.1-0.3-0.3-0.4-0.6-0.4c-0.6,0-1.2,0-1.8,0
	c-0.3,0-0.4,0.1-0.5,0.3c-0.5,0.9-0.9,1.9-1.3,2.8c-2.6,5-5.1,10-7.6,15c-0.1,0.2-0.3,0.5-0.5,0.7c-0.3,0.3-0.6,0.3-0.9,0
	c-0.2-0.2-0.3-0.5-0.5-0.7c-0.2-0.4-0.4-0.8-0.6-1.3c-1.5-2.9-2.9-5.8-4.4-8.6c-1.4-2.7-2.8-5.4-4.1-8.2c-0.1-0.3-0.3-0.4-0.6-0.4
	c-0.4,0-0.7,0-1,0c-0.2,0-0.3,0.1-0.5,0.3c-0.5,0.8-0.9,1.7-1.4,2.5c-2.9,5.1-5.7,10.3-8.6,15.4c-0.3,0.4-0.5,0.8-0.8,1.2
	c-0.5,0.6-0.8,0.6-1.2-0.1c-0.2-0.2-0.3-0.5-0.4-0.8c-1.6-3.6-3.2-7.2-4.8-10.8c-1.2-2.7-2.4-5.5-3.7-8.2c-0.1-0.1-0.2-0.3-0.4-0.4
	C62.3,6,62,6,61.7,6c-0.3-0.1-0.4,0-0.6,0.3c-3.1,5-6.2,9.9-9.3,14.9c-0.7,1-1.3,2.1-2,3.2c-0.6,0.9-1.2,0.9-1.6-0.2
	c-0.2-0.5-0.4-1-0.6-1.5c-2.2-5.7-4.4-11.4-6.6-17.1c-0.3-0.8-0.6-1.3-1.5-1.1c0,0-0.1,0-0.2,0c-0.3-0.1-0.5,0.1-0.7,0.3
	c-1.4,2-2.7,4-4.2,6c-2.6,3.8-5.3,7.6-7.9,11.4c-0.2,0.2-0.3,0.4-0.5,0.6c-0.4,0.4-0.7,0.3-1-0.1c-0.1-0.3-0.3-0.5-0.3-0.8
	c-0.5-1.5-1-3.1-1.5-4.6c-1.6-5-3.2-10-4.8-15.1c-0.1-0.3-0.2-0.3-0.5-0.3c-0.6,0-1.3-0.1-1.8-0.6c-0.1,0-0.1,0-0.2,0
	C16.2,0.9,16.2,0.7,16.2,0.5z M67.2,12.4c0,0.1,0,0.2,0,0.3c0.7,1.6,1.4,3.2,2.2,4.8c0.1,0.1,0.3,0.2,0.4,0.3c2.1,0,4.1,0,6.1,0
	c0.4,0,0.5-0.2,0.7-0.5c0.9-1.5,1.7-3,2.6-4.5c0-0.1,0.1-0.1,0.1-0.3C75.3,12.8,71.3,12.5,67.2,12.4z M112.8,12.5
	c0.1,0.3,0.2,0.4,0.2,0.6c0.5,1,1.1,2,1.7,3c0.1,0.1,0.2,0.2,0.4,0.3c2.4,0.2,4.7,0.2,7.1-0.1c0.1,0,0.3-0.1,0.4-0.3
	c0.5-1.2,1.1-2.4,1.6-3.6c0-0.1,0-0.1,0.1-0.2C120.5,12.5,116.8,12.9,112.8,12.5z M22.5,10.2c0.3,0.9,0.6,1.7,0.9,2.5
	c0.1,0.3,0.2,0.3,0.5,0.3c2.1,0.1,4.2,0.2,6.4,0.4c0.7,0,1.2-0.2,1.5-0.8c0.4-0.7,0.9-1.3,1.4-2c0.1-0.2,0.2-0.3,0.3-0.5
	c-3.9,0-7.5-0.7-11.3-1.5C22.2,9.2,22.3,9.7,22.5,10.2z M169,7.5c-3.3,0.7-6.7,1.1-10,1.3c-0.4,0-0.4,0.2-0.2,0.5
	c0.4,0.6,0.8,1.1,1.2,1.7c0.2,0.4,0.5,0.7,0.7,1.1c0.1,0.2,0.3,0.3,0.6,0.3c2.1-0.3,4.2-0.5,6.3-0.7c0.6,0,0.9-0.3,1-0.9
	c0.3-1,0.7-2,1.1-2.9c0-0.1,0.1-0.2,0.1-0.4C169.4,7.3,169.2,7.4,169,7.5z M52.4,17.8c0.4-0.7,0.9-1.4,1.3-2.1
	c0.1-0.1,0.1-0.3,0.2-0.4c0.3-3.1,0.6-6.3,0.9-9.5c0-0.3-0.1-0.4-0.4-0.4c-0.6,0-1.3-0.1-1.9-0.1c-0.3-0.1-0.3,0.1-0.4,0.4
	c-0.2,2.7-0.4,5.5-0.6,8.2c-0.1,1.9-0.3,3.7-0.4,5.5c0,0.1,0,0.2,0,0.4c0,0,0.1,0,0.1,0C51.6,19.1,52,18.4,52.4,17.8z M48.2,17.5
	c0.3-3.9,0.7-7.8,1-11.7c0.1-1,0.2-0.8-0.7-0.9c-0.5,0-0.9,0-1.4-0.1c-0.3,0-0.4,0.1-0.4,0.4c-0.1,2.3-0.2,4.7-0.3,7.1
	c0,0.7-0.1,1.4-0.2,2.1c-0.1,0.8,0,1.5,0.4,2.2c0.4,0.9,0.8,1.8,1.1,2.7c0.1,0.1,0.1,0.2,0.1,0.3c0,0,0.1,0,0.1,0
	C48.1,19,48.1,18.3,48.2,17.5z M19.7,1.9c0.1,0.4,0.2,0.7,0.4,1.1c0.1,0.1,0.2,0.1,0.3,0.2c2.5,0.4,5,0.8,7.4,1.1
	c2.3,0.3,4.7,0.5,7.1,0.7c0.4,0,0.8,0.2,1.3,0.2c0.8,0.1,1.2-0.3,1.4-1.1C31.7,3.4,25.7,2.6,19.7,1.9z M81.9,6.7
	c-3.3-0.1-6.7-0.2-10-0.3c-2.5-0.1-5-0.2-7.4-0.3c-0.3,0-0.3,0.1-0.3,0.4c0.2,0.5,0.5,0.9,1.1,0.9c3.2,0.1,6.4,0.3,9.6,0.4
	c2,0.1,4,0.1,6.1,0.2c0.1,0,0.3,0,0.4,0c0.8,0,1.1-0.2,1.3-1.1C82.4,6.7,82.2,6.7,81.9,6.7z M94.4,20.7c0.1-4.5,0.2-8.9,0.3-13.4
	c0-0.3-0.1-0.4-0.4-0.4c-0.4,0-0.8,0-1.2,0c-0.4,0-0.4,0.1-0.4,0.4c0.1,2,0.2,4,0.4,6c0.1,1.7,0.2,3.5,0.3,5.2
	c0.1,0.8,0.3,1.5,0.7,2.2c0.1,0,0.1,0.1,0.2,0.2C94.4,20.9,94.4,20.8,94.4,20.7z M98.3,19.1c0.1-1.5,0.3-3.1,0.4-4.7
	c0.2-2.3,0.3-4.6,0.5-6.9c0-0.5,0-0.5-0.5-0.5c-0.3,0-0.5,0-0.8,0c-0.3,0-0.4,0.1-0.4,0.4c0,2.3-0.1,4.6-0.1,7c0,2.2,0,4.3,0,6.5
	c0,0.1,0,0.2,0,0.3C98.1,20.6,98.3,19.9,98.3,19.1z M140.6,16.3c-0.2-2.7-0.4-5.5-0.6-8.2c-0.1-0.7-0.1-1.3-0.2-2
	c0-0.2-0.1-0.3-0.3-0.3c-0.8,0-0.8,0-0.7,0.8c0.3,3.1,0.5,6.3,0.8,9.5c0.1,0.4,0.1,0.7,0.1,1.1c0,0.8,0.5,1.3,1.1,1.8
	C140.7,18,140.6,17.1,140.6,16.3z M155.3,4c0,0.4,0.3,0.7,0.6,0.7c4-0.4,8-0.9,12-1.7c1.2-0.2,2.3-0.5,3.6-0.8
	c0.4-0.1,0.5-0.3,0.6-0.8C166.4,2.6,160.9,3.5,155.3,4z M109.9,7.2c0.4,0.3,0.7,0.3,1,0.3c1,0,2.1,0,3.1,0c2.9,0,5.8,0.1,8.7,0.1
	c1.2,0,2.4-0.2,3.6-0.2c0.4,0,0.4-0.3,0.6-0.7C121.2,6.8,115.6,7,109.9,7.2z M143.9,17.2c-0.1-2.8-0.2-5.5-0.3-8.3
	c-0.1-1-0.1-2.1,0-3c0-0.3-0.1-0.4-0.4-0.3c-0.2,0-0.6-0.1-0.6,0.4c0.3,2.8,0.5,5.7,0.8,8.5c0.1,1.3,0.2,2.6,0.3,3.9
	c0,0.1,0,0.2,0,0.3c0,0,0.1,0,0.1,0C143.8,18.1,143.8,17.6,143.9,17.2z M112.2,11.1c0,0.1,0,0.1-0.1,0.1c0.2,0.2,0.3,0.4,0.5,0.4
	c0.3,0.1,0.6,0.2,0.9,0.2c3.6,0.1,7.3,0,10.9-0.5c0.3,0,0.5,0,0.5-0.4C120.7,11.3,116.4,11.3,112.2,11.1z M21.7,7.4
	c0,0.1,0,0.1-0.1,0.1c0.1,0.1,0.1,0.3,0.3,0.3c0.2,0.1,0.4,0.3,0.7,0.3c1.9,0.4,3.8,0.8,5.8,1c1.7,0.2,3.5,0.3,5.2,0.3
	C34,9.4,34,9.3,34.2,9C30,8.6,25.8,8.3,21.7,7.4z M117.1,20.5c0.7,1.2,1.3,2.3,1.9,3.5c0,0,0.1,0,0.1,0c0.5-1.1,1-2.2,1.5-3.4
	C119.4,20.6,118.3,20.5,117.1,20.5z M158.4,7.9c0.1,0,0.2,0,0.4,0c2.5,0,4.9-0.3,7.4-0.7c1.2-0.2,2.4-0.5,3.6-0.7
	c0.3,0,0.5-0.2,0.5-0.5C166.3,6.7,162.4,7.3,158.4,7.9z M28.1,17.7c-1.1-0.1-2.1-0.2-3.2-0.3c0.3,1.1,0.7,2.2,1,3.3c0,0,0.1,0,0.1,0
	C26.6,19.7,27.4,18.7,28.1,17.7z M147.4,5c0,0-0.2,0.1-0.2,0.2c0.1,1.3,0.2,2.7,0.2,4c0,0,0.1,0,0.1,0c0.6-1.4,1.2-2.9,1.8-4.4
	C148.6,4.9,148,4.9,147.4,5z M96.8,21.7c0-1.9,0-3.9,0.1-5.9c0-2.8,0.1-5.6,0.1-8.3c0-0.1,0-0.3,0-0.5c0,0-0.1,0-0.1,0
	c-0.1,0.1-0.2,0.2-0.2,0.3c-0.1,0.2,0,0.4-0.1,0.5c0,3.7,0.1,7.3,0.1,11c0,1.3,0,2.5,0,3.7c0,0.1,0,0.1,0,0.2c0,0,0.1,0,0.1,0
	C96.7,22.5,96.8,22.1,96.8,21.7z M134.8,8.6c-0.1-0.7-0.2-1.4-0.2-2.1c0-0.2-0.1-0.3-0.4-0.3c-0.5,0-1.1,0.1-1.6,0.1
	c0,0.1,0,0.1-0.1,0.1c0.7,1.1,1.5,2.3,2.2,3.4c0,0,0.1,0,0.1,0C134.9,9.4,134.9,9,134.8,8.6z M67.3,11.7c3.9,0,7.7,0.5,11.6,0
	c0.3,0,0.5,0,0.8-0.1c0.1,0,0.2-0.1,0.3-0.2l-13.2-0.1c0,0,0,0.1,0,0.1C66.9,11.6,67.1,11.8,67.3,11.7z M142.9,20.6
	C142.9,20.7,142.9,20.7,142.9,20.6c0.1-0.1,0.2-0.3,0.2-0.5c0-0.9-0.1-1.7-0.2-2.6c-0.2-2.5-0.4-5-0.6-7.5c-0.1-1.4-0.3-2.7-0.4-4.1
	c0-0.1,0-0.2-0.1-0.4c0,0-0.1,0-0.1,0C142.1,10.6,142.5,15.6,142.9,20.6z M166.4,16.5c-0.9,0.1-1.7,0.1-2.6,0.2
	c0.5,0.8,1,1.6,1.6,2.4C165.7,18.2,166,17.4,166.4,16.5z M100.2,9.5c0.5,0.1,0.9,0.2,1.3,0.3c0.3,0.1,0.5,0.1,0.8,0.1
	c0.1,0,0.2-0.1,0.2-0.2c0-0.7,0-1.4,0.1-2.1c-0.1,0-0.1,0-0.1-0.1C101.7,8.2,100.9,8.7,100.2,9.5z M49.9,6.1
	c-0.4,4.1-0.7,8.2-1,12.3c0,0.3,0,0.6,0,0.9c0.4-4.7,0.9-9.5,1.3-14.2c0,0-0.1,0-0.2,0C50,5.4,49.9,5.8,49.9,6.1z M73.9,22.2
	c-0.8,0-1.5,0-2.3,0c0.3,0.8,0.7,1.5,0.9,2.2c0,0,0.1,0,0.1,0C73,23.7,73.4,23,73.9,22.2z M51.5,5.2c0,0-0.1,0-0.1,0
	c0,0.1-0.1,0.3-0.1,0.4C51.1,7.4,51,9.2,50.9,11c-0.2,3.1-0.5,6.2-0.7,9.2c0,0.2,0,0.5,0,0.7c0,0,0.1,0,0.1,0
	C50.6,15.7,51.1,10.5,51.5,5.2z M89.3,9.8c0.7-0.3,1.3-0.6,2-0.9c-0.5-0.7-1.3-0.9-1.9-1.5c0,0-0.1,0-0.1,0.1
	C89.4,8.1,89.3,8.9,89.3,9.8z M91.9,9.3c-0.8,0.3-1.4,0.7-2.1,1c0,0,0,0.1,0,0.1c0.6,0.4,1.3,0.7,2,1.1
	C91.9,10.8,91.8,10.1,91.9,9.3z M100.2,12.5c0.5,0.3,1,0.6,1.5,0.9c0.3-0.7,0.8-1.2,0.8-2C101.6,11.5,101,12,100.2,12.5z M136,9.7
	c0.7,0.4,1.3,0.8,2,1.2c0-0.8-0.1-1.5-0.1-2.4C137.2,9,136.7,9.3,136,9.7z M135.9,8.9c0.6-0.3,1.1-0.6,1.7-1
	c-0.6-0.4-1.2-0.9-1.8-1.3c0,0-0.1,0.1-0.1,0.1C135.7,7.4,135.9,8.2,135.9,8.9z M89.2,11c0.1,0.3,0.2,0.5,0.2,0.7
	c0.2,0.4,0.4,0.7,0.6,1c0.1,0.2,0.2,0.2,0.4,0.1c0.3-0.2,0.7-0.4,1.1-0.6C90.9,11.6,90.1,11.3,89.2,11z M146.2,8.3
	c0-0.8,0-1.5,0-2.2c-0.1,0-0.1,0-0.1-0.1c-0.5,0.5-0.9,1-1.5,1.6C145.2,7.8,145.7,8.1,146.2,8.3z M95.5,7.1
	C95.4,7.1,95.4,7,95.5,7.1c-0.1,0.1-0.2,0.2-0.2,0.3c0,3.3-0.1,6.5-0.1,9.8c0,0.8,0,1.5,0,2.2c0,0,0.1,0,0.1,0
	C95.4,15.3,95.4,11.2,95.5,7.1z M42.9,7c0,0,0.1,0,0.1,0c0-0.7,0.1-1.4,0.1-2.2c0,0-0.1-0.2-0.2-0.2c-0.4,0-0.7-0.1-1.1-0.1
	C42.2,5.3,42.5,6.1,42.9,7z M60.1,5.8c-0.5,0-0.8-0.1-1.2-0.1c0,0-0.2,0.1-0.2,0.2c-0.1,0.7-0.2,1.4-0.2,2.1c0,0,0.1,0,0.1,0
	C59.1,7.3,59.6,6.6,60.1,5.8z M88.3,7.7c0-0.9,0-0.9-0.9-1c-0.1,0-0.2,0-0.5,0c0.4,0.8,0.9,1.6,1.2,2.3c0,0,0,0,0.1,0
	C88.3,8.7,88.3,8.2,88.3,7.7z M55.7,5.9c-0.1,0.7-0.1,1.3-0.2,2c0.6-0.3,1.1-0.5,1.7-0.8C56.8,6.8,56.3,6.4,55.7,5.9z M105,7.2
	c-0.5,0-0.9,0-1.2,0c0,0-0.1,0.2-0.1,0.2c0,0.6,0,1.3,0,1.9c0.1,0,0.1,0,0.2,0.1C104.1,8.7,104.5,8,105,7.2z M100.1,10.2
	c0,0.5,0,0.9-0.1,1.5c0.7-0.4,1.4-0.7,2-1.1c0,0,0,0,0-0.1C101.4,10.4,100.8,10.3,100.1,10.2z M55.5,9.2c0,0.5,0,1.1,0,1.7
	c0.5-0.3,1-0.6,1.6-0.9C56.6,9.5,56.1,9.4,55.5,9.2z M164,16c0.8-0.1,1.7-0.2,2.5-0.3c0.1,0,0.2-0.2,0.3-0.3c0,0-0.1-0.1-0.1-0.2
	c-1.1,0.1-2.2,0.3-3.4,0.4c0,0,0,0.1,0,0.2C163.5,15.9,163.8,16,164,16z M140.9,13.5c0.2-0.3,0-6.2-0.3-7.2c0,0-0.1,0-0.1,0
	C140.6,8.7,140.8,11.1,140.9,13.5z M44.3,6.2c0.5,0.3,0.9,0.6,1.2,1c0,0,0.1-0.1,0.1-0.1c0.1-0.5,0.1-1.1,0.1-1.8
	C45.3,5.7,44.8,5.9,44.3,6.2z M45.4,10.2c0.1-0.6,0.1-1.1,0.2-1.8c-0.5,0.3-1,0.5-1.6,0.7C44.5,9.5,44.9,9.8,45.4,10.2z M102,7.2
	c-0.6,0-1.1,0-1.6,0c0,0-0.2,0.1-0.2,0.2c0,0.4,0,0.8,0,1.1c0,0,0.1,0,0.1,0C100.8,8.1,101.4,7.6,102,7.2z M144.7,10
	c0.5-0.3,0.9-0.6,1.4-1c-0.5-0.2-0.9-0.5-1.4-0.7c0,0-0.1,0-0.2,0.1C144.7,8.9,144.7,9.4,144.7,10z M137.7,11.6
	c-0.5-0.4-0.9-0.7-1.4-1c0,0-0.1,0.1-0.1,0.1c0.1,0.5,0.1,1,0.2,1.6C136.8,12,137.2,11.8,137.7,11.6z M25.9,5.3
	c0.3,0.5,0.5,1,0.8,1.5c0.3-0.5,0.7-0.9,1.1-1.3C27,5.4,26.5,5.4,25.9,5.3z M73.5,10.2c0.3-0.5,0.6-0.8,1-1.3c-0.7,0-1.2,0-1.9,0
	C73,9.4,73.2,9.7,73.5,10.2z M24.7,16.5c0.4,0.5,3.6,0.8,4,0.3C27.3,16.7,26,16.5,24.7,16.5z M146.3,11.8c0,0,0-0.1,0-0.1
	c-0.4-0.1-0.8-0.2-1.3-0.2c0,0-0.2,0.2-0.1,0.2c0,0.4,0,0.8,0.1,1.3C145.4,12.6,145.8,12.2,146.3,11.8z M25.2,5.5
	c-0.3,0.4-0.6,0.8-1,1.3C24.9,6.8,25.4,6.9,26,7C25.7,6.4,25.5,6,25.2,5.5z M71.1,21.1c0,0.3,0.2,0.4,0.5,0.4c0.8,0,1.7-0.1,2.5-0.1
	c0.1,0,0.3-0.1,0.4-0.1c0,0,0-0.1,0-0.2C73.3,21.2,72.2,21.1,71.1,21.1z M34.6,7.4c0.4-0.4,0.7-0.8,1-1.1c0,0,0-0.1,0-0.1
	c-0.5,0-1-0.1-1.5-0.1c0,0.1-0.1,0.1-0.1,0.1C34.2,6.5,34.4,6.9,34.6,7.4z M91.8,8.2c0-0.4,0-0.8-0.1-1.2c0,0-0.1-0.1-0.2-0.1
	c-0.5,0-1,0-1.6,0C90.6,7.4,91.2,7.8,91.8,8.2z M27.2,7.1c0.6,0.1,1.1,0.1,1.7,0.1c-0.2-0.5-0.4-0.9-0.6-1.4
	C27.8,6.3,27.6,6.7,27.2,7.1z M23.2,4.9c0,0.5,0.4,0.9,0.5,1.4c0.4-0.4,0.7-0.8,1.1-1.2C24.2,5.1,23.7,5,23.2,4.9z M121.1,19.6
	c-1.4,0-2.9,0-4.3-0.1C117.1,20,120.7,20,121.1,19.6z M123.5,8.6c0.2,0.4,0.4,0.8,0.6,1.3c0.4-0.4,0.5-0.9,0.9-1.2
	c0,0-0.1-0.1-0.1-0.1C124.5,8.6,124.1,8.6,123.5,8.6z M23.1,6.6c-0.2-0.5-0.4-0.9-0.6-1.4c-0.4,0.4-0.7,0.7-1,1c0,0,0.1,0.1,0.1,0.1
	C22,6.4,22.5,6.5,23.1,6.6z M57.5,7.8c-0.5,0.3-1,0.5-1.5,0.8c0.5,0.2,0.9,0.4,1.4,0.7C57.4,8.7,57.4,8.3,57.5,7.8z M145.8,5.3
	c0,0,0-0.1-0.1-0.1c-0.4,0.1-0.8,0.1-1.2,0.1c0,0-0.1,0.2-0.1,0.2c0,0.3,0,0.6,0.1,1c0.1,0,0.1,0,0.1,0.1
	C145,6.2,145.4,5.8,145.8,5.3z M112.9,8.8c0.3,0.4,0.5,0.7,0.8,1.1c0.3-0.4,0.6-0.7,0.9-1.1C114,8.8,113.5,8.8,112.9,8.8z M69.3,8.8
	c-0.6,0-1.1,0-1.7,0c0.3,0.4,0.6,0.7,0.9,1.1C68.8,9.5,69,9.2,69.3,8.8z M77.8,8.9c0.2,0.4,0.4,0.8,0.7,1.2c0.3-0.4,0.6-0.8,0.9-1.2
	C78.8,8.9,78.3,8.9,77.8,8.9z M137.8,7.2c0-0.4,0-0.8-0.1-1.2c-0.5,0-0.9,0-1.4,0.1c0,0,0,0.1,0,0.1C136.7,6.5,137.2,6.8,137.8,7.2z
	 M115.6,8.8c0.3,0.4,0.6,0.8,0.8,1.2c0.3-0.4,0.5-0.7,0.8-1.1C116.6,8.8,116.1,8.8,115.6,8.8z M28.8,5.6c0.2,0.5,0.4,0.9,0.7,1.3
	c0.3-0.4,0.5-0.7,0.8-1.2C29.8,5.7,29.4,5.7,28.8,5.6z M100,13.2c-0.1,0.5-0.1,0.9-0.2,1.4c0.5-0.2,0.9-0.4,1.5-0.6
	C100.8,13.8,100.5,13.5,100,13.2z M44.2,7c0,0-0.1,0-0.1,0C44,7.4,44,7.9,44,8.4c0.5-0.2,0.8-0.3,1.3-0.5C44.9,7.5,44.5,7.3,44.2,7z
	 M120.8,8.7c0.3,0.4,0.5,0.7,0.7,1.1c0.3-0.4,0.5-0.7,0.8-1.1C121.8,8.8,121.4,8.8,120.8,8.7z M30.8,6.2c-0.3,0.4-0.5,0.7-0.8,1.1
	c0.6,0.1,1,0.1,1.6,0.1C31.3,7,31.1,6.7,30.8,6.2z M32.1,7.1c0.3-0.4,0.5-0.7,0.8-1.1c-0.5-0.2-1-0.1-1.5-0.2c0,0.1,0,0.1-0.1,0.1
	C31.6,6.3,31.9,6.6,32.1,7.1z M70.2,8.9c0.2,0.4,0.4,0.7,0.7,1.2c0.3-0.4,0.6-0.7,1-1.2C71.2,8.9,70.7,8.9,70.2,8.9z M34.1,7.7
	c-0.2-0.5-0.4-0.8-0.6-1.3c-0.3,0.4-0.5,0.7-0.8,1.1C33.1,7.6,33.5,7.7,34.1,7.7z M80.5,10.4c-0.2-0.4-0.4-0.8-0.6-1.2
	c-0.3,0.4-0.6,0.8-0.8,1.1c0,0,0,0.1,0.1,0.1C79.5,10.4,80,10.4,80.5,10.4z M76,10.1c0.3-0.4,0.5-0.7,0.8-1.2c-0.5,0-0.9,0-1.4,0
	C75.6,9.3,75.8,9.6,76,10.1z M145.1,10.7c0,0,0,0.1,0,0.1c0.4,0.1,0.8,0.1,1.2,0.2c0-0.4-0.1-0.8-0.1-1.2
	C145.8,10.1,145.4,10.4,145.1,10.7z M138.1,13.4c0-0.4,0-0.8,0-1.3c-0.5,0.2-0.8,0.4-1.3,0.7C137.3,13,137.7,13.2,138.1,13.4z
	 M119.8,8.8c-0.5,0-0.9,0-1.4,0.1c0.2,0.4,0.5,0.7,0.7,1.1C119.4,9.5,119.6,9.2,119.8,8.8z M166.4,13.9c0.3-0.4,0.4-0.8,0.6-1.1
	c0,0,0-0.1-0.1-0.1c-0.4,0.1-0.8,0.2-1.3,0.2C166,13.2,166.2,13.5,166.4,13.9z M66.3,10.1c0.5,0.1,1,0.1,1.4,0.1
	c0-0.1,0-0.1,0.1-0.1c-0.2-0.3-0.4-0.6-0.7-1C66.8,9.4,66.6,9.7,66.3,10.1z M57.8,5.6c-0.5-0.1-0.9-0.1-1.3-0.1c0,0,0,0.1,0,0.1
	c0.4,0.3,0.8,0.7,1.1,1c0,0,0.1,0,0.1,0C57.7,6.3,57.7,5.9,57.8,5.6z M22,4.7c-0.5-0.1-0.8-0.2-1.3-0.3c0.2,0.4,0.3,0.8,0.4,1.2
	C21.4,5.4,21.6,5.1,22,4.7z M91.9,14c0-0.4,0-0.7,0-1.2c-0.5,0.2-0.8,0.4-1.2,0.6c0,0,0.1,0.1,0.1,0.1C91.2,13.7,91.5,13.8,91.9,14z
	 M158.9,5.8c0.3,0.2,0.5,0.6,0.8,0.6c0.2,0,0.4-0.5,0.6-0.7c0,0-0.1-0.1-0.1-0.1C159.7,5.6,159.3,5.6,158.9,5.8
	C158.9,5.8,158.9,5.8,158.9,5.8z M169.5,3.8c0,0.1,0,0.1,0,0.1c0.3,0.2,0.5,0.4,0.7,0.5c0.2-0.3,0.4-0.6,0.6-0.9
	c-0.1,0-0.1-0.1-0.1-0.1C170.3,3.6,169.9,3.7,169.5,3.8z M161.7,5.5c0.2,0.1,0.6,0.5,0.7,0.4c0.3-0.1,0.4-0.5,0.5-0.7
	c0,0-0.1-0.1-0.1-0.1c-0.4,0.1-0.8,0.1-1.3,0.2C161.6,5.4,161.6,5.5,161.7,5.5z M65.8,9.7c0.3-0.4,0.5-0.7,0.8-1
	c-0.5-0.1-0.8-0.1-1.3-0.1C65.5,9,65.6,9.3,65.8,9.7z M164.8,13c-0.4,0.1-0.8,0.1-1.2,0.2c0.2,0.3,0.4,0.6,0.7,1
	C164.5,13.8,164.7,13.4,164.8,13z M77.3,9.4c-0.3,0.4-0.4,0.6-0.7,1c0.5,0,0.8,0,1.3,0C77.7,10,77.5,9.7,77.3,9.4z M100.7,15.2
	c-0.6,0-0.8,0.2-0.8,0.6c0,0.3-0.1,0.6-0.1,0.9c0.1,0,0.1,0,0.1,0.1C100.2,16.2,100.4,15.7,100.7,15.2z M163,13.5
	c-0.2,0.3-0.3,0.6-0.5,1c0.4,0,0.7,0,1.2,0C163.5,14.2,163.3,13.9,163,13.5z M169.6,5C169.6,5,169.6,5,169.6,5
	c-0.2-0.3-0.4-0.4-0.6-0.6c-0.1,0-0.2,0-0.3,0.1c-0.2,0.2-0.3,0.4-0.4,0.6c0,0,0,0.1,0,0.1C168.7,5.2,169.2,5.1,169.6,5z M72.2,9.4
	c-0.2,0.3-0.5,0.6-0.8,0.9c0.5,0,0.9,0,1.3,0C72.6,10,72.4,9.8,72.2,9.4z M118.5,10.1c-0.2-0.4-0.5-0.7-0.7-1
	c-0.2,0.3-0.4,0.5-0.6,0.8c0.1,0,0.1,0.1,0.1,0.1C117.7,10.1,118,10.1,118.5,10.1z M166.8,5.4C166.8,5.4,166.8,5.4,166.8,5.4
	c-0.2-0.3-0.5-0.6-0.8-0.8c-0.1,0.3-0.3,0.6-0.4,1C166.1,5.5,166.4,5.5,166.8,5.4z M121.4,17.4c-0.5,0-0.8,0.1-1.3,0.1
	c0.2,0.3,0.4,0.6,0.6,0.9C120.9,18.1,121.1,17.8,121.4,17.4z M80.4,8.8c0.2,0.4,0.4,0.7,0.6,1.1c0.2-0.4,0.4-0.7,0.6-1.1
	C81.2,8.8,80.8,8.8,80.4,8.8z M44.3,4.7c0,0-0.2,0.1-0.2,0.2c0,0.2,0,0.4,0,0.7c0.5-0.2,0.8-0.5,1.2-0.7c0,0,0-0.1,0-0.1
	C45,4.7,44.6,4.7,44.3,4.7z M164,4.9c0.3,0.3,0.5,0.6,0.8,0.9c0.2-0.4,0.3-0.7,0.4-1c0,0-0.1-0.1-0.1-0.1
	C164.8,4.8,164.5,4.9,164,4.9z M28.2,15.3c0.3-0.3,0.5-0.6,0.8-0.8c0,0,0-0.1,0-0.1c-0.4,0-0.8,0-1.2,0C27.9,14.7,28,15,28.2,15.3z
	 M75.4,18.8c-0.5,0-0.8,0-1.3,0.1c0.3,0.3,0.5,0.6,0.7,0.8C75.1,19.5,75.2,19.2,75.4,18.8z M111.6,9.8c0.5,0,0.8,0,1.3,0
	c-0.2-0.3-0.3-0.5-0.6-0.9C112,9.2,111.8,9.5,111.6,9.8z M75.4,10.4c-0.2-0.3-0.3-0.6-0.5-0.9c-0.3,0.4-0.5,0.6-0.7,0.9
	C74.7,10.4,75,10.4,75.4,10.4z M123.4,10c-0.2-0.3-0.3-0.6-0.5-1c-0.2,0.3-0.4,0.6-0.7,1C122.7,10,123.1,10,123.4,10z M166.9,4.4
	c0.2,0.3,0.4,0.5,0.6,0.8c0.2-0.3,0.3-0.6,0.5-0.8c0,0,0-0.1-0.1-0.1C167.7,4.2,167.3,4.3,166.9,4.4z M70.2,10.2
	c-0.2-0.3-0.3-0.5-0.5-0.9c-0.2,0.3-0.4,0.5-0.7,0.9C69.5,10.2,69.8,10.2,70.2,10.2z M25.7,14.4c0.2,0.2,0.3,0.5,0.5,0.7
	c0.2-0.3,0.4-0.5,0.7-0.8C26.4,14.4,26.1,14.4,25.7,14.4z M70.7,19.9c0.4,0.1,0.7,0.1,1.1,0.2c0,0,0-0.1,0-0.1
	c-0.2-0.2-0.3-0.5-0.6-0.8C71.1,19.4,71,19.6,70.7,19.9z M117.9,18.5c0-0.1,0-0.1,0.1-0.1c-0.2-0.2-0.4-0.4-0.6-0.7
	c-0.2,0.2-0.3,0.4-0.6,0.7C117.2,18.4,117.5,18.5,117.9,18.5z M73.6,19.5c-0.2,0-0.4,0.2-0.6,0.3c0,0,0,0.1,0,0.2c0.4,0,0.7,0,1,0.1
	c0-0.1,0-0.1,0.1-0.1C74,19.8,73.8,19.6,73.6,19.5z M125.1,9.8C125.2,9.8,125.2,9.9,125.1,9.8c0.2,0,0.4,0,0.4-0.2
	c0.2-0.4,0.3-0.8,0.5-1.2C125.5,8.7,125.4,9.3,125.1,9.8z M119.9,10c0.4,0,0.6,0,1,0c-0.2-0.3-0.3-0.5-0.6-0.8
	C120.1,9.6,120,9.8,119.9,10z M164.9,14.4c0.4-0.1,0.6,0,0.9-0.1c-0.2-0.3-0.3-0.5-0.5-0.9C165.2,13.8,165.1,14.1,164.9,14.4z
	 M28.9,15.6c0,0,0,0.1,0.1,0.1c0.2,0,0.5,0,0.6-0.1c0.2-0.2,0.3-0.4,0.1-0.8C29.3,15.1,29.1,15.4,28.9,15.6z M72.5,19.7
	c0.2-0.3,0.3-0.4,0.5-0.7c-0.4,0-0.6,0-1,0C72.2,19.3,72.3,19.5,72.5,19.7z M115.7,10c-0.3-0.2-0.4-0.4-0.6-0.6
	c-0.2,0.2-0.3,0.4-0.5,0.5c0,0,0.1,0,0.1,0.1C115,9.9,115.3,9.9,115.7,10z M24.5,15.2c0.4,0,0.6,0.1,1,0.2c-0.2-0.3-0.3-0.5-0.4-0.8
	C24.8,14.8,24.7,14.9,24.5,15.2z M157.4,5.8c-0.3,0-0.6,0-0.9,0.1c0.2,0.3,0.3,0.5,0.5,0.7C157.1,6.3,157.2,6.1,157.4,5.8z
	 M158.6,6.6c-0.2-0.2-0.4-0.4-0.6-0.6c-0.1,0.2-0.2,0.4-0.4,0.7C158,6.6,158.3,6.6,158.6,6.6z M115.6,17.6c0.1,0.3,0.2,0.5,0.4,0.7
	c0.2-0.3,0.3-0.5,0.5-0.7C116.1,17.6,115.9,17.6,115.6,17.6z M56.3,11.6c0.1-0.1,0.2-0.3,0.3-0.4c0,0,0,0-0.1-0.1
	c-0.3,0.2-0.6,0.4-1,0.5C56,12,56.1,12,56.3,11.6z M145.2,13.9c0.3,0.3,0.4,0.3,0.5-0.1c0.1-0.2,0.2-0.4,0.2-0.6l-0.1,0
	C145.6,13.4,145.4,13.7,145.2,13.9z M110.7,8.7c0.1,0.3,0.2,0.5,0.4,0.7c0.2-0.3,0.3-0.4,0.5-0.7C111.2,8.7,111,8.7,110.7,8.7z
	 M44.3,10.2c0.1,0.8,0.3,1,0.8,0.6C44.8,10.6,44.6,10.5,44.3,10.2z M27.3,14.9c-0.2,0.2-0.3,0.4-0.5,0.6c0.3,0,0.6,0.1,0.9,0.1
	C27.5,15.3,27.4,15.2,27.3,14.9z M161.3,6.2c0,0,0-0.1,0-0.1c-0.1-0.1-0.3-0.3-0.4-0.3c-0.2,0-0.3,0.2-0.5,0.3c0,0,0.1,0.1,0.1,0.2
	C160.9,6.2,161.1,6.2,161.3,6.2z M45.3,11.7c-0.6,0.1-0.5,0.3-0.1,0.9C45.3,12.2,45.3,11.9,45.3,11.7z M91.4,15.2
	c0.2-0.2,0.3-0.2,0.4-0.4c-0.3-0.1-0.5-0.2-0.7-0.4c0,0.1-0.1,0.1-0.1,0.1C91.1,14.7,91.2,14.9,91.4,15.2z M119.2,18.5
	c0.3,0,0.5,0,0.8,0c-0.1-0.2-0.2-0.3-0.4-0.6C119.4,18.1,119.3,18.3,119.2,18.5z M161.6,13.4c0.1,0.2,0.2,0.4,0.4,0.6
	c0.1-0.2,0.2-0.4,0.3-0.6C162.1,13.5,161.9,13.4,161.6,13.4z M118.5,18.1c0.2-0.2,0.3-0.3,0.5-0.5c-0.3,0-0.5,0-0.9,0
	C118.3,17.8,118.4,18,118.5,18.1z M163.9,5.8c-0.2-0.2-0.3-0.3-0.4-0.5c-0.1,0.2-0.2,0.4-0.3,0.6C163.5,5.9,163.7,5.9,163.9,5.8z
	 M55.3,12.4c0,0.2,0,0.5,0,0.7C55.7,12.7,55.8,12.5,55.3,12.4z M145.3,15c0-0.1-0.1-0.2-0.1-0.3c-0.1,0.1-0.2,0.1-0.2,0.2
	c0,0.1,0,0.3,0,0.4c0,0,0.1,0,0.1,0C145.2,15.2,145.2,15.1,145.3,15z M137.5,14c0.1,0.2,0.2,0.4,0.3,0.6
	C138.1,14.2,138.1,14.2,137.5,14z"/>
</svg>
