<?xml version="1.0" encoding="utf-8"?>
<!-- Generator: Adobe Illustrator 25.0.0, SVG Export Plug-In . SVG Version: 6.00 Build 0)  -->
<svg version="1.1" id="Capa_1" xmlns="http://www.w3.org/2000/svg" xmlns:xlink="http://www.w3.org/1999/xlink" x="0px" y="0px"
	 viewBox="0 0 192 99.2" style="enable-background:new 0 0 192 99.2;" xml:space="preserve">
<style type="text/css">
	.st0{fill:url(#SVGID_1_);}
	.st1{opacity:0.25;}
</style>
<radialGradient id="SVGID_1_" cx="95.8" cy="52.4" r="76.2817" gradientTransform="matrix(1 0 0 -1 0 102)" gradientUnits="userSpaceOnUse">
	<stop  offset="0" style="stop-color:#FEC350"/>
	<stop  offset="0.1313" style="stop-color:#FAAF49"/>
	<stop  offset="0.4923" style="stop-color:#F07E37"/>
	<stop  offset="0.767" style="stop-color:#EA5F2C"/>
	<stop  offset="0.921" style="stop-color:#E85428"/>
</radialGradient>
<path class="st0" d="M191.2,0l-8.9,13.7l9.3,10.9l-9.1,11l9.1,10.9l-9.3,10.9l9.3,10.9l-9.3,10.9l9.3,10.9l-8.5,9.1H9.3L0,88.5
	l9.2-10.9L0,66.6l9.3-10.9L0,44.8l9.3-10.9L0,23l9.2-11L0.5,0H191.2z"/>
<path class="st1" d="M64.1,11.4c1.1-0.1,2.2-0.1,3.3,0c0.7,0.1,1,0.6,0.8,1.4c-0.2,0.7-0.3,1.5-0.4,2.3c0,0.4,0.3,0.7,0.4,0.9
	c0.3-0.2,0.7-0.3,0.8-0.5c0.9-1.3,2-1.6,3.5-1c0.8,0.3,1.6,0.8,2.4,1c1.2,0.4,1.9,1.3,1.8,2.5c-0.1,1,0.4,1.5,1.2,1.8
	c1.8,0.9,3.5,1.8,4.8,3.5c1.7,2.4,1.7,4.1-0.1,6.3c-4,4.9-7.9,9.9-11.9,14.7C64.9,51.1,58.9,58,52.9,64.6
	c-4.4,4.9-9.1,9.6-13.7,14.4c-1.7,1.7-3.7,3-6,3.6c-3.5,1-6.5-0.3-9.1-2.3c-3.1-2.4-4.7-5.8-5.9-9.4c-1.4-4.2-1.8-8.4-2.1-12.7
	c-0.2-3.9-0.7-7.8,0.8-11.6c0.2-0.2,0.1-0.6,0-0.8c-0.6-1.4-0.4-2.6,0.3-3.9c1-1.9,1.9-3.9,2.8-5.9c0.6-1.2,1.5-2.1,2.8-2.6
	c0.3,0,0.5-0.5,0.5-0.8c0.2-3,2-5.1,4.9-5.7c0.3,0,0.6-0.1,0.7-0.2c0.6-0.9,1.3-1.7,1.8-2.7c0.7-1.1,1.5-1.7,2.6-2.1
	c0.4-0.2,0.7-0.5,0.9-0.8c0.6-1.2,1.4-1.9,2.7-2.3c1.1-0.3,2.1-0.9,3.1-1.4c0.4-0.2,0.7-0.2,1.1-0.4c0.5-0.2,1-0.3,1.5-0.6
	c1.2-0.6,2.3-1.3,3.4-1.9c0.3-0.1,0.7-0.3,1-0.2c1.2,0.5,2.2,0.5,3.4,0c0.3-0.1,0.7-0.1,1.1-0.2c0.8-0.3,1.5-0.7,2.3-0.7
	c1.6,0,3.2,0.2,4.9,0.4c0.1,0,0.3-0.1,0.5-0.1c1.2-0.7,2.3-0.6,3.5,0.3C62.7,12.7,62.9,11.6,64.1,11.4z M30.1,31.4
	c0.4,0.3,0.5,0.6,0.9,1c0.8-1.1,1.8-1.7,3.1-1.3c0.8-1.4,0.8-1.4,0.5-4.6c-2.7-0.1-4.8,1.6-5.4,4.2c-0.6,2.9,0.7,5.9,3.3,7.1
	c0.2-1,0.4-1.8,0.6-2.7c-1.5-1.3-3-2.6-3.9-4.4C29.5,31,29.9,31.1,30.1,31.4z M40.1,71.6c0.3-0.1,0.5-0.2,0.8-0.3
	c0,0.4,0.1,0.6,0,0.9s-0.4,0.5-0.6,0.6c-0.4,0.2-1.3,0-1.3,0.2c-0.1,0.7-0.1,1.6-0.1,2.4c0,0.3,0,0.6-0.1,0.8
	c-0.3,0.6-0.6,1-0.9,1.6c1.4,0.1,3.4-1.9,3.1-3c1.4-0.1,1.5-0.2,1.5-1.6c1.8,0.2,2.1-1.6,3.3-2.3c-0.3-0.7-0.7-1.4,0.7-1.1
	c0.2,0.1,0.5-0.2,0.7-0.4c1-1,2.2-1.8,2.8-3c0.5-1,1.4-1.4,2.1-2.1c8-8.6,15.7-17.5,22.8-26.9c2.2-2.9,4.6-5.5,7-8.2
	c1.8-2.1,2.1-3.6,0-5.7c-1.1-1.1-2.3-2.1-3.7-2.7c-3.9-1.6-7.8-3.1-11.8-4.3s-8.1-0.8-11.9,1.2c-4.1,2.1-8,4.6-11.3,8
	c-5.3,5.4-8,11.9-7.8,19.6c0.2,5.7,1.2,11.2,2.3,16.9c0.3,1.7,0.6,3.3,1,4.9c0,0.4,0.4,0.8,0.5,1.2c0.1,0.1,0.2,0.4,0.2,0.5
	c0,0.9-0.2,1.8-0.4,3.1C39.4,71.8,39.7,71.7,40.1,71.6z M21.2,74.8c1.1,1.8,2.4,3.6,3.9,4.9c5.3,4.4,11.2,2.1,12.4-4.7
	c0.5-3.3-0.1-6.6-0.7-9.9c-1-5.7-2-11.3-2.6-17C33.1,37,37.3,28.2,46.1,21.4c0.7-0.6,1.4-1,2.1-1.6c0.1,0,0.1,0,0-0.4
	c-1.9,1.1-3.7,2-5.3,3.1c-5.9,3.7-8.5,9.4-9.3,16.3c-0.7,5.6-0.1,11.2,0.7,16.8c0.7,5.2,1.5,10.3,2.2,15.5c0.1,0.9,0.2,1.9,0,2.9
	c-0.4,4.8-5.3,7.6-9.7,5.5c-3.6-1.7-5.5-4.6-6.2-8.5c-0.9-4.5-2-9-3-13.4c-0.1,0.1-0.2,0.1-0.3,0.1C17.7,63.6,18,69.6,21.2,74.8z
	 M32.2,69.6c-1.1-0.5-2-0.5-3,0.2c-0.4,0.3-0.8,0.5-1.2,0.7c-1.1,0.6-2.4,0.1-3-1c-0.4-0.7-0.6-1.5-1.7-1.1c-1.5,0.5-2,1.2-1.7,2.4
	c0.8,3.4,2.5,5.9,5.6,7.6c3.5,1.8,8.4-1.3,8.1-5c-0.1-1-0.1-2-0.2-2.9C34.1,70.2,33.2,70,32.2,69.6z M22.4,42.5
	c-1.2,0.4-1.4-0.7-2-1c-1.6,1.2-1.7,2-0.3,4.8c0.9-0.4,2-0.7,2.7-1.3c0.7-0.7,1.6-1.7,1.7-2.6c0.1-1.5,0.5-2.3,2-2.6
	c-0.8-1.3-1.6-2.5-2.4-3.6c-0.1-0.2-0.6-0.3-0.8-0.3c-1,0.2-1.6,0.9-2,1.8c-0.3,0.9-0.6,1.8-0.8,2.8C21.2,41.2,21.8,41.7,22.4,42.5z
	 M20.7,48.5c-0.1,0.6-0.3,1.1-0.5,1.6c-1.2,3,0.3,6.4,3.3,7.2c0.8,0.2,1.6,0.3,2.3-0.8c-0.3,0-0.5,0-0.7,0c-2-0.7-2.6-2.2-1.7-4.1
	c0.1-0.3,0.2-0.7,0.1-1c-0.5-1.6-0.4-2.1,0.8-3.1c-0.4-0.8-0.7-1.5-1.1-2.4C21.4,46.2,20.8,46.7,20.7,48.5z M24.2,52.8
	c-0.6,0.9-0.3,1.8,0.5,2.3c0.7,0.5,1.3,0.3,2-0.7c0.6-1,1.3-1.7,2.5-1.6c0.7,0,1-0.3,0.9-1.1c-0.2-1.1-0.5-2-1.8-2.2
	c-1-0.2-2-0.4-3-0.4c-1.2-0.1-1.4,0.5-0.9,1.6C24.8,51.5,24.7,52.2,24.2,52.8z M26.3,32.5c0.1,1.6,0.6,3,1.7,4.3
	c1.3,1.6,2.7,3.2,4.2,4.9c0.1-0.8,0.2-1.5,0.3-2.1c0-0.2-0.2-0.4-0.3-0.5c-4.2-2.9-5-5.5-3.2-10.3C27,29.2,26.1,30.7,26.3,32.5z
	 M19.7,61.5c0.8-0.4,1.5-0.9,2.2-0.9c0.6,0,1.1,0.8,1.7,1.3c-0.3,0-0.4,0-0.6,0c0.5-1.2,1-2.3,1.5-3.4c-1-0.3-2.3-0.8-3.5-1.3
	c0.1,0.6,0,1.1-1.1,0.6C19.7,59.2,18.5,60.3,19.7,61.5z M45.5,19.4c0.8-0.1,1.2-0.3,1.1-1.3c0-0.9,0.4-1.8,0.8-2.8
	c-0.4-0.3-0.9-0.1-1.5,0.3c-0.8,0.5-1.5,1-2.4,1.5c-1.2,0.7-1.7,2-1.1,3.1c0.4,0.7,0.8,1,1.5,0.4c0.4-0.3,0.8-0.5,1.2-0.7
	c-0.2-0.9-0.5-1.8-0.7-2.6c0.2-0.1,0.4-0.1,0.5-0.2C45,17.9,45.3,18.6,45.5,19.4z M33.6,57.7c-0.7,1.2-1.1,0.2-1.7,0.1
	c1,0.6,0.8,1.5,0.6,2.7c-0.5-0.6-0.9-1-1.3-1.3c-0.3-0.2-0.6-0.3-0.9-0.5c-0.1,0.1-0.2,0.2-0.3,0.4c0.6,0.6,1.3,1.2,1.9,1.8
	c-1,0.3-1.5-0.5-2.1-1c-0.3-0.3-0.7-0.7-1.2,0c1.1,0.9,2.3,1.8,3.3,2.6c-1.7,0.1-2.5-1.2-4.1-2.1c0.1,0.6,0,1.1,0.2,1.2
	c1.5,0.9,2.9,1.7,4.5,2.6c0-0.1,0.1-0.1,0.2-0.2c-0.4-0.3-0.7-0.5-1.2-0.9c0.5,0,0.7,0,1-0.1c0-0.3-0.1-0.5-0.2-1
	c0.6,0.2,1,0.5,1.5,0.7c0,0,0-0.1,0.1-0.1c-0.5-0.5-1.2-0.9-1.8-1.4c0.1-0.2,0.2-0.3,0.3-0.6c0.4,0.3,0.8,0.7,1.2,1.1
	c0-0.2,0.1-0.3,0.2-0.4C33.6,60.2,33.5,59.1,33.6,57.7z M37.8,23c0.3-0.4,0.3-0.9,0.6-1.2c0.6-0.7,0.7-1.4,0.2-2.2
	c-1-0.2-2.5,0.4-3.2,1.3c-1.1,1.6,0.5,2.2,1.1,3.4C37,23.8,37.3,23.4,37.8,23z M31.4,45.3c-0.5-0.7-1.1-1.5-1.8-2.2
	c-0.3-0.3-0.9-0.5-1.3-0.4c-0.3,0.1-0.6,0.6-0.7,0.9c-0.3,0.9-0.1,1.5,0.9,2c1.2,0.5,2.2,1.1,3.3,1.7c0.1-0.1,0.2-0.2,0.3-0.3
	C31.9,46.4,31.8,45.8,31.4,45.3z M23.7,66.2c0.5,0.2,1,0.4,1.4,0.7c0.5,0.2,1,0.4,1.5,0.7c0.5-2,0.5-2.1-1-2.9
	c-0.4-0.2-0.8-0.3-1.2-0.6c-0.3-0.2-0.7-0.5-1.1-0.7C22.3,64.8,22.5,65.3,23.7,66.2z M27.6,48.4c1.5,0.4,3,0.6,4.5,0.9
	c0-1,0-1-1.5-1.5c0,0.3,0,0.6,0,1.1c-0.8-1-1.5-1.7-2.2-2.5c-0.1,0-0.2,0.1-0.3,0.1c0,0.3,0,0.6,0,0.9c-0.1,0.1-0.2,0.1-0.3,0.1
	c-0.4-0.8-0.9-1.5-1.5-2.6C25.5,47.3,25.8,47.9,27.6,48.4z M24.5,33.9c0.6,1.5,1.3,3,2.3,4.2c1.5,2,3.3,3.9,4.9,5.7
	c0.1-0.1,0.2-0.2,0.3-0.2c-0.4-0.5-0.8-1.1-1.3-1.7c-1.1-1.3-2.4-2.6-3.4-4c-0.8-1.2-1.5-2.6-2-4.1c-0.6-1.6-0.2-3.2,1-4.9
	C24.6,30,23.9,32.1,24.5,33.9z M26.4,57.9c0.4,0.3,0.8,0.6,1.2,0.7c0.3,0.1,1-0.2,1.1-0.4c0.4-1.3,0.6-2.7,0.9-4.2
	C26.9,53.9,27.5,56.5,26.4,57.9z M31.5,56c0.4-0.3,1.2-0.5,1.3-0.9c0.1-0.8-0.1-1.7-0.2-2.9c-0.5,0.3-1.1,0.4-1.2,0.7
	c-0.6,1.5-1,3-1.6,4.5c0.1,0,0.1,0.1,0.2,0.2C30.5,57.1,30.9,56.5,31.5,56z M29.7,67.8c-0.5,0-1-0.1-1.4-0.2c0.2,1,0.5,1.2,1.4,0.8
	c0.2-0.1,0.5-0.2,0.8-0.3c0.3,0,0.4,0,0.8-0.1c-0.5-0.3-0.8-0.5-1.1-0.7c0-0.1,0-0.2,0-0.3c0.4,0,0.7,0,1.3,0.1
	c-0.6-0.3-1-0.6-1.4-0.8c0.4-0.5,0.7-1.1,1.1-1.7c0.3,0,0.7,0.1,1.1,0.2c-0.7-0.5-1.2-1.4-2.4-0.6c-0.3,0.2-1.1-0.2-1.8-0.3
	c0.5,0.3,1,0.6,1.7,0.9C28.6,65.8,29.2,66.7,29.7,67.8z M26.3,44c0.6-0.9,1.1-1.7,1.9-2.8c-0.4-0.2-0.9-0.5-1.5-0.6
	c-0.9,0.1-1,0.8-1.1,1.6c0,0.5-0.3,1.2-0.7,1.6c-0.9,1.2-1,1.6-0.2,3C25.5,46,24.3,44.1,26.3,44z M33.4,25.5c-0.6-1.1-0.3-2,0.8-2.7
	c-1.5-0.2-4.2,2.7-4.1,4.2C31.2,26.5,32.3,26,33.4,25.5z M66.8,15.5c0.2-1.1,0.4-2,0.6-3c-1.3-0.8-1.8-0.6-2,1
	c-0.1,0.5-0.1,1-0.1,1.6C65.8,15.4,66.3,15.4,66.8,15.5z M54.3,16c-0.1-0.1,0-0.3-0.1-0.4c-0.2-0.4-0.4-1.2-0.7-1.2
	c-0.8-0.1-1.4,0.5-1.8,1.3c-0.1,0.3-0.1,0.6-0.2,1.2C52.6,16.6,53.4,16.4,54.3,16z M70,16.5c0.9,0.4,1.8,0.7,2.7,1.1
	c0.2-0.6,0.3-1.1,0.4-1.7C71.4,15.1,70.7,15.2,70,16.5z M73.6,16.2c-0.1,0.5-0.1,1-0.1,1.5c0.8,0.4,1.6,0.7,2.4,1
	C76.1,17.1,75.5,16.5,73.6,16.2z M39.6,20.4c0.4,0,0.9-0.1,1.4-0.1c0.1-0.8,0.1-1.5,0.1-2.4C39.5,18.4,39.1,19.1,39.6,20.4z
	 M25.9,58.8c-1.1,1-1,1.4,0.5,2.3C27.3,59.5,27.3,59.5,25.9,58.8z M33.6,31.8c-0.4,0.2-1.1,0.2-1.3,0.6c-0.5,0.7,0.2,1.1,1.1,1.5
	C33.5,33.2,33.6,32.5,33.6,31.8z M24.7,61.1c-0.3,1.3,0.2,1.8,1.7,2.2C26.6,61.9,25.2,61.9,24.7,61.1z M50.6,15.4
	c-0.7-0.1-1.1-0.1-1,0.7c0,0.5,0,1.1-0.1,1.7C51.1,17.7,50.2,16.3,50.6,15.4z M28,69.3c-0.5-1.1-1.6-0.8-2.4-1.2
	C26.3,69.7,26.9,69.9,28,69.3z M64.1,15.2c0.3-1,0.4-1.8,0.6-2.8C63.6,12.6,63.3,14.1,64.1,15.2z M17.9,43.1
	c-0.6,0.9-0.4,2.3,0.9,3.1C18.5,45.1,18.2,44.1,17.9,43.1z M56.5,14.4c-0.3,0-0.3,0.6-0.6,1.1c1-0.3,1.6-0.5,2.2-0.6
	c0-0.1,0-0.3,0-0.4C57.6,14.5,57,14.4,56.5,14.4z M23.4,34.6c-0.8-0.4-1.9,0.3-2.4,1.6C21.8,35.7,22.6,35.2,23.4,34.6z M61.7,14.9
	c-0.5-0.9-1.3-1-2.3,0.1C60.1,14.9,60.9,14.9,61.7,14.9z M32.5,51c-0.4-0.3-0.9-0.6-1.2-0.8c-0.1,0-0.2,0.2-0.3,0.2
	c0.1,0.4,0.2,0.9,0.3,1.3c0.1,0.1,0.2,0.2,0.3,0.2C31.9,51.6,32.2,51.3,32.5,51z M22.1,61.9c-0.3,0-0.7-0.3-1-0.2
	c-0.1,0.1-0.3,0.6-0.3,0.8c0.1,0.3,0.4,0.5,0.7,0.7c0.1-0.2,0.2-0.3,0.3-0.5C21.9,62.5,22.1,62.2,22.1,61.9z M22.2,66.2
	c0.1,0.6,0,1.3,0.3,1.4c0.3,0.2,0.9,0,1.3,0c0-0.1,0-0.2,0-0.3C23.3,66.9,22.8,66.6,22.2,66.2z M47.8,18.1c0,0.1,0.6,0.1,1.1,0.1
	c-0.4-0.6-0.6-1-0.8-1.4c-0.1,0-0.3,0-0.3,0.1C47.8,17.4,47.7,17.8,47.8,18.1z M20.2,63.6c0,0.1-0.1,0.1-0.2,0.2
	c0.3,0.2,0.5,0.7,0.8,0.8s0.7-0.1,1-0.2c0-0.1-0.1-0.2-0.1-0.3C21.2,63.9,20.7,63.8,20.2,63.6z"/>
</svg>
