<?xml version="1.0" encoding="utf-8"?>
<!-- Generator: Adobe Illustrator 25.0.0, SVG Export Plug-In . SVG Version: 6.00 Build 0)  -->
<svg version="1.1" id="Capa_1" xmlns="http://www.w3.org/2000/svg" xmlns:xlink="http://www.w3.org/1999/xlink" x="0px" y="0px"
	 viewBox="0 0 2013.8 67.9" style="enable-background:new 0 0 2013.8 67.9;" xml:space="preserve">
<style type="text/css">
	.st0{fill:#F9F3C4;}
	.st1{fill:#ED3C2E;}
	.st2{fill:#00AC50;}
	.st3{fill:#F17D56;}
</style>
<polygon class="st0" points="36,32 32,32 32,36 28,36 28,40 24,40 24,36 20,36 20,32 16,32 12,32 12,36 16,36 16,40 20,40 20,44 
	24,44 24,47.9 28,47.9 28,44 32,44 32,40 36,40 36,36 40,36 40,32 "/>
<polygon class="st1" points="44,32 44,36 40,36 40,40 36,40 36,44 32,44 32,47.9 28,47.9 28,51.9 24,51.9 24,47.9 20,47.9 20,44 
	16,44 16,40 12,40 12,36 8,36 8,32 4,32 4,28 0,28 0,32 0,36 4,36 4,40 8,40 8,44 12,44 12,47.9 16,47.9 16,51.9 20,51.9 20,55.9 
	24,55.9 24,59.9 28,59.9 28,55.9 32,55.9 32,51.9 36,51.9 36,47.9 40,47.9 40,44 44,44 44,40 47.9,40 47.9,36 47.9,32 "/>
<polygon class="st2" points="44,40 44,44 40,44 40,47.9 36,47.9 36,51.9 32,51.9 32,55.9 28,55.9 28,59.9 24,59.9 24,55.9 20,55.9 
	20,51.9 16,51.9 16,47.9 12,47.9 12,44 8,44 8,40 4,40 4,36 0,36 0,40 0,44 4,44 4,47.9 8,47.9 8,51.9 12,51.9 12,55.9 16,55.9 
	16,59.9 20,59.9 20,63.9 24,63.9 24,67.9 28,67.9 28,63.9 32,63.9 32,59.9 36,59.9 36,55.9 40,55.9 40,51.9 44,51.9 44,47.9 
	47.9,47.9 47.9,44 47.9,40 "/>
<polygon class="st0" points="83.9,32 79.9,32 79.9,36 75.9,36 75.9,40 71.9,40 71.9,36 67.9,36 67.9,32 63.9,32 59.9,32 59.9,36 
	63.9,36 63.9,40 67.9,40 67.9,44 71.9,44 71.9,47.9 75.9,47.9 75.9,44 79.9,44 79.9,40 83.9,40 83.9,36 87.9,36 87.9,32 "/>
<polygon class="st1" points="91.9,32 91.9,36 87.9,36 87.9,40 83.9,40 83.9,44 79.9,44 79.9,47.9 75.9,47.9 75.9,51.9 71.9,51.9 
	71.9,47.9 67.9,47.9 67.9,44 63.9,44 63.9,40 59.9,40 59.9,36 55.9,36 55.9,32 51.9,32 51.9,28 47.9,28 47.9,32 47.9,36 51.9,36 
	51.9,40 55.9,40 55.9,44 59.9,44 59.9,47.9 63.9,47.9 63.9,51.9 67.9,51.9 67.9,55.9 71.9,55.9 71.9,59.9 75.9,59.9 75.9,55.9 
	79.9,55.9 79.9,51.9 83.9,51.9 83.9,47.9 87.9,47.9 87.9,44 91.9,44 91.9,40 95.9,40 95.9,36 95.9,32 "/>
<polygon class="st2" points="91.9,40 91.9,44 87.9,44 87.9,47.9 83.9,47.9 83.9,51.9 79.9,51.9 79.9,55.9 75.9,55.9 75.9,59.9 
	71.9,59.9 71.9,55.9 67.9,55.9 67.9,51.9 63.9,51.9 63.9,47.9 59.9,47.9 59.9,44 55.9,44 55.9,40 51.9,40 51.9,36 47.9,36 47.9,40 
	47.9,44 51.9,44 51.9,47.9 55.9,47.9 55.9,51.9 59.9,51.9 59.9,55.9 63.9,55.9 63.9,59.9 67.9,59.9 67.9,63.9 71.9,63.9 71.9,67.9 
	75.9,67.9 75.9,63.9 79.9,63.9 79.9,59.9 83.9,59.9 83.9,55.9 87.9,55.9 87.9,51.9 91.9,51.9 91.9,47.9 95.9,47.9 95.9,44 95.9,40 
	"/>
<polygon class="st0" points="131.9,32 127.9,32 127.9,36 123.9,36 123.9,40 119.9,40 119.9,36 115.9,36 115.9,32 111.9,32 107.9,32 
	107.9,36 111.9,36 111.9,40 115.9,40 115.9,44 119.9,44 119.9,47.9 123.9,47.9 123.9,44 127.9,44 127.9,40 131.9,40 131.9,36 
	135.8,36 135.8,32 "/>
<polygon class="st1" points="139.8,32 139.8,36 135.8,36 135.8,40 131.9,40 131.9,44 127.9,44 127.9,47.9 123.9,47.9 123.9,51.9 
	119.9,51.9 119.9,47.9 115.9,47.9 115.9,44 111.9,44 111.9,40 107.9,40 107.9,36 103.9,36 103.9,32 99.9,32 99.9,28 95.9,28 
	95.9,32 95.9,36 99.9,36 99.9,40 103.9,40 103.9,44 107.9,44 107.9,47.9 111.9,47.9 111.9,51.9 115.9,51.9 115.9,55.9 119.9,55.9 
	119.9,59.9 123.9,59.9 123.9,55.9 127.9,55.9 127.9,51.9 131.9,51.9 131.9,47.9 135.8,47.9 135.8,44 139.8,44 139.8,40 143.8,40 
	143.8,36 143.8,32 "/>
<polygon class="st2" points="139.8,40 139.8,44 135.8,44 135.8,47.9 131.9,47.9 131.9,51.9 127.9,51.9 127.9,55.9 123.9,55.9 
	123.9,59.9 119.9,59.9 119.9,55.9 115.9,55.9 115.9,51.9 111.9,51.9 111.9,47.9 107.9,47.9 107.9,44 103.9,44 103.9,40 99.9,40 
	99.9,36 95.9,36 95.9,40 95.9,44 99.9,44 99.9,47.9 103.9,47.9 103.9,51.9 107.9,51.9 107.9,55.9 111.9,55.9 111.9,59.9 115.9,59.9 
	115.9,63.9 119.9,63.9 119.9,67.9 123.9,67.9 123.9,63.9 127.9,63.9 127.9,59.9 131.9,59.9 131.9,55.9 135.8,55.9 135.8,51.9 
	139.8,51.9 139.8,47.9 143.8,47.9 143.8,44 143.8,40 "/>
<polygon class="st0" points="179.8,32 175.8,32 175.8,36 171.8,36 171.8,40 167.8,40 167.8,36 163.8,36 163.8,32 159.8,32 155.8,32 
	155.8,36 159.8,36 159.8,40 163.8,40 163.8,44 167.8,44 167.8,47.9 171.8,47.9 171.8,44 175.8,44 175.8,40 179.8,40 179.8,36 
	183.8,36 183.8,32 "/>
<polygon class="st1" points="187.8,32 187.8,36 183.8,36 183.8,40 179.8,40 179.8,44 175.8,44 175.8,47.9 171.8,47.9 171.8,51.9 
	167.8,51.9 167.8,47.9 163.8,47.9 163.8,44 159.8,44 159.8,40 155.8,40 155.8,36 151.8,36 151.8,32 147.8,32 147.8,28 143.8,28 
	143.8,32 143.8,36 147.8,36 147.8,40 151.8,40 151.8,44 155.8,44 155.8,47.9 159.8,47.9 159.8,51.9 163.8,51.9 163.8,55.9 
	167.8,55.9 167.8,59.9 171.8,59.9 171.8,55.9 175.8,55.9 175.8,51.9 179.8,51.9 179.8,47.9 183.8,47.9 183.8,44 187.8,44 187.8,40 
	191.8,40 191.8,36 191.8,32 "/>
<polygon class="st2" points="187.8,40 187.8,44 183.8,44 183.8,47.9 179.8,47.9 179.8,51.9 175.8,51.9 175.8,55.9 171.8,55.9 
	171.8,59.9 167.8,59.9 167.8,55.9 163.8,55.9 163.8,51.9 159.8,51.9 159.8,47.9 155.8,47.9 155.8,44 151.8,44 151.8,40 147.8,40 
	147.8,36 143.8,36 143.8,40 143.8,44 147.8,44 147.8,47.9 151.8,47.9 151.8,51.9 155.8,51.9 155.8,55.9 159.8,55.9 159.8,59.9 
	163.8,59.9 163.8,63.9 167.8,63.9 167.8,67.9 171.8,67.9 171.8,63.9 175.8,63.9 175.8,59.9 179.8,59.9 179.8,55.9 183.8,55.9 
	183.8,51.9 187.8,51.9 187.8,47.9 191.8,47.9 191.8,44 191.8,40 "/>
<polygon class="st0" points="227.7,32 223.8,32 223.8,36 219.8,36 219.8,40 215.8,40 215.8,36 211.8,36 211.8,32 207.8,32 203.8,32 
	203.8,36 207.8,36 207.8,40 211.8,40 211.8,44 215.8,44 215.8,47.9 219.8,47.9 219.8,44 223.8,44 223.8,40 227.7,40 227.7,36 
	231.7,36 231.7,32 "/>
<polygon class="st1" points="235.7,32 235.7,36 231.7,36 231.7,40 227.7,40 227.7,44 223.8,44 223.8,47.9 219.8,47.9 219.8,51.9 
	215.8,51.9 215.8,47.9 211.8,47.9 211.8,44 207.8,44 207.8,40 203.8,40 203.8,36 199.8,36 199.8,32 195.8,32 195.8,28 191.8,28 
	191.8,32 191.8,36 195.8,36 195.8,40 199.8,40 199.8,44 203.8,44 203.8,47.9 207.8,47.9 207.8,51.9 211.8,51.9 211.8,55.9 
	215.8,55.9 215.8,59.9 219.8,59.9 219.8,55.9 223.8,55.9 223.8,51.9 227.7,51.9 227.7,47.9 231.7,47.9 231.7,44 235.7,44 235.7,40 
	239.7,40 239.7,36 239.7,32 "/>
<polygon class="st2" points="235.7,40 235.7,44 231.7,44 231.7,47.9 227.7,47.9 227.7,51.9 223.8,51.9 223.8,55.9 219.8,55.9 
	219.8,59.9 215.8,59.9 215.8,55.9 211.8,55.9 211.8,51.9 207.8,51.9 207.8,47.9 203.8,47.9 203.8,44 199.8,44 199.8,40 195.8,40 
	195.8,36 191.8,36 191.8,40 191.8,44 195.8,44 195.8,47.9 199.8,47.9 199.8,51.9 203.8,51.9 203.8,55.9 207.8,55.9 207.8,59.9 
	211.8,59.9 211.8,63.9 215.8,63.9 215.8,67.9 219.8,67.9 219.8,63.9 223.8,63.9 223.8,59.9 227.7,59.9 227.7,55.9 231.7,55.9 
	231.7,51.9 235.7,51.9 235.7,47.9 239.7,47.9 239.7,44 239.7,40 "/>
<polygon class="st0" points="275.7,32 271.7,32 271.7,36 267.7,36 267.7,40 263.7,40 263.7,36 259.7,36 259.7,32 255.7,32 251.7,32 
	251.7,36 255.7,36 255.7,40 259.7,40 259.7,44 263.7,44 263.7,47.9 267.7,47.9 267.7,44 271.7,44 271.7,40 275.7,40 275.7,36 
	279.7,36 279.7,32 "/>
<polygon class="st1" points="283.7,32 283.7,36 279.7,36 279.7,40 275.7,40 275.7,44 271.7,44 271.7,47.9 267.7,47.9 267.7,51.9 
	263.7,51.9 263.7,47.9 259.7,47.9 259.7,44 255.7,44 255.7,40 251.7,40 251.7,36 247.7,36 247.7,32 243.7,32 243.7,28 239.7,28 
	239.7,32 239.7,36 243.7,36 243.7,40 247.7,40 247.7,44 251.7,44 251.7,47.9 255.7,47.9 255.7,51.9 259.7,51.9 259.7,55.9 
	263.7,55.9 263.7,59.9 267.7,59.9 267.7,55.9 271.7,55.9 271.7,51.9 275.7,51.9 275.7,47.9 279.7,47.9 279.7,44 283.7,44 283.7,40 
	287.7,40 287.7,36 287.7,32 "/>
<polygon class="st2" points="283.7,40 283.7,44 279.7,44 279.7,47.9 275.7,47.9 275.7,51.9 271.7,51.9 271.7,55.9 267.7,55.9 
	267.7,59.9 263.7,59.9 263.7,55.9 259.7,55.9 259.7,51.9 255.7,51.9 255.7,47.9 251.7,47.9 251.7,44 247.7,44 247.7,40 243.7,40 
	243.7,36 239.7,36 239.7,40 239.7,44 243.7,44 243.7,47.9 247.7,47.9 247.7,51.9 251.7,51.9 251.7,55.9 255.7,55.9 255.7,59.9 
	259.7,59.9 259.7,63.9 263.7,63.9 263.7,67.9 267.7,67.9 267.7,63.9 271.7,63.9 271.7,59.9 275.7,59.9 275.7,55.9 279.7,55.9 
	279.7,51.9 283.7,51.9 283.7,47.9 287.7,47.9 287.7,44 287.7,40 "/>
<polygon class="st0" points="323.6,32 319.6,32 319.6,36 315.7,36 315.7,40 311.7,40 311.7,36 307.7,36 307.7,32 303.7,32 299.7,32 
	299.7,36 303.7,36 303.7,40 307.7,40 307.7,44 311.7,44 311.7,47.9 315.7,47.9 315.7,44 319.6,44 319.6,40 323.6,40 323.6,36 
	327.6,36 327.6,32 "/>
<polygon class="st1" points="331.6,32 331.6,36 327.6,36 327.6,40 323.6,40 323.6,44 319.6,44 319.6,47.9 315.7,47.9 315.7,51.9 
	311.7,51.9 311.7,47.9 307.7,47.9 307.7,44 303.7,44 303.7,40 299.7,40 299.7,36 295.7,36 295.7,32 291.7,32 291.7,28 287.7,28 
	287.7,32 287.7,36 291.7,36 291.7,40 295.7,40 295.7,44 299.7,44 299.7,47.9 303.7,47.9 303.7,51.9 307.7,51.9 307.7,55.9 
	311.7,55.9 311.7,59.9 315.7,59.9 315.7,55.9 319.6,55.9 319.6,51.9 323.6,51.9 323.6,47.9 327.6,47.9 327.6,44 331.6,44 331.6,40 
	335.6,40 335.6,36 335.6,32 "/>
<polygon class="st2" points="331.6,40 331.6,44 327.6,44 327.6,47.9 323.6,47.9 323.6,51.9 319.6,51.9 319.6,55.9 315.7,55.9 
	315.7,59.9 311.7,59.9 311.7,55.9 307.7,55.9 307.7,51.9 303.7,51.9 303.7,47.9 299.7,47.9 299.7,44 295.7,44 295.7,40 291.7,40 
	291.7,36 287.7,36 287.7,40 287.7,44 291.7,44 291.7,47.9 295.7,47.9 295.7,51.9 299.7,51.9 299.7,55.9 303.7,55.9 303.7,59.9 
	307.7,59.9 307.7,63.9 311.7,63.9 311.7,67.9 315.7,67.9 315.7,63.9 319.6,63.9 319.6,59.9 323.6,59.9 323.6,55.9 327.6,55.9 
	327.6,51.9 331.6,51.9 331.6,47.9 335.6,47.9 335.6,44 335.6,40 "/>
<polygon class="st0" points="371.6,32 367.6,32 367.6,36 363.6,36 363.6,40 359.6,40 359.6,36 355.6,36 355.6,32 351.6,32 347.6,32 
	347.6,36 351.6,36 351.6,40 355.6,40 355.6,44 359.6,44 359.6,47.9 363.6,47.9 363.6,44 367.6,44 367.6,40 371.6,40 371.6,36 
	375.6,36 375.6,32 "/>
<polygon class="st1" points="379.6,32 379.6,36 375.6,36 375.6,40 371.6,40 371.6,44 367.6,44 367.6,47.9 363.6,47.9 363.6,51.9 
	359.6,51.9 359.6,47.9 355.6,47.9 355.6,44 351.6,44 351.6,40 347.6,40 347.6,36 343.6,36 343.6,32 339.6,32 339.6,28 335.6,28 
	335.6,32 335.6,36 339.6,36 339.6,40 343.6,40 343.6,44 347.6,44 347.6,47.9 351.6,47.9 351.6,51.9 355.6,51.9 355.6,55.9 
	359.6,55.9 359.6,59.9 363.6,59.9 363.6,55.9 367.6,55.9 367.6,51.9 371.6,51.9 371.6,47.9 375.6,47.9 375.6,44 379.6,44 379.6,40 
	383.6,40 383.6,36 383.6,32 "/>
<polygon class="st2" points="379.6,40 379.6,44 375.6,44 375.6,47.9 371.6,47.9 371.6,51.9 367.6,51.9 367.6,55.9 363.6,55.9 
	363.6,59.9 359.6,59.9 359.6,55.9 355.6,55.9 355.6,51.9 351.6,51.9 351.6,47.9 347.6,47.9 347.6,44 343.6,44 343.6,40 339.6,40 
	339.6,36 335.6,36 335.6,40 335.6,44 339.6,44 339.6,47.9 343.6,47.9 343.6,51.9 347.6,51.9 347.6,55.9 351.6,55.9 351.6,59.9 
	355.6,59.9 355.6,63.9 359.6,63.9 359.6,67.9 363.6,67.9 363.6,63.9 367.6,63.9 367.6,59.9 371.6,59.9 371.6,55.9 375.6,55.9 
	375.6,51.9 379.6,51.9 379.6,47.9 383.6,47.9 383.6,44 383.6,40 "/>
<polygon class="st0" points="419.5,32 415.5,32 415.5,36 411.5,36 411.5,40 407.5,40 407.5,36 403.6,36 403.6,32 399.6,32 395.6,32 
	395.6,36 399.6,36 399.6,40 403.6,40 403.6,44 407.5,44 407.5,47.9 411.5,47.9 411.5,44 415.5,44 415.5,40 419.5,40 419.5,36 
	423.5,36 423.5,32 "/>
<polygon class="st1" points="427.5,32 427.5,36 423.5,36 423.5,40 419.5,40 419.5,44 415.5,44 415.5,47.9 411.5,47.9 411.5,51.9 
	407.5,51.9 407.5,47.9 403.6,47.9 403.6,44 399.6,44 399.6,40 395.6,40 395.6,36 391.6,36 391.6,32 387.6,32 387.6,28 383.6,28 
	383.6,32 383.6,36 387.6,36 387.6,40 391.6,40 391.6,44 395.6,44 395.6,47.9 399.6,47.9 399.6,51.9 403.6,51.9 403.6,55.9 
	407.5,55.9 407.5,59.9 411.5,59.9 411.5,55.9 415.5,55.9 415.5,51.9 419.5,51.9 419.5,47.9 423.5,47.9 423.5,44 427.5,44 427.5,40 
	431.5,40 431.5,36 431.5,32 "/>
<polygon class="st2" points="427.5,40 427.5,44 423.5,44 423.5,47.9 419.5,47.9 419.5,51.9 415.5,51.9 415.5,55.9 411.5,55.9 
	411.5,59.9 407.5,59.9 407.5,55.9 403.6,55.9 403.6,51.9 399.6,51.9 399.6,47.9 395.6,47.9 395.6,44 391.6,44 391.6,40 387.6,40 
	387.6,36 383.6,36 383.6,40 383.6,44 387.6,44 387.6,47.9 391.6,47.9 391.6,51.9 395.6,51.9 395.6,55.9 399.6,55.9 399.6,59.9 
	403.6,59.9 403.6,63.9 407.5,63.9 407.5,67.9 411.5,67.9 411.5,63.9 415.5,63.9 415.5,59.9 419.5,59.9 419.5,55.9 423.5,55.9 
	423.5,51.9 427.5,51.9 427.5,47.9 431.5,47.9 431.5,44 431.5,40 "/>
<polygon class="st0" points="467.5,32 463.5,32 463.5,36 459.5,36 459.5,40 455.5,40 455.5,36 451.5,36 451.5,32 447.5,32 443.5,32 
	443.5,36 447.5,36 447.5,40 451.5,40 451.5,44 455.5,44 455.5,47.9 459.5,47.9 459.5,44 463.5,44 463.5,40 467.5,40 467.5,36 
	471.5,36 471.5,32 "/>
<polygon class="st1" points="475.5,32 475.5,36 471.5,36 471.5,40 467.5,40 467.5,44 463.5,44 463.5,47.9 459.5,47.9 459.5,51.9 
	455.5,51.9 455.5,47.9 451.5,47.9 451.5,44 447.5,44 447.5,40 443.5,40 443.5,36 439.5,36 439.5,32 435.5,32 435.5,28 431.5,28 
	431.5,32 431.5,36 435.5,36 435.5,40 439.5,40 439.5,44 443.5,44 443.5,47.9 447.5,47.9 447.5,51.9 451.5,51.9 451.5,55.9 
	455.5,55.9 455.5,59.9 459.5,59.9 459.5,55.9 463.5,55.9 463.5,51.9 467.5,51.9 467.5,47.9 471.5,47.9 471.5,44 475.5,44 475.5,40 
	479.5,40 479.5,36 479.5,32 "/>
<polygon class="st2" points="475.5,40 475.5,44 471.5,44 471.5,47.9 467.5,47.9 467.5,51.9 463.5,51.9 463.5,55.9 459.5,55.9 
	459.5,59.9 455.5,59.9 455.5,55.9 451.5,55.9 451.5,51.9 447.5,51.9 447.5,47.9 443.5,47.9 443.5,44 439.5,44 439.5,40 435.5,40 
	435.5,36 431.5,36 431.5,40 431.5,44 435.5,44 435.5,47.9 439.5,47.9 439.5,51.9 443.5,51.9 443.5,55.9 447.5,55.9 447.5,59.9 
	451.5,59.9 451.5,63.9 455.5,63.9 455.5,67.9 459.5,67.9 459.5,63.9 463.5,63.9 463.5,59.9 467.5,59.9 467.5,55.9 471.5,55.9 
	471.5,51.9 475.5,51.9 475.5,47.9 479.5,47.9 479.5,44 479.5,40 "/>
<polygon class="st0" points="515.4,32 511.4,32 511.4,36 507.4,36 507.4,40 503.4,40 503.4,36 499.4,36 499.4,32 495.5,32 491.5,32 
	491.5,36 495.5,36 495.5,40 499.4,40 499.4,44 503.4,44 503.4,47.9 507.4,47.9 507.4,44 511.4,44 511.4,40 515.4,40 515.4,36 
	519.4,36 519.4,32 "/>
<polygon class="st1" points="523.4,32 523.4,36 519.4,36 519.4,40 515.4,40 515.4,44 511.4,44 511.4,47.9 507.4,47.9 507.4,51.9 
	503.4,51.9 503.4,47.9 499.4,47.9 499.4,44 495.5,44 495.5,40 491.5,40 491.5,36 487.5,36 487.5,32 483.5,32 483.5,28 479.5,28 
	479.5,32 479.5,36 483.5,36 483.5,40 487.5,40 487.5,44 491.5,44 491.5,47.9 495.5,47.9 495.5,51.9 499.4,51.9 499.4,55.9 
	503.4,55.9 503.4,59.9 507.4,59.9 507.4,55.9 511.4,55.9 511.4,51.9 515.4,51.9 515.4,47.9 519.4,47.9 519.4,44 523.4,44 523.4,40 
	527.4,40 527.4,36 527.4,32 "/>
<polygon class="st2" points="523.4,40 523.4,44 519.4,44 519.4,47.9 515.4,47.9 515.4,51.9 511.4,51.9 511.4,55.9 507.4,55.9 
	507.4,59.9 503.4,59.9 503.4,55.9 499.4,55.9 499.4,51.9 495.5,51.9 495.5,47.9 491.5,47.9 491.5,44 487.5,44 487.5,40 483.5,40 
	483.5,36 479.5,36 479.5,40 479.5,44 483.5,44 483.5,47.9 487.5,47.9 487.5,51.9 491.5,51.9 491.5,55.9 495.5,55.9 495.5,59.9 
	499.4,59.9 499.4,63.9 503.4,63.9 503.4,67.9 507.4,67.9 507.4,63.9 511.4,63.9 511.4,59.9 515.4,59.9 515.4,55.9 519.4,55.9 
	519.4,51.9 523.4,51.9 523.4,47.9 527.4,47.9 527.4,44 527.4,40 "/>
<polygon class="st0" points="563.4,32 559.4,32 559.4,36 555.4,36 555.4,40 551.4,40 551.4,36 547.4,36 547.4,32 543.4,32 539.4,32 
	539.4,36 543.4,36 543.4,40 547.4,40 547.4,44 551.4,44 551.4,47.9 555.4,47.9 555.4,44 559.4,44 559.4,40 563.4,40 563.4,36 
	567.4,36 567.4,32 "/>
<polygon class="st1" points="571.4,32 571.4,36 567.4,36 567.4,40 563.4,40 563.4,44 559.4,44 559.4,47.9 555.4,47.9 555.4,51.9 
	551.4,51.9 551.4,47.9 547.4,47.9 547.4,44 543.4,44 543.4,40 539.4,40 539.4,36 535.4,36 535.4,32 531.4,32 531.4,28 527.4,28 
	527.4,32 527.4,36 531.4,36 531.4,40 535.4,40 535.4,44 539.4,44 539.4,47.9 543.4,47.9 543.4,51.9 547.4,51.9 547.4,55.9 
	551.4,55.9 551.4,59.9 555.4,59.9 555.4,55.9 559.4,55.9 559.4,51.9 563.4,51.9 563.4,47.9 567.4,47.9 567.4,44 571.4,44 571.4,40 
	575.4,40 575.4,36 575.4,32 "/>
<polygon class="st2" points="571.4,40 571.4,44 567.4,44 567.4,47.9 563.4,47.9 563.4,51.9 559.4,51.9 559.4,55.9 555.4,55.9 
	555.4,59.9 551.4,59.9 551.4,55.9 547.4,55.9 547.4,51.9 543.4,51.9 543.4,47.9 539.4,47.9 539.4,44 535.4,44 535.4,40 531.4,40 
	531.4,36 527.4,36 527.4,40 527.4,44 531.4,44 531.4,47.9 535.4,47.9 535.4,51.9 539.4,51.9 539.4,55.9 543.4,55.9 543.4,59.9 
	547.4,59.9 547.4,63.9 551.4,63.9 551.4,67.9 555.4,67.9 555.4,63.9 559.4,63.9 559.4,59.9 563.4,59.9 563.4,55.9 567.4,55.9 
	567.4,51.9 571.4,51.9 571.4,47.9 575.4,47.9 575.4,44 575.4,40 "/>
<polygon class="st0" points="611.3,32 607.3,32 607.3,36 603.3,36 603.3,40 599.3,40 599.3,36 595.3,36 595.3,32 591.3,32 587.3,32 
	587.3,36 591.3,36 591.3,40 595.3,40 595.3,44 599.3,44 599.3,47.9 603.3,47.9 603.3,44 607.3,44 607.3,40 611.3,40 611.3,36 
	615.3,36 615.3,32 "/>
<polygon class="st1" points="619.3,32 619.3,36 615.3,36 615.3,40 611.3,40 611.3,44 607.3,44 607.3,47.9 603.3,47.9 603.3,51.9 
	599.3,51.9 599.3,47.9 595.3,47.9 595.3,44 591.3,44 591.3,40 587.3,40 587.3,36 583.4,36 583.4,32 579.4,32 579.4,28 575.4,28 
	575.4,32 575.4,36 579.4,36 579.4,40 583.4,40 583.4,44 587.3,44 587.3,47.9 591.3,47.9 591.3,51.9 595.3,51.9 595.3,55.9 
	599.3,55.9 599.3,59.9 603.3,59.9 603.3,55.9 607.3,55.9 607.3,51.9 611.3,51.9 611.3,47.9 615.3,47.9 615.3,44 619.3,44 619.3,40 
	623.3,40 623.3,36 623.3,32 "/>
<polygon class="st2" points="619.3,40 619.3,44 615.3,44 615.3,47.9 611.3,47.9 611.3,51.9 607.3,51.9 607.3,55.9 603.3,55.9 
	603.3,59.9 599.3,59.9 599.3,55.9 595.3,55.9 595.3,51.9 591.3,51.9 591.3,47.9 587.3,47.9 587.3,44 583.4,44 583.4,40 579.4,40 
	579.4,36 575.4,36 575.4,40 575.4,44 579.4,44 579.4,47.9 583.4,47.9 583.4,51.9 587.3,51.9 587.3,55.9 591.3,55.9 591.3,59.9 
	595.3,59.9 595.3,63.9 599.3,63.9 599.3,67.9 603.3,67.9 603.3,63.9 607.3,63.9 607.3,59.9 611.3,59.9 611.3,55.9 615.3,55.9 
	615.3,51.9 619.3,51.9 619.3,47.9 623.3,47.9 623.3,44 623.3,40 "/>
<polygon class="st0" points="659.3,32 655.3,32 655.3,36 651.3,36 651.3,40 647.3,40 647.3,36 643.3,36 643.3,32 639.3,32 635.3,32 
	635.3,36 639.3,36 639.3,40 643.3,40 643.3,44 647.3,44 647.3,47.9 651.3,47.9 651.3,44 655.3,44 655.3,40 659.3,40 659.3,36 
	663.3,36 663.3,32 "/>
<polygon class="st1" points="667.3,32 667.3,36 663.3,36 663.3,40 659.3,40 659.3,44 655.3,44 655.3,47.9 651.3,47.9 651.3,51.9 
	647.3,51.9 647.3,47.9 643.3,47.9 643.3,44 639.3,44 639.3,40 635.3,40 635.3,36 631.3,36 631.3,32 627.3,32 627.3,28 623.3,28 
	623.3,32 623.3,36 627.3,36 627.3,40 631.3,40 631.3,44 635.3,44 635.3,47.9 639.3,47.9 639.3,51.9 643.3,51.9 643.3,55.9 
	647.3,55.9 647.3,59.9 651.3,59.9 651.3,55.9 655.3,55.9 655.3,51.9 659.3,51.9 659.3,47.9 663.3,47.9 663.3,44 667.3,44 667.3,40 
	671.3,40 671.3,36 671.3,32 "/>
<polygon class="st2" points="667.3,40 667.3,44 663.3,44 663.3,47.9 659.3,47.9 659.3,51.9 655.3,51.9 655.3,55.9 651.3,55.9 
	651.3,59.9 647.3,59.9 647.3,55.9 643.3,55.9 643.3,51.9 639.3,51.9 639.3,47.9 635.3,47.9 635.3,44 631.3,44 631.3,40 627.3,40 
	627.3,36 623.3,36 623.3,40 623.3,44 627.3,44 627.3,47.9 631.3,47.9 631.3,51.9 635.3,51.9 635.3,55.9 639.3,55.9 639.3,59.9 
	643.3,59.9 643.3,63.9 647.3,63.9 647.3,67.9 651.3,67.9 651.3,63.9 655.3,63.9 655.3,59.9 659.3,59.9 659.3,55.9 663.3,55.9 
	663.3,51.9 667.3,51.9 667.3,47.9 671.3,47.9 671.3,44 671.3,40 "/>
<polygon class="st0" points="707.2,32 703.2,32 703.2,36 699.2,36 699.2,40 695.2,40 695.2,36 691.2,36 691.2,32 687.2,32 683.2,32 
	683.2,36 687.2,36 687.2,40 691.2,40 691.2,44 695.2,44 695.2,47.9 699.2,47.9 699.2,44 703.2,44 703.2,40 707.2,40 707.2,36 
	711.2,36 711.2,32 "/>
<polygon class="st1" points="715.2,32 715.2,36 711.2,36 711.2,40 707.2,40 707.2,44 703.2,44 703.2,47.9 699.2,47.9 699.2,51.9 
	695.2,51.9 695.2,47.9 691.2,47.9 691.2,44 687.2,44 687.2,40 683.2,40 683.2,36 679.2,36 679.2,32 675.3,32 675.3,28 671.3,28 
	671.3,32 671.3,36 675.3,36 675.3,40 679.2,40 679.2,44 683.2,44 683.2,47.9 687.2,47.9 687.2,51.9 691.2,51.9 691.2,55.9 
	695.2,55.9 695.2,59.9 699.2,59.9 699.2,55.9 703.2,55.9 703.2,51.9 707.2,51.9 707.2,47.9 711.2,47.9 711.2,44 715.2,44 715.2,40 
	719.2,40 719.2,36 719.2,32 "/>
<polygon class="st2" points="715.2,40 715.2,44 711.2,44 711.2,47.9 707.2,47.9 707.2,51.9 703.2,51.9 703.2,55.9 699.2,55.9 
	699.2,59.9 695.2,59.9 695.2,55.9 691.2,55.9 691.2,51.9 687.2,51.9 687.2,47.9 683.2,47.9 683.2,44 679.2,44 679.2,40 675.3,40 
	675.3,36 671.3,36 671.3,40 671.3,44 675.3,44 675.3,47.9 679.2,47.9 679.2,51.9 683.2,51.9 683.2,55.9 687.2,55.9 687.2,59.9 
	691.2,59.9 691.2,63.9 695.2,63.9 695.2,67.9 699.2,67.9 699.2,63.9 703.2,63.9 703.2,59.9 707.2,59.9 707.2,55.9 711.2,55.9 
	711.2,51.9 715.2,51.9 715.2,47.9 719.2,47.9 719.2,44 719.2,40 "/>
<polygon class="st0" points="755.2,32 751.2,32 751.2,36 747.2,36 747.2,40 743.2,40 743.2,36 739.2,36 739.2,32 735.2,32 731.2,32 
	731.2,36 735.2,36 735.2,40 739.2,40 739.2,44 743.2,44 743.2,47.9 747.2,47.9 747.2,44 751.2,44 751.2,40 755.2,40 755.2,36 
	759.2,36 759.2,32 "/>
<polygon class="st1" points="763.2,32 763.2,36 759.2,36 759.2,40 755.2,40 755.2,44 751.2,44 751.2,47.9 747.2,47.9 747.2,51.9 
	743.2,51.9 743.2,47.9 739.2,47.9 739.2,44 735.2,44 735.2,40 731.2,40 731.2,36 727.2,36 727.2,32 723.2,32 723.2,28 719.2,28 
	719.2,32 719.2,36 723.2,36 723.2,40 727.2,40 727.2,44 731.2,44 731.2,47.9 735.2,47.9 735.2,51.9 739.2,51.9 739.2,55.9 
	743.2,55.9 743.2,59.9 747.2,59.9 747.2,55.9 751.2,55.9 751.2,51.9 755.2,51.9 755.2,47.9 759.2,47.9 759.2,44 763.2,44 763.2,40 
	767.1,40 767.1,36 767.1,32 "/>
<polygon class="st2" points="763.2,40 763.2,44 759.2,44 759.2,47.9 755.2,47.9 755.2,51.9 751.2,51.9 751.2,55.9 747.2,55.9 
	747.2,59.9 743.2,59.9 743.2,55.9 739.2,55.9 739.2,51.9 735.2,51.9 735.2,47.9 731.2,47.9 731.2,44 727.2,44 727.2,40 723.2,40 
	723.2,36 719.2,36 719.2,40 719.2,44 723.2,44 723.2,47.9 727.2,47.9 727.2,51.9 731.2,51.9 731.2,55.9 735.2,55.9 735.2,59.9 
	739.2,59.9 739.2,63.9 743.2,63.9 743.2,67.9 747.2,67.9 747.2,63.9 751.2,63.9 751.2,59.9 755.2,59.9 755.2,55.9 759.2,55.9 
	759.2,51.9 763.2,51.9 763.2,47.9 767.1,47.9 767.1,44 767.1,40 "/>
<polygon class="st0" points="803.1,32 799.1,32 799.1,36 795.1,36 795.1,40 791.1,40 791.1,36 787.1,36 787.1,32 783.1,32 779.1,32 
	779.1,36 783.1,36 783.1,40 787.1,40 787.1,44 791.1,44 791.1,47.9 795.1,47.9 795.1,44 799.1,44 799.1,40 803.1,40 803.1,36 
	807.1,36 807.1,32 "/>
<polygon class="st1" points="811.1,32 811.1,36 807.1,36 807.1,40 803.1,40 803.1,44 799.1,44 799.1,47.9 795.1,47.9 795.1,51.9 
	791.1,51.9 791.1,47.9 787.1,47.9 787.1,44 783.1,44 783.1,40 779.1,40 779.1,36 775.1,36 775.1,32 771.1,32 771.1,28 767.1,28 
	767.1,32 767.1,36 771.1,36 771.1,40 775.1,40 775.1,44 779.1,44 779.1,47.9 783.1,47.9 783.1,51.9 787.1,51.9 787.1,55.9 
	791.1,55.9 791.1,59.9 795.1,59.9 795.1,55.9 799.1,55.9 799.1,51.9 803.1,51.9 803.1,47.9 807.1,47.9 807.1,44 811.1,44 811.1,40 
	815.1,40 815.1,36 815.1,32 "/>
<polygon class="st2" points="811.1,40 811.1,44 807.1,44 807.1,47.9 803.1,47.9 803.1,51.9 799.1,51.9 799.1,55.9 795.1,55.9 
	795.1,59.9 791.1,59.9 791.1,55.9 787.1,55.9 787.1,51.9 783.1,51.9 783.1,47.9 779.1,47.9 779.1,44 775.1,44 775.1,40 771.1,40 
	771.1,36 767.1,36 767.1,40 767.1,44 771.1,44 771.1,47.9 775.1,47.9 775.1,51.9 779.1,51.9 779.1,55.9 783.1,55.9 783.1,59.9 
	787.1,59.9 787.1,63.9 791.1,63.9 791.1,67.9 795.1,67.9 795.1,63.9 799.1,63.9 799.1,59.9 803.1,59.9 803.1,55.9 807.1,55.9 
	807.1,51.9 811.1,51.9 811.1,47.9 815.1,47.9 815.1,44 815.1,40 "/>
<polygon class="st0" points="851.1,32 847.1,32 847.1,36 843.1,36 843.1,40 839.1,40 839.1,36 835.1,36 835.1,32 831.1,32 827.1,32 
	827.1,36 831.1,36 831.1,40 835.1,40 835.1,44 839.1,44 839.1,47.9 843.1,47.9 843.1,44 847.1,44 847.1,40 851.1,40 851.1,36 
	855.1,36 855.1,32 "/>
<polygon class="st1" points="859,32 859,36 855.1,36 855.1,40 851.1,40 851.1,44 847.1,44 847.1,47.9 843.1,47.9 843.1,51.9 
	839.1,51.9 839.1,47.9 835.1,47.9 835.1,44 831.1,44 831.1,40 827.1,40 827.1,36 823.1,36 823.1,32 819.1,32 819.1,28 815.1,28 
	815.1,32 815.1,36 819.1,36 819.1,40 823.1,40 823.1,44 827.1,44 827.1,47.9 831.1,47.9 831.1,51.9 835.1,51.9 835.1,55.9 
	839.1,55.9 839.1,59.9 843.1,59.9 843.1,55.9 847.1,55.9 847.1,51.9 851.1,51.9 851.1,47.9 855.1,47.9 855.1,44 859,44 859,40 
	863,40 863,36 863,32 "/>
<polygon class="st2" points="859,40 859,44 855.1,44 855.1,47.9 851.1,47.9 851.1,51.9 847.1,51.9 847.1,55.9 843.1,55.9 
	843.1,59.9 839.1,59.9 839.1,55.9 835.1,55.9 835.1,51.9 831.1,51.9 831.1,47.9 827.1,47.9 827.1,44 823.1,44 823.1,40 819.1,40 
	819.1,36 815.1,36 815.1,40 815.1,44 819.1,44 819.1,47.9 823.1,47.9 823.1,51.9 827.1,51.9 827.1,55.9 831.1,55.9 831.1,59.9 
	835.1,59.9 835.1,63.9 839.1,63.9 839.1,67.9 843.1,67.9 843.1,63.9 847.1,63.9 847.1,59.9 851.1,59.9 851.1,55.9 855.1,55.9 
	855.1,51.9 859,51.9 859,47.9 863,47.9 863,44 863,40 "/>
<polygon class="st0" points="899,32 895,32 895,36 891,36 891,40 887,40 887,36 883,36 883,32 879,32 875,32 875,36 879,36 879,40 
	883,40 883,44 887,44 887,47.9 891,47.9 891,44 895,44 895,40 899,40 899,36 903,36 903,32 "/>
<polygon class="st1" points="907,32 907,36 903,36 903,40 899,40 899,44 895,44 895,47.9 891,47.9 891,51.9 887,51.9 887,47.9 
	883,47.9 883,44 879,44 879,40 875,40 875,36 871,36 871,32 867,32 867,28 863,28 863,32 863,36 867,36 867,40 871,40 871,44 
	875,44 875,47.9 879,47.9 879,51.9 883,51.9 883,55.9 887,55.9 887,59.9 891,59.9 891,55.9 895,55.9 895,51.9 899,51.9 899,47.9 
	903,47.9 903,44 907,44 907,40 911,40 911,36 911,32 "/>
<polygon class="st2" points="907,40 907,44 903,44 903,47.9 899,47.9 899,51.9 895,51.9 895,55.9 891,55.9 891,59.9 887,59.9 
	887,55.9 883,55.9 883,51.9 879,51.9 879,47.9 875,47.9 875,44 871,44 871,40 867,40 867,36 863,36 863,40 863,44 867,44 867,47.9 
	871,47.9 871,51.9 875,51.9 875,55.9 879,55.9 879,59.9 883,59.9 883,63.9 887,63.9 887,67.9 891,67.9 891,63.9 895,63.9 895,59.9 
	899,59.9 899,55.9 903,55.9 903,51.9 907,51.9 907,47.9 911,47.9 911,44 911,40 "/>
<polygon class="st0" points="947,32 943,32 943,36 939,36 939,40 935,40 935,36 931,36 931,32 927,32 923,32 923,36 927,36 927,40 
	931,40 931,44 935,44 935,47.9 939,47.9 939,44 943,44 943,40 947,40 947,36 950.9,36 950.9,32 "/>
<polygon class="st1" points="954.9,32 954.9,36 950.9,36 950.9,40 947,40 947,44 943,44 943,47.9 939,47.9 939,51.9 935,51.9 
	935,47.9 931,47.9 931,44 927,44 927,40 923,40 923,36 919,36 919,32 915,32 915,28 911,28 911,32 911,36 915,36 915,40 919,40 
	919,44 923,44 923,47.9 927,47.9 927,51.9 931,51.9 931,55.9 935,55.9 935,59.9 939,59.9 939,55.9 943,55.9 943,51.9 947,51.9 
	947,47.9 950.9,47.9 950.9,44 954.9,44 954.9,40 958.9,40 958.9,36 958.9,32 "/>
<polygon class="st2" points="954.9,40 954.9,44 950.9,44 950.9,47.9 947,47.9 947,51.9 943,51.9 943,55.9 939,55.9 939,59.9 
	935,59.9 935,55.9 931,55.9 931,51.9 927,51.9 927,47.9 923,47.9 923,44 919,44 919,40 915,40 915,36 911,36 911,40 911,44 915,44 
	915,47.9 919,47.9 919,51.9 923,51.9 923,55.9 927,55.9 927,59.9 931,59.9 931,63.9 935,63.9 935,67.9 939,67.9 939,63.9 943,63.9 
	943,59.9 947,59.9 947,55.9 950.9,55.9 950.9,51.9 954.9,51.9 954.9,47.9 958.9,47.9 958.9,44 958.9,40 "/>
<polygon class="st0" points="994.9,32 990.9,32 990.9,36 986.9,36 986.9,40 982.9,40 982.9,36 978.9,36 978.9,32 974.9,32 970.9,32 
	970.9,36 974.9,36 974.9,40 978.9,40 978.9,44 982.9,44 982.9,47.9 986.9,47.9 986.9,44 990.9,44 990.9,40 994.9,40 994.9,36 
	998.9,36 998.9,32 "/>
<polygon class="st1" points="1002.9,32 1002.9,36 998.9,36 998.9,40 994.9,40 994.9,44 990.9,44 990.9,47.9 986.9,47.9 986.9,51.9 
	982.9,51.9 982.9,47.9 978.9,47.9 978.9,44 974.9,44 974.9,40 970.9,40 970.9,36 966.9,36 966.9,32 962.9,32 962.9,28 958.9,28 
	958.9,32 958.9,36 962.9,36 962.9,40 966.9,40 966.9,44 970.9,44 970.9,47.9 974.9,47.9 974.9,51.9 978.9,51.9 978.9,55.9 
	982.9,55.9 982.9,59.9 986.9,59.9 986.9,55.9 990.9,55.9 990.9,51.9 994.9,51.9 994.9,47.9 998.9,47.9 998.9,44 1002.9,44 
	1002.9,40 1006.9,40 1006.9,36 1006.9,32 "/>
<polygon class="st2" points="1002.9,40 1002.9,44 998.9,44 998.9,47.9 994.9,47.9 994.9,51.9 990.9,51.9 990.9,55.9 986.9,55.9 
	986.9,59.9 982.9,59.9 982.9,55.9 978.9,55.9 978.9,51.9 974.9,51.9 974.9,47.9 970.9,47.9 970.9,44 966.9,44 966.9,40 962.9,40 
	962.9,36 958.9,36 958.9,40 958.9,44 962.9,44 962.9,47.9 966.9,47.9 966.9,51.9 970.9,51.9 970.9,55.9 974.9,55.9 974.9,59.9 
	978.9,59.9 978.9,63.9 982.9,63.9 982.9,67.9 986.9,67.9 986.9,63.9 990.9,63.9 990.9,59.9 994.9,59.9 994.9,55.9 998.9,55.9 
	998.9,51.9 1002.9,51.9 1002.9,47.9 1006.9,47.9 1006.9,44 1006.9,40 "/>
<polygon class="st0" points="1042.8,32 1038.8,32 1038.8,36 1034.9,36 1034.9,40 1030.9,40 1030.9,36 1026.9,36 1026.9,32 
	1022.9,32 1018.9,32 1018.9,36 1022.9,36 1022.9,40 1026.9,40 1026.9,44 1030.9,44 1030.9,47.9 1034.9,47.9 1034.9,44 1038.8,44 
	1038.8,40 1042.8,40 1042.8,36 1046.8,36 1046.8,32 "/>
<polygon class="st1" points="1050.8,32 1050.8,36 1046.8,36 1046.8,40 1042.8,40 1042.8,44 1038.8,44 1038.8,47.9 1034.9,47.9 
	1034.9,51.9 1030.9,51.9 1030.9,47.9 1026.9,47.9 1026.9,44 1022.9,44 1022.9,40 1018.9,40 1018.9,36 1014.9,36 1014.9,32 
	1010.9,32 1010.9,28 1006.9,28 1006.9,32 1006.9,36 1010.9,36 1010.9,40 1014.9,40 1014.9,44 1018.9,44 1018.9,47.9 1022.9,47.9 
	1022.9,51.9 1026.9,51.9 1026.9,55.9 1030.9,55.9 1030.9,59.9 1034.9,59.9 1034.9,55.9 1038.8,55.9 1038.8,51.9 1042.8,51.9 
	1042.8,47.9 1046.8,47.9 1046.8,44 1050.8,44 1050.8,40 1054.8,40 1054.8,36 1054.8,32 "/>
<polygon class="st2" points="1050.8,40 1050.8,44 1046.8,44 1046.8,47.9 1042.8,47.9 1042.8,51.9 1038.8,51.9 1038.8,55.9 
	1034.9,55.9 1034.9,59.9 1030.9,59.9 1030.9,55.9 1026.9,55.9 1026.9,51.9 1022.9,51.9 1022.9,47.9 1018.9,47.9 1018.9,44 
	1014.9,44 1014.9,40 1010.9,40 1010.9,36 1006.9,36 1006.9,40 1006.9,44 1010.9,44 1010.9,47.9 1014.9,47.9 1014.9,51.9 
	1018.9,51.9 1018.9,55.9 1022.9,55.9 1022.9,59.9 1026.9,59.9 1026.9,63.9 1030.9,63.9 1030.9,67.9 1034.9,67.9 1034.9,63.9 
	1038.8,63.9 1038.8,59.9 1042.8,59.9 1042.8,55.9 1046.8,55.9 1046.8,51.9 1050.8,51.9 1050.8,47.9 1054.8,47.9 1054.8,44 
	1054.8,40 "/>
<polygon class="st0" points="1090.8,32 1086.8,32 1086.8,36 1082.8,36 1082.8,40 1078.8,40 1078.8,36 1074.8,36 1074.8,32 
	1070.8,32 1066.8,32 1066.8,36 1070.8,36 1070.8,40 1074.8,40 1074.8,44 1078.8,44 1078.8,47.9 1082.8,47.9 1082.8,44 1086.8,44 
	1086.8,40 1090.8,40 1090.8,36 1094.8,36 1094.8,32 "/>
<polygon class="st1" points="1098.8,32 1098.8,36 1094.8,36 1094.8,40 1090.8,40 1090.8,44 1086.8,44 1086.8,47.9 1082.8,47.9 
	1082.8,51.9 1078.8,51.9 1078.8,47.9 1074.8,47.9 1074.8,44 1070.8,44 1070.8,40 1066.8,40 1066.8,36 1062.8,36 1062.8,32 
	1058.8,32 1058.8,28 1054.8,28 1054.8,32 1054.8,36 1058.8,36 1058.8,40 1062.8,40 1062.8,44 1066.8,44 1066.8,47.9 1070.8,47.9 
	1070.8,51.9 1074.8,51.9 1074.8,55.9 1078.8,55.9 1078.8,59.9 1082.8,59.9 1082.8,55.9 1086.8,55.9 1086.8,51.9 1090.8,51.9 
	1090.8,47.9 1094.8,47.9 1094.8,44 1098.8,44 1098.8,40 1102.8,40 1102.8,36 1102.8,32 "/>
<polygon class="st2" points="1098.8,40 1098.8,44 1094.8,44 1094.8,47.9 1090.8,47.9 1090.8,51.9 1086.8,51.9 1086.8,55.9 
	1082.8,55.9 1082.8,59.9 1078.8,59.9 1078.8,55.9 1074.8,55.9 1074.8,51.9 1070.8,51.9 1070.8,47.9 1066.8,47.9 1066.8,44 
	1062.8,44 1062.8,40 1058.8,40 1058.8,36 1054.8,36 1054.8,40 1054.8,44 1058.8,44 1058.8,47.9 1062.8,47.9 1062.8,51.9 
	1066.8,51.9 1066.8,55.9 1070.8,55.9 1070.8,59.9 1074.8,59.9 1074.8,63.9 1078.8,63.9 1078.8,67.9 1082.8,67.9 1082.8,63.9 
	1086.8,63.9 1086.8,59.9 1090.8,59.9 1090.8,55.9 1094.8,55.9 1094.8,51.9 1098.8,51.9 1098.8,47.9 1102.8,47.9 1102.8,44 
	1102.8,40 "/>
<polygon class="st0" points="1138.7,32 1134.7,32 1134.7,36 1130.7,36 1130.7,40 1126.8,40 1126.8,36 1122.8,36 1122.8,32 
	1118.8,32 1114.8,32 1114.8,36 1118.8,36 1118.8,40 1122.8,40 1122.8,44 1126.8,44 1126.8,47.9 1130.7,47.9 1130.7,44 1134.7,44 
	1134.7,40 1138.7,40 1138.7,36 1142.7,36 1142.7,32 "/>
<polygon class="st1" points="1146.7,32 1146.7,36 1142.7,36 1142.7,40 1138.7,40 1138.7,44 1134.7,44 1134.7,47.9 1130.7,47.9 
	1130.7,51.9 1126.8,51.9 1126.8,47.9 1122.8,47.9 1122.8,44 1118.8,44 1118.8,40 1114.8,40 1114.8,36 1110.8,36 1110.8,32 
	1106.8,32 1106.8,28 1102.8,28 1102.8,32 1102.8,36 1106.8,36 1106.8,40 1110.8,40 1110.8,44 1114.8,44 1114.8,47.9 1118.8,47.9 
	1118.8,51.9 1122.8,51.9 1122.8,55.9 1126.8,55.9 1126.8,59.9 1130.7,59.9 1130.7,55.9 1134.7,55.9 1134.7,51.9 1138.7,51.9 
	1138.7,47.9 1142.7,47.9 1142.7,44 1146.7,44 1146.7,40 1150.7,40 1150.7,36 1150.7,32 "/>
<polygon class="st2" points="1146.7,40 1146.7,44 1142.7,44 1142.7,47.9 1138.7,47.9 1138.7,51.9 1134.7,51.9 1134.7,55.9 
	1130.7,55.9 1130.7,59.9 1126.8,59.9 1126.8,55.9 1122.8,55.9 1122.8,51.9 1118.8,51.9 1118.8,47.9 1114.8,47.9 1114.8,44 
	1110.8,44 1110.8,40 1106.8,40 1106.8,36 1102.8,36 1102.8,40 1102.8,44 1106.8,44 1106.8,47.9 1110.8,47.9 1110.8,51.9 
	1114.8,51.9 1114.8,55.9 1118.8,55.9 1118.8,59.9 1122.8,59.9 1122.8,63.9 1126.8,63.9 1126.8,67.9 1130.7,67.9 1130.7,63.9 
	1134.7,63.9 1134.7,59.9 1138.7,59.9 1138.7,55.9 1142.7,55.9 1142.7,51.9 1146.7,51.9 1146.7,47.9 1150.7,47.9 1150.7,44 
	1150.7,40 "/>
<polygon class="st0" points="1186.7,32 1182.7,32 1182.7,36 1178.7,36 1178.7,40 1174.7,40 1174.7,36 1170.7,36 1170.7,32 
	1166.7,32 1162.7,32 1162.7,36 1166.7,36 1166.7,40 1170.7,40 1170.7,44 1174.7,44 1174.7,47.9 1178.7,47.9 1178.7,44 1182.7,44 
	1182.7,40 1186.7,40 1186.7,36 1190.7,36 1190.7,32 "/>
<polygon class="st1" points="1194.7,32 1194.7,36 1190.7,36 1190.7,40 1186.7,40 1186.7,44 1182.7,44 1182.7,47.9 1178.7,47.9 
	1178.7,51.9 1174.7,51.9 1174.7,47.9 1170.7,47.9 1170.7,44 1166.7,44 1166.7,40 1162.7,40 1162.7,36 1158.7,36 1158.7,32 
	1154.7,32 1154.7,28 1150.7,28 1150.7,32 1150.7,36 1154.7,36 1154.7,40 1158.7,40 1158.7,44 1162.7,44 1162.7,47.9 1166.7,47.9 
	1166.7,51.9 1170.7,51.9 1170.7,55.9 1174.7,55.9 1174.7,59.9 1178.7,59.9 1178.7,55.9 1182.7,55.9 1182.7,51.9 1186.7,51.9 
	1186.7,47.9 1190.7,47.9 1190.7,44 1194.7,44 1194.7,40 1198.7,40 1198.7,36 1198.7,32 "/>
<polygon class="st2" points="1194.7,40 1194.7,44 1190.7,44 1190.7,47.9 1186.7,47.9 1186.7,51.9 1182.7,51.9 1182.7,55.9 
	1178.7,55.9 1178.7,59.9 1174.7,59.9 1174.7,55.9 1170.7,55.9 1170.7,51.9 1166.7,51.9 1166.7,47.9 1162.7,47.9 1162.7,44 
	1158.7,44 1158.7,40 1154.7,40 1154.7,36 1150.7,36 1150.7,40 1150.7,44 1154.7,44 1154.7,47.9 1158.7,47.9 1158.7,51.9 
	1162.7,51.9 1162.7,55.9 1166.7,55.9 1166.7,59.9 1170.7,59.9 1170.7,63.9 1174.7,63.9 1174.7,67.9 1178.7,67.9 1178.7,63.9 
	1182.7,63.9 1182.7,59.9 1186.7,59.9 1186.7,55.9 1190.7,55.9 1190.7,51.9 1194.7,51.9 1194.7,47.9 1198.7,47.9 1198.7,44 
	1198.7,40 "/>
<polygon class="st0" points="1234.6,32 1230.6,32 1230.6,36 1226.6,36 1226.6,40 1222.6,40 1222.6,36 1218.6,36 1218.6,32 
	1214.7,32 1210.7,32 1210.7,36 1214.7,36 1214.7,40 1218.6,40 1218.6,44 1222.6,44 1222.6,47.9 1226.6,47.9 1226.6,44 1230.6,44 
	1230.6,40 1234.6,40 1234.6,36 1238.6,36 1238.6,32 "/>
<polygon class="st1" points="1242.6,32 1242.6,36 1238.6,36 1238.6,40 1234.6,40 1234.6,44 1230.6,44 1230.6,47.9 1226.6,47.9 
	1226.6,51.9 1222.6,51.9 1222.6,47.9 1218.6,47.9 1218.6,44 1214.7,44 1214.7,40 1210.7,40 1210.7,36 1206.7,36 1206.7,32 
	1202.7,32 1202.7,28 1198.7,28 1198.7,32 1198.7,36 1202.7,36 1202.7,40 1206.7,40 1206.7,44 1210.7,44 1210.7,47.9 1214.7,47.9 
	1214.7,51.9 1218.6,51.9 1218.6,55.9 1222.6,55.9 1222.6,59.9 1226.6,59.9 1226.6,55.9 1230.6,55.9 1230.6,51.9 1234.6,51.9 
	1234.6,47.9 1238.6,47.9 1238.6,44 1242.6,44 1242.6,40 1246.6,40 1246.6,36 1246.6,32 "/>
<polygon class="st2" points="1242.6,40 1242.6,44 1238.6,44 1238.6,47.9 1234.6,47.9 1234.6,51.9 1230.6,51.9 1230.6,55.9 
	1226.6,55.9 1226.6,59.9 1222.6,59.9 1222.6,55.9 1218.6,55.9 1218.6,51.9 1214.7,51.9 1214.7,47.9 1210.7,47.9 1210.7,44 
	1206.7,44 1206.7,40 1202.7,40 1202.7,36 1198.7,36 1198.7,40 1198.7,44 1202.7,44 1202.7,47.9 1206.7,47.9 1206.7,51.9 
	1210.7,51.9 1210.7,55.9 1214.7,55.9 1214.7,59.9 1218.6,59.9 1218.6,63.9 1222.6,63.9 1222.6,67.9 1226.6,67.9 1226.6,63.9 
	1230.6,63.9 1230.6,59.9 1234.6,59.9 1234.6,55.9 1238.6,55.9 1238.6,51.9 1242.6,51.9 1242.6,47.9 1246.6,47.9 1246.6,44 
	1246.6,40 "/>
<polygon class="st0" points="1282.6,32 1278.6,32 1278.6,36 1274.6,36 1274.6,40 1270.6,40 1270.6,36 1266.6,36 1266.6,32 
	1262.6,32 1258.6,32 1258.6,36 1262.6,36 1262.6,40 1266.6,40 1266.6,44 1270.6,44 1270.6,47.9 1274.6,47.9 1274.6,44 1278.6,44 
	1278.6,40 1282.6,40 1282.6,36 1286.6,36 1286.6,32 "/>
<polygon class="st1" points="1290.6,32 1290.6,36 1286.6,36 1286.6,40 1282.6,40 1282.6,44 1278.6,44 1278.6,47.9 1274.6,47.9 
	1274.6,51.9 1270.6,51.9 1270.6,47.9 1266.6,47.9 1266.6,44 1262.6,44 1262.6,40 1258.6,40 1258.6,36 1254.6,36 1254.6,32 
	1250.6,32 1250.6,28 1246.6,28 1246.6,32 1246.6,36 1250.6,36 1250.6,40 1254.6,40 1254.6,44 1258.6,44 1258.6,47.9 1262.6,47.9 
	1262.6,51.9 1266.6,51.9 1266.6,55.9 1270.6,55.9 1270.6,59.9 1274.6,59.9 1274.6,55.9 1278.6,55.9 1278.6,51.9 1282.6,51.9 
	1282.6,47.9 1286.6,47.9 1286.6,44 1290.6,44 1290.6,40 1294.6,40 1294.6,36 1294.6,32 "/>
<polygon class="st2" points="1290.6,40 1290.6,44 1286.6,44 1286.6,47.9 1282.6,47.9 1282.6,51.9 1278.6,51.9 1278.6,55.9 
	1274.6,55.9 1274.6,59.9 1270.6,59.9 1270.6,55.9 1266.6,55.9 1266.6,51.9 1262.6,51.9 1262.6,47.9 1258.6,47.9 1258.6,44 
	1254.6,44 1254.6,40 1250.6,40 1250.6,36 1246.6,36 1246.6,40 1246.6,44 1250.6,44 1250.6,47.9 1254.6,47.9 1254.6,51.9 
	1258.6,51.9 1258.6,55.9 1262.6,55.9 1262.6,59.9 1266.6,59.9 1266.6,63.9 1270.6,63.9 1270.6,67.9 1274.6,67.9 1274.6,63.9 
	1278.6,63.9 1278.6,59.9 1282.6,59.9 1282.6,55.9 1286.6,55.9 1286.6,51.9 1290.6,51.9 1290.6,47.9 1294.6,47.9 1294.6,44 
	1294.6,40 "/>
<polygon class="st0" points="1330.5,32 1326.5,32 1326.5,36 1322.5,36 1322.5,40 1318.5,40 1318.5,36 1314.5,36 1314.5,32 
	1310.5,32 1306.6,32 1306.6,36 1310.5,36 1310.5,40 1314.5,40 1314.5,44 1318.5,44 1318.5,47.9 1322.5,47.9 1322.5,44 1326.5,44 
	1326.5,40 1330.5,40 1330.5,36 1334.5,36 1334.5,32 "/>
<polygon class="st1" points="1338.5,32 1338.5,36 1334.5,36 1334.5,40 1330.5,40 1330.5,44 1326.5,44 1326.5,47.9 1322.5,47.9 
	1322.5,51.9 1318.5,51.9 1318.5,47.9 1314.5,47.9 1314.5,44 1310.5,44 1310.5,40 1306.6,40 1306.6,36 1302.6,36 1302.6,32 
	1298.6,32 1298.6,28 1294.6,28 1294.6,32 1294.6,36 1298.6,36 1298.6,40 1302.6,40 1302.6,44 1306.6,44 1306.6,47.9 1310.5,47.9 
	1310.5,51.9 1314.5,51.9 1314.5,55.9 1318.5,55.9 1318.5,59.9 1322.5,59.9 1322.5,55.9 1326.5,55.9 1326.5,51.9 1330.5,51.9 
	1330.5,47.9 1334.5,47.9 1334.5,44 1338.5,44 1338.5,40 1342.5,40 1342.5,36 1342.5,32 "/>
<polygon class="st2" points="1338.5,40 1338.5,44 1334.5,44 1334.5,47.9 1330.5,47.9 1330.5,51.9 1326.5,51.9 1326.5,55.9 
	1322.5,55.9 1322.5,59.9 1318.5,59.9 1318.5,55.9 1314.5,55.9 1314.5,51.9 1310.5,51.9 1310.5,47.9 1306.6,47.9 1306.6,44 
	1302.6,44 1302.6,40 1298.6,40 1298.6,36 1294.6,36 1294.6,40 1294.6,44 1298.6,44 1298.6,47.9 1302.6,47.9 1302.6,51.9 
	1306.6,51.9 1306.6,55.9 1310.5,55.9 1310.5,59.9 1314.5,59.9 1314.5,63.9 1318.5,63.9 1318.5,67.9 1322.5,67.9 1322.5,63.9 
	1326.5,63.9 1326.5,59.9 1330.5,59.9 1330.5,55.9 1334.5,55.9 1334.5,51.9 1338.5,51.9 1338.5,47.9 1342.5,47.9 1342.5,44 
	1342.5,40 "/>
<polygon class="st0" points="1378.5,32 1374.5,32 1374.5,36 1370.5,36 1370.5,40 1366.5,40 1366.5,36 1362.5,36 1362.5,32 
	1358.5,32 1354.5,32 1354.5,36 1358.5,36 1358.5,40 1362.5,40 1362.5,44 1366.5,44 1366.5,47.9 1370.5,47.9 1370.5,44 1374.5,44 
	1374.5,40 1378.5,40 1378.5,36 1382.5,36 1382.5,32 "/>
<polygon class="st1" points="1386.5,32 1386.5,36 1382.5,36 1382.5,40 1378.5,40 1378.5,44 1374.5,44 1374.5,47.9 1370.5,47.9 
	1370.5,51.9 1366.5,51.9 1366.5,47.9 1362.5,47.9 1362.5,44 1358.5,44 1358.5,40 1354.5,40 1354.5,36 1350.5,36 1350.5,32 
	1346.5,32 1346.5,28 1342.5,28 1342.5,32 1342.5,36 1346.5,36 1346.5,40 1350.5,40 1350.5,44 1354.5,44 1354.5,47.9 1358.5,47.9 
	1358.5,51.9 1362.5,51.9 1362.5,55.9 1366.5,55.9 1366.5,59.9 1370.5,59.9 1370.5,55.9 1374.5,55.9 1374.5,51.9 1378.5,51.9 
	1378.5,47.9 1382.5,47.9 1382.5,44 1386.5,44 1386.5,40 1390.5,40 1390.5,36 1390.5,32 "/>
<polygon class="st2" points="1386.5,40 1386.5,44 1382.5,44 1382.5,47.9 1378.5,47.9 1378.5,51.9 1374.5,51.9 1374.5,55.9 
	1370.5,55.9 1370.5,59.9 1366.5,59.9 1366.5,55.9 1362.5,55.9 1362.5,51.9 1358.5,51.9 1358.5,47.9 1354.5,47.9 1354.5,44 
	1350.5,44 1350.5,40 1346.5,40 1346.5,36 1342.5,36 1342.5,40 1342.5,44 1346.5,44 1346.5,47.9 1350.5,47.9 1350.5,51.9 
	1354.5,51.9 1354.5,55.9 1358.5,55.9 1358.5,59.9 1362.5,59.9 1362.5,63.9 1366.5,63.9 1366.5,67.9 1370.5,67.9 1370.5,63.9 
	1374.5,63.9 1374.5,59.9 1378.5,59.9 1378.5,55.9 1382.5,55.9 1382.5,51.9 1386.5,51.9 1386.5,47.9 1390.5,47.9 1390.5,44 
	1390.5,40 "/>
<polygon class="st0" points="1426.4,32 1422.4,32 1422.4,36 1418.4,36 1418.4,40 1414.4,40 1414.4,36 1410.4,36 1410.4,32 
	1406.4,32 1402.4,32 1402.4,36 1406.4,36 1406.4,40 1410.4,40 1410.4,44 1414.4,44 1414.4,47.9 1418.4,47.9 1418.4,44 1422.4,44 
	1422.4,40 1426.4,40 1426.4,36 1430.4,36 1430.4,32 "/>
<polygon class="st1" points="1434.4,32 1434.4,36 1430.4,36 1430.4,40 1426.4,40 1426.4,44 1422.4,44 1422.4,47.9 1418.4,47.9 
	1418.4,51.9 1414.4,51.9 1414.4,47.9 1410.4,47.9 1410.4,44 1406.4,44 1406.4,40 1402.4,40 1402.4,36 1398.4,36 1398.4,32 
	1394.5,32 1394.5,28 1390.5,28 1390.5,32 1390.5,36 1394.5,36 1394.5,40 1398.4,40 1398.4,44 1402.4,44 1402.4,47.9 1406.4,47.9 
	1406.4,51.9 1410.4,51.9 1410.4,55.9 1414.4,55.9 1414.4,59.9 1418.4,59.9 1418.4,55.9 1422.4,55.9 1422.4,51.9 1426.4,51.9 
	1426.4,47.9 1430.4,47.9 1430.4,44 1434.4,44 1434.4,40 1438.4,40 1438.4,36 1438.4,32 "/>
<polygon class="st2" points="1434.4,40 1434.4,44 1430.4,44 1430.4,47.9 1426.4,47.9 1426.4,51.9 1422.4,51.9 1422.4,55.9 
	1418.4,55.9 1418.4,59.9 1414.4,59.9 1414.4,55.9 1410.4,55.9 1410.4,51.9 1406.4,51.9 1406.4,47.9 1402.4,47.9 1402.4,44 
	1398.4,44 1398.4,40 1394.5,40 1394.5,36 1390.5,36 1390.5,40 1390.5,44 1394.5,44 1394.5,47.9 1398.4,47.9 1398.4,51.9 
	1402.4,51.9 1402.4,55.9 1406.4,55.9 1406.4,59.9 1410.4,59.9 1410.4,63.9 1414.4,63.9 1414.4,67.9 1418.4,67.9 1418.4,63.9 
	1422.4,63.9 1422.4,59.9 1426.4,59.9 1426.4,55.9 1430.4,55.9 1430.4,51.9 1434.4,51.9 1434.4,47.9 1438.4,47.9 1438.4,44 
	1438.4,40 "/>
<polygon class="st0" points="1474.4,32 1470.4,32 1470.4,36 1466.4,36 1466.4,40 1462.4,40 1462.4,36 1458.4,36 1458.4,32 
	1454.4,32 1450.4,32 1450.4,36 1454.4,36 1454.4,40 1458.4,40 1458.4,44 1462.4,44 1462.4,47.9 1466.4,47.9 1466.4,44 1470.4,44 
	1470.4,40 1474.4,40 1474.4,36 1478.4,36 1478.4,32 "/>
<polygon class="st1" points="1482.4,32 1482.4,36 1478.4,36 1478.4,40 1474.4,40 1474.4,44 1470.4,44 1470.4,47.9 1466.4,47.9 
	1466.4,51.9 1462.4,51.9 1462.4,47.9 1458.4,47.9 1458.4,44 1454.4,44 1454.4,40 1450.4,40 1450.4,36 1446.4,36 1446.4,32 
	1442.4,32 1442.4,28 1438.4,28 1438.4,32 1438.4,36 1442.4,36 1442.4,40 1446.4,40 1446.4,44 1450.4,44 1450.4,47.9 1454.4,47.9 
	1454.4,51.9 1458.4,51.9 1458.4,55.9 1462.4,55.9 1462.4,59.9 1466.4,59.9 1466.4,55.9 1470.4,55.9 1470.4,51.9 1474.4,51.9 
	1474.4,47.9 1478.4,47.9 1478.4,44 1482.4,44 1482.4,40 1486.4,40 1486.4,36 1486.4,32 "/>
<polygon class="st2" points="1482.4,40 1482.4,44 1478.4,44 1478.4,47.9 1474.4,47.9 1474.4,51.9 1470.4,51.9 1470.4,55.9 
	1466.4,55.9 1466.4,59.9 1462.4,59.9 1462.4,55.9 1458.4,55.9 1458.4,51.9 1454.4,51.9 1454.4,47.9 1450.4,47.9 1450.4,44 
	1446.4,44 1446.4,40 1442.4,40 1442.4,36 1438.4,36 1438.4,40 1438.4,44 1442.4,44 1442.4,47.9 1446.4,47.9 1446.4,51.9 
	1450.4,51.9 1450.4,55.9 1454.4,55.9 1454.4,59.9 1458.4,59.9 1458.4,63.9 1462.4,63.9 1462.4,67.9 1466.4,67.9 1466.4,63.9 
	1470.4,63.9 1470.4,59.9 1474.4,59.9 1474.4,55.9 1478.4,55.9 1478.4,51.9 1482.4,51.9 1482.4,47.9 1486.4,47.9 1486.4,44 
	1486.4,40 "/>
<polygon class="st0" points="1522.3,32 1518.3,32 1518.3,36 1514.3,36 1514.3,40 1510.3,40 1510.3,36 1506.3,36 1506.3,32 
	1502.3,32 1498.3,32 1498.3,36 1502.3,36 1502.3,40 1506.3,40 1506.3,44 1510.3,44 1510.3,47.9 1514.3,47.9 1514.3,44 1518.3,44 
	1518.3,40 1522.3,40 1522.3,36 1526.3,36 1526.3,32 "/>
<polygon class="st1" points="1530.3,32 1530.3,36 1526.3,36 1526.3,40 1522.3,40 1522.3,44 1518.3,44 1518.3,47.9 1514.3,47.9 
	1514.3,51.9 1510.3,51.9 1510.3,47.9 1506.3,47.9 1506.3,44 1502.3,44 1502.3,40 1498.3,40 1498.3,36 1494.3,36 1494.3,32 
	1490.3,32 1490.3,28 1486.4,28 1486.4,32 1486.4,36 1490.3,36 1490.3,40 1494.3,40 1494.3,44 1498.3,44 1498.3,47.9 1502.3,47.9 
	1502.3,51.9 1506.3,51.9 1506.3,55.9 1510.3,55.9 1510.3,59.9 1514.3,59.9 1514.3,55.9 1518.3,55.9 1518.3,51.9 1522.3,51.9 
	1522.3,47.9 1526.3,47.9 1526.3,44 1530.3,44 1530.3,40 1534.3,40 1534.3,36 1534.3,32 "/>
<polygon class="st2" points="1530.3,40 1530.3,44 1526.3,44 1526.3,47.9 1522.3,47.9 1522.3,51.9 1518.3,51.9 1518.3,55.9 
	1514.3,55.9 1514.3,59.9 1510.3,59.9 1510.3,55.9 1506.3,55.9 1506.3,51.9 1502.3,51.9 1502.3,47.9 1498.3,47.9 1498.3,44 
	1494.3,44 1494.3,40 1490.3,40 1490.3,36 1486.4,36 1486.4,40 1486.4,44 1490.3,44 1490.3,47.9 1494.3,47.9 1494.3,51.9 
	1498.3,51.9 1498.3,55.9 1502.3,55.9 1502.3,59.9 1506.3,59.9 1506.3,63.9 1510.3,63.9 1510.3,67.9 1514.3,67.9 1514.3,63.9 
	1518.3,63.9 1518.3,59.9 1522.3,59.9 1522.3,55.9 1526.3,55.9 1526.3,51.9 1530.3,51.9 1530.3,47.9 1534.3,47.9 1534.3,44 
	1534.3,40 "/>
<polygon class="st0" points="1570.3,32 1566.3,32 1566.3,36 1562.3,36 1562.3,40 1558.3,40 1558.3,36 1554.3,36 1554.3,32 
	1550.3,32 1546.3,32 1546.3,36 1550.3,36 1550.3,40 1554.3,40 1554.3,44 1558.3,44 1558.3,47.9 1562.3,47.9 1562.3,44 1566.3,44 
	1566.3,40 1570.3,40 1570.3,36 1574.3,36 1574.3,32 "/>
<polygon class="st1" points="1578.2,32 1578.2,36 1574.3,36 1574.3,40 1570.3,40 1570.3,44 1566.3,44 1566.3,47.9 1562.3,47.9 
	1562.3,51.9 1558.3,51.9 1558.3,47.9 1554.3,47.9 1554.3,44 1550.3,44 1550.3,40 1546.3,40 1546.3,36 1542.3,36 1542.3,32 
	1538.3,32 1538.3,28 1534.3,28 1534.3,32 1534.3,36 1538.3,36 1538.3,40 1542.3,40 1542.3,44 1546.3,44 1546.3,47.9 1550.3,47.9 
	1550.3,51.9 1554.3,51.9 1554.3,55.9 1558.3,55.9 1558.3,59.9 1562.3,59.9 1562.3,55.9 1566.3,55.9 1566.3,51.9 1570.3,51.9 
	1570.3,47.9 1574.3,47.9 1574.3,44 1578.2,44 1578.2,40 1582.2,40 1582.2,36 1582.2,32 "/>
<polygon class="st2" points="1578.2,40 1578.2,44 1574.3,44 1574.3,47.9 1570.3,47.9 1570.3,51.9 1566.3,51.9 1566.3,55.9 
	1562.3,55.9 1562.3,59.9 1558.3,59.9 1558.3,55.9 1554.3,55.9 1554.3,51.9 1550.3,51.9 1550.3,47.9 1546.3,47.9 1546.3,44 
	1542.3,44 1542.3,40 1538.3,40 1538.3,36 1534.3,36 1534.3,40 1534.3,44 1538.3,44 1538.3,47.9 1542.3,47.9 1542.3,51.9 
	1546.3,51.9 1546.3,55.9 1550.3,55.9 1550.3,59.9 1554.3,59.9 1554.3,63.9 1558.3,63.9 1558.3,67.9 1562.3,67.9 1562.3,63.9 
	1566.3,63.9 1566.3,59.9 1570.3,59.9 1570.3,55.9 1574.3,55.9 1574.3,51.9 1578.2,51.9 1578.2,47.9 1582.2,47.9 1582.2,44 
	1582.2,40 "/>
<polygon class="st0" points="1618.2,32 1614.2,32 1614.2,36 1610.2,36 1610.2,40 1606.2,40 1606.2,36 1602.2,36 1602.2,32 
	1598.2,32 1594.2,32 1594.2,36 1598.2,36 1598.2,40 1602.2,40 1602.2,44 1606.2,44 1606.2,47.9 1610.2,47.9 1610.2,44 1614.2,44 
	1614.2,40 1618.2,40 1618.2,36 1622.2,36 1622.2,32 "/>
<polygon class="st1" points="1626.2,32 1626.2,36 1622.2,36 1622.2,40 1618.2,40 1618.2,44 1614.2,44 1614.2,47.9 1610.2,47.9 
	1610.2,51.9 1606.2,51.9 1606.2,47.9 1602.2,47.9 1602.2,44 1598.2,44 1598.2,40 1594.2,40 1594.2,36 1590.2,36 1590.2,32 
	1586.2,32 1586.2,28 1582.2,28 1582.2,32 1582.2,36 1586.2,36 1586.2,40 1590.2,40 1590.2,44 1594.2,44 1594.2,47.9 1598.2,47.9 
	1598.2,51.9 1602.2,51.9 1602.2,55.9 1606.2,55.9 1606.2,59.9 1610.2,59.9 1610.2,55.9 1614.2,55.9 1614.2,51.9 1618.2,51.9 
	1618.2,47.9 1622.2,47.9 1622.2,44 1626.2,44 1626.2,40 1630.2,40 1630.2,36 1630.2,32 "/>
<polygon class="st2" points="1626.2,40 1626.2,44 1622.2,44 1622.2,47.9 1618.2,47.9 1618.2,51.9 1614.2,51.9 1614.2,55.9 
	1610.2,55.9 1610.2,59.9 1606.2,59.9 1606.2,55.9 1602.2,55.9 1602.2,51.9 1598.2,51.9 1598.2,47.9 1594.2,47.9 1594.2,44 
	1590.2,44 1590.2,40 1586.2,40 1586.2,36 1582.2,36 1582.2,40 1582.2,44 1586.2,44 1586.2,47.9 1590.2,47.9 1590.2,51.9 
	1594.2,51.9 1594.2,55.9 1598.2,55.9 1598.2,59.9 1602.2,59.9 1602.2,63.9 1606.2,63.9 1606.2,67.9 1610.2,67.9 1610.2,63.9 
	1614.2,63.9 1614.2,59.9 1618.2,59.9 1618.2,55.9 1622.2,55.9 1622.2,51.9 1626.2,51.9 1626.2,47.9 1630.2,47.9 1630.2,44 
	1630.2,40 "/>
<polygon class="st0" points="1666.2,32 1662.2,32 1662.2,36 1658.2,36 1658.2,40 1654.2,40 1654.2,36 1650.2,36 1650.2,32 
	1646.2,32 1642.2,32 1642.2,36 1646.2,36 1646.2,40 1650.2,40 1650.2,44 1654.2,44 1654.2,47.9 1658.2,47.9 1658.2,44 1662.2,44 
	1662.2,40 1666.2,40 1666.2,36 1670.1,36 1670.1,32 "/>
<polygon class="st1" points="1674.1,32 1674.1,36 1670.1,36 1670.1,40 1666.2,40 1666.2,44 1662.2,44 1662.2,47.9 1658.2,47.9 
	1658.2,51.9 1654.2,51.9 1654.2,47.9 1650.2,47.9 1650.2,44 1646.2,44 1646.2,40 1642.2,40 1642.2,36 1638.2,36 1638.2,32 
	1634.2,32 1634.2,28 1630.2,28 1630.2,32 1630.2,36 1634.2,36 1634.2,40 1638.2,40 1638.2,44 1642.2,44 1642.2,47.9 1646.2,47.9 
	1646.2,51.9 1650.2,51.9 1650.2,55.9 1654.2,55.9 1654.2,59.9 1658.2,59.9 1658.2,55.9 1662.2,55.9 1662.2,51.9 1666.2,51.9 
	1666.2,47.9 1670.1,47.9 1670.1,44 1674.1,44 1674.1,40 1678.1,40 1678.1,36 1678.1,32 "/>
<polygon class="st2" points="1674.1,40 1674.1,44 1670.1,44 1670.1,47.9 1666.2,47.9 1666.2,51.9 1662.2,51.9 1662.2,55.9 
	1658.2,55.9 1658.2,59.9 1654.2,59.9 1654.2,55.9 1650.2,55.9 1650.2,51.9 1646.2,51.9 1646.2,47.9 1642.2,47.9 1642.2,44 
	1638.2,44 1638.2,40 1634.2,40 1634.2,36 1630.2,36 1630.2,40 1630.2,44 1634.2,44 1634.2,47.9 1638.2,47.9 1638.2,51.9 
	1642.2,51.9 1642.2,55.9 1646.2,55.9 1646.2,59.9 1650.2,59.9 1650.2,63.9 1654.2,63.9 1654.2,67.9 1658.2,67.9 1658.2,63.9 
	1662.2,63.9 1662.2,59.9 1666.2,59.9 1666.2,55.9 1670.1,55.9 1670.1,51.9 1674.1,51.9 1674.1,47.9 1678.1,47.9 1678.1,44 
	1678.1,40 "/>
<polygon class="st0" points="1714.1,32 1710.1,32 1710.1,36 1706.1,36 1706.1,40 1702.1,40 1702.1,36 1698.1,36 1698.1,32 
	1694.1,32 1690.1,32 1690.1,36 1694.1,36 1694.1,40 1698.1,40 1698.1,44 1702.1,44 1702.1,47.9 1706.1,47.9 1706.1,44 1710.1,44 
	1710.1,40 1714.1,40 1714.1,36 1718.1,36 1718.1,32 "/>
<polygon class="st1" points="1722.1,32 1722.1,36 1718.1,36 1718.1,40 1714.1,40 1714.1,44 1710.1,44 1710.1,47.9 1706.1,47.9 
	1706.1,51.9 1702.1,51.9 1702.1,47.9 1698.1,47.9 1698.1,44 1694.1,44 1694.1,40 1690.1,40 1690.1,36 1686.1,36 1686.1,32 
	1682.1,32 1682.1,28 1678.1,28 1678.1,32 1678.1,36 1682.1,36 1682.1,40 1686.1,40 1686.1,44 1690.1,44 1690.1,47.9 1694.1,47.9 
	1694.1,51.9 1698.1,51.9 1698.1,55.9 1702.1,55.9 1702.1,59.9 1706.1,59.9 1706.1,55.9 1710.1,55.9 1710.1,51.9 1714.1,51.9 
	1714.1,47.9 1718.1,47.9 1718.1,44 1722.1,44 1722.1,40 1726.1,40 1726.1,36 1726.1,32 "/>
<polygon class="st2" points="1722.1,40 1722.1,44 1718.1,44 1718.1,47.9 1714.1,47.9 1714.1,51.9 1710.1,51.9 1710.1,55.9 
	1706.1,55.9 1706.1,59.9 1702.1,59.9 1702.1,55.9 1698.1,55.9 1698.1,51.9 1694.1,51.9 1694.1,47.9 1690.1,47.9 1690.1,44 
	1686.1,44 1686.1,40 1682.1,40 1682.1,36 1678.1,36 1678.1,40 1678.1,44 1682.1,44 1682.1,47.9 1686.1,47.9 1686.1,51.9 
	1690.1,51.9 1690.1,55.9 1694.1,55.9 1694.1,59.9 1698.1,59.9 1698.1,63.9 1702.1,63.9 1702.1,67.9 1706.1,67.9 1706.1,63.9 
	1710.1,63.9 1710.1,59.9 1714.1,59.9 1714.1,55.9 1718.1,55.9 1718.1,51.9 1722.1,51.9 1722.1,47.9 1726.1,47.9 1726.1,44 
	1726.1,40 "/>
<polygon class="st0" points="1762,32 1758.1,32 1758.1,36 1754.1,36 1754.1,40 1750.1,40 1750.1,36 1746.1,36 1746.1,32 1742.1,32 
	1738.1,32 1738.1,36 1742.1,36 1742.1,40 1746.1,40 1746.1,44 1750.1,44 1750.1,47.9 1754.1,47.9 1754.1,44 1758.1,44 1758.1,40 
	1762,40 1762,36 1766,36 1766,32 "/>
<polygon class="st1" points="1770,32 1770,36 1766,36 1766,40 1762,40 1762,44 1758.1,44 1758.1,47.9 1754.1,47.9 1754.1,51.9 
	1750.1,51.9 1750.1,47.9 1746.1,47.9 1746.1,44 1742.1,44 1742.1,40 1738.1,40 1738.1,36 1734.1,36 1734.1,32 1730.1,32 1730.1,28 
	1726.1,28 1726.1,32 1726.1,36 1730.1,36 1730.1,40 1734.1,40 1734.1,44 1738.1,44 1738.1,47.9 1742.1,47.9 1742.1,51.9 
	1746.1,51.9 1746.1,55.9 1750.1,55.9 1750.1,59.9 1754.1,59.9 1754.1,55.9 1758.1,55.9 1758.1,51.9 1762,51.9 1762,47.9 1766,47.9 
	1766,44 1770,44 1770,40 1774,40 1774,36 1774,32 "/>
<polygon class="st2" points="1770,40 1770,44 1766,44 1766,47.9 1762,47.9 1762,51.9 1758.1,51.9 1758.1,55.9 1754.1,55.9 
	1754.1,59.9 1750.1,59.9 1750.1,55.9 1746.1,55.9 1746.1,51.9 1742.1,51.9 1742.1,47.9 1738.1,47.9 1738.1,44 1734.1,44 1734.1,40 
	1730.1,40 1730.1,36 1726.1,36 1726.1,40 1726.1,44 1730.1,44 1730.1,47.9 1734.1,47.9 1734.1,51.9 1738.1,51.9 1738.1,55.9 
	1742.1,55.9 1742.1,59.9 1746.1,59.9 1746.1,63.9 1750.1,63.9 1750.1,67.9 1754.1,67.9 1754.1,63.9 1758.1,63.9 1758.1,59.9 
	1762,59.9 1762,55.9 1766,55.9 1766,51.9 1770,51.9 1770,47.9 1774,47.9 1774,44 1774,40 "/>
<polygon class="st0" points="1810,32 1806,32 1806,36 1802,36 1802,40 1798,40 1798,36 1794,36 1794,32 1790,32 1786,32 1786,36 
	1790,36 1790,40 1794,40 1794,44 1798,44 1798,47.9 1802,47.9 1802,44 1806,44 1806,40 1810,40 1810,36 1814,36 1814,32 "/>
<polygon class="st1" points="1818,32 1818,36 1814,36 1814,40 1810,40 1810,44 1806,44 1806,47.9 1802,47.9 1802,51.9 1798,51.9 
	1798,47.9 1794,47.9 1794,44 1790,44 1790,40 1786,40 1786,36 1782,36 1782,32 1778,32 1778,28 1774,28 1774,32 1774,36 1778,36 
	1778,40 1782,40 1782,44 1786,44 1786,47.9 1790,47.9 1790,51.9 1794,51.9 1794,55.9 1798,55.9 1798,59.9 1802,59.9 1802,55.9 
	1806,55.9 1806,51.9 1810,51.9 1810,47.9 1814,47.9 1814,44 1818,44 1818,40 1822,40 1822,36 1822,32 "/>
<polygon class="st2" points="1818,40 1818,44 1814,44 1814,47.9 1810,47.9 1810,51.9 1806,51.9 1806,55.9 1802,55.9 1802,59.9 
	1798,59.9 1798,55.9 1794,55.9 1794,51.9 1790,51.9 1790,47.9 1786,47.9 1786,44 1782,44 1782,40 1778,40 1778,36 1774,36 1774,40 
	1774,44 1778,44 1778,47.9 1782,47.9 1782,51.9 1786,51.9 1786,55.9 1790,55.9 1790,59.9 1794,59.9 1794,63.9 1798,63.9 1798,67.9 
	1802,67.9 1802,63.9 1806,63.9 1806,59.9 1810,59.9 1810,55.9 1814,55.9 1814,51.9 1818,51.9 1818,47.9 1822,47.9 1822,44 1822,40 
	"/>
<polygon class="st0" points="1857.9,32 1853.9,32 1853.9,36 1849.9,36 1849.9,40 1846,40 1846,36 1842,36 1842,32 1838,32 1834,32 
	1834,36 1838,36 1838,40 1842,40 1842,44 1846,44 1846,47.9 1849.9,47.9 1849.9,44 1853.9,44 1853.9,40 1857.9,40 1857.9,36 
	1861.9,36 1861.9,32 "/>
<polygon class="st1" points="1865.9,32 1865.9,36 1861.9,36 1861.9,40 1857.9,40 1857.9,44 1853.9,44 1853.9,47.9 1849.9,47.9 
	1849.9,51.9 1846,51.9 1846,47.9 1842,47.9 1842,44 1838,44 1838,40 1834,40 1834,36 1830,36 1830,32 1826,32 1826,28 1822,28 
	1822,32 1822,36 1826,36 1826,40 1830,40 1830,44 1834,44 1834,47.9 1838,47.9 1838,51.9 1842,51.9 1842,55.9 1846,55.9 1846,59.9 
	1849.9,59.9 1849.9,55.9 1853.9,55.9 1853.9,51.9 1857.9,51.9 1857.9,47.9 1861.9,47.9 1861.9,44 1865.9,44 1865.9,40 1869.9,40 
	1869.9,36 1869.9,32 "/>
<polygon class="st2" points="1865.9,40 1865.9,44 1861.9,44 1861.9,47.9 1857.9,47.9 1857.9,51.9 1853.9,51.9 1853.9,55.9 
	1849.9,55.9 1849.9,59.9 1846,59.9 1846,55.9 1842,55.9 1842,51.9 1838,51.9 1838,47.9 1834,47.9 1834,44 1830,44 1830,40 1826,40 
	1826,36 1822,36 1822,40 1822,44 1826,44 1826,47.9 1830,47.9 1830,51.9 1834,51.9 1834,55.9 1838,55.9 1838,59.9 1842,59.9 
	1842,63.9 1846,63.9 1846,67.9 1849.9,67.9 1849.9,63.9 1853.9,63.9 1853.9,59.9 1857.9,59.9 1857.9,55.9 1861.9,55.9 1861.9,51.9 
	1865.9,51.9 1865.9,47.9 1869.9,47.9 1869.9,44 1869.9,40 "/>
<polygon class="st0" points="1905.9,32 1901.9,32 1901.9,36 1897.9,36 1897.9,40 1893.9,40 1893.9,36 1889.9,36 1889.9,32 
	1885.9,32 1881.9,32 1881.9,36 1885.9,36 1885.9,40 1889.9,40 1889.9,44 1893.9,44 1893.9,47.9 1897.9,47.9 1897.9,44 1901.9,44 
	1901.9,40 1905.9,40 1905.9,36 1909.9,36 1909.9,32 "/>
<polygon class="st1" points="1913.9,32 1913.9,36 1909.9,36 1909.9,40 1905.9,40 1905.9,44 1901.9,44 1901.9,47.9 1897.9,47.9 
	1897.9,51.9 1893.9,51.9 1893.9,47.9 1889.9,47.9 1889.9,44 1885.9,44 1885.9,40 1881.9,40 1881.9,36 1877.9,36 1877.9,32 
	1873.9,32 1873.9,28 1869.9,28 1869.9,32 1869.9,36 1873.9,36 1873.9,40 1877.9,40 1877.9,44 1881.9,44 1881.9,47.9 1885.9,47.9 
	1885.9,51.9 1889.9,51.9 1889.9,55.9 1893.9,55.9 1893.9,59.9 1897.9,59.9 1897.9,55.9 1901.9,55.9 1901.9,51.9 1905.9,51.9 
	1905.9,47.9 1909.9,47.9 1909.9,44 1913.9,44 1913.9,40 1917.9,40 1917.9,36 1917.9,32 "/>
<polygon class="st2" points="1913.9,40 1913.9,44 1909.9,44 1909.9,47.9 1905.9,47.9 1905.9,51.9 1901.9,51.9 1901.9,55.9 
	1897.9,55.9 1897.9,59.9 1893.9,59.9 1893.9,55.9 1889.9,55.9 1889.9,51.9 1885.9,51.9 1885.9,47.9 1881.9,47.9 1881.9,44 
	1877.9,44 1877.9,40 1873.9,40 1873.9,36 1869.9,36 1869.9,40 1869.9,44 1873.9,44 1873.9,47.9 1877.9,47.9 1877.9,51.9 
	1881.9,51.9 1881.9,55.9 1885.9,55.9 1885.9,59.9 1889.9,59.9 1889.9,63.9 1893.9,63.9 1893.9,67.9 1897.9,67.9 1897.9,63.9 
	1901.9,63.9 1901.9,59.9 1905.9,59.9 1905.9,55.9 1909.9,55.9 1909.9,51.9 1913.9,51.9 1913.9,47.9 1917.9,47.9 1917.9,44 
	1917.9,40 "/>
<polygon class="st0" points="1953.8,32 1949.8,32 1949.8,36 1945.8,36 1945.8,40 1941.8,40 1941.8,36 1937.9,36 1937.9,32 
	1933.9,32 1929.9,32 1929.9,36 1933.9,36 1933.9,40 1937.9,40 1937.9,44 1941.8,44 1941.8,47.9 1945.8,47.9 1945.8,44 1949.8,44 
	1949.8,40 1953.8,40 1953.8,36 1957.8,36 1957.8,32 "/>
<polygon class="st1" points="1961.8,32 1961.8,36 1957.8,36 1957.8,40 1953.8,40 1953.8,44 1949.8,44 1949.8,47.9 1945.8,47.9 
	1945.8,51.9 1941.8,51.9 1941.8,47.9 1937.9,47.9 1937.9,44 1933.9,44 1933.9,40 1929.9,40 1929.9,36 1925.9,36 1925.9,32 
	1921.9,32 1921.9,28 1917.9,28 1917.9,32 1917.9,36 1921.9,36 1921.9,40 1925.9,40 1925.9,44 1929.9,44 1929.9,47.9 1933.9,47.9 
	1933.9,51.9 1937.9,51.9 1937.9,55.9 1941.8,55.9 1941.8,59.9 1945.8,59.9 1945.8,55.9 1949.8,55.9 1949.8,51.9 1953.8,51.9 
	1953.8,47.9 1957.8,47.9 1957.8,44 1961.8,44 1961.8,40 1965.8,40 1965.8,36 1965.8,32 "/>
<polygon class="st2" points="1961.8,40 1961.8,44 1957.8,44 1957.8,47.9 1953.8,47.9 1953.8,51.9 1949.8,51.9 1949.8,55.9 
	1945.8,55.9 1945.8,59.9 1941.8,59.9 1941.8,55.9 1937.9,55.9 1937.9,51.9 1933.9,51.9 1933.9,47.9 1929.9,47.9 1929.9,44 
	1925.9,44 1925.9,40 1921.9,40 1921.9,36 1917.9,36 1917.9,40 1917.9,44 1921.9,44 1921.9,47.9 1925.9,47.9 1925.9,51.9 
	1929.9,51.9 1929.9,55.9 1933.9,55.9 1933.9,59.9 1937.9,59.9 1937.9,63.9 1941.8,63.9 1941.8,67.9 1945.8,67.9 1945.8,63.9 
	1949.8,63.9 1949.8,59.9 1953.8,59.9 1953.8,55.9 1957.8,55.9 1957.8,51.9 1961.8,51.9 1961.8,47.9 1965.8,47.9 1965.8,44 
	1965.8,40 "/>
<polygon class="st0" points="2001.8,32 1997.8,32 1997.8,36 1993.8,36 1993.8,40 1989.8,40 1989.8,36 1985.8,36 1985.8,32 
	1981.8,32 1977.8,32 1977.8,36 1981.8,36 1981.8,40 1985.8,40 1985.8,44 1989.8,44 1989.8,47.9 1993.8,47.9 1993.8,44 1997.8,44 
	1997.8,40 2001.8,40 2001.8,36 2005.8,36 2005.8,32 "/>
<g>
	<rect x="12" y="36" class="st3" width="4" height="4"/>
	<rect x="36" y="36" class="st3" width="4" height="4"/>
	<rect x="16" y="40" class="st3" width="4" height="4"/>
	<rect x="32" y="40" class="st3" width="4" height="4"/>
	<rect x="20" y="44" class="st3" width="4" height="4"/>
	<rect x="28" y="44" class="st3" width="4" height="4"/>
	<rect x="24" y="47.9" class="st3" width="4" height="4"/>
	<rect x="59.9" y="36" class="st3" width="4" height="4"/>
	<rect x="83.9" y="36" class="st3" width="4" height="4"/>
	<rect x="63.9" y="40" class="st3" width="4" height="4"/>
	<rect x="79.9" y="40" class="st3" width="4" height="4"/>
	<rect x="67.9" y="44" class="st3" width="4" height="4"/>
	<rect x="75.9" y="44" class="st3" width="4" height="4"/>
	<rect x="71.9" y="47.9" class="st3" width="4" height="4"/>
	<rect x="107.9" y="36" class="st3" width="4" height="4"/>
	<rect x="131.9" y="36" class="st3" width="4" height="4"/>
	<rect x="111.9" y="40" class="st3" width="4" height="4"/>
	<rect x="127.9" y="40" class="st3" width="4" height="4"/>
	<rect x="115.9" y="44" class="st3" width="4" height="4"/>
	<rect x="123.9" y="44" class="st3" width="4" height="4"/>
	<rect x="119.9" y="47.9" class="st3" width="4" height="4"/>
	<rect x="155.8" y="36" class="st3" width="4" height="4"/>
	<rect x="179.8" y="36" class="st3" width="4" height="4"/>
	<rect x="159.8" y="40" class="st3" width="4" height="4"/>
	<rect x="175.8" y="40" class="st3" width="4" height="4"/>
	<rect x="163.8" y="44" class="st3" width="4" height="4"/>
	<rect x="171.8" y="44" class="st3" width="4" height="4"/>
	<rect x="167.8" y="47.9" class="st3" width="4" height="4"/>
	<rect x="203.8" y="36" class="st3" width="4" height="4"/>
	<rect x="227.7" y="36" class="st3" width="4" height="4"/>
	<rect x="207.8" y="40" class="st3" width="4" height="4"/>
	<rect x="223.8" y="40" class="st3" width="4" height="4"/>
	<rect x="211.8" y="44" class="st3" width="4" height="4"/>
	<rect x="219.8" y="44" class="st3" width="4" height="4"/>
	<rect x="215.8" y="47.9" class="st3" width="4" height="4"/>
	<rect x="251.7" y="36" class="st3" width="4" height="4"/>
	<rect x="275.7" y="36" class="st3" width="4" height="4"/>
	<rect x="255.7" y="40" class="st3" width="4" height="4"/>
	<rect x="271.7" y="40" class="st3" width="4" height="4"/>
	<rect x="259.7" y="44" class="st3" width="4" height="4"/>
	<rect x="267.7" y="44" class="st3" width="4" height="4"/>
	<rect x="263.7" y="47.9" class="st3" width="4" height="4"/>
	<rect x="299.7" y="36" class="st3" width="4" height="4"/>
	<rect x="323.6" y="36" class="st3" width="4" height="4"/>
	<rect x="303.7" y="40" class="st3" width="4" height="4"/>
	<rect x="319.6" y="40" class="st3" width="4" height="4"/>
	<rect x="307.7" y="44" class="st3" width="4" height="4"/>
	<rect x="315.7" y="44" class="st3" width="4" height="4"/>
	<rect x="311.7" y="47.9" class="st3" width="4" height="4"/>
	<rect x="347.6" y="36" class="st3" width="4" height="4"/>
	<rect x="371.6" y="36" class="st3" width="4" height="4"/>
	<rect x="351.6" y="40" class="st3" width="4" height="4"/>
	<rect x="367.6" y="40" class="st3" width="4" height="4"/>
	<rect x="355.6" y="44" class="st3" width="4" height="4"/>
	<rect x="363.6" y="44" class="st3" width="4" height="4"/>
	<rect x="359.6" y="47.9" class="st3" width="4" height="4"/>
	<rect x="395.6" y="36" class="st3" width="4" height="4"/>
	<rect x="419.5" y="36" class="st3" width="4" height="4"/>
	<rect x="399.6" y="40" class="st3" width="4" height="4"/>
	<rect x="415.5" y="40" class="st3" width="4" height="4"/>
	<rect x="403.6" y="44" class="st3" width="4" height="4"/>
	<rect x="411.5" y="44" class="st3" width="4" height="4"/>
	<rect x="407.5" y="47.9" class="st3" width="4" height="4"/>
	<rect x="443.5" y="36" class="st3" width="4" height="4"/>
	<rect x="467.5" y="36" class="st3" width="4" height="4"/>
	<rect x="447.5" y="40" class="st3" width="4" height="4"/>
	<rect x="463.5" y="40" class="st3" width="4" height="4"/>
	<rect x="451.5" y="44" class="st3" width="4" height="4"/>
	<rect x="459.5" y="44" class="st3" width="4" height="4"/>
	<rect x="455.5" y="47.9" class="st3" width="4" height="4"/>
	<rect x="491.5" y="36" class="st3" width="4" height="4"/>
	<rect x="515.4" y="36" class="st3" width="4" height="4"/>
	<rect x="495.5" y="40" class="st3" width="4" height="4"/>
	<rect x="511.4" y="40" class="st3" width="4" height="4"/>
	<rect x="499.4" y="44" class="st3" width="4" height="4"/>
	<rect x="507.4" y="44" class="st3" width="4" height="4"/>
	<rect x="503.4" y="47.9" class="st3" width="4" height="4"/>
	<rect x="539.4" y="36" class="st3" width="4" height="4"/>
	<rect x="563.4" y="36" class="st3" width="4" height="4"/>
	<rect x="543.4" y="40" class="st3" width="4" height="4"/>
	<rect x="559.4" y="40" class="st3" width="4" height="4"/>
	<rect x="547.4" y="44" class="st3" width="4" height="4"/>
	<rect x="555.4" y="44" class="st3" width="4" height="4"/>
	<rect x="551.4" y="47.9" class="st3" width="4" height="4"/>
	<rect x="587.3" y="36" class="st3" width="4" height="4"/>
	<rect x="611.3" y="36" class="st3" width="4" height="4"/>
	<rect x="591.3" y="40" class="st3" width="4" height="4"/>
	<rect x="607.3" y="40" class="st3" width="4" height="4"/>
	<rect x="595.3" y="44" class="st3" width="4" height="4"/>
	<rect x="603.3" y="44" class="st3" width="4" height="4"/>
	<rect x="599.3" y="47.9" class="st3" width="4" height="4"/>
	<rect x="635.3" y="36" class="st3" width="4" height="4"/>
	<rect x="659.3" y="36" class="st3" width="4" height="4"/>
	<rect x="639.3" y="40" class="st3" width="4" height="4"/>
	<rect x="655.3" y="40" class="st3" width="4" height="4"/>
	<rect x="643.3" y="44" class="st3" width="4" height="4"/>
	<rect x="651.3" y="44" class="st3" width="4" height="4"/>
	<rect x="647.3" y="47.9" class="st3" width="4" height="4"/>
	<rect x="683.2" y="36" class="st3" width="4" height="4"/>
	<rect x="707.2" y="36" class="st3" width="4" height="4"/>
	<rect x="687.2" y="40" class="st3" width="4" height="4"/>
	<rect x="703.2" y="40" class="st3" width="4" height="4"/>
	<rect x="691.2" y="44" class="st3" width="4" height="4"/>
	<rect x="699.2" y="44" class="st3" width="4" height="4"/>
	<rect x="695.2" y="47.9" class="st3" width="4" height="4"/>
	<rect x="731.2" y="36" class="st3" width="4" height="4"/>
	<rect x="755.2" y="36" class="st3" width="4" height="4"/>
	<rect x="735.2" y="40" class="st3" width="4" height="4"/>
	<rect x="751.2" y="40" class="st3" width="4" height="4"/>
	<rect x="739.2" y="44" class="st3" width="4" height="4"/>
	<rect x="747.2" y="44" class="st3" width="4" height="4"/>
	<rect x="743.2" y="47.9" class="st3" width="4" height="4"/>
	<rect x="779.1" y="36" class="st3" width="4" height="4"/>
	<rect x="803.1" y="36" class="st3" width="4" height="4"/>
	<rect x="783.1" y="40" class="st3" width="4" height="4"/>
	<rect x="799.1" y="40" class="st3" width="4" height="4"/>
	<rect x="787.1" y="44" class="st3" width="4" height="4"/>
	<rect x="795.1" y="44" class="st3" width="4" height="4"/>
	<rect x="791.1" y="47.9" class="st3" width="4" height="4"/>
	<rect x="827.1" y="36" class="st3" width="4" height="4"/>
	<rect x="851.1" y="36" class="st3" width="4" height="4"/>
	<rect x="831.1" y="40" class="st3" width="4" height="4"/>
	<rect x="847.1" y="40" class="st3" width="4" height="4"/>
	<rect x="835.1" y="44" class="st3" width="4" height="4"/>
	<rect x="843.1" y="44" class="st3" width="4" height="4"/>
	<rect x="839.1" y="47.9" class="st3" width="4" height="4"/>
	<rect x="875" y="36" class="st3" width="4" height="4"/>
	<rect x="899" y="36" class="st3" width="4" height="4"/>
	<rect x="879" y="40" class="st3" width="4" height="4"/>
	<rect x="895" y="40" class="st3" width="4" height="4"/>
	<rect x="883" y="44" class="st3" width="4" height="4"/>
	<rect x="891" y="44" class="st3" width="4" height="4"/>
	<rect x="887" y="47.9" class="st3" width="4" height="4"/>
	<rect x="923" y="36" class="st3" width="4" height="4"/>
	<rect x="947" y="36" class="st3" width="4" height="4"/>
	<rect x="927" y="40" class="st3" width="4" height="4"/>
	<rect x="943" y="40" class="st3" width="4" height="4"/>
	<rect x="931" y="44" class="st3" width="4" height="4"/>
	<rect x="939" y="44" class="st3" width="4" height="4"/>
	<rect x="935" y="47.9" class="st3" width="4" height="4"/>
	<rect x="970.9" y="36" class="st3" width="4" height="4"/>
	<rect x="994.9" y="36" class="st3" width="4" height="4"/>
	<rect x="974.9" y="40" class="st3" width="4" height="4"/>
	<rect x="990.9" y="40" class="st3" width="4" height="4"/>
	<rect x="978.9" y="44" class="st3" width="4" height="4"/>
	<rect x="986.9" y="44" class="st3" width="4" height="4"/>
	<rect x="982.9" y="47.9" class="st3" width="4" height="4"/>
	<rect x="1018.9" y="36" class="st3" width="4" height="4"/>
	<rect x="1042.8" y="36" class="st3" width="4" height="4"/>
	<rect x="1022.9" y="40" class="st3" width="4" height="4"/>
	<rect x="1038.8" y="40" class="st3" width="4" height="4"/>
	<rect x="1026.9" y="44" class="st3" width="4" height="4"/>
	<rect x="1034.9" y="44" class="st3" width="4" height="4"/>
	<rect x="1030.9" y="47.9" class="st3" width="4" height="4"/>
	<rect x="1066.8" y="36" class="st3" width="4" height="4"/>
	<rect x="1090.8" y="36" class="st3" width="4" height="4"/>
	<rect x="1070.8" y="40" class="st3" width="4" height="4"/>
	<rect x="1086.8" y="40" class="st3" width="4" height="4"/>
	<rect x="1074.8" y="44" class="st3" width="4" height="4"/>
	<rect x="1082.8" y="44" class="st3" width="4" height="4"/>
	<rect x="1078.8" y="47.9" class="st3" width="4" height="4"/>
	<rect x="1114.8" y="36" class="st3" width="4" height="4"/>
	<rect x="1138.7" y="36" class="st3" width="4" height="4"/>
	<rect x="1118.8" y="40" class="st3" width="4" height="4"/>
	<rect x="1134.7" y="40" class="st3" width="4" height="4"/>
	<rect x="1122.8" y="44" class="st3" width="4" height="4"/>
	<rect x="1130.7" y="44" class="st3" width="4" height="4"/>
	<rect x="1126.8" y="47.9" class="st3" width="4" height="4"/>
	<rect x="1162.7" y="36" class="st3" width="4" height="4"/>
	<rect x="1186.7" y="36" class="st3" width="4" height="4"/>
	<rect x="1166.7" y="40" class="st3" width="4" height="4"/>
	<rect x="1182.7" y="40" class="st3" width="4" height="4"/>
	<rect x="1170.7" y="44" class="st3" width="4" height="4"/>
	<rect x="1178.7" y="44" class="st3" width="4" height="4"/>
	<rect x="1174.7" y="47.9" class="st3" width="4" height="4"/>
	<rect x="1210.7" y="36" class="st3" width="4" height="4"/>
	<rect x="1234.6" y="36" class="st3" width="4" height="4"/>
	<rect x="1214.7" y="40" class="st3" width="4" height="4"/>
	<rect x="1230.6" y="40" class="st3" width="4" height="4"/>
	<rect x="1218.6" y="44" class="st3" width="4" height="4"/>
	<rect x="1226.6" y="44" class="st3" width="4" height="4"/>
	<rect x="1222.6" y="47.9" class="st3" width="4" height="4"/>
	<rect x="1258.6" y="36" class="st3" width="4" height="4"/>
	<rect x="1282.6" y="36" class="st3" width="4" height="4"/>
	<rect x="1262.6" y="40" class="st3" width="4" height="4"/>
	<rect x="1278.6" y="40" class="st3" width="4" height="4"/>
	<rect x="1266.6" y="44" class="st3" width="4" height="4"/>
	<rect x="1274.6" y="44" class="st3" width="4" height="4"/>
	<rect x="1270.6" y="47.9" class="st3" width="4" height="4"/>
	<rect x="1306.6" y="36" class="st3" width="4" height="4"/>
	<rect x="1330.5" y="36" class="st3" width="4" height="4"/>
	<rect x="1310.5" y="40" class="st3" width="4" height="4"/>
	<rect x="1326.5" y="40" class="st3" width="4" height="4"/>
	<rect x="1314.5" y="44" class="st3" width="4" height="4"/>
	<rect x="1322.5" y="44" class="st3" width="4" height="4"/>
	<rect x="1318.5" y="47.9" class="st3" width="4" height="4"/>
	<rect x="1354.5" y="36" class="st3" width="4" height="4"/>
	<rect x="1378.5" y="36" class="st3" width="4" height="4"/>
	<rect x="1358.5" y="40" class="st3" width="4" height="4"/>
	<rect x="1374.5" y="40" class="st3" width="4" height="4"/>
	<rect x="1362.5" y="44" class="st3" width="4" height="4"/>
	<rect x="1370.5" y="44" class="st3" width="4" height="4"/>
	<rect x="1366.5" y="47.9" class="st3" width="4" height="4"/>
	<rect x="1402.4" y="36" class="st3" width="4" height="4"/>
	<rect x="1426.4" y="36" class="st3" width="4" height="4"/>
	<rect x="1406.4" y="40" class="st3" width="4" height="4"/>
	<rect x="1422.4" y="40" class="st3" width="4" height="4"/>
	<rect x="1410.4" y="44" class="st3" width="4" height="4"/>
	<rect x="1418.4" y="44" class="st3" width="4" height="4"/>
	<rect x="1414.4" y="47.9" class="st3" width="4" height="4"/>
	<rect x="1450.4" y="36" class="st3" width="4" height="4"/>
	<rect x="1474.4" y="36" class="st3" width="4" height="4"/>
	<rect x="1454.4" y="40" class="st3" width="4" height="4"/>
	<rect x="1470.4" y="40" class="st3" width="4" height="4"/>
	<rect x="1458.4" y="44" class="st3" width="4" height="4"/>
	<rect x="1466.4" y="44" class="st3" width="4" height="4"/>
	<rect x="1462.4" y="47.9" class="st3" width="4" height="4"/>
	<rect x="1498.3" y="36" class="st3" width="4" height="4"/>
	<rect x="1522.3" y="36" class="st3" width="4" height="4"/>
	<rect x="1502.3" y="40" class="st3" width="4" height="4"/>
	<rect x="1518.3" y="40" class="st3" width="4" height="4"/>
	<rect x="1506.3" y="44" class="st3" width="4" height="4"/>
	<rect x="1514.3" y="44" class="st3" width="4" height="4"/>
	<rect x="1510.3" y="47.9" class="st3" width="4" height="4"/>
	<rect x="1546.3" y="36" class="st3" width="4" height="4"/>
	<rect x="1570.3" y="36" class="st3" width="4" height="4"/>
	<rect x="1550.3" y="40" class="st3" width="4" height="4"/>
	<rect x="1566.3" y="40" class="st3" width="4" height="4"/>
	<rect x="1554.3" y="44" class="st3" width="4" height="4"/>
	<rect x="1562.3" y="44" class="st3" width="4" height="4"/>
	<rect x="1558.3" y="47.9" class="st3" width="4" height="4"/>
	<rect x="1594.2" y="36" class="st3" width="4" height="4"/>
	<rect x="1618.2" y="36" class="st3" width="4" height="4"/>
	<rect x="1598.2" y="40" class="st3" width="4" height="4"/>
	<rect x="1614.2" y="40" class="st3" width="4" height="4"/>
	<rect x="1602.2" y="44" class="st3" width="4" height="4"/>
	<rect x="1610.2" y="44" class="st3" width="4" height="4"/>
	<rect x="1606.2" y="47.9" class="st3" width="4" height="4"/>
	<rect x="1642.2" y="36" class="st3" width="4" height="4"/>
	<rect x="1666.2" y="36" class="st3" width="4" height="4"/>
	<rect x="1646.2" y="40" class="st3" width="4" height="4"/>
	<rect x="1662.2" y="40" class="st3" width="4" height="4"/>
	<rect x="1650.2" y="44" class="st3" width="4" height="4"/>
	<rect x="1658.2" y="44" class="st3" width="4" height="4"/>
	<rect x="1654.2" y="47.9" class="st3" width="4" height="4"/>
	<rect x="1690.1" y="36" class="st3" width="4" height="4"/>
	<rect x="1714.1" y="36" class="st3" width="4" height="4"/>
	<rect x="1694.1" y="40" class="st3" width="4" height="4"/>
	<rect x="1710.1" y="40" class="st3" width="4" height="4"/>
	<rect x="1698.1" y="44" class="st3" width="4" height="4"/>
	<rect x="1706.1" y="44" class="st3" width="4" height="4"/>
	<rect x="1702.1" y="47.9" class="st3" width="4" height="4"/>
	<rect x="1738.1" y="36" class="st3" width="4" height="4"/>
	<rect x="1762" y="36" class="st3" width="4" height="4"/>
	<rect x="1742.1" y="40" class="st3" width="4" height="4"/>
	<rect x="1758.1" y="40" class="st3" width="4" height="4"/>
	<rect x="1746.1" y="44" class="st3" width="4" height="4"/>
	<rect x="1754.1" y="44" class="st3" width="4" height="4"/>
	<rect x="1750.1" y="47.9" class="st3" width="4" height="4"/>
	<rect x="1786" y="36" class="st3" width="4" height="4"/>
	<rect x="1810" y="36" class="st3" width="4" height="4"/>
	<rect x="1790" y="40" class="st3" width="4" height="4"/>
	<rect x="1806" y="40" class="st3" width="4" height="4"/>
	<rect x="1794" y="44" class="st3" width="4" height="4"/>
	<rect x="1802" y="44" class="st3" width="4" height="4"/>
	<rect x="1798" y="47.9" class="st3" width="4" height="4"/>
	<rect x="1834" y="36" class="st3" width="4" height="4"/>
	<rect x="1857.9" y="36" class="st3" width="4" height="4"/>
	<rect x="1838" y="40" class="st3" width="4" height="4"/>
	<rect x="1853.9" y="40" class="st3" width="4" height="4"/>
	<rect x="1842" y="44" class="st3" width="4" height="4"/>
	<rect x="1849.9" y="44" class="st3" width="4" height="4"/>
	<rect x="1846" y="47.9" class="st3" width="4" height="4"/>
	<rect x="1881.9" y="36" class="st3" width="4" height="4"/>
	<rect x="1905.9" y="36" class="st3" width="4" height="4"/>
	<rect x="1885.9" y="40" class="st3" width="4" height="4"/>
	<rect x="1901.9" y="40" class="st3" width="4" height="4"/>
	<rect x="1889.9" y="44" class="st3" width="4" height="4"/>
	<rect x="1897.9" y="44" class="st3" width="4" height="4"/>
	<rect x="1893.9" y="47.9" class="st3" width="4" height="4"/>
	<rect x="1929.9" y="36" class="st3" width="4" height="4"/>
	<rect x="1953.8" y="36" class="st3" width="4" height="4"/>
	<rect x="1933.9" y="40" class="st3" width="4" height="4"/>
	<rect x="1949.8" y="40" class="st3" width="4" height="4"/>
	<rect x="1937.9" y="44" class="st3" width="4" height="4"/>
	<rect x="1945.8" y="44" class="st3" width="4" height="4"/>
	<rect x="1941.8" y="47.9" class="st3" width="4" height="4"/>
	<polygon class="st3" points="1965.8,0 1917.9,0 1869.9,0 1822,0 1774,0 1726.1,0 1678.1,0 1630.2,0 1582.2,0 1534.3,0 1486.4,0 
		1438.4,0 1390.5,0 1342.5,0 1294.6,0 1246.6,0 1198.7,0 1150.7,0 1102.8,0 1054.8,0 1006.9,0 958.9,0 911,0 863,0 815.1,0 767.1,0 
		719.2,0 671.3,0 623.3,0 575.4,0 527.4,0 479.5,0 431.5,0 383.6,0 335.6,0 287.7,0 239.7,0 191.8,0 143.8,0 95.9,0 47.9,0 0,0 0,4 
		0,8 0,12 0,16 0,20 0,24 0,28 4,28 4,32 8,32 8,36 12,36 12,32 16,32 20,32 20,36 24,36 24,40 28,40 28,36 32,36 32,32 36,32 
		40,32 40,36 44,36 44,32 47.9,32 47.9,28 51.9,28 51.9,32 55.9,32 55.9,36 59.9,36 59.9,32 63.9,32 67.9,32 67.9,36 71.9,36 
		71.9,40 75.9,40 75.9,36 79.9,36 79.9,32 83.9,32 87.9,32 87.9,36 91.9,36 91.9,32 95.9,32 95.9,28 99.9,28 99.9,32 103.9,32 
		103.9,36 107.9,36 107.9,32 111.9,32 115.9,32 115.9,36 119.9,36 119.9,40 123.9,40 123.9,36 127.9,36 127.9,32 131.9,32 135.8,32 
		135.8,36 139.8,36 139.8,32 143.8,32 143.8,28 147.8,28 147.8,32 151.8,32 151.8,36 155.8,36 155.8,32 159.8,32 163.8,32 163.8,36 
		167.8,36 167.8,40 171.8,40 171.8,36 175.8,36 175.8,32 179.8,32 183.8,32 183.8,36 187.8,36 187.8,32 191.8,32 191.8,28 195.8,28 
		195.8,32 199.8,32 199.8,36 203.8,36 203.8,32 207.8,32 211.8,32 211.8,36 215.8,36 215.8,40 219.8,40 219.8,36 223.8,36 223.8,32 
		227.7,32 231.7,32 231.7,36 235.7,36 235.7,32 239.7,32 239.7,28 243.7,28 243.7,32 247.7,32 247.7,36 251.7,36 251.7,32 255.7,32 
		259.7,32 259.7,36 263.7,36 263.7,40 267.7,40 267.7,36 271.7,36 271.7,32 275.7,32 279.7,32 279.7,36 283.7,36 283.7,32 287.7,32 
		287.7,28 291.7,28 291.7,32 295.7,32 295.7,36 299.7,36 299.7,32 303.7,32 307.7,32 307.7,36 311.7,36 311.7,40 315.7,40 315.7,36 
		319.6,36 319.6,32 323.6,32 327.6,32 327.6,36 331.6,36 331.6,32 335.6,32 335.6,28 339.6,28 339.6,32 343.6,32 343.6,36 347.6,36 
		347.6,32 351.6,32 355.6,32 355.6,36 359.6,36 359.6,40 363.6,40 363.6,36 367.6,36 367.6,32 371.6,32 375.6,32 375.6,36 379.6,36 
		379.6,32 383.6,32 383.6,28 387.6,28 387.6,32 391.6,32 391.6,36 395.6,36 395.6,32 399.6,32 403.6,32 403.6,36 407.5,36 407.5,40 
		411.5,40 411.5,36 415.5,36 415.5,32 419.5,32 423.5,32 423.5,36 427.5,36 427.5,32 431.5,32 431.5,28 435.5,28 435.5,32 439.5,32 
		439.5,36 443.5,36 443.5,32 447.5,32 451.5,32 451.5,36 455.5,36 455.5,40 459.5,40 459.5,36 463.5,36 463.5,32 467.5,32 471.5,32 
		471.5,36 475.5,36 475.5,32 479.5,32 479.5,28 483.5,28 483.5,32 487.5,32 487.5,36 491.5,36 491.5,32 495.5,32 499.4,32 499.4,36 
		503.4,36 503.4,40 507.4,40 507.4,36 511.4,36 511.4,32 515.4,32 519.4,32 519.4,36 523.4,36 523.4,32 527.4,32 527.4,28 531.4,28 
		531.4,32 535.4,32 535.4,36 539.4,36 539.4,32 543.4,32 547.4,32 547.4,36 551.4,36 551.4,40 555.4,40 555.4,36 559.4,36 559.4,32 
		563.4,32 567.4,32 567.4,36 571.4,36 571.4,32 575.4,32 575.4,28 579.4,28 579.4,32 583.4,32 583.4,36 587.3,36 587.3,32 591.3,32 
		595.3,32 595.3,36 599.3,36 599.3,40 603.3,40 603.3,36 607.3,36 607.3,32 611.3,32 615.3,32 615.3,36 619.3,36 619.3,32 623.3,32 
		623.3,28 627.3,28 627.3,32 631.3,32 631.3,36 635.3,36 635.3,32 639.3,32 643.3,32 643.3,36 647.3,36 647.3,40 651.3,40 651.3,36 
		655.3,36 655.3,32 659.3,32 663.3,32 663.3,36 667.3,36 667.3,32 671.3,32 671.3,28 675.3,28 675.3,32 679.2,32 679.2,36 683.2,36 
		683.2,32 687.2,32 691.2,32 691.2,36 695.2,36 695.2,40 699.2,40 699.2,36 703.2,36 703.2,32 707.2,32 711.2,32 711.2,36 715.2,36 
		715.2,32 719.2,32 719.2,28 723.2,28 723.2,32 727.2,32 727.2,36 731.2,36 731.2,32 735.2,32 739.2,32 739.2,36 743.2,36 743.2,40 
		747.2,40 747.2,36 751.2,36 751.2,32 755.2,32 759.2,32 759.2,36 763.2,36 763.2,32 767.1,32 767.1,28 771.1,28 771.1,32 775.1,32 
		775.1,36 779.1,36 779.1,32 783.1,32 787.1,32 787.1,36 791.1,36 791.1,40 795.1,40 795.1,36 799.1,36 799.1,32 803.1,32 807.1,32 
		807.1,36 811.1,36 811.1,32 815.1,32 815.1,28 819.1,28 819.1,32 823.1,32 823.1,36 827.1,36 827.1,32 831.1,32 835.1,32 835.1,36 
		839.1,36 839.1,40 843.1,40 843.1,36 847.1,36 847.1,32 851.1,32 855.1,32 855.1,36 859,36 859,32 863,32 863,28 867,28 867,32 
		871,32 871,36 875,36 875,32 879,32 883,32 883,36 887,36 887,40 891,40 891,36 895,36 895,32 899,32 903,32 903,36 907,36 907,32 
		911,32 911,28 915,28 915,32 919,32 919,36 923,36 923,32 927,32 931,32 931,36 935,36 935,40 939,40 939,36 943,36 943,32 947,32 
		950.9,32 950.9,36 954.9,36 954.9,32 958.9,32 958.9,28 962.9,28 962.9,32 966.9,32 966.9,36 970.9,36 970.9,32 974.9,32 978.9,32 
		978.9,36 982.9,36 982.9,40 986.9,40 986.9,36 990.9,36 990.9,32 994.9,32 998.9,32 998.9,36 1002.9,36 1002.9,32 1006.9,32 
		1006.9,28 1010.9,28 1010.9,32 1014.9,32 1014.9,36 1018.9,36 1018.9,32 1022.9,32 1026.9,32 1026.9,36 1030.9,36 1030.9,40 
		1034.9,40 1034.9,36 1038.8,36 1038.8,32 1042.8,32 1046.8,32 1046.8,36 1050.8,36 1050.8,32 1054.8,32 1054.8,28 1058.8,28 
		1058.8,32 1062.8,32 1062.8,36 1066.8,36 1066.8,32 1070.8,32 1074.8,32 1074.8,36 1078.8,36 1078.8,40 1082.8,40 1082.8,36 
		1086.8,36 1086.8,32 1090.8,32 1094.8,32 1094.8,36 1098.8,36 1098.8,32 1102.8,32 1102.8,28 1106.8,28 1106.8,32 1110.8,32 
		1110.8,36 1114.8,36 1114.8,32 1118.8,32 1122.8,32 1122.8,36 1126.8,36 1126.8,40 1130.7,40 1130.7,36 1134.7,36 1134.7,32 
		1138.7,32 1142.7,32 1142.7,36 1146.7,36 1146.7,32 1150.7,32 1150.7,28 1154.7,28 1154.7,32 1158.7,32 1158.7,36 1162.7,36 
		1162.7,32 1166.7,32 1170.7,32 1170.7,36 1174.7,36 1174.7,40 1178.7,40 1178.7,36 1182.7,36 1182.7,32 1186.7,32 1190.7,32 
		1190.7,36 1194.7,36 1194.7,32 1198.7,32 1198.7,28 1202.7,28 1202.7,32 1206.7,32 1206.7,36 1210.7,36 1210.7,32 1214.7,32 
		1218.6,32 1218.6,36 1222.6,36 1222.6,40 1226.6,40 1226.6,36 1230.6,36 1230.6,32 1234.6,32 1238.6,32 1238.6,36 1242.6,36 
		1242.6,32 1246.6,32 1246.6,28 1250.6,28 1250.6,32 1254.6,32 1254.6,36 1258.6,36 1258.6,32 1262.6,32 1266.6,32 1266.6,36 
		1270.6,36 1270.6,40 1274.6,40 1274.6,36 1278.6,36 1278.6,32 1282.6,32 1286.6,32 1286.6,36 1290.6,36 1290.6,32 1294.6,32 
		1294.6,28 1298.6,28 1298.6,32 1302.6,32 1302.6,36 1306.6,36 1306.6,32 1310.5,32 1314.5,32 1314.5,36 1318.5,36 1318.5,40 
		1322.5,40 1322.5,36 1326.5,36 1326.5,32 1330.5,32 1334.5,32 1334.5,36 1338.5,36 1338.5,32 1342.5,32 1342.5,28 1346.5,28 
		1346.5,32 1350.5,32 1350.5,36 1354.5,36 1354.5,32 1358.5,32 1362.5,32 1362.5,36 1366.5,36 1366.5,40 1370.5,40 1370.5,36 
		1374.5,36 1374.5,32 1378.5,32 1382.5,32 1382.5,36 1386.5,36 1386.5,32 1390.5,32 1390.5,28 1394.5,28 1394.5,32 1398.4,32 
		1398.4,36 1402.4,36 1402.4,32 1406.4,32 1410.4,32 1410.4,36 1414.4,36 1414.4,40 1418.4,40 1418.4,36 1422.4,36 1422.4,32 
		1426.4,32 1430.4,32 1430.4,36 1434.4,36 1434.4,32 1438.4,32 1438.4,28 1442.4,28 1442.4,32 1446.4,32 1446.4,36 1450.4,36 
		1450.4,32 1454.4,32 1458.4,32 1458.4,36 1462.4,36 1462.4,40 1466.4,40 1466.4,36 1470.4,36 1470.4,32 1474.4,32 1478.4,32 
		1478.4,36 1482.4,36 1482.4,32 1486.4,32 1486.4,28 1490.3,28 1490.3,32 1494.3,32 1494.3,36 1498.3,36 1498.3,32 1502.3,32 
		1506.3,32 1506.3,36 1510.3,36 1510.3,40 1514.3,40 1514.3,36 1518.3,36 1518.3,32 1522.3,32 1526.3,32 1526.3,36 1530.3,36 
		1530.3,32 1534.3,32 1534.3,28 1538.3,28 1538.3,32 1542.3,32 1542.3,36 1546.3,36 1546.3,32 1550.3,32 1554.3,32 1554.3,36 
		1558.3,36 1558.3,40 1562.3,40 1562.3,36 1566.3,36 1566.3,32 1570.3,32 1574.3,32 1574.3,36 1578.2,36 1578.2,32 1582.2,32 
		1582.2,28 1586.2,28 1586.2,32 1590.2,32 1590.2,36 1594.2,36 1594.2,32 1598.2,32 1602.2,32 1602.2,36 1606.2,36 1606.2,40 
		1610.2,40 1610.2,36 1614.2,36 1614.2,32 1618.2,32 1622.2,32 1622.2,36 1626.2,36 1626.2,32 1630.2,32 1630.2,28 1634.2,28 
		1634.2,32 1638.2,32 1638.2,36 1642.2,36 1642.2,32 1646.2,32 1650.2,32 1650.2,36 1654.2,36 1654.2,40 1658.2,40 1658.2,36 
		1662.2,36 1662.2,32 1666.2,32 1670.1,32 1670.1,36 1674.1,36 1674.1,32 1678.1,32 1678.1,28 1682.1,28 1682.1,32 1686.1,32 
		1686.1,36 1690.1,36 1690.1,32 1694.1,32 1698.1,32 1698.1,36 1702.1,36 1702.1,40 1706.1,40 1706.1,36 1710.1,36 1710.1,32 
		1714.1,32 1718.1,32 1718.1,36 1722.1,36 1722.1,32 1726.1,32 1726.1,28 1730.1,28 1730.1,32 1734.1,32 1734.1,36 1738.1,36 
		1738.1,32 1742.1,32 1746.1,32 1746.1,36 1750.1,36 1750.1,40 1754.1,40 1754.1,36 1758.1,36 1758.1,32 1762,32 1766,32 1766,36 
		1770,36 1770,32 1774,32 1774,28 1778,28 1778,32 1782,32 1782,36 1786,36 1786,32 1790,32 1794,32 1794,36 1798,36 1798,40 
		1802,40 1802,36 1806,36 1806,32 1810,32 1814,32 1814,36 1818,36 1818,32 1822,32 1822,28 1826,28 1826,32 1830,32 1830,36 
		1834,36 1834,32 1838,32 1842,32 1842,36 1846,36 1846,40 1849.9,40 1849.9,36 1853.9,36 1853.9,32 1857.9,32 1861.9,32 1861.9,36 
		1865.9,36 1865.9,32 1869.9,32 1869.9,28 1873.9,28 1873.9,32 1877.9,32 1877.9,36 1881.9,36 1881.9,32 1885.9,32 1889.9,32 
		1889.9,36 1893.9,36 1893.9,40 1897.9,40 1897.9,36 1901.9,36 1901.9,32 1905.9,32 1909.9,32 1909.9,36 1913.9,36 1913.9,32 
		1917.9,32 1917.9,28 1921.9,28 1921.9,32 1925.9,32 1925.9,36 1929.9,36 1929.9,32 1933.9,32 1937.9,32 1937.9,36 1941.8,36 
		1941.8,40 1945.8,40 1945.8,36 1949.8,36 1949.8,32 1953.8,32 1957.8,32 1957.8,36 1961.8,36 1961.8,32 1965.8,32 1965.8,28 
		1969.8,28 1969.8,32 1973.8,32 1973.8,36 1977.8,36 1977.8,32 1981.8,32 1985.8,32 1985.8,36 1989.8,36 1989.8,40 1993.8,40 
		1993.8,36 1997.8,36 1997.8,32 2001.8,32 2005.8,32 2005.8,36 2009.8,36 2009.8,32 2013.8,32 2013.8,28 2013.8,24 2013.8,20 
		2013.8,16 2013.8,12 2013.8,8 2013.8,4 2013.8,0 	"/>
	<rect x="1977.8" y="36" class="st3" width="4" height="4"/>
	<rect x="2001.8" y="36" class="st3" width="4" height="4"/>
	<rect x="1981.8" y="40" class="st3" width="4" height="4"/>
	<rect x="1997.8" y="40" class="st3" width="4" height="4"/>
	<rect x="1985.8" y="44" class="st3" width="4" height="4"/>
	<rect x="1993.8" y="44" class="st3" width="4" height="4"/>
	<rect x="1989.8" y="47.9" class="st3" width="4" height="4"/>
</g>
<polygon class="st1" points="2009.8,32 2009.8,36 2005.8,36 2005.8,40 2001.8,40 2001.8,44 1997.8,44 1997.8,47.9 1993.8,47.9 
	1993.8,51.9 1989.8,51.9 1989.8,47.9 1985.8,47.9 1985.8,44 1981.8,44 1981.8,40 1977.8,40 1977.8,36 1973.8,36 1973.8,32 
	1969.8,32 1969.8,28 1965.8,28 1965.8,32 1965.8,36 1969.8,36 1969.8,40 1973.8,40 1973.8,44 1977.8,44 1977.8,47.9 1981.8,47.9 
	1981.8,51.9 1985.8,51.9 1985.8,55.9 1989.8,55.9 1989.8,59.9 1993.8,59.9 1993.8,55.9 1997.8,55.9 1997.8,51.9 2001.8,51.9 
	2001.8,47.9 2005.8,47.9 2005.8,44 2009.8,44 2009.8,40 2013.8,40 2013.8,36 2013.8,32 "/>
<polygon class="st2" points="2009.8,40 2009.8,44 2005.8,44 2005.8,47.9 2001.8,47.9 2001.8,51.9 1997.8,51.9 1997.8,55.9 
	1993.8,55.9 1993.8,59.9 1989.8,59.9 1989.8,55.9 1985.8,55.9 1985.8,51.9 1981.8,51.9 1981.8,47.9 1977.8,47.9 1977.8,44 
	1973.8,44 1973.8,40 1969.8,40 1969.8,36 1965.8,36 1965.8,40 1965.8,44 1969.8,44 1969.8,47.9 1973.8,47.9 1973.8,51.9 
	1977.8,51.9 1977.8,55.9 1981.8,55.9 1981.8,59.9 1985.8,59.9 1985.8,63.9 1989.8,63.9 1989.8,67.9 1993.8,67.9 1993.8,63.9 
	1997.8,63.9 1997.8,59.9 2001.8,59.9 2001.8,55.9 2005.8,55.9 2005.8,51.9 2009.8,51.9 2009.8,47.9 2013.8,47.9 2013.8,44 
	2013.8,40 "/>
</svg>
