<?xml version="1.0" encoding="utf-8"?>
<!-- Generator: Adobe Illustrator 25.0.0, SVG Export Plug-In . SVG Version: 6.00 Build 0)  -->
<svg version="1.1" id="Capa_1" xmlns="http://www.w3.org/2000/svg" xmlns:xlink="http://www.w3.org/1999/xlink" x="0px" y="0px"
	 viewBox="0 0 479.5 155.8" style="enable-background:new 0 0 479.5 155.8;" xml:space="preserve">
<style type="text/css">
	.st0{fill:#F9F3C4;}
	.st1{fill:#ED3C2E;}
	.st2{fill:#00AC50;}
	.st3{fill:#F17D56;}
	.st4{fill:#3A2018;}
	.st5{opacity:0.35;fill:#FBAA39;}
</style>
<polygon class="st0" points="36,32 32,32 32,36 28,36 28,40 24,40 24,36 20,36 20,32 16,32 12,32 12,36 16,36 16,40 20,40 20,44 
	24,44 24,47.9 28,47.9 28,44 32,44 32,40 36,40 36,36 40,36 40,32 "/>
<polygon class="st1" points="44,32 44,36 40,36 40,40 36,40 36,44 32,44 32,47.9 28,47.9 28,51.9 24,51.9 24,47.9 20,47.9 20,44 
	16,44 16,40 12,40 12,36 8,36 8,32 4,32 4,28 0,28 0,32 0,36 4,36 4,40 8,40 8,44 12,44 12,47.9 16,47.9 16,51.9 20,51.9 20,55.9 
	24,55.9 24,59.9 28,59.9 28,55.9 32,55.9 32,51.9 36,51.9 36,47.9 40,47.9 40,44 44,44 44,40 47.9,40 47.9,36 47.9,32 "/>
<polygon class="st2" points="44,40 44,44 40,44 40,47.9 36,47.9 36,51.9 32,51.9 32,55.9 28,55.9 28,59.9 24,59.9 24,55.9 20,55.9 
	20,51.9 16,51.9 16,47.9 12,47.9 12,44 8,44 8,40 4,40 4,36 0,36 0,40 0,44 4,44 4,47.9 8,47.9 8,51.9 12,51.9 12,55.9 16,55.9 
	16,59.9 20,59.9 20,63.9 24,63.9 24,67.9 28,67.9 28,63.9 32,63.9 32,59.9 36,59.9 36,55.9 40,55.9 40,51.9 44,51.9 44,47.9 
	47.9,47.9 47.9,44 47.9,40 "/>
<polygon class="st0" points="83.9,32 79.9,32 79.9,36 75.9,36 75.9,40 71.9,40 71.9,36 67.9,36 67.9,32 63.9,32 59.9,32 59.9,36 
	63.9,36 63.9,40 67.9,40 67.9,44 71.9,44 71.9,47.9 75.9,47.9 75.9,44 79.9,44 79.9,40 83.9,40 83.9,36 87.9,36 87.9,32 "/>
<polygon class="st1" points="91.9,32 91.9,36 87.9,36 87.9,40 83.9,40 83.9,44 79.9,44 79.9,47.9 75.9,47.9 75.9,51.9 71.9,51.9 
	71.9,47.9 67.9,47.9 67.9,44 63.9,44 63.9,40 59.9,40 59.9,36 55.9,36 55.9,32 51.9,32 51.9,28 47.9,28 47.9,32 47.9,36 51.9,36 
	51.9,40 55.9,40 55.9,44 59.9,44 59.9,47.9 63.9,47.9 63.9,51.9 67.9,51.9 67.9,55.9 71.9,55.9 71.9,59.9 75.9,59.9 75.9,55.9 
	79.9,55.9 79.9,51.9 83.9,51.9 83.9,47.9 87.9,47.9 87.9,44 91.9,44 91.9,40 95.9,40 95.9,36 95.9,32 "/>
<polygon class="st2" points="91.9,40 91.9,44 87.9,44 87.9,47.9 83.9,47.9 83.9,51.9 79.9,51.9 79.9,55.9 75.9,55.9 75.9,59.9 
	71.9,59.9 71.9,55.9 67.9,55.9 67.9,51.9 63.9,51.9 63.9,47.9 59.9,47.9 59.9,44 55.9,44 55.9,40 51.9,40 51.9,36 47.9,36 47.9,40 
	47.9,44 51.9,44 51.9,47.9 55.9,47.9 55.9,51.9 59.9,51.9 59.9,55.9 63.9,55.9 63.9,59.9 67.9,59.9 67.9,63.9 71.9,63.9 71.9,67.9 
	75.9,67.9 75.9,63.9 79.9,63.9 79.9,59.9 83.9,59.9 83.9,55.9 87.9,55.9 87.9,51.9 91.9,51.9 91.9,47.9 95.9,47.9 95.9,44 95.9,40 
	"/>
<polygon class="st0" points="131.9,32 127.9,32 127.9,36 123.9,36 123.9,40 119.9,40 119.9,36 115.9,36 115.9,32 111.9,32 107.9,32 
	107.9,36 111.9,36 111.9,40 115.9,40 115.9,44 119.9,44 119.9,47.9 123.9,47.9 123.9,44 127.9,44 127.9,40 131.9,40 131.9,36 
	135.8,36 135.8,32 "/>
<polygon class="st1" points="139.8,32 139.8,36 135.8,36 135.8,40 131.9,40 131.9,44 127.9,44 127.9,47.9 123.9,47.9 123.9,51.9 
	119.9,51.9 119.9,47.9 115.9,47.9 115.9,44 111.9,44 111.9,40 107.9,40 107.9,36 103.9,36 103.9,32 99.9,32 99.9,28 95.9,28 
	95.9,32 95.9,36 99.9,36 99.9,40 103.9,40 103.9,44 107.9,44 107.9,47.9 111.9,47.9 111.9,51.9 115.9,51.9 115.9,55.9 119.9,55.9 
	119.9,59.9 123.9,59.9 123.9,55.9 127.9,55.9 127.9,51.9 131.9,51.9 131.9,47.9 135.8,47.9 135.8,44 139.8,44 139.8,40 143.8,40 
	143.8,36 143.8,32 "/>
<polygon class="st2" points="139.8,40 139.8,44 135.8,44 135.8,47.9 131.9,47.9 131.9,51.9 127.9,51.9 127.9,55.9 123.9,55.9 
	123.9,59.9 119.9,59.9 119.9,55.9 115.9,55.9 115.9,51.9 111.9,51.9 111.9,47.9 107.9,47.9 107.9,44 103.9,44 103.9,40 99.9,40 
	99.9,36 95.9,36 95.9,40 95.9,44 99.9,44 99.9,47.9 103.9,47.9 103.9,51.9 107.9,51.9 107.9,55.9 111.9,55.9 111.9,59.9 115.9,59.9 
	115.9,63.9 119.9,63.9 119.9,67.9 123.9,67.9 123.9,63.9 127.9,63.9 127.9,59.9 131.9,59.9 131.9,55.9 135.8,55.9 135.8,51.9 
	139.8,51.9 139.8,47.9 143.8,47.9 143.8,44 143.8,40 "/>
<polygon class="st0" points="179.8,32 175.8,32 175.8,36 171.8,36 171.8,40 167.8,40 167.8,36 163.8,36 163.8,32 159.8,32 155.8,32 
	155.8,36 159.8,36 159.8,40 163.8,40 163.8,44 167.8,44 167.8,47.9 171.8,47.9 171.8,44 175.8,44 175.8,40 179.8,40 179.8,36 
	183.8,36 183.8,32 "/>
<polygon class="st1" points="187.8,32 187.8,36 183.8,36 183.8,40 179.8,40 179.8,44 175.8,44 175.8,47.9 171.8,47.9 171.8,51.9 
	167.8,51.9 167.8,47.9 163.8,47.9 163.8,44 159.8,44 159.8,40 155.8,40 155.8,36 151.8,36 151.8,32 147.8,32 147.8,28 143.8,28 
	143.8,32 143.8,36 147.8,36 147.8,40 151.8,40 151.8,44 155.8,44 155.8,47.9 159.8,47.9 159.8,51.9 163.8,51.9 163.8,55.9 
	167.8,55.9 167.8,59.9 171.8,59.9 171.8,55.9 175.8,55.9 175.8,51.9 179.8,51.9 179.8,47.9 183.8,47.9 183.8,44 187.8,44 187.8,40 
	191.8,40 191.8,36 191.8,32 "/>
<polygon class="st2" points="187.8,40 187.8,44 183.8,44 183.8,47.9 179.8,47.9 179.8,51.9 175.8,51.9 175.8,55.9 171.8,55.9 
	171.8,59.9 167.8,59.9 167.8,55.9 163.8,55.9 163.8,51.9 159.8,51.9 159.8,47.9 155.8,47.9 155.8,44 151.8,44 151.8,40 147.8,40 
	147.8,36 143.8,36 143.8,40 143.8,44 147.8,44 147.8,47.9 151.8,47.9 151.8,51.9 155.8,51.9 155.8,55.9 159.8,55.9 159.8,59.9 
	163.8,59.9 163.8,63.9 167.8,63.9 167.8,67.9 171.8,67.9 171.8,63.9 175.8,63.9 175.8,59.9 179.8,59.9 179.8,55.9 183.8,55.9 
	183.8,51.9 187.8,51.9 187.8,47.9 191.8,47.9 191.8,44 191.8,40 "/>
<polygon class="st0" points="227.7,32 223.8,32 223.8,36 219.8,36 219.8,40 215.8,40 215.8,36 211.8,36 211.8,32 207.8,32 203.8,32 
	203.8,36 207.8,36 207.8,40 211.8,40 211.8,44 215.8,44 215.8,47.9 219.8,47.9 219.8,44 223.8,44 223.8,40 227.7,40 227.7,36 
	231.7,36 231.7,32 "/>
<polygon class="st1" points="235.7,32 235.7,36 231.7,36 231.7,40 227.7,40 227.7,44 223.8,44 223.8,47.9 219.8,47.9 219.8,51.9 
	215.8,51.9 215.8,47.9 211.8,47.9 211.8,44 207.8,44 207.8,40 203.8,40 203.8,36 199.8,36 199.8,32 195.8,32 195.8,28 191.8,28 
	191.8,32 191.8,36 195.8,36 195.8,40 199.8,40 199.8,44 203.8,44 203.8,47.9 207.8,47.9 207.8,51.9 211.8,51.9 211.8,55.9 
	215.8,55.9 215.8,59.9 219.8,59.9 219.8,55.9 223.8,55.9 223.8,51.9 227.7,51.9 227.7,47.9 231.7,47.9 231.7,44 235.7,44 235.7,40 
	239.7,40 239.7,36 239.7,32 "/>
<polygon class="st2" points="235.7,40 235.7,44 231.7,44 231.7,47.9 227.7,47.9 227.7,51.9 223.8,51.9 223.8,55.9 219.8,55.9 
	219.8,59.9 215.8,59.9 215.8,55.9 211.8,55.9 211.8,51.9 207.8,51.9 207.8,47.9 203.8,47.9 203.8,44 199.8,44 199.8,40 195.8,40 
	195.8,36 191.8,36 191.8,40 191.8,44 195.8,44 195.8,47.9 199.8,47.9 199.8,51.9 203.8,51.9 203.8,55.9 207.8,55.9 207.8,59.9 
	211.8,59.9 211.8,63.9 215.8,63.9 215.8,67.9 219.8,67.9 219.8,63.9 223.8,63.9 223.8,59.9 227.7,59.9 227.7,55.9 231.7,55.9 
	231.7,51.9 235.7,51.9 235.7,47.9 239.7,47.9 239.7,44 239.7,40 "/>
<polygon class="st0" points="275.7,32 271.7,32 271.7,36 267.7,36 267.7,40 263.7,40 263.7,36 259.7,36 259.7,32 255.7,32 251.7,32 
	251.7,36 255.7,36 255.7,40 259.7,40 259.7,44 263.7,44 263.7,47.9 267.7,47.9 267.7,44 271.7,44 271.7,40 275.7,40 275.7,36 
	279.7,36 279.7,32 "/>
<polygon class="st1" points="283.7,32 283.7,36 279.7,36 279.7,40 275.7,40 275.7,44 271.7,44 271.7,47.9 267.7,47.9 267.7,51.9 
	263.7,51.9 263.7,47.9 259.7,47.9 259.7,44 255.7,44 255.7,40 251.7,40 251.7,36 247.7,36 247.7,32 243.7,32 243.7,28 239.7,28 
	239.7,32 239.7,36 243.7,36 243.7,40 247.7,40 247.7,44 251.7,44 251.7,47.9 255.7,47.9 255.7,51.9 259.7,51.9 259.7,55.9 
	263.7,55.9 263.7,59.9 267.7,59.9 267.7,55.9 271.7,55.9 271.7,51.9 275.7,51.9 275.7,47.9 279.7,47.9 279.7,44 283.7,44 283.7,40 
	287.7,40 287.7,36 287.7,32 "/>
<polygon class="st2" points="283.7,40 283.7,44 279.7,44 279.7,47.9 275.7,47.9 275.7,51.9 271.7,51.9 271.7,55.9 267.7,55.9 
	267.7,59.9 263.7,59.9 263.7,55.9 259.7,55.9 259.7,51.9 255.7,51.9 255.7,47.9 251.7,47.9 251.7,44 247.7,44 247.7,40 243.7,40 
	243.7,36 239.7,36 239.7,40 239.7,44 243.7,44 243.7,47.9 247.7,47.9 247.7,51.9 251.7,51.9 251.7,55.9 255.7,55.9 255.7,59.9 
	259.7,59.9 259.7,63.9 263.7,63.9 263.7,67.9 267.7,67.9 267.7,63.9 271.7,63.9 271.7,59.9 275.7,59.9 275.7,55.9 279.7,55.9 
	279.7,51.9 283.7,51.9 283.7,47.9 287.7,47.9 287.7,44 287.7,40 "/>
<polygon class="st0" points="323.6,32 319.6,32 319.6,36 315.7,36 315.7,40 311.7,40 311.7,36 307.7,36 307.7,32 303.7,32 299.7,32 
	299.7,36 303.7,36 303.7,40 307.7,40 307.7,44 311.7,44 311.7,47.9 315.7,47.9 315.7,44 319.6,44 319.6,40 323.6,40 323.6,36 
	327.6,36 327.6,32 "/>
<polygon class="st1" points="331.6,32 331.6,36 327.6,36 327.6,40 323.6,40 323.6,44 319.6,44 319.6,47.9 315.7,47.9 315.7,51.9 
	311.7,51.9 311.7,47.9 307.7,47.9 307.7,44 303.7,44 303.7,40 299.7,40 299.7,36 295.7,36 295.7,32 291.7,32 291.7,28 287.7,28 
	287.7,32 287.7,36 291.7,36 291.7,40 295.7,40 295.7,44 299.7,44 299.7,47.9 303.7,47.9 303.7,51.9 307.7,51.9 307.7,55.9 
	311.7,55.9 311.7,59.9 315.7,59.9 315.7,55.9 319.6,55.9 319.6,51.9 323.6,51.9 323.6,47.9 327.6,47.9 327.6,44 331.6,44 331.6,40 
	335.6,40 335.6,36 335.6,32 "/>
<polygon class="st2" points="331.6,40 331.6,44 327.6,44 327.6,47.9 323.6,47.9 323.6,51.9 319.6,51.9 319.6,55.9 315.7,55.9 
	315.7,59.9 311.7,59.9 311.7,55.9 307.7,55.9 307.7,51.9 303.7,51.9 303.7,47.9 299.7,47.9 299.7,44 295.7,44 295.7,40 291.7,40 
	291.7,36 287.7,36 287.7,40 287.7,44 291.7,44 291.7,47.9 295.7,47.9 295.7,51.9 299.7,51.9 299.7,55.9 303.7,55.9 303.7,59.9 
	307.7,59.9 307.7,63.9 311.7,63.9 311.7,67.9 315.7,67.9 315.7,63.9 319.6,63.9 319.6,59.9 323.6,59.9 323.6,55.9 327.6,55.9 
	327.6,51.9 331.6,51.9 331.6,47.9 335.6,47.9 335.6,44 335.6,40 "/>
<polygon class="st0" points="371.6,32 367.6,32 367.6,36 363.6,36 363.6,40 359.6,40 359.6,36 355.6,36 355.6,32 351.6,32 347.6,32 
	347.6,36 351.6,36 351.6,40 355.6,40 355.6,44 359.6,44 359.6,47.9 363.6,47.9 363.6,44 367.6,44 367.6,40 371.6,40 371.6,36 
	375.6,36 375.6,32 "/>
<polygon class="st1" points="379.6,32 379.6,36 375.6,36 375.6,40 371.6,40 371.6,44 367.6,44 367.6,47.9 363.6,47.9 363.6,51.9 
	359.6,51.9 359.6,47.9 355.6,47.9 355.6,44 351.6,44 351.6,40 347.6,40 347.6,36 343.6,36 343.6,32 339.6,32 339.6,28 335.6,28 
	335.6,32 335.6,36 339.6,36 339.6,40 343.6,40 343.6,44 347.6,44 347.6,47.9 351.6,47.9 351.6,51.9 355.6,51.9 355.6,55.9 
	359.6,55.9 359.6,59.9 363.6,59.9 363.6,55.9 367.6,55.9 367.6,51.9 371.6,51.9 371.6,47.9 375.6,47.9 375.6,44 379.6,44 379.6,40 
	383.6,40 383.6,36 383.6,32 "/>
<polygon class="st2" points="379.6,40 379.6,44 375.6,44 375.6,47.9 371.6,47.9 371.6,51.9 367.6,51.9 367.6,55.9 363.6,55.9 
	363.6,59.9 359.6,59.9 359.6,55.9 355.6,55.9 355.6,51.9 351.6,51.9 351.6,47.9 347.6,47.9 347.6,44 343.6,44 343.6,40 339.6,40 
	339.6,36 335.6,36 335.6,40 335.6,44 339.6,44 339.6,47.9 343.6,47.9 343.6,51.9 347.6,51.9 347.6,55.9 351.6,55.9 351.6,59.9 
	355.6,59.9 355.6,63.9 359.6,63.9 359.6,67.9 363.6,67.9 363.6,63.9 367.6,63.9 367.6,59.9 371.6,59.9 371.6,55.9 375.6,55.9 
	375.6,51.9 379.6,51.9 379.6,47.9 383.6,47.9 383.6,44 383.6,40 "/>
<polygon class="st0" points="419.5,32 415.5,32 415.5,36 411.5,36 411.5,40 407.5,40 407.5,36 403.6,36 403.6,32 399.6,32 395.6,32 
	395.6,36 399.6,36 399.6,40 403.6,40 403.6,44 407.5,44 407.5,47.9 411.5,47.9 411.5,44 415.5,44 415.5,40 419.5,40 419.5,36 
	423.5,36 423.5,32 "/>
<polygon class="st1" points="427.5,32 427.5,36 423.5,36 423.5,40 419.5,40 419.5,44 415.5,44 415.5,47.9 411.5,47.9 411.5,51.9 
	407.5,51.9 407.5,47.9 403.6,47.9 403.6,44 399.6,44 399.6,40 395.6,40 395.6,36 391.6,36 391.6,32 387.6,32 387.6,28 383.6,28 
	383.6,32 383.6,36 387.6,36 387.6,40 391.6,40 391.6,44 395.6,44 395.6,47.9 399.6,47.9 399.6,51.9 403.6,51.9 403.6,55.9 
	407.5,55.9 407.5,59.9 411.5,59.9 411.5,55.9 415.5,55.9 415.5,51.9 419.5,51.9 419.5,47.9 423.5,47.9 423.5,44 427.5,44 427.5,40 
	431.5,40 431.5,36 431.5,32 "/>
<polygon class="st2" points="427.5,40 427.5,44 423.5,44 423.5,47.9 419.5,47.9 419.5,51.9 415.5,51.9 415.5,55.9 411.5,55.9 
	411.5,59.9 407.5,59.9 407.5,55.9 403.6,55.9 403.6,51.9 399.6,51.9 399.6,47.9 395.6,47.9 395.6,44 391.6,44 391.6,40 387.6,40 
	387.6,36 383.6,36 383.6,40 383.6,44 387.6,44 387.6,47.9 391.6,47.9 391.6,51.9 395.6,51.9 395.6,55.9 399.6,55.9 399.6,59.9 
	403.6,59.9 403.6,63.9 407.5,63.9 407.5,67.9 411.5,67.9 411.5,63.9 415.5,63.9 415.5,59.9 419.5,59.9 419.5,55.9 423.5,55.9 
	423.5,51.9 427.5,51.9 427.5,47.9 431.5,47.9 431.5,44 431.5,40 "/>
<polygon class="st0" points="467.5,32 463.5,32 463.5,36 459.5,36 459.5,40 455.5,40 455.5,36 451.5,36 451.5,32 447.5,32 443.5,32 
	443.5,36 447.5,36 447.5,40 451.5,40 451.5,44 455.5,44 455.5,47.9 459.5,47.9 459.5,44 463.5,44 463.5,40 467.5,40 467.5,36 
	471.5,36 471.5,32 "/>
<g>
	<rect x="12" y="36" class="st3" width="4" height="4"/>
	<rect x="36" y="36" class="st3" width="4" height="4"/>
	<rect x="16" y="40" class="st3" width="4" height="4"/>
	<rect x="32" y="40" class="st3" width="4" height="4"/>
	<rect x="20" y="44" class="st3" width="4" height="4"/>
	<rect x="28" y="44" class="st3" width="4" height="4"/>
	<rect x="24" y="47.9" class="st3" width="4" height="4"/>
	<rect x="59.9" y="36" class="st3" width="4" height="4"/>
	<rect x="83.9" y="36" class="st3" width="4" height="4"/>
	<rect x="63.9" y="40" class="st3" width="4" height="4"/>
	<rect x="79.9" y="40" class="st3" width="4" height="4"/>
	<rect x="67.9" y="44" class="st3" width="4" height="4"/>
	<rect x="75.9" y="44" class="st3" width="4" height="4"/>
	<rect x="71.9" y="47.9" class="st3" width="4" height="4"/>
	<rect x="107.9" y="36" class="st3" width="4" height="4"/>
	<rect x="131.9" y="36" class="st3" width="4" height="4"/>
	<rect x="111.9" y="40" class="st3" width="4" height="4"/>
	<rect x="127.9" y="40" class="st3" width="4" height="4"/>
	<rect x="115.9" y="44" class="st3" width="4" height="4"/>
	<rect x="123.9" y="44" class="st3" width="4" height="4"/>
	<rect x="119.9" y="47.9" class="st3" width="4" height="4"/>
	<rect x="155.8" y="36" class="st3" width="4" height="4"/>
	<rect x="179.8" y="36" class="st3" width="4" height="4"/>
	<rect x="159.8" y="40" class="st3" width="4" height="4"/>
	<rect x="175.8" y="40" class="st3" width="4" height="4"/>
	<rect x="163.8" y="44" class="st3" width="4" height="4"/>
	<rect x="171.8" y="44" class="st3" width="4" height="4"/>
	<rect x="167.8" y="47.9" class="st3" width="4" height="4"/>
	<rect x="203.8" y="36" class="st3" width="4" height="4"/>
	<rect x="227.7" y="36" class="st3" width="4" height="4"/>
	<rect x="207.8" y="40" class="st3" width="4" height="4"/>
	<rect x="223.8" y="40" class="st3" width="4" height="4"/>
	<rect x="211.8" y="44" class="st3" width="4" height="4"/>
	<rect x="219.8" y="44" class="st3" width="4" height="4"/>
	<rect x="215.8" y="47.9" class="st3" width="4" height="4"/>
	<rect x="251.7" y="36" class="st3" width="4" height="4"/>
	<rect x="275.7" y="36" class="st3" width="4" height="4"/>
	<rect x="255.7" y="40" class="st3" width="4" height="4"/>
	<rect x="271.7" y="40" class="st3" width="4" height="4"/>
	<rect x="259.7" y="44" class="st3" width="4" height="4"/>
	<rect x="267.7" y="44" class="st3" width="4" height="4"/>
	<rect x="263.7" y="47.9" class="st3" width="4" height="4"/>
	<rect x="299.7" y="36" class="st3" width="4" height="4"/>
	<rect x="323.6" y="36" class="st3" width="4" height="4"/>
	<rect x="303.7" y="40" class="st3" width="4" height="4"/>
	<rect x="319.6" y="40" class="st3" width="4" height="4"/>
	<rect x="307.7" y="44" class="st3" width="4" height="4"/>
	<rect x="315.7" y="44" class="st3" width="4" height="4"/>
	<rect x="311.7" y="47.9" class="st3" width="4" height="4"/>
	<rect x="347.6" y="36" class="st3" width="4" height="4"/>
	<rect x="371.6" y="36" class="st3" width="4" height="4"/>
	<rect x="351.6" y="40" class="st3" width="4" height="4"/>
	<rect x="367.6" y="40" class="st3" width="4" height="4"/>
	<rect x="355.6" y="44" class="st3" width="4" height="4"/>
	<rect x="363.6" y="44" class="st3" width="4" height="4"/>
	<rect x="359.6" y="47.9" class="st3" width="4" height="4"/>
	<rect x="395.6" y="36" class="st3" width="4" height="4"/>
	<rect x="419.5" y="36" class="st3" width="4" height="4"/>
	<rect x="399.6" y="40" class="st3" width="4" height="4"/>
	<rect x="415.5" y="40" class="st3" width="4" height="4"/>
	<rect x="403.6" y="44" class="st3" width="4" height="4"/>
	<rect x="411.5" y="44" class="st3" width="4" height="4"/>
	<rect x="407.5" y="47.9" class="st3" width="4" height="4"/>
	<polygon class="st3" points="431.5,0 383.6,0 335.6,0 287.7,0 239.7,0 191.8,0 143.8,0 95.9,0 47.9,0 0,0 0,4 0,8 0,12 0,16 0,20 
		0,24 0,28 4,28 4,32 8,32 8,36 12,36 12,32 16,32 20,32 20,36 24,36 24,40 28,40 28,36 32,36 32,32 36,32 40,32 40,36 44,36 44,32 
		47.9,32 47.9,28 51.9,28 51.9,32 55.9,32 55.9,36 59.9,36 59.9,32 63.9,32 67.9,32 67.9,36 71.9,36 71.9,40 75.9,40 75.9,36 
		79.9,36 79.9,32 83.9,32 87.9,32 87.9,36 91.9,36 91.9,32 95.9,32 95.9,28 99.9,28 99.9,32 103.9,32 103.9,36 107.9,36 107.9,32 
		111.9,32 115.9,32 115.9,36 119.9,36 119.9,40 123.9,40 123.9,36 127.9,36 127.9,32 131.9,32 135.8,32 135.8,36 139.8,36 139.8,32 
		143.8,32 143.8,28 147.8,28 147.8,32 151.8,32 151.8,36 155.8,36 155.8,32 159.8,32 163.8,32 163.8,36 167.8,36 167.8,40 171.8,40 
		171.8,36 175.8,36 175.8,32 179.8,32 183.8,32 183.8,36 187.8,36 187.8,32 191.8,32 191.8,28 195.8,28 195.8,32 199.8,32 199.8,36 
		203.8,36 203.8,32 207.8,32 211.8,32 211.8,36 215.8,36 215.8,40 219.8,40 219.8,36 223.8,36 223.8,32 227.7,32 231.7,32 231.7,36 
		235.7,36 235.7,32 239.7,32 239.7,28 243.7,28 243.7,32 247.7,32 247.7,36 251.7,36 251.7,32 255.7,32 259.7,32 259.7,36 263.7,36 
		263.7,40 267.7,40 267.7,36 271.7,36 271.7,32 275.7,32 279.7,32 279.7,36 283.7,36 283.7,32 287.7,32 287.7,28 291.7,28 291.7,32 
		295.7,32 295.7,36 299.7,36 299.7,32 303.7,32 307.7,32 307.7,36 311.7,36 311.7,40 315.7,40 315.7,36 319.6,36 319.6,32 323.6,32 
		327.6,32 327.6,36 331.6,36 331.6,32 335.6,32 335.6,28 339.6,28 339.6,32 343.6,32 343.6,36 347.6,36 347.6,32 351.6,32 355.6,32 
		355.6,36 359.6,36 359.6,40 363.6,40 363.6,36 367.6,36 367.6,32 371.6,32 375.6,32 375.6,36 379.6,36 379.6,32 383.6,32 383.6,28 
		387.6,28 387.6,32 391.6,32 391.6,36 395.6,36 395.6,32 399.6,32 403.6,32 403.6,36 407.5,36 407.5,40 411.5,40 411.5,36 415.5,36 
		415.5,32 419.5,32 423.5,32 423.5,36 427.5,36 427.5,32 431.5,32 431.5,28 435.5,28 435.5,32 439.5,32 439.5,36 443.5,36 443.5,32 
		447.5,32 451.5,32 451.5,36 455.5,36 455.5,40 459.5,40 459.5,36 463.5,36 463.5,32 467.5,32 471.5,32 471.5,36 475.5,36 475.5,32 
		479.5,32 479.5,28 479.5,24 479.5,20 479.5,16 479.5,12 479.5,8 479.5,4 479.5,0 	"/>
	<rect x="443.5" y="36" class="st3" width="4" height="4"/>
	<rect x="467.5" y="36" class="st3" width="4" height="4"/>
	<rect x="447.5" y="40" class="st3" width="4" height="4"/>
	<rect x="463.5" y="40" class="st3" width="4" height="4"/>
	<rect x="451.5" y="44" class="st3" width="4" height="4"/>
	<rect x="459.5" y="44" class="st3" width="4" height="4"/>
	<rect x="455.5" y="47.9" class="st3" width="4" height="4"/>
</g>
<polygon class="st1" points="475.5,32 475.5,36 471.5,36 471.5,40 467.5,40 467.5,44 463.5,44 463.5,47.9 459.5,47.9 459.5,51.9 
	455.5,51.9 455.5,47.9 451.5,47.9 451.5,44 447.5,44 447.5,40 443.5,40 443.5,36 439.5,36 439.5,32 435.5,32 435.5,28 431.5,28 
	431.5,32 431.5,36 435.5,36 435.5,40 439.5,40 439.5,44 443.5,44 443.5,47.9 447.5,47.9 447.5,51.9 451.5,51.9 451.5,55.9 
	455.5,55.9 455.5,59.9 459.5,59.9 459.5,55.9 463.5,55.9 463.5,51.9 467.5,51.9 467.5,47.9 471.5,47.9 471.5,44 475.5,44 475.5,40 
	479.5,40 479.5,36 479.5,32 "/>
<polygon class="st2" points="475.5,40 475.5,44 471.5,44 471.5,47.9 467.5,47.9 467.5,51.9 463.5,51.9 463.5,55.9 459.5,55.9 
	459.5,59.9 455.5,59.9 455.5,55.9 451.5,55.9 451.5,51.9 447.5,51.9 447.5,47.9 443.5,47.9 443.5,44 439.5,44 439.5,40 435.5,40 
	435.5,36 431.5,36 431.5,40 431.5,44 435.5,44 435.5,47.9 439.5,47.9 439.5,51.9 443.5,51.9 443.5,55.9 447.5,55.9 447.5,59.9 
	451.5,59.9 451.5,63.9 455.5,63.9 455.5,67.9 459.5,67.9 459.5,63.9 463.5,63.9 463.5,59.9 467.5,59.9 467.5,55.9 471.5,55.9 
	471.5,51.9 475.5,51.9 475.5,47.9 479.5,47.9 479.5,44 479.5,40 "/>
<polygon class="st4" points="475.5,47.9 475.5,51.9 471.5,51.9 471.5,55.9 467.5,55.9 467.5,59.9 463.5,59.9 463.5,63.9 459.5,63.9 
	459.5,67.9 455.5,67.9 455.5,63.9 451.5,63.9 451.5,59.9 447.5,59.9 447.5,55.9 443.5,55.9 443.5,51.9 439.5,51.9 439.5,47.9 
	435.5,47.9 435.5,44 431.5,44 431.5,47.9 427.5,47.9 427.5,51.9 423.5,51.9 423.5,55.9 419.5,55.9 419.5,59.9 415.5,59.9 
	415.5,63.9 411.5,63.9 411.5,67.9 407.5,67.9 407.5,63.9 403.6,63.9 403.6,59.9 399.6,59.9 399.6,55.9 395.6,55.9 395.6,51.9 
	391.6,51.9 391.6,47.9 387.6,47.9 387.6,44 383.6,44 383.6,47.9 379.6,47.9 379.6,51.9 375.6,51.9 375.6,55.9 371.6,55.9 
	371.6,59.9 367.6,59.9 367.6,63.9 363.6,63.9 363.6,67.9 359.6,67.9 359.6,63.9 355.6,63.9 355.6,59.9 351.6,59.9 351.6,55.9 
	347.6,55.9 347.6,51.9 343.6,51.9 343.6,47.9 339.6,47.9 339.6,44 335.6,44 335.6,47.9 331.6,47.9 331.6,51.9 327.6,51.9 
	327.6,55.9 323.6,55.9 323.6,59.9 319.6,59.9 319.6,63.9 315.7,63.9 315.7,67.9 311.7,67.9 311.7,63.9 307.7,63.9 307.7,59.9 
	303.7,59.9 303.7,55.9 299.7,55.9 299.7,51.9 295.7,51.9 295.7,47.9 291.7,47.9 291.7,44 287.7,44 287.7,47.9 283.7,47.9 
	283.7,51.9 279.7,51.9 279.7,55.9 275.7,55.9 275.7,59.9 271.7,59.9 271.7,63.9 267.7,63.9 267.7,67.9 263.7,67.9 263.7,63.9 
	259.7,63.9 259.7,59.9 255.7,59.9 255.7,55.9 251.7,55.9 251.7,51.9 247.7,51.9 247.7,47.9 243.7,47.9 243.7,44 239.7,44 
	239.7,47.9 235.7,47.9 235.7,51.9 231.7,51.9 231.7,55.9 227.7,55.9 227.7,59.9 223.8,59.9 223.8,63.9 219.8,63.9 219.8,67.9 
	215.8,67.9 215.8,63.9 211.8,63.9 211.8,59.9 207.8,59.9 207.8,55.9 203.8,55.9 203.8,51.9 199.8,51.9 199.8,47.9 195.8,47.9 
	195.8,44 191.8,44 191.8,47.9 187.8,47.9 187.8,51.9 183.8,51.9 183.8,55.9 179.8,55.9 179.8,59.9 175.8,59.9 175.8,63.9 
	171.8,63.9 171.8,67.9 167.8,67.9 167.8,63.9 163.8,63.9 163.8,59.9 159.8,59.9 159.8,55.9 155.8,55.9 155.8,51.9 151.8,51.9 
	151.8,47.9 147.8,47.9 147.8,44 143.8,44 143.8,47.9 139.8,47.9 139.8,51.9 135.8,51.9 135.8,55.9 131.9,55.9 131.9,59.9 
	127.9,59.9 127.9,63.9 123.9,63.9 123.9,67.9 119.9,67.9 119.9,63.9 115.9,63.9 115.9,59.9 111.9,59.9 111.9,55.9 107.9,55.9 
	107.9,51.9 103.9,51.9 103.9,47.9 99.9,47.9 99.9,44 95.9,44 95.9,47.9 91.9,47.9 91.9,51.9 87.9,51.9 87.9,55.9 83.9,55.9 
	83.9,59.9 79.9,59.9 79.9,63.9 75.9,63.9 75.9,67.9 71.9,67.9 71.9,63.9 67.9,63.9 67.9,59.9 63.9,59.9 63.9,55.9 59.9,55.9 
	59.9,51.9 55.9,51.9 55.9,47.9 51.9,47.9 51.9,44 47.9,44 47.9,47.9 44,47.9 44,51.9 40,51.9 40,55.9 36,55.9 36,59.9 32,59.9 
	32,63.9 28,63.9 28,67.9 24,67.9 24,63.9 20,63.9 20,59.9 16,59.9 16,55.9 12,55.9 12,51.9 8,51.9 8,47.9 4,47.9 4,44 0,44 0,131.9 
	4,131.9 4,135.8 8,135.8 8,139.8 12,139.8 12,143.8 16,143.8 16,147.8 20,147.8 20,151.8 24,151.8 24,155.8 28,155.8 28,151.8 
	32,151.8 32,147.8 36,147.8 36,143.8 40,143.8 40,139.8 44,139.8 44,135.8 47.9,135.8 47.9,131.9 51.9,131.9 51.9,135.8 55.9,135.8 
	55.9,139.8 59.9,139.8 59.9,143.8 63.9,143.8 63.9,147.8 67.9,147.8 67.9,151.8 71.9,151.8 71.9,155.8 75.9,155.8 75.9,151.8 
	79.9,151.8 79.9,147.8 83.9,147.8 83.9,143.8 87.9,143.8 87.9,139.8 91.9,139.8 91.9,135.8 95.9,135.8 95.9,131.9 99.9,131.9 
	99.9,135.8 103.9,135.8 103.9,139.8 107.9,139.8 107.9,143.8 111.9,143.8 111.9,147.8 115.9,147.8 115.9,151.8 119.9,151.8 
	119.9,155.8 123.9,155.8 123.9,151.8 127.9,151.8 127.9,147.8 131.9,147.8 131.9,143.8 135.8,143.8 135.8,139.8 139.8,139.8 
	139.8,135.8 143.8,135.8 143.8,131.9 147.8,131.9 147.8,135.8 151.8,135.8 151.8,139.8 155.8,139.8 155.8,143.8 159.8,143.8 
	159.8,147.8 163.8,147.8 163.8,151.8 167.8,151.8 167.8,155.8 171.8,155.8 171.8,151.8 175.8,151.8 175.8,147.8 179.8,147.8 
	179.8,143.8 183.8,143.8 183.8,139.8 187.8,139.8 187.8,135.8 191.8,135.8 191.8,131.9 195.8,131.9 195.8,135.8 199.8,135.8 
	199.8,139.8 203.8,139.8 203.8,143.8 207.8,143.8 207.8,147.8 211.8,147.8 211.8,151.8 215.8,151.8 215.8,155.8 219.8,155.8 
	219.8,151.8 223.8,151.8 223.8,147.8 227.7,147.8 227.7,143.8 231.7,143.8 231.7,139.8 235.7,139.8 235.7,135.8 239.7,135.8 
	239.7,131.9 243.7,131.9 243.7,135.8 247.7,135.8 247.7,139.8 251.7,139.8 251.7,143.8 255.7,143.8 255.7,147.8 259.7,147.8 
	259.7,151.8 263.7,151.8 263.7,155.8 267.7,155.8 267.7,151.8 271.7,151.8 271.7,147.8 275.7,147.8 275.7,143.8 279.7,143.8 
	279.7,139.8 283.7,139.8 283.7,135.8 287.7,135.8 287.7,131.9 291.7,131.9 291.7,135.8 295.7,135.8 295.7,139.8 299.7,139.8 
	299.7,143.8 303.7,143.8 303.7,147.8 307.7,147.8 307.7,151.8 311.7,151.8 311.7,155.8 315.7,155.8 315.7,151.8 319.6,151.8 
	319.6,147.8 323.6,147.8 323.6,143.8 327.6,143.8 327.6,139.8 331.6,139.8 331.6,135.8 335.6,135.8 335.6,131.9 339.6,131.9 
	339.6,135.8 343.6,135.8 343.6,139.8 347.6,139.8 347.6,143.8 351.6,143.8 351.6,147.8 355.6,147.8 355.6,151.8 359.6,151.8 
	359.6,155.8 363.6,155.8 363.6,151.8 367.6,151.8 367.6,147.8 371.6,147.8 371.6,143.8 375.6,143.8 375.6,139.8 379.6,139.8 
	379.6,135.8 383.6,135.8 383.6,131.9 387.6,131.9 387.6,135.8 391.6,135.8 391.6,139.8 395.6,139.8 395.6,143.8 399.6,143.8 
	399.6,147.8 403.6,147.8 403.6,151.8 407.5,151.8 407.5,155.8 411.5,155.8 411.5,151.8 415.5,151.8 415.5,147.8 419.5,147.8 
	419.5,143.8 423.5,143.8 423.5,139.8 427.5,139.8 427.5,135.8 431.5,135.8 431.5,131.9 435.5,131.9 435.5,135.8 439.5,135.8 
	439.5,139.8 443.5,139.8 443.5,143.8 447.5,143.8 447.5,147.8 451.5,147.8 451.5,151.8 455.5,151.8 455.5,155.8 459.5,155.8 
	459.5,151.8 463.5,151.8 463.5,147.8 467.5,147.8 467.5,143.8 471.5,143.8 471.5,139.8 475.5,139.8 475.5,135.8 479.5,135.8 
	479.5,47.9 "/>
<path class="st5" d="M480,99.5c-0.1,0-0.2,0-0.2,0c-0.6,0.4-1.2,0.3-1.9,0.2c-0.3-0.1-0.4,0-0.5,0.2c-2.8,4.5-5.5,9.1-8.3,13.6
	c-0.9,1.4-1.7,2.8-2.6,4.2c-0.1,0.2-0.3,0.5-0.5,0.7c-0.4,0.4-0.7,0.4-1-0.1c-0.1-0.2-0.2-0.5-0.3-0.7c-1.7-4.4-3.3-8.7-5-13.1
	c-0.9-2.3-1.7-4.6-2.6-6.9c-0.1-0.3-0.3-0.5-0.6-0.5c-0.1,0-0.1,0-0.2,0c-0.8-0.3-1.3,0.1-1.7,0.7c-3.5,5.1-7,10.1-10.6,15.1
	c-0.3,0.4-0.6,0.9-0.9,1.4c-0.7,0.9-1.2,0.8-1.6-0.2c-0.4-1.2-0.8-2.4-1.2-3.5c-1.8-5.6-3.7-11.2-5.5-16.8c-0.1-0.3-0.2-0.4-0.5-0.4
	c-0.3,0-0.6-0.1-0.9-0.1c-0.2,0-0.3,0.1-0.4,0.2c-1.9,2.4-3.7,4.7-5.6,7.1c-2.4,3.1-4.9,6.3-7.3,9.4c-0.2,0.2-0.4,0.4-0.6,0.6
	c-0.5,0.5-0.9,0.5-1.2-0.2c-0.2-0.4-0.4-0.9-0.5-1.4c-1.6-5.7-3.1-11.4-4.7-17.1c-0.3-0.9-0.5-1.9-0.7-2.8c-0.1-0.2-0.2-0.3-0.4-0.4
	c-0.3-0.1-0.7-0.1-1-0.2c-0.3-0.1-0.5,0-0.7,0.2c-2,2.3-4,4.7-6,7c-2.1,2.5-4.3,4.9-6.4,7.4c-0.3,0.4-0.6,0.7-0.9,1.1
	c-0.2,0.2-0.4,0.4-0.7,0.6c-0.3,0.2-0.7,0.2-0.9-0.2c-0.2-0.3-0.3-0.5-0.3-0.8c-1.3-5.5-2.6-11-3.8-16.5c-0.2-1-0.4-2-0.6-3.1
	c0-0.2-0.2-0.4-0.4-0.4c-0.6-0.1-1.2-0.2-1.8-0.4c-0.3-0.1-0.5,0-0.7,0.2c-2.3,2.6-4.7,5.3-7,7.9c-1.7,1.9-3.5,3.8-5.2,5.8
	c-0.4,0.5-0.8,0.9-1.2,1.4c-0.2,0.2-0.4,0.4-0.6,0.5c-0.4,0.3-0.7,0.2-0.9-0.3c-0.1-0.3-0.2-0.7-0.3-1.1c-0.7-3.9-1.3-7.8-2-11.7
	c-0.4-2.5-0.8-5.1-1.2-7.6c0-0.3-0.1-0.4-0.4-0.5c-0.5-0.2-1.1-0.4-1.6-0.6c-0.1,0-0.2-0.1-0.3-0.1c-0.7-0.3-1.2-0.1-1.7,0.4
	c-1.2,1.3-2.5,2.6-3.8,3.8c-2.9,2.8-5.7,5.6-8.6,8.3c-0.3,0.3-0.6,0.6-0.9,1c-0.2,0.2-0.3,0.3-0.5,0.4c-0.5,0.3-0.9,0.2-1.1-0.3
	c-0.1-0.4-0.2-0.7-0.3-1.1c-0.8-6.2-1.6-12.4-2.3-18.7c0-0.2-0.1-0.4-0.4-0.5c-0.9-0.3-1.8-0.7-2.7-1.1c-0.1,0-0.3,0-0.5,0.1
	c-1.6,1.4-3.2,2.8-4.7,4.3c-2.7,2.5-5.4,5-8.1,7.5c-0.5,0.4-1,0.9-1.5,1.3c-0.8,0.7-1.3,0.5-1.4-0.6c-0.2-1.9-0.4-3.7-0.6-5.6
	c-0.5-4.8-0.9-9.5-1.4-14.3c0-0.3-0.1-0.5-0.4-0.6c-0.1,0-0.1-0.1-0.2-0.1c-0.7-0.2-1.5-0.4-2-1.1c0-0.1,0.1-0.3,0.1-0.4
	c0.3,0,0.6,0,0.9,0.1c1,0.3,1.9,0.7,2.8,1.1c4.2,1.9,8.4,3.6,12.7,5.3c3.3,1.3,6.7,2.6,10,3.8c2.7,1,5.3,2,8,2.9
	c4.7,1.5,9.4,3,14.2,4.4c6.4,1.8,12.8,3.6,19.3,5.3c5.3,1.3,10.6,2.4,15.9,3.6c5.8,1.3,11.6,2.7,17.5,3.8c5,0.9,9.9,1.9,14.9,2.8
	c4.1,0.8,8.3,1.5,12.4,2.1c4.3,0.7,8.5,1.3,12.8,1.8c4.3,0.5,8.7,1,13.1,1.5c0.5,0.1,1,0,1.2,0.5c0,0,0.1,0,0.1,0
	C480,99.1,480,99.3,480,99.5z M415.4,95.4c0,0.2,0.1,0.2,0.1,0.3c0.5,1.7,1,3.4,1.4,5.1c0.1,0.3,0.2,0.5,0.6,0.6c2,0.5,4,1,6,1.5
	c0.1,0,0.4,0,0.4-0.1c1.1-1.4,2.2-2.8,3.3-4.2c0-0.1,0-0.1,0.1-0.2C423.4,97.4,419.4,96.7,415.4,95.4z M371.6,84.2
	c0,0.1,0,0.2,0,0.3c0.2,1.3,0.5,2.6,0.7,4c0,0.1,0.2,0.3,0.3,0.4c2.2,0.8,4.6,1.3,6.9,1.8c0.1,0,0.3-0.1,0.4-0.2
	c0.8-0.8,1.6-1.7,2.4-2.5c0.1-0.1,0.2-0.3,0.4-0.5C378.8,86.7,375.2,85.4,371.6,84.2z M472.4,105.5c-3.9-0.1-7.6-0.4-11.4-1.3
	c0.1,0.3,0.1,0.4,0.2,0.6c0.3,0.8,0.6,1.5,0.8,2.3c0.2,0.7,0.6,1,1.3,1.2c2.1,0.4,4.2,0.8,6.3,1.2c0.2,0,0.4,0,0.5-0.2
	c0.5-0.8,1-1.5,1.4-2.2C471.9,106.5,472.1,106,472.4,105.5z M328.4,68.5c0,0.2,0,0.3,0,0.4c0.1,1,0.3,2.1,0.3,3.1
	c0,0.6,0.2,0.9,0.8,1.1c2,0.7,4,1.5,6,2.2c0.3,0.1,0.4,0,0.6-0.1c0.3-0.3,0.7-0.6,1-0.8c0.5-0.5,1.1-0.9,1.6-1.4
	c0.3-0.3,0.2-0.4-0.1-0.5c-3.3-1-6.4-2.3-9.5-3.7C328.9,68.7,328.7,68.6,328.4,68.5z M441.3,109.3c0,0,0.1,0,0.1,0
	c0-0.1,0.1-0.2,0.1-0.4c0.3-1.8,0.6-3.7,1-5.5c0.5-2.7,0.9-5.5,1.4-8.2c0-0.3,0-0.4-0.3-0.4c-0.6-0.1-1.3-0.2-1.9-0.3
	c-0.3-0.1-0.4,0-0.5,0.4c-0.5,3.2-0.9,6.3-1.4,9.5c0,0.2,0,0.3,0.1,0.5c0.2,0.8,0.5,1.5,0.8,2.3C440.8,107.8,441,108.6,441.3,109.3z
	 M444.4,110c0,0,0.1,0,0.1,0c0.1-0.1,0.1-0.2,0.2-0.3c0.6-0.8,1.1-1.6,1.7-2.4c0.5-0.6,0.8-1.3,0.9-2.1c0.1-0.7,0.2-1.4,0.3-2.1
	c0.5-2.3,0.9-4.7,1.4-7c0.1-0.3,0-0.4-0.3-0.5c-0.5-0.1-0.9-0.2-1.4-0.2c-0.9-0.1-0.8-0.3-0.9,0.7c-0.6,3.9-1.2,7.8-1.8,11.7
	C444.6,108.6,444.5,109.3,444.4,110z M458.3,97.3c0,0.8,0.3,1.3,1.1,1.4c0.4,0.1,0.9,0.1,1.3,0.1c2.4,0.3,4.7,0.7,7.1,1
	c2.5,0.3,5,0.5,7.5,0.7c0.1,0,0.3,0,0.4-0.1c0.2-0.3,0.4-0.6,0.6-1C470.3,98.7,464.3,98,458.3,97.3z M413.6,89c0,0.9,0.2,1.2,1,1.4
	c0.1,0,0.3,0.1,0.4,0.1c2,0.4,4,0.9,6,1.3c3.1,0.7,6.3,1.3,9.4,1.9c0.6,0.1,1-0.1,1.3-0.6c0.1-0.2,0.1-0.3-0.2-0.4
	c-2.5-0.5-4.9-1-7.4-1.5c-3.3-0.7-6.6-1.4-9.8-2.1C414.1,89.1,413.8,89,413.6,89z M398.7,100.2c0.1-0.1,0.2-0.1,0.2-0.2
	c0.6-0.6,1-1.2,1.2-2c0.6-1.7,1.1-3.4,1.6-5c0.6-1.9,1.2-3.9,1.8-5.8c0.1-0.3,0.1-0.4-0.3-0.5c-0.4-0.1-0.8-0.2-1.2-0.3
	c-0.3-0.1-0.4,0-0.5,0.3c-1,4.4-1.9,8.8-2.9,13.1C398.8,99.9,398.8,100,398.7,100.2z M395.6,99.5c0-0.1,0.1-0.2,0.1-0.3
	c0.5-2.1,1-4.2,1.5-6.3c0.5-2.3,1.1-4.5,1.6-6.8c0.1-0.3,0-0.4-0.3-0.5c-0.3,0-0.5-0.1-0.7-0.2c-0.4-0.1-0.5,0-0.6,0.4
	c-0.4,2.3-0.8,4.5-1.2,6.8c-0.3,1.6-0.5,3.1-0.8,4.7C395.2,98.1,395.2,98.8,395.6,99.5z M353.9,86.8c0.7-0.3,1.3-0.7,1.5-1.5
	c0.1-0.4,0.2-0.7,0.3-1.1c1-3,2.1-6,3.1-9c0.2-0.7,0.2-0.7-0.5-0.9c-0.2,0-0.3,0-0.4,0.2c-0.2,0.6-0.4,1.3-0.6,1.9
	c-0.9,2.6-1.7,5.2-2.6,7.9C354.5,85.1,354.2,86,353.9,86.8z M327.6,62.2c0,0.4,0,0.7,0.4,0.9c1.1,0.5,2.2,1.1,3.3,1.6
	c3.7,1.7,7.5,3.1,11.3,4.5c0.3,0.1,0.6-0.1,0.7-0.5C338,66.9,332.7,64.7,327.6,62.2z M370.3,78.2c0.1,0.4,0,0.7,0.4,0.8
	c1.2,0.4,2.3,0.8,3.5,1.1c2.8,0.7,5.7,1.4,8.5,2.1c1,0.2,2,0.5,3,0.7c0.3,0.1,0.7,0.2,1.1,0C381.4,81.3,375.9,79.8,370.3,78.2z
	 M351,85.8c0,0,0.1,0,0.1,0c0-0.1,0.1-0.2,0.1-0.3c0.4-1.2,0.8-2.5,1.3-3.7c0.9-2.7,1.9-5.4,2.8-8.1c0.2-0.5-0.2-0.4-0.5-0.5
	c-0.2-0.1-0.4-0.1-0.5,0.2c-0.2,1-0.5,2-0.8,3c-0.8,2.7-1.5,5.4-2.3,8C351.2,84.9,351.1,85.3,351,85.8z M371.3,82.9
	c-0.1,0.4,0.1,0.5,0.4,0.6c3.4,1.4,7,2.3,10.5,3.1c0.3,0.1,0.7,0,1,0c0.2,0,0.4-0.2,0.5-0.3c0,0,0-0.1,0-0.1
	C379.5,85.4,375.4,84.3,371.3,82.9z M460.5,102.9c0.1,0.4,0.2,0.5,0.5,0.5c1.7,0.3,3.4,0.7,5.2,0.9c2,0.2,3.9,0.3,5.9,0.4
	c0.2,0,0.5,0,0.7-0.1c0.1,0,0.2-0.2,0.3-0.2c0,0,0-0.1,0-0.1C468.8,104.3,464.7,103.6,460.5,102.9z M373.2,93.3
	c0.2,1.3,0.4,2.5,0.6,3.7c0,0,0.1,0,0.1,0c0.9-1,1.8-1.9,2.7-2.9C375.4,93.9,374.3,93.6,373.2,93.3z M328.2,67.1
	c-0.1,0.3,0.1,0.5,0.4,0.7c1.1,0.5,2.2,1,3.3,1.5c2.3,1,4.6,1.9,7.1,2.5c0.1,0,0.3,0,0.4,0.1C335.6,70.3,331.9,68.7,328.2,67.1z
	 M465.7,116.3c0,0,0.1,0,0.1,0c0.6-1,1.2-1.9,1.8-2.9c-1.1-0.1-2.1-0.3-3.2-0.4C464.8,114.1,465.2,115.2,465.7,116.3z M348.9,71
	c0.2,1.6,0.5,3.2,0.7,4.8c0,0,0.1,0,0.1,0c0.4-1.3,0.8-2.6,1.2-3.9c0-0.1-0.1-0.2-0.1-0.2C350.2,71.5,349.6,71.2,348.9,71z
	 M396,101.4c0,0,0.1,0,0.1,0c0-0.1,0.1-0.1,0.1-0.2c0.3-1.2,0.6-2.5,0.9-3.7c0.9-3.6,1.8-7.2,2.7-10.7c0-0.2,0.1-0.4,0.1-0.5
	c0-0.1-0.1-0.3-0.1-0.4c0,0-0.1,0-0.1,0c0,0.1-0.1,0.3-0.1,0.4c-0.7,2.7-1.3,5.5-1.9,8.2c-0.5,1.9-0.9,3.8-1.4,5.7
	C396.1,100.6,396.1,101,396,101.4z M361.8,79.4C361.8,79.4,361.9,79.4,361.8,79.4c1.1-0.9,2.1-1.8,3.1-2.8c0,0,0-0.1-0.1-0.1
	c-0.5-0.2-1.1-0.3-1.6-0.5c-0.2-0.1-0.3,0-0.4,0.2c-0.2,0.7-0.5,1.3-0.7,2C362,78.6,361.9,79,361.8,79.4z M428.1,97.6
	c0,0,0-0.1,0-0.1l-12.9-3.1c0.1,0.1,0.1,0.2,0.2,0.2c0.2,0.1,0.5,0.2,0.7,0.3c3.7,1.3,7.5,1.8,11.3,2.7
	C427.6,97.7,427.9,97.6,428.1,97.6z M356.2,73.6c0,0-0.1,0-0.1-0.1c0,0.1-0.1,0.2-0.1,0.3c-0.5,1.3-0.9,2.6-1.4,3.9
	c-0.8,2.4-1.6,4.8-2.4,7.2c-0.3,0.8-0.5,1.7-0.8,2.5c0,0.2,0,0.3,0,0.5c0,0,0,0,0,0C353,83.2,354.6,78.4,356.2,73.6z M329.8,81.1
	c0.8-0.7,1.4-1.3,2.1-2c-0.9-0.3-1.6-0.5-2.5-0.8C329.5,79.2,329.6,80.1,329.8,81.1z M394,85c0,0-0.1,0-0.1,0
	c-0.2,0.7-0.3,1.3-0.5,2c0,0.1,0.1,0.2,0.2,0.2c0.3,0.1,0.5,0.1,0.8,0.1c0.4,0,0.9,0.1,1.4,0.1C395.3,86.5,394.6,85.8,394,85z
	 M445.9,95.3c-0.1,0-0.1,0-0.2,0c-0.7,4.7-1.4,9.5-2.1,14.2c0.1-0.3,0.2-0.6,0.3-0.9c0.7-4.1,1.4-8.2,2-12.3
	C445.9,96,445.9,95.6,445.9,95.3z M419.2,108.7c0,0,0.1,0,0.1,0c0.5-0.6,0.9-1.2,1.5-1.9c-0.8-0.2-1.5-0.3-2.3-0.5
	C418.7,107.1,419,107.9,419.2,108.7z M441.9,110.8c0,0,0.1,0,0.1,0c0.1-0.2,0.1-0.5,0.2-0.7c0.5-3.1,1-6.1,1.5-9.2
	c0.3-1.8,0.6-3.6,0.9-5.4c0-0.1,0-0.3,0-0.4c-0.1,0-0.1,0-0.2,0C443.6,100.3,442.8,105.5,441.9,110.8z M406.9,88
	C406.9,88,406.9,88,406.9,88c-0.8,0.3-1.6,0.4-2.3,0.9c0.6,0.5,1.2,0.9,1.8,1.4C406.6,89.5,406.7,88.7,406.9,88z M403.5,91.4
	c0.8-0.2,1.5-0.4,2.2-0.6c0,0,0-0.1,0.1-0.1c-0.6-0.5-1.1-0.9-1.8-1.4C403.8,90.1,403.7,90.7,403.5,91.4z M393.1,88.7
	c-0.2,0.8,0.2,1.5,0.3,2.2c0.6-0.2,1.1-0.3,1.7-0.5C394.5,89.7,394,89.1,393.1,88.7z M359.2,77.4c-0.2,0.8-0.5,1.5-0.7,2.3
	c0.8-0.3,1.5-0.5,2.2-0.7C360.2,78.4,359.7,78,359.2,77.4z M361.8,76.1c0,0-0.1-0.1-0.1-0.1c-0.7,0.3-1.4,0.5-2.1,0.8
	c0.5,0.5,1,0.9,1.5,1.4C361.3,77.5,361.6,76.8,361.8,76.1z M403.6,92.2c0.3,0.3,0.6,0.6,0.9,0.8c0.1,0.1,0.2,0.2,0.4,0
	c0.3-0.3,0.6-0.6,0.8-0.9c0.1-0.2,0.2-0.4,0.4-0.6C405.2,91.7,404.4,91.8,403.6,92.2z M352.8,74.8c-0.4-0.7-0.7-1.3-1.1-1.9
	c0,0-0.1,0-0.1,0c-0.2,0.7-0.3,1.4-0.5,2.2C351.7,75,352.2,74.9,352.8,74.8z M398.2,98.4c0,0,0.1,0,0.1,0c0.2-0.7,0.3-1.5,0.5-2.2
	c0.7-3.2,1.5-6.4,2.2-9.6c0-0.1,0-0.2,0-0.4c0,0-0.1,0-0.1,0C400.1,90.3,399.1,94.3,398.2,98.4z M454.1,96.6
	c-0.4-0.1-0.8-0.1-1.1-0.2c-0.1,0-0.2,0.1-0.2,0.2c-0.1,0.7-0.3,1.5-0.4,2.2c0,0,0.1,0,0.1,0.1C453,98.2,453.5,97.4,454.1,96.6z
	 M436.8,96.1c0,0,0.1,0,0.1,0c0.1-0.7,0.2-1.4,0.3-2.1c0-0.1-0.1-0.2-0.1-0.2c-0.4-0.1-0.7-0.1-1.2-0.2
	C436.2,94.4,436.5,95.3,436.8,96.1z M407.6,89.9C407.6,90,407.7,90,407.6,89.9c0.7-0.6,1.2-1.2,1.9-1.9c-0.2,0-0.3-0.1-0.4-0.1
	c-1-0.2-1-0.2-1.2,0.7C407.8,89.1,407.7,89.5,407.6,89.9z M438.3,95.6c0.5,0.4,0.9,0.8,1.4,1.2c0.1-0.7,0.2-1.3,0.3-2
	C439.5,95,438.9,95.3,438.3,95.6z M392.3,86.5c0.1,0,0.1,0,0.2,0c0.1-0.6,0.3-1.2,0.4-1.8c0-0.1,0-0.3,0-0.3
	c-0.4-0.1-0.8-0.2-1.2-0.3C391.9,84.9,392.1,85.7,392.3,86.5z M393.7,88C393.7,88.1,393.7,88.1,393.7,88c0.5,0.6,1.1,1.1,1.7,1.6
	c0.1-0.5,0.2-1,0.3-1.5C395,88.1,394.4,88.1,393.7,88z M437.9,98.4c0.5,0.4,0.9,0.8,1.3,1.2c0.1-0.6,0.3-1.1,0.4-1.6
	C439,98,438.4,98,437.9,98.4z M332.6,78.4c0-0.1,0-0.1,0-0.2c-1.1-0.4-2.1-0.8-3.2-1.2c0,0-0.1,0.1-0.1,0.1c0.1,0.1,0.1,0.3,0.2,0.4
	c0.8,0.3,1.6,0.6,2.4,0.9C332.1,78.4,332.3,78.4,332.6,78.4z M357.2,74.6c0,0-0.1,0-0.1,0c-0.5,0.9-2.1,6.6-2,6.9
	C355.8,79.2,356.5,76.9,357.2,74.6z M450,96.5c-0.1,0.7-0.2,1.2-0.3,1.8c0,0,0.1,0.1,0.1,0.1c0.5-0.2,0.9-0.4,1.4-0.7
	C450.8,97.3,450.4,97,450,96.5z M450.9,100.8c-0.5-0.4-0.9-0.7-1.4-1.1c-0.1,0.6-0.2,1.1-0.3,1.8C449.8,101.2,450.3,101,450.9,100.8
	z M396,86.4c0,0,0.1,0,0.1,0c0.1-0.4,0.2-0.7,0.2-1.1c0-0.1-0.1-0.2-0.1-0.2c-0.5-0.1-1-0.2-1.5-0.4C395.1,85.4,395.6,85.9,396,86.4
	z M352.7,75.6c0,0-0.1-0.1-0.1-0.1c-0.5,0.1-1,0.2-1.5,0.3c0.4,0.5,0.7,0.8,1.2,1.3C352.4,76.6,352.5,76.1,352.7,75.6z M359.8,81.5
	c0.2-0.6,0.4-1.1,0.6-1.5c0,0-0.1-0.1-0.1-0.1c-0.5,0.2-1,0.4-1.6,0.6C359.1,80.8,359.4,81.1,359.8,81.5z M467.7,101.1
	c0.3,0.6,0.5,1,0.7,1.5c0.4-0.5,0.7-0.8,1.1-1.3C468.9,101.2,468.3,101.2,467.7,101.1z M422.9,93.5c-0.6-0.1-1.2-0.3-1.8-0.4
	c0.2,0.5,0.4,1,0.7,1.5C422.1,94.2,422.5,93.9,422.9,93.5z M463.9,111.8c0.3,0.6,3.4,1.1,4,0.6C466.6,112.3,465.3,112.1,463.9,111.8
	z M351.3,80.1c0.2-0.5,0.3-0.9,0.4-1.3c0-0.1-0.1-0.3-0.1-0.3c-0.4-0.1-0.9-0.1-1.3-0.1c0,0,0,0.1-0.1,0.1
	C350.5,79,350.9,79.5,351.3,80.1z M469,103c0.6,0.1,1.1,0.1,1.8,0.2c-0.3-0.6-0.5-1-0.7-1.5C469.7,102.1,469.4,102.5,469,103z
	 M418.2,105.1c0,0.1,0,0.1-0.1,0.2c0.1,0.1,0.2,0.2,0.4,0.2c0.8,0.2,1.6,0.4,2.4,0.7c0.3,0.1,0.5,0,0.6-0.3
	C420.4,105.6,419.3,105.4,418.2,105.1z M461.4,100.2c0,0,0-0.1-0.1-0.1c-0.5-0.1-1-0.2-1.5-0.3c0,0,0,0.1,0,0.1
	c0.2,0.4,0.4,0.8,0.7,1.3C460.8,100.8,461.1,100.5,461.4,100.2z M406.4,87.4c-0.6-0.1-1.1-0.3-1.6-0.4c-0.1,0-0.2,0-0.2,0.1
	c-0.1,0.3-0.2,0.7-0.3,1.1C405.1,87.9,405.7,87.7,406.4,87.4z M467,101.3c-0.4,0.4-0.6,0.8-1,1.2c0.6,0.1,1.1,0.2,1.7,0.3
	C467.5,102.3,467.3,101.9,467,101.3z M470.6,101.5c0.3,0.5,0.5,1,0.8,1.5c0.3-0.5,0.7-0.8,0.8-1.3
	C471.7,101.6,471.2,101.5,470.6,101.5z M377.2,93.3c-1.4-0.3-2.8-0.6-4.2-1C373.3,92.8,376.8,93.6,377.2,93.3z M371.8,80.5
	c0,0-0.1,0.1-0.1,0.1c0.2,0.4,0.2,1,0.6,1.5c0.3-0.4,0.6-0.7,0.9-1.1C372.7,80.8,372.3,80.6,371.8,80.5z M473.5,103.4
	C473.5,103.4,473.6,103.3,473.5,103.4c-0.1-0.5-0.4-0.9-0.6-1.3c-0.3,0.4-0.6,0.8-1,1.2C472.5,103.3,473,103.4,473.5,103.4z
	 M437.8,97.6c0.5-0.1,1-0.2,1.5-0.3c-0.5-0.4-0.9-0.7-1.4-1.1C437.9,96.7,437.8,97.1,437.8,97.6z M353.1,73.9c0,0,0.1,0,0.1,0
	c0.1-0.3,0.2-0.6,0.3-0.9c0-0.1,0-0.2,0-0.3c-0.4-0.2-0.8-0.3-1.1-0.4c0,0,0,0.1-0.1,0.1C352.5,72.9,352.8,73.4,353.1,73.9z
	 M381.9,83.3c0.2,0.5,0.4,0.9,0.6,1.3c0.4-0.3,0.7-0.6,1.1-0.9C383,83.5,382.5,83.4,381.9,83.3z M426.7,95.5
	c0.4-0.3,0.7-0.6,1.1-0.9c-0.6-0.1-1.1-0.2-1.7-0.4C426.4,94.7,426.5,95.1,426.7,95.5z M416.4,91.9c0.2,0.5,0.4,0.9,0.6,1.4
	c0.3-0.4,0.6-0.7,1-1C417.4,92.1,416.9,92,416.4,91.9z M361.4,75.5c0,0,0-0.1,0-0.1c-0.4-0.1-0.9-0.3-1.4-0.4
	c-0.1,0.4-0.2,0.8-0.4,1.2C360.3,75.9,360.8,75.7,361.4,75.5z M379.3,82.7c0.2,0.5,0.3,0.9,0.5,1.3c0.4-0.3,0.7-0.6,1.1-0.9
	C380.4,82.9,379.9,82.8,379.3,82.7z M465,100.7c0.2,0.5,0.3,0.9,0.5,1.4c0.4-0.4,0.6-0.7,1-1.1C466,100.8,465.5,100.8,465,100.7z
	 M393.6,91.6c0.5,0.3,0.8,0.6,1.3,0.9c0.1-0.5,0.1-0.9,0.2-1.4C394.6,91.3,394.1,91.4,393.6,91.6z M449.9,99.1
	c0.4,0.3,0.7,0.5,1.1,0.9c0.1-0.5,0.2-1,0.2-1.4c0,0-0.1,0-0.1-0.1C450.8,98.7,450.4,98.9,449.9,99.1z M374.3,81.4
	c0.2,0.5,0.3,0.9,0.5,1.3c0.4-0.3,0.6-0.6,1-1C375.3,81.6,374.8,81.5,374.3,81.4z M463.3,102.1c0.6,0.1,1,0.2,1.6,0.3
	c-0.2-0.5-0.3-0.9-0.5-1.3C464.1,101.4,463.7,101.7,463.3,102.1z M463.9,100.6c0,0,0-0.1-0.1-0.1c-0.5,0-0.9-0.3-1.5-0.2
	c0.2,0.4,0.3,0.8,0.5,1.2C463.3,101.2,463.6,100.9,463.9,100.6z M423.7,93.7c0.2,0.5,0.4,0.9,0.6,1.3c0.3-0.4,0.6-0.7,0.9-1
	C424.7,94,424.3,93.9,423.7,93.7z M462.4,101.9c-0.2-0.5-0.4-0.9-0.5-1.3c-0.3,0.4-0.6,0.7-1,1.1
	C461.4,101.8,461.9,101.9,462.4,101.9z M416.2,93.5c0,0,0.1-0.1,0.1-0.1c-0.2-0.4-0.3-0.8-0.5-1.3c-0.3,0.4-0.6,0.7-0.9,1
	C415.4,93.2,415.8,93.4,416.2,93.5z M420.2,92.9c-0.5-0.1-0.9-0.2-1.4-0.3c0.2,0.5,0.3,0.9,0.5,1.4
	C419.7,93.5,419.9,93.2,420.2,92.9z M350.7,76.5c-0.1,0.5-0.3,0.8-0.4,1.2c0.5,0,0.9,0.1,1.3,0.1c0,0,0-0.1,0.1-0.1
	C351.4,77.4,351.1,77,350.7,76.5z M359.2,81.8c-0.4-0.3-0.7-0.6-1.1-1c-0.1,0.5-0.2,0.8-0.3,1.2C358.2,82,358.7,81.9,359.2,81.8z
	 M377.2,83.3c0.4-0.3,0.6-0.6,1-0.9c-0.5-0.1-0.9-0.3-1.4-0.4C376.9,82.5,377,82.8,377.2,83.3z M331,74.9c-0.5-0.2-0.8-0.4-1.2-0.6
	c0,0,0,0.1-0.1,0.1c0.1,0.4,0.2,0.8,0.3,1.2C330.4,75.4,330.6,75.2,331,74.9z M428.3,95.1c-0.4,0.3-0.7,0.6-1,0.8c0,0,0,0.1,0,0.1
	c0.4,0.1,0.9,0.1,1.4,0.2C428.6,95.8,428.5,95.5,428.3,95.1z M438.1,94.8c0,0,0.1,0,0.1,0.1c0.5-0.2,0.9-0.4,1.4-0.7
	c0,0,0-0.1,0-0.1c-0.4-0.1-0.8-0.1-1.3-0.2C438.2,94.3,438.1,94.6,438.1,94.8z M474.1,102.9c0.3-0.4,0.5-0.7,0.7-1.1
	c-0.5,0-0.9,0-1.4-0.1C473.7,102.2,473.9,102.5,474.1,102.9z M404,93.7C404,93.7,404,93.6,404,93.7c-0.2-0.4-0.5-0.6-0.9-1
	c-0.1,0.4-0.2,0.8-0.3,1.1C403.2,93.8,403.6,93.7,404,93.7z M339.4,69.5c-0.4-0.2-0.8-0.3-1.2-0.5c0,0-0.1,0.1-0.1,0.1
	c0.1,0.3,0.2,0.8,0.4,0.8c0.2,0.1,0.6-0.2,0.9-0.3C339.4,69.6,339.4,69.6,339.4,69.5z M328.3,64.5c0,0-0.1,0-0.1,0.1
	c0.1,0.3,0.2,0.7,0.4,1c0.3-0.1,0.5-0.2,0.8-0.4c0,0,0-0.1,0.1-0.1C329.1,64.9,328.7,64.7,328.3,64.5z M336.9,68.5
	c-0.5-0.2-0.9-0.3-1.2-0.5c0,0-0.1,0.1-0.1,0.1c0.1,0.3,0.1,0.6,0.3,0.8c0.1,0.1,0.5-0.2,0.8-0.3C336.7,68.7,336.8,68.6,336.9,68.5z
	 M430.2,95c-0.5-0.1-0.8-0.1-1.3-0.2c0.2,0.4,0.3,0.8,0.5,1.2C429.7,95.6,429.9,95.3,430.2,95z M332,76.5c0.4-0.3,0.6-0.5,1-0.8
	c-0.4-0.2-0.7-0.3-1.2-0.5C331.8,75.7,331.9,76.1,332,76.5z M417.4,93.7c0.5,0.1,0.8,0.2,1.3,0.3c-0.2-0.4-0.3-0.8-0.4-1.2
	C417.9,93.2,417.7,93.4,417.4,93.7z M394.4,94.6c0,0,0.1,0,0.1,0c0-0.3,0.1-0.6,0.1-0.9c0.1-0.5-0.1-0.7-0.7-0.8
	C394.1,93.5,394.2,94,394.4,94.6z M332.5,77c0.5,0.1,0.8,0.2,1.2,0.3c-0.1-0.4-0.1-0.7-0.2-1.1C333.1,76.5,332.8,76.7,332.5,77z
	 M330.2,66.8C330.3,66.8,330.3,66.7,330.2,66.8c0-0.3-0.1-0.6-0.2-0.8c0-0.1-0.2-0.2-0.2-0.1c-0.3,0.1-0.5,0.2-0.8,0.4
	c0,0,0,0.1,0,0.1C329.5,66.5,329.9,66.6,330.2,66.8z M422.4,94.9c0.4,0.1,0.8,0.2,1.3,0.3c-0.2-0.4-0.4-0.7-0.5-1.1
	C422.9,94.4,422.7,94.6,422.4,94.9z M378.9,83.8c0,0,0.1-0.1,0.1-0.1c-0.1-0.3-0.2-0.6-0.4-0.9c-0.3,0.3-0.6,0.5-0.9,0.8
	C378.3,83.7,378.6,83.8,378.9,83.8z M332.8,67.8c-0.1-0.4-0.1-0.7-0.2-1.1c-0.4,0.2-0.7,0.4-1,0.5c0,0,0,0.1,0,0.1
	C332,67.5,332.4,67.7,332.8,67.8z M373.6,91.3c0.3-0.3,0.5-0.5,0.8-0.8c-0.4-0.1-0.8-0.3-1.3-0.4C373.3,90.5,373.5,90.9,373.6,91.3z
	 M414.2,91.3c0.1,0.4,0.2,0.8,0.3,1.2c0.3-0.3,0.5-0.6,0.8-0.9C414.9,91.5,414.6,91.4,414.2,91.3z M450.7,96.1
	C450.6,96.1,450.6,96.2,450.7,96.1c0.3,0.4,0.6,0.7,1,1.1c0.1-0.3,0.1-0.5,0.2-0.7c0-0.1-0.1-0.2-0.1-0.2
	C451.3,96.2,451,96.1,450.7,96.1z M333.5,67.1C333.4,67.1,333.4,67.1,333.5,67.1c0,0.4,0,0.7,0.1,1.1c0.3-0.2,0.6-0.4,0.9-0.7
	C334.1,67.4,333.8,67.2,333.5,67.1z M465.4,109.8c-0.4-0.1-0.8-0.2-1.2-0.3c0,0,0,0.1-0.1,0.1c0.2,0.3,0.3,0.6,0.5,1
	C465,110.3,465.2,110.1,465.4,109.8z M418.1,103.6c0.3-0.2,0.6-0.4,1-0.6c-0.5-0.2-0.8-0.3-1.3-0.4C417.9,103,418,103.3,418.1,103.6
	z M384.2,84c-0.3,0.3-0.5,0.5-0.8,0.7c0.4,0.1,0.8,0.2,1.3,0.3C384.4,84.6,384.3,84.3,384.2,84z M421,94.6c-0.2-0.4-0.3-0.7-0.4-1.1
	c-0.2,0.3-0.5,0.5-0.7,0.8C420.2,94.4,420.6,94.5,421,94.6z M374.1,82.6c-0.2-0.4-0.3-0.8-0.4-1.2c-0.2,0.3-0.4,0.5-0.7,0.8
	C373.4,82.4,373.7,82.5,374.1,82.6z M330.8,65.9c0,0,0,0.1-0.1,0.1c0.1,0.3,0.2,0.6,0.3,0.9c0.3-0.2,0.5-0.4,0.8-0.6
	C331.5,66.1,331.2,66,330.8,65.9z M426.1,95.7c-0.2-0.4-0.3-0.7-0.5-1c-0.3,0.3-0.5,0.5-0.7,0.7C425.4,95.5,425.7,95.6,426.1,95.7z
	 M466.4,110c0.2,0.3,0.3,0.6,0.5,0.9c0.2-0.2,0.4-0.4,0.6-0.6C467.1,110.2,466.8,110.1,466.4,110z M421.7,103.9
	c-0.3,0.2-0.5,0.4-0.7,0.6c0,0,0,0.1,0,0.1c0.3,0,0.7,0.1,1.1,0.1C422,104.4,421.9,104.1,421.7,103.9z M377.5,92.1
	c-0.2-0.3-0.3-0.6-0.4-0.8c-0.3,0.2-0.5,0.4-0.8,0.5c0,0,0,0.1,0,0.1C376.7,92,377.1,92.1,377.5,92.1z M418.7,104c0,0.1,0,0.1,0,0.2
	c0.3,0.1,0.7,0.1,1,0.2c0-0.1,0.1-0.1,0.1-0.2c-0.2-0.2-0.3-0.4-0.5-0.4C419.2,103.7,418.9,103.9,418.7,104z M370.7,80.2
	c0.1,0.4,0.1,0.9,0.2,1.3c0,0.1,0.2,0.2,0.3,0.3c0,0,0.1-0.1,0.1-0.1C371.2,81.2,371.2,80.6,370.7,80.2z M376.2,82.3
	c-0.3,0.2-0.5,0.4-0.7,0.6c0.4,0.1,0.7,0.2,1,0.2C376.4,82.9,376.3,82.7,376.2,82.3z M331.2,75.6c-0.3,0.3-0.5,0.4-0.7,0.7
	c0.3,0.1,0.6,0.2,0.9,0.3C331.3,76.2,331.2,75.9,331.2,75.6z M463.5,109.7c-0.3,0.3-0.3,0.6-0.1,0.8c0.1,0.2,0.4,0.2,0.6,0.3
	c0,0,0-0.1,0.1-0.1C463.9,110.4,463.7,110.1,463.5,109.7z M421.1,103.6c-0.4-0.1-0.6-0.1-1-0.2c0.1,0.3,0.2,0.5,0.3,0.8
	C420.6,103.9,420.8,103.8,421.1,103.6z M381.5,84.4C381.6,84.4,381.6,84.3,381.5,84.4c0-0.3-0.1-0.5-0.2-0.7
	c-0.2,0.1-0.4,0.3-0.7,0.5C381,84.3,381.3,84.3,381.5,84.4z M468.1,110.6c-0.2,0.2-0.4,0.4-0.6,0.7c0.4,0,0.7,0.1,1,0.1
	C468.3,111,468.2,110.9,468.1,110.6z M341,71c0.3-0.2,0.4-0.4,0.7-0.6c-0.3-0.1-0.6-0.2-0.9-0.3C340.9,70.4,341,70.6,341,71z
	 M340.3,70.7c-0.1-0.3-0.1-0.5-0.2-0.8c-0.2,0.2-0.4,0.3-0.7,0.5C339.8,70.6,340,70.6,340.3,70.7z M377.9,91.5
	c0.1,0.3,0.2,0.5,0.3,0.8c0.2-0.2,0.4-0.4,0.6-0.6C378.5,91.6,378.3,91.5,377.9,91.5z M438.9,100.3c-0.3-0.3-0.5-0.5-0.8-0.8
	c0,0.1-0.1,0.1-0.1,0.1c0.1,0.2,0.1,0.3,0.2,0.5C438.3,100.5,438.4,100.6,438.9,100.3z M350.3,80C350.3,80,350.2,80,350.3,80
	c0,0.2,0,0.4,0,0.6c0.1,0.4,0.1,0.4,0.5,0.2C350.6,80.6,350.4,80.3,350.3,80z M384.9,83.9c0.1,0.3,0.2,0.5,0.3,0.8
	c0.2-0.2,0.3-0.4,0.5-0.6C385.4,84.1,385.2,84,384.9,83.9z M449.4,102.1c0.4,0.5,0.6,0.4,0.9-0.4C450,101.9,449.7,102,449.4,102.1z
	 M465.3,111c0.3,0,0.6,0.1,0.9,0.1c-0.1-0.3-0.2-0.5-0.4-0.7C465.6,110.6,465.5,110.8,465.3,111z M337.5,69.7c0-0.1,0.1-0.1,0.1-0.2
	c-0.1-0.1-0.2-0.3-0.4-0.4c-0.1,0-0.3,0.1-0.4,0.2c0,0,0,0.1,0,0.1C337.1,69.5,337.3,69.6,337.5,69.7z M448.8,103.8
	c0.5-0.5,0.7-0.7,0.1-0.9C448.9,103.1,448.9,103.4,448.8,103.8z M403.6,94.6c0,0,0-0.1-0.1-0.1c-0.2,0.1-0.5,0.1-0.8,0.2
	c0.1,0.2,0.2,0.3,0.3,0.5C403.3,94.9,403.4,94.7,403.6,94.6z M374.8,91c-0.2,0.2-0.3,0.3-0.5,0.5c0.3,0.1,0.5,0.1,0.7,0.2
	C375,91.4,374.9,91.3,374.8,91z M334.1,76.3c0.1,0.2,0.1,0.4,0.2,0.6c0.2-0.2,0.3-0.3,0.5-0.5C334.6,76.4,334.4,76.3,334.1,76.3z
	 M376.3,91.1c-0.3-0.1-0.5-0.1-0.8-0.2c0.1,0.2,0.2,0.4,0.3,0.6C376,91.3,376.1,91.2,376.3,91.1z M335,68.7c0-0.2-0.1-0.4-0.1-0.6
	c-0.2,0.1-0.3,0.2-0.5,0.4C334.6,68.6,334.8,68.6,335,68.7z M438.8,101.8c0.1-0.2,0.1-0.4,0.2-0.7
	C438.5,101.2,438.5,101.4,438.8,101.8z M350.5,82.3c0,0,0.1,0,0.1,0c0-0.1,0.1-0.3,0.1-0.4c0-0.1-0.1-0.1-0.1-0.2
	c-0.1,0.1-0.1,0.2-0.1,0.2C350.5,82,350.5,82.2,350.5,82.3z M357.8,83.3c0.2-0.2,0.3-0.3,0.5-0.5C357.6,82.9,357.6,82.9,357.8,83.3z
	"/>
<path class="st5" d="M54.2,84.6c0.2,1,0.5,1.9,0.8,2.7c0.2,0.7,0.1,1.2-0.4,1.8c-2.2,2.1-4.4,4.3-6.6,6.4c-0.4,0.4-0.8,0.6-1.2,1
	c-0.2,0.2-0.2,0.3-0.1,0.6c1.4,2.9,2,6,2.1,9.1c0,0.3,0.1,0.5,0.3,0.6c1.2,0.8,1.7,2,1.6,3.5c-0.1,0.8-0.5,1.5-1.2,1.8
	c-0.3,0.2-0.6,0.3-1,0.3c-0.6,0.1-0.9,0.5-1,1.1c-0.2,0.9-0.1,1.8,0.2,2.6c0.3,1.1,0.6,2.2,1.1,3.2c0.7,2.1,0.6,4.1-0.5,6.1
	c-0.9,1.5-1.8,3.1-2.9,4.5c-1,1.3-2.4,1.9-4.1,1.5c-0.1,0-0.3,0.1-0.4,0.2c-1.2,1.5-2.7,1.9-4.5,1.3c-1.9-0.6-3.6-1.3-5.4-2.1
	c-2.2-1.1-3.3-3-4-5.3c-0.2-0.5-0.3-1.1-0.5-1.5c-0.3-1.4-1.4-2.3-2.3-3.2c-0.1-0.1-0.3-0.1-0.5-0.1c-0.5,0-1,0.1-1.5,0.1
	c-1.9,0-3-1.2-2.7-3.1c0.1-0.4,0.2-0.8,0.3-1.2c0-0.2,0-0.4-0.1-0.5c-1.9-2.6-3.2-5.5-4-8.6c-0.1-0.4-0.2-0.6-0.6-0.5
	c-3.1,0.2-6.1,0.1-9.1-0.7c-0.8-0.2-1.5-0.5-2.3-0.7c-0.6-0.2-0.8-0.6-1-1.1c-0.6-1.9-1.1-4-1.6-5.9c-0.2-0.7,0-1.3,0.5-1.8
	c0.7-0.8,1.5-1.5,2.3-2.3c3.2-2.9,6.7-5.4,10.7-7.3c0.7-0.3,1-0.7,1-1.5c0.1-2.5,0.2-5,0.2-7.6c0.1-2.3,1.5-4,3.3-5.3
	c1.7-1.1,3.5-0.8,5.2-0.1c1.4,0.5,2.5,1.4,3.6,2.3c1.9,1.7,3.8,3.4,5.7,5.1c0.2,0.2,0.5,0.3,0.8,0.2c4.8-1.1,9.5-1.4,14.3-0.6
	c1.2,0.2,2.4,0.6,3.6,0.9c0.5,0.2,0.8,0.5,1,1c0.3,1.1,0.6,2,0.9,3.1C54.1,84.7,54.2,84.6,54.2,84.6z M38.8,119.1
	c0.2-0.2,0.2-0.3,0.4-0.4c0.5-0.2,1.1-0.2,1.7-0.6c0.3-0.2,0.9-0.1,1.3,0c0.5,0,1-0.5,0.8-1s-0.4-0.9-0.7-1.3
	c-0.2-0.5-0.6-0.9-0.9-1.4c-0.6-1.3,0.4-2.8,1.8-2.7c0.2,0,0.5,0.2,0.5,0.4c0,0.3-0.3,0.3-0.6,0.2c-0.5-0.1-0.8,0.2-1,0.5
	c-0.2,0.4-0.2,0.8,0.1,1.2c1.1-1.4,2.6-1.9,4.2-2.3c-0.4-1.8-0.4-3.4,0.6-4.9c-0.4-0.2-0.7-0.3-1.1-0.5c-0.1,1.1-0.6,1.6-1.5,1.8
	c0.1,1.4-0.9,2.3-2.1,1.9c-0.2,1.1-1.2,1.6-2.3,1c-0.8,0.9-1.4,0.8-2.3-0.1c-0.9,0.8-1.9,0.1-2.1-1c-1.2-0.1-1.7-0.7-1.4-2
	c-0.9-0.6-1.1-1.5-0.5-2.3c0.2-0.2,0.2-0.5,0.1-0.7c-0.2-0.9,0.2-1.5,1.1-1.7c0.1,0,0.2-0.1,0.3-0.2c-2.3,0.6-4.4,1.3-6.6,1.9
	c0.3,0.2,0.6,0.4,0.8,0.6c0.2,0.2,0.2,0.6,0.4,0.8c0.8-0.2,1.4,0.2,1.5,1.1c0.1,0.6,0.2,1.2,0.6,1.8c0.5,0.6,0.2,1.3-0.5,2
	c0.8,1.1,0.1,2.2-1.3,2.3c-0.3,1.1-0.7,1.4-1.9,1.4c-0.5,0.9-1.3,1.1-2,0.6c-0.7,0.6-1.3,0.6-1.8,0.2c-0.2-0.2-0.3-0.2-0.6-0.1
	c-0.5,0.2-1,0.1-1.1-0.4c-0.2-0.6-0.7-0.6-1.1-0.7c0,0.6-0.2,0.9-0.3,1.2c1.9,0.7,2.8,2.1,3.5,4c0.6-0.9,1.9-0.9,2.2-2.1l0,0
	c0.5-0.7,1.5-1.1,2.4-0.8c0.8,0.3,1.4,1.1,1.3,2c0,0.3-0.1,0.6-0.2,0.9c-0.1,0.6,0,1.3,0.3,1.9c0.2,0.4,0.6,0.4,1,0.2
	c0.2-0.2,0.5-0.2,0.7-0.3c0.1-0.1,0.2-0.1,0.3-0.2c0.6-0.3,1.1-0.6,1.8-1c0.1-0.1,0.3,0,0.4,0c0.1,0,0.2,0,0.2-0.1
	c0.5-0.6,1.1-0.6,1.7-0.3C37.5,118.8,37.9,118.6,38.8,119.1z M37,84.6c-1.4-1.4-2.7-2.7-4-4c-0.2-0.2-0.4-0.2-0.6,0
	c-1.2,1.1-2.7,2-4.1,2.7c-3.6,1.9-7.4,2.8-11.5,3.2c-0.3,0-0.5,0.2-0.5,0.5c-0.1,1.1-0.2,2.1-0.2,3.2c0,0.7-0.1,1.5-0.1,2.2
	C19.1,92.8,34.4,87.2,37,84.6z M15.7,96.1c0.3,0,0.6,0,0.8-0.1c3.8-0.4,7.4-1.2,11.2-2.2c1.5-0.4,2.9-1.1,4.4-1.5
	c0.2-0.1,0.6-0.5,0.8-0.1s-0.2,0.6-0.6,0.6c-1.1,0.5-2.2,1-3.2,1.3c-4,1.4-8.2,2-12.4,2.6c-0.3,0-0.6,0.1-0.9,0.2
	c0,0.2,0,0.4-0.1,0.6c0,0.1,0,0.2,0.1,0.3c9.2-0.7,17.8-3.3,25.5-8.6c-1.4-1.4-2.6-2.7-3.9-4c-1.5,1.2-2.9,2.2-4.6,2.9
	c-2.5,1.1-5.1,2.1-7.6,3c-2.8,0.8-5.7,1.6-8.8,1.9c-0.5,0-0.5,0.2-0.3,0.7c0.2,0,0.2,0,0.4,0c2.1-0.4,4.1-0.7,6.1-1.3
	c2.3-0.7,4.7-1.6,7-2.4c0.2-0.1,0.6-0.2,0.8-0.2c0,0.1,0.1,0.2,0.1,0.2c-0.2,0.2-0.5,0.4-0.7,0.5c-0.6,0.2-1.1,0.5-1.8,0.7
	c-2.7,1.1-5.7,2.1-8.7,2.7c-1.1,0.2-2.3,0.4-3.4,0.6C15.8,95.1,15.8,95.6,15.7,96.1z M35,126.3c-0.3,0.4-0.6,0.5-1.1,0.3
	c-0.1,0-0.2-0.1-0.2,0c-0.6,0.2-0.9-0.1-1.2-0.3c-0.2-0.1-0.3-0.2-0.5-0.3c-1-0.1-1.7-0.6-2.2-1.3c-0.6-0.9-1.1-1.9-1.6-2.8
	c-0.5-0.7-1.1-1.4-1.6-2.1c-0.1-0.1-0.4-0.2-0.5-0.2c-0.4,0.2-0.8,0.6-1.3,0.9c0.2,0.2,0.2,0.2,0.3,0.3c1.1,1,1.9,2.2,2.2,3.6
	c0.1,0.3,0.2,0.6,0.2,0.9c0.7,2.5,2.2,4.4,4.7,5.3c1,0.4,2,0.8,3,1.2c1,0.5,1.8,0.5,2.5-0.5c0.2-0.4,0.3-0.6,0.1-1
	c-0.6,0.4-1.1,0.5-1.7,0.2c-0.7-0.4-1.1-1.1-1.1-1.9c0-0.7,0.6-1.3,1.3-1.2c0.7,0,1.2,0.7,0.9,1.3c-0.1,0.2-0.4,0.5-0.6,0.4
	c-0.3,0-0.3-0.3-0.2-0.6c0-0.1,0-0.2-0.1-0.2c-0.1,0-0.2,0-0.2,0.1c-0.1,0.2-0.2,0.3-0.2,0.5c0,0.5,0.4,1.1,0.8,1.2
	c0.6,0.2,0.8-0.2,1.1-0.6c0.1-0.2,0.2-0.2,0.2-0.4c0.2-0.6,0.4-1.3,0.6-1.9c0.1-0.4,0.2-0.7,0-1.1c-0.1-0.1,0.1-0.4,0.2-0.6
	c0.1-0.1,0.4-0.2,0.6-0.1c0.2,0.1,0.3,0.3,0.2,0.5c-0.1,0.3,0.1,0.5,0.3,0.6c0.7,0.6,1.4,1.1,2,1.6c0.1,0.1,0.2,0.1,0.3,0.1
	c0.6-0.2,1.3-1.1,1.3-1.5c0-0.2-0.2-0.6-0.4-0.8c-0.2-0.1-0.6,0-0.8,0.1c-0.2,0.1-0.3,0.2-0.1,0.5c0.1,0.2,0.1,0.4,0.1,0.6
	c-0.2,0-0.5,0.1-0.6,0c-0.5-0.2-0.6-1-0.2-1.5c0.4-0.6,1.2-0.8,1.9-0.6c0.6,0.2,1.1,0.9,1.1,1.6c-0.1,0.8-0.5,1.3-1.1,1.8
	c-0.2,0.2-0.4,0.3-0.7,0.5c0.2,0.2,0.4,0.4,0.6,0.5c0.6,0.1,1.1,0.1,1.7,0c0.1,0,0.1-0.1,0.2-0.2c0.7-1.1,1.5-2.3,2.1-3.4
	c0.6-1,1-2,1.1-3.1c-0.3-0.1-0.6-0.2-0.7-0.3c-0.1-0.1-0.1-0.5-0.1-0.5c0.2-0.2,0.6-0.2,1-0.3c-0.2-0.6-0.4-1.5-0.6-2.2
	c-0.4-1.3-0.9-2.6-1.1-3.9c-0.2-0.8,0-1.7,0-2.6c-1.4-0.1-1.8,0.3-1.7,1.7c0,0.1,0,0.2,0.1,0.3c0.2,1.2,0.5,2.3,0.7,3.6
	c0.2,0.9,0.2,1.9-0.5,2.6c-0.3,0.4-0.6,0.8-0.8,1.3c-0.2,0.3-0.6,0.5-0.9,0.7c-0.5,0.4-0.9,0.9-1.5,1.1c-0.6,0.2-1.1,0.4-1.7,0.4
	c-0.1,0-0.2,0-0.3,0c-0.4,0.5-0.9,0.6-1.5,0.2c-0.4,0.8-0.7,1-1.5,0.8c-0.2,0.3-0.5,0.5-0.9,0.4c-0.1,0-0.2,0-0.2,0.1
	C35.8,126.6,35.4,126.5,35,126.3z M35.3,81.8c0.3,0.3,0.5,0.6,0.7,0.8c1.8,1.9,3.6,3.9,5.4,5.7c0.2,0.2,0.4,0.3,0.7,0.1
	c0.4-0.3,1-0.6,1.4-1c1.9-1.8,3.8-3.6,5.7-5.4c0.1-0.1,0.2-0.2,0.2-0.2c0.3-0.5,0.2-0.7-0.2-0.8c-0.7-0.2-1.5-0.2-2.2-0.2
	c-3.7-0.1-7.5,0.2-11.2,0.9C35.7,81.8,35.5,81.8,35.3,81.8z M3.5,97.1c2.1,0.6,9.5,0.9,11.6,0.5c0.1-2.9,0.2-5.8,0.3-8.8
	C11.1,91.1,7,93.7,3.5,97.1z M41,109c0.2-0.1,0.3-0.1,0.4-0.2c1.1-0.4,1.9-1.2,2.1-2.4c0.2-1.3-0.2-2.3-1.3-3
	c-0.9-0.6-1.9-0.9-3.1-0.9c-1.1,0.1-2.1,0.6-2.7,1.5c-0.7,1-0.8,2.1-0.2,3.2C37.2,108.8,39.2,109.5,41,109z M22.9,111.6L22.9,111.6
	c0.2,0.6,0.6,1.2,1.1,1.7c0.9,1.1,1.9,1.2,3.2,0.6c0.3-0.2,0.6-0.3,0.9-0.6c2.2-1.7,2.3-3.6,0.5-5.7c-0.5-0.6-1.1-0.8-1.9-0.7
	c-1.8,0.2-2.9,1.3-3.6,2.8C22.6,110.3,22.6,110.9,22.9,111.6z M1.5,97.7c0.5,0.1,0.7,0.2,1.1,0.2c4.9,0.9,9.9,1.1,14.9,0.6
	c2.7-0.3,5.3-0.8,7.8-1.3c4.8-1,9.2-2.7,13.4-5.1c4.2-2.5,8-5.5,11.3-9.1c0.6-0.6,1.1-1.2,1.9-1.9c-0.7-0.2-1.3-0.3-1.9-0.6
	c0.6,0.8,0.6,1.1,0.1,1.9c-0.2,0.2-0.3,0.4-0.5,0.6c-0.6,0.6-1.2,1.1-1.8,1.8c-4.1,4.2-9.1,7.4-14.5,9.6c-5.3,2.3-10.7,3.6-16.5,4
	c-4.4,0.3-8.6,0.2-13-0.4c-0.4-0.1-0.7-0.3-1.1-0.5c0.2-0.3,0.3-0.7,0.6-1c2.3-2.3,4.8-4.2,7.6-5.9c1.3-0.8,2.6-1.5,3.9-2.2
	c0.3-0.2,0.6-0.3,0.6-0.9C10.3,90.2,5.6,93.5,1.5,97.7z M28,76.1c-0.6-0.5-1.1-0.9-1.6-1.3c-0.2-0.2-0.4-0.2-0.6,0
	c-0.5,0.4-1,0.7-1.5,1.1c-2.3,1.3-4.7,2.2-7.3,2.5c-0.2,0-0.4,0.2-0.4,0.2c-0.1,0.6-0.1,1.1-0.1,1.7C20.7,79.7,24.6,78.8,28,76.1z
	 M16.4,84.8c1.6-0.3,3.2-0.5,4.8-0.9c3.4-0.7,6.5-2.1,9.4-4c0.4-0.2,0.7-0.6,1.1-0.8c-0.3-0.3-0.6-0.5-0.8-0.7
	c-0.2-0.3-0.5-0.2-0.8,0c-3.8,2.8-8.1,4.4-12.8,4.9c-1,0.1-1,0.1-0.9,1.1C16.3,84.5,16.3,84.6,16.4,84.8z M42.7,99.4
	c0.4,0.5,0.7,1,1.2,1.3c1.1,0.7,1.6,1.8,1.6,3.1c0,0.1,0,0.2,0,0.3c0.2,1.5,0.7,2.1,2.3,2.4c0-0.1,0.1-0.1,0.1-0.2
	c-0.2-1.8-0.5-3.6-0.8-5.4c0-0.2-0.2-0.3-0.4-0.4c-0.9-0.5-1.8-0.9-2.7-1.4C43.5,98.8,43.5,98.7,42.7,99.4z M20.1,106.7
	c-1.1,0.1-0.8-0.1-1.2,0.8c-0.4,1-0.9,1.9-1.3,2.9c-0.1,0.2-0.1,0.3,0,0.5c0.4,0.9,0.8,1.8,1.3,2.6c0.4,0.7,1,1.5,1.5,2.2
	c0.6-0.7,0.8-1.5,0.5-2.2c-0.2-0.6-0.5-1.1-0.8-1.6c-0.3-0.6-0.6-1.4-0.6-2.1C19.6,108.7,19.9,107.8,20.1,106.7z M38.8,99.8
	c0.1,0,0.1-0.1,0.2-0.1c0-1.5-0.1-3.2-0.1-4.8c-1.4,0.6-2.7,1.3-4,2C36.2,97.9,37.5,98.8,38.8,99.8z M39.7,94.5
	c1.4,0.9,2.7,1.7,4.1,2.6c-0.2-1.7-0.3-3.3-0.4-4.9C42.1,92.9,40.9,93.7,39.7,94.5z M30,98.9c1.1,1.1,2.1,2.3,3.2,3.5
	c0.2-1.8,0.5-3.4,0.7-5.1C32.6,97.8,31.3,98.4,30,98.9z M24.9,100.4c1,1.1,1.9,2.3,3,3.5c0.4-1.6,0.8-3.1,1.2-4.7
	C27.6,99.7,26.3,100,24.9,100.4z M47.6,89c-1.2,0.9-2.3,1.8-3.6,2.6c1.3,0.8,2.5,1.5,3.8,2.3C47.7,92.3,47.7,90.7,47.6,89z
	 M23.7,100.7c-1.5,0.2-2.7,0.5-4.2,0.7c0.8,1.3,1.6,2.4,2.5,3.7C22.7,103.6,23.2,102.2,23.7,100.7z M51.7,90.3
	c0.1-0.1,0.1-0.1,0.2-0.2c-0.1-1.5-0.2-2.9-0.3-4.5c-1.1,1-2.1,1.9-3.1,2.7C49.5,89,50.7,89.7,51.7,90.3z M31.5,125.1
	c-1-0.5-0.8-1.4-0.9-2.2c0-0.2-0.1-0.4-0.2-0.5c-0.6-0.8-0.8-1.7-0.8-2.7c0-0.2-0.1-0.3-0.2-0.3c-0.5-0.2-1-0.4-1.5-0.6
	c-0.4-0.1-0.8-0.1-1.1,0.3c1,0.6,1.5,1.5,1.9,2.5c0.5,0.9,0.9,1.8,1.4,2.7C30.5,124.7,30.9,125,31.5,125.1z M16.9,105.4
	c0.1,0,0.1,0,0.2,0c0.5-1.3,1.1-2.6,1.5-3.9c-1.3,0.1-2.4,0.2-3.6,0.2C15.7,103.1,16.2,104.2,16.9,105.4z M12.2,105.5
	c0.6-1.3,1.2-2.5,1.8-3.7c-1.2,0-2.4-0.1-3.6-0.1C10.9,103,11.5,104.2,12.2,105.5z M9.4,101.7c-1.2-0.2-2.3-0.2-3.6-0.4
	c0.6,1.3,1.1,2.6,1.8,4C8.2,104,8.8,102.8,9.4,101.7z M44.3,113.8c-0.1,0-0.1-0.1-0.2-0.1c-0.4,0.3-0.8,0.7-1.2,1.1
	c-0.2,0.2-0.2,0.4-0.1,0.7c0.5,0.6,0.8,1.2,0.9,2c0,0.2,0.2,0.3,0.2,0.5c0.5,0.6,0.7,1.4,0.8,2.1c0,0.2-0.1,0.4-0.1,0.6
	c0.6-0.6,0.6-1.2,0.4-1.9C44.8,117.1,44.3,115.4,44.3,113.8z M16.2,85.6c0,0.1,0,0.1,0,0.2c0.2,0,0.2,0.1,0.4,0.1
	c0.8-0.1,1.5-0.2,2.3-0.2c2.6-0.4,5.1-1.2,7.5-2.2c1.9-0.8,3.7-1.9,5.3-3.2c0.2-0.1,0.2-0.2,0.3-0.4c0-0.1-0.1-0.1-0.1-0.2
	C27.4,83.2,22.1,85,16.2,85.6z M37.9,132.3c1,0,1.8-0.4,2.3-1.1c0.1-0.1,0.1-0.2,0.1-0.4c0-0.2-0.1-0.4,0-0.5
	c0.1-0.1,0.4-0.2,0.6-0.2s0.2,0.2,0.3,0.4c0.1,0.1,0.1,0.2,0.2,0.2c0.6,0.2,2-0.2,2.5-0.7c-1.1-0.2-2.2-0.5-3.3-0.6
	c-0.1,0-0.3,0.1-0.4,0.2c-0.5,0.6-0.9,1.1-1.4,1.6C38.6,131.7,38.2,132,37.9,132.3z M4.9,101.1c-0.9-0.2-1.8-0.3-2.6-0.5
	c0.3,1.2,0.6,2.3,1,3.6h0.1C4,103.2,4.4,102.1,4.9,101.1z M20.6,111.3c0.2-0.3,0.2-0.6,0.4-0.7c-0.7-1-0.5-1.8,0.6-2.3
	c0.1-0.1,0.2-0.2,0.2-0.3c0-1,0.3-1.3,1.2-1.4c0.1,0,0.2-0.1,0.3-0.1c0-0.1,0-0.1,0-0.2c-1,0.2-1.9,0.2-2.8,0.4
	c0,0.4,0.1,0.7,0.1,1.1c-0.1,0.6-0.2,1.3-0.3,2C20.2,110.2,20.3,110.8,20.6,111.3z M48.3,107.4c0-0.1-0.1-0.1-0.1-0.2
	c-0.2,0.1-0.6,0.1-0.6,0.2c-0.8,1.3-0.9,2.7-0.4,4.1c0.1,0.1,0.3,0.2,0.4,0.2c0.1-0.2,0.2-0.3,0.1-0.4c-0.2-1-0.2-2,0.2-3
	C48,108.2,48.2,107.9,48.3,107.4z M37.3,122.1C37.3,122.1,37.4,122.1,37.3,122.1c-0.2-0.6-0.3-1-0.6-1.4c-0.1-0.2-0.3-0.2-0.6-0.3
	c-0.1,0.2-0.3,0.4-0.3,0.6c0,0.6,0.1,1.1,0.2,1.7c0.2,0.7,0.2,0.7,1,0.5c0.4-0.2,0.6-0.3,0.3-0.7C37.4,122.2,37.4,122.2,37.3,122.1z
	 M38.1,119.6c-0.1,0-0.2,0.1-0.2,0.1c0,0.2-0.2,0.5-0.1,0.7c0.1,0.5,0.2,1.1,0.3,1.5c0.2,0.8,0.3,0.9,1.1,0.4
	c0.2-0.2,0.4-0.3,0.2-0.6s-0.3-0.7-0.6-1.1C38.7,120.2,38.5,119.9,38.1,119.6z M22.3,120.1c-0.1-0.6-0.3-1.2-0.7-1.7
	c-0.2-0.2-0.6-0.5-0.9-0.6c-0.2-0.2-0.5,0-0.5,0.3C20.1,119.2,21.2,120.2,22.3,120.1z M18.3,106.8c-0.6,0-1.1,0-1.5,0.1
	c-0.1,0-0.3,0.2-0.3,0.3c0.2,0.7,0.4,1.5,0.6,2.3c0.1,0,0.2,0,0.2,0C17.6,108.7,17.9,107.8,18.3,106.8z M49.4,108.4
	c-0.7,0.9-1,2.3-0.4,3C50.1,111,50.3,109.4,49.4,108.4z M44.4,98.2c0.7,0.6,1.5,1.1,2.3,1.3l0.1-0.1c-0.3-0.7-0.6-1.5-1.1-2.2
	C45.3,97.7,44.9,97.9,44.4,98.2z M53.2,83.9c-0.3,0.3-0.6,0.6-0.9,0.9c-0.1,0.1-0.1,0.2,0,0.3c0.6,0.6,1.1,1.2,1.7,1.9
	c0,0,0.1,0,0.1-0.1C53.8,86,53.5,85,53.2,83.9z M34.7,81c0,0.1,0,0.2,0,0.2c0.2,0,0.4,0.1,0.6,0.1c1.8-0.3,3.6-0.6,5.3-0.9
	c0.7-0.1,1.5-0.2,2.3-0.2C40,80.1,37.3,80.5,34.7,81z M39.7,119.2c-0.1,0-0.2,0.1-0.2,0.1c0,0.3,0,0.6,0.2,1
	c0.2,0.5,0.4,0.9,0.6,1.3c0.1,0.2,0.2,0.4,0.5,0.2s0.6-0.2,0.4-0.6c-0.2-0.5-0.4-1-0.7-1.4C40.2,119.7,39.9,119.5,39.7,119.2z
	 M34.6,123.1L34.6,123.1c0,0.1,0.1,0.2,0.1,0.2c0,0.3,0.1,0.5,0.5,0.4c0.5-0.1,0.3-0.3,0.2-0.6c-0.1-0.2-0.2-0.5-0.2-0.7
	c-0.1-0.3-0.1-0.7-0.2-1.1c0-0.2-0.2-0.2-0.3-0.4c-0.1,0.2-0.2,0.2-0.3,0.4c-0.1,0.2-0.1,0.4-0.1,0.6
	C34.4,122.3,34.5,122.7,34.6,123.1z M20.8,116.5c1.6,0.6,2.5,1.9,2.9,3.5c0.2-0.2,0.2-0.3,0.2-0.4c-0.2-0.4-0.2-0.9-0.5-1.3
	c-0.5-0.9-1.1-1.7-2.1-2C21.1,116.2,20.8,116.2,20.8,116.5z M41.3,100.2c0.4,0.5,0.7,0.9,1.1,1.3c0.4,0,0.8,0,1.2,0
	c-0.3-0.3-0.6-0.6-0.9-1.1C42.1,99.6,42.1,99.6,41.3,100.2C41.3,100.3,41.3,100.3,41.3,100.2z M27.6,117.8c0.7,0.2,1.5,0.4,2.3,0.6
	c0-0.6-0.2-0.9-0.8-1.1C28.4,117.1,28,117.3,27.6,117.8z M40.9,118.9c0.2,0.9,0.6,1.6,1.1,2.4c0.2-0.2,0.4-0.3,0.3-0.4
	C41.9,120.2,41.7,119.4,40.9,118.9z M44,107.5c0.5,0.2,0.8,0.2,1.1-0.2c0.2-0.5,0.2-0.9-0.2-1.1c-0.2-0.1-0.4-0.2-0.5,0.2
	C44.3,106.8,44.2,107.2,44,107.5z M38.6,123.4c0.2,0.3,0.4,0.6,0.6,0.9c0.2,0.2,0.3,0.2,0.5,0c0.2-0.4,0.2-0.9,0.1-1.3
	C39.3,123,39,123.2,38.6,123.4z M36.6,123.9c0.5,0.5,0.8,0.8,1.2,1.1c0.1,0,0.2-0.1,0.2-0.1c-0.1-0.5-0.1-0.9-0.2-1.4
	C37.4,123.7,37.1,123.8,36.6,123.9z M18,100.8c1-0.2,1.3-1.1,1.9-1.8C19,99.3,18.7,100.2,18,100.8z M21.2,98.8
	c-1,0.2-1.4,1.1-1.9,1.8C20.3,100.3,20.8,99.5,21.2,98.8z M20.4,73.2c-0.1,0-0.2-0.1-0.2-0.1c-0.6,1.4-1.4,2.8-2,4.2
	c0.1,0,0.1,0.1,0.2,0.1C19,75.9,19.6,74.6,20.4,73.2z M32.6,121.9c-0.1,0-0.2,0-0.2,0c-0.2,0.7,0,1.4,0.2,2.1c0,0.1,0.2,0.1,0.5,0.2
	C32.8,123.4,32.7,122.6,32.6,121.9z M42.3,102.4c0.3,0.2,0.5,0.4,0.7,0.6c0.1,0,0.1,0.1,0.2,0.1c0.2,0,0.3,0,0.4-0.1
	c0.2-0.3,0.2-0.6-0.2-0.8C43,102.1,42.7,102.2,42.3,102.4z M21,73c-0.1,0-0.1,0-0.2-0.1c-0.7,1.5-1.4,2.8-2.1,4.3
	c0.1,0,0.2,0.1,0.2,0.1C19.7,75.9,20.4,74.6,21,73z M22.3,112.7c-0.3,0.3-0.5,0.6-0.3,0.9c0.1,0.2,0.3,0.4,0.5,0.4
	c0.2,0,0.4-0.2,0.7-0.2C22.9,113.3,22.6,113,22.3,112.7z M22.4,108.9c-0.6-0.1-0.9,0.2-1.1,0.6c-0.1,0.4,0.2,0.6,0.5,0.6
	c0.1,0,0.2-0.2,0.3-0.4C22.2,109.5,22.3,109.1,22.4,108.9z M25.4,80.3c0.5-0.2,1.4-1.8,1.3-2.4C26.2,78.2,26.1,78.4,25.4,80.3z
	 M33.5,121.6c-0.1,0-0.2,0-0.2,0.1c0.1,0.7,0.2,1.5,0.3,2.3c0,0.1,0.2,0.2,0.3,0.2c0.1-0.1,0.2-0.2,0.1-0.3c-0.1-0.5-0.2-1-0.2-1.5
	C33.7,122,33.6,121.8,33.5,121.6z M18.2,80.9c-0.6,0-1.4,1-1.5,1.9C17.5,82.4,17.6,81.6,18.2,80.9z M18.7,99.2
	c-1,0.2-1.3,1.1-1.8,1.8C17.8,100.7,18.1,99.8,18.7,99.2z M24.2,80.7c0.1,0.1,0.2,0.1,0.2,0.2c0.7-0.6,0.7-1.5,1.1-2.3
	C24.7,79.1,24.6,80.1,24.2,80.7z M39.6,110.1c-0.3,0.2-0.9-0.3-1.1,0.3c-0.1,0.3,0.2,0.7,0.6,0.7C39.4,111.2,39.6,110.9,39.6,110.1z
	 M20.4,100.5c0.6,0,1.9-1.3,2.1-1.9C21.6,98.9,21.2,99.9,20.4,100.5z M26.6,79.8c0.7-0.7,0.9-1.8,1.3-2.7
	C27.1,77.9,26.9,78.8,26.6,79.8z M23.6,79.4c-0.6,0.2-1.4,1.5-1.4,2.3C22.9,81,23.1,80.2,23.6,79.4z M20.2,80.5
	c-0.7,0.4-1,1.3-1.4,1.9C19.6,82.1,19.9,81.2,20.2,80.5z M29.3,97c-0.8,0.3-1.1,1.1-1.5,1.8C28.7,98.6,28.8,97.7,29.3,97z M37.7,110
	c-0.3-0.2-0.6-0.2-1-0.4c-0.3,0.5-0.2,1,0.1,1.1C37.5,111,37.5,110.4,37.7,110z M28.5,76.7c-0.3,0.9-0.6,1.7-1.1,2.6
	C28.2,78.9,28.9,77,28.5,76.7z M41.6,109.9c-0.3,0.1-0.6,0.1-0.9,0.2c-0.1,0-0.2,0.2-0.2,0.2c0.2,0.2,0.2,0.5,0.5,0.6
	c0.1,0.1,0.5-0.2,0.6-0.3C41.6,110.4,41.6,110.1,41.6,109.9z M17.7,82.6c0.8-0.4,1.1-1.2,1.4-1.9C18.3,81.1,18.1,81.9,17.7,82.6z
	 M42.4,109.5c0.3,0.2,0.6,0.5,0.9,0.2c0.4-0.3,0.5-0.6,0.2-1.1C43.1,108.8,42.8,109.1,42.4,109.5z M40.4,102c0.4,0,0.7,0.4,1.1,0
	c0.2-0.2,0-0.7-0.3-0.8C40.9,101,40.6,101.3,40.4,102z M22.3,79.9c-0.4,0.1-1.1,1.1-1.2,1.9C21.4,81.8,22.1,80.7,22.3,79.9z
	 M12.4,101.1c0.7-0.1,1.6-1,1.8-1.6C13.3,99.7,12.9,100.4,12.4,101.1z M20,82.2c0.8-0.4,1-1.3,1.3-1.9C20.5,80.7,20.3,81.4,20,82.2z
	 M20.4,76.8c0.1,0,0.1,0.1,0.2,0.1c0.6-1.3,1.1-2.6,1.7-3.8c0-0.1-0.1-0.2-0.2-0.2C21.6,74.2,21,75.5,20.4,76.8z M51.8,84.3
	c0.5-0.8,0.3-1.7,0.5-2.6C51.8,82.5,51.9,83.4,51.8,84.3z M14.7,101.1c0.9-0.2,1.1-1.1,1.8-1.6C15.9,99.4,15.4,99.9,14.7,101.1z
	 M43.9,120.1c0.2-0.4-0.1-1.4-0.6-1.8C43.1,118.8,43.2,119.2,43.9,120.1z M35.4,108.2c-0.4,0.3-0.5,0.9-0.1,1.1c0.2,0.1,0.4,0,0.6,0
	c0-0.2,0-0.3-0.1-0.5C35.8,108.7,35.5,108.4,35.4,108.2z M50.7,85.2c0.4-0.3,0.8-2.1,0.6-2.7C51,83.5,51,84.3,50.7,85.2z M24.3,99.8
	c0.7-0.4,1.1-1.1,1.5-1.9C25.4,98,24.5,99.1,24.3,99.8z M50,86c0.5-0.7,0.4-1.6,0.6-2.5C50,84.3,50.1,85.1,50,86z M21.2,76.5
	c0.1,0,0.2,0.1,0.2,0.1c0.5-1.1,1-2.3,1.5-3.3c-0.1,0-0.2-0.1-0.2-0.1C22.2,74.2,21.7,75.4,21.2,76.5z M29.1,98.4
	c0.9-0.2,1-1.1,1.3-1.8C29.8,97.1,29.5,97.8,29.1,98.4z M44.4,105c0.5-0.3,0.6-0.7,0.3-1.1s-0.5-0.3-0.8-0.1
	C44,104.3,44.2,104.6,44.4,105z M23.6,98.5c-0.1-0.1-0.1-0.1-0.2-0.2c-0.6,0.6-1.1,1.2-1.6,1.9c0.1,0,0.1,0.1,0.2,0.1
	C22.8,99.9,23,99,23.6,98.5z M23.6,107.4c-0.5-0.3-0.7-0.3-1,0s-0.2,0.6,0.2,0.8C23.1,108,23.3,107.8,23.6,107.4z M9,99.5
	c-0.8,0-1.1,0.7-1.5,1.2C8.2,100.7,8.5,100,9,99.5z M42.1,118.9c0.3,0.6,0.6,1.2,0.9,1.9c0.1-0.2,0.2-0.4,0.2-0.5
	C43,119.9,42.7,119.2,42.1,118.9z M28,97.4c-0.9,0.2-1.1,1.1-1.4,1.8C27.3,98.7,27.6,98,28,97.4z M15.7,100.9
	c0.1,0.1,0.2,0.2,0.2,0.2c0.5-0.6,1.1-1.1,1.5-1.7c-0.1-0.1-0.1-0.1-0.2-0.2C16.6,99.6,16.3,100.3,15.7,100.9z M31,111.7
	c-0.2,0.4-0.5,0.7-0.7,1.1c0.4,0.2,0.6,0.1,0.9-0.2C31.4,112.3,31.3,112,31,111.7z M32.6,97c0.7-0.3,0.9-1.1,1.1-1.6
	C33,95.7,32.9,96.4,32.6,97z M15.3,99.5c-0.5-0.1-1.5,1-1.8,1.6C14.5,100.8,14.7,100,15.3,99.5z M24.6,98.2
	c-0.7,0.4-1.1,1.1-1.5,1.8C23.8,99.6,24.2,98.9,24.6,98.2z M41.8,123.6c0.1,0,0.2,0,0.2,0c0.1-0.4,0.2-0.7,0.2-1.1
	c0-0.2-0.2-0.3-0.2-0.6c-0.1,0.2-0.2,0.3-0.2,0.5c-0.1,0.2-0.1,0.4-0.1,0.6C41.8,123.3,41.8,123.4,41.8,123.6z M10.4,100.9
	c0.4,0.1,1.4-0.8,1.5-1.5C11.2,99.8,10.9,100.4,10.4,100.9z M48.2,87.5c0.1,0,0.2,0.1,0.2,0.1c0.4-0.6,0.2-1.5,0.5-2.2
	c-0.1,0-0.2,0-0.2-0.1C48.5,86,48.3,86.8,48.2,87.5z M35,106.2c-0.5,0.2-0.6,0.5-0.5,0.8c0.1,0.3,0.2,0.6,0.6,0.4
	C35.1,107,35.1,106.6,35,106.2z M23.3,81.1c0.6-0.6,0.8-1.3,1.1-2.1C23.8,79.7,23.6,80.4,23.3,81.1z M45.4,89.8
	c0.6-0.5,0.6-1.3,0.8-1.9C45.6,88.3,45.6,89,45.4,89.8z M9.4,100.9c0.4,0,1.4-0.9,1.5-1.4C10.2,99.8,9.9,100.4,9.4,100.9z
	 M23.5,114.1c-0.1,0.4-0.1,0.6-0.1,0.9c0,0.1,0.2,0.2,0.3,0.2c0.2-0.2,0.4-0.3,0.6-0.5C24.1,114.4,23.8,114.3,23.5,114.1z
	 M44.1,89.4c-0.6,0.4-0.6,1.1-0.9,1.8C43.9,90.8,43.9,90,44.1,89.4z M19.3,73.9c-0.1,0-0.1-0.1-0.2-0.1c-0.5,1.1-1.1,2.2-1.5,3.3
	c0.1,0,0.1,0,0.2,0.1C18.3,76.1,18.7,75,19.3,73.9z M49.1,86.8c0.1,0,0.2,0,0.2,0.1c0.2-0.7,0.2-1.5,0.4-2.2c-0.1,0-0.1,0-0.2,0
	C49.1,85.2,49.2,86,49.1,86.8z M26.9,97.7c-0.5,0.2-1.3,1.2-1.4,1.8C26.2,99,26.4,98.4,26.9,97.7z M19.7,76.9c0.1,0,0.1,0.1,0.2,0.1
	c0.5-1.1,1-2.2,1.5-3.2c0,0-0.1,0-0.1-0.1C20.8,74.7,20.2,75.9,19.7,76.9z M25.3,106.5c-0.3-0.4-0.9-0.4-1.1,0
	c-0.1,0.1-0.1,0.2,0,0.3c0,0.1,0.2,0.1,0.3,0.1C24.7,106.7,25,106.6,25.3,106.5z M11.5,101c0.7-0.2,1.1-0.9,1.5-1.4
	C12.3,99.8,12,100.5,11.5,101z M30.7,108.3c0.2-0.4,0.2-0.7-0.1-1.1c-0.1-0.1-0.4-0.1-0.6-0.1c0,0.1,0,0.1,0,0.2
	C30.2,107.7,30.5,108,30.7,108.3z M41.1,122.6c-0.1,0-0.1-0.1-0.2-0.1c-0.1,0.1-0.3,0.2-0.3,0.2c0,0.4-0.2,0.9,0,1.3
	c0.1,0,0.2,0,0.2,0C41,123.5,41,123,41.1,122.6z M31.5,96.3c-0.1,0-0.2-0.1-0.2-0.1c-0.3,0.6-0.6,1.1-1,1.6c0.1,0,0.1,0.1,0.2,0.1
	C31,97.5,31.3,96.9,31.5,96.3z M31.3,109.2c-0.1,0-0.2,0.1-0.2,0.1c0,0.5,0.1,0.9,0.1,1.4c0.1,0,0.1,0,0.2,0.1
	c0.1-0.2,0.3-0.5,0.2-0.7C31.7,109.8,31.4,109.6,31.3,109.2z M42.3,91.9c0.6-0.4,0.6-1.1,0.7-1.7C42.4,90.6,42.4,91.3,42.3,91.9z
	 M35.4,125.6c0.1-0.1,0.2-0.2,0.2-0.2c-0.3-0.3-0.6-0.6-0.9-1c0,0-0.2,0-0.2,0.1c-0.1,0.1-0.1,0.2,0,0.2
	C34.7,125.1,35.1,125.4,35.4,125.6z M36.4,125.3c0.1,0,0.1-0.1,0.2-0.1c0-0.4-0.3-0.7-0.6-1c-0.1-0.1-0.3,0.1-0.6,0.1
	C35.9,124.7,36.2,125,36.4,125.3z M42,91c-0.1,0-0.1-0.1-0.2-0.1c-0.6,0.4-0.6,1.1-0.7,1.6c0.1,0,0.2,0.1,0.2,0.1
	C41.5,92.1,41.8,91.6,42,91z M31.5,97.5c0.6-0.4,0.8-1.1,1.1-1.7C32,96.2,31.7,96.9,31.5,97.5z M34.1,126c0.2-0.3-0.4-1.1-0.6-1.2
	c-0.1,0-0.2,0-0.2,0.1c0,0.1-0.1,0.2,0,0.2C33.5,125.3,33.8,125.6,34.1,126z M18.2,74.8c-0.1,0-0.1-0.1-0.2-0.1
	c-0.5,1-0.9,1.9-1.4,2.8c0.1,0,0.1,0.1,0.2,0.1C17.3,76.7,17.8,75.7,18.2,74.8z M37,93.9c-0.6,0.3-1,1-1.1,1.7l0.1,0.1
	C36.4,95.1,36.7,94.5,37,93.9z M7.8,99.5c-0.1-0.1-0.1-0.1-0.2-0.2c-0.6,0.2-0.8,0.7-1.2,1.1c0.1,0.1,0.1,0.1,0.2,0.2
	C7,100.3,7.4,99.9,7.8,99.5z M46.4,88.9c0.1,0,0.1,0,0.2,0.1c0.4-0.6,0.3-1.3,0.6-1.9c-0.1,0-0.2,0-0.2-0.1
	C46.8,87.6,46.6,88.2,46.4,88.9z M34.8,105.3c0.1,0,0.2,0,0.2,0c0.2-0.4,0.2-0.8,0.4-1.2c-0.1,0-0.1-0.1-0.2-0.1
	c-0.2,0.2-0.4,0.3-0.5,0.6C34.7,104.8,34.8,105,34.8,105.3z M28.3,106.2c0,0.1,0,0.2,0.1,0.2c0.3,0.1,0.6,0.2,0.9,0.2
	c0.1-0.1,0.1-0.1,0.2-0.2c-0.2-0.2-0.2-0.5-0.5-0.6C28.8,105.9,28.5,106.2,28.3,106.2z M36.9,94.9c0.1,0,0.1,0.1,0.2,0.1
	c0.6-0.4,0.6-1.1,0.9-1.6c-0.1,0-0.1-0.1-0.2-0.1C37.5,93.9,37.2,94.4,36.9,94.9z M4.4,99c0-0.1-0.1-0.1-0.1-0.2
	C3.6,99,3.4,99.6,3,100c0.1,0.1,0.1,0.1,0.2,0.2C3.5,99.8,4,99.4,4.4,99z M3.6,98.7c-0.6,0.1-1.1,0.6-1.2,1.2
	C2.7,99.6,3.1,99.2,3.6,98.7z M26,115c0-0.1-0.1-0.2-0.1-0.2c-0.2,0-0.4-0.1-0.6-0.1c-0.2,0-0.2,0.2-0.4,0.2
	c0.2,0.1,0.2,0.3,0.3,0.3C25.5,115.3,25.8,115.2,26,115z M9.9,99.7c-0.1-0.1-0.1-0.1-0.2-0.2c-0.4,0.4-0.8,0.8-1.2,1.2l0.1,0.1
	C9.2,100.7,9.4,100.1,9.9,99.7z M34.9,96c0.1,0,0.1,0.1,0.2,0.1c0.2-0.5,0.6-1.1,0.8-1.5l-0.1-0.1C35.2,94.8,35.1,95.4,34.9,96z
	 M28.7,114.2c0,0.1,0,0.2,0,0.2c0.2,0,0.5,0,0.6-0.2c0.2-0.1,0.2-0.4,0.4-0.6c-0.2,0-0.2,0-0.2,0C29.2,113.8,28.9,113.9,28.7,114.2z
	 M6.1,99.3c-0.6,0-1.4,0.7-1.3,1.1C5.2,100.1,5.7,99.7,6.1,99.3z M39.1,93.8c0.1,0,0.2,0.1,0.2,0.1c0.2-0.6,0.5-1.1,0.7-1.6
	c-0.1,0-0.2-0.1-0.2-0.1C39.6,92.7,39.3,93.3,39.1,93.8z M38.1,94.4c0.1,0,0.2,0.1,0.2,0.1c0.2-0.5,0.5-1.1,0.7-1.5
	c-0.1,0-0.2-0.1-0.2-0.1C38.5,93.3,38.3,93.9,38.1,94.4z M47.9,86.2c-0.1,0-0.2,0-0.2-0.1c-0.2,0.6-0.2,1.2-0.4,1.9
	c0.1,0,0.2,0,0.2,0.1C47.7,87.5,47.8,86.8,47.9,86.2z M44.4,90.3c0.1,0,0.2,0.1,0.2,0.1c0.2-0.6,0.4-1.1,0.6-1.6
	c-0.1,0-0.2-0.1-0.2-0.1C44.8,89.2,44.5,89.8,44.4,90.3z M33.8,96.5c0.1,0.1,0.2,0.1,0.2,0.2c0.2-0.6,0.6-1.1,0.8-1.6
	c-0.1,0-0.2-0.1-0.2-0.1C34.4,95.4,34.1,95.9,33.8,96.5z M40.1,93.2c0.1,0,0.2,0.1,0.2,0.1c0.2-0.6,0.5-1.1,0.6-1.6
	c-0.1,0-0.2-0.1-0.2-0.1C40.6,92.1,40.3,92.7,40.1,93.2z M28.6,78.6c0.6-0.5,0.9-1.2,0.6-1.5C29,77.6,28.8,78,28.6,78.6z M6.9,99.5
	c-0.1-0.1-0.1-0.1-0.2-0.2c-0.4,0.4-0.8,0.7-1.2,1.1c0,0.1,0.1,0.1,0.1,0.2C6.2,100.3,6.5,99.8,6.9,99.5z M5.2,99.2
	C5.1,99.1,5.1,99.1,5,99c-0.4,0.4-0.8,0.7-1.1,1.1c0.1,0.1,0.1,0.1,0.2,0.2C4.4,99.9,4.8,99.5,5.2,99.2z M27.9,114.7L27.9,114.7
	c-0.3,0-0.6,0.1-0.9,0.2c0,0.1,0,0.1-0.1,0.2c0.2,0.1,0.4,0.3,0.5,0.2C27.6,115.1,27.7,114.9,27.9,114.7z M43.2,121.5
	c-0.1,0-0.2,0-0.2,0c-0.2,0.4,0.1,0.9,0,1.3c0.1,0,0.2,0,0.2,0C43.2,122.4,43.2,122,43.2,121.5z M31.4,122.6c-0.1,0-0.1,0-0.2,0
	c-0.1,0.7,0,1.1,0.4,1.4C31.6,123.5,31.5,123,31.4,122.6z M38.2,102c0.5-0.1,0.8-0.1,1.3-0.2C39.1,101.5,38.8,101.6,38.2,102z
	 M27.4,106.2c-0.4-0.6-0.7-0.6-1,0C26.7,106.2,27,106.2,27.4,106.2z M21.9,111c-0.1,0-0.1,0-0.2,0c-0.1,0.2-0.2,0.4-0.2,0.6
	c0,0.2,0.2,0.2,0.3,0.4c0.1,0,0.1-0.1,0.2-0.1C22,111.6,21.9,111.2,21.9,111z M22.9,74.5L22.9,74.5c-0.4,0.6-0.6,1.1-0.9,1.7
	c0.1,0,0.1,0.1,0.2,0.1C22.5,75.7,22.7,75,22.9,74.5z M44.2,101.9c0.2,0.5,0.2,0.8,0.3,1.1C44.8,102.5,44.7,102.2,44.2,101.9z
	 M17,81.1c-0.5-0.1-0.6,0.1-0.5,0.8C16.6,81.6,16.8,81.4,17,81.1z M2.7,98.6c-0.1-0.1-0.2-0.1-0.2-0.2c-0.2,0.2-0.4,0.5-0.6,0.7
	c0.1,0.1,0.1,0.1,0.2,0.2C2.2,99.1,2.4,98.9,2.7,98.6z M35.8,100.2c-0.1,0-0.1,0-0.2,0c-0.1,0.5-0.2,1.1-0.2,1.5c0.1,0,0.1,0,0.2,0
	C35.6,101.2,35.7,100.7,35.8,100.2z M24,73.5c-0.1,0-0.1,0-0.2-0.1c-0.2,0.5-0.3,0.9-0.5,1.4h0.1C23.6,74.4,23.7,73.9,24,73.5z
	 M46.2,94.3c-0.1,0-0.1,0-0.2,0c0,0.5,0,1,0,1.5h0.1C46.2,95.2,46.2,94.8,46.2,94.3z"/>
<path class="st5" d="M76.7,92.7c0.6-1,1.3-1.4,2.3-1.2c0.1,0,0.3,0,0.4-0.1c1.1-0.6,2.1-1.2,3.2-1.7c0.5-0.2,1.2-0.2,1.8-0.2
	c0.3,0,0.6-0.2,0.8-0.2c0.9,0,1.7-0.3,2.3-1c0.1-0.2,0.5-0.2,0.7-0.2c1,0.1,1.9,0.2,2.9,0.3c0.4,0,0.8-0.1,1.2-0.1
	c0.3,0,0.6,0,0.8-0.1c0.8,0,1.7,0.1,2.5,0c1-0.1,1.8,0.1,2.5,0.7c0.2,0.2,0.6,0.3,0.9,0.3c0.9-0.1,1.7,0.1,2.4,0.7
	c0.6,0.5,1.4,0.9,2.1,1.3c0.1,0.1,0.3,0,0.5,0c2.1-0.4,4,0.5,5,2.4c0.1,0.2,0.4,0.4,0.6,0.4c1-0.1,1.9,0.3,2.6,0.9
	c1.2,1,2.4,2.1,3.7,3.1c0.8,0.7,1.4,1.5,1.3,2.6c0,0.2,0.1,0.4,0.2,0.6c2.1,2.1,3,4.9,4,7.6c1.1,3,2.1,6,2.4,9.3
	c0.2,2.8,0.2,5.6-1.2,8.1c-1.2,2.2-2.8,4-5.5,4.3c-1.8,0.3-3.5,0-5.2-0.7c-4.6-1.8-9.1-3.6-13.6-5.6c-6.1-2.7-12.2-5.6-18.2-8.5
	c-4.2-2-8.3-4.3-12.5-6.4c-1.9-1-2.4-2.1-1.9-4.2c0.3-1.5,1.2-2.6,2.2-3.8c0.4-0.5,0.6-0.9,0.3-1.6c-0.4-0.8-0.2-1.6,0.5-2.3
	c0.5-0.4,0.9-0.9,1.3-1.4c0.8-0.8,1.7-0.9,2.7-0.3c0.2,0.1,0.5,0.1,0.7,0.1c0-0.3,0.1-0.6,0-0.7c-0.3-0.5-0.6-1-1-1.4
	c-0.4-0.5-0.4-0.9,0.1-1.2c0.7-0.4,1.5-0.8,2.2-1C75.8,91.2,76.3,91.8,76.7,92.7z M104.4,94c-0.1,1.5-0.6,2.8-1.3,4.1
	c0.4,0.5,0.8,1.1,1.2,1.7C105.7,98.3,105.7,95.8,104.4,94c-1.2-1.6-3.2-2.1-5-1.2c0.7,2.2,0.7,2.2,1.7,2.9c0.7-0.7,1.6-0.5,2.5-0.1
	c0.1-0.4,0.1-0.7,0.3-0.9C104,94.5,104.2,94.3,104.4,94z M110.4,124.8c-0.5-0.8-0.9-1.4-1.2-2c-0.1-0.1-0.1-0.3-0.1-0.4
	c0-0.3,0.1-0.6,0-0.9c-0.2-1.2-0.5-2.4-0.8-3.6c-1-4.1-1.9-8.2-3.5-12.1c-2.1-5.3-5.9-8.8-11.1-10.9c-3.2-1.3-6.6-1.8-10-2
	c-3.2-0.2-6.1,0.7-8.5,2.8c-2.3,2-4.6,4.3-6.7,6.5c-0.8,0.8-1.3,1.9-1.7,2.9c-0.8,2-0.2,3,1.7,3.8c2.4,1.1,4.9,2.2,7.2,3.4
	c7.7,4.2,15.5,7.9,23.5,11.3c0.7,0.3,1.4,0.3,2.1,0.8c0.8,0.6,1.8,0.8,2.8,1.2c0.2,0.1,0.5,0.2,0.6,0.1c0.8-0.7,0.8-0.1,0.8,0.6
	c1,0.1,1.8,1.2,2.9,0.6c0.4,1,0.5,1,1.5,0.7c0.1,0.8,2.1,1.6,3,1.1c-0.4-0.3-0.8-0.6-1.1-0.8c-0.1-0.1-0.2-0.3-0.3-0.5
	c-0.3-0.5-0.5-1.1-0.9-1.6c0-0.1-0.6,0.3-0.9,0.3c-0.2,0-0.5-0.1-0.6-0.3c-0.1-0.1-0.1-0.4-0.2-0.6c0.2,0,0.4-0.1,0.6-0.1
	C109.6,124.9,109.9,124.9,110.4,124.8z M120.6,108.7c-0.1,0-0.1,0-0.2,0c0.7,3.3,1.3,6.7,2,10c0.6,2.8,0.2,5.4-1.7,7.6
	c-2.3,2.7-6.5,2.3-8.2-0.8c-0.3-0.6-0.6-1.3-0.8-1.9c-1.1-3.7-2.1-7.4-3.2-11.2c-1.2-4-2.4-8-4.6-11.6c-2.6-4.3-6-7.5-11.2-8.2
	c-1.5-0.2-3-0.3-4.5-0.4c0.1,0.2,0.1,0.3,0.1,0.3c0.6,0.2,1.3,0.3,1.9,0.5c8,1.9,13.5,6.6,16,14.5c1.3,4,2.3,8.2,3.4,12.2
	c0.6,2.4,1.2,4.8,2.6,6.9c2.8,4.2,7.6,4,9.8-0.5c0.7-1.4,1-3,1.2-4.5C123.6,116.9,122,112.8,120.6,108.7z M112.3,122.8
	c0.2,0.6,0.5,1.3,0.8,2c0.9,2.6,5.1,3.3,6.9,0.9c1.6-2.1,2-4.3,1.5-6.8c-0.2-0.9-0.7-1.2-1.9-1.1c-0.8,0.1-0.8,0.7-0.8,1.2
	c-0.1,1-0.8,1.6-1.7,1.6c-0.4,0-0.7,0-1.1-0.1c-0.9-0.2-1.5,0.1-2.1,0.8C113.5,121.8,113,122.2,112.3,122.8z M113.2,98.1
	c-0.5-0.6-0.9-1.1-1.4-1.7c-0.5-0.5-1.1-0.9-1.9-0.7c-0.2,0-0.5,0.2-0.5,0.4c-0.2,1-0.4,2.1-0.6,3.2c1.1-0.3,1.6,0.2,2.1,1.2
	c0.3,0.6,1.2,1,2,1.2c0.7,0.2,1.5,0,2.2,0c0.1-2.4-0.2-2.8-1.6-3.2c-0.3,0.4-0.1,1.2-1.1,1.3C112.7,99.2,112.9,98.7,113.2,98.1z
	 M113.1,102.5c0,0.7,0,1.3,0,1.9c1.1,0.3,1.3,0.6,1.4,1.8c0,0.2,0.2,0.5,0.3,0.6c1.2,1,1.2,2.2,0.1,3.3c-0.1,0.1-0.3,0.2-0.5,0.2
	c0.8,0.4,1.3,0.2,1.8-0.2c1.8-1.4,1.8-4.2,0-5.9c-0.3-0.3-0.6-0.6-0.8-0.9C114.9,102.4,114.4,102.1,113.1,102.5z M113.7,106.2
	c0-1-0.3-1.2-1.1-0.8c-0.7,0.3-1.3,0.8-1.9,1.2c-0.8,0.5-0.8,1.2-0.6,2c0.2,0.5,0.5,0.7,0.9,0.5c0.8-0.5,1.5-0.2,2.2,0.3
	c0.7,0.5,1.2,0.4,1.5-0.1c0.4-0.6,0.3-1.3-0.3-1.7C113.9,107.2,113.6,106.8,113.7,106.2z M104,92.5c2.7,2.7,2.9,4.7,1,8
	c-0.1,0.1-0.1,0.4,0,0.5c0.2,0.4,0.5,0.8,0.8,1.4c0.5-1.6,1-3.1,1.4-4.5c0.3-1.2,0.3-2.3-0.2-3.4C106.5,93,105.4,92.3,104,92.5z
	 M118.9,109.5c-0.5,0.7-0.8,0.4-0.9-0.1c-0.7,0.7-1.4,1.4-2,2c0.6,0.6,1.3,1.2,2,1.8c-0.1,0.1-0.3,0.1-0.4,0.2
	c0.2-0.5,0.4-1.2,0.8-1.4c0.5-0.2,1.1-0.1,1.8-0.1C120.5,110.8,119.4,110.4,118.9,109.5z M89.8,89.5c0.1,0,0.3,0,0.4-0.1
	c0.1,0.7,0.2,1.3,0.3,2c0.3,0,0.7,0.1,1,0.1c0.7,0.2,0.8-0.1,0.9-0.7c0-0.9-0.6-1.6-1.6-1.7c-0.7-0.1-1.4-0.2-2.1-0.3
	c-0.5-0.1-1,0-1.1,0.3c0.5,0.6,1.1,1.1,1.3,1.7c0.2,0.7,0.5,0.7,1.1,0.5C89.8,90.7,89.8,90.1,89.8,89.5z M110.5,116.1
	c0.1,0.1,0.2,0.1,0.3,0.2c0.1-0.4,0.3-0.7,0.4-1.1c0.1,0.1,0.2,0.2,0.4,0.3c-0.3,0.5-0.5,1-0.8,1.5c0,0,0.1,0,0.1,0.1
	c0.2-0.3,0.4-0.6,0.8-1c0.1,0.4,0.1,0.5,0.2,0.7c0.2-0.1,0.4-0.1,0.7-0.2c-0.2,0.4-0.4,0.7-0.5,1c0.1,0,0.1,0.1,0.2,0.1
	c0.8-1,1.5-2.1,2.2-3.1c0.1-0.1-0.1-0.5-0.2-0.9c-0.8,1.1-0.9,2.2-2.1,2.7c0.5-0.9,1-1.8,1.5-2.8c-0.6-0.4-0.7,0-0.8,0.4
	c-0.2,0.5-0.3,1.2-1.1,1.3c0.3-0.6,0.5-1.2,0.8-1.8c-0.1-0.1-0.2-0.1-0.3-0.2c-0.2,0.2-0.3,0.4-0.5,0.6c-0.2,0.4-0.3,0.8-0.5,1.3
	c-0.5-0.8-1-1.3-0.4-2c-0.4,0.3-0.3,1.1-1.2,0.5C110,114.5,110.3,115.3,110.5,116.1z M97.5,91.9c0-1,0.9-2-0.3-2.7
	c-0.7-0.4-2-0.4-2.5,0.1c0,0.7,0.2,1.1,0.8,1.4c0.3,0.1,0.5,0.5,0.8,0.6C96.7,91.5,97.1,91.7,97.5,91.9z M107.2,105.9
	c0.1,0,0.2,0.1,0.3,0.1c0.6-0.7,1.1-1.4,1.8-2.1c0.5-0.6,0.5-1.1,0-1.6c-0.2-0.2-0.5-0.4-0.7-0.4c-0.3,0.1-0.6,0.4-0.7,0.6
	c-0.3,0.6-0.4,1.3-0.6,2C107.2,105,107.2,105.4,107.2,105.9z M118.1,114.3c-0.2,0.3-0.4,0.6-0.5,0.8c-0.2,0.3-0.4,0.5-0.6,0.8
	c-0.8,0.9-0.8,1.1,0.2,2.2c0.3-0.3,0.5-0.7,0.8-1c0.2-0.3,0.5-0.6,0.7-0.9C119.4,115.4,119.3,115,118.1,114.3z M110.7,102.8
	c-0.1,0.9-0.2,1.5-0.2,2.2c-0.1,0-0.1,0-0.2,0c-0.1-0.2-0.2-0.4-0.3-0.6c-0.1,0-0.2,0-0.2,0c-0.2,0.7-0.4,1.5-0.7,2.4
	c-0.2-0.3-0.3-0.5-0.3-0.7c-0.9,0.8-0.9,0.8-0.6,1.4c0.9-0.7,1.9-1.3,2.8-2C111.9,104.6,111.8,104.1,110.7,102.8z M105.8,91.9
	c1.3,0.7,2,1.7,2.1,3c0.1,1.1,0.1,2.3-0.1,3.4c-0.2,1.3-0.8,2.5-1.1,3.7c-0.2,0.5-0.2,1-0.3,1.6c0.1,0,0.1,0,0.2,0
	c0.5-1.8,1.2-3.5,1.6-5.3c0.3-1.1,0.3-2.4,0.3-3.5C108.4,93.3,107.2,92.2,105.8,91.9z M111.1,109.9c0.7,0.9,1.3,1.7,1.9,2.5
	c0.1,0.1,0.6,0.1,0.8,0c0.3-0.2,0.4-0.5,0.6-0.8C113.3,111,112.9,109,111.1,109.9z M111.9,112.4c0-0.1,0.1-0.1,0.1-0.2
	c-0.8-0.9-1.6-1.7-2.4-2.5c-0.2-0.2-0.6-0.1-1-0.1c0.3,0.8,0.3,1.5,0.7,2c0.2,0.2,0.8,0.1,1.2,0.3C111,112,111.4,112.2,111.9,112.4z
	 M114.2,117.4c0.4-0.4,0.6-0.8,0.9-1.1c-0.4,0.2-0.8,0.7-1.1,0.7c-1-0.2-1.1,0.6-1.4,1.1c0.2-0.2,0.5-0.4,0.6-0.5
	c0.4,0.3,0.8,0.6,1.2,0.8c-0.2,0.3-0.4,0.6-0.7,1c0.4-0.2,0.7-0.4,0.9-0.5c0,0.1,0.1,0.1,0.1,0.2c-0.2,0.2-0.3,0.5-0.5,0.8
	c0.3-0.1,0.4-0.1,0.6-0.2c0.2,0,0.4-0.1,0.6-0.1c0.7-0.1,0.9-0.3,0.7-1c-0.3,0.2-0.5,0.3-0.9,0.6
	C115.2,118.4,115.4,117.5,114.2,117.4z M112.3,103.6c0.1-1.2-0.1-1.4-1.1-1.9c-0.4-0.2-0.7-0.5-0.9-0.9c-0.3-0.5-0.6-1-1.2-0.8
	c-0.4,0.1-0.6,0.6-0.8,0.8c0.8,0.5,1.5,0.9,2.1,1.3C111.7,101.6,111.5,103.2,112.3,103.6z M102.6,91.7c-0.4-1.1-3.1-2.2-4.1-1.6
	c1,0.2,1.4,0.7,1.4,1.6C100.9,91.7,101.8,91.7,102.6,91.7z M75.3,94.3c-0.2-0.4-0.4-0.7-0.6-1.1c-0.6-1-1-1-1.7,0
	c0.4,0.6,0.8,1.2,1.3,1.8C74.7,94.8,75,94.6,75.3,94.3z M85.1,91.4c-0.2-0.4-0.3-0.6-0.5-0.8c-0.4-0.5-1-0.7-1.6-0.4
	C82.9,90.4,83,91,83,91.3c0,0.1,0,0.2,0.1,0.3C83.7,91.6,84.3,91.5,85.1,91.4z M70.2,97.2c0.3,0.3,0.5,0.6,0.7,1
	c0.5-0.5,1-1,1.5-1.5C71.6,96,71.1,96.1,70.2,97.2z M69.1,99.9c0.5-0.5,0.9-0.9,1.4-1.4c-0.2-0.3-0.4-0.6-0.6-1
	C68.7,98.3,68.5,98.9,69.1,99.9z M92.4,88.9c0.3,0.6,0.6,1.1,0.8,1.6c0.3-0.1,0.7-0.3,1-0.4C94.2,89.1,93.7,88.8,92.4,88.9z
	 M115.4,113.7c0.8-1.1,0.7-1.3-0.4-1.7C114.3,112.9,114.3,112.9,115.4,113.7z M102.5,97.5c0.6-0.6,0.8-1,0.3-1.3
	c-0.2-0.2-0.7,0-1.1,0C102,96.6,102.2,97,102.5,97.5z M116.1,115.2c0.9-0.7,1.1-1.2,0.4-2C116.4,113.9,115.5,114.3,116.1,115.2z
	 M86.8,91.4c-0.2-0.4-0.5-0.8-0.6-1.1c-0.2-0.6-0.5-0.5-0.9-0.2C85.8,90.5,85.7,91.8,86.8,91.4z M118.1,118.3
	c-0.4,0.5-1.3,0.6-1.3,1.5C117.8,119.9,118.1,119.5,118.1,118.3z M74.9,92.2c0.4,0.6,0.8,1.1,1.2,1.7C76.3,93,75.7,92.1,74.9,92.2z
	 M116.1,101.4c0.6-0.9,0.4-2-0.4-2.4C115.9,99.8,116,100.5,116.1,101.4z M80,91.7c0,0.1,0.1,0.2,0.1,0.3c0.5-0.1,1-0.1,1.7-0.2
	c-0.4-0.3-0.6-0.7-0.7-0.6C80.7,91.3,80.3,91.6,80,91.7z M111.6,95.3c-0.7-0.7-1.7-0.9-2.1-0.3C110.2,95,110.9,95.1,111.6,95.3z
	 M79.2,92.4c-1-0.4-1.5-0.1-1.6,0.7C78.2,92.8,78.7,92.6,79.2,92.4z M109.1,109c0.1-0.1,0.1-0.1,0.2-0.2c-0.1-0.3-0.1-0.6-0.2-1
	c-0.1,0-0.2-0.1-0.3-0.1c-0.2,0.3-0.4,0.6-0.6,0.9C108.6,108.8,108.8,108.9,109.1,109z M119,113.6c0.1,0.1,0.2,0.1,0.4,0.2
	c0.1-0.2,0.3-0.5,0.2-0.7c0-0.2-0.3-0.5-0.4-0.5c-0.2,0-0.4,0.3-0.6,0.4C118.7,113.2,118.9,113.4,119,113.6z M119.1,117.1
	c0,0.1,0.1,0.1,0.1,0.2c0.3-0.1,0.7-0.1,0.9-0.3c0.1-0.1-0.1-0.5-0.2-1C119.5,116.4,119.3,116.7,119.1,117.1z M87.7,90.3
	c-0.1,0-0.1,0.1-0.2,0.1c0,0.3-0.1,0.6-0.1,1.2c0.4-0.2,0.7-0.4,0.7-0.4C88,90.8,87.8,90.5,87.7,90.3z M119.4,114.3
	c0,0.1,0,0.2,0,0.3c0.3-0.1,0.6,0,0.8-0.2c0.2-0.2,0.2-0.5,0.3-0.8c0,0-0.1,0-0.1,0C120.1,113.8,119.8,114.1,119.4,114.3z"/>
</svg>
