<?xml version="1.0" encoding="utf-8"?>
<!-- Generator: Adobe Illustrator 25.0.0, SVG Export Plug-In . SVG Version: 6.00 Build 0)  -->
<svg version="1.1" id="Capa_1" xmlns="http://www.w3.org/2000/svg" xmlns:xlink="http://www.w3.org/1999/xlink" x="0px" y="0px"
	 viewBox="0 0 479.5 67.9" style="enable-background:new 0 0 479.5 67.9;" xml:space="preserve">
<style type="text/css">
	.st0{fill:#F9F3C4;}
	.st1{fill:#ED3C2E;}
	.st2{fill:#00AC50;}
	.st3{fill:#F17D56;}
</style>
<polygon class="st0" points="36,32 32,32 32,36 28,36 28,40 24,40 24,36 20,36 20,32 16,32 12,32 12,36 16,36 16,40 20,40 20,44 
	24,44 24,47.9 28,47.9 28,44 32,44 32,40 36,40 36,36 40,36 40,32 "/>
<polygon class="st1" points="44,32 44,36 40,36 40,40 36,40 36,44 32,44 32,47.9 28,47.9 28,51.9 24,51.9 24,47.9 20,47.9 20,44 
	16,44 16,40 12,40 12,36 8,36 8,32 4,32 4,28 0,28 0,32 0,36 4,36 4,40 8,40 8,44 12,44 12,47.9 16,47.9 16,51.9 20,51.9 20,55.9 
	24,55.9 24,59.9 28,59.9 28,55.9 32,55.9 32,51.9 36,51.9 36,47.9 40,47.9 40,44 44,44 44,40 47.9,40 47.9,36 47.9,32 "/>
<polygon class="st2" points="44,40 44,44 40,44 40,47.9 36,47.9 36,51.9 32,51.9 32,55.9 28,55.9 28,59.9 24,59.9 24,55.9 20,55.9 
	20,51.9 16,51.9 16,47.9 12,47.9 12,44 8,44 8,40 4,40 4,36 0,36 0,40 0,44 4,44 4,47.9 8,47.9 8,51.9 12,51.9 12,55.9 16,55.9 
	16,59.9 20,59.9 20,63.9 24,63.9 24,67.9 28,67.9 28,63.9 32,63.9 32,59.9 36,59.9 36,55.9 40,55.9 40,51.9 44,51.9 44,47.9 
	47.9,47.9 47.9,44 47.9,40 "/>
<polygon class="st0" points="83.9,32 79.9,32 79.9,36 75.9,36 75.9,40 71.9,40 71.9,36 67.9,36 67.9,32 63.9,32 59.9,32 59.9,36 
	63.9,36 63.9,40 67.9,40 67.9,44 71.9,44 71.9,47.9 75.9,47.9 75.9,44 79.9,44 79.9,40 83.9,40 83.9,36 87.9,36 87.9,32 "/>
<polygon class="st1" points="91.9,32 91.9,36 87.9,36 87.9,40 83.9,40 83.9,44 79.9,44 79.9,47.9 75.9,47.9 75.9,51.9 71.9,51.9 
	71.9,47.9 67.9,47.9 67.9,44 63.9,44 63.9,40 59.9,40 59.9,36 55.9,36 55.9,32 51.9,32 51.9,28 47.9,28 47.9,32 47.9,36 51.9,36 
	51.9,40 55.9,40 55.9,44 59.9,44 59.9,47.9 63.9,47.9 63.9,51.9 67.9,51.9 67.9,55.9 71.9,55.9 71.9,59.9 75.9,59.9 75.9,55.9 
	79.9,55.9 79.9,51.9 83.9,51.9 83.9,47.9 87.9,47.9 87.9,44 91.9,44 91.9,40 95.9,40 95.9,36 95.9,32 "/>
<polygon class="st2" points="91.9,40 91.9,44 87.9,44 87.9,47.9 83.9,47.9 83.9,51.9 79.9,51.9 79.9,55.9 75.9,55.9 75.9,59.9 
	71.9,59.9 71.9,55.9 67.9,55.9 67.9,51.9 63.9,51.9 63.9,47.9 59.9,47.9 59.9,44 55.9,44 55.9,40 51.9,40 51.9,36 47.9,36 47.9,40 
	47.9,44 51.9,44 51.9,47.9 55.9,47.9 55.9,51.9 59.9,51.9 59.9,55.9 63.9,55.9 63.9,59.9 67.9,59.9 67.9,63.9 71.9,63.9 71.9,67.9 
	75.9,67.9 75.9,63.9 79.9,63.9 79.9,59.9 83.9,59.9 83.9,55.9 87.9,55.9 87.9,51.9 91.9,51.9 91.9,47.9 95.9,47.9 95.9,44 95.9,40 
	"/>
<polygon class="st0" points="131.9,32 127.9,32 127.9,36 123.9,36 123.9,40 119.9,40 119.9,36 115.9,36 115.9,32 111.9,32 107.9,32 
	107.9,36 111.9,36 111.9,40 115.9,40 115.9,44 119.9,44 119.9,47.9 123.9,47.9 123.9,44 127.9,44 127.9,40 131.9,40 131.9,36 
	135.8,36 135.8,32 "/>
<polygon class="st1" points="139.8,32 139.8,36 135.8,36 135.8,40 131.9,40 131.9,44 127.9,44 127.9,47.9 123.9,47.9 123.9,51.9 
	119.9,51.9 119.9,47.9 115.9,47.9 115.9,44 111.9,44 111.9,40 107.9,40 107.9,36 103.9,36 103.9,32 99.9,32 99.9,28 95.9,28 
	95.9,32 95.9,36 99.9,36 99.9,40 103.9,40 103.9,44 107.9,44 107.9,47.9 111.9,47.9 111.9,51.9 115.9,51.9 115.9,55.9 119.9,55.9 
	119.9,59.9 123.9,59.9 123.9,55.9 127.9,55.9 127.9,51.9 131.9,51.9 131.9,47.9 135.8,47.9 135.8,44 139.8,44 139.8,40 143.8,40 
	143.8,36 143.8,32 "/>
<polygon class="st2" points="139.8,40 139.8,44 135.8,44 135.8,47.9 131.9,47.9 131.9,51.9 127.9,51.9 127.9,55.9 123.9,55.9 
	123.9,59.9 119.9,59.9 119.9,55.9 115.9,55.9 115.9,51.9 111.9,51.9 111.9,47.9 107.9,47.9 107.9,44 103.9,44 103.9,40 99.9,40 
	99.9,36 95.9,36 95.9,40 95.9,44 99.9,44 99.9,47.9 103.9,47.9 103.9,51.9 107.9,51.9 107.9,55.9 111.9,55.9 111.9,59.9 115.9,59.9 
	115.9,63.9 119.9,63.9 119.9,67.9 123.9,67.9 123.9,63.9 127.9,63.9 127.9,59.9 131.9,59.9 131.9,55.9 135.8,55.9 135.8,51.9 
	139.8,51.9 139.8,47.9 143.8,47.9 143.8,44 143.8,40 "/>
<polygon class="st0" points="179.8,32 175.8,32 175.8,36 171.8,36 171.8,40 167.8,40 167.8,36 163.8,36 163.8,32 159.8,32 155.8,32 
	155.8,36 159.8,36 159.8,40 163.8,40 163.8,44 167.8,44 167.8,47.9 171.8,47.9 171.8,44 175.8,44 175.8,40 179.8,40 179.8,36 
	183.8,36 183.8,32 "/>
<polygon class="st1" points="187.8,32 187.8,36 183.8,36 183.8,40 179.8,40 179.8,44 175.8,44 175.8,47.9 171.8,47.9 171.8,51.9 
	167.8,51.9 167.8,47.9 163.8,47.9 163.8,44 159.8,44 159.8,40 155.8,40 155.8,36 151.8,36 151.8,32 147.8,32 147.8,28 143.8,28 
	143.8,32 143.8,36 147.8,36 147.8,40 151.8,40 151.8,44 155.8,44 155.8,47.9 159.8,47.9 159.8,51.9 163.8,51.9 163.8,55.9 
	167.8,55.9 167.8,59.9 171.8,59.9 171.8,55.9 175.8,55.9 175.8,51.9 179.8,51.9 179.8,47.9 183.8,47.9 183.8,44 187.8,44 187.8,40 
	191.8,40 191.8,36 191.8,32 "/>
<polygon class="st2" points="187.8,40 187.8,44 183.8,44 183.8,47.9 179.8,47.9 179.8,51.9 175.8,51.9 175.8,55.9 171.8,55.9 
	171.8,59.9 167.8,59.9 167.8,55.9 163.8,55.9 163.8,51.9 159.8,51.9 159.8,47.9 155.8,47.9 155.8,44 151.8,44 151.8,40 147.8,40 
	147.8,36 143.8,36 143.8,40 143.8,44 147.8,44 147.8,47.9 151.8,47.9 151.8,51.9 155.8,51.9 155.8,55.9 159.8,55.9 159.8,59.9 
	163.8,59.9 163.8,63.9 167.8,63.9 167.8,67.9 171.8,67.9 171.8,63.9 175.8,63.9 175.8,59.9 179.8,59.9 179.8,55.9 183.8,55.9 
	183.8,51.9 187.8,51.9 187.8,47.9 191.8,47.9 191.8,44 191.8,40 "/>
<polygon class="st0" points="227.7,32 223.8,32 223.8,36 219.8,36 219.8,40 215.8,40 215.8,36 211.8,36 211.8,32 207.8,32 203.8,32 
	203.8,36 207.8,36 207.8,40 211.8,40 211.8,44 215.8,44 215.8,47.9 219.8,47.9 219.8,44 223.8,44 223.8,40 227.7,40 227.7,36 
	231.7,36 231.7,32 "/>
<polygon class="st1" points="235.7,32 235.7,36 231.7,36 231.7,40 227.7,40 227.7,44 223.8,44 223.8,47.9 219.8,47.9 219.8,51.9 
	215.8,51.9 215.8,47.9 211.8,47.9 211.8,44 207.8,44 207.8,40 203.8,40 203.8,36 199.8,36 199.8,32 195.8,32 195.8,28 191.8,28 
	191.8,32 191.8,36 195.8,36 195.8,40 199.8,40 199.8,44 203.8,44 203.8,47.9 207.8,47.9 207.8,51.9 211.8,51.9 211.8,55.9 
	215.8,55.9 215.8,59.9 219.8,59.9 219.8,55.9 223.8,55.9 223.8,51.9 227.7,51.9 227.7,47.9 231.7,47.9 231.7,44 235.7,44 235.7,40 
	239.7,40 239.7,36 239.7,32 "/>
<polygon class="st2" points="235.7,40 235.7,44 231.7,44 231.7,47.9 227.7,47.9 227.7,51.9 223.8,51.9 223.8,55.9 219.8,55.9 
	219.8,59.9 215.8,59.9 215.8,55.9 211.8,55.9 211.8,51.9 207.8,51.9 207.8,47.9 203.8,47.9 203.8,44 199.8,44 199.8,40 195.8,40 
	195.8,36 191.8,36 191.8,40 191.8,44 195.8,44 195.8,47.9 199.8,47.9 199.8,51.9 203.8,51.9 203.8,55.9 207.8,55.9 207.8,59.9 
	211.8,59.9 211.8,63.9 215.8,63.9 215.8,67.9 219.8,67.9 219.8,63.9 223.8,63.9 223.8,59.9 227.7,59.9 227.7,55.9 231.7,55.9 
	231.7,51.9 235.7,51.9 235.7,47.9 239.7,47.9 239.7,44 239.7,40 "/>
<polygon class="st0" points="275.7,32 271.7,32 271.7,36 267.7,36 267.7,40 263.7,40 263.7,36 259.7,36 259.7,32 255.7,32 251.7,32 
	251.7,36 255.7,36 255.7,40 259.7,40 259.7,44 263.7,44 263.7,47.9 267.7,47.9 267.7,44 271.7,44 271.7,40 275.7,40 275.7,36 
	279.7,36 279.7,32 "/>
<polygon class="st1" points="283.7,32 283.7,36 279.7,36 279.7,40 275.7,40 275.7,44 271.7,44 271.7,47.9 267.7,47.9 267.7,51.9 
	263.7,51.9 263.7,47.9 259.7,47.9 259.7,44 255.7,44 255.7,40 251.7,40 251.7,36 247.7,36 247.7,32 243.7,32 243.7,28 239.7,28 
	239.7,32 239.7,36 243.7,36 243.7,40 247.7,40 247.7,44 251.7,44 251.7,47.9 255.7,47.9 255.7,51.9 259.7,51.9 259.7,55.9 
	263.7,55.9 263.7,59.9 267.7,59.9 267.7,55.9 271.7,55.9 271.7,51.9 275.7,51.9 275.7,47.9 279.7,47.9 279.7,44 283.7,44 283.7,40 
	287.7,40 287.7,36 287.7,32 "/>
<polygon class="st2" points="283.7,40 283.7,44 279.7,44 279.7,47.9 275.7,47.9 275.7,51.9 271.7,51.9 271.7,55.9 267.7,55.9 
	267.7,59.9 263.7,59.9 263.7,55.9 259.7,55.9 259.7,51.9 255.7,51.9 255.7,47.9 251.7,47.9 251.7,44 247.7,44 247.7,40 243.7,40 
	243.7,36 239.7,36 239.7,40 239.7,44 243.7,44 243.7,47.9 247.7,47.9 247.7,51.9 251.7,51.9 251.7,55.9 255.7,55.9 255.7,59.9 
	259.7,59.9 259.7,63.9 263.7,63.9 263.7,67.9 267.7,67.9 267.7,63.9 271.7,63.9 271.7,59.9 275.7,59.9 275.7,55.9 279.7,55.9 
	279.7,51.9 283.7,51.9 283.7,47.9 287.7,47.9 287.7,44 287.7,40 "/>
<polygon class="st0" points="323.6,32 319.6,32 319.6,36 315.7,36 315.7,40 311.7,40 311.7,36 307.7,36 307.7,32 303.7,32 299.7,32 
	299.7,36 303.7,36 303.7,40 307.7,40 307.7,44 311.7,44 311.7,47.9 315.7,47.9 315.7,44 319.6,44 319.6,40 323.6,40 323.6,36 
	327.6,36 327.6,32 "/>
<polygon class="st1" points="331.6,32 331.6,36 327.6,36 327.6,40 323.6,40 323.6,44 319.6,44 319.6,47.9 315.7,47.9 315.7,51.9 
	311.7,51.9 311.7,47.9 307.7,47.9 307.7,44 303.7,44 303.7,40 299.7,40 299.7,36 295.7,36 295.7,32 291.7,32 291.7,28 287.7,28 
	287.7,32 287.7,36 291.7,36 291.7,40 295.7,40 295.7,44 299.7,44 299.7,47.9 303.7,47.9 303.7,51.9 307.7,51.9 307.7,55.9 
	311.7,55.9 311.7,59.9 315.7,59.9 315.7,55.9 319.6,55.9 319.6,51.9 323.6,51.9 323.6,47.9 327.6,47.9 327.6,44 331.6,44 331.6,40 
	335.6,40 335.6,36 335.6,32 "/>
<polygon class="st2" points="331.6,40 331.6,44 327.6,44 327.6,47.9 323.6,47.9 323.6,51.9 319.6,51.9 319.6,55.9 315.7,55.9 
	315.7,59.9 311.7,59.9 311.7,55.9 307.7,55.9 307.7,51.9 303.7,51.9 303.7,47.9 299.7,47.9 299.7,44 295.7,44 295.7,40 291.7,40 
	291.7,36 287.7,36 287.7,40 287.7,44 291.7,44 291.7,47.9 295.7,47.9 295.7,51.9 299.7,51.9 299.7,55.9 303.7,55.9 303.7,59.9 
	307.7,59.9 307.7,63.9 311.7,63.9 311.7,67.9 315.7,67.9 315.7,63.9 319.6,63.9 319.6,59.9 323.6,59.9 323.6,55.9 327.6,55.9 
	327.6,51.9 331.6,51.9 331.6,47.9 335.6,47.9 335.6,44 335.6,40 "/>
<polygon class="st0" points="371.6,32 367.6,32 367.6,36 363.6,36 363.6,40 359.6,40 359.6,36 355.6,36 355.6,32 351.6,32 347.6,32 
	347.6,36 351.6,36 351.6,40 355.6,40 355.6,44 359.6,44 359.6,47.9 363.6,47.9 363.6,44 367.6,44 367.6,40 371.6,40 371.6,36 
	375.6,36 375.6,32 "/>
<polygon class="st1" points="379.6,32 379.6,36 375.6,36 375.6,40 371.6,40 371.6,44 367.6,44 367.6,47.9 363.6,47.9 363.6,51.9 
	359.6,51.9 359.6,47.9 355.6,47.9 355.6,44 351.6,44 351.6,40 347.6,40 347.6,36 343.6,36 343.6,32 339.6,32 339.6,28 335.6,28 
	335.6,32 335.6,36 339.6,36 339.6,40 343.6,40 343.6,44 347.6,44 347.6,47.9 351.6,47.9 351.6,51.9 355.6,51.9 355.6,55.9 
	359.6,55.9 359.6,59.9 363.6,59.9 363.6,55.9 367.6,55.9 367.6,51.9 371.6,51.9 371.6,47.9 375.6,47.9 375.6,44 379.6,44 379.6,40 
	383.6,40 383.6,36 383.6,32 "/>
<polygon class="st2" points="379.6,40 379.6,44 375.6,44 375.6,47.9 371.6,47.9 371.6,51.9 367.6,51.9 367.6,55.9 363.6,55.9 
	363.6,59.9 359.6,59.9 359.6,55.9 355.6,55.9 355.6,51.9 351.6,51.9 351.6,47.9 347.6,47.9 347.6,44 343.6,44 343.6,40 339.6,40 
	339.6,36 335.6,36 335.6,40 335.6,44 339.6,44 339.6,47.9 343.6,47.9 343.6,51.9 347.6,51.9 347.6,55.9 351.6,55.9 351.6,59.9 
	355.6,59.9 355.6,63.9 359.6,63.9 359.6,67.9 363.6,67.9 363.6,63.9 367.6,63.9 367.6,59.9 371.6,59.9 371.6,55.9 375.6,55.9 
	375.6,51.9 379.6,51.9 379.6,47.9 383.6,47.9 383.6,44 383.6,40 "/>
<polygon class="st0" points="419.5,32 415.5,32 415.5,36 411.5,36 411.5,40 407.5,40 407.5,36 403.6,36 403.6,32 399.6,32 395.6,32 
	395.6,36 399.6,36 399.6,40 403.6,40 403.6,44 407.5,44 407.5,47.9 411.5,47.9 411.5,44 415.5,44 415.5,40 419.5,40 419.5,36 
	423.5,36 423.5,32 "/>
<polygon class="st1" points="427.5,32 427.5,36 423.5,36 423.5,40 419.5,40 419.5,44 415.5,44 415.5,47.9 411.5,47.9 411.5,51.9 
	407.5,51.9 407.5,47.9 403.6,47.9 403.6,44 399.6,44 399.6,40 395.6,40 395.6,36 391.6,36 391.6,32 387.6,32 387.6,28 383.6,28 
	383.6,32 383.6,36 387.6,36 387.6,40 391.6,40 391.6,44 395.6,44 395.6,47.9 399.6,47.9 399.6,51.9 403.6,51.9 403.6,55.9 
	407.5,55.9 407.5,59.9 411.5,59.9 411.5,55.9 415.5,55.9 415.5,51.9 419.5,51.9 419.5,47.9 423.5,47.9 423.5,44 427.5,44 427.5,40 
	431.5,40 431.5,36 431.5,32 "/>
<polygon class="st2" points="427.5,40 427.5,44 423.5,44 423.5,47.9 419.5,47.9 419.5,51.9 415.5,51.9 415.5,55.9 411.5,55.9 
	411.5,59.9 407.5,59.9 407.5,55.9 403.6,55.9 403.6,51.9 399.6,51.9 399.6,47.9 395.6,47.9 395.6,44 391.6,44 391.6,40 387.6,40 
	387.6,36 383.6,36 383.6,40 383.6,44 387.6,44 387.6,47.9 391.6,47.9 391.6,51.9 395.6,51.9 395.6,55.9 399.6,55.9 399.6,59.9 
	403.6,59.9 403.6,63.9 407.5,63.9 407.5,67.9 411.5,67.9 411.5,63.9 415.5,63.9 415.5,59.9 419.5,59.9 419.5,55.9 423.5,55.9 
	423.5,51.9 427.5,51.9 427.5,47.9 431.5,47.9 431.5,44 431.5,40 "/>
<polygon class="st0" points="467.5,32 463.5,32 463.5,36 459.5,36 459.5,40 455.5,40 455.5,36 451.5,36 451.5,32 447.5,32 443.5,32 
	443.5,36 447.5,36 447.5,40 451.5,40 451.5,44 455.5,44 455.5,47.9 459.5,47.9 459.5,44 463.5,44 463.5,40 467.5,40 467.5,36 
	471.5,36 471.5,32 "/>
<g>
	<rect x="12" y="36" class="st3" width="4" height="4"/>
	<rect x="36" y="36" class="st3" width="4" height="4"/>
	<rect x="16" y="40" class="st3" width="4" height="4"/>
	<rect x="32" y="40" class="st3" width="4" height="4"/>
	<rect x="20" y="44" class="st3" width="4" height="4"/>
	<rect x="28" y="44" class="st3" width="4" height="4"/>
	<rect x="24" y="47.9" class="st3" width="4" height="4"/>
	<rect x="59.9" y="36" class="st3" width="4" height="4"/>
	<rect x="83.9" y="36" class="st3" width="4" height="4"/>
	<rect x="63.9" y="40" class="st3" width="4" height="4"/>
	<rect x="79.9" y="40" class="st3" width="4" height="4"/>
	<rect x="67.9" y="44" class="st3" width="4" height="4"/>
	<rect x="75.9" y="44" class="st3" width="4" height="4"/>
	<rect x="71.9" y="47.9" class="st3" width="4" height="4"/>
	<rect x="107.9" y="36" class="st3" width="4" height="4"/>
	<rect x="131.9" y="36" class="st3" width="4" height="4"/>
	<rect x="111.9" y="40" class="st3" width="4" height="4"/>
	<rect x="127.9" y="40" class="st3" width="4" height="4"/>
	<rect x="115.9" y="44" class="st3" width="4" height="4"/>
	<rect x="123.9" y="44" class="st3" width="4" height="4"/>
	<rect x="119.9" y="47.9" class="st3" width="4" height="4"/>
	<rect x="155.8" y="36" class="st3" width="4" height="4"/>
	<rect x="179.8" y="36" class="st3" width="4" height="4"/>
	<rect x="159.8" y="40" class="st3" width="4" height="4"/>
	<rect x="175.8" y="40" class="st3" width="4" height="4"/>
	<rect x="163.8" y="44" class="st3" width="4" height="4"/>
	<rect x="171.8" y="44" class="st3" width="4" height="4"/>
	<rect x="167.8" y="47.9" class="st3" width="4" height="4"/>
	<rect x="203.8" y="36" class="st3" width="4" height="4"/>
	<rect x="227.7" y="36" class="st3" width="4" height="4"/>
	<rect x="207.8" y="40" class="st3" width="4" height="4"/>
	<rect x="223.8" y="40" class="st3" width="4" height="4"/>
	<rect x="211.8" y="44" class="st3" width="4" height="4"/>
	<rect x="219.8" y="44" class="st3" width="4" height="4"/>
	<rect x="215.8" y="47.9" class="st3" width="4" height="4"/>
	<rect x="251.7" y="36" class="st3" width="4" height="4"/>
	<rect x="275.7" y="36" class="st3" width="4" height="4"/>
	<rect x="255.7" y="40" class="st3" width="4" height="4"/>
	<rect x="271.7" y="40" class="st3" width="4" height="4"/>
	<rect x="259.7" y="44" class="st3" width="4" height="4"/>
	<rect x="267.7" y="44" class="st3" width="4" height="4"/>
	<rect x="263.7" y="47.9" class="st3" width="4" height="4"/>
	<rect x="299.7" y="36" class="st3" width="4" height="4"/>
	<rect x="323.6" y="36" class="st3" width="4" height="4"/>
	<rect x="303.7" y="40" class="st3" width="4" height="4"/>
	<rect x="319.6" y="40" class="st3" width="4" height="4"/>
	<rect x="307.7" y="44" class="st3" width="4" height="4"/>
	<rect x="315.7" y="44" class="st3" width="4" height="4"/>
	<rect x="311.7" y="47.9" class="st3" width="4" height="4"/>
	<rect x="347.6" y="36" class="st3" width="4" height="4"/>
	<rect x="371.6" y="36" class="st3" width="4" height="4"/>
	<rect x="351.6" y="40" class="st3" width="4" height="4"/>
	<rect x="367.6" y="40" class="st3" width="4" height="4"/>
	<rect x="355.6" y="44" class="st3" width="4" height="4"/>
	<rect x="363.6" y="44" class="st3" width="4" height="4"/>
	<rect x="359.6" y="47.9" class="st3" width="4" height="4"/>
	<rect x="395.6" y="36" class="st3" width="4" height="4"/>
	<rect x="419.5" y="36" class="st3" width="4" height="4"/>
	<rect x="399.6" y="40" class="st3" width="4" height="4"/>
	<rect x="415.5" y="40" class="st3" width="4" height="4"/>
	<rect x="403.6" y="44" class="st3" width="4" height="4"/>
	<rect x="411.5" y="44" class="st3" width="4" height="4"/>
	<rect x="407.5" y="47.9" class="st3" width="4" height="4"/>
	<polygon class="st3" points="431.5,0 383.6,0 335.6,0 287.7,0 239.7,0 191.8,0 143.8,0 95.9,0 47.9,0 0,0 0,4 0,8 0,12 0,16 0,20 
		0,24 0,28 4,28 4,32 8,32 8,36 12,36 12,32 16,32 20,32 20,36 24,36 24,40 28,40 28,36 32,36 32,32 36,32 40,32 40,36 44,36 44,32 
		47.9,32 47.9,28 51.9,28 51.9,32 55.9,32 55.9,36 59.9,36 59.9,32 63.9,32 67.9,32 67.9,36 71.9,36 71.9,40 75.9,40 75.9,36 
		79.9,36 79.9,32 83.9,32 87.9,32 87.9,36 91.9,36 91.9,32 95.9,32 95.9,28 99.9,28 99.9,32 103.9,32 103.9,36 107.9,36 107.9,32 
		111.9,32 115.9,32 115.9,36 119.9,36 119.9,40 123.9,40 123.9,36 127.9,36 127.9,32 131.9,32 135.8,32 135.8,36 139.8,36 139.8,32 
		143.8,32 143.8,28 147.8,28 147.8,32 151.8,32 151.8,36 155.8,36 155.8,32 159.8,32 163.8,32 163.8,36 167.8,36 167.8,40 171.8,40 
		171.8,36 175.8,36 175.8,32 179.8,32 183.8,32 183.8,36 187.8,36 187.8,32 191.8,32 191.8,28 195.8,28 195.8,32 199.8,32 199.8,36 
		203.8,36 203.8,32 207.8,32 211.8,32 211.8,36 215.8,36 215.8,40 219.8,40 219.8,36 223.8,36 223.8,32 227.7,32 231.7,32 231.7,36 
		235.7,36 235.7,32 239.7,32 239.7,28 243.7,28 243.7,32 247.7,32 247.7,36 251.7,36 251.7,32 255.7,32 259.7,32 259.7,36 263.7,36 
		263.7,40 267.7,40 267.7,36 271.7,36 271.7,32 275.7,32 279.7,32 279.7,36 283.7,36 283.7,32 287.7,32 287.7,28 291.7,28 291.7,32 
		295.7,32 295.7,36 299.7,36 299.7,32 303.7,32 307.7,32 307.7,36 311.7,36 311.7,40 315.7,40 315.7,36 319.6,36 319.6,32 323.6,32 
		327.6,32 327.6,36 331.6,36 331.6,32 335.6,32 335.6,28 339.6,28 339.6,32 343.6,32 343.6,36 347.6,36 347.6,32 351.6,32 355.6,32 
		355.6,36 359.6,36 359.6,40 363.6,40 363.6,36 367.6,36 367.6,32 371.6,32 375.6,32 375.6,36 379.6,36 379.6,32 383.6,32 383.6,28 
		387.6,28 387.6,32 391.6,32 391.6,36 395.6,36 395.6,32 399.6,32 403.6,32 403.6,36 407.5,36 407.5,40 411.5,40 411.5,36 415.5,36 
		415.5,32 419.5,32 423.5,32 423.5,36 427.5,36 427.5,32 431.5,32 431.5,28 435.5,28 435.5,32 439.5,32 439.5,36 443.5,36 443.5,32 
		447.5,32 451.5,32 451.5,36 455.5,36 455.5,40 459.5,40 459.5,36 463.5,36 463.5,32 467.5,32 471.5,32 471.5,36 475.5,36 475.5,32 
		479.5,32 479.5,28 479.5,24 479.5,20 479.5,16 479.5,12 479.5,8 479.5,4 479.5,0 	"/>
	<rect x="443.5" y="36" class="st3" width="4" height="4"/>
	<rect x="467.5" y="36" class="st3" width="4" height="4"/>
	<rect x="447.5" y="40" class="st3" width="4" height="4"/>
	<rect x="463.5" y="40" class="st3" width="4" height="4"/>
	<rect x="451.5" y="44" class="st3" width="4" height="4"/>
	<rect x="459.5" y="44" class="st3" width="4" height="4"/>
	<rect x="455.5" y="47.9" class="st3" width="4" height="4"/>
</g>
<polygon class="st1" points="475.5,32 475.5,36 471.5,36 471.5,40 467.5,40 467.5,44 463.5,44 463.5,47.9 459.5,47.9 459.5,51.9 
	455.5,51.9 455.5,47.9 451.5,47.9 451.5,44 447.5,44 447.5,40 443.5,40 443.5,36 439.5,36 439.5,32 435.5,32 435.5,28 431.5,28 
	431.5,32 431.5,36 435.5,36 435.5,40 439.5,40 439.5,44 443.5,44 443.5,47.9 447.5,47.9 447.5,51.9 451.5,51.9 451.5,55.9 
	455.5,55.9 455.5,59.9 459.5,59.9 459.5,55.9 463.5,55.9 463.5,51.9 467.5,51.9 467.5,47.9 471.5,47.9 471.5,44 475.5,44 475.5,40 
	479.5,40 479.5,36 479.5,32 "/>
<polygon class="st2" points="475.5,40 475.5,44 471.5,44 471.5,47.9 467.5,47.9 467.5,51.9 463.5,51.9 463.5,55.9 459.5,55.9 
	459.5,59.9 455.5,59.9 455.5,55.9 451.5,55.9 451.5,51.9 447.5,51.9 447.5,47.9 443.5,47.9 443.5,44 439.5,44 439.5,40 435.5,40 
	435.5,36 431.5,36 431.5,40 431.5,44 435.5,44 435.5,47.9 439.5,47.9 439.5,51.9 443.5,51.9 443.5,55.9 447.5,55.9 447.5,59.9 
	451.5,59.9 451.5,63.9 455.5,63.9 455.5,67.9 459.5,67.9 459.5,63.9 463.5,63.9 463.5,59.9 467.5,59.9 467.5,55.9 471.5,55.9 
	471.5,51.9 475.5,51.9 475.5,47.9 479.5,47.9 479.5,44 479.5,40 "/>
</svg>
